<?xml version="1.0" encoding="utf-8"?>
<!-- Generator: Adobe Illustrator 26.1.0, SVG Export Plug-In . SVG Version: 6.00 Build 0)  -->
<svg version="1.1" id="Capa_1" xmlns="http://www.w3.org/2000/svg" xmlns:xlink="http://www.w3.org/1999/xlink" x="0px" y="0px"
	 viewBox="0 0 400 345" style="enable-background:new 0 0 400 345;" xml:space="preserve">
<style type="text/css">
	.st0{opacity:0.55;fill:#41B8DF;enable-background:new    ;}
	.st1{fill:#FDA000;}
	.st2{enable-background:new    ;}
	.st3{fill:#0C1D30;}
	.st4{fill:#C82B0D;}
	.st5{fill:#161615;}
	.st6{fill:#6A3181;}
	.st7{fill:#0D4997;}
</style>
<g id="Grupo_140233" transform="translate(5544 3105.784)">
	<g id="Grupo_137089" transform="translate(-5903.416 -6675.574)">
		<path id="Rectángulo_294795" class="st0" d="M374.4,3569.8h370c8.3,0,15,6.7,15,15v315c0,8.3-6.7,15-15,15h-370
			c-8.3,0-15-6.7-15-15v-315C359.4,3576.5,366.1,3569.8,374.4,3569.8z"/>
		<g id="Grupo_135122">
			<rect id="Rectángulo_36943" x="379.3" y="3588.9" class="st1" width="5" height="39.4"/>
			<g id="Figura_2._Ejemplo_de_operadores_de_asignación_">
				<g class="st2">
					<path class="st3" d="M401.7,3604.2H398v3.8h-1.9v-9.2h6v1.5H398v2.4h3.7V3604.2z"/>
					<path class="st3" d="M403.1,3599.3c0-0.3,0.1-0.5,0.3-0.7c0.2-0.2,0.4-0.3,0.8-0.3c0.3,0,0.6,0.1,0.7,0.3s0.3,0.4,0.3,0.7
						c0,0.3-0.1,0.5-0.3,0.7c-0.2,0.2-0.4,0.3-0.7,0.3s-0.6-0.1-0.7-0.3C403.2,3599.8,403.1,3599.6,403.1,3599.3z M405,3607.9h-1.8
						v-6.9h1.8V3607.9z"/>
					<path class="st3" d="M406.3,3604.5c0-1.1,0.3-1.9,0.8-2.5c0.5-0.6,1.2-1,2-1c0.8,0,1.3,0.3,1.8,0.8l0.1-0.6h1.7v6.6
						c0,0.6-0.1,1.1-0.4,1.6c-0.3,0.4-0.7,0.8-1.2,1c-0.5,0.2-1.1,0.3-1.7,0.3c-0.5,0-1-0.1-1.5-0.3s-0.8-0.5-1.1-0.8l0.8-1.1
						c0.5,0.5,1,0.8,1.7,0.8c0.5,0,0.9-0.1,1.1-0.4c0.3-0.3,0.4-0.6,0.4-1.1v-0.4c-0.4,0.5-1,0.7-1.7,0.7c-0.8,0-1.5-0.3-2-1
						C406.5,3606.5,406.3,3605.6,406.3,3604.5L406.3,3604.5z M408.1,3604.6c0,0.6,0.1,1.1,0.4,1.5c0.2,0.4,0.6,0.5,1,0.5
						c0.6,0,1-0.2,1.2-0.6v-2.9c-0.2-0.4-0.6-0.6-1.2-0.6c-0.4,0-0.8,0.2-1,0.5C408.2,3603.3,408.1,3603.9,408.1,3604.6z"/>
					<path class="st3" d="M418.1,3607.2c-0.5,0.5-1.1,0.8-1.9,0.8c-0.7,0-1.3-0.2-1.7-0.6c-0.4-0.4-0.6-1-0.6-1.9v-4.5h1.8v4.4
						c0,0.7,0.3,1.1,1,1.1c0.6,0,1-0.2,1.3-0.6v-4.9h1.8v6.9h-1.7L418.1,3607.2z"/>
					<path class="st3" d="M425.1,3602.8c-0.2,0-0.5-0.1-0.7-0.1c-0.7,0-1.1,0.2-1.4,0.7v4.5h-1.8v-6.9h1.7l0.1,0.8
						c0.4-0.6,0.9-0.9,1.5-0.9c0.2,0,0.4,0,0.6,0.1L425.1,3602.8z"/>
					<path class="st3" d="M429.8,3607.9c-0.1-0.2-0.1-0.4-0.2-0.6c-0.4,0.5-1,0.7-1.7,0.7c-0.7,0-1.2-0.2-1.7-0.6
						c-0.4-0.4-0.7-0.9-0.7-1.5c0-0.7,0.3-1.3,0.8-1.7c0.5-0.4,1.3-0.6,2.3-0.6h0.8v-0.4c0-0.3-0.1-0.6-0.2-0.8
						c-0.2-0.2-0.4-0.3-0.8-0.3c-0.3,0-0.6,0.1-0.7,0.2c-0.2,0.1-0.3,0.4-0.3,0.6h-1.8c0-0.4,0.1-0.8,0.4-1.1c0.2-0.3,0.6-0.6,1-0.8
						s1-0.3,1.5-0.3c0.8,0,1.5,0.2,2,0.6c0.5,0.4,0.7,1,0.7,1.8v3c0,0.7,0.1,1.1,0.3,1.5v0.1H429.8z M428.2,3606.7
						c0.3,0,0.5-0.1,0.7-0.2c0.2-0.1,0.4-0.3,0.5-0.5v-1.2h-0.7c-0.9,0-1.4,0.3-1.5,1l0,0.1c0,0.2,0.1,0.4,0.2,0.6
						S428,3606.7,428.2,3606.7z"/>
					<path class="st3" d="M437.8,3602.5h1c0.5,0,0.8-0.1,1-0.3c0.2-0.2,0.3-0.5,0.3-0.9c0-0.4-0.1-0.7-0.3-0.9
						c-0.2-0.2-0.5-0.3-0.9-0.3c-0.4,0-0.6,0.1-0.9,0.3s-0.4,0.4-0.4,0.8h-1.8c0-0.5,0.1-0.9,0.4-1.3c0.3-0.4,0.6-0.7,1.1-0.9
						c0.5-0.2,1-0.3,1.5-0.3c1,0,1.7,0.2,2.3,0.7s0.8,1.1,0.8,1.9c0,0.4-0.1,0.8-0.4,1.2s-0.6,0.6-1,0.8c0.5,0.2,0.9,0.5,1.2,0.8
						c0.3,0.4,0.4,0.8,0.4,1.3c0,0.8-0.3,1.5-0.9,2c-0.6,0.5-1.4,0.7-2.4,0.7c-0.9,0-1.7-0.2-2.3-0.7c-0.6-0.5-0.9-1.1-0.9-1.9h1.8
						c0,0.3,0.1,0.6,0.4,0.9c0.3,0.2,0.6,0.3,1,0.3c0.4,0,0.8-0.1,1-0.3c0.2-0.2,0.4-0.5,0.4-0.9c0-0.9-0.5-1.4-1.5-1.4h-1V3602.5z"
						/>
				</g>
				<g class="st2">
					<path class="st3" d="M443.7,3607.3c0-0.2,0.1-0.4,0.2-0.5s0.3-0.2,0.6-0.2s0.5,0.1,0.6,0.2s0.2,0.3,0.2,0.5
						c0,0.2-0.1,0.4-0.2,0.5s-0.3,0.2-0.6,0.2s-0.5-0.1-0.6-0.2S443.7,3607.5,443.7,3607.3z"/>
					<path class="st3" d="M456.7,3603.3h-4.3v3.5h5v1.1h-6.3v-10h6.3v1.1h-4.9v3.2h4.3V3603.3z"/>
					<path class="st3" d="M460.1,3600.5v8.3c0,1.4-0.6,2.1-1.9,2.1c-0.3,0-0.5,0-0.8-0.1v-1c0.1,0,0.3,0.1,0.6,0.1
						c0.3,0,0.5-0.1,0.6-0.2c0.1-0.2,0.2-0.4,0.2-0.8v-8.3H460.1z M458.7,3598.6c0-0.2,0.1-0.4,0.2-0.5c0.1-0.1,0.3-0.2,0.6-0.2
						c0.2,0,0.4,0.1,0.6,0.2s0.2,0.3,0.2,0.5s-0.1,0.4-0.2,0.5s-0.3,0.2-0.6,0.2s-0.4-0.1-0.6-0.2S458.7,3598.8,458.7,3598.6z"/>
					<path class="st3" d="M465.2,3608.1c-1,0-1.8-0.3-2.4-1c-0.6-0.7-0.9-1.5-0.9-2.6v-0.2c0-0.7,0.1-1.4,0.4-2
						c0.3-0.6,0.7-1,1.2-1.4c0.5-0.3,1-0.5,1.6-0.5c1,0,1.7,0.3,2.2,1s0.8,1.5,0.8,2.7v0.5h-5c0,0.7,0.2,1.3,0.6,1.8
						c0.4,0.4,0.9,0.7,1.6,0.7c0.4,0,0.8-0.1,1.1-0.3s0.6-0.4,0.8-0.7l0.8,0.6C467.4,3607.6,466.5,3608.1,465.2,3608.1z
						 M465.1,3601.4c-0.5,0-0.9,0.2-1.3,0.6c-0.3,0.4-0.6,0.9-0.6,1.6h3.7v-0.1c0-0.6-0.2-1.1-0.5-1.5
						C466,3601.6,465.6,3601.4,465.1,3601.4z"/>
					<path class="st3" d="M470.8,3600.5l0,0.8c0.5-0.6,1.3-1,2.2-1c1,0,1.7,0.4,2.1,1.2c0.2-0.4,0.6-0.6,1-0.9s0.9-0.3,1.4-0.3
						c1.6,0,2.4,0.9,2.5,2.6v5h-1.3v-4.9c0-0.5-0.1-0.9-0.4-1.2c-0.2-0.3-0.6-0.4-1.2-0.4c-0.5,0-0.9,0.1-1.2,0.4
						c-0.3,0.3-0.5,0.7-0.5,1.1v4.9h-1.3v-4.8c0-1.1-0.5-1.6-1.6-1.6c-0.8,0-1.4,0.4-1.7,1.1v5.4h-1.3v-7.4H470.8z"/>
					<path class="st3" d="M488.1,3604.3c0,1.1-0.3,2-0.8,2.7s-1.2,1-2.1,1c-0.9,0-1.6-0.3-2.1-0.9v3.6h-1.3v-10.2h1.2l0.1,0.8
						c0.5-0.6,1.2-1,2.1-1c0.9,0,1.6,0.3,2.1,1s0.8,1.6,0.8,2.8V3604.3z M486.8,3604.2c0-0.8-0.2-1.5-0.5-2s-0.8-0.7-1.5-0.7
						c-0.8,0-1.3,0.3-1.7,1v3.5c0.4,0.7,1,1,1.7,1c0.6,0,1.1-0.2,1.4-0.7C486.6,3605.8,486.8,3605.1,486.8,3604.2z"/>
					<path class="st3" d="M491.1,3607.9h-1.3v-10.5h1.3V3607.9z"/>
					<path class="st3" d="M492.8,3604.2c0-0.7,0.1-1.4,0.4-2s0.7-1,1.2-1.3s1.1-0.5,1.7-0.5c1,0,1.8,0.3,2.4,1s0.9,1.6,0.9,2.8v0.1
						c0,0.7-0.1,1.4-0.4,1.9c-0.3,0.6-0.7,1-1.2,1.3s-1.1,0.5-1.8,0.5c-1,0-1.8-0.3-2.4-1S492.8,3605.4,492.8,3604.2L492.8,3604.2z
						 M494,3604.3c0,0.8,0.2,1.5,0.6,2s0.9,0.7,1.5,0.7c0.6,0,1.2-0.3,1.5-0.8c0.4-0.5,0.6-1.2,0.6-2.1c0-0.8-0.2-1.5-0.6-2
						c-0.4-0.5-0.9-0.8-1.5-0.8c-0.6,0-1.1,0.2-1.5,0.7S494,3603.4,494,3604.3z"/>
					<path class="st3" d="M504.2,3604.2c0-1.1,0.3-2,0.8-2.7c0.5-0.7,1.2-1,2.1-1c0.9,0,1.6,0.3,2.1,0.9v-3.9h1.3v10.5h-1.2
						l-0.1-0.8c-0.5,0.6-1.2,0.9-2.1,0.9c-0.9,0-1.6-0.4-2.1-1.1S504.2,3605.4,504.2,3604.2L504.2,3604.2z M505.5,3604.3
						c0,0.8,0.2,1.5,0.5,2s0.8,0.7,1.4,0.7c0.8,0,1.4-0.4,1.8-1.1v-3.4c-0.4-0.7-1-1-1.7-1c-0.6,0-1.1,0.2-1.4,0.7
						S505.5,3603.4,505.5,3604.3z"/>
					<path class="st3" d="M515.5,3608.1c-1,0-1.8-0.3-2.4-1c-0.6-0.7-0.9-1.5-0.9-2.6v-0.2c0-0.7,0.1-1.4,0.4-2
						c0.3-0.6,0.7-1,1.2-1.4c0.5-0.3,1-0.5,1.6-0.5c1,0,1.7,0.3,2.2,1s0.8,1.5,0.8,2.7v0.5h-5c0,0.7,0.2,1.3,0.6,1.8
						c0.4,0.4,0.9,0.7,1.6,0.7c0.4,0,0.8-0.1,1.1-0.3s0.6-0.4,0.8-0.7l0.8,0.6C517.7,3607.6,516.7,3608.1,515.5,3608.1z
						 M515.4,3601.4c-0.5,0-0.9,0.2-1.3,0.6c-0.3,0.4-0.6,0.9-0.6,1.6h3.7v-0.1c0-0.6-0.2-1.1-0.5-1.5
						C516.3,3601.6,515.9,3601.4,515.4,3601.4z"/>
					<path class="st3" d="M527.9,3607.2c-0.5,0.6-1.2,0.9-2.2,0.9c-0.8,0-1.4-0.2-1.8-0.7c-0.4-0.5-0.6-1.1-0.6-2v-4.8h1.3v4.8
						c0,1.1,0.5,1.7,1.4,1.7c1,0,1.6-0.4,1.9-1.1v-5.4h1.3v7.4h-1.2L527.9,3607.2z"/>
					<path class="st3" d="M532.2,3600.5l0,0.9c0.6-0.7,1.3-1.1,2.2-1.1c1.6,0,2.4,0.9,2.4,2.6v4.9h-1.3v-4.9c0-0.5-0.1-0.9-0.4-1.2
						s-0.6-0.4-1.1-0.4c-0.4,0-0.8,0.1-1.1,0.3s-0.6,0.5-0.7,0.9v5.3H531v-7.4H532.2z"/>
					<path class="st3" d="M543.3,3607.9c-0.1-0.1-0.1-0.4-0.2-0.8c-0.6,0.6-1.3,0.9-2.1,0.9c-0.7,0-1.3-0.2-1.8-0.6
						c-0.5-0.4-0.7-0.9-0.7-1.6c0-0.8,0.3-1.4,0.9-1.8c0.6-0.4,1.4-0.6,2.5-0.6h1.2v-0.6c0-0.4-0.1-0.8-0.4-1.1
						c-0.3-0.3-0.7-0.4-1.2-0.4c-0.5,0-0.8,0.1-1.1,0.3s-0.5,0.5-0.5,0.8h-1.3c0-0.4,0.1-0.7,0.4-1.1c0.3-0.3,0.6-0.6,1.1-0.8
						s0.9-0.3,1.5-0.3c0.9,0,1.5,0.2,2,0.6c0.5,0.4,0.7,1,0.8,1.8v3.4c0,0.7,0.1,1.2,0.3,1.6v0.1H543.3z M541.2,3607
						c0.4,0,0.8-0.1,1.1-0.3s0.6-0.5,0.8-0.8v-1.5h-1c-1.5,0-2.3,0.5-2.3,1.4c0,0.4,0.1,0.7,0.4,0.9S540.8,3607,541.2,3607z"/>
					<path class="st3" d="M552.9,3608.1c-1,0-1.8-0.3-2.4-1c-0.6-0.7-0.9-1.5-0.9-2.6v-0.2c0-0.7,0.1-1.4,0.4-2
						c0.3-0.6,0.7-1,1.2-1.4c0.5-0.3,1-0.5,1.6-0.5c1,0,1.7,0.3,2.2,1s0.8,1.5,0.8,2.7v0.5h-5c0,0.7,0.2,1.3,0.6,1.8
						c0.4,0.4,0.9,0.7,1.6,0.7c0.4,0,0.8-0.1,1.1-0.3s0.6-0.4,0.8-0.7l0.8,0.6C555.1,3607.6,554.2,3608.1,552.9,3608.1z
						 M552.8,3601.4c-0.5,0-0.9,0.2-1.3,0.6c-0.3,0.4-0.6,0.9-0.6,1.6h3.7v-0.1c0-0.6-0.2-1.1-0.5-1.5
						C553.7,3601.6,553.3,3601.4,552.8,3601.4z"/>
					<path class="st3" d="M561.6,3606c0-0.3-0.1-0.6-0.4-0.8c-0.3-0.2-0.7-0.4-1.3-0.5s-1.1-0.3-1.5-0.5s-0.7-0.4-0.8-0.7
						s-0.3-0.6-0.3-0.9c0-0.6,0.3-1.1,0.8-1.5s1.2-0.6,2-0.6c0.8,0,1.5,0.2,2,0.6c0.5,0.4,0.8,1,0.8,1.7h-1.3c0-0.3-0.1-0.6-0.4-0.9
						s-0.7-0.4-1.1-0.4c-0.5,0-0.8,0.1-1.1,0.3s-0.4,0.5-0.4,0.8c0,0.3,0.1,0.5,0.4,0.7s0.7,0.3,1.3,0.4s1.1,0.3,1.5,0.5
						c0.4,0.2,0.7,0.4,0.9,0.7c0.2,0.3,0.3,0.6,0.3,1c0,0.7-0.3,1.2-0.8,1.6c-0.5,0.4-1.2,0.6-2.1,0.6c-0.6,0-1.1-0.1-1.6-0.3
						s-0.8-0.5-1.1-0.9c-0.3-0.4-0.4-0.8-0.4-1.2h1.3c0,0.4,0.2,0.8,0.5,1c0.3,0.2,0.7,0.4,1.3,0.4c0.5,0,0.9-0.1,1.2-0.3
						C561.4,3606.6,561.6,3606.3,561.6,3606z"/>
					<path class="st3" d="M566.2,3598.8v1.8h1.4v1h-1.4v4.6c0,0.3,0.1,0.5,0.2,0.7s0.3,0.2,0.6,0.2c0.1,0,0.3,0,0.6-0.1v1
						c-0.3,0.1-0.7,0.1-1,0.1c-0.6,0-1-0.2-1.3-0.5s-0.4-0.8-0.4-1.5v-4.6h-1.3v-1h1.3v-1.8H566.2z"/>
					<path class="st3" d="M572.6,3601.7c-0.2,0-0.4,0-0.6,0c-0.8,0-1.4,0.4-1.7,1.1v5.2h-1.3v-7.4h1.2l0,0.9c0.4-0.7,1-1,1.8-1
						c0.2,0,0.4,0,0.6,0.1V3601.7z"/>
					<path class="st3" d="M578.4,3607.2c-0.5,0.6-1.2,0.9-2.2,0.9c-0.8,0-1.4-0.2-1.8-0.7c-0.4-0.5-0.6-1.1-0.6-2v-4.8h1.3v4.8
						c0,1.1,0.5,1.7,1.4,1.7c1,0,1.6-0.4,1.9-1.1v-5.4h1.3v7.4h-1.2L578.4,3607.2z"/>
					<path class="st3" d="M584.5,3607c0.5,0,0.8-0.1,1.2-0.4c0.3-0.3,0.5-0.6,0.6-1h1.2c0,0.4-0.2,0.8-0.4,1.2
						c-0.3,0.4-0.6,0.7-1.1,0.9c-0.4,0.2-0.9,0.3-1.4,0.3c-1,0-1.8-0.3-2.4-1c-0.6-0.7-0.9-1.6-0.9-2.8v-0.2c0-0.7,0.1-1.4,0.4-1.9
						c0.3-0.6,0.6-1,1.1-1.3c0.5-0.3,1.1-0.5,1.8-0.5c0.8,0,1.5,0.2,2.1,0.7c0.5,0.5,0.8,1.1,0.9,1.9h-1.2c0-0.5-0.2-0.9-0.5-1.2
						c-0.3-0.3-0.7-0.5-1.2-0.5c-0.6,0-1.1,0.2-1.5,0.7c-0.4,0.5-0.5,1.1-0.5,2v0.2c0,0.9,0.2,1.5,0.5,2
						C583.3,3606.8,583.8,3607,584.5,3607z"/>
					<path class="st3" d="M590.6,3598.8v1.8h1.4v1h-1.4v4.6c0,0.3,0.1,0.5,0.2,0.7s0.3,0.2,0.6,0.2c0.1,0,0.3,0,0.6-0.1v1
						c-0.3,0.1-0.7,0.1-1,0.1c-0.6,0-1-0.2-1.3-0.5s-0.4-0.8-0.4-1.5v-4.6h-1.3v-1h1.3v-1.8H590.6z"/>
					<path class="st3" d="M598,3607.2c-0.5,0.6-1.2,0.9-2.2,0.9c-0.8,0-1.4-0.2-1.8-0.7c-0.4-0.5-0.6-1.1-0.6-2v-4.8h1.3v4.8
						c0,1.1,0.5,1.7,1.4,1.7c1,0,1.6-0.4,1.9-1.1v-5.4h1.3v7.4H598L598,3607.2z"/>
					<path class="st3" d="M604.7,3601.7c-0.2,0-0.4,0-0.6,0c-0.8,0-1.4,0.4-1.7,1.1v5.2h-1.3v-7.4h1.2l0,0.9c0.4-0.7,1-1,1.8-1
						c0.2,0,0.4,0,0.6,0.1V3601.7z"/>
					<path class="st3" d="M610.2,3607.9c-0.1-0.1-0.1-0.4-0.2-0.8c-0.6,0.6-1.3,0.9-2.1,0.9c-0.7,0-1.3-0.2-1.8-0.6
						c-0.5-0.4-0.7-0.9-0.7-1.6c0-0.8,0.3-1.4,0.9-1.8c0.6-0.4,1.4-0.6,2.5-0.6h1.2v-0.6c0-0.4-0.1-0.8-0.4-1.1
						c-0.3-0.3-0.7-0.4-1.2-0.4c-0.5,0-0.8,0.1-1.1,0.3c-0.3,0.2-0.5,0.5-0.5,0.8h-1.3c0-0.4,0.1-0.7,0.4-1.1
						c0.3-0.3,0.6-0.6,1.1-0.8c0.4-0.2,0.9-0.3,1.5-0.3c0.9,0,1.5,0.2,2,0.6c0.5,0.4,0.7,1,0.8,1.8v3.4c0,0.7,0.1,1.2,0.3,1.6v0.1
						H610.2z M608.1,3607c0.4,0,0.8-0.1,1.1-0.3s0.6-0.5,0.8-0.8v-1.5h-1c-1.5,0-2.3,0.5-2.3,1.4c0,0.4,0.1,0.7,0.4,0.9
						C607.3,3606.9,607.6,3607,608.1,3607z"/>
					<path class="st3" d="M616.4,3604.2c0-1.1,0.3-2,0.8-2.7c0.5-0.7,1.2-1,2.1-1c0.9,0,1.6,0.3,2.1,0.9v-3.9h1.3v10.5h-1.2
						l-0.1-0.8c-0.5,0.6-1.2,0.9-2.1,0.9c-0.9,0-1.6-0.4-2.1-1.1S616.4,3605.4,616.4,3604.2L616.4,3604.2z M617.6,3604.3
						c0,0.8,0.2,1.5,0.5,2c0.3,0.5,0.8,0.7,1.4,0.7c0.8,0,1.4-0.4,1.8-1.1v-3.4c-0.4-0.7-1-1-1.7-1c-0.6,0-1.1,0.2-1.4,0.7
						C617.8,3602.7,617.6,3603.4,617.6,3604.3z"/>
					<path class="st3" d="M627.6,3608.1c-1,0-1.8-0.3-2.4-1c-0.6-0.7-0.9-1.5-0.9-2.6v-0.2c0-0.7,0.1-1.4,0.4-2
						c0.3-0.6,0.7-1,1.2-1.4c0.5-0.3,1-0.5,1.6-0.5c1,0,1.7,0.3,2.2,1s0.8,1.5,0.8,2.7v0.5h-5c0,0.7,0.2,1.3,0.6,1.8
						c0.4,0.4,0.9,0.7,1.6,0.7c0.4,0,0.8-0.1,1.1-0.3c0.3-0.2,0.6-0.4,0.8-0.7l0.8,0.6C629.8,3607.6,628.9,3608.1,627.6,3608.1z
						 M627.5,3601.4c-0.5,0-0.9,0.2-1.3,0.6c-0.3,0.4-0.6,0.9-0.6,1.6h3.7v-0.1c0-0.6-0.2-1.1-0.5-1.5
						C628.4,3601.6,628,3601.4,627.5,3601.4z"/>
					<path class="st3" d="M638.4,3607c0.5,0,0.8-0.1,1.2-0.4c0.3-0.3,0.5-0.6,0.6-1h1.2c0,0.4-0.2,0.8-0.4,1.2
						c-0.3,0.4-0.6,0.7-1.1,0.9c-0.4,0.2-0.9,0.3-1.4,0.3c-1,0-1.8-0.3-2.4-1c-0.6-0.7-0.9-1.6-0.9-2.8v-0.2c0-0.7,0.1-1.4,0.4-1.9
						c0.3-0.6,0.6-1,1.1-1.3c0.5-0.3,1.1-0.5,1.8-0.5c0.8,0,1.5,0.2,2.1,0.7c0.5,0.5,0.8,1.1,0.9,1.9h-1.2c0-0.5-0.2-0.9-0.5-1.2
						c-0.3-0.3-0.7-0.5-1.2-0.5c-0.6,0-1.1,0.2-1.5,0.7c-0.4,0.5-0.5,1.1-0.5,2v0.2c0,0.9,0.2,1.5,0.5,2
						C637.3,3606.8,637.8,3607,638.4,3607z"/>
					<path class="st3" d="M642.4,3604.2c0-0.7,0.1-1.4,0.4-2c0.3-0.6,0.7-1,1.2-1.3c0.5-0.3,1.1-0.5,1.7-0.5c1,0,1.8,0.3,2.4,1
						s0.9,1.6,0.9,2.8v0.1c0,0.7-0.1,1.4-0.4,1.9c-0.3,0.6-0.7,1-1.2,1.3s-1.1,0.5-1.8,0.5c-1,0-1.8-0.3-2.4-1
						S642.4,3605.4,642.4,3604.2L642.4,3604.2z M643.7,3604.3c0,0.8,0.2,1.5,0.6,2c0.4,0.5,0.9,0.7,1.5,0.7c0.6,0,1.2-0.3,1.5-0.8
						c0.4-0.5,0.6-1.2,0.6-2.1c0-0.8-0.2-1.5-0.6-2c-0.4-0.5-0.9-0.8-1.5-0.8c-0.6,0-1.1,0.2-1.5,0.7S643.7,3603.4,643.7,3604.3z"/>
					<path class="st3" d="M652,3600.5l0,0.9c0.6-0.7,1.3-1.1,2.2-1.1c1.6,0,2.4,0.9,2.4,2.6v4.9h-1.3v-4.9c0-0.5-0.1-0.9-0.4-1.2
						s-0.6-0.4-1.1-0.4c-0.4,0-0.8,0.1-1.1,0.3c-0.3,0.2-0.6,0.5-0.7,0.9v5.3h-1.3v-7.4H652z"/>
					<path class="st3" d="M660.2,3598.8v1.8h1.4v1h-1.4v4.6c0,0.3,0.1,0.5,0.2,0.7s0.3,0.2,0.6,0.2c0.1,0,0.3,0,0.6-0.1v1
						c-0.3,0.1-0.7,0.1-1,0.1c-0.6,0-1-0.2-1.3-0.5s-0.4-0.8-0.4-1.5v-4.6h-1.3v-1h1.3v-1.8H660.2z"/>
					<path class="st3" d="M666.6,3601.7c-0.2,0-0.4,0-0.6,0c-0.8,0-1.4,0.4-1.7,1.1v5.2h-1.3v-7.4h1.2l0,0.9c0.4-0.7,1-1,1.8-1
						c0.2,0,0.4,0,0.6,0.1V3601.7z"/>
					<path class="st3" d="M667.3,3604.2c0-0.7,0.1-1.4,0.4-2c0.3-0.6,0.7-1,1.2-1.3c0.5-0.3,1.1-0.5,1.7-0.5c1,0,1.8,0.3,2.4,1
						s0.9,1.6,0.9,2.8v0.1c0,0.7-0.1,1.4-0.4,1.9c-0.3,0.6-0.7,1-1.2,1.3s-1.1,0.5-1.8,0.5c-1,0-1.8-0.3-2.4-1
						S667.3,3605.4,667.3,3604.2L667.3,3604.2z M668.6,3604.3c0,0.8,0.2,1.5,0.6,2c0.4,0.5,0.9,0.7,1.5,0.7c0.6,0,1.2-0.3,1.5-0.8
						c0.4-0.5,0.6-1.2,0.6-2.1c0-0.8-0.2-1.5-0.6-2c-0.4-0.5-0.9-0.8-1.5-0.8c-0.6,0-1.1,0.2-1.5,0.7S668.6,3603.4,668.6,3604.3z"/>
					<path class="st3" d="M677,3607.9h-1.3v-10.5h1.3V3607.9z"/>
				</g>
				<g class="st2">
					<path class="st3" d="M453.6,3623.8c0.5,0,0.8-0.1,1.2-0.4s0.5-0.6,0.6-1h1.2c0,0.4-0.2,0.8-0.4,1.2s-0.6,0.7-1.1,0.9
						s-0.9,0.3-1.4,0.3c-1,0-1.8-0.3-2.4-1c-0.6-0.7-0.9-1.6-0.9-2.8v-0.2c0-0.7,0.1-1.4,0.4-1.9s0.6-1,1.1-1.3s1.1-0.5,1.8-0.5
						c0.8,0,1.5,0.2,2.1,0.7s0.8,1.1,0.9,1.9h-1.2c0-0.5-0.2-0.9-0.5-1.2c-0.3-0.3-0.7-0.5-1.2-0.5c-0.6,0-1.1,0.2-1.5,0.7
						c-0.4,0.5-0.5,1.1-0.5,2v0.2c0,0.9,0.2,1.5,0.5,2S452.9,3623.8,453.6,3623.8z"/>
					<path class="st3" d="M457.6,3621c0-0.7,0.1-1.4,0.4-2s0.7-1,1.2-1.3s1.1-0.5,1.7-0.5c1,0,1.8,0.3,2.4,1s0.9,1.6,0.9,2.8v0.1
						c0,0.7-0.1,1.4-0.4,1.9c-0.3,0.6-0.7,1-1.2,1.3s-1.1,0.5-1.8,0.5c-1,0-1.8-0.3-2.4-1S457.6,3622.2,457.6,3621L457.6,3621z
						 M458.9,3621.1c0,0.8,0.2,1.5,0.6,2s0.9,0.7,1.5,0.7c0.6,0,1.2-0.3,1.5-0.8c0.4-0.5,0.6-1.2,0.6-2.1c0-0.8-0.2-1.5-0.6-2
						c-0.4-0.5-0.9-0.8-1.5-0.8c-0.6,0-1.1,0.2-1.5,0.7S458.9,3620.2,458.9,3621.1z"/>
					<path class="st3" d="M467.1,3617.3l0,0.9c0.6-0.7,1.3-1.1,2.2-1.1c1.6,0,2.4,0.9,2.4,2.6v4.9h-1.3v-4.9c0-0.5-0.1-0.9-0.4-1.2
						s-0.6-0.4-1.1-0.4c-0.4,0-0.8,0.1-1.1,0.3s-0.6,0.5-0.7,0.9v5.3h-1.3v-7.4H467.1z"/>
					<path class="st3" d="M473.4,3621c0-1.1,0.3-2,0.8-2.7c0.5-0.7,1.2-1,2.1-1c0.9,0,1.6,0.3,2.1,0.9v-3.9h1.3v10.5h-1.2l-0.1-0.8
						c-0.5,0.6-1.2,0.9-2.1,0.9c-0.9,0-1.6-0.4-2.1-1.1S473.4,3622.2,473.4,3621L473.4,3621z M474.6,3621.1c0,0.8,0.2,1.5,0.5,2
						s0.8,0.7,1.4,0.7c0.8,0,1.4-0.4,1.8-1.1v-3.4c-0.4-0.7-1-1-1.7-1c-0.6,0-1.1,0.2-1.4,0.7S474.6,3620.2,474.6,3621.1z"/>
					<path class="st3" d="M481.6,3615.4c0-0.2,0.1-0.4,0.2-0.5s0.3-0.2,0.6-0.2s0.4,0.1,0.6,0.2s0.2,0.3,0.2,0.5s-0.1,0.4-0.2,0.5
						s-0.3,0.2-0.6,0.2s-0.4-0.1-0.6-0.2S481.6,3615.6,481.6,3615.4z M482.9,3624.7h-1.3v-7.4h1.3V3624.7z"/>
					<path class="st3" d="M487.9,3623.8c0.5,0,0.8-0.1,1.2-0.4s0.5-0.6,0.6-1h1.2c0,0.4-0.2,0.8-0.4,1.2s-0.6,0.7-1.1,0.9
						s-0.9,0.3-1.4,0.3c-1,0-1.8-0.3-2.4-1c-0.6-0.7-0.9-1.6-0.9-2.8v-0.2c0-0.7,0.1-1.4,0.4-1.9s0.6-1,1.1-1.3s1.1-0.5,1.8-0.5
						c0.8,0,1.5,0.2,2.1,0.7s0.8,1.1,0.9,1.9h-1.2c0-0.5-0.2-0.9-0.5-1.2c-0.3-0.3-0.7-0.5-1.2-0.5c-0.6,0-1.1,0.2-1.5,0.7
						c-0.4,0.5-0.5,1.1-0.5,2v0.2c0,0.9,0.2,1.5,0.5,2S487.3,3623.8,487.9,3623.8z"/>
					<path class="st3" d="M492.3,3615.4c0-0.2,0.1-0.4,0.2-0.5s0.3-0.2,0.6-0.2s0.4,0.1,0.6,0.2s0.2,0.3,0.2,0.5s-0.1,0.4-0.2,0.5
						s-0.3,0.2-0.6,0.2s-0.4-0.1-0.6-0.2S492.3,3615.6,492.3,3615.4z M493.7,3624.7h-1.3v-7.4h1.3V3624.7z"/>
					<path class="st3" d="M495.4,3621c0-0.7,0.1-1.4,0.4-2s0.7-1,1.2-1.3s1.1-0.5,1.7-0.5c1,0,1.8,0.3,2.4,1s0.9,1.6,0.9,2.8v0.1
						c0,0.7-0.1,1.4-0.4,1.9c-0.3,0.6-0.7,1-1.2,1.3s-1.1,0.5-1.8,0.5c-1,0-1.8-0.3-2.4-1S495.4,3622.2,495.4,3621L495.4,3621z
						 M496.6,3621.1c0,0.8,0.2,1.5,0.6,2s0.9,0.7,1.5,0.7c0.6,0,1.2-0.3,1.5-0.8c0.4-0.5,0.6-1.2,0.6-2.1c0-0.8-0.2-1.5-0.6-2
						c-0.4-0.5-0.9-0.8-1.5-0.8c-0.6,0-1.1,0.2-1.5,0.7S496.6,3620.2,496.6,3621.1z"/>
					<path class="st3" d="M504.9,3617.3l0,0.9c0.6-0.7,1.3-1.1,2.2-1.1c1.6,0,2.4,0.9,2.4,2.6v4.9h-1.3v-4.9c0-0.5-0.1-0.9-0.4-1.2
						s-0.6-0.4-1.1-0.4c-0.4,0-0.8,0.1-1.1,0.3s-0.6,0.5-0.7,0.9v5.3h-1.3v-7.4H504.9z"/>
					<path class="st3" d="M516,3624.7c-0.1-0.1-0.1-0.4-0.2-0.8c-0.6,0.6-1.3,0.9-2.1,0.9c-0.7,0-1.3-0.2-1.8-0.6
						c-0.5-0.4-0.7-0.9-0.7-1.6c0-0.8,0.3-1.4,0.9-1.8c0.6-0.4,1.4-0.6,2.5-0.6h1.2v-0.6c0-0.4-0.1-0.8-0.4-1.1
						c-0.3-0.3-0.7-0.4-1.2-0.4c-0.5,0-0.8,0.1-1.1,0.3s-0.5,0.5-0.5,0.8h-1.3c0-0.4,0.1-0.7,0.4-1.1c0.3-0.3,0.6-0.6,1.1-0.8
						s0.9-0.3,1.5-0.3c0.9,0,1.5,0.2,2,0.6c0.5,0.4,0.7,1,0.8,1.8v3.4c0,0.7,0.1,1.2,0.3,1.6v0.1H516z M513.9,3623.8
						c0.4,0,0.8-0.1,1.1-0.3s0.6-0.5,0.8-0.8v-1.5h-1c-1.5,0-2.3,0.5-2.3,1.4c0,0.4,0.1,0.7,0.4,0.9S513.5,3623.8,513.9,3623.8z"/>
					<path class="st3" d="M520.4,3624.7h-1.3v-10.5h1.3V3624.7z"/>
				</g>
				<g class="st2">
					<path class="st3" d="M526.5,3624.7h-1.2l1.3-7.4h1.2L526.5,3624.7z M527.5,3614.6c0.2,0,0.4,0.1,0.5,0.2
						c0.1,0.1,0.2,0.3,0.2,0.5c0,0.2-0.1,0.4-0.2,0.5s-0.3,0.2-0.5,0.2s-0.4-0.1-0.5-0.2s-0.2-0.3-0.2-0.5s0.1-0.4,0.2-0.5
						S527.3,3614.7,527.5,3614.6z"/>
					<path class="st3" d="M529.1,3624.7l1.1-6.4h-1.1l0.2-1h1.1l0.1-0.9c0.1-0.7,0.4-1.3,0.9-1.7c0.5-0.4,1.1-0.7,1.8-0.6
						c0.2,0,0.5,0,0.9,0.1l-0.2,1c-0.2,0-0.4-0.1-0.7-0.1c-0.4,0-0.8,0.1-1,0.4s-0.4,0.6-0.5,1.1l-0.1,0.7h1.5l-0.2,1h-1.5l-1.1,6.4
						H529.1z"/>
				</g>
			</g>
		</g>
		<g class="st2">
			<path class="st4" d="M404.9,3701.3H403l1.9-11.1h1.8L404.9,3701.3z M406.4,3686.2c0.3,0,0.6,0.1,0.8,0.3c0.2,0.2,0.3,0.5,0.3,0.8
				c0,0.3-0.1,0.6-0.3,0.8s-0.5,0.3-0.8,0.3c-0.3,0-0.6-0.1-0.8-0.3s-0.3-0.5-0.3-0.8s0.1-0.6,0.3-0.8S406.1,3686.2,406.4,3686.2z"
				/>
			<path class="st4" d="M408.8,3701.3l1.7-9.6h-1.7l0.3-1.5h1.7l0.2-1.3c0.2-1.1,0.6-2,1.3-2.6c0.7-0.7,1.6-1,2.7-1
				c0.3,0,0.8,0.1,1.3,0.2l-0.2,1.6c-0.3-0.1-0.7-0.1-1-0.1c-0.6,0-1.2,0.2-1.6,0.6c-0.4,0.4-0.6,0.9-0.7,1.6l-0.2,1.1h2.3l-0.3,1.5
				h-2.3l-1.7,9.6H408.8z"/>
		</g>
		<g class="st2">
			<path class="st5" d="M421.3,3695.3c0.2-1.6,0.6-3.1,1.3-4.6c0.6-1.5,1.4-2.8,2.3-3.8c0.9-1.1,1.9-1.9,3-2.4l0.3,1.3
				c-1.1,0.8-2,1.8-2.8,3.1c-0.8,1.3-1.4,2.8-1.8,4.6c-0.4,1.8-0.6,3.5-0.6,5.2c0,1.4,0.2,2.7,0.5,3.7c0.4,1.1,0.9,1.9,1.6,2.5
				l-0.5,1.1c-1.1-0.8-2-2-2.6-3.5c-0.6-1.6-0.9-3.3-0.8-5.3c0-0.7,0.1-1.3,0.1-1.9L421.3,3695.3z"/>
			<path class="st5" d="M432.1,3694.3l3-4h2.3l-4.5,5.6l2.7,5.5h-2l-1.8-4.1l-3.1,4.1h-2.3l4.6-5.7l-2.6-5.4h2L432.1,3694.3z"/>
			<path class="st5" d="M446.6,3697.2h-8.3l0.3-1.6h8.3L446.6,3697.2z M447.4,3693h-8.3l0.3-1.7h8.3L447.4,3693z"/>
			<path class="st5" d="M457.9,3697.2h-8.3l0.3-1.6h8.3L457.9,3697.2z M458.6,3693h-8.3l0.3-1.7h8.3L458.6,3693z"/>
		</g>
		<g class="st2">
			<path class="st6" d="M464.6,3701.5c-1.3,0-2.2-0.5-2.8-1.3c-0.6-0.9-0.9-2.1-0.9-3.7c0-0.5,0.1-1,0.1-1.5l0.4-2.5
				c0.3-2.1,1-3.7,1.9-4.8s2.1-1.6,3.7-1.5c1.3,0,2.2,0.5,2.8,1.3c0.6,0.8,0.9,2.1,0.9,3.7c0,0.5-0.1,1-0.1,1.5l-0.4,2.4
				c-0.4,2.2-1,3.9-1.9,4.9C467.3,3701.1,466.1,3701.6,464.6,3701.5z M468.7,3692.4c0.1-0.8,0.1-1.5,0.1-1.9c0-1.7-0.7-2.6-2-2.7
				c-1,0-1.7,0.3-2.3,1.1c-0.6,0.7-1,1.9-1.2,3.5l-0.4,3c-0.1,0.8-0.1,1.4-0.1,1.9c0,1.8,0.7,2.7,2,2.8c0.9,0,1.7-0.3,2.3-1
				c0.6-0.7,1-1.8,1.3-3.4L468.7,3692.4z"/>
		</g>
		<g class="st2">
			<path class="st5" d="M476.9,3695.3c-0.2,1.7-0.7,3.2-1.3,4.7c-0.6,1.5-1.4,2.7-2.3,3.8c-0.9,1-1.9,1.8-2.9,2.3l-0.3-1.2
				c2.3-1.8,3.9-4.6,4.7-8.5c0.3-1.6,0.5-3.1,0.5-4.5c0-2.9-0.7-5-2.1-6.3l0.5-1.1c0.8,0.5,1.4,1.2,1.9,2.1c0.5,0.9,0.9,1.9,1.2,3.1
				c0.2,1.2,0.4,2.4,0.3,3.6c0,0.7-0.1,1.3-0.2,1.9L476.9,3695.3z"/>
			<path class="st5" d="M480,3699.2c0.3,0,0.6,0.1,0.8,0.3s0.3,0.5,0.3,0.8s-0.1,0.6-0.3,0.8c-0.2,0.2-0.5,0.3-0.8,0.3
				s-0.6-0.1-0.8-0.3c-0.2-0.2-0.3-0.5-0.3-0.8s0.1-0.6,0.3-0.8C479.4,3699.3,479.7,3699.2,480,3699.2z M481.6,3690.1
				c0.3,0,0.6,0.1,0.8,0.3c0.2,0.2,0.3,0.5,0.3,0.8c0,0.3-0.1,0.6-0.3,0.8c-0.2,0.2-0.5,0.3-0.8,0.3c-0.3,0-0.6-0.1-0.8-0.3
				c-0.2-0.2-0.3-0.5-0.3-0.8s0.1-0.6,0.3-0.8C481,3690.3,481.3,3690.1,481.6,3690.1z"/>
		</g>
		<g class="st2">
			<path class="st4" d="M412.9,3721c-0.1,1.1-0.4,2.1-0.9,3s-1.1,1.6-1.8,2c-0.7,0.4-1.5,0.7-2.3,0.6c-1.3,0-2.3-0.5-3-1.3l-1,5.4
				h-1.9l2.7-15.4l1.7,0l-0.2,1.2c0.9-1,2-1.5,3.3-1.4c1.1,0,1.9,0.4,2.5,1.2c0.6,0.8,0.9,1.8,0.9,3.1c0,0.4,0,0.9-0.1,1.3
				L412.9,3721z M411.1,3720.8l0.1-0.9c0-1-0.2-1.8-0.6-2.3c-0.4-0.5-0.9-0.8-1.6-0.8c-1.1,0-2,0.5-2.8,1.5l-0.9,5.3
				c0.4,1,1.2,1.5,2.2,1.5c0.9,0,1.7-0.3,2.4-1.1C410.4,3723.4,410.9,3722.3,411.1,3720.8z"/>
			<path class="st4" d="M421.3,3717.1l-0.9-0.1c-1.2,0-2.1,0.5-2.8,1.6l-1.4,7.9h-1.9l1.9-11.1l1.8,0l-0.3,1.3
				c0.8-1,1.7-1.5,2.8-1.5c0.2,0,0.5,0.1,0.9,0.2L421.3,3717.1z"/>
			<path class="st4" d="M423.4,3726.5h-1.8l1.9-11.1h1.8L423.4,3726.5z M424.9,3711.4c0.3,0,0.6,0.1,0.8,0.3
				c0.2,0.2,0.3,0.5,0.3,0.8c0,0.3-0.1,0.6-0.3,0.8s-0.5,0.3-0.8,0.3c-0.3,0-0.6-0.1-0.8-0.3s-0.3-0.5-0.3-0.8s0.1-0.6,0.3-0.8
				S424.6,3711.4,424.9,3711.4z"/>
			<path class="st4" d="M430.1,3715.4l-0.3,1.4c1-1.1,2.1-1.6,3.4-1.6c1,0,1.8,0.4,2.3,1.1s0.7,1.7,0.6,2.9l-1.2,7.3H433l1.2-7.3
				c0-0.3,0-0.6,0-0.9c-0.1-1-0.7-1.4-1.7-1.5c-1.1,0-2.1,0.6-2.9,1.8l-1.4,7.9h-1.9l1.9-11.1L430.1,3715.4z"/>
			<path class="st4" d="M442.7,3712.8l-0.5,2.7h2l-0.3,1.5h-2l-1.2,6.9c0,0.2,0,0.3,0,0.5c0,0.5,0.3,0.8,0.9,0.8
				c0.2,0,0.5,0,0.9-0.1l-0.1,1.5c-0.4,0.1-0.9,0.2-1.4,0.2c-0.7,0-1.3-0.3-1.7-0.8c-0.4-0.5-0.5-1.2-0.4-2.1l1.1-6.9h-2l0.3-1.5h2
				l0.5-2.7H442.7z"/>
		</g>
		<g class="st2">
			<path class="st7" d="M453.4,3712.3l-0.9,3.6l-1.1,0l0.8-5.2l1.4,0.1L453.4,3712.3z M456.1,3712.3l-0.9,3.6h-1.1l0.8-5.1l1.4,0.1
				L456.1,3712.3z"/>
			<path class="st7" d="M461.1,3719.5l3-4h2.3l-4.5,5.6l2.7,5.5h-2l-1.8-4.1l-3.1,4.1h-2.3l4.6-5.7l-2.6-5.4h2L461.1,3719.5z"/>
			<path class="st7" d="M476.5,3712.8l-0.5,2.7h2l-0.3,1.5h-2l-1.2,6.9c0,0.2,0,0.3,0,0.5c0,0.5,0.3,0.8,0.9,0.8
				c0.2,0,0.5,0,0.9-0.1l-0.1,1.5c-0.4,0.1-0.9,0.2-1.4,0.2c-0.7,0-1.3-0.3-1.7-0.8c-0.4-0.5-0.5-1.2-0.4-2.1l1.1-6.9h-2l0.3-1.5h2
				l0.5-2.7H476.5z"/>
			<path class="st7" d="M480.4,3726.5h-1.8l1.9-11.1h1.8L480.4,3726.5z M481.9,3711.4c0.3,0,0.6,0.1,0.8,0.3
				c0.2,0.2,0.3,0.5,0.3,0.8c0,0.3-0.1,0.6-0.3,0.8s-0.5,0.3-0.8,0.3c-0.3,0-0.6-0.1-0.8-0.3s-0.3-0.5-0.3-0.8s0.1-0.6,0.3-0.8
				S481.6,3711.4,481.9,3711.4z"/>
			<path class="st7" d="M488.2,3726.7c-1.4,0-2.5-0.5-3.2-1.5s-1.1-2.3-1-3.8l0.1-0.4c0.1-1.1,0.4-2.1,1-3c0.5-0.9,1.2-1.6,2-2.1
				c0.8-0.5,1.6-0.7,2.5-0.7c1.1,0,2,0.4,2.7,1.1c0.6,0.7,1,1.7,1.1,3c0,0.4,0,0.9,0,1.3l-0.1,0.9h-7.2c-0.1,1,0,1.9,0.5,2.6
				c0.5,0.7,1.1,1.1,2,1.1c1.1,0,2.1-0.5,3-1.5l1.1,0.9c-0.5,0.7-1.1,1.2-1.8,1.6C490,3726.6,489.1,3726.8,488.2,3726.7z
				 M489.4,3716.8c-0.8,0-1.4,0.2-2,0.8c-0.6,0.5-1,1.3-1.4,2.4l5.4,0l0-0.2c0.1-0.9,0-1.6-0.4-2.1
				C490.7,3717.1,490.1,3716.8,489.4,3716.8z"/>
			<path class="st7" d="M498,3715.4l-0.3,1.4c1-1.1,2.1-1.6,3.4-1.6c1,0,1.8,0.4,2.3,1.1s0.7,1.7,0.6,2.9l-1.2,7.3h-1.9l1.2-7.3
				c0-0.3,0-0.6,0-0.9c-0.1-1-0.7-1.4-1.7-1.5c-1.1,0-2.1,0.6-2.9,1.8l-1.4,7.9h-1.9l1.9-11.1L498,3715.4z"/>
			<path class="st7" d="M510.5,3726.7c-1.4,0-2.5-0.5-3.2-1.5s-1.1-2.3-1-3.8l0.1-0.4c0.1-1.1,0.4-2.1,1-3c0.5-0.9,1.2-1.6,2-2.1
				c0.8-0.5,1.6-0.7,2.5-0.7c1.1,0,2,0.4,2.7,1.1c0.6,0.7,1,1.7,1.1,3c0,0.4,0,0.9,0,1.3l-0.1,0.9h-7.2c-0.1,1,0,1.9,0.5,2.6
				c0.5,0.7,1.1,1.1,2,1.1c1.1,0,2.1-0.5,3-1.5l1.1,0.9c-0.5,0.7-1.1,1.2-1.8,1.6C512.2,3726.6,511.4,3726.8,510.5,3726.7z
				 M511.6,3716.8c-0.8,0-1.4,0.2-2,0.8c-0.6,0.5-1,1.3-1.4,2.4l5.4,0l0-0.2c0.1-0.9,0-1.6-0.4-2.1
				C512.9,3717.1,512.4,3716.8,511.6,3716.8z"/>
			<path class="st7" d="M528.7,3725.4c-0.9,0.9-2,1.3-3.3,1.3c-1.1,0-1.8-0.4-2.4-1.1c-0.5-0.7-0.7-1.7-0.6-3l1.2-7.2h1.9l-1.2,7.2
				c0,0.3,0,0.6,0,0.9c0,0.5,0.2,0.9,0.4,1.2s0.6,0.4,1.1,0.5c1.3,0,2.4-0.5,3.1-1.6l1.4-8.1h1.9l-1.9,11.1h-1.8L528.7,3725.4z"/>
			<path class="st7" d="M536.7,3715.4l-0.3,1.4c1-1.1,2.1-1.6,3.4-1.6c1,0,1.8,0.4,2.3,1.1s0.7,1.7,0.6,2.9l-1.2,7.3h-1.9l1.2-7.3
				c0-0.3,0-0.6,0-0.9c-0.1-1-0.7-1.4-1.7-1.5c-1.1,0-2.1,0.6-2.9,1.8l-1.4,7.9H533l1.9-11.1L536.7,3715.4z"/>
			<path class="st7" d="M553.6,3723.9l4-8.5h2l-5.6,11.1h-1.4l-2.2-11.1h1.8L553.6,3723.9z"/>
			<path class="st7" d="M566.1,3726.5c0-0.2-0.1-0.4-0.1-0.6l0-0.6c-1,0.9-2.1,1.4-3.2,1.4c-1,0-1.8-0.3-2.4-0.9
				c-0.6-0.6-0.9-1.4-0.8-2.3c0.1-1.2,0.6-2.1,1.5-2.8c1-0.7,2.2-1,3.8-1l1.9,0l0.1-0.9c0.1-0.7-0.1-1.2-0.4-1.6
				c-0.3-0.4-0.8-0.6-1.5-0.6c-0.6,0-1.2,0.1-1.7,0.5c-0.5,0.3-0.8,0.8-0.9,1.3l-1.9,0c0.1-0.6,0.3-1.2,0.8-1.7
				c0.4-0.5,1-0.9,1.7-1.2c0.7-0.3,1.4-0.4,2.2-0.4c1.2,0,2.1,0.4,2.7,1.1c0.6,0.7,0.9,1.6,0.8,2.7l-0.9,5.5l-0.1,0.8
				c0,0.4,0,0.7,0.1,1.1l0,0.2H566.1z M563.2,3725.1c0.6,0,1.2-0.1,1.7-0.4c0.5-0.3,1-0.7,1.4-1.2l0.4-2.3l-1.4,0
				c-1.2,0-2.1,0.2-2.7,0.6s-1,0.9-1.1,1.6c-0.1,0.5,0.1,1,0.4,1.3C562.2,3724.9,562.6,3725.1,563.2,3725.1z"/>
			<path class="st7" d="M572.5,3726.5h-1.8l2.7-15.8h1.9L572.5,3726.5z"/>
			<path class="st7" d="M581.7,3715.2c0.9,0,1.7,0.3,2.4,0.8s1.2,1.2,1.5,2c0.3,0.9,0.4,1.8,0.3,2.8l0,0.2c-0.1,1.1-0.5,2.1-1,2.9
				c-0.5,0.9-1.2,1.6-2,2c-0.8,0.5-1.7,0.7-2.7,0.7c-0.9,0-1.7-0.3-2.4-0.8c-0.7-0.5-1.2-1.2-1.5-2s-0.4-1.8-0.3-2.8
				c0.1-1.1,0.4-2.2,0.9-3.1s1.2-1.6,2-2.1C579.8,3715.4,580.7,3715.2,581.7,3715.2z M578,3721.2c0,0.4,0,0.9,0,1.3
				c0.1,0.8,0.3,1.5,0.7,1.9c0.4,0.5,1,0.7,1.7,0.7c0.6,0,1.2-0.1,1.7-0.5c0.5-0.3,1-0.8,1.3-1.5s0.6-1.4,0.7-2.2
				c0.1-0.6,0.1-1.2,0-1.6c-0.1-0.8-0.3-1.5-0.7-2s-1-0.7-1.7-0.8c-1,0-1.8,0.4-2.4,1.1s-1.1,1.8-1.2,3L578,3721.2z"/>
			<path class="st7" d="M594.2,3717.1l-0.9-0.1c-1.2,0-2.1,0.5-2.8,1.6l-1.4,7.9h-1.9l1.9-11.1l1.8,0l-0.3,1.3
				c0.8-1,1.7-1.5,2.8-1.5c0.2,0,0.5,0.1,0.9,0.2L594.2,3717.1z"/>
			<path class="st7" d="M600,3721c0.1-1.1,0.4-2.1,0.9-3.1s1.1-1.6,1.8-2s1.5-0.7,2.3-0.6c1.2,0,2.2,0.5,2.9,1.4l1.1-5.8h1.9
				l-2.7,15.8h-1.7l0.2-1.2c-0.9,1-2,1.4-3.2,1.4c-1,0-1.8-0.4-2.5-1.2c-0.6-0.8-0.9-1.8-1-3.1C599.9,3722,599.9,3721.5,600,3721z
				 M601.7,3722c0,1,0.2,1.7,0.5,2.3s0.9,0.8,1.6,0.8c1.1,0,2-0.5,2.9-1.6l0.9-5.1c-0.4-1-1.2-1.5-2.2-1.6c-0.7,0-1.4,0.2-1.9,0.7
				c-0.6,0.5-1,1.1-1.3,1.9C601.9,3720.3,601.8,3721.1,601.7,3722z"/>
			<path class="st7" d="M615.8,3726.7c-1.4,0-2.5-0.5-3.2-1.5s-1.1-2.3-1-3.8l0.1-0.4c0.1-1.1,0.4-2.1,1-3c0.5-0.9,1.2-1.6,2-2.1
				c0.8-0.5,1.6-0.7,2.5-0.7c1.1,0,2,0.4,2.7,1.1c0.6,0.7,1,1.7,1.1,3c0,0.4,0,0.9,0,1.3l-0.1,0.9h-7.2c-0.1,1,0,1.9,0.5,2.6
				c0.5,0.7,1.1,1.1,2,1.1c1.1,0,2.1-0.5,3-1.5l1.1,0.9c-0.5,0.7-1.1,1.2-1.8,1.6C617.5,3726.6,616.7,3726.8,615.8,3726.7z
				 M617,3716.8c-0.8,0-1.4,0.2-2,0.8c-0.6,0.5-1,1.3-1.4,2.4l5.4,0l0-0.2c0.1-0.9,0-1.6-0.4-2.1
				C618.3,3717.1,617.7,3716.8,617,3716.8z"/>
			<path class="st7" d="M631.6,3726.7c-1.3,0-2.2-0.5-2.8-1.3c-0.6-0.9-0.9-2.1-0.9-3.7c0-0.5,0.1-1,0.1-1.5l0.4-2.5
				c0.3-2.1,1-3.7,1.9-4.8s2.1-1.6,3.7-1.5c1.3,0,2.2,0.5,2.8,1.3c0.6,0.8,0.9,2.1,0.9,3.7c0,0.5-0.1,1-0.1,1.5l-0.4,2.4
				c-0.4,2.2-1,3.9-1.9,4.9C634.3,3726.3,633.1,3726.8,631.6,3726.7z M635.7,3717.6c0.1-0.8,0.1-1.5,0.1-1.9c0-1.7-0.7-2.6-2-2.7
				c-1,0-1.7,0.3-2.3,1.1c-0.6,0.7-1,1.9-1.2,3.5l-0.4,3c-0.1,0.8-0.1,1.4-0.1,1.9c0,1.8,0.7,2.7,2,2.8c0.9,0,1.7-0.3,2.3-1
				c0.6-0.7,1-1.8,1.3-3.4L635.7,3717.6z"/>
			<path class="st7" d="M642.3,3712.3l-0.9,3.6l-1.1,0l0.8-5.2l1.4,0.1L642.3,3712.3z M645,3712.3l-0.9,3.6H643l0.8-5.1l1.4,0.1
				L645,3712.3z"/>
		</g>
		<g class="st2">
			<path class="st7" d="M409.8,3747.5h-2.6l-1.5,4.2h-1.5l1.5-4.2h-2.4l0.2-1.4h2.6l1.3-3.6H405l0.2-1.4h2.8l1.6-4.3h1.5l-1.6,4.3
				h2.6l1.6-4.3h1.5l-1.6,4.3h2l-0.2,1.4h-2.3l-1.3,3.6h2.2l-0.2,1.4h-2.5l-1.5,4.2h-1.5L409.8,3747.5z M407.7,3746.1h2.6l1.3-3.6
				H409L407.7,3746.1z"/>
			<path class="st7" d="M422.2,3745.7h-3.4l-1,6h-1.9l2.6-14.9l4.5,0c1.6,0,2.8,0.4,3.6,1.2s1.2,1.9,1,3.2c-0.1,0.9-0.4,1.8-1,2.5
				c-0.6,0.7-1.4,1.2-2.4,1.6l2.3,6.3l0,0.1h-2.1L422.2,3745.7z M419,3744.1l2.8,0c1,0,1.8-0.3,2.5-0.8c0.7-0.5,1.1-1.2,1.2-2.1
				c0.1-0.9-0.1-1.5-0.5-2s-1.1-0.7-2-0.8l-3,0L419,3744.1z"/>
			<path class="st7" d="M432.9,3751.9c-1.4,0-2.5-0.5-3.2-1.5s-1.1-2.3-1-3.8l0.1-0.4c0.1-1.1,0.4-2.1,1-3c0.5-0.9,1.2-1.6,2-2.1
				c0.8-0.5,1.6-0.7,2.5-0.7c1.1,0,2,0.4,2.7,1.1c0.6,0.7,1,1.7,1.1,3c0,0.4,0,0.9,0,1.3l-0.1,0.9h-7.2c-0.1,1,0,1.9,0.5,2.6
				c0.5,0.7,1.1,1.1,2,1.1c1.1,0,2.1-0.5,3-1.5l1.1,0.9c-0.5,0.7-1.1,1.2-1.8,1.6C434.7,3751.8,433.8,3752,432.9,3751.9z
				 M434.1,3742c-0.8,0-1.4,0.2-2,0.8c-0.6,0.5-1,1.3-1.4,2.4l5.4,0l0-0.2c0.1-0.9,0-1.6-0.4-2.1
				C435.4,3742.3,434.8,3742,434.1,3742z"/>
			<path class="st7" d="M445.9,3748.7c0.1-0.8-0.3-1.3-1.3-1.6l-1.9-0.6c-1.6-0.6-2.4-1.5-2.4-2.8c0-1,0.5-1.8,1.3-2.4
				c0.8-0.6,1.8-0.9,3-0.9c1.1,0,2,0.3,2.7,1c0.7,0.6,1,1.5,1,2.5l-1.8,0c0-0.6-0.2-1-0.5-1.4s-0.8-0.5-1.4-0.5
				c-0.6,0-1.2,0.1-1.7,0.5c-0.4,0.3-0.7,0.7-0.7,1.2c-0.1,0.6,0.3,1.1,1.2,1.4l0.9,0.3c1.3,0.3,2.2,0.8,2.7,1.3s0.8,1.2,0.7,2
				c0,0.7-0.3,1.3-0.7,1.8c-0.4,0.5-1,0.9-1.6,1.2c-0.7,0.3-1.4,0.4-2.2,0.4c-1.2,0-2.1-0.4-2.9-1c-0.8-0.7-1.1-1.5-1.1-2.6l1.9,0
				c0,0.6,0.2,1.1,0.6,1.5c0.4,0.4,0.9,0.6,1.6,0.6c0.7,0,1.3-0.1,1.8-0.4C445.5,3749.7,445.8,3749.3,445.9,3748.7z"/>
			<path class="st7" d="M456.7,3750.6c-0.9,0.9-2,1.3-3.3,1.3c-1.1,0-1.8-0.4-2.4-1.1c-0.5-0.7-0.7-1.7-0.6-3l1.2-7.2h1.9l-1.2,7.2
				c0,0.3,0,0.6,0,0.9c0,0.5,0.2,0.9,0.4,1.2s0.6,0.4,1.1,0.5c1.3,0,2.4-0.5,3.1-1.6l1.4-8.1h1.9l-1.9,11.1h-1.8L456.7,3750.6z"/>
			<path class="st7" d="M463,3751.7h-1.8l2.7-15.8h1.9L463,3751.7z"/>
			<path class="st7" d="M470.9,3738l-0.5,2.7h2l-0.3,1.5h-2l-1.2,6.9c0,0.2,0,0.3,0,0.5c0,0.5,0.3,0.8,0.9,0.8c0.2,0,0.5,0,0.9-0.1
				l-0.1,1.5c-0.4,0.1-0.9,0.2-1.4,0.2c-0.7,0-1.3-0.3-1.7-0.8c-0.4-0.5-0.5-1.2-0.4-2.1l1.1-6.9h-2l0.3-1.5h2l0.5-2.7H470.9z"/>
			<path class="st7" d="M479.5,3751.7c0-0.2-0.1-0.4-0.1-0.6l0-0.6c-1,0.9-2.1,1.4-3.2,1.4c-1,0-1.8-0.3-2.4-0.9
				c-0.6-0.6-0.9-1.4-0.8-2.3c0.1-1.2,0.6-2.1,1.5-2.8c1-0.7,2.2-1,3.8-1l1.9,0l0.1-0.9c0.1-0.7-0.1-1.2-0.4-1.6
				c-0.3-0.4-0.8-0.6-1.5-0.6c-0.6,0-1.2,0.1-1.7,0.5c-0.5,0.3-0.8,0.8-0.9,1.3l-1.9,0c0.1-0.6,0.3-1.2,0.8-1.7
				c0.4-0.5,1-0.9,1.7-1.2c0.7-0.3,1.4-0.4,2.2-0.4c1.2,0,2.1,0.4,2.7,1.1c0.6,0.7,0.9,1.6,0.8,2.7l-0.9,5.5l-0.1,0.8
				c0,0.4,0,0.7,0.1,1.1l0,0.2H479.5z M476.6,3750.3c0.6,0,1.2-0.1,1.7-0.4c0.5-0.3,1-0.7,1.4-1.2l0.4-2.3l-1.4,0
				c-1.2,0-2.1,0.2-2.7,0.6s-1,0.9-1.1,1.6c-0.1,0.5,0.1,1,0.4,1.3C475.6,3750.1,476.1,3750.3,476.6,3750.3z"/>
			<path class="st7" d="M484.5,3746.2c0.1-1.1,0.4-2.1,0.9-3.1s1.1-1.6,1.8-2s1.5-0.7,2.3-0.6c1.2,0,2.2,0.5,2.9,1.4l1.1-5.8h1.9
				l-2.7,15.8h-1.7l0.2-1.2c-0.9,1-2,1.4-3.2,1.4c-1,0-1.8-0.4-2.5-1.2c-0.6-0.8-0.9-1.8-1-3.1
				C484.4,3747.2,484.4,3746.7,484.5,3746.2z M486.3,3747.2c0,1,0.2,1.7,0.5,2.3s0.9,0.8,1.6,0.8c1.1,0,2-0.5,2.9-1.6l0.9-5.1
				c-0.4-1-1.2-1.5-2.2-1.6c-0.7,0-1.4,0.2-1.9,0.7c-0.6,0.5-1,1.1-1.3,1.9C486.4,3745.5,486.3,3746.3,486.3,3747.2z"/>
			<path class="st7" d="M501.7,3740.4c0.9,0,1.7,0.3,2.4,0.8s1.2,1.2,1.5,2c0.3,0.9,0.4,1.8,0.3,2.8l0,0.2c-0.1,1.1-0.5,2.1-1,2.9
				c-0.5,0.9-1.2,1.6-2,2c-0.8,0.5-1.7,0.7-2.7,0.7c-0.9,0-1.7-0.3-2.4-0.8c-0.7-0.5-1.2-1.2-1.5-2s-0.4-1.8-0.3-2.8
				c0.1-1.1,0.4-2.2,0.9-3.1s1.2-1.6,2-2.1C499.8,3740.6,500.7,3740.4,501.7,3740.4z M497.9,3746.4c0,0.4,0,0.9,0,1.3
				c0.1,0.8,0.3,1.5,0.7,1.9c0.4,0.5,1,0.7,1.7,0.7c0.6,0,1.2-0.1,1.7-0.5c0.5-0.3,1-0.8,1.3-1.5s0.6-1.4,0.7-2.2
				c0.1-0.6,0.1-1.2,0-1.6c-0.1-0.8-0.3-1.5-0.7-2s-1-0.7-1.7-0.8c-1,0-1.8,0.4-2.4,1.1s-1.1,1.8-1.2,3L497.9,3746.4z"/>
			<path class="st7" d="M508.5,3749.6c0.3,0,0.6,0.1,0.8,0.3s0.3,0.5,0.3,0.8s-0.1,0.6-0.3,0.8c-0.2,0.2-0.5,0.3-0.8,0.3
				s-0.6-0.1-0.8-0.3c-0.2-0.2-0.3-0.5-0.3-0.8s0.1-0.6,0.3-0.8C507.9,3749.7,508.2,3749.6,508.5,3749.6z M510.1,3740.5
				c0.3,0,0.6,0.1,0.8,0.3c0.2,0.2,0.3,0.5,0.3,0.8c0,0.3-0.1,0.6-0.3,0.8c-0.2,0.2-0.5,0.3-0.8,0.3c-0.3,0-0.6-0.1-0.8-0.3
				c-0.2-0.2-0.3-0.5-0.3-0.8s0.1-0.6,0.3-0.8C509.5,3740.7,509.8,3740.5,510.1,3740.5z"/>
			<path class="st7" d="M522.2,3744.7l3-4h2.3l-4.5,5.6l2.7,5.5h-2l-1.8-4.1l-3.1,4.1h-2.3l4.6-5.7l-2.6-5.4h2L522.2,3744.7z"/>
			<path class="st7" d="M537.7,3738l-0.5,2.7h2l-0.3,1.5h-2l-1.2,6.9c0,0.2,0,0.3,0,0.5c0,0.5,0.3,0.8,0.9,0.8c0.2,0,0.5,0,0.9-0.1
				l-0.1,1.5c-0.4,0.1-0.9,0.2-1.4,0.2c-0.7,0-1.3-0.3-1.7-0.8c-0.4-0.5-0.5-1.2-0.4-2.1l1.1-6.9h-2l0.3-1.5h2l0.5-2.7H537.7z"/>
			<path class="st7" d="M541.6,3751.7h-1.8l1.9-11.1h1.8L541.6,3751.7z M543.1,3736.6c0.3,0,0.6,0.1,0.8,0.3
				c0.2,0.2,0.3,0.5,0.3,0.8c0,0.3-0.1,0.6-0.3,0.8s-0.5,0.3-0.8,0.3c-0.3,0-0.6-0.1-0.8-0.3s-0.3-0.5-0.3-0.8s0.1-0.6,0.3-0.8
				S542.8,3736.6,543.1,3736.6z"/>
			<path class="st7" d="M549.4,3751.9c-1.4,0-2.5-0.5-3.2-1.5s-1.1-2.3-1-3.8l0.1-0.4c0.1-1.1,0.4-2.1,1-3c0.5-0.9,1.2-1.6,2-2.1
				c0.8-0.5,1.6-0.7,2.5-0.7c1.1,0,2,0.4,2.7,1.1c0.6,0.7,1,1.7,1.1,3c0,0.4,0,0.9,0,1.3l-0.1,0.9H547c-0.1,1,0,1.9,0.5,2.6
				c0.5,0.7,1.1,1.1,2,1.1c1.1,0,2.1-0.5,3-1.5l1.1,0.9c-0.5,0.7-1.1,1.2-1.8,1.6C551.1,3751.8,550.3,3752,549.4,3751.9z
				 M550.6,3742c-0.8,0-1.4,0.2-2,0.8c-0.6,0.5-1,1.3-1.4,2.4l5.4,0l0-0.2c0.1-0.9,0-1.6-0.4-2.1
				C551.8,3742.3,551.3,3742,550.6,3742z"/>
			<path class="st7" d="M559.2,3740.6l-0.3,1.4c1-1.1,2.1-1.6,3.4-1.6c1,0,1.8,0.4,2.3,1.1s0.7,1.7,0.6,2.9l-1.2,7.3h-1.9l1.2-7.3
				c0-0.3,0-0.6,0-0.9c-0.1-1-0.7-1.4-1.7-1.5c-1.1,0-2.1,0.6-2.9,1.8l-1.4,7.9h-1.9l1.9-11.1L559.2,3740.6z"/>
			<path class="st7" d="M571.6,3751.9c-1.4,0-2.5-0.5-3.2-1.5s-1.1-2.3-1-3.8l0.1-0.4c0.1-1.1,0.4-2.1,1-3c0.5-0.9,1.2-1.6,2-2.1
				c0.8-0.5,1.6-0.7,2.5-0.7c1.1,0,2,0.4,2.7,1.1c0.6,0.7,1,1.7,1.1,3c0,0.4,0,0.9,0,1.3l-0.1,0.9h-7.2c-0.1,1,0,1.9,0.5,2.6
				c0.5,0.7,1.1,1.1,2,1.1c1.1,0,2.1-0.5,3-1.5l1.1,0.9c-0.5,0.7-1.1,1.2-1.8,1.6C573.3,3751.8,572.5,3752,571.6,3751.9z
				 M572.8,3742c-0.8,0-1.4,0.2-2,0.8c-0.6,0.5-1,1.3-1.4,2.4l5.4,0l0-0.2c0.1-0.9,0-1.6-0.4-2.1
				C574.1,3742.3,573.5,3742,572.8,3742z"/>
			<path class="st7" d="M589.9,3750.6c-0.9,0.9-2,1.3-3.3,1.3c-1.1,0-1.8-0.4-2.4-1.1c-0.5-0.7-0.7-1.7-0.6-3l1.2-7.2h1.9l-1.2,7.2
				c0,0.3,0,0.6,0,0.9c0,0.5,0.2,0.9,0.4,1.2s0.6,0.4,1.1,0.5c1.3,0,2.4-0.5,3.1-1.6l1.4-8.1h1.9l-1.9,11.1h-1.8L589.9,3750.6z"/>
			<path class="st7" d="M597.9,3740.6l-0.3,1.4c1-1.1,2.1-1.6,3.4-1.6c1,0,1.8,0.4,2.3,1.1s0.7,1.7,0.6,2.9l-1.2,7.3h-1.9l1.2-7.3
				c0-0.3,0-0.6,0-0.9c-0.1-1-0.7-1.4-1.7-1.5c-1.1,0-2.1,0.6-2.9,1.8l-1.4,7.9h-1.9l1.9-11.1L597.9,3740.6z"/>
			<path class="st7" d="M614.7,3749.1l4-8.5h2l-5.6,11.1h-1.4l-2.2-11.1h1.8L614.7,3749.1z"/>
			<path class="st7" d="M627.3,3751.7c0-0.2-0.1-0.4-0.1-0.6l0-0.6c-1,0.9-2.1,1.4-3.2,1.4c-1,0-1.8-0.3-2.4-0.9
				c-0.6-0.6-0.9-1.4-0.8-2.3c0.1-1.2,0.6-2.1,1.5-2.8c1-0.7,2.2-1,3.8-1l1.9,0l0.1-0.9c0.1-0.7-0.1-1.2-0.4-1.6
				c-0.3-0.4-0.8-0.6-1.5-0.6c-0.6,0-1.2,0.1-1.7,0.5c-0.5,0.3-0.8,0.8-0.9,1.3l-1.9,0c0.1-0.6,0.3-1.2,0.8-1.7
				c0.4-0.5,1-0.9,1.7-1.2c0.7-0.3,1.4-0.4,2.2-0.4c1.2,0,2.1,0.4,2.7,1.1c0.6,0.7,0.9,1.6,0.8,2.7l-0.9,5.5l-0.1,0.8
				c0,0.4,0,0.7,0.1,1.1l0,0.2H627.3z M624.4,3750.3c0.6,0,1.2-0.1,1.7-0.4c0.5-0.3,1-0.7,1.4-1.2l0.4-2.3l-1.4,0
				c-1.2,0-2.1,0.2-2.7,0.6s-1,0.9-1.1,1.6c-0.1,0.5,0.1,1,0.4,1.3C623.3,3750.1,623.8,3750.3,624.4,3750.3z"/>
			<path class="st7" d="M633.7,3751.7h-1.8l2.7-15.8h1.9L633.7,3751.7z"/>
			<path class="st7" d="M642.9,3740.4c0.9,0,1.7,0.3,2.4,0.8s1.2,1.2,1.5,2c0.3,0.9,0.4,1.8,0.3,2.8l0,0.2c-0.1,1.1-0.5,2.1-1,2.9
				c-0.5,0.9-1.2,1.6-2,2c-0.8,0.5-1.7,0.7-2.7,0.7c-0.9,0-1.7-0.3-2.4-0.8c-0.7-0.5-1.2-1.2-1.5-2s-0.4-1.8-0.3-2.8
				c0.1-1.1,0.4-2.2,0.9-3.1s1.2-1.6,2-2.1C641,3740.6,641.9,3740.4,642.9,3740.4z M639.1,3746.4c0,0.4,0,0.9,0,1.3
				c0.1,0.8,0.3,1.5,0.7,1.9c0.4,0.5,1,0.7,1.7,0.7c0.6,0,1.2-0.1,1.7-0.5c0.5-0.3,1-0.8,1.3-1.5s0.6-1.4,0.7-2.2
				c0.1-0.6,0.1-1.2,0-1.6c-0.1-0.8-0.3-1.5-0.7-2s-1-0.7-1.7-0.8c-1,0-1.8,0.4-2.4,1.1s-1.1,1.8-1.2,3L639.1,3746.4z"/>
			<path class="st7" d="M655.3,3742.3l-0.9-0.1c-1.2,0-2.1,0.5-2.8,1.6l-1.4,7.9h-1.9l1.9-11.1l1.8,0l-0.3,1.3
				c0.8-1,1.7-1.5,2.8-1.5c0.2,0,0.5,0.1,0.9,0.2L655.3,3742.3z"/>
			<path class="st7" d="M661.1,3746.2c0.1-1.1,0.4-2.1,0.9-3.1s1.1-1.6,1.8-2s1.5-0.7,2.3-0.6c1.2,0,2.2,0.5,2.9,1.4l1.1-5.8h1.9
				l-2.7,15.8h-1.7l0.2-1.2c-0.9,1-2,1.4-3.2,1.4c-1,0-1.8-0.4-2.5-1.2c-0.6-0.8-0.9-1.8-1-3.1
				C661,3747.2,661.1,3746.7,661.1,3746.2z M662.9,3747.2c0,1,0.2,1.7,0.5,2.3s0.9,0.8,1.6,0.8c1.1,0,2-0.5,2.9-1.6l0.9-5.1
				c-0.4-1-1.2-1.5-2.2-1.6c-0.7,0-1.4,0.2-1.9,0.7c-0.6,0.5-1,1.1-1.3,1.9C663.1,3745.5,662.9,3746.3,662.9,3747.2z"/>
			<path class="st7" d="M677,3751.9c-1.4,0-2.5-0.5-3.2-1.5s-1.1-2.3-1-3.8l0.1-0.4c0.1-1.1,0.4-2.1,1-3c0.5-0.9,1.2-1.6,2-2.1
				c0.8-0.5,1.6-0.7,2.5-0.7c1.1,0,2,0.4,2.7,1.1c0.6,0.7,1,1.7,1.1,3c0,0.4,0,0.9,0,1.3l-0.1,0.9h-7.2c-0.1,1,0,1.9,0.5,2.6
				c0.5,0.7,1.1,1.1,2,1.1c1.1,0,2.1-0.5,3-1.5l1.1,0.9c-0.5,0.7-1.1,1.2-1.8,1.6C678.7,3751.8,677.9,3752,677,3751.9z M678.1,3742
				c-0.8,0-1.4,0.2-2,0.8c-0.6,0.5-1,1.3-1.4,2.4l5.4,0l0-0.2c0.1-0.9,0-1.6-0.4-2.1C679.4,3742.3,678.9,3742,678.1,3742z"/>
			<path class="st7" d="M692.7,3751.9c-1.3,0-2.2-0.5-2.8-1.3c-0.6-0.9-0.9-2.1-0.9-3.7c0-0.5,0.1-1,0.1-1.5l0.4-2.5
				c0.3-2.1,1-3.7,1.9-4.8s2.1-1.6,3.7-1.5c1.3,0,2.2,0.5,2.8,1.3c0.6,0.8,0.9,2.1,0.9,3.7c0,0.5-0.1,1-0.1,1.5l-0.4,2.4
				c-0.4,2.2-1,3.9-1.9,4.9C695.4,3751.5,694.2,3752,692.7,3751.9z M696.8,3742.8c0.1-0.8,0.1-1.5,0.1-1.9c0-1.7-0.7-2.6-2-2.7
				c-1,0-1.7,0.3-2.3,1.1c-0.6,0.7-1,1.9-1.2,3.5l-0.4,3c-0.1,0.8-0.1,1.4-0.1,1.9c0,1.8,0.7,2.7,2,2.8c0.9,0,1.7-0.3,2.3-1
				c0.6-0.7,1-1.8,1.3-3.4L696.8,3742.8z"/>
		</g>
	</g>
</g>
</svg>
