<?xml version="1.0" encoding="utf-8"?>
<!-- Generator: Adobe Illustrator 26.1.0, SVG Export Plug-In . SVG Version: 6.00 Build 0)  -->
<svg version="1.1" id="Capa_1" xmlns="http://www.w3.org/2000/svg" xmlns:xlink="http://www.w3.org/1999/xlink" x="0px" y="0px"
	 viewBox="0 0 400 345" style="enable-background:new 0 0 400 345;" xml:space="preserve">
<style type="text/css">
	.st0{opacity:0.55;fill:#41B8DF;enable-background:new    ;}
	.st1{fill:#FDA000;}
	.st2{enable-background:new    ;}
	.st3{fill:#0C1D30;}
	.st4{fill:#C82B0D;}
	.st5{fill:#161615;}
	.st6{fill:#6A3181;}
	.st7{fill:#0D4997;}
</style>
<g id="Grupo_140234" transform="translate(5544 2517.784)">
	<path id="Rectángulo_294795" class="st0" d="M-5529-2517.8h370c8.3,0,15,6.7,15,15v315c0,8.3-6.7,15-15,15h-370
		c-8.3,0-15-6.7-15-15v-315C-5544-2511.1-5537.3-2517.8-5529-2517.8z"/>
	<g id="Grupo_135122" transform="translate(-5903.416 -6468.037)">
		<rect id="Rectángulo_36943" x="379.3" y="3969.4" class="st1" width="5" height="39.4"/>
		<g id="Figura_2._Ejemplo_de_operadores_de_asignación_">
			<g class="st2">
				<path class="st3" d="M401.7,3984.6H398v3.8h-1.9v-9.2h6v1.5H398v2.4h3.7V3984.6z"/>
				<path class="st3" d="M403.1,3979.8c0-0.3,0.1-0.5,0.3-0.7c0.2-0.2,0.4-0.3,0.8-0.3c0.3,0,0.6,0.1,0.7,0.3s0.3,0.4,0.3,0.7
					c0,0.3-0.1,0.5-0.3,0.7c-0.2,0.2-0.4,0.3-0.7,0.3s-0.6-0.1-0.7-0.3C403.2,3980.3,403.1,3980,403.1,3979.8z M405,3988.4h-1.8
					v-6.9h1.8V3988.4z"/>
				<path class="st3" d="M406.3,3984.9c0-1.1,0.3-1.9,0.8-2.5c0.5-0.6,1.2-1,2-1c0.8,0,1.3,0.3,1.8,0.8l0.1-0.6h1.7v6.6
					c0,0.6-0.1,1.1-0.4,1.6c-0.3,0.4-0.7,0.8-1.2,1c-0.5,0.2-1.1,0.3-1.7,0.3c-0.5,0-1-0.1-1.5-0.3s-0.8-0.5-1.1-0.8l0.8-1.1
					c0.5,0.5,1,0.8,1.7,0.8c0.5,0,0.9-0.1,1.1-0.4c0.3-0.3,0.4-0.6,0.4-1.1v-0.4c-0.4,0.5-1,0.7-1.7,0.7c-0.8,0-1.5-0.3-2-1
					C406.5,3986.9,406.3,3986.1,406.3,3984.9L406.3,3984.9z M408.1,3985.1c0,0.6,0.1,1.1,0.4,1.5c0.2,0.4,0.6,0.5,1,0.5
					c0.6,0,1-0.2,1.2-0.6v-2.9c-0.2-0.4-0.6-0.6-1.2-0.6c-0.4,0-0.8,0.2-1,0.5C408.2,3983.8,408.1,3984.3,408.1,3985.1z"/>
				<path class="st3" d="M418.1,3987.7c-0.5,0.5-1.1,0.8-1.9,0.8c-0.7,0-1.3-0.2-1.7-0.6c-0.4-0.4-0.6-1-0.6-1.9v-4.5h1.8v4.4
					c0,0.7,0.3,1.1,1,1.1c0.6,0,1-0.2,1.3-0.6v-4.9h1.8v6.9h-1.7L418.1,3987.7z"/>
				<path class="st3" d="M425.1,3983.3c-0.2,0-0.5-0.1-0.7-0.1c-0.7,0-1.1,0.2-1.4,0.7v4.5h-1.8v-6.9h1.7l0.1,0.8
					c0.4-0.6,0.9-0.9,1.5-0.9c0.2,0,0.4,0,0.6,0.1L425.1,3983.3z"/>
				<path class="st3" d="M429.8,3988.4c-0.1-0.2-0.1-0.4-0.2-0.6c-0.4,0.5-1,0.7-1.7,0.7c-0.7,0-1.2-0.2-1.7-0.6
					c-0.4-0.4-0.7-0.9-0.7-1.5c0-0.7,0.3-1.3,0.8-1.7c0.5-0.4,1.3-0.6,2.3-0.6h0.8v-0.4c0-0.3-0.1-0.6-0.2-0.8
					c-0.2-0.2-0.4-0.3-0.8-0.3c-0.3,0-0.6,0.1-0.7,0.2c-0.2,0.1-0.3,0.4-0.3,0.6h-1.8c0-0.4,0.1-0.8,0.4-1.1c0.2-0.3,0.6-0.6,1-0.8
					s1-0.3,1.5-0.3c0.8,0,1.5,0.2,2,0.6c0.5,0.4,0.7,1,0.7,1.8v3c0,0.7,0.1,1.1,0.3,1.5v0.1H429.8z M428.2,3987.1
					c0.3,0,0.5-0.1,0.7-0.2c0.2-0.1,0.4-0.3,0.5-0.5v-1.2h-0.7c-0.9,0-1.4,0.3-1.5,1l0,0.1c0,0.2,0.1,0.4,0.2,0.6
					S428,3987.1,428.2,3987.1z"/>
				<path class="st3" d="M441.3,3984.9h1v1.5h-1v2h-1.8v-2h-3.8l-0.1-1.2l3.9-6.1h1.9V3984.9z M437.5,3984.9h2v-3.3l-0.1,0.2
					L437.5,3984.9z"/>
			</g>
			<g class="st2">
				<path class="st3" d="M443.7,3987.7c0-0.2,0.1-0.4,0.2-0.5s0.3-0.2,0.6-0.2s0.5,0.1,0.6,0.2s0.2,0.3,0.2,0.5
					c0,0.2-0.1,0.4-0.2,0.5s-0.3,0.2-0.6,0.2s-0.5-0.1-0.6-0.2S443.7,3988,443.7,3987.7z"/>
				<path class="st3" d="M456.7,3983.8h-4.3v3.5h5v1.1h-6.3v-10h6.3v1.1h-4.9v3.2h4.3V3983.8z"/>
				<path class="st3" d="M460.1,3981v8.3c0,1.4-0.6,2.1-1.9,2.1c-0.3,0-0.5,0-0.8-0.1v-1c0.1,0,0.3,0.1,0.6,0.1
					c0.3,0,0.5-0.1,0.6-0.2c0.1-0.2,0.2-0.4,0.2-0.8v-8.3H460.1z M458.7,3979c0-0.2,0.1-0.4,0.2-0.5c0.1-0.1,0.3-0.2,0.6-0.2
					c0.2,0,0.4,0.1,0.6,0.2s0.2,0.3,0.2,0.5s-0.1,0.4-0.2,0.5s-0.3,0.2-0.6,0.2s-0.4-0.1-0.6-0.2S458.7,3979.3,458.7,3979z"/>
				<path class="st3" d="M465.2,3988.5c-1,0-1.8-0.3-2.4-1c-0.6-0.7-0.9-1.5-0.9-2.6v-0.2c0-0.7,0.1-1.4,0.4-2
					c0.3-0.6,0.7-1,1.2-1.4c0.5-0.3,1-0.5,1.6-0.5c1,0,1.7,0.3,2.2,1s0.8,1.5,0.8,2.7v0.5h-5c0,0.7,0.2,1.3,0.6,1.8
					c0.4,0.4,0.9,0.7,1.6,0.7c0.4,0,0.8-0.1,1.1-0.3s0.6-0.4,0.8-0.7l0.8,0.6C467.4,3988.1,466.5,3988.5,465.2,3988.5z
					 M465.1,3981.9c-0.5,0-0.9,0.2-1.3,0.6c-0.3,0.4-0.6,0.9-0.6,1.6h3.7v-0.1c0-0.6-0.2-1.1-0.5-1.5
					C466,3982.1,465.6,3981.9,465.1,3981.9z"/>
				<path class="st3" d="M470.8,3981l0,0.8c0.5-0.6,1.3-1,2.2-1c1,0,1.7,0.4,2.1,1.2c0.2-0.4,0.6-0.6,1-0.9s0.9-0.3,1.4-0.3
					c1.6,0,2.4,0.9,2.5,2.6v5h-1.3v-4.9c0-0.5-0.1-0.9-0.4-1.2c-0.2-0.3-0.6-0.4-1.2-0.4c-0.5,0-0.9,0.1-1.2,0.4
					c-0.3,0.3-0.5,0.7-0.5,1.1v4.9h-1.3v-4.8c0-1.1-0.5-1.6-1.6-1.6c-0.8,0-1.4,0.4-1.7,1.1v5.4h-1.3v-7.4H470.8z"/>
				<path class="st3" d="M488.1,3984.8c0,1.1-0.3,2-0.8,2.7s-1.2,1-2.1,1c-0.9,0-1.6-0.3-2.1-0.9v3.6h-1.3V3981h1.2l0.1,0.8
					c0.5-0.6,1.2-1,2.1-1c0.9,0,1.6,0.3,2.1,1s0.8,1.6,0.8,2.8V3984.8z M486.8,3984.6c0-0.8-0.2-1.5-0.5-2s-0.8-0.7-1.5-0.7
					c-0.8,0-1.3,0.3-1.7,1v3.5c0.4,0.7,1,1,1.7,1c0.6,0,1.1-0.2,1.4-0.7C486.6,3986.3,486.8,3985.6,486.8,3984.6z"/>
				<path class="st3" d="M491.1,3988.4h-1.3v-10.5h1.3V3988.4z"/>
				<path class="st3" d="M492.8,3984.6c0-0.7,0.1-1.4,0.4-2s0.7-1,1.2-1.3s1.1-0.5,1.7-0.5c1,0,1.8,0.3,2.4,1s0.9,1.6,0.9,2.8v0.1
					c0,0.7-0.1,1.4-0.4,1.9c-0.3,0.6-0.7,1-1.2,1.3s-1.1,0.5-1.8,0.5c-1,0-1.8-0.3-2.4-1S492.8,3985.9,492.8,3984.6L492.8,3984.6z
					 M494,3984.8c0,0.8,0.2,1.5,0.6,2s0.9,0.7,1.5,0.7c0.6,0,1.2-0.3,1.5-0.8c0.4-0.5,0.6-1.2,0.6-2.1c0-0.8-0.2-1.5-0.6-2
					c-0.4-0.5-0.9-0.8-1.5-0.8c-0.6,0-1.1,0.2-1.5,0.7S494,3983.9,494,3984.8z"/>
				<path class="st3" d="M504.2,3984.6c0-1.1,0.3-2,0.8-2.7c0.5-0.7,1.2-1,2.1-1c0.9,0,1.6,0.3,2.1,0.9v-3.9h1.3v10.5h-1.2l-0.1-0.8
					c-0.5,0.6-1.2,0.9-2.1,0.9c-0.9,0-1.6-0.4-2.1-1.1S504.2,3985.9,504.2,3984.6L504.2,3984.6z M505.5,3984.8c0,0.8,0.2,1.5,0.5,2
					s0.8,0.7,1.4,0.7c0.8,0,1.4-0.4,1.8-1.1v-3.4c-0.4-0.7-1-1-1.7-1c-0.6,0-1.1,0.2-1.4,0.7S505.5,3983.9,505.5,3984.8z"/>
				<path class="st3" d="M515.5,3988.5c-1,0-1.8-0.3-2.4-1c-0.6-0.7-0.9-1.5-0.9-2.6v-0.2c0-0.7,0.1-1.4,0.4-2
					c0.3-0.6,0.7-1,1.2-1.4c0.5-0.3,1-0.5,1.6-0.5c1,0,1.7,0.3,2.2,1s0.8,1.5,0.8,2.7v0.5h-5c0,0.7,0.2,1.3,0.6,1.8
					c0.4,0.4,0.9,0.7,1.6,0.7c0.4,0,0.8-0.1,1.1-0.3s0.6-0.4,0.8-0.7l0.8,0.6C517.7,3988.1,516.7,3988.5,515.5,3988.5z
					 M515.4,3981.9c-0.5,0-0.9,0.2-1.3,0.6c-0.3,0.4-0.6,0.9-0.6,1.6h3.7v-0.1c0-0.6-0.2-1.1-0.5-1.5
					C516.3,3982.1,515.9,3981.9,515.4,3981.9z"/>
				<path class="st3" d="M527.9,3987.7c-0.5,0.6-1.2,0.9-2.2,0.9c-0.8,0-1.4-0.2-1.8-0.7c-0.4-0.5-0.6-1.1-0.6-2v-4.8h1.3v4.8
					c0,1.1,0.5,1.7,1.4,1.7c1,0,1.6-0.4,1.9-1.1v-5.4h1.3v7.4h-1.2L527.9,3987.7z"/>
				<path class="st3" d="M532.2,3981l0,0.9c0.6-0.7,1.3-1.1,2.2-1.1c1.6,0,2.4,0.9,2.4,2.6v4.9h-1.3v-4.9c0-0.5-0.1-0.9-0.4-1.2
					s-0.6-0.4-1.1-0.4c-0.4,0-0.8,0.1-1.1,0.3s-0.6,0.5-0.7,0.9v5.3H531v-7.4H532.2z"/>
				<path class="st3" d="M543.3,3988.4c-0.1-0.1-0.1-0.4-0.2-0.8c-0.6,0.6-1.3,0.9-2.1,0.9c-0.7,0-1.3-0.2-1.8-0.6
					c-0.5-0.4-0.7-0.9-0.7-1.6c0-0.8,0.3-1.4,0.9-1.8c0.6-0.4,1.4-0.6,2.5-0.6h1.2v-0.6c0-0.4-0.1-0.8-0.4-1.1
					c-0.3-0.3-0.7-0.4-1.2-0.4c-0.5,0-0.8,0.1-1.1,0.3s-0.5,0.5-0.5,0.8h-1.3c0-0.4,0.1-0.7,0.4-1.1c0.3-0.3,0.6-0.6,1.1-0.8
					s0.9-0.3,1.5-0.3c0.9,0,1.5,0.2,2,0.6c0.5,0.4,0.7,1,0.8,1.8v3.4c0,0.7,0.1,1.2,0.3,1.6v0.1H543.3z M541.2,3987.4
					c0.4,0,0.8-0.1,1.1-0.3s0.6-0.5,0.8-0.8v-1.5h-1c-1.5,0-2.3,0.5-2.3,1.4c0,0.4,0.1,0.7,0.4,0.9S540.8,3987.4,541.2,3987.4z"/>
				<path class="st3" d="M552.9,3988.5c-1,0-1.8-0.3-2.4-1c-0.6-0.7-0.9-1.5-0.9-2.6v-0.2c0-0.7,0.1-1.4,0.4-2
					c0.3-0.6,0.7-1,1.2-1.4c0.5-0.3,1-0.5,1.6-0.5c1,0,1.7,0.3,2.2,1s0.8,1.5,0.8,2.7v0.5h-5c0,0.7,0.2,1.3,0.6,1.8
					c0.4,0.4,0.9,0.7,1.6,0.7c0.4,0,0.8-0.1,1.1-0.3s0.6-0.4,0.8-0.7l0.8,0.6C555.1,3988.1,554.2,3988.5,552.9,3988.5z
					 M552.8,3981.9c-0.5,0-0.9,0.2-1.3,0.6c-0.3,0.4-0.6,0.9-0.6,1.6h3.7v-0.1c0-0.6-0.2-1.1-0.5-1.5
					C553.7,3982.1,553.3,3981.9,552.8,3981.9z"/>
				<path class="st3" d="M561.6,3986.4c0-0.3-0.1-0.6-0.4-0.8c-0.3-0.2-0.7-0.4-1.3-0.5s-1.1-0.3-1.5-0.5s-0.7-0.4-0.8-0.7
					s-0.3-0.6-0.3-0.9c0-0.6,0.3-1.1,0.8-1.5s1.2-0.6,2-0.6c0.8,0,1.5,0.2,2,0.6c0.5,0.4,0.8,1,0.8,1.7h-1.3c0-0.3-0.1-0.6-0.4-0.9
					s-0.7-0.4-1.1-0.4c-0.5,0-0.8,0.1-1.1,0.3s-0.4,0.5-0.4,0.8c0,0.3,0.1,0.5,0.4,0.7s0.7,0.3,1.3,0.4s1.1,0.3,1.5,0.5
					c0.4,0.2,0.7,0.4,0.9,0.7c0.2,0.3,0.3,0.6,0.3,1c0,0.7-0.3,1.2-0.8,1.6c-0.5,0.4-1.2,0.6-2.1,0.6c-0.6,0-1.1-0.1-1.6-0.3
					s-0.8-0.5-1.1-0.9c-0.3-0.4-0.4-0.8-0.4-1.2h1.3c0,0.4,0.2,0.8,0.5,1c0.3,0.2,0.7,0.4,1.3,0.4c0.5,0,0.9-0.1,1.2-0.3
					C561.4,3987,561.6,3986.8,561.6,3986.4z"/>
				<path class="st3" d="M566.2,3979.2v1.8h1.4v1h-1.4v4.6c0,0.3,0.1,0.5,0.2,0.7s0.3,0.2,0.6,0.2c0.1,0,0.3,0,0.6-0.1v1
					c-0.3,0.1-0.7,0.1-1,0.1c-0.6,0-1-0.2-1.3-0.5s-0.4-0.8-0.4-1.5v-4.6h-1.3v-1h1.3v-1.8H566.2z"/>
				<path class="st3" d="M572.6,3982.1c-0.2,0-0.4,0-0.6,0c-0.8,0-1.4,0.4-1.7,1.1v5.2h-1.3v-7.4h1.2l0,0.9c0.4-0.7,1-1,1.8-1
					c0.2,0,0.4,0,0.6,0.1V3982.1z"/>
				<path class="st3" d="M578.4,3987.7c-0.5,0.6-1.2,0.9-2.2,0.9c-0.8,0-1.4-0.2-1.8-0.7c-0.4-0.5-0.6-1.1-0.6-2v-4.8h1.3v4.8
					c0,1.1,0.5,1.7,1.4,1.7c1,0,1.6-0.4,1.9-1.1v-5.4h1.3v7.4h-1.2L578.4,3987.7z"/>
				<path class="st3" d="M584.5,3987.5c0.5,0,0.8-0.1,1.2-0.4c0.3-0.3,0.5-0.6,0.6-1h1.2c0,0.4-0.2,0.8-0.4,1.2
					c-0.3,0.4-0.6,0.7-1.1,0.9c-0.4,0.2-0.9,0.3-1.4,0.3c-1,0-1.8-0.3-2.4-1c-0.6-0.7-0.9-1.6-0.9-2.8v-0.2c0-0.7,0.1-1.4,0.4-1.9
					c0.3-0.6,0.6-1,1.1-1.3c0.5-0.3,1.1-0.5,1.8-0.5c0.8,0,1.5,0.2,2.1,0.7c0.5,0.5,0.8,1.1,0.9,1.9h-1.2c0-0.5-0.2-0.9-0.5-1.2
					c-0.3-0.3-0.7-0.5-1.2-0.5c-0.6,0-1.1,0.2-1.5,0.7c-0.4,0.5-0.5,1.1-0.5,2v0.2c0,0.9,0.2,1.5,0.5,2
					C583.3,3987.3,583.8,3987.5,584.5,3987.5z"/>
				<path class="st3" d="M590.6,3979.2v1.8h1.4v1h-1.4v4.6c0,0.3,0.1,0.5,0.2,0.7s0.3,0.2,0.6,0.2c0.1,0,0.3,0,0.6-0.1v1
					c-0.3,0.1-0.7,0.1-1,0.1c-0.6,0-1-0.2-1.3-0.5s-0.4-0.8-0.4-1.5v-4.6h-1.3v-1h1.3v-1.8H590.6z"/>
				<path class="st3" d="M598,3987.7c-0.5,0.6-1.2,0.9-2.2,0.9c-0.8,0-1.4-0.2-1.8-0.7c-0.4-0.5-0.6-1.1-0.6-2v-4.8h1.3v4.8
					c0,1.1,0.5,1.7,1.4,1.7c1,0,1.6-0.4,1.9-1.1v-5.4h1.3v7.4H598L598,3987.7z"/>
				<path class="st3" d="M604.7,3982.1c-0.2,0-0.4,0-0.6,0c-0.8,0-1.4,0.4-1.7,1.1v5.2h-1.3v-7.4h1.2l0,0.9c0.4-0.7,1-1,1.8-1
					c0.2,0,0.4,0,0.6,0.1V3982.1z"/>
				<path class="st3" d="M610.2,3988.4c-0.1-0.1-0.1-0.4-0.2-0.8c-0.6,0.6-1.3,0.9-2.1,0.9c-0.7,0-1.3-0.2-1.8-0.6
					c-0.5-0.4-0.7-0.9-0.7-1.6c0-0.8,0.3-1.4,0.9-1.8c0.6-0.4,1.4-0.6,2.5-0.6h1.2v-0.6c0-0.4-0.1-0.8-0.4-1.1
					c-0.3-0.3-0.7-0.4-1.2-0.4c-0.5,0-0.8,0.1-1.1,0.3c-0.3,0.2-0.5,0.5-0.5,0.8h-1.3c0-0.4,0.1-0.7,0.4-1.1
					c0.3-0.3,0.6-0.6,1.1-0.8c0.4-0.2,0.9-0.3,1.5-0.3c0.9,0,1.5,0.2,2,0.6c0.5,0.4,0.7,1,0.8,1.8v3.4c0,0.7,0.1,1.2,0.3,1.6v0.1
					H610.2z M608.1,3987.4c0.4,0,0.8-0.1,1.1-0.3s0.6-0.5,0.8-0.8v-1.5h-1c-1.5,0-2.3,0.5-2.3,1.4c0,0.4,0.1,0.7,0.4,0.9
					C607.3,3987.3,607.6,3987.4,608.1,3987.4z"/>
				<path class="st3" d="M616.4,3984.6c0-1.1,0.3-2,0.8-2.7c0.5-0.7,1.2-1,2.1-1c0.9,0,1.6,0.3,2.1,0.9v-3.9h1.3v10.5h-1.2l-0.1-0.8
					c-0.5,0.6-1.2,0.9-2.1,0.9c-0.9,0-1.6-0.4-2.1-1.1S616.4,3985.9,616.4,3984.6L616.4,3984.6z M617.6,3984.8c0,0.8,0.2,1.5,0.5,2
					c0.3,0.5,0.8,0.7,1.4,0.7c0.8,0,1.4-0.4,1.8-1.1v-3.4c-0.4-0.7-1-1-1.7-1c-0.6,0-1.1,0.2-1.4,0.7
					C617.8,3983.1,617.6,3983.9,617.6,3984.8z"/>
				<path class="st3" d="M627.6,3988.5c-1,0-1.8-0.3-2.4-1c-0.6-0.7-0.9-1.5-0.9-2.6v-0.2c0-0.7,0.1-1.4,0.4-2
					c0.3-0.6,0.7-1,1.2-1.4c0.5-0.3,1-0.5,1.6-0.5c1,0,1.7,0.3,2.2,1s0.8,1.5,0.8,2.7v0.5h-5c0,0.7,0.2,1.3,0.6,1.8
					c0.4,0.4,0.9,0.7,1.6,0.7c0.4,0,0.8-0.1,1.1-0.3c0.3-0.2,0.6-0.4,0.8-0.7l0.8,0.6C629.8,3988.1,628.9,3988.5,627.6,3988.5z
					 M627.5,3981.9c-0.5,0-0.9,0.2-1.3,0.6c-0.3,0.4-0.6,0.9-0.6,1.6h3.7v-0.1c0-0.6-0.2-1.1-0.5-1.5
					C628.4,3982.1,628,3981.9,627.5,3981.9z"/>
				<path class="st3" d="M638.4,3987.5c0.5,0,0.8-0.1,1.2-0.4c0.3-0.3,0.5-0.6,0.6-1h1.2c0,0.4-0.2,0.8-0.4,1.2
					c-0.3,0.4-0.6,0.7-1.1,0.9c-0.4,0.2-0.9,0.3-1.4,0.3c-1,0-1.8-0.3-2.4-1c-0.6-0.7-0.9-1.6-0.9-2.8v-0.2c0-0.7,0.1-1.4,0.4-1.9
					c0.3-0.6,0.6-1,1.1-1.3c0.5-0.3,1.1-0.5,1.8-0.5c0.8,0,1.5,0.2,2.1,0.7c0.5,0.5,0.8,1.1,0.9,1.9h-1.2c0-0.5-0.2-0.9-0.5-1.2
					c-0.3-0.3-0.7-0.5-1.2-0.5c-0.6,0-1.1,0.2-1.5,0.7c-0.4,0.5-0.5,1.1-0.5,2v0.2c0,0.9,0.2,1.5,0.5,2
					C637.3,3987.3,637.8,3987.5,638.4,3987.5z"/>
				<path class="st3" d="M642.4,3984.6c0-0.7,0.1-1.4,0.4-2c0.3-0.6,0.7-1,1.2-1.3c0.5-0.3,1.1-0.5,1.7-0.5c1,0,1.8,0.3,2.4,1
					s0.9,1.6,0.9,2.8v0.1c0,0.7-0.1,1.4-0.4,1.9c-0.3,0.6-0.7,1-1.2,1.3s-1.1,0.5-1.8,0.5c-1,0-1.8-0.3-2.4-1
					S642.4,3985.9,642.4,3984.6L642.4,3984.6z M643.7,3984.8c0,0.8,0.2,1.5,0.6,2c0.4,0.5,0.9,0.7,1.5,0.7c0.6,0,1.2-0.3,1.5-0.8
					c0.4-0.5,0.6-1.2,0.6-2.1c0-0.8-0.2-1.5-0.6-2c-0.4-0.5-0.9-0.8-1.5-0.8c-0.6,0-1.1,0.2-1.5,0.7S643.7,3983.9,643.7,3984.8z"/>
				<path class="st3" d="M652,3981l0,0.9c0.6-0.7,1.3-1.1,2.2-1.1c1.6,0,2.4,0.9,2.4,2.6v4.9h-1.3v-4.9c0-0.5-0.1-0.9-0.4-1.2
					s-0.6-0.4-1.1-0.4c-0.4,0-0.8,0.1-1.1,0.3c-0.3,0.2-0.6,0.5-0.7,0.9v5.3h-1.3v-7.4H652z"/>
				<path class="st3" d="M660.2,3979.2v1.8h1.4v1h-1.4v4.6c0,0.3,0.1,0.5,0.2,0.7s0.3,0.2,0.6,0.2c0.1,0,0.3,0,0.6-0.1v1
					c-0.3,0.1-0.7,0.1-1,0.1c-0.6,0-1-0.2-1.3-0.5s-0.4-0.8-0.4-1.5v-4.6h-1.3v-1h1.3v-1.8H660.2z"/>
				<path class="st3" d="M666.6,3982.1c-0.2,0-0.4,0-0.6,0c-0.8,0-1.4,0.4-1.7,1.1v5.2h-1.3v-7.4h1.2l0,0.9c0.4-0.7,1-1,1.8-1
					c0.2,0,0.4,0,0.6,0.1V3982.1z"/>
				<path class="st3" d="M667.3,3984.6c0-0.7,0.1-1.4,0.4-2c0.3-0.6,0.7-1,1.2-1.3c0.5-0.3,1.1-0.5,1.7-0.5c1,0,1.8,0.3,2.4,1
					s0.9,1.6,0.9,2.8v0.1c0,0.7-0.1,1.4-0.4,1.9c-0.3,0.6-0.7,1-1.2,1.3s-1.1,0.5-1.8,0.5c-1,0-1.8-0.3-2.4-1
					S667.3,3985.9,667.3,3984.6L667.3,3984.6z M668.6,3984.8c0,0.8,0.2,1.5,0.6,2c0.4,0.5,0.9,0.7,1.5,0.7c0.6,0,1.2-0.3,1.5-0.8
					c0.4-0.5,0.6-1.2,0.6-2.1c0-0.8-0.2-1.5-0.6-2c-0.4-0.5-0.9-0.8-1.5-0.8c-0.6,0-1.1,0.2-1.5,0.7S668.6,3983.9,668.6,3984.8z"/>
				<path class="st3" d="M677,3988.4h-1.3v-10.5h1.3V3988.4z"/>
			</g>
			<g class="st2">
				<path class="st3" d="M453.6,4004.3c0.5,0,0.8-0.1,1.2-0.4s0.5-0.6,0.6-1h1.2c0,0.4-0.2,0.8-0.4,1.2s-0.6,0.7-1.1,0.9
					s-0.9,0.3-1.4,0.3c-1,0-1.8-0.3-2.4-1c-0.6-0.7-0.9-1.6-0.9-2.8v-0.2c0-0.7,0.1-1.4,0.4-1.9s0.6-1,1.1-1.3s1.1-0.5,1.8-0.5
					c0.8,0,1.5,0.2,2.1,0.7s0.8,1.1,0.9,1.9h-1.2c0-0.5-0.2-0.9-0.5-1.2c-0.3-0.3-0.7-0.5-1.2-0.5c-0.6,0-1.1,0.2-1.5,0.7
					c-0.4,0.5-0.5,1.1-0.5,2v0.2c0,0.9,0.2,1.5,0.5,2S452.9,4004.3,453.6,4004.3z"/>
				<path class="st3" d="M457.6,4001.4c0-0.7,0.1-1.4,0.4-2s0.7-1,1.2-1.3s1.1-0.5,1.7-0.5c1,0,1.8,0.3,2.4,1s0.9,1.6,0.9,2.8v0.1
					c0,0.7-0.1,1.4-0.4,1.9c-0.3,0.6-0.7,1-1.2,1.3s-1.1,0.5-1.8,0.5c-1,0-1.8-0.3-2.4-1S457.6,4002.7,457.6,4001.4L457.6,4001.4z
					 M458.9,4001.6c0,0.8,0.2,1.5,0.6,2s0.9,0.7,1.5,0.7c0.6,0,1.2-0.3,1.5-0.8c0.4-0.5,0.6-1.2,0.6-2.1c0-0.8-0.2-1.5-0.6-2
					c-0.4-0.5-0.9-0.8-1.5-0.8c-0.6,0-1.1,0.2-1.5,0.7S458.9,4000.7,458.9,4001.6z"/>
				<path class="st3" d="M467.1,3997.8l0,0.9c0.6-0.7,1.3-1.1,2.2-1.1c1.6,0,2.4,0.9,2.4,2.6v4.9h-1.3v-4.9c0-0.5-0.1-0.9-0.4-1.2
					s-0.6-0.4-1.1-0.4c-0.4,0-0.8,0.1-1.1,0.3s-0.6,0.5-0.7,0.9v5.3h-1.3v-7.4H467.1z"/>
				<path class="st3" d="M473.4,4001.4c0-1.1,0.3-2,0.8-2.7c0.5-0.7,1.2-1,2.1-1c0.9,0,1.6,0.3,2.1,0.9v-3.9h1.3v10.5h-1.2l-0.1-0.8
					c-0.5,0.6-1.2,0.9-2.1,0.9c-0.9,0-1.6-0.4-2.1-1.1S473.4,4002.7,473.4,4001.4L473.4,4001.4z M474.6,4001.6c0,0.8,0.2,1.5,0.5,2
					s0.8,0.7,1.4,0.7c0.8,0,1.4-0.4,1.8-1.1v-3.4c-0.4-0.7-1-1-1.7-1c-0.6,0-1.1,0.2-1.4,0.7S474.6,4000.7,474.6,4001.6z"/>
				<path class="st3" d="M481.6,3995.8c0-0.2,0.1-0.4,0.2-0.5s0.3-0.2,0.6-0.2s0.4,0.1,0.6,0.2s0.2,0.3,0.2,0.5s-0.1,0.4-0.2,0.5
					s-0.3,0.2-0.6,0.2s-0.4-0.1-0.6-0.2S481.6,3996.1,481.6,3995.8z M482.9,4005.2h-1.3v-7.4h1.3V4005.2z"/>
				<path class="st3" d="M487.9,4004.3c0.5,0,0.8-0.1,1.2-0.4s0.5-0.6,0.6-1h1.2c0,0.4-0.2,0.8-0.4,1.2s-0.6,0.7-1.1,0.9
					s-0.9,0.3-1.4,0.3c-1,0-1.8-0.3-2.4-1c-0.6-0.7-0.9-1.6-0.9-2.8v-0.2c0-0.7,0.1-1.4,0.4-1.9s0.6-1,1.1-1.3s1.1-0.5,1.8-0.5
					c0.8,0,1.5,0.2,2.1,0.7s0.8,1.1,0.9,1.9h-1.2c0-0.5-0.2-0.9-0.5-1.2c-0.3-0.3-0.7-0.5-1.2-0.5c-0.6,0-1.1,0.2-1.5,0.7
					c-0.4,0.5-0.5,1.1-0.5,2v0.2c0,0.9,0.2,1.5,0.5,2S487.3,4004.3,487.9,4004.3z"/>
				<path class="st3" d="M492.3,3995.8c0-0.2,0.1-0.4,0.2-0.5s0.3-0.2,0.6-0.2s0.4,0.1,0.6,0.2s0.2,0.3,0.2,0.5s-0.1,0.4-0.2,0.5
					s-0.3,0.2-0.6,0.2s-0.4-0.1-0.6-0.2S492.3,3996.1,492.3,3995.8z M493.7,4005.2h-1.3v-7.4h1.3V4005.2z"/>
				<path class="st3" d="M495.4,4001.4c0-0.7,0.1-1.4,0.4-2s0.7-1,1.2-1.3s1.1-0.5,1.7-0.5c1,0,1.8,0.3,2.4,1s0.9,1.6,0.9,2.8v0.1
					c0,0.7-0.1,1.4-0.4,1.9c-0.3,0.6-0.7,1-1.2,1.3s-1.1,0.5-1.8,0.5c-1,0-1.8-0.3-2.4-1S495.4,4002.7,495.4,4001.4L495.4,4001.4z
					 M496.6,4001.6c0,0.8,0.2,1.5,0.6,2s0.9,0.7,1.5,0.7c0.6,0,1.2-0.3,1.5-0.8c0.4-0.5,0.6-1.2,0.6-2.1c0-0.8-0.2-1.5-0.6-2
					c-0.4-0.5-0.9-0.8-1.5-0.8c-0.6,0-1.1,0.2-1.5,0.7S496.6,4000.7,496.6,4001.6z"/>
				<path class="st3" d="M504.9,3997.8l0,0.9c0.6-0.7,1.3-1.1,2.2-1.1c1.6,0,2.4,0.9,2.4,2.6v4.9h-1.3v-4.9c0-0.5-0.1-0.9-0.4-1.2
					s-0.6-0.4-1.1-0.4c-0.4,0-0.8,0.1-1.1,0.3s-0.6,0.5-0.7,0.9v5.3h-1.3v-7.4H504.9z"/>
				<path class="st3" d="M516,4005.2c-0.1-0.1-0.1-0.4-0.2-0.8c-0.6,0.6-1.3,0.9-2.1,0.9c-0.7,0-1.3-0.2-1.8-0.6
					c-0.5-0.4-0.7-0.9-0.7-1.6c0-0.8,0.3-1.4,0.9-1.8c0.6-0.4,1.4-0.6,2.5-0.6h1.2v-0.6c0-0.4-0.1-0.8-0.4-1.1
					c-0.3-0.3-0.7-0.4-1.2-0.4c-0.5,0-0.8,0.1-1.1,0.3s-0.5,0.5-0.5,0.8h-1.3c0-0.4,0.1-0.7,0.4-1.1c0.3-0.3,0.6-0.6,1.1-0.8
					s0.9-0.3,1.5-0.3c0.9,0,1.5,0.2,2,0.6c0.5,0.4,0.7,1,0.8,1.8v3.4c0,0.7,0.1,1.2,0.3,1.6v0.1H516z M513.9,4004.2
					c0.4,0,0.8-0.1,1.1-0.3s0.6-0.5,0.8-0.8v-1.5h-1c-1.5,0-2.3,0.5-2.3,1.4c0,0.4,0.1,0.7,0.4,0.9S513.5,4004.2,513.9,4004.2z"/>
				<path class="st3" d="M520.4,4005.2h-1.3v-10.5h1.3V4005.2z"/>
			</g>
			<g class="st2">
				<path class="st3" d="M526.5,4005.2h-1.2l1.3-7.4h1.2L526.5,4005.2z M527.5,3995.1c0.2,0,0.4,0.1,0.5,0.2
					c0.1,0.1,0.2,0.3,0.2,0.5c0,0.2-0.1,0.4-0.2,0.5s-0.3,0.2-0.5,0.2s-0.4-0.1-0.5-0.2s-0.2-0.3-0.2-0.5s0.1-0.4,0.2-0.5
					S527.3,3995.1,527.5,3995.1z"/>
				<path class="st3" d="M529.1,4005.2l1.1-6.4h-1.1l0.2-1h1.1l0.1-0.9c0.1-0.7,0.4-1.3,0.9-1.7c0.5-0.4,1.1-0.7,1.8-0.6
					c0.2,0,0.5,0,0.9,0.1l-0.2,1c-0.2,0-0.4-0.1-0.7-0.1c-0.4,0-0.8,0.1-1,0.4s-0.4,0.6-0.5,1.1l-0.1,0.7h1.5l-0.2,1h-1.5l-1.1,6.4
					H529.1z"/>
				<path class="st3" d="M536.5,4001.5h-3.2l0.2-1h3.2L536.5,4001.5z"/>
				<path class="st3" d="M543.7,4005.3c-0.9,0-1.6-0.4-2.2-1s-0.7-1.5-0.7-2.5l0-0.3c0.1-0.7,0.3-1.4,0.7-2s0.8-1.1,1.3-1.4
					c0.5-0.3,1.1-0.5,1.7-0.4c0.8,0,1.4,0.3,1.8,0.8s0.7,1.1,0.7,2c0,0.3,0,0.6,0,0.9l-0.1,0.6h-4.8c-0.1,0.7,0,1.2,0.3,1.7
					s0.8,0.7,1.4,0.7c0.7,0,1.4-0.3,2-1l0.7,0.6c-0.3,0.4-0.7,0.8-1.2,1C544.9,4005.2,544.3,4005.4,543.7,4005.3z M544.5,3998.7
					c-0.5,0-1,0.2-1.3,0.5s-0.7,0.9-0.9,1.6l3.6,0l0-0.1c0.1-0.6,0-1.1-0.3-1.4C545.4,3998.9,545,3998.7,544.5,3998.7z"/>
				<path class="st3" d="M549.1,4005.2h-1.2l1.8-10.5h1.2L549.1,4005.2z"/>
				<path class="st3" d="M555.7,4003.2c0.1-0.5-0.2-0.9-0.8-1.1l-1.3-0.4c-1.1-0.4-1.6-1-1.6-1.9c0-0.7,0.3-1.2,0.9-1.6
					c0.6-0.4,1.2-0.6,2-0.6c0.7,0,1.4,0.2,1.8,0.7c0.5,0.4,0.7,1,0.7,1.7l-1.2,0c0-0.4-0.1-0.7-0.3-0.9s-0.6-0.4-1-0.4
					c-0.4,0-0.8,0.1-1.1,0.3c-0.3,0.2-0.5,0.5-0.5,0.8c-0.1,0.4,0.2,0.7,0.8,0.9l0.6,0.2c0.8,0.2,1.4,0.5,1.8,0.9s0.5,0.8,0.5,1.3
					c0,0.5-0.2,0.9-0.5,1.2s-0.6,0.6-1.1,0.8c-0.5,0.2-0.9,0.3-1.5,0.2c-0.8,0-1.4-0.2-1.9-0.7c-0.5-0.4-0.8-1-0.7-1.7l1.2,0
					c0,0.4,0.1,0.7,0.4,1s0.6,0.4,1.1,0.4c0.5,0,0.8-0.1,1.2-0.3C555.5,4003.8,555.7,4003.5,555.7,4003.2z"/>
				<path class="st3" d="M561.4,4005.3c-0.9,0-1.6-0.4-2.2-1s-0.7-1.5-0.7-2.5l0-0.3c0.1-0.7,0.3-1.4,0.7-2s0.8-1.1,1.3-1.4
					c0.5-0.3,1.1-0.5,1.7-0.4c0.8,0,1.4,0.3,1.8,0.8c0.4,0.5,0.7,1.1,0.7,2c0,0.3,0,0.6,0,0.9l-0.1,0.6h-4.8c-0.1,0.7,0,1.2,0.3,1.7
					s0.8,0.7,1.4,0.7c0.7,0,1.4-0.3,2-1l0.7,0.6c-0.3,0.4-0.7,0.8-1.2,1C562.6,4005.2,562,4005.4,561.4,4005.3z M562.2,3998.7
					c-0.5,0-1,0.2-1.3,0.5c-0.4,0.4-0.7,0.9-0.9,1.6l3.6,0l0-0.1c0.1-0.6,0-1.1-0.3-1.4C563.1,3998.9,562.7,3998.7,562.2,3998.7z"/>
			</g>
		</g>
	</g>
	<g class="st2">
		<path class="st4" d="M-5498.6-2386.2h-1.8l1.9-11.1h1.8L-5498.6-2386.2z M-5497-2401.4c0.3,0,0.6,0.1,0.8,0.3
			c0.2,0.2,0.3,0.5,0.3,0.8c0,0.3-0.1,0.6-0.3,0.8s-0.5,0.3-0.8,0.3c-0.3,0-0.6-0.1-0.8-0.3s-0.3-0.5-0.3-0.8s0.1-0.6,0.3-0.8
			S-5497.3-2401.4-5497-2401.4z"/>
		<path class="st4" d="M-5494.6-2386.2l1.7-9.6h-1.7l0.3-1.5h1.7l0.2-1.3c0.2-1.1,0.6-2,1.3-2.6c0.7-0.7,1.6-1,2.7-1
			c0.3,0,0.8,0.1,1.3,0.2l-0.2,1.6c-0.3-0.1-0.7-0.1-1-0.1c-0.6,0-1.2,0.2-1.6,0.6c-0.4,0.4-0.6,0.9-0.7,1.6l-0.2,1.1h2.3l-0.3,1.5
			h-2.3l-1.7,9.6H-5494.6z"/>
	</g>
	<g class="st2">
		<path class="st5" d="M-5482.1-2392.3c0.2-1.6,0.6-3.1,1.3-4.6c0.6-1.5,1.4-2.8,2.3-3.8c0.9-1.1,1.9-1.9,3-2.4l0.3,1.3
			c-1.1,0.8-2,1.8-2.8,3.1c-0.8,1.3-1.4,2.8-1.8,4.6c-0.4,1.8-0.6,3.5-0.6,5.2c0,1.4,0.2,2.7,0.5,3.7c0.4,1.1,0.9,1.9,1.6,2.5
			l-0.5,1.1c-1.1-0.8-2-2-2.6-3.5c-0.6-1.6-0.9-3.3-0.8-5.3c0-0.7,0.1-1.3,0.1-1.9L-5482.1-2392.3z"/>
		<path class="st5" d="M-5471.4-2393.3l3-4h2.3l-4.5,5.6l2.7,5.5h-2l-1.8-4.1l-3.1,4.1h-2.3l4.6-5.7l-2.6-5.4h2L-5471.4-2393.3z"/>
		<path class="st5" d="M-5456.8-2390.3h-8.3l0.3-1.6h8.3L-5456.8-2390.3z M-5456.1-2394.6h-8.3l0.3-1.7h8.3L-5456.1-2394.6z"/>
		<path class="st5" d="M-5445.5-2390.3h-8.3l0.3-1.6h8.3L-5445.5-2390.3z M-5444.8-2394.6h-8.3l0.3-1.7h8.3L-5444.8-2394.6z"/>
	</g>
	<g class="st2">
		<path class="st6" d="M-5438.8-2386c-1.3,0-2.2-0.5-2.8-1.3c-0.6-0.9-0.9-2.1-0.9-3.7c0-0.5,0.1-1,0.1-1.5l0.4-2.5
			c0.3-2.1,1-3.7,1.9-4.8s2.1-1.6,3.7-1.5c1.3,0,2.2,0.5,2.8,1.3c0.6,0.8,0.9,2.1,0.9,3.7c0,0.5-0.1,1-0.1,1.5l-0.4,2.4
			c-0.4,2.2-1,3.9-1.9,4.9C-5436.1-2386.5-5437.3-2386-5438.8-2386z M-5434.7-2395.2c0.1-0.8,0.1-1.5,0.1-1.9c0-1.7-0.7-2.6-2-2.7
			c-1,0-1.7,0.3-2.3,1.1c-0.6,0.7-1,1.9-1.2,3.5l-0.4,3c-0.1,0.8-0.1,1.4-0.1,1.9c0,1.8,0.7,2.7,2,2.8c0.9,0,1.7-0.3,2.3-1
			c0.6-0.7,1-1.8,1.3-3.4L-5434.7-2395.2z"/>
	</g>
	<g class="st2">
		<path class="st5" d="M-5426.5-2392.2c-0.2,1.7-0.7,3.2-1.3,4.7c-0.6,1.5-1.4,2.7-2.3,3.8c-0.9,1-1.9,1.8-2.9,2.3l-0.3-1.2
			c2.3-1.8,3.9-4.6,4.7-8.5c0.3-1.6,0.5-3.1,0.5-4.5c0-2.9-0.7-5-2.1-6.3l0.5-1.1c0.8,0.5,1.4,1.2,1.9,2.1c0.5,0.9,0.9,1.9,1.2,3.1
			c0.2,1.2,0.4,2.4,0.3,3.6c0,0.7-0.1,1.3-0.2,1.9L-5426.5-2392.2z"/>
		<path class="st5" d="M-5423.4-2388.4c0.3,0,0.6,0.1,0.8,0.3s0.3,0.5,0.3,0.8s-0.1,0.6-0.3,0.8c-0.2,0.2-0.5,0.3-0.8,0.3
			s-0.6-0.1-0.8-0.3c-0.2-0.2-0.3-0.5-0.3-0.8s0.1-0.6,0.3-0.8C-5424-2388.3-5423.7-2388.4-5423.4-2388.4z M-5421.8-2397.4
			c0.3,0,0.6,0.1,0.8,0.3c0.2,0.2,0.3,0.5,0.3,0.8c0,0.3-0.1,0.6-0.3,0.8c-0.2,0.2-0.5,0.3-0.8,0.3c-0.3,0-0.6-0.1-0.8-0.3
			c-0.2-0.2-0.3-0.5-0.3-0.8s0.1-0.6,0.3-0.8C-5422.4-2397.3-5422.1-2397.4-5421.8-2397.4z"/>
	</g>
	<g class="st2">
		<path class="st4" d="M-5490.5-2366.5c-0.1,1.1-0.4,2.1-0.9,3s-1.1,1.6-1.8,2c-0.7,0.4-1.5,0.7-2.3,0.6c-1.3,0-2.3-0.5-3-1.3
			l-1,5.4h-1.9l2.7-15.4l1.7,0l-0.2,1.2c0.9-1,2-1.5,3.3-1.4c1.1,0,1.9,0.4,2.5,1.2c0.6,0.8,0.9,1.8,0.9,3.1c0,0.4,0,0.9-0.1,1.3
			L-5490.5-2366.5z M-5492.3-2366.7l0.1-0.9c0-1-0.2-1.8-0.6-2.3c-0.4-0.5-0.9-0.8-1.6-0.8c-1.1,0-2,0.5-2.8,1.5l-0.9,5.3
			c0.4,1,1.2,1.5,2.2,1.5c0.9,0,1.7-0.3,2.4-1.1C-5493-2364.2-5492.5-2365.3-5492.3-2366.7z"/>
		<path class="st4" d="M-5482.1-2370.4l-0.9-0.1c-1.2,0-2.1,0.5-2.8,1.6l-1.4,7.9h-1.9l1.9-11.1l1.8,0l-0.3,1.3
			c0.8-1,1.7-1.5,2.8-1.5c0.2,0,0.5,0.1,0.9,0.2L-5482.1-2370.4z"/>
		<path class="st4" d="M-5480-2361h-1.8l1.9-11.1h1.8L-5480-2361z M-5478.5-2376.2c0.3,0,0.6,0.1,0.8,0.3c0.2,0.2,0.3,0.5,0.3,0.8
			c0,0.3-0.1,0.6-0.3,0.8s-0.5,0.3-0.8,0.3c-0.3,0-0.6-0.1-0.8-0.3s-0.3-0.5-0.3-0.8s0.1-0.6,0.3-0.8S-5478.8-2376.2-5478.5-2376.2z
			"/>
		<path class="st4" d="M-5473.3-2372.1l-0.3,1.4c1-1.1,2.1-1.6,3.4-1.6c1,0,1.8,0.4,2.3,1.1s0.7,1.7,0.6,2.9l-1.2,7.3h-1.9l1.2-7.3
			c0-0.3,0-0.6,0-0.9c-0.1-1-0.7-1.4-1.7-1.5c-1.1,0-2.1,0.6-2.9,1.8l-1.4,7.9h-1.9l1.9-11.1L-5473.3-2372.1z"/>
		<path class="st4" d="M-5460.8-2374.8l-0.5,2.7h2l-0.3,1.5h-2l-1.2,6.9c0,0.2,0,0.3,0,0.5c0,0.5,0.3,0.8,0.9,0.8
			c0.2,0,0.5,0,0.9-0.1l-0.1,1.5c-0.4,0.1-0.9,0.2-1.4,0.2c-0.7,0-1.3-0.3-1.7-0.8c-0.4-0.5-0.5-1.2-0.4-2.1l1.1-6.9h-2l0.3-1.5h2
			l0.5-2.7H-5460.8z"/>
	</g>
	<g class="st2">
		<path class="st7" d="M-5450-2375.3l-0.9,3.6l-1.1,0l0.8-5.2l1.4,0.1L-5450-2375.3z M-5447.3-2375.3l-0.9,3.6h-1.1l0.8-5.1l1.4,0.1
			L-5447.3-2375.3z"/>
		<path class="st7" d="M-5442.4-2368.1l3-4h2.3l-4.5,5.6l2.7,5.5h-2l-1.8-4.1l-3.1,4.1h-2.3l4.6-5.7l-2.6-5.4h2L-5442.4-2368.1z"/>
		<path class="st7" d="M-5426.9-2374.8l-0.5,2.7h2l-0.3,1.5h-2l-1.2,6.9c0,0.2,0,0.3,0,0.5c0,0.5,0.3,0.8,0.9,0.8
			c0.2,0,0.5,0,0.9-0.1l-0.1,1.5c-0.4,0.1-0.9,0.2-1.4,0.2c-0.7,0-1.3-0.3-1.7-0.8c-0.4-0.5-0.5-1.2-0.4-2.1l1.1-6.9h-2l0.3-1.5h2
			l0.5-2.7H-5426.9z"/>
		<path class="st7" d="M-5423-2361h-1.8l1.9-11.1h1.8L-5423-2361z M-5421.5-2376.2c0.3,0,0.6,0.1,0.8,0.3c0.2,0.2,0.3,0.5,0.3,0.8
			c0,0.3-0.1,0.6-0.3,0.8s-0.5,0.3-0.8,0.3c-0.3,0-0.6-0.1-0.8-0.3s-0.3-0.5-0.3-0.8s0.1-0.6,0.3-0.8S-5421.8-2376.2-5421.5-2376.2z
			"/>
		<path class="st7" d="M-5415.2-2360.8c-1.4,0-2.5-0.5-3.2-1.5s-1.1-2.3-1-3.8l0.1-0.4c0.1-1.1,0.4-2.1,1-3c0.5-0.9,1.2-1.6,2-2.1
			c0.8-0.5,1.6-0.7,2.5-0.7c1.1,0,2,0.4,2.7,1.1c0.6,0.7,1,1.7,1.1,3c0,0.4,0,0.9,0,1.3l-0.1,0.9h-7.2c-0.1,1,0,1.9,0.5,2.6
			c0.5,0.7,1.1,1.1,2,1.1c1.1,0,2.1-0.5,3-1.5l1.1,0.9c-0.5,0.7-1.1,1.2-1.8,1.6C-5413.5-2361-5414.3-2360.8-5415.2-2360.8z
			 M-5414-2370.8c-0.8,0-1.4,0.2-2,0.8c-0.6,0.5-1,1.3-1.4,2.4l5.4,0l0-0.2c0.1-0.9,0-1.6-0.4-2.1
			C-5412.7-2370.5-5413.3-2370.8-5414-2370.8z"/>
		<path class="st7" d="M-5405.4-2372.1l-0.3,1.4c1-1.1,2.1-1.6,3.4-1.6c1,0,1.8,0.4,2.3,1.1s0.7,1.7,0.6,2.9l-1.2,7.3h-1.9l1.2-7.3
			c0-0.3,0-0.6,0-0.9c-0.1-1-0.7-1.4-1.7-1.5c-1.1,0-2.1,0.6-2.9,1.8l-1.4,7.9h-1.9l1.9-11.1L-5405.4-2372.1z"/>
		<path class="st7" d="M-5393-2360.8c-1.4,0-2.5-0.5-3.2-1.5s-1.1-2.3-1-3.8l0.1-0.4c0.1-1.1,0.4-2.1,1-3c0.5-0.9,1.2-1.6,2-2.1
			c0.8-0.5,1.6-0.7,2.5-0.7c1.1,0,2,0.4,2.7,1.1c0.6,0.7,1,1.7,1.1,3c0,0.4,0,0.9,0,1.3l-0.1,0.9h-7.2c-0.1,1,0,1.9,0.5,2.6
			c0.5,0.7,1.1,1.1,2,1.1c1.1,0,2.1-0.5,3-1.5l1.1,0.9c-0.5,0.7-1.1,1.2-1.8,1.6C-5391.2-2361-5392-2360.8-5393-2360.8z
			 M-5391.8-2370.8c-0.8,0-1.4,0.2-2,0.8c-0.6,0.5-1,1.3-1.4,2.4l5.4,0l0-0.2c0.1-0.9,0-1.6-0.4-2.1
			C-5390.5-2370.5-5391.1-2370.8-5391.8-2370.8z"/>
		<path class="st7" d="M-5374.7-2362.1c-0.9,0.9-2,1.3-3.3,1.3c-1.1,0-1.8-0.4-2.4-1.1c-0.5-0.7-0.7-1.7-0.6-3l1.2-7.2h1.9l-1.2,7.2
			c0,0.3,0,0.6,0,0.9c0,0.5,0.2,0.9,0.4,1.2s0.6,0.4,1.1,0.5c1.3,0,2.4-0.5,3.1-1.6l1.4-8.1h1.9l-1.9,11.1h-1.8L-5374.7-2362.1z"/>
		<path class="st7" d="M-5366.7-2372.1l-0.3,1.4c1-1.1,2.1-1.6,3.4-1.6c1,0,1.8,0.4,2.3,1.1s0.7,1.7,0.6,2.9l-1.2,7.3h-1.9l1.2-7.3
			c0-0.3,0-0.6,0-0.9c-0.1-1-0.7-1.4-1.7-1.5c-1.1,0-2.1,0.6-2.9,1.8l-1.4,7.9h-1.9l1.9-11.1L-5366.7-2372.1z"/>
		<path class="st7" d="M-5349.9-2363.6l4-8.5h2l-5.6,11.1h-1.4l-2.2-11.1h1.8L-5349.9-2363.6z"/>
		<path class="st7" d="M-5337.3-2361c0-0.2-0.1-0.4-0.1-0.6l0-0.6c-1,0.9-2.1,1.4-3.2,1.4c-1,0-1.8-0.3-2.4-0.9
			c-0.6-0.6-0.9-1.4-0.8-2.3c0.1-1.2,0.6-2.1,1.5-2.8c1-0.7,2.2-1,3.8-1l1.9,0l0.1-0.9c0.1-0.7-0.1-1.2-0.4-1.6
			c-0.3-0.4-0.8-0.6-1.5-0.6c-0.6,0-1.2,0.1-1.7,0.5c-0.5,0.3-0.8,0.8-0.9,1.3l-1.9,0c0.1-0.6,0.3-1.2,0.8-1.7
			c0.4-0.5,1-0.9,1.7-1.2c0.7-0.3,1.4-0.4,2.2-0.4c1.2,0,2.1,0.4,2.7,1.1c0.6,0.7,0.9,1.6,0.8,2.7l-0.9,5.5l-0.1,0.8
			c0,0.4,0,0.7,0.1,1.1l0,0.2H-5337.3z M-5340.2-2362.5c0.6,0,1.2-0.1,1.7-0.4c0.5-0.3,1-0.7,1.4-1.2l0.4-2.3l-1.4,0
			c-1.2,0-2.1,0.2-2.7,0.6s-1,0.9-1.1,1.6c-0.1,0.5,0.1,1,0.4,1.3C-5341.2-2362.7-5340.8-2362.5-5340.2-2362.5z"/>
		<path class="st7" d="M-5330.9-2361h-1.8l2.7-15.8h1.9L-5330.9-2361z"/>
		<path class="st7" d="M-5321.7-2372.3c0.9,0,1.7,0.3,2.4,0.8c0.7,0.5,1.2,1.2,1.5,2c0.3,0.9,0.4,1.8,0.3,2.8l0,0.2
			c-0.1,1.1-0.5,2.1-1,2.9c-0.5,0.9-1.2,1.6-2,2c-0.8,0.5-1.7,0.7-2.7,0.7c-0.9,0-1.7-0.3-2.4-0.8c-0.7-0.5-1.2-1.2-1.5-2
			s-0.4-1.8-0.3-2.8c0.1-1.1,0.4-2.2,0.9-3.1s1.2-1.6,2-2.1C-5323.6-2372.1-5322.7-2372.4-5321.7-2372.3z M-5325.5-2366.4
			c0,0.4,0,0.9,0,1.3c0.1,0.8,0.3,1.5,0.7,1.9c0.4,0.5,1,0.7,1.7,0.7c0.6,0,1.2-0.1,1.7-0.5c0.5-0.3,1-0.8,1.3-1.5s0.6-1.4,0.7-2.2
			c0.1-0.6,0.1-1.2,0-1.6c-0.1-0.8-0.3-1.5-0.7-2c-0.4-0.5-1-0.7-1.7-0.8c-1,0-1.8,0.4-2.4,1.1s-1.1,1.8-1.2,3L-5325.5-2366.4z"/>
		<path class="st7" d="M-5309.2-2370.4l-0.9-0.1c-1.2,0-2.1,0.5-2.8,1.6l-1.4,7.9h-1.9l1.9-11.1l1.8,0l-0.3,1.3
			c0.8-1,1.7-1.5,2.8-1.5c0.2,0,0.5,0.1,0.9,0.2L-5309.2-2370.4z"/>
		<path class="st7" d="M-5303.5-2366.6c0.1-1.1,0.4-2.1,0.9-3.1c0.5-0.9,1.1-1.6,1.8-2s1.5-0.7,2.3-0.6c1.2,0,2.2,0.5,2.8,1.4
			l1.1-5.8h1.9l-2.7,15.8h-1.7l0.2-1.2c-0.9,1-2,1.4-3.2,1.4c-1,0-1.8-0.4-2.5-1.2c-0.6-0.8-0.9-1.8-1-3.1
			C-5303.5-2365.6-5303.5-2366-5303.5-2366.6z M-5301.7-2365.5c0,1,0.2,1.7,0.5,2.3s0.9,0.8,1.6,0.8c1.1,0,2-0.5,2.9-1.6l0.9-5.1
			c-0.4-1-1.2-1.5-2.2-1.6c-0.7,0-1.4,0.2-1.9,0.7c-0.6,0.5-1,1.1-1.3,1.9C-5301.5-2367.3-5301.7-2366.4-5301.7-2365.5z"/>
		<path class="st7" d="M-5287.6-2360.8c-1.4,0-2.5-0.5-3.2-1.5s-1.1-2.3-1-3.8l0.1-0.4c0.1-1.1,0.4-2.1,1-3s1.2-1.6,2-2.1
			c0.8-0.5,1.6-0.7,2.5-0.7c1.1,0,2,0.4,2.7,1.1c0.6,0.7,1,1.7,1.1,3c0,0.4,0,0.9,0,1.3l-0.1,0.9h-7.2c-0.1,1,0,1.9,0.5,2.6
			s1.1,1.1,2,1.1c1.1,0,2.1-0.5,3-1.5l1.1,0.9c-0.5,0.7-1.1,1.2-1.8,1.6C-5285.9-2361-5286.7-2360.8-5287.6-2360.8z M-5286.4-2370.8
			c-0.8,0-1.4,0.2-2,0.8c-0.6,0.5-1,1.3-1.4,2.4l5.4,0l0-0.2c0.1-0.9,0-1.6-0.4-2.1C-5285.2-2370.5-5285.7-2370.8-5286.4-2370.8z"/>
		<path class="st7" d="M-5271.8-2360.8c-1.3,0-2.2-0.5-2.8-1.3c-0.6-0.9-0.9-2.1-0.9-3.7c0-0.5,0.1-1,0.1-1.5l0.4-2.5
			c0.3-2.1,1-3.7,1.9-4.8c0.9-1,2.1-1.6,3.7-1.5c1.3,0,2.2,0.5,2.8,1.3c0.6,0.8,0.9,2.1,0.9,3.7c0,0.5-0.1,1-0.1,1.5l-0.4,2.4
			c-0.4,2.2-1,3.9-1.9,4.9C-5269.1-2361.3-5270.3-2360.8-5271.8-2360.8z M-5267.7-2370c0.1-0.8,0.1-1.5,0.1-1.9c0-1.7-0.7-2.6-2-2.7
			c-1,0-1.7,0.3-2.3,1.1c-0.6,0.7-1,1.9-1.2,3.5l-0.4,3c-0.1,0.8-0.1,1.4-0.1,1.9c0,1.8,0.7,2.7,2,2.8c0.9,0,1.7-0.3,2.3-1
			c0.6-0.7,1-1.8,1.3-3.4L-5267.7-2370z"/>
		<path class="st7" d="M-5261.1-2375.3l-0.9,3.6l-1.1,0l0.8-5.2l1.4,0.1L-5261.1-2375.3z M-5258.4-2375.3l-0.9,3.6h-1.1l0.8-5.1
			l1.4,0.1L-5258.4-2375.3z"/>
	</g>
	<g class="st2">
		<path class="st4" d="M-5495.8-2335.6c-1.4,0-2.5-0.5-3.2-1.5c-0.8-1-1.1-2.3-1-3.8l0.1-0.4c0.1-1.1,0.4-2.1,1-3
			c0.5-0.9,1.2-1.6,2-2.1c0.8-0.5,1.6-0.7,2.5-0.7c1.1,0,2,0.4,2.7,1.1c0.6,0.7,1,1.7,1.1,3c0,0.4,0,0.9,0,1.3l-0.1,0.9h-7.2
			c-0.1,1,0,1.9,0.5,2.6c0.5,0.7,1.1,1.1,2,1.1c1.1,0,2.1-0.5,3-1.5l1.1,0.9c-0.5,0.7-1.1,1.2-1.8,1.6S-5494.9-2335.6-5495.8-2335.6
			z M-5494.6-2345.6c-0.8,0-1.4,0.2-2,0.8c-0.6,0.5-1,1.3-1.4,2.4l5.4,0l0-0.2c0.1-0.9,0-1.6-0.4-2.1
			C-5493.3-2345.3-5493.9-2345.6-5494.6-2345.6z"/>
		<path class="st4" d="M-5487.7-2335.8h-1.8l2.7-15.8h1.9L-5487.7-2335.8z"/>
		<path class="st4" d="M-5477.8-2338.8c0.1-0.8-0.3-1.3-1.3-1.6l-1.9-0.6c-1.6-0.6-2.4-1.5-2.4-2.8c0-1,0.5-1.8,1.3-2.4
			c0.8-0.6,1.8-0.9,3-0.9c1.1,0,2,0.3,2.7,1c0.7,0.6,1,1.5,1,2.5l-1.8,0c0-0.6-0.2-1-0.5-1.4s-0.8-0.5-1.4-0.5
			c-0.6,0-1.2,0.1-1.7,0.5c-0.4,0.3-0.7,0.7-0.7,1.2c-0.1,0.6,0.3,1.1,1.2,1.4l0.9,0.3c1.3,0.3,2.2,0.8,2.7,1.3
			c0.5,0.5,0.8,1.2,0.7,2c0,0.7-0.3,1.3-0.7,1.8c-0.4,0.5-1,0.9-1.6,1.2s-1.4,0.4-2.2,0.4c-1.2,0-2.1-0.4-2.9-1s-1.1-1.5-1.1-2.6
			l1.9,0c0,0.6,0.2,1.1,0.6,1.5c0.4,0.4,0.9,0.6,1.6,0.6c0.7,0,1.3-0.1,1.8-0.4S-5477.8-2338.3-5477.8-2338.8z"/>
		<path class="st4" d="M-5469.2-2335.6c-1.4,0-2.5-0.5-3.2-1.5c-0.8-1-1.1-2.3-1-3.8l0.1-0.4c0.1-1.1,0.4-2.1,1-3
			c0.5-0.9,1.2-1.6,2-2.1c0.8-0.5,1.6-0.7,2.5-0.7c1.1,0,2,0.4,2.7,1.1c0.6,0.7,1,1.7,1.1,3c0,0.4,0,0.9,0,1.3l-0.1,0.9h-7.2
			c-0.1,1,0,1.9,0.5,2.6c0.5,0.7,1.1,1.1,2,1.1c1.1,0,2.1-0.5,3-1.5l1.1,0.9c-0.5,0.7-1.1,1.2-1.8,1.6S-5468.3-2335.6-5469.2-2335.6
			z M-5468.1-2345.6c-0.8,0-1.4,0.2-2,0.8c-0.6,0.5-1,1.3-1.4,2.4l5.4,0l0-0.2c0.1-0.9,0-1.6-0.4-2.1
			C-5466.8-2345.3-5467.3-2345.6-5468.1-2345.6z"/>
		<path class="st4" d="M-5461.9-2338c0.3,0,0.6,0.1,0.8,0.3c0.2,0.2,0.3,0.5,0.3,0.8c0,0.3-0.1,0.6-0.3,0.8s-0.5,0.3-0.8,0.3
			s-0.6-0.1-0.8-0.3c-0.2-0.2-0.3-0.5-0.3-0.8c0-0.3,0.1-0.6,0.3-0.8C-5462.5-2337.9-5462.2-2338-5461.9-2338z M-5460.3-2347
			c0.3,0,0.6,0.1,0.8,0.3c0.2,0.2,0.3,0.5,0.3,0.8c0,0.3-0.1,0.6-0.3,0.8c-0.2,0.2-0.5,0.3-0.8,0.3c-0.3,0-0.6-0.1-0.8-0.3
			c-0.2-0.2-0.3-0.5-0.3-0.8s0.1-0.6,0.3-0.8C-5460.9-2346.9-5460.6-2347-5460.3-2347z"/>
	</g>
	<g class="st2">
		<path class="st4" d="M-5490.5-2316.1c-0.1,1.1-0.4,2.1-0.9,3s-1.1,1.6-1.8,2c-0.7,0.4-1.5,0.7-2.3,0.6c-1.3,0-2.3-0.5-3-1.3
			l-1,5.4h-1.9l2.7-15.4l1.7,0l-0.2,1.2c0.9-1,2-1.5,3.3-1.4c1.1,0,1.9,0.4,2.5,1.2c0.6,0.8,0.9,1.8,0.9,3.1c0,0.4,0,0.9-0.1,1.3
			L-5490.5-2316.1z M-5492.3-2316.3l0.1-0.9c0-1-0.2-1.8-0.6-2.3c-0.4-0.5-0.9-0.8-1.6-0.8c-1.1,0-2,0.5-2.8,1.5l-0.9,5.3
			c0.4,1,1.2,1.5,2.2,1.5c0.9,0,1.7-0.3,2.4-1.1C-5493-2313.8-5492.5-2314.9-5492.3-2316.3z"/>
		<path class="st4" d="M-5482.1-2320l-0.9-0.1c-1.2,0-2.1,0.5-2.8,1.6l-1.4,7.9h-1.9l1.9-11.1l1.8,0l-0.3,1.3c0.8-1,1.7-1.5,2.8-1.5
			c0.2,0,0.5,0.1,0.9,0.2L-5482.1-2320z"/>
		<path class="st4" d="M-5480-2310.6h-1.8l1.9-11.1h1.8L-5480-2310.6z M-5478.5-2325.8c0.3,0,0.6,0.1,0.8,0.3
			c0.2,0.2,0.3,0.5,0.3,0.8c0,0.3-0.1,0.6-0.3,0.8s-0.5,0.3-0.8,0.3c-0.3,0-0.6-0.1-0.8-0.3s-0.3-0.5-0.3-0.8s0.1-0.6,0.3-0.8
			S-5478.8-2325.8-5478.5-2325.8z"/>
		<path class="st4" d="M-5473.3-2321.7l-0.3,1.4c1-1.1,2.1-1.6,3.4-1.6c1,0,1.8,0.4,2.3,1.1s0.7,1.7,0.6,2.9l-1.2,7.3h-1.9l1.2-7.3
			c0-0.3,0-0.6,0-0.9c-0.1-1-0.7-1.4-1.7-1.5c-1.1,0-2.1,0.6-2.9,1.8l-1.4,7.9h-1.9l1.9-11.1L-5473.3-2321.7z"/>
		<path class="st4" d="M-5460.8-2324.4l-0.5,2.7h2l-0.3,1.5h-2l-1.2,6.9c0,0.2,0,0.3,0,0.5c0,0.5,0.3,0.8,0.9,0.8
			c0.2,0,0.5,0,0.9-0.1l-0.1,1.5c-0.4,0.1-0.9,0.2-1.4,0.2c-0.7,0-1.3-0.3-1.7-0.8c-0.4-0.5-0.5-1.2-0.4-2.1l1.1-6.9h-2l0.3-1.5h2
			l0.5-2.7H-5460.8z"/>
	</g>
	<g class="st2">
		<path class="st7" d="M-5450-2324.9l-0.9,3.6l-1.1,0l0.8-5.2l1.4,0.1L-5450-2324.9z M-5447.3-2324.9l-0.9,3.6h-1.1l0.8-5.1l1.4,0.1
			L-5447.3-2324.9z"/>
		<path class="st7" d="M-5442.4-2317.7l3-4h2.3l-4.5,5.6l2.7,5.5h-2l-1.8-4.1l-3.1,4.1h-2.3l4.6-5.7l-2.6-5.4h2L-5442.4-2317.7z"/>
		<path class="st7" d="M-5426.9-2324.4l-0.5,2.7h2l-0.3,1.5h-2l-1.2,6.9c0,0.2,0,0.3,0,0.5c0,0.5,0.3,0.8,0.9,0.8
			c0.2,0,0.5,0,0.9-0.1l-0.1,1.5c-0.4,0.1-0.9,0.2-1.4,0.2c-0.7,0-1.3-0.3-1.7-0.8c-0.4-0.5-0.5-1.2-0.4-2.1l1.1-6.9h-2l0.3-1.5h2
			l0.5-2.7H-5426.9z"/>
		<path class="st7" d="M-5423-2310.6h-1.8l1.9-11.1h1.8L-5423-2310.6z M-5421.5-2325.8c0.3,0,0.6,0.1,0.8,0.3
			c0.2,0.2,0.3,0.5,0.3,0.8c0,0.3-0.1,0.6-0.3,0.8s-0.5,0.3-0.8,0.3c-0.3,0-0.6-0.1-0.8-0.3s-0.3-0.5-0.3-0.8s0.1-0.6,0.3-0.8
			S-5421.8-2325.8-5421.5-2325.8z"/>
		<path class="st7" d="M-5415.2-2310.4c-1.4,0-2.5-0.5-3.2-1.5s-1.1-2.3-1-3.8l0.1-0.4c0.1-1.1,0.4-2.1,1-3c0.5-0.9,1.2-1.6,2-2.1
			c0.8-0.5,1.6-0.7,2.5-0.7c1.1,0,2,0.4,2.7,1.1c0.6,0.7,1,1.7,1.1,3c0,0.4,0,0.9,0,1.3l-0.1,0.9h-7.2c-0.1,1,0,1.9,0.5,2.6
			c0.5,0.7,1.1,1.1,2,1.1c1.1,0,2.1-0.5,3-1.5l1.1,0.9c-0.5,0.7-1.1,1.2-1.8,1.6C-5413.5-2310.6-5414.3-2310.4-5415.2-2310.4z
			 M-5414-2320.4c-0.8,0-1.4,0.2-2,0.8c-0.6,0.5-1,1.3-1.4,2.4l5.4,0l0-0.2c0.1-0.9,0-1.6-0.4-2.1
			C-5412.7-2320.1-5413.3-2320.4-5414-2320.4z"/>
		<path class="st7" d="M-5405.4-2321.7l-0.3,1.4c1-1.1,2.1-1.6,3.4-1.6c1,0,1.8,0.4,2.3,1.1s0.7,1.7,0.6,2.9l-1.2,7.3h-1.9l1.2-7.3
			c0-0.3,0-0.6,0-0.9c-0.1-1-0.7-1.4-1.7-1.5c-1.1,0-2.1,0.6-2.9,1.8l-1.4,7.9h-1.9l1.9-11.1L-5405.4-2321.7z"/>
		<path class="st7" d="M-5393-2310.4c-1.4,0-2.5-0.5-3.2-1.5s-1.1-2.3-1-3.8l0.1-0.4c0.1-1.1,0.4-2.1,1-3c0.5-0.9,1.2-1.6,2-2.1
			c0.8-0.5,1.6-0.7,2.5-0.7c1.1,0,2,0.4,2.7,1.1c0.6,0.7,1,1.7,1.1,3c0,0.4,0,0.9,0,1.3l-0.1,0.9h-7.2c-0.1,1,0,1.9,0.5,2.6
			c0.5,0.7,1.1,1.1,2,1.1c1.1,0,2.1-0.5,3-1.5l1.1,0.9c-0.5,0.7-1.1,1.2-1.8,1.6C-5391.2-2310.6-5392-2310.4-5393-2310.4z
			 M-5391.8-2320.4c-0.8,0-1.4,0.2-2,0.8c-0.6,0.5-1,1.3-1.4,2.4l5.4,0l0-0.2c0.1-0.9,0-1.6-0.4-2.1
			C-5390.5-2320.1-5391.1-2320.4-5391.8-2320.4z"/>
		<path class="st7" d="M-5374.7-2311.7c-0.9,0.9-2,1.3-3.3,1.3c-1.1,0-1.8-0.4-2.4-1.1c-0.5-0.7-0.7-1.7-0.6-3l1.2-7.2h1.9l-1.2,7.2
			c0,0.3,0,0.6,0,0.9c0,0.5,0.2,0.9,0.4,1.2s0.6,0.4,1.1,0.5c1.3,0,2.4-0.5,3.1-1.6l1.4-8.1h1.9l-1.9,11.1h-1.8L-5374.7-2311.7z"/>
		<path class="st7" d="M-5366.7-2321.7l-0.3,1.4c1-1.1,2.1-1.6,3.4-1.6c1,0,1.8,0.4,2.3,1.1s0.7,1.7,0.6,2.9l-1.2,7.3h-1.9l1.2-7.3
			c0-0.3,0-0.6,0-0.9c-0.1-1-0.7-1.4-1.7-1.5c-1.1,0-2.1,0.6-2.9,1.8l-1.4,7.9h-1.9l1.9-11.1L-5366.7-2321.7z"/>
		<path class="st7" d="M-5349.9-2313.2l4-8.5h2l-5.6,11.1h-1.4l-2.2-11.1h1.8L-5349.9-2313.2z"/>
		<path class="st7" d="M-5337.3-2310.6c0-0.2-0.1-0.4-0.1-0.6l0-0.6c-1,0.9-2.1,1.4-3.2,1.4c-1,0-1.8-0.3-2.4-0.9
			c-0.6-0.6-0.9-1.4-0.8-2.3c0.1-1.2,0.6-2.1,1.5-2.8c1-0.7,2.2-1,3.8-1l1.9,0l0.1-0.9c0.1-0.7-0.1-1.2-0.4-1.6
			c-0.3-0.4-0.8-0.6-1.5-0.6c-0.6,0-1.2,0.1-1.7,0.5c-0.5,0.3-0.8,0.8-0.9,1.3l-1.9,0c0.1-0.6,0.3-1.2,0.8-1.7
			c0.4-0.5,1-0.9,1.7-1.2c0.7-0.3,1.4-0.4,2.2-0.4c1.2,0,2.1,0.4,2.7,1.1c0.6,0.7,0.9,1.6,0.8,2.7l-0.9,5.5l-0.1,0.8
			c0,0.4,0,0.7,0.1,1.1l0,0.2H-5337.3z M-5340.2-2312.1c0.6,0,1.2-0.1,1.7-0.4c0.5-0.3,1-0.7,1.4-1.2l0.4-2.3l-1.4,0
			c-1.2,0-2.1,0.2-2.7,0.6s-1,0.9-1.1,1.6c-0.1,0.5,0.1,1,0.4,1.3C-5341.2-2312.3-5340.8-2312.1-5340.2-2312.1z"/>
		<path class="st7" d="M-5330.9-2310.6h-1.8l2.7-15.8h1.9L-5330.9-2310.6z"/>
		<path class="st7" d="M-5321.7-2321.9c0.9,0,1.7,0.3,2.4,0.8c0.7,0.5,1.2,1.2,1.5,2c0.3,0.9,0.4,1.8,0.3,2.8l0,0.2
			c-0.1,1.1-0.5,2.1-1,2.9c-0.5,0.9-1.2,1.6-2,2c-0.8,0.5-1.7,0.7-2.7,0.7c-0.9,0-1.7-0.3-2.4-0.8c-0.7-0.5-1.2-1.2-1.5-2
			s-0.4-1.8-0.3-2.8c0.1-1.1,0.4-2.2,0.9-3.1s1.2-1.6,2-2.1C-5323.6-2321.7-5322.7-2322-5321.7-2321.9z M-5325.5-2316
			c0,0.4,0,0.9,0,1.3c0.1,0.8,0.3,1.5,0.7,1.9c0.4,0.5,1,0.7,1.7,0.7c0.6,0,1.2-0.1,1.7-0.5c0.5-0.3,1-0.8,1.3-1.5s0.6-1.4,0.7-2.2
			c0.1-0.6,0.1-1.2,0-1.6c-0.1-0.8-0.3-1.5-0.7-2c-0.4-0.5-1-0.7-1.7-0.8c-1,0-1.8,0.4-2.4,1.1s-1.1,1.8-1.2,3L-5325.5-2316z"/>
		<path class="st7" d="M-5309.2-2320l-0.9-0.1c-1.2,0-2.1,0.5-2.8,1.6l-1.4,7.9h-1.9l1.9-11.1l1.8,0l-0.3,1.3c0.8-1,1.7-1.5,2.8-1.5
			c0.2,0,0.5,0.1,0.9,0.2L-5309.2-2320z"/>
		<path class="st7" d="M-5303.5-2316.2c0.1-1.1,0.4-2.1,0.9-3.1c0.5-0.9,1.1-1.6,1.8-2s1.5-0.7,2.3-0.6c1.2,0,2.2,0.5,2.8,1.4
			l1.1-5.8h1.9l-2.7,15.8h-1.7l0.2-1.2c-0.9,1-2,1.4-3.2,1.4c-1,0-1.8-0.4-2.5-1.2c-0.6-0.8-0.9-1.8-1-3.1
			C-5303.5-2315.2-5303.5-2315.6-5303.5-2316.2z M-5301.7-2315.1c0,1,0.2,1.7,0.5,2.3s0.9,0.8,1.6,0.8c1.1,0,2-0.5,2.9-1.6l0.9-5.1
			c-0.4-1-1.2-1.5-2.2-1.6c-0.7,0-1.4,0.2-1.9,0.7c-0.6,0.5-1,1.1-1.3,1.9C-5301.5-2316.9-5301.7-2316-5301.7-2315.1z"/>
		<path class="st7" d="M-5290.4-2310.6h-1.8l1.9-11.1h1.8L-5290.4-2310.6z M-5288.9-2325.8c0.3,0,0.6,0.1,0.8,0.3
			c0.2,0.2,0.3,0.5,0.3,0.8c0,0.3-0.1,0.6-0.3,0.8c-0.2,0.2-0.5,0.3-0.8,0.3c-0.3,0-0.6-0.1-0.8-0.3s-0.3-0.5-0.3-0.8
			c0-0.3,0.1-0.6,0.3-0.8C-5289.4-2325.7-5289.2-2325.8-5288.9-2325.8z"/>
		<path class="st7" d="M-5286.5-2310.6l1.7-9.6h-1.7l0.3-1.5h1.7l0.2-1.3c0.2-1.1,0.6-2,1.3-2.6c0.7-0.7,1.6-1,2.7-1
			c0.3,0,0.8,0.1,1.3,0.2l-0.2,1.6c-0.3-0.1-0.7-0.1-1-0.1c-0.6,0-1.2,0.2-1.6,0.6c-0.4,0.4-0.6,0.9-0.7,1.6l-0.2,1.1h2.3l-0.3,1.5
			h-2.3l-1.7,9.6H-5286.5z"/>
		<path class="st7" d="M-5275.6-2310.4c-1.4,0-2.5-0.5-3.2-1.5s-1.1-2.3-1-3.8l0.1-0.4c0.1-1.1,0.4-2.1,1-3s1.2-1.6,2-2.1
			c0.8-0.5,1.6-0.7,2.5-0.7c1.1,0,2,0.4,2.7,1.1c0.6,0.7,1,1.7,1.1,3c0,0.4,0,0.9,0,1.3l-0.1,0.9h-7.2c-0.1,1,0,1.9,0.5,2.6
			s1.1,1.1,2,1.1c1.1,0,2.1-0.5,3-1.5l1.1,0.9c-0.5,0.7-1.1,1.2-1.8,1.6C-5273.9-2310.6-5274.7-2310.4-5275.6-2310.4z
			 M-5274.4-2320.4c-0.8,0-1.4,0.2-2,0.8c-0.6,0.5-1,1.3-1.4,2.4l5.4,0l0-0.2c0.1-0.9,0-1.6-0.4-2.1
			C-5273.2-2320.1-5273.7-2320.4-5274.4-2320.4z"/>
		<path class="st7" d="M-5262.6-2320l-0.9-0.1c-1.2,0-2.1,0.5-2.8,1.6l-1.4,7.9h-1.9l1.9-11.1l1.8,0l-0.3,1.3c0.8-1,1.7-1.5,2.8-1.5
			c0.2,0,0.5,0.1,0.9,0.2L-5262.6-2320z"/>
		<path class="st7" d="M-5257.9-2310.4c-1.4,0-2.5-0.5-3.2-1.5s-1.1-2.3-1-3.8l0.1-0.4c0.1-1.1,0.4-2.1,1-3c0.5-0.9,1.2-1.6,2-2.1
			c0.8-0.5,1.6-0.7,2.5-0.7c1.1,0,2,0.4,2.7,1.1c0.7,0.7,1,1.7,1.1,3c0,0.4,0,0.9,0,1.3l-0.1,0.9h-7.2c-0.1,1,0,1.9,0.5,2.6
			c0.5,0.7,1.1,1.1,2,1.1c1.1,0,2.1-0.5,3-1.5l1.1,0.9c-0.5,0.7-1.1,1.2-1.8,1.6C-5256.2-2310.6-5257-2310.4-5257.9-2310.4z
			 M-5256.8-2320.4c-0.8,0-1.4,0.2-2,0.8c-0.6,0.5-1,1.3-1.4,2.4l5.4,0l0-0.2c0.1-0.9,0-1.6-0.4-2.1
			C-5255.5-2320.1-5256-2320.4-5256.8-2320.4z"/>
		<path class="st7" d="M-5248.2-2321.7l-0.3,1.4c1-1.1,2.1-1.6,3.4-1.6c1,0,1.8,0.4,2.3,1.1s0.7,1.7,0.6,2.9l-1.2,7.3h-1.9l1.2-7.3
			c0-0.3,0-0.6,0-0.9c-0.1-1-0.7-1.4-1.7-1.5c-1.1,0-2.1,0.6-2.9,1.8l-1.4,7.9h-1.9l1.9-11.1L-5248.2-2321.7z"/>
		<path class="st7" d="M-5235.6-2324.4l-0.5,2.7h2l-0.3,1.5h-2l-1.2,6.9c0,0.2,0,0.3,0,0.5c0,0.5,0.3,0.8,0.9,0.8
			c0.2,0,0.5,0,0.9-0.1l-0.1,1.5c-0.4,0.1-0.9,0.2-1.4,0.2c-0.7,0-1.3-0.3-1.7-0.8c-0.4-0.5-0.5-1.2-0.4-2.1l1.1-6.9h-2l0.3-1.5h2
			l0.5-2.7H-5235.6z"/>
		<path class="st7" d="M-5229-2310.4c-1.4,0-2.5-0.5-3.2-1.5s-1.1-2.3-1-3.8l0.1-0.4c0.1-1.1,0.4-2.1,1-3s1.2-1.6,2-2.1
			c0.8-0.5,1.6-0.7,2.5-0.7c1.1,0,2,0.4,2.7,1.1c0.6,0.7,1,1.7,1.1,3c0,0.4,0,0.9,0,1.3l-0.1,0.9h-7.2c-0.1,1,0,1.9,0.5,2.6
			s1.1,1.1,2,1.1c1.1,0,2.1-0.5,3-1.5l1.1,0.9c-0.5,0.7-1.1,1.2-1.8,1.6C-5227.2-2310.6-5228-2310.4-5229-2310.4z M-5227.8-2320.4
			c-0.8,0-1.4,0.2-2,0.8c-0.6,0.5-1,1.3-1.4,2.4l5.4,0l0-0.2c0.1-0.9,0-1.6-0.4-2.1C-5226.5-2320.1-5227.1-2320.4-5227.8-2320.4z"/>
		<path class="st7" d="M-5210.9-2310.6c0-0.2-0.1-0.4-0.1-0.6l0-0.6c-1,0.9-2.1,1.4-3.2,1.4c-1,0-1.8-0.3-2.4-0.9
			c-0.6-0.6-0.9-1.4-0.8-2.3c0.1-1.2,0.6-2.1,1.5-2.8c1-0.7,2.2-1,3.8-1l1.9,0l0.1-0.9c0.1-0.7-0.1-1.2-0.4-1.6
			c-0.3-0.4-0.8-0.6-1.5-0.6c-0.6,0-1.2,0.1-1.7,0.5c-0.5,0.3-0.8,0.8-0.9,1.3l-1.9,0c0.1-0.6,0.3-1.2,0.8-1.7
			c0.4-0.5,1-0.9,1.7-1.2c0.7-0.3,1.4-0.4,2.2-0.4c1.2,0,2.1,0.4,2.7,1.1c0.6,0.7,0.9,1.6,0.8,2.7l-0.9,5.5l-0.1,0.8
			c0,0.4,0,0.7,0.1,1.1l0,0.2H-5210.9z M-5213.8-2312.1c0.6,0,1.2-0.1,1.7-0.4c0.5-0.3,1-0.7,1.4-1.2l0.4-2.3l-1.4,0
			c-1.2,0-2.1,0.2-2.7,0.6s-1,0.9-1.1,1.6c-0.1,0.5,0.1,1,0.4,1.3C-5214.9-2312.3-5214.4-2312.1-5213.8-2312.1z"/>
		<path class="st7" d="M-5196.9-2310.4c-1.3,0-2.2-0.5-2.8-1.3c-0.6-0.9-0.9-2.1-0.9-3.7c0-0.5,0.1-1,0.1-1.5l0.4-2.5
			c0.3-2.1,1-3.7,1.9-4.8s2.1-1.6,3.7-1.5c1.3,0,2.2,0.5,2.8,1.3c0.6,0.8,0.9,2.1,0.9,3.7c0,0.5-0.1,1-0.1,1.5l-0.4,2.4
			c-0.4,2.2-1,3.9-1.9,4.9C-5194.1-2310.9-5195.4-2310.4-5196.9-2310.4z M-5192.7-2319.6c0.1-0.8,0.1-1.5,0.1-1.9
			c0-1.7-0.7-2.6-2-2.7c-1,0-1.7,0.3-2.3,1.1c-0.6,0.7-1,1.9-1.2,3.5l-0.4,3c-0.1,0.8-0.1,1.4-0.1,1.9c0,1.8,0.7,2.7,2,2.8
			c0.9,0,1.7-0.3,2.3-1c0.6-0.7,1-1.8,1.3-3.4L-5192.7-2319.6z"/>
		<path class="st7" d="M-5186.1-2324.9l-0.9,3.6l-1.1,0l0.8-5.2l1.4,0.1L-5186.1-2324.9z M-5183.4-2324.9l-0.9,3.6h-1.1l0.8-5.1
			l1.4,0.1L-5183.4-2324.9z"/>
	</g>
</g>
</svg>
