<?xml version="1.0" encoding="utf-8"?>
<!-- Generator: Adobe Illustrator 26.1.0, SVG Export Plug-In . SVG Version: 6.00 Build 0)  -->
<svg version="1.1" id="Capa_1" xmlns="http://www.w3.org/2000/svg" xmlns:xlink="http://www.w3.org/1999/xlink" x="0px" y="0px"
	 viewBox="0 0 400 345" style="enable-background:new 0 0 400 345;" xml:space="preserve">
<style type="text/css">
	.st0{opacity:0.55;fill:#41B8DF;enable-background:new    ;}
	.st1{fill:#FDA000;}
	.st2{enable-background:new    ;}
	.st3{fill:#0C1D30;}
	.st4{fill:#C82B0D;}
	.st5{fill:#161615;}
	.st6{fill:#6A3181;}
	.st7{fill:#0D4997;}
</style>
<g id="Grupo_140235" transform="translate(5544 1936.784)">
	<path id="Rectángulo_294795" class="st0" d="M-5529-1936.8h370c8.3,0,15,6.7,15,15v315c0,8.3-6.7,15-15,15h-370
		c-8.3,0-15-6.7-15-15v-315C-5544-1930.1-5537.3-1936.8-5529-1936.8z"/>
	<g id="Grupo_135122" transform="translate(-5903.416 -6259.163)">
		<rect id="Rectángulo_36943" x="379.3" y="4341.5" class="st1" width="5" height="39.4"/>
		<g id="Figura_2._Ejemplo_de_operadores_de_asignación_">
			<g class="st2">
				<path class="st3" d="M401.7,4356.8H398v3.8h-1.9v-9.2h6v1.5H398v2.4h3.7V4356.8z"/>
				<path class="st3" d="M403.1,4351.9c0-0.3,0.1-0.5,0.3-0.7c0.2-0.2,0.4-0.3,0.8-0.3c0.3,0,0.6,0.1,0.7,0.3s0.3,0.4,0.3,0.7
					c0,0.3-0.1,0.5-0.3,0.7c-0.2,0.2-0.4,0.3-0.7,0.3s-0.6-0.1-0.7-0.3C403.2,4352.4,403.1,4352.2,403.1,4351.9z M405,4360.5h-1.8
					v-6.9h1.8V4360.5z"/>
				<path class="st3" d="M406.3,4357c0-1.1,0.3-1.9,0.8-2.5c0.5-0.6,1.2-1,2-1c0.8,0,1.3,0.3,1.8,0.8l0.1-0.6h1.7v6.6
					c0,0.6-0.1,1.1-0.4,1.6c-0.3,0.4-0.7,0.8-1.2,1c-0.5,0.2-1.1,0.3-1.7,0.3c-0.5,0-1-0.1-1.5-0.3s-0.8-0.5-1.1-0.8l0.8-1.1
					c0.5,0.5,1,0.8,1.7,0.8c0.5,0,0.9-0.1,1.1-0.4c0.3-0.3,0.4-0.6,0.4-1.1v-0.4c-0.4,0.5-1,0.7-1.7,0.7c-0.8,0-1.5-0.3-2-1
					C406.5,4359,406.3,4358.2,406.3,4357L406.3,4357z M408.1,4357.2c0,0.6,0.1,1.1,0.4,1.5c0.2,0.4,0.6,0.5,1,0.5
					c0.6,0,1-0.2,1.2-0.6v-2.9c-0.2-0.4-0.6-0.6-1.2-0.6c-0.4,0-0.8,0.2-1,0.5C408.2,4355.9,408.1,4356.5,408.1,4357.2z"/>
				<path class="st3" d="M418.1,4359.8c-0.5,0.5-1.1,0.8-1.9,0.8c-0.7,0-1.3-0.2-1.7-0.6c-0.4-0.4-0.6-1-0.6-1.9v-4.5h1.8v4.4
					c0,0.7,0.3,1.1,1,1.1c0.6,0,1-0.2,1.3-0.6v-4.9h1.8v6.9h-1.7L418.1,4359.8z"/>
				<path class="st3" d="M425.1,4355.4c-0.2,0-0.5-0.1-0.7-0.1c-0.7,0-1.1,0.2-1.4,0.7v4.5h-1.8v-6.9h1.7l0.1,0.8
					c0.4-0.6,0.9-0.9,1.5-0.9c0.2,0,0.4,0,0.6,0.1L425.1,4355.4z"/>
				<path class="st3" d="M429.8,4360.5c-0.1-0.2-0.1-0.4-0.2-0.6c-0.4,0.5-1,0.7-1.7,0.7c-0.7,0-1.2-0.2-1.7-0.6
					c-0.4-0.4-0.7-0.9-0.7-1.5c0-0.7,0.3-1.3,0.8-1.7c0.5-0.4,1.3-0.6,2.3-0.6h0.8v-0.4c0-0.3-0.1-0.6-0.2-0.8
					c-0.2-0.2-0.4-0.3-0.8-0.3c-0.3,0-0.6,0.1-0.7,0.2c-0.2,0.1-0.3,0.4-0.3,0.6h-1.8c0-0.4,0.1-0.8,0.4-1.1c0.2-0.3,0.6-0.6,1-0.8
					s1-0.3,1.5-0.3c0.8,0,1.5,0.2,2,0.6c0.5,0.4,0.7,1,0.7,1.8v3c0,0.7,0.1,1.1,0.3,1.5v0.1H429.8z M428.2,4359.3
					c0.3,0,0.5-0.1,0.7-0.2c0.2-0.1,0.4-0.3,0.5-0.5v-1.2h-0.7c-0.9,0-1.4,0.3-1.5,1l0,0.1c0,0.2,0.1,0.4,0.2,0.6
					S428,4359.3,428.2,4359.3z"/>
				<path class="st3" d="M436.2,4356l0.5-4.7h5.2v1.5h-3.7l-0.2,2c0.4-0.2,0.9-0.3,1.4-0.3c0.9,0,1.6,0.3,2.1,0.8s0.7,1.3,0.7,2.3
					c0,0.6-0.1,1.1-0.4,1.6c-0.3,0.5-0.6,0.8-1.1,1.1c-0.5,0.3-1,0.4-1.7,0.4c-0.6,0-1.1-0.1-1.6-0.3s-0.9-0.5-1.1-1
					c-0.3-0.4-0.4-0.9-0.4-1.4h1.8c0,0.4,0.2,0.7,0.4,0.9c0.2,0.2,0.5,0.3,0.9,0.3c0.4,0,0.7-0.1,1-0.4c0.2-0.3,0.3-0.7,0.3-1.3
					c0-0.5-0.1-0.9-0.4-1.2s-0.6-0.4-1.1-0.4c-0.4,0-0.8,0.1-1.1,0.3l-0.2,0.2L436.2,4356z"/>
			</g>
			<g class="st2">
				<path class="st3" d="M443.7,4359.9c0-0.2,0.1-0.4,0.2-0.5s0.3-0.2,0.6-0.2s0.5,0.1,0.6,0.2s0.2,0.3,0.2,0.5
					c0,0.2-0.1,0.4-0.2,0.5s-0.3,0.2-0.6,0.2s-0.5-0.1-0.6-0.2S443.7,4360.1,443.7,4359.9z"/>
				<path class="st3" d="M456.7,4355.9h-4.3v3.5h5v1.1h-6.3v-10h6.3v1.1h-4.9v3.2h4.3V4355.9z"/>
				<path class="st3" d="M460.1,4353.1v8.3c0,1.4-0.6,2.1-1.9,2.1c-0.3,0-0.5,0-0.8-0.1v-1c0.1,0,0.3,0.1,0.6,0.1
					c0.3,0,0.5-0.1,0.6-0.2c0.1-0.2,0.2-0.4,0.2-0.8v-8.3H460.1z M458.7,4351.2c0-0.2,0.1-0.4,0.2-0.5c0.1-0.1,0.3-0.2,0.6-0.2
					c0.2,0,0.4,0.1,0.6,0.2s0.2,0.3,0.2,0.5s-0.1,0.4-0.2,0.5s-0.3,0.2-0.6,0.2s-0.4-0.1-0.6-0.2S458.7,4351.4,458.7,4351.2z"/>
				<path class="st3" d="M465.2,4360.7c-1,0-1.8-0.3-2.4-1c-0.6-0.7-0.9-1.5-0.9-2.6v-0.2c0-0.7,0.1-1.4,0.4-2
					c0.3-0.6,0.7-1,1.2-1.4c0.5-0.3,1-0.5,1.6-0.5c1,0,1.7,0.3,2.2,1s0.8,1.5,0.8,2.7v0.5h-5c0,0.7,0.2,1.3,0.6,1.8
					c0.4,0.4,0.9,0.7,1.6,0.7c0.4,0,0.8-0.1,1.1-0.3s0.6-0.4,0.8-0.7l0.8,0.6C467.4,4360.2,466.5,4360.7,465.2,4360.7z M465.1,4354
					c-0.5,0-0.9,0.2-1.3,0.6c-0.3,0.4-0.6,0.9-0.6,1.6h3.7v-0.1c0-0.6-0.2-1.1-0.5-1.5C466,4354.2,465.6,4354,465.1,4354z"/>
				<path class="st3" d="M470.8,4353.1l0,0.8c0.5-0.6,1.3-1,2.2-1c1,0,1.7,0.4,2.1,1.2c0.2-0.4,0.6-0.6,1-0.9s0.9-0.3,1.4-0.3
					c1.6,0,2.4,0.9,2.5,2.6v5h-1.3v-4.9c0-0.5-0.1-0.9-0.4-1.2c-0.2-0.3-0.6-0.4-1.2-0.4c-0.5,0-0.9,0.1-1.2,0.4
					c-0.3,0.3-0.5,0.7-0.5,1.1v4.9h-1.3v-4.8c0-1.1-0.5-1.6-1.6-1.6c-0.8,0-1.4,0.4-1.7,1.1v5.4h-1.3v-7.4H470.8z"/>
				<path class="st3" d="M488.1,4356.9c0,1.1-0.3,2-0.8,2.7s-1.2,1-2.1,1c-0.9,0-1.6-0.3-2.1-0.9v3.6h-1.3v-10.2h1.2l0.1,0.8
					c0.5-0.6,1.2-1,2.1-1c0.9,0,1.6,0.3,2.1,1s0.8,1.6,0.8,2.8V4356.9z M486.8,4356.8c0-0.8-0.2-1.5-0.5-2s-0.8-0.7-1.5-0.7
					c-0.8,0-1.3,0.3-1.7,1v3.5c0.4,0.7,1,1,1.7,1c0.6,0,1.1-0.2,1.4-0.7C486.6,4358.4,486.8,4357.7,486.8,4356.8z"/>
				<path class="st3" d="M491.1,4360.5h-1.3V4350h1.3V4360.5z"/>
				<path class="st3" d="M492.8,4356.8c0-0.7,0.1-1.4,0.4-2s0.7-1,1.2-1.3s1.1-0.5,1.7-0.5c1,0,1.8,0.3,2.4,1s0.9,1.6,0.9,2.8v0.1
					c0,0.7-0.1,1.4-0.4,1.9c-0.3,0.6-0.7,1-1.2,1.3s-1.1,0.5-1.8,0.5c-1,0-1.8-0.3-2.4-1S492.8,4358,492.8,4356.8L492.8,4356.8z
					 M494,4356.9c0,0.8,0.2,1.5,0.6,2s0.9,0.7,1.5,0.7c0.6,0,1.2-0.3,1.5-0.8c0.4-0.5,0.6-1.2,0.6-2.1c0-0.8-0.2-1.5-0.6-2
					c-0.4-0.5-0.9-0.8-1.5-0.8c-0.6,0-1.1,0.2-1.5,0.7S494,4356,494,4356.9z"/>
				<path class="st3" d="M504.2,4356.8c0-1.1,0.3-2,0.8-2.7c0.5-0.7,1.2-1,2.1-1c0.9,0,1.6,0.3,2.1,0.9v-3.9h1.3v10.5h-1.2l-0.1-0.8
					c-0.5,0.6-1.2,0.9-2.1,0.9c-0.9,0-1.6-0.4-2.1-1.1S504.2,4358,504.2,4356.8L504.2,4356.8z M505.5,4356.9c0,0.8,0.2,1.5,0.5,2
					s0.8,0.7,1.4,0.7c0.8,0,1.4-0.4,1.8-1.1v-3.4c-0.4-0.7-1-1-1.7-1c-0.6,0-1.1,0.2-1.4,0.7S505.5,4356,505.5,4356.9z"/>
				<path class="st3" d="M515.5,4360.7c-1,0-1.8-0.3-2.4-1c-0.6-0.7-0.9-1.5-0.9-2.6v-0.2c0-0.7,0.1-1.4,0.4-2
					c0.3-0.6,0.7-1,1.2-1.4c0.5-0.3,1-0.5,1.6-0.5c1,0,1.7,0.3,2.2,1s0.8,1.5,0.8,2.7v0.5h-5c0,0.7,0.2,1.3,0.6,1.8
					c0.4,0.4,0.9,0.7,1.6,0.7c0.4,0,0.8-0.1,1.1-0.3s0.6-0.4,0.8-0.7l0.8,0.6C517.7,4360.2,516.7,4360.7,515.5,4360.7z M515.4,4354
					c-0.5,0-0.9,0.2-1.3,0.6c-0.3,0.4-0.6,0.9-0.6,1.6h3.7v-0.1c0-0.6-0.2-1.1-0.5-1.5C516.3,4354.2,515.9,4354,515.4,4354z"/>
				<path class="st3" d="M527.9,4359.8c-0.5,0.6-1.2,0.9-2.2,0.9c-0.8,0-1.4-0.2-1.8-0.7c-0.4-0.5-0.6-1.1-0.6-2v-4.8h1.3v4.8
					c0,1.1,0.5,1.7,1.4,1.7c1,0,1.6-0.4,1.9-1.1v-5.4h1.3v7.4h-1.2L527.9,4359.8z"/>
				<path class="st3" d="M532.2,4353.1l0,0.9c0.6-0.7,1.3-1.1,2.2-1.1c1.6,0,2.4,0.9,2.4,2.6v4.9h-1.3v-4.9c0-0.5-0.1-0.9-0.4-1.2
					s-0.6-0.4-1.1-0.4c-0.4,0-0.8,0.1-1.1,0.3s-0.6,0.5-0.7,0.9v5.3H531v-7.4H532.2z"/>
				<path class="st3" d="M543.3,4360.5c-0.1-0.1-0.1-0.4-0.2-0.8c-0.6,0.6-1.3,0.9-2.1,0.9c-0.7,0-1.3-0.2-1.8-0.6
					c-0.5-0.4-0.7-0.9-0.7-1.6c0-0.8,0.3-1.4,0.9-1.8c0.6-0.4,1.4-0.6,2.5-0.6h1.2v-0.6c0-0.4-0.1-0.8-0.4-1.1
					c-0.3-0.3-0.7-0.4-1.2-0.4c-0.5,0-0.8,0.1-1.1,0.3s-0.5,0.5-0.5,0.8h-1.3c0-0.4,0.1-0.7,0.4-1.1c0.3-0.3,0.6-0.6,1.1-0.8
					s0.9-0.3,1.5-0.3c0.9,0,1.5,0.2,2,0.6c0.5,0.4,0.7,1,0.8,1.8v3.4c0,0.7,0.1,1.2,0.3,1.6v0.1H543.3z M541.2,4359.6
					c0.4,0,0.8-0.1,1.1-0.3s0.6-0.5,0.8-0.8v-1.5h-1c-1.5,0-2.3,0.5-2.3,1.4c0,0.4,0.1,0.7,0.4,0.9S540.8,4359.6,541.2,4359.6z"/>
				<path class="st3" d="M552.9,4360.7c-1,0-1.8-0.3-2.4-1c-0.6-0.7-0.9-1.5-0.9-2.6v-0.2c0-0.7,0.1-1.4,0.4-2
					c0.3-0.6,0.7-1,1.2-1.4c0.5-0.3,1-0.5,1.6-0.5c1,0,1.7,0.3,2.2,1s0.8,1.5,0.8,2.7v0.5h-5c0,0.7,0.2,1.3,0.6,1.8
					c0.4,0.4,0.9,0.7,1.6,0.7c0.4,0,0.8-0.1,1.1-0.3s0.6-0.4,0.8-0.7l0.8,0.6C555.1,4360.2,554.2,4360.7,552.9,4360.7z M552.8,4354
					c-0.5,0-0.9,0.2-1.3,0.6c-0.3,0.4-0.6,0.9-0.6,1.6h3.7v-0.1c0-0.6-0.2-1.1-0.5-1.5C553.7,4354.2,553.3,4354,552.8,4354z"/>
				<path class="st3" d="M561.6,4358.6c0-0.3-0.1-0.6-0.4-0.8c-0.3-0.2-0.7-0.4-1.3-0.5s-1.1-0.3-1.5-0.5s-0.7-0.4-0.8-0.7
					s-0.3-0.6-0.3-0.9c0-0.6,0.3-1.1,0.8-1.5s1.2-0.6,2-0.6c0.8,0,1.5,0.2,2,0.6c0.5,0.4,0.8,1,0.8,1.7h-1.3c0-0.3-0.1-0.6-0.4-0.9
					s-0.7-0.4-1.1-0.4c-0.5,0-0.8,0.1-1.1,0.3s-0.4,0.5-0.4,0.8c0,0.3,0.1,0.5,0.4,0.7s0.7,0.3,1.3,0.4s1.1,0.3,1.5,0.5
					c0.4,0.2,0.7,0.4,0.9,0.7c0.2,0.3,0.3,0.6,0.3,1c0,0.7-0.3,1.2-0.8,1.6c-0.5,0.4-1.2,0.6-2.1,0.6c-0.6,0-1.1-0.1-1.6-0.3
					s-0.8-0.5-1.1-0.9c-0.3-0.4-0.4-0.8-0.4-1.2h1.3c0,0.4,0.2,0.8,0.5,1c0.3,0.2,0.7,0.4,1.3,0.4c0.5,0,0.9-0.1,1.2-0.3
					C561.4,4359.2,561.6,4358.9,561.6,4358.6z"/>
				<path class="st3" d="M566.2,4351.3v1.8h1.4v1h-1.4v4.6c0,0.3,0.1,0.5,0.2,0.7s0.3,0.2,0.6,0.2c0.1,0,0.3,0,0.6-0.1v1
					c-0.3,0.1-0.7,0.1-1,0.1c-0.6,0-1-0.2-1.3-0.5s-0.4-0.8-0.4-1.5v-4.6h-1.3v-1h1.3v-1.8H566.2z"/>
				<path class="st3" d="M572.6,4354.3c-0.2,0-0.4,0-0.6,0c-0.8,0-1.4,0.4-1.7,1.1v5.2h-1.3v-7.4h1.2l0,0.9c0.4-0.7,1-1,1.8-1
					c0.2,0,0.4,0,0.6,0.1V4354.3z"/>
				<path class="st3" d="M578.4,4359.8c-0.5,0.6-1.2,0.9-2.2,0.9c-0.8,0-1.4-0.2-1.8-0.7c-0.4-0.5-0.6-1.1-0.6-2v-4.8h1.3v4.8
					c0,1.1,0.5,1.7,1.4,1.7c1,0,1.6-0.4,1.9-1.1v-5.4h1.3v7.4h-1.2L578.4,4359.8z"/>
				<path class="st3" d="M584.5,4359.6c0.5,0,0.8-0.1,1.2-0.4c0.3-0.3,0.5-0.6,0.6-1h1.2c0,0.4-0.2,0.8-0.4,1.2
					c-0.3,0.4-0.6,0.7-1.1,0.9c-0.4,0.2-0.9,0.3-1.4,0.3c-1,0-1.8-0.3-2.4-1c-0.6-0.7-0.9-1.6-0.9-2.8v-0.2c0-0.7,0.1-1.4,0.4-1.9
					c0.3-0.6,0.6-1,1.1-1.3c0.5-0.3,1.1-0.5,1.8-0.5c0.8,0,1.5,0.2,2.1,0.7c0.5,0.5,0.8,1.1,0.9,1.9h-1.2c0-0.5-0.2-0.9-0.5-1.2
					c-0.3-0.3-0.7-0.5-1.2-0.5c-0.6,0-1.1,0.2-1.5,0.7c-0.4,0.5-0.5,1.1-0.5,2v0.2c0,0.9,0.2,1.5,0.5,2
					C583.3,4359.4,583.8,4359.6,584.5,4359.6z"/>
				<path class="st3" d="M590.6,4351.3v1.8h1.4v1h-1.4v4.6c0,0.3,0.1,0.5,0.2,0.7s0.3,0.2,0.6,0.2c0.1,0,0.3,0,0.6-0.1v1
					c-0.3,0.1-0.7,0.1-1,0.1c-0.6,0-1-0.2-1.3-0.5s-0.4-0.8-0.4-1.5v-4.6h-1.3v-1h1.3v-1.8H590.6z"/>
				<path class="st3" d="M598,4359.8c-0.5,0.6-1.2,0.9-2.2,0.9c-0.8,0-1.4-0.2-1.8-0.7c-0.4-0.5-0.6-1.1-0.6-2v-4.8h1.3v4.8
					c0,1.1,0.5,1.7,1.4,1.7c1,0,1.6-0.4,1.9-1.1v-5.4h1.3v7.4H598L598,4359.8z"/>
				<path class="st3" d="M604.7,4354.3c-0.2,0-0.4,0-0.6,0c-0.8,0-1.4,0.4-1.7,1.1v5.2h-1.3v-7.4h1.2l0,0.9c0.4-0.7,1-1,1.8-1
					c0.2,0,0.4,0,0.6,0.1V4354.3z"/>
				<path class="st3" d="M610.2,4360.5c-0.1-0.1-0.1-0.4-0.2-0.8c-0.6,0.6-1.3,0.9-2.1,0.9c-0.7,0-1.3-0.2-1.8-0.6
					c-0.5-0.4-0.7-0.9-0.7-1.6c0-0.8,0.3-1.4,0.9-1.8c0.6-0.4,1.4-0.6,2.5-0.6h1.2v-0.6c0-0.4-0.1-0.8-0.4-1.1
					c-0.3-0.3-0.7-0.4-1.2-0.4c-0.5,0-0.8,0.1-1.1,0.3c-0.3,0.2-0.5,0.5-0.5,0.8h-1.3c0-0.4,0.1-0.7,0.4-1.1
					c0.3-0.3,0.6-0.6,1.1-0.8c0.4-0.2,0.9-0.3,1.5-0.3c0.9,0,1.5,0.2,2,0.6c0.5,0.4,0.7,1,0.8,1.8v3.4c0,0.7,0.1,1.2,0.3,1.6v0.1
					H610.2z M608.1,4359.6c0.4,0,0.8-0.1,1.1-0.3s0.6-0.5,0.8-0.8v-1.5h-1c-1.5,0-2.3,0.5-2.3,1.4c0,0.4,0.1,0.7,0.4,0.9
					C607.3,4359.5,607.6,4359.6,608.1,4359.6z"/>
				<path class="st3" d="M616.4,4356.8c0-1.1,0.3-2,0.8-2.7c0.5-0.7,1.2-1,2.1-1c0.9,0,1.6,0.3,2.1,0.9v-3.9h1.3v10.5h-1.2l-0.1-0.8
					c-0.5,0.6-1.2,0.9-2.1,0.9c-0.9,0-1.6-0.4-2.1-1.1S616.4,4358,616.4,4356.8L616.4,4356.8z M617.6,4356.9c0,0.8,0.2,1.5,0.5,2
					c0.3,0.5,0.8,0.7,1.4,0.7c0.8,0,1.4-0.4,1.8-1.1v-3.4c-0.4-0.7-1-1-1.7-1c-0.6,0-1.1,0.2-1.4,0.7
					C617.8,4355.3,617.6,4356,617.6,4356.9z"/>
				<path class="st3" d="M627.6,4360.7c-1,0-1.8-0.3-2.4-1c-0.6-0.7-0.9-1.5-0.9-2.6v-0.2c0-0.7,0.1-1.4,0.4-2
					c0.3-0.6,0.7-1,1.2-1.4c0.5-0.3,1-0.5,1.6-0.5c1,0,1.7,0.3,2.2,1s0.8,1.5,0.8,2.7v0.5h-5c0,0.7,0.2,1.3,0.6,1.8
					c0.4,0.4,0.9,0.7,1.6,0.7c0.4,0,0.8-0.1,1.1-0.3c0.3-0.2,0.6-0.4,0.8-0.7l0.8,0.6C629.8,4360.2,628.9,4360.7,627.6,4360.7z
					 M627.5,4354c-0.5,0-0.9,0.2-1.3,0.6c-0.3,0.4-0.6,0.9-0.6,1.6h3.7v-0.1c0-0.6-0.2-1.1-0.5-1.5
					C628.4,4354.2,628,4354,627.5,4354z"/>
				<path class="st3" d="M638.4,4359.6c0.5,0,0.8-0.1,1.2-0.4c0.3-0.3,0.5-0.6,0.6-1h1.2c0,0.4-0.2,0.8-0.4,1.2
					c-0.3,0.4-0.6,0.7-1.1,0.9c-0.4,0.2-0.9,0.3-1.4,0.3c-1,0-1.8-0.3-2.4-1c-0.6-0.7-0.9-1.6-0.9-2.8v-0.2c0-0.7,0.1-1.4,0.4-1.9
					c0.3-0.6,0.6-1,1.1-1.3c0.5-0.3,1.1-0.5,1.8-0.5c0.8,0,1.5,0.2,2.1,0.7c0.5,0.5,0.8,1.1,0.9,1.9h-1.2c0-0.5-0.2-0.9-0.5-1.2
					c-0.3-0.3-0.7-0.5-1.2-0.5c-0.6,0-1.1,0.2-1.5,0.7c-0.4,0.5-0.5,1.1-0.5,2v0.2c0,0.9,0.2,1.5,0.5,2
					C637.3,4359.4,637.8,4359.6,638.4,4359.6z"/>
				<path class="st3" d="M642.4,4356.8c0-0.7,0.1-1.4,0.4-2c0.3-0.6,0.7-1,1.2-1.3c0.5-0.3,1.1-0.5,1.7-0.5c1,0,1.8,0.3,2.4,1
					s0.9,1.6,0.9,2.8v0.1c0,0.7-0.1,1.4-0.4,1.9c-0.3,0.6-0.7,1-1.2,1.3s-1.1,0.5-1.8,0.5c-1,0-1.8-0.3-2.4-1
					S642.4,4358,642.4,4356.8L642.4,4356.8z M643.7,4356.9c0,0.8,0.2,1.5,0.6,2c0.4,0.5,0.9,0.7,1.5,0.7c0.6,0,1.2-0.3,1.5-0.8
					c0.4-0.5,0.6-1.2,0.6-2.1c0-0.8-0.2-1.5-0.6-2c-0.4-0.5-0.9-0.8-1.5-0.8c-0.6,0-1.1,0.2-1.5,0.7S643.7,4356,643.7,4356.9z"/>
				<path class="st3" d="M652,4353.1l0,0.9c0.6-0.7,1.3-1.1,2.2-1.1c1.6,0,2.4,0.9,2.4,2.6v4.9h-1.3v-4.9c0-0.5-0.1-0.9-0.4-1.2
					s-0.6-0.4-1.1-0.4c-0.4,0-0.8,0.1-1.1,0.3c-0.3,0.2-0.6,0.5-0.7,0.9v5.3h-1.3v-7.4H652z"/>
				<path class="st3" d="M660.2,4351.3v1.8h1.4v1h-1.4v4.6c0,0.3,0.1,0.5,0.2,0.7s0.3,0.2,0.6,0.2c0.1,0,0.3,0,0.6-0.1v1
					c-0.3,0.1-0.7,0.1-1,0.1c-0.6,0-1-0.2-1.3-0.5s-0.4-0.8-0.4-1.5v-4.6h-1.3v-1h1.3v-1.8H660.2z"/>
				<path class="st3" d="M666.6,4354.3c-0.2,0-0.4,0-0.6,0c-0.8,0-1.4,0.4-1.7,1.1v5.2h-1.3v-7.4h1.2l0,0.9c0.4-0.7,1-1,1.8-1
					c0.2,0,0.4,0,0.6,0.1V4354.3z"/>
				<path class="st3" d="M667.3,4356.8c0-0.7,0.1-1.4,0.4-2c0.3-0.6,0.7-1,1.2-1.3c0.5-0.3,1.1-0.5,1.7-0.5c1,0,1.8,0.3,2.4,1
					s0.9,1.6,0.9,2.8v0.1c0,0.7-0.1,1.4-0.4,1.9c-0.3,0.6-0.7,1-1.2,1.3s-1.1,0.5-1.8,0.5c-1,0-1.8-0.3-2.4-1
					S667.3,4358,667.3,4356.8L667.3,4356.8z M668.6,4356.9c0,0.8,0.2,1.5,0.6,2c0.4,0.5,0.9,0.7,1.5,0.7c0.6,0,1.2-0.3,1.5-0.8
					c0.4-0.5,0.6-1.2,0.6-2.1c0-0.8-0.2-1.5-0.6-2c-0.4-0.5-0.9-0.8-1.5-0.8c-0.6,0-1.1,0.2-1.5,0.7S668.6,4356,668.6,4356.9z"/>
				<path class="st3" d="M677,4360.5h-1.3V4350h1.3V4360.5z"/>
			</g>
			<g class="st2">
				<path class="st3" d="M453.6,4376.4c0.5,0,0.8-0.1,1.2-0.4s0.5-0.6,0.6-1h1.2c0,0.4-0.2,0.8-0.4,1.2s-0.6,0.7-1.1,0.9
					s-0.9,0.3-1.4,0.3c-1,0-1.8-0.3-2.4-1c-0.6-0.7-0.9-1.6-0.9-2.8v-0.2c0-0.7,0.1-1.4,0.4-1.9s0.6-1,1.1-1.3s1.1-0.5,1.8-0.5
					c0.8,0,1.5,0.2,2.1,0.7s0.8,1.1,0.9,1.9h-1.2c0-0.5-0.2-0.9-0.5-1.2c-0.3-0.3-0.7-0.5-1.2-0.5c-0.6,0-1.1,0.2-1.5,0.7
					c-0.4,0.5-0.5,1.1-0.5,2v0.2c0,0.9,0.2,1.5,0.5,2S452.9,4376.4,453.6,4376.4z"/>
				<path class="st3" d="M457.6,4373.6c0-0.7,0.1-1.4,0.4-2s0.7-1,1.2-1.3s1.1-0.5,1.7-0.5c1,0,1.8,0.3,2.4,1s0.9,1.6,0.9,2.8v0.1
					c0,0.7-0.1,1.4-0.4,1.9c-0.3,0.6-0.7,1-1.2,1.3s-1.1,0.5-1.8,0.5c-1,0-1.8-0.3-2.4-1S457.6,4374.8,457.6,4373.6L457.6,4373.6z
					 M458.9,4373.7c0,0.8,0.2,1.5,0.6,2s0.9,0.7,1.5,0.7c0.6,0,1.2-0.3,1.5-0.8c0.4-0.5,0.6-1.2,0.6-2.1c0-0.8-0.2-1.5-0.6-2
					c-0.4-0.5-0.9-0.8-1.5-0.8c-0.6,0-1.1,0.2-1.5,0.7S458.9,4372.8,458.9,4373.7z"/>
				<path class="st3" d="M467.1,4369.9l0,0.9c0.6-0.7,1.3-1.1,2.2-1.1c1.6,0,2.4,0.9,2.4,2.6v4.9h-1.3v-4.9c0-0.5-0.1-0.9-0.4-1.2
					s-0.6-0.4-1.1-0.4c-0.4,0-0.8,0.1-1.1,0.3s-0.6,0.5-0.7,0.9v5.3h-1.3v-7.4H467.1z"/>
				<path class="st3" d="M473.4,4373.6c0-1.1,0.3-2,0.8-2.7c0.5-0.7,1.2-1,2.1-1c0.9,0,1.6,0.3,2.1,0.9v-3.9h1.3v10.5h-1.2l-0.1-0.8
					c-0.5,0.6-1.2,0.9-2.1,0.9c-0.9,0-1.6-0.4-2.1-1.1S473.4,4374.8,473.4,4373.6L473.4,4373.6z M474.6,4373.7c0,0.8,0.2,1.5,0.5,2
					s0.8,0.7,1.4,0.7c0.8,0,1.4-0.4,1.8-1.1v-3.4c-0.4-0.7-1-1-1.7-1c-0.6,0-1.1,0.2-1.4,0.7S474.6,4372.8,474.6,4373.7z"/>
				<path class="st3" d="M481.6,4368c0-0.2,0.1-0.4,0.2-0.5s0.3-0.2,0.6-0.2s0.4,0.1,0.6,0.2s0.2,0.3,0.2,0.5s-0.1,0.4-0.2,0.5
					s-0.3,0.2-0.6,0.2s-0.4-0.1-0.6-0.2S481.6,4368.2,481.6,4368z M482.9,4377.3h-1.3v-7.4h1.3V4377.3z"/>
				<path class="st3" d="M487.9,4376.4c0.5,0,0.8-0.1,1.2-0.4s0.5-0.6,0.6-1h1.2c0,0.4-0.2,0.8-0.4,1.2s-0.6,0.7-1.1,0.9
					s-0.9,0.3-1.4,0.3c-1,0-1.8-0.3-2.4-1c-0.6-0.7-0.9-1.6-0.9-2.8v-0.2c0-0.7,0.1-1.4,0.4-1.9s0.6-1,1.1-1.3s1.1-0.5,1.8-0.5
					c0.8,0,1.5,0.2,2.1,0.7s0.8,1.1,0.9,1.9h-1.2c0-0.5-0.2-0.9-0.5-1.2c-0.3-0.3-0.7-0.5-1.2-0.5c-0.6,0-1.1,0.2-1.5,0.7
					c-0.4,0.5-0.5,1.1-0.5,2v0.2c0,0.9,0.2,1.5,0.5,2S487.3,4376.4,487.9,4376.4z"/>
				<path class="st3" d="M492.3,4368c0-0.2,0.1-0.4,0.2-0.5s0.3-0.2,0.6-0.2s0.4,0.1,0.6,0.2s0.2,0.3,0.2,0.5s-0.1,0.4-0.2,0.5
					s-0.3,0.2-0.6,0.2s-0.4-0.1-0.6-0.2S492.3,4368.2,492.3,4368z M493.7,4377.3h-1.3v-7.4h1.3V4377.3z"/>
				<path class="st3" d="M495.4,4373.6c0-0.7,0.1-1.4,0.4-2s0.7-1,1.2-1.3s1.1-0.5,1.7-0.5c1,0,1.8,0.3,2.4,1s0.9,1.6,0.9,2.8v0.1
					c0,0.7-0.1,1.4-0.4,1.9c-0.3,0.6-0.7,1-1.2,1.3s-1.1,0.5-1.8,0.5c-1,0-1.8-0.3-2.4-1S495.4,4374.8,495.4,4373.6L495.4,4373.6z
					 M496.6,4373.7c0,0.8,0.2,1.5,0.6,2s0.9,0.7,1.5,0.7c0.6,0,1.2-0.3,1.5-0.8c0.4-0.5,0.6-1.2,0.6-2.1c0-0.8-0.2-1.5-0.6-2
					c-0.4-0.5-0.9-0.8-1.5-0.8c-0.6,0-1.1,0.2-1.5,0.7S496.6,4372.8,496.6,4373.7z"/>
				<path class="st3" d="M504.9,4369.9l0,0.9c0.6-0.7,1.3-1.1,2.2-1.1c1.6,0,2.4,0.9,2.4,2.6v4.9h-1.3v-4.9c0-0.5-0.1-0.9-0.4-1.2
					s-0.6-0.4-1.1-0.4c-0.4,0-0.8,0.1-1.1,0.3s-0.6,0.5-0.7,0.9v5.3h-1.3v-7.4H504.9z"/>
				<path class="st3" d="M516,4377.3c-0.1-0.1-0.1-0.4-0.2-0.8c-0.6,0.6-1.3,0.9-2.1,0.9c-0.7,0-1.3-0.2-1.8-0.6
					c-0.5-0.4-0.7-0.9-0.7-1.6c0-0.8,0.3-1.4,0.9-1.8c0.6-0.4,1.4-0.6,2.5-0.6h1.2v-0.6c0-0.4-0.1-0.8-0.4-1.1
					c-0.3-0.3-0.7-0.4-1.2-0.4c-0.5,0-0.8,0.1-1.1,0.3s-0.5,0.5-0.5,0.8h-1.3c0-0.4,0.1-0.7,0.4-1.1c0.3-0.3,0.6-0.6,1.1-0.8
					s0.9-0.3,1.5-0.3c0.9,0,1.5,0.2,2,0.6c0.5,0.4,0.7,1,0.8,1.8v3.4c0,0.7,0.1,1.2,0.3,1.6v0.1H516z M513.9,4376.4
					c0.4,0,0.8-0.1,1.1-0.3s0.6-0.5,0.8-0.8v-1.5h-1c-1.5,0-2.3,0.5-2.3,1.4c0,0.4,0.1,0.7,0.4,0.9S513.5,4376.4,513.9,4376.4z"/>
				<path class="st3" d="M520.4,4377.3h-1.3v-10.5h1.3V4377.3z"/>
			</g>
			<g class="st2">
				<path class="st3" d="M526.5,4377.3h-1.2l1.3-7.4h1.2L526.5,4377.3z M527.5,4367.2c0.2,0,0.4,0.1,0.5,0.2
					c0.1,0.1,0.2,0.3,0.2,0.5c0,0.2-0.1,0.4-0.2,0.5s-0.3,0.2-0.5,0.2s-0.4-0.1-0.5-0.2s-0.2-0.3-0.2-0.5s0.1-0.4,0.2-0.5
					S527.3,4367.2,527.5,4367.2z"/>
				<path class="st3" d="M529.1,4377.3l1.1-6.4h-1.1l0.2-1h1.1l0.1-0.9c0.1-0.7,0.4-1.3,0.9-1.7c0.5-0.4,1.1-0.7,1.8-0.6
					c0.2,0,0.5,0,0.9,0.1l-0.2,1c-0.2,0-0.4-0.1-0.7-0.1c-0.4,0-0.8,0.1-1,0.4s-0.4,0.6-0.5,1.1l-0.1,0.7h1.5l-0.2,1h-1.5l-1.1,6.4
					H529.1z"/>
				<path class="st3" d="M539.9,4373.6h-3.2l0.2-1h3.2L539.9,4373.6z"/>
				<path class="st3" d="M547.2,4377.5c-0.9,0-1.6-0.4-2.2-1s-0.7-1.5-0.7-2.5l0-0.3c0.1-0.7,0.3-1.4,0.7-2s0.8-1.1,1.3-1.4
					c0.5-0.3,1.1-0.5,1.7-0.4c0.8,0,1.4,0.3,1.8,0.8s0.7,1.1,0.7,2c0,0.3,0,0.6,0,0.9l-0.1,0.6h-4.8c-0.1,0.7,0,1.2,0.3,1.7
					s0.8,0.7,1.4,0.7c0.7,0,1.4-0.3,2-1l0.7,0.6c-0.3,0.4-0.7,0.8-1.2,1C548.3,4377.4,547.8,4377.5,547.2,4377.5z M547.9,4370.8
					c-0.5,0-1,0.2-1.3,0.5s-0.7,0.9-0.9,1.6l3.6,0l0-0.1c0.1-0.6,0-1.1-0.3-1.4C548.8,4371,548.4,4370.8,547.9,4370.8z"/>
				<path class="st3" d="M552.6,4377.3h-1.2l1.8-10.5h1.2L552.6,4377.3z"/>
				<path class="st3" d="M555.9,4377.3h-1.2l1.3-7.4h1.2L555.9,4377.3z M556.9,4367.2c0.2,0,0.4,0.1,0.5,0.2
					c0.1,0.1,0.2,0.3,0.2,0.5c0,0.2-0.1,0.4-0.2,0.5s-0.3,0.2-0.5,0.2s-0.4-0.1-0.5-0.2s-0.2-0.3-0.2-0.5s0.1-0.4,0.2-0.5
					S556.7,4367.2,556.9,4367.2z"/>
				<path class="st3" d="M558.5,4377.3l1.1-6.4h-1.1l0.2-1h1.1l0.1-0.9c0.1-0.7,0.4-1.3,0.9-1.7c0.5-0.4,1.1-0.7,1.8-0.6
					c0.2,0,0.5,0,0.9,0.1l-0.2,1c-0.2,0-0.4-0.1-0.7-0.1c-0.4,0-0.8,0.1-1,0.4s-0.4,0.6-0.5,1.1l-0.1,0.7h1.5l-0.2,1h-1.5l-1.1,6.4
					H558.5z"/>
				<path class="st3" d="M569.4,4373.6h-3.2l0.2-1h3.2L569.4,4373.6z"/>
				<path class="st3" d="M576.6,4377.5c-0.9,0-1.6-0.4-2.2-1s-0.7-1.5-0.7-2.5l0-0.3c0.1-0.7,0.3-1.4,0.7-2c0.4-0.6,0.8-1.1,1.3-1.4
					c0.5-0.3,1.1-0.5,1.7-0.4c0.8,0,1.4,0.3,1.8,0.8c0.4,0.5,0.7,1.1,0.7,2c0,0.3,0,0.6,0,0.9l-0.1,0.6H575c-0.1,0.7,0,1.2,0.3,1.7
					c0.3,0.5,0.8,0.7,1.4,0.7c0.7,0,1.4-0.3,2-1l0.7,0.6c-0.3,0.4-0.7,0.8-1.2,1C577.8,4377.4,577.2,4377.5,576.6,4377.5z
					 M577.4,4370.8c-0.5,0-1,0.2-1.3,0.5c-0.4,0.4-0.7,0.9-0.9,1.6l3.6,0l0-0.1c0.1-0.6,0-1.1-0.3-1.4
					C578.2,4371,577.9,4370.8,577.4,4370.8z"/>
				<path class="st3" d="M582,4377.3h-1.2l1.8-10.5h1.2L582,4377.3z"/>
				<path class="st3" d="M588.6,4375.3c0.1-0.5-0.2-0.9-0.8-1.1l-1.3-0.4c-1.1-0.4-1.6-1-1.6-1.9c0-0.7,0.3-1.2,0.9-1.6
					c0.6-0.4,1.2-0.6,2-0.6c0.7,0,1.4,0.2,1.8,0.7c0.5,0.4,0.7,1,0.7,1.7l-1.2,0c0-0.4-0.1-0.7-0.3-0.9c-0.2-0.2-0.6-0.4-1-0.4
					c-0.4,0-0.8,0.1-1.1,0.3c-0.3,0.2-0.5,0.5-0.5,0.8c-0.1,0.4,0.2,0.7,0.8,0.9l0.6,0.2c0.8,0.2,1.4,0.5,1.8,0.9s0.5,0.8,0.5,1.3
					c0,0.5-0.2,0.9-0.5,1.2s-0.6,0.6-1.1,0.8c-0.5,0.2-0.9,0.3-1.5,0.2c-0.8,0-1.4-0.2-1.9-0.7c-0.5-0.4-0.8-1-0.7-1.7l1.2,0
					c0,0.4,0.1,0.7,0.4,1c0.3,0.3,0.6,0.4,1.1,0.4c0.5,0,0.8-0.1,1.2-0.3C588.4,4375.9,588.6,4375.7,588.6,4375.3z"/>
				<path class="st3" d="M594.3,4377.5c-0.9,0-1.6-0.4-2.2-1s-0.7-1.5-0.7-2.5l0-0.3c0.1-0.7,0.3-1.4,0.7-2c0.4-0.6,0.8-1.1,1.3-1.4
					c0.5-0.3,1.1-0.5,1.7-0.4c0.8,0,1.4,0.3,1.8,0.8c0.4,0.5,0.7,1.1,0.7,2c0,0.3,0,0.6,0,0.9l-0.1,0.6h-4.8c-0.1,0.7,0,1.2,0.3,1.7
					c0.3,0.5,0.8,0.7,1.4,0.7c0.7,0,1.4-0.3,2-1l0.7,0.6c-0.3,0.4-0.7,0.8-1.2,1C595.4,4377.4,594.9,4377.5,594.3,4377.5z
					 M595.1,4370.8c-0.5,0-1,0.2-1.3,0.5c-0.4,0.4-0.7,0.9-0.9,1.6l3.6,0l0-0.1c0.1-0.6,0-1.1-0.3-1.4
					C595.9,4371,595.6,4370.8,595.1,4370.8z"/>
			</g>
		</g>
	</g>
	<g class="st2">
		<path class="st4" d="M-5510.6-1805.2h-1.8l1.9-11.1h1.8L-5510.6-1805.2z M-5509.1-1820.4c0.3,0,0.6,0.1,0.8,0.3
			c0.2,0.2,0.3,0.5,0.3,0.8c0,0.3-0.1,0.6-0.3,0.8s-0.5,0.3-0.8,0.3c-0.3,0-0.6-0.1-0.8-0.3s-0.3-0.5-0.3-0.8s0.1-0.6,0.3-0.8
			S-5509.4-1820.4-5509.1-1820.4z"/>
		<path class="st4" d="M-5506.7-1805.2l1.7-9.6h-1.7l0.3-1.5h1.7l0.2-1.3c0.2-1.1,0.6-2,1.3-2.6c0.7-0.7,1.6-1,2.7-1
			c0.3,0,0.8,0.1,1.3,0.2l-0.2,1.6c-0.3-0.1-0.7-0.1-1-0.1c-0.6,0-1.2,0.2-1.6,0.6c-0.4,0.4-0.6,0.9-0.7,1.6l-0.2,1.1h2.3l-0.3,1.5
			h-2.3l-1.7,9.6H-5506.7z"/>
	</g>
	<g class="st2">
		<path class="st5" d="M-5494.2-1811.3c0.2-1.6,0.6-3.1,1.3-4.6c0.6-1.5,1.4-2.8,2.3-3.8c0.9-1.1,1.9-1.9,3-2.4l0.3,1.3
			c-1.1,0.8-2,1.8-2.8,3.1c-0.8,1.3-1.4,2.8-1.8,4.6c-0.4,1.8-0.6,3.5-0.6,5.2c0,1.4,0.2,2.7,0.5,3.7c0.4,1.1,0.9,1.9,1.6,2.5
			l-0.5,1.1c-1.1-0.8-2-2-2.6-3.5c-0.6-1.6-0.9-3.3-0.8-5.3c0-0.7,0.1-1.3,0.1-1.9L-5494.2-1811.3z"/>
		<path class="st5" d="M-5483.4-1812.3l3-4h2.3l-4.5,5.6l2.7,5.5h-2l-1.8-4.1l-3.1,4.1h-2.3l4.6-5.7l-2.6-5.4h2L-5483.4-1812.3z"/>
		<path class="st5" d="M-5468.9-1809.3h-8.3l0.3-1.6h8.3L-5468.9-1809.3z M-5468.1-1813.6h-8.3l0.3-1.7h8.3L-5468.1-1813.6z"/>
		<path class="st5" d="M-5457.6-1809.3h-8.3l0.3-1.6h8.3L-5457.6-1809.3z M-5456.9-1813.6h-8.3l0.3-1.7h8.3L-5456.9-1813.6z"/>
	</g>
	<g class="st2">
		<path class="st6" d="M-5450.9-1805c-1.3,0-2.2-0.5-2.8-1.3c-0.6-0.9-0.9-2.1-0.9-3.7c0-0.5,0.1-1,0.1-1.5l0.4-2.5
			c0.3-2.1,1-3.7,1.9-4.8s2.1-1.6,3.7-1.5c1.3,0,2.2,0.5,2.8,1.3c0.6,0.8,0.9,2.1,0.9,3.7c0,0.5-0.1,1-0.1,1.5l-0.4,2.4
			c-0.4,2.2-1,3.9-1.9,4.9C-5448.2-1805.5-5449.4-1805-5450.9-1805z M-5446.8-1814.2c0.1-0.8,0.1-1.5,0.1-1.9c0-1.7-0.7-2.6-2-2.7
			c-1,0-1.7,0.3-2.3,1.1c-0.6,0.7-1,1.9-1.2,3.5l-0.4,3c-0.1,0.8-0.1,1.4-0.1,1.9c0,1.8,0.7,2.7,2,2.8c0.9,0,1.7-0.3,2.3-1
			c0.6-0.7,1-1.8,1.3-3.4L-5446.8-1814.2z"/>
	</g>
	<g class="st2">
		<path class="st5" d="M-5438.6-1811.2c-0.2,1.7-0.7,3.2-1.3,4.7c-0.6,1.5-1.4,2.7-2.3,3.8c-0.9,1-1.9,1.8-2.9,2.3l-0.3-1.2
			c2.3-1.8,3.9-4.6,4.7-8.5c0.3-1.6,0.5-3.1,0.5-4.5c0-2.9-0.7-5-2.1-6.3l0.5-1.1c0.8,0.5,1.4,1.2,1.9,2.1c0.5,0.9,0.9,1.9,1.2,3.1
			c0.2,1.2,0.4,2.4,0.3,3.6c0,0.7-0.1,1.3-0.2,1.9L-5438.6-1811.2z"/>
		<path class="st5" d="M-5435.5-1807.4c0.3,0,0.6,0.1,0.8,0.3s0.3,0.5,0.3,0.8s-0.1,0.6-0.3,0.8c-0.2,0.2-0.5,0.3-0.8,0.3
			s-0.6-0.1-0.8-0.3c-0.2-0.2-0.3-0.5-0.3-0.8s0.1-0.6,0.3-0.8C-5436.1-1807.3-5435.8-1807.4-5435.5-1807.4z M-5433.9-1816.4
			c0.3,0,0.6,0.1,0.8,0.3c0.2,0.2,0.3,0.5,0.3,0.8c0,0.3-0.1,0.6-0.3,0.8c-0.2,0.2-0.5,0.3-0.8,0.3c-0.3,0-0.6-0.1-0.8-0.3
			c-0.2-0.2-0.3-0.5-0.3-0.8s0.1-0.6,0.3-0.8C-5434.5-1816.3-5434.2-1816.4-5433.9-1816.4z"/>
	</g>
	<g class="st2">
		<path class="st4" d="M-5502.6-1785.5c-0.1,1.1-0.4,2.1-0.9,3s-1.1,1.6-1.8,2c-0.7,0.4-1.5,0.7-2.3,0.6c-1.3,0-2.3-0.5-3-1.3
			l-1,5.4h-1.9l2.7-15.4l1.7,0l-0.2,1.2c0.9-1,2-1.5,3.3-1.4c1.1,0,1.9,0.4,2.5,1.2c0.6,0.8,0.9,1.8,0.9,3.1c0,0.4,0,0.9-0.1,1.3
			L-5502.6-1785.5z M-5504.4-1785.7l0.1-0.9c0-1-0.2-1.8-0.6-2.3c-0.4-0.5-0.9-0.8-1.6-0.8c-1.1,0-2,0.5-2.8,1.5l-0.9,5.3
			c0.4,1,1.2,1.5,2.2,1.5c0.9,0,1.7-0.3,2.4-1.1C-5505.1-1783.2-5504.6-1784.3-5504.4-1785.7z"/>
		<path class="st4" d="M-5494.2-1789.4l-0.9-0.1c-1.2,0-2.1,0.5-2.8,1.6l-1.4,7.9h-1.9l1.9-11.1l1.8,0l-0.3,1.3
			c0.8-1,1.7-1.5,2.8-1.5c0.2,0,0.5,0.1,0.9,0.2L-5494.2-1789.4z"/>
		<path class="st4" d="M-5492.1-1780h-1.8l1.9-11.1h1.8L-5492.1-1780z M-5490.6-1795.2c0.3,0,0.6,0.1,0.8,0.3
			c0.2,0.2,0.3,0.5,0.3,0.8c0,0.3-0.1,0.6-0.3,0.8s-0.5,0.3-0.8,0.3c-0.3,0-0.6-0.1-0.8-0.3s-0.3-0.5-0.3-0.8s0.1-0.6,0.3-0.8
			S-5490.9-1795.2-5490.6-1795.2z"/>
		<path class="st4" d="M-5485.4-1791.1l-0.3,1.4c1-1.1,2.1-1.6,3.4-1.6c1,0,1.8,0.4,2.3,1.1s0.7,1.7,0.6,2.9l-1.2,7.3h-1.9l1.2-7.3
			c0-0.3,0-0.6,0-0.9c-0.1-1-0.7-1.4-1.7-1.5c-1.1,0-2.1,0.6-2.9,1.8l-1.4,7.9h-1.9l1.9-11.1L-5485.4-1791.1z"/>
		<path class="st4" d="M-5472.8-1793.8l-0.5,2.7h2l-0.3,1.5h-2l-1.2,6.9c0,0.2,0,0.3,0,0.5c0,0.5,0.3,0.8,0.9,0.8
			c0.2,0,0.5,0,0.9-0.1l-0.1,1.5c-0.4,0.1-0.9,0.2-1.4,0.2c-0.7,0-1.3-0.3-1.7-0.8c-0.4-0.5-0.5-1.2-0.4-2.1l1.1-6.9h-2l0.3-1.5h2
			l0.5-2.7H-5472.8z"/>
	</g>
	<g class="st2">
		<path class="st7" d="M-5462.1-1794.3l-0.9,3.6l-1.1,0l0.8-5.2l1.4,0.1L-5462.1-1794.3z M-5459.4-1794.3l-0.9,3.6h-1.1l0.8-5.1
			l1.4,0.1L-5459.4-1794.3z"/>
		<path class="st7" d="M-5454.4-1787.1l3-4h2.3l-4.5,5.6l2.7,5.5h-2l-1.8-4.1l-3.1,4.1h-2.3l4.6-5.7l-2.6-5.4h2L-5454.4-1787.1z"/>
		<path class="st7" d="M-5439-1793.8l-0.5,2.7h2l-0.3,1.5h-2l-1.2,6.9c0,0.2,0,0.3,0,0.5c0,0.5,0.3,0.8,0.9,0.8c0.2,0,0.5,0,0.9-0.1
			l-0.1,1.5c-0.4,0.1-0.9,0.2-1.4,0.2c-0.7,0-1.3-0.3-1.7-0.8c-0.4-0.5-0.5-1.2-0.4-2.1l1.1-6.9h-2l0.3-1.5h2l0.5-2.7H-5439z"/>
		<path class="st7" d="M-5435.1-1780h-1.8l1.9-11.1h1.8L-5435.1-1780z M-5433.6-1795.2c0.3,0,0.6,0.1,0.8,0.3
			c0.2,0.2,0.3,0.5,0.3,0.8c0,0.3-0.1,0.6-0.3,0.8s-0.5,0.3-0.8,0.3c-0.3,0-0.6-0.1-0.8-0.3s-0.3-0.5-0.3-0.8s0.1-0.6,0.3-0.8
			S-5433.9-1795.2-5433.6-1795.2z"/>
		<path class="st7" d="M-5427.3-1779.8c-1.4,0-2.5-0.5-3.2-1.5s-1.1-2.3-1-3.8l0.1-0.4c0.1-1.1,0.4-2.1,1-3c0.5-0.9,1.2-1.6,2-2.1
			c0.8-0.5,1.6-0.7,2.5-0.7c1.1,0,2,0.4,2.7,1.1c0.6,0.7,1,1.7,1.1,3c0,0.4,0,0.9,0,1.3l-0.1,0.9h-7.2c-0.1,1,0,1.9,0.5,2.6
			c0.5,0.7,1.1,1.1,2,1.1c1.1,0,2.1-0.5,3-1.5l1.1,0.9c-0.5,0.7-1.1,1.2-1.8,1.6C-5425.5-1780-5426.4-1779.8-5427.3-1779.8z
			 M-5426.1-1789.8c-0.8,0-1.4,0.2-2,0.8c-0.6,0.5-1,1.3-1.4,2.4l5.4,0l0-0.2c0.1-0.9,0-1.6-0.4-2.1
			C-5424.8-1789.5-5425.4-1789.8-5426.1-1789.8z"/>
		<path class="st7" d="M-5417.5-1791.1l-0.3,1.4c1-1.1,2.1-1.6,3.4-1.6c1,0,1.8,0.4,2.3,1.1s0.7,1.7,0.6,2.9l-1.2,7.3h-1.9l1.2-7.3
			c0-0.3,0-0.6,0-0.9c-0.1-1-0.7-1.4-1.7-1.5c-1.1,0-2.1,0.6-2.9,1.8l-1.4,7.9h-1.9l1.9-11.1L-5417.5-1791.1z"/>
		<path class="st7" d="M-5405-1779.8c-1.4,0-2.5-0.5-3.2-1.5s-1.1-2.3-1-3.8l0.1-0.4c0.1-1.1,0.4-2.1,1-3c0.5-0.9,1.2-1.6,2-2.1
			c0.8-0.5,1.6-0.7,2.5-0.7c1.1,0,2,0.4,2.7,1.1c0.6,0.7,1,1.7,1.1,3c0,0.4,0,0.9,0,1.3l-0.1,0.9h-7.2c-0.1,1,0,1.9,0.5,2.6
			c0.5,0.7,1.1,1.1,2,1.1c1.1,0,2.1-0.5,3-1.5l1.1,0.9c-0.5,0.7-1.1,1.2-1.8,1.6C-5403.3-1780-5404.1-1779.8-5405-1779.8z
			 M-5403.9-1789.8c-0.8,0-1.4,0.2-2,0.8c-0.6,0.5-1,1.3-1.4,2.4l5.4,0l0-0.2c0.1-0.9,0-1.6-0.4-2.1
			C-5402.6-1789.5-5403.1-1789.8-5403.9-1789.8z"/>
		<path class="st7" d="M-5386.7-1781.1c-0.9,0.9-2,1.3-3.3,1.3c-1.1,0-1.8-0.4-2.4-1.1c-0.5-0.7-0.7-1.7-0.6-3l1.2-7.2h1.9l-1.2,7.2
			c0,0.3,0,0.6,0,0.9c0,0.5,0.2,0.9,0.4,1.2s0.6,0.4,1.1,0.5c1.3,0,2.4-0.5,3.1-1.6l1.4-8.1h1.9l-1.9,11.1h-1.8L-5386.7-1781.1z"/>
		<path class="st7" d="M-5378.8-1791.1l-0.3,1.4c1-1.1,2.1-1.6,3.4-1.6c1,0,1.8,0.4,2.3,1.1s0.7,1.7,0.6,2.9l-1.2,7.3h-1.9l1.2-7.3
			c0-0.3,0-0.6,0-0.9c-0.1-1-0.7-1.4-1.7-1.5c-1.1,0-2.1,0.6-2.9,1.8l-1.4,7.9h-1.9l1.9-11.1L-5378.8-1791.1z"/>
		<path class="st7" d="M-5361.9-1782.6l4-8.5h2l-5.6,11.1h-1.4l-2.2-11.1h1.8L-5361.9-1782.6z"/>
		<path class="st7" d="M-5349.4-1780c0-0.2-0.1-0.4-0.1-0.6l0-0.6c-1,0.9-2.1,1.4-3.2,1.4c-1,0-1.8-0.3-2.4-0.9
			c-0.6-0.6-0.9-1.4-0.8-2.3c0.1-1.2,0.6-2.1,1.5-2.8c1-0.7,2.2-1,3.8-1l1.9,0l0.1-0.9c0.1-0.7-0.1-1.2-0.4-1.6
			c-0.3-0.4-0.8-0.6-1.5-0.6c-0.6,0-1.2,0.1-1.7,0.5c-0.5,0.3-0.8,0.8-0.9,1.3l-1.9,0c0.1-0.6,0.3-1.2,0.8-1.7
			c0.4-0.5,1-0.9,1.7-1.2c0.7-0.3,1.4-0.4,2.2-0.4c1.2,0,2.1,0.4,2.7,1.1c0.6,0.7,0.9,1.6,0.8,2.7l-0.9,5.5l-0.1,0.8
			c0,0.4,0,0.7,0.1,1.1l0,0.2H-5349.4z M-5352.3-1781.5c0.6,0,1.2-0.1,1.7-0.4c0.5-0.3,1-0.7,1.4-1.2l0.4-2.3l-1.4,0
			c-1.2,0-2.1,0.2-2.7,0.6s-1,0.9-1.1,1.6c-0.1,0.5,0.1,1,0.4,1.3C-5353.3-1781.7-5352.9-1781.5-5352.3-1781.5z"/>
		<path class="st7" d="M-5343-1780h-1.8l2.7-15.8h1.9L-5343-1780z"/>
		<path class="st7" d="M-5333.8-1791.3c0.9,0,1.7,0.3,2.4,0.8c0.7,0.5,1.2,1.2,1.5,2c0.3,0.9,0.4,1.8,0.3,2.8l0,0.2
			c-0.1,1.1-0.5,2.1-1,2.9c-0.5,0.9-1.2,1.6-2,2c-0.8,0.5-1.7,0.7-2.7,0.7c-0.9,0-1.7-0.3-2.4-0.8c-0.7-0.5-1.2-1.2-1.5-2
			s-0.4-1.8-0.3-2.8c0.1-1.1,0.4-2.2,0.9-3.1s1.2-1.6,2-2.1C-5335.7-1791.1-5334.8-1791.4-5333.8-1791.3z M-5337.5-1785.4
			c0,0.4,0,0.9,0,1.3c0.1,0.8,0.3,1.5,0.7,1.9c0.4,0.5,1,0.7,1.7,0.7c0.6,0,1.2-0.1,1.7-0.5c0.5-0.3,1-0.8,1.3-1.5s0.6-1.4,0.7-2.2
			c0.1-0.6,0.1-1.2,0-1.6c-0.1-0.8-0.3-1.5-0.7-2c-0.4-0.5-1-0.7-1.7-0.8c-1,0-1.8,0.4-2.4,1.1s-1.1,1.8-1.2,3L-5337.5-1785.4z"/>
		<path class="st7" d="M-5321.3-1789.4l-0.9-0.1c-1.2,0-2.1,0.5-2.8,1.6l-1.4,7.9h-1.9l1.9-11.1l1.8,0l-0.3,1.3
			c0.8-1,1.7-1.5,2.8-1.5c0.2,0,0.5,0.1,0.9,0.2L-5321.3-1789.4z"/>
		<path class="st7" d="M-5315.5-1785.6c0.1-1.1,0.4-2.1,0.9-3.1c0.5-0.9,1.1-1.6,1.8-2s1.5-0.7,2.3-0.6c1.2,0,2.2,0.5,2.9,1.4
			l1.1-5.8h1.9l-2.7,15.8h-1.7l0.2-1.2c-0.9,1-2,1.4-3.2,1.4c-1,0-1.8-0.4-2.5-1.2c-0.6-0.8-0.9-1.8-1-3.1
			C-5315.6-1784.6-5315.6-1785-5315.5-1785.6z M-5313.8-1784.5c0,1,0.2,1.7,0.5,2.3s0.9,0.8,1.6,0.8c1.1,0,2-0.5,2.9-1.6l0.9-5.1
			c-0.4-1-1.2-1.5-2.2-1.6c-0.7,0-1.4,0.2-1.9,0.7c-0.6,0.5-1,1.1-1.3,1.9C-5313.6-1786.3-5313.7-1785.4-5313.8-1784.5z"/>
		<path class="st7" d="M-5299.7-1779.8c-1.4,0-2.5-0.5-3.2-1.5s-1.1-2.3-1-3.8l0.1-0.4c0.1-1.1,0.4-2.1,1-3c0.5-0.9,1.2-1.6,2-2.1
			c0.8-0.5,1.6-0.7,2.5-0.7c1.1,0,2,0.4,2.7,1.1c0.6,0.7,1,1.7,1.1,3c0,0.4,0,0.9,0,1.3l-0.1,0.9h-7.2c-0.1,1,0,1.9,0.5,2.6
			c0.5,0.7,1.1,1.1,2,1.1c1.1,0,2.1-0.5,3-1.5l1.1,0.9c-0.5,0.7-1.1,1.2-1.8,1.6C-5298-1780-5298.8-1779.8-5299.7-1779.8z
			 M-5298.5-1789.8c-0.8,0-1.4,0.2-2,0.8c-0.6,0.5-1,1.3-1.4,2.4l5.4,0l0-0.2c0.1-0.9,0-1.6-0.4-2.1
			C-5297.2-1789.5-5297.8-1789.8-5298.5-1789.8z"/>
		<path class="st7" d="M-5283.9-1779.8c-1.3,0-2.2-0.5-2.8-1.3c-0.6-0.9-0.9-2.1-0.9-3.7c0-0.5,0.1-1,0.1-1.5l0.4-2.5
			c0.3-2.1,1-3.7,1.9-4.8c0.9-1,2.1-1.6,3.7-1.5c1.3,0,2.2,0.5,2.8,1.3c0.6,0.8,0.9,2.1,0.9,3.7c0,0.5-0.1,1-0.1,1.5l-0.4,2.4
			c-0.4,2.2-1,3.9-1.9,4.9C-5281.2-1780.3-5282.4-1779.8-5283.9-1779.8z M-5279.8-1789c0.1-0.8,0.1-1.5,0.1-1.9c0-1.7-0.7-2.6-2-2.7
			c-1,0-1.7,0.3-2.3,1.1c-0.6,0.7-1,1.9-1.2,3.5l-0.4,3c-0.1,0.8-0.1,1.4-0.1,1.9c0,1.8,0.7,2.7,2,2.8c0.9,0,1.7-0.3,2.2-1
			s1-1.8,1.3-3.4L-5279.8-1789z"/>
		<path class="st7" d="M-5273.2-1794.3l-0.9,3.6l-1.1,0l0.8-5.2l1.4,0.1L-5273.2-1794.3z M-5270.5-1794.3l-0.9,3.6h-1.1l0.8-5.1
			l1.4,0.1L-5270.5-1794.3z"/>
	</g>
	<g class="st2">
		<path class="st4" d="M-5507.8-1754.6c-1.4,0-2.5-0.5-3.2-1.5c-0.8-1-1.1-2.3-1-3.8l0.1-0.4c0.1-1.1,0.4-2.1,1-3
			c0.5-0.9,1.2-1.6,2-2.1c0.8-0.5,1.6-0.7,2.5-0.7c1.1,0,2,0.4,2.7,1.1c0.6,0.7,1,1.7,1.1,3c0,0.4,0,0.9,0,1.3l-0.1,0.9h-7.2
			c-0.1,1,0,1.9,0.5,2.6c0.5,0.7,1.1,1.1,2,1.1c1.1,0,2.1-0.5,3-1.5l1.1,0.9c-0.5,0.7-1.1,1.2-1.8,1.6S-5506.9-1754.6-5507.8-1754.6
			z M-5506.7-1764.6c-0.8,0-1.4,0.2-2,0.8c-0.6,0.5-1,1.3-1.4,2.4l5.4,0l0-0.2c0.1-0.9,0-1.6-0.4-2.1
			C-5505.4-1764.3-5505.9-1764.6-5506.7-1764.6z"/>
		<path class="st4" d="M-5499.7-1754.8h-1.8l2.7-15.8h1.9L-5499.7-1754.8z"/>
		<path class="st4" d="M-5494.7-1754.8h-1.8l1.9-11.1h1.8L-5494.7-1754.8z M-5493.2-1770c0.3,0,0.6,0.1,0.8,0.3
			c0.2,0.2,0.3,0.5,0.3,0.8c0,0.3-0.1,0.6-0.3,0.8s-0.5,0.3-0.8,0.3c-0.3,0-0.6-0.1-0.8-0.3s-0.3-0.5-0.3-0.8s0.1-0.6,0.3-0.8
			S-5493.5-1770-5493.2-1770z"/>
		<path class="st4" d="M-5490.8-1754.8l1.7-9.6h-1.7l0.3-1.5h1.7l0.2-1.3c0.2-1.1,0.6-2,1.3-2.6c0.7-0.7,1.6-1,2.7-1
			c0.3,0,0.8,0.1,1.3,0.2l-0.2,1.6c-0.3-0.1-0.7-0.1-1-0.1c-0.6,0-1.2,0.2-1.6,0.6c-0.4,0.4-0.6,0.9-0.7,1.6l-0.2,1.1h2.3l-0.3,1.5
			h-2.3l-1.7,9.6H-5490.8z"/>
	</g>
	<g class="st2">
		<path class="st5" d="M-5478.3-1760.9c0.2-1.6,0.6-3.1,1.3-4.6c0.6-1.5,1.4-2.8,2.3-3.8c0.9-1.1,1.9-1.9,3-2.4l0.3,1.3
			c-1.1,0.8-2,1.8-2.8,3.1c-0.8,1.3-1.4,2.8-1.8,4.6c-0.4,1.8-0.6,3.5-0.6,5.2c0,1.4,0.2,2.7,0.5,3.7c0.4,1.1,0.9,1.9,1.6,2.5
			l-0.5,1.1c-1.1-0.8-2-2-2.6-3.5c-0.6-1.6-0.9-3.3-0.8-5.3c0-0.7,0.1-1.3,0.1-1.9L-5478.3-1760.9z"/>
		<path class="st5" d="M-5467.5-1761.9l3-4h2.3l-4.5,5.6l2.7,5.5h-2l-1.8-4.1l-3.1,4.1h-2.3l4.6-5.7l-2.6-5.4h2L-5467.5-1761.9z"/>
		<path class="st5" d="M-5459.7-1761.4l5.8,2.6l-0.3,1.9l-7.5-3.9l0.3-1.5l8.8-3.9l-0.4,2.1L-5459.7-1761.4z"/>
		<path class="st5" d="M-5442.5-1758.9h-8.3l0.3-1.6h8.3L-5442.5-1758.9z M-5441.7-1763.2h-8.3l0.3-1.7h8.3L-5441.7-1763.2z"/>
	</g>
	<g class="st2">
		<path class="st6" d="M-5434.5-1754.8h-1.9l2.2-12.6l-4,1.4l0.3-1.8l5.5-2h0.3L-5434.5-1754.8z"/>
		<path class="st6" d="M-5424.3-1754.6c-1.3,0-2.2-0.5-2.8-1.3c-0.6-0.9-0.9-2.1-0.9-3.7c0-0.5,0.1-1,0.1-1.5l0.4-2.5
			c0.3-2.1,1-3.7,1.9-4.8s2.1-1.6,3.7-1.5c1.3,0,2.2,0.5,2.8,1.3c0.6,0.8,0.9,2.1,0.9,3.7c0,0.5-0.1,1-0.1,1.5l-0.4,2.4
			c-0.4,2.2-1,3.9-1.9,4.9S-5422.8-1754.6-5424.3-1754.6z M-5420.2-1763.8c0.1-0.8,0.1-1.5,0.1-1.9c0-1.7-0.7-2.6-2-2.7
			c-1,0-1.7,0.3-2.3,1.1c-0.6,0.7-1,1.9-1.2,3.5l-0.4,3c-0.1,0.8-0.1,1.4-0.1,1.9c0,1.8,0.7,2.7,2,2.8c0.9,0,1.7-0.3,2.3-1
			c0.6-0.7,1-1.8,1.3-3.4L-5420.2-1763.8z"/>
	</g>
	<g class="st2">
		<path class="st5" d="M-5412-1760.8c-0.2,1.7-0.7,3.2-1.3,4.7c-0.6,1.5-1.4,2.7-2.3,3.8c-0.9,1-1.9,1.8-2.9,2.3l-0.3-1.2
			c2.3-1.8,3.9-4.6,4.7-8.5c0.3-1.6,0.5-3.1,0.5-4.5c0-2.9-0.7-5-2.1-6.3l0.5-1.1c0.8,0.5,1.4,1.2,1.9,2.1c0.5,0.9,0.9,1.9,1.2,3.1
			c0.2,1.2,0.4,2.4,0.3,3.6c0,0.7-0.1,1.3-0.2,1.9L-5412-1760.8z"/>
		<path class="st5" d="M-5408.8-1757c0.3,0,0.6,0.1,0.8,0.3c0.2,0.2,0.3,0.5,0.3,0.8c0,0.3-0.1,0.6-0.3,0.8s-0.5,0.3-0.8,0.3
			s-0.6-0.1-0.8-0.3c-0.2-0.2-0.3-0.5-0.3-0.8c0-0.3,0.1-0.6,0.3-0.8C-5409.4-1756.9-5409.1-1757-5408.8-1757z M-5407.2-1766
			c0.3,0,0.6,0.1,0.8,0.3c0.2,0.2,0.3,0.5,0.3,0.8c0,0.3-0.1,0.6-0.3,0.8c-0.2,0.2-0.5,0.3-0.8,0.3c-0.3,0-0.6-0.1-0.8-0.3
			c-0.2-0.2-0.3-0.5-0.3-0.8s0.1-0.6,0.3-0.8C-5407.8-1765.9-5407.6-1766-5407.2-1766z"/>
	</g>
	<g class="st2">
		<path class="st4" d="M-5502.6-1735.1c-0.1,1.1-0.4,2.1-0.9,3s-1.1,1.6-1.8,2c-0.7,0.4-1.5,0.7-2.3,0.6c-1.3,0-2.3-0.5-3-1.3
			l-1,5.4h-1.9l2.7-15.4l1.7,0l-0.2,1.2c0.9-1,2-1.5,3.3-1.4c1.1,0,1.9,0.4,2.5,1.2c0.6,0.8,0.9,1.8,0.9,3.1c0,0.4,0,0.9-0.1,1.3
			L-5502.6-1735.1z M-5504.4-1735.3l0.1-0.9c0-1-0.2-1.8-0.6-2.3c-0.4-0.5-0.9-0.8-1.6-0.8c-1.1,0-2,0.5-2.8,1.5l-0.9,5.3
			c0.4,1,1.2,1.5,2.2,1.5c0.9,0,1.7-0.3,2.4-1.1C-5505.1-1732.8-5504.6-1733.9-5504.4-1735.3z"/>
		<path class="st4" d="M-5494.2-1739l-0.9-0.1c-1.2,0-2.1,0.5-2.8,1.6l-1.4,7.9h-1.9l1.9-11.1l1.8,0l-0.3,1.3c0.8-1,1.7-1.5,2.8-1.5
			c0.2,0,0.5,0.1,0.9,0.2L-5494.2-1739z"/>
		<path class="st4" d="M-5492.1-1729.6h-1.8l1.9-11.1h1.8L-5492.1-1729.6z M-5490.6-1744.8c0.3,0,0.6,0.1,0.8,0.3
			c0.2,0.2,0.3,0.5,0.3,0.8c0,0.3-0.1,0.6-0.3,0.8s-0.5,0.3-0.8,0.3c-0.3,0-0.6-0.1-0.8-0.3s-0.3-0.5-0.3-0.8s0.1-0.6,0.3-0.8
			S-5490.9-1744.8-5490.6-1744.8z"/>
		<path class="st4" d="M-5485.4-1740.7l-0.3,1.4c1-1.1,2.1-1.6,3.4-1.6c1,0,1.8,0.4,2.3,1.1s0.7,1.7,0.6,2.9l-1.2,7.3h-1.9l1.2-7.3
			c0-0.3,0-0.6,0-0.9c-0.1-1-0.7-1.4-1.7-1.5c-1.1,0-2.1,0.6-2.9,1.8l-1.4,7.9h-1.9l1.9-11.1L-5485.4-1740.7z"/>
		<path class="st4" d="M-5472.8-1743.4l-0.5,2.7h2l-0.3,1.5h-2l-1.2,6.9c0,0.2,0,0.3,0,0.5c0,0.5,0.3,0.8,0.9,0.8
			c0.2,0,0.5,0,0.9-0.1l-0.1,1.5c-0.4,0.1-0.9,0.2-1.4,0.2c-0.7,0-1.3-0.3-1.7-0.8c-0.4-0.5-0.5-1.2-0.4-2.1l1.1-6.9h-2l0.3-1.5h2
			l0.5-2.7H-5472.8z"/>
	</g>
	<g class="st2">
		<path class="st7" d="M-5469.9-1735.7c0.2-1.6,0.6-3.1,1.3-4.6c0.6-1.5,1.4-2.8,2.3-3.8c0.9-1.1,1.9-1.9,3-2.4l0.3,1.3
			c-1.1,0.8-2,1.8-2.8,3.1c-0.8,1.3-1.4,2.8-1.8,4.6c-0.4,1.8-0.6,3.5-0.6,5.2c0,1.4,0.2,2.7,0.5,3.7c0.4,1.1,0.9,1.9,1.6,2.5
			l-0.5,1.1c-1.1-0.8-2-2-2.6-3.5c-0.6-1.6-0.9-3.3-0.8-5.3c0-0.7,0.1-1.3,0.1-1.9L-5469.9-1735.7z"/>
		<path class="st7" d="M-5460.2-1743.9l-0.9,3.6l-1.1,0l0.8-5.2l1.4,0.1L-5460.2-1743.9z M-5457.5-1743.9l-0.9,3.6h-1.1l0.8-5.1
			l1.4,0.1L-5457.5-1743.9z"/>
		<path class="st7" d="M-5452.5-1736.7l3-4h2.3l-4.5,5.6l2.7,5.5h-2l-1.8-4.1l-3.1,4.1h-2.3l4.6-5.7l-2.6-5.4h2L-5452.5-1736.7z"/>
		<path class="st7" d="M-5437-1743.4l-0.5,2.7h2l-0.3,1.5h-2l-1.2,6.9c0,0.2,0,0.3,0,0.5c0,0.5,0.3,0.8,0.9,0.8c0.2,0,0.5,0,0.9-0.1
			l-0.1,1.5c-0.4,0.1-0.9,0.2-1.4,0.2c-0.7,0-1.3-0.3-1.7-0.8c-0.4-0.5-0.5-1.2-0.4-2.1l1.1-6.9h-2l0.3-1.5h2l0.5-2.7H-5437z"/>
		<path class="st7" d="M-5433.2-1729.6h-1.8l1.9-11.1h1.8L-5433.2-1729.6z M-5431.6-1744.8c0.3,0,0.6,0.1,0.8,0.3
			c0.2,0.2,0.3,0.5,0.3,0.8c0,0.3-0.1,0.6-0.3,0.8s-0.5,0.3-0.8,0.3c-0.3,0-0.6-0.1-0.8-0.3s-0.3-0.5-0.3-0.8s0.1-0.6,0.3-0.8
			S-5432-1744.8-5431.6-1744.8z"/>
		<path class="st7" d="M-5425.3-1729.4c-1.4,0-2.5-0.5-3.2-1.5s-1.1-2.3-1-3.8l0.1-0.4c0.1-1.1,0.4-2.1,1-3c0.5-0.9,1.2-1.6,2-2.1
			c0.8-0.5,1.6-0.7,2.5-0.7c1.1,0,2,0.4,2.7,1.1c0.6,0.7,1,1.7,1.1,3c0,0.4,0,0.9,0,1.3l-0.1,0.9h-7.2c-0.1,1,0,1.9,0.5,2.6
			c0.5,0.7,1.1,1.1,2,1.1c1.1,0,2.1-0.5,3-1.5l1.1,0.9c-0.5,0.7-1.1,1.2-1.8,1.6C-5423.6-1729.6-5424.4-1729.4-5425.3-1729.4z
			 M-5424.2-1739.4c-0.8,0-1.4,0.2-2,0.8c-0.6,0.5-1,1.3-1.4,2.4l5.4,0l0-0.2c0.1-0.9,0-1.6-0.4-2.1
			C-5422.9-1739.1-5423.4-1739.4-5424.2-1739.4z"/>
		<path class="st7" d="M-5415.6-1740.7l-0.3,1.4c1-1.1,2.1-1.6,3.4-1.6c1,0,1.8,0.4,2.3,1.1s0.7,1.7,0.6,2.9l-1.2,7.3h-1.9l1.2-7.3
			c0-0.3,0-0.6,0-0.9c-0.1-1-0.7-1.4-1.7-1.5c-1.1,0-2.1,0.6-2.9,1.8l-1.4,7.9h-1.9l1.9-11.1L-5415.6-1740.7z"/>
		<path class="st7" d="M-5403.1-1729.4c-1.4,0-2.5-0.5-3.2-1.5s-1.1-2.3-1-3.8l0.1-0.4c0.1-1.1,0.4-2.1,1-3c0.5-0.9,1.2-1.6,2-2.1
			c0.8-0.5,1.6-0.7,2.5-0.7c1.1,0,2,0.4,2.7,1.1c0.6,0.7,1,1.7,1.1,3c0,0.4,0,0.9,0,1.3l-0.1,0.9h-7.2c-0.1,1,0,1.9,0.5,2.6
			c0.5,0.7,1.1,1.1,2,1.1c1.1,0,2.1-0.5,3-1.5l1.1,0.9c-0.5,0.7-1.1,1.2-1.8,1.6C-5401.4-1729.6-5402.2-1729.4-5403.1-1729.4z
			 M-5401.9-1739.4c-0.8,0-1.4,0.2-2,0.8c-0.6,0.5-1,1.3-1.4,2.4l5.4,0l0-0.2c0.1-0.9,0-1.6-0.4-2.1
			C-5400.7-1739.1-5401.2-1739.4-5401.9-1739.4z"/>
		<path class="st7" d="M-5384.8-1730.7c-0.9,0.9-2,1.3-3.3,1.3c-1.1,0-1.8-0.4-2.4-1.1c-0.5-0.7-0.7-1.7-0.6-3l1.2-7.2h1.9l-1.2,7.2
			c0,0.3,0,0.6,0,0.9c0,0.5,0.2,0.9,0.4,1.2s0.6,0.4,1.1,0.5c1.3,0,2.4-0.5,3.1-1.6l1.4-8.1h1.9l-1.9,11.1h-1.8L-5384.8-1730.7z"/>
		<path class="st7" d="M-5376.9-1740.7l-0.3,1.4c1-1.1,2.1-1.6,3.4-1.6c1,0,1.8,0.4,2.3,1.1s0.7,1.7,0.6,2.9l-1.2,7.3h-1.9l1.2-7.3
			c0-0.3,0-0.6,0-0.9c-0.1-1-0.7-1.4-1.7-1.5c-1.1,0-2.1,0.6-2.9,1.8l-1.4,7.9h-1.9l1.9-11.1L-5376.9-1740.7z"/>
		<path class="st7" d="M-5360-1732.2l4-8.5h2l-5.6,11.1h-1.4l-2.2-11.1h1.8L-5360-1732.2z"/>
		<path class="st7" d="M-5347.5-1729.6c0-0.2-0.1-0.4-0.1-0.6l0-0.6c-1,0.9-2.1,1.4-3.2,1.4c-1,0-1.8-0.3-2.4-0.9
			c-0.6-0.6-0.9-1.4-0.8-2.3c0.1-1.2,0.6-2.1,1.5-2.8c1-0.7,2.2-1,3.8-1l1.9,0l0.1-0.9c0.1-0.7-0.1-1.2-0.4-1.6
			c-0.3-0.4-0.8-0.6-1.5-0.6c-0.6,0-1.2,0.1-1.7,0.5c-0.5,0.3-0.8,0.8-0.9,1.3l-1.9,0c0.1-0.6,0.3-1.2,0.8-1.7
			c0.4-0.5,1-0.9,1.7-1.2c0.7-0.3,1.4-0.4,2.2-0.4c1.2,0,2.1,0.4,2.7,1.1c0.6,0.7,0.9,1.6,0.8,2.7l-0.9,5.5l-0.1,0.8
			c0,0.4,0,0.7,0.1,1.1l0,0.2H-5347.5z M-5350.4-1731.1c0.6,0,1.2-0.1,1.7-0.4c0.5-0.3,1-0.7,1.4-1.2l0.4-2.3l-1.4,0
			c-1.2,0-2.1,0.2-2.7,0.6s-1,0.9-1.1,1.6c-0.1,0.5,0.1,1,0.4,1.3C-5351.4-1731.3-5350.9-1731.1-5350.4-1731.1z"/>
		<path class="st7" d="M-5341-1729.6h-1.8l2.7-15.8h1.9L-5341-1729.6z"/>
		<path class="st7" d="M-5331.8-1740.9c0.9,0,1.7,0.3,2.4,0.8s1.2,1.2,1.5,2c0.3,0.9,0.4,1.8,0.3,2.8l0,0.2c-0.1,1.1-0.5,2.1-1,2.9
			c-0.5,0.9-1.2,1.6-2,2c-0.8,0.5-1.7,0.7-2.7,0.7c-0.9,0-1.7-0.3-2.4-0.8c-0.7-0.5-1.2-1.2-1.5-2c-0.3-0.8-0.4-1.8-0.3-2.8
			c0.1-1.1,0.4-2.2,0.9-3.1s1.2-1.6,2-2.1C-5333.7-1740.7-5332.8-1741-5331.8-1740.9z M-5335.6-1735c0,0.4,0,0.9,0,1.3
			c0.1,0.8,0.3,1.5,0.7,1.9c0.4,0.5,1,0.7,1.7,0.7c0.6,0,1.2-0.1,1.7-0.5c0.5-0.3,1-0.8,1.3-1.5s0.6-1.4,0.7-2.2
			c0.1-0.6,0.1-1.2,0-1.6c-0.1-0.8-0.3-1.5-0.7-2s-1-0.7-1.7-0.8c-1,0-1.8,0.4-2.4,1.1s-1.1,1.8-1.2,3L-5335.6-1735z"/>
		<path class="st7" d="M-5319.4-1739l-0.9-0.1c-1.2,0-2.1,0.5-2.8,1.6l-1.4,7.9h-1.9l1.9-11.1l1.8,0l-0.3,1.3c0.8-1,1.7-1.5,2.8-1.5
			c0.2,0,0.5,0.1,0.9,0.2L-5319.4-1739z"/>
		<path class="st7" d="M-5310.5-1740.7l-0.2,1.2c0.9-1,2.1-1.5,3.4-1.4c0.7,0,1.3,0.2,1.8,0.5c0.5,0.3,0.8,0.7,1,1.3
			c1-1.2,2.3-1.8,3.7-1.8c1.1,0,1.9,0.4,2.5,1.1c0.5,0.7,0.7,1.7,0.6,2.9l-1.2,7.3h-1.8l1.2-7.3c0-0.4,0-0.7,0-1
			c-0.1-0.9-0.7-1.4-1.8-1.4c-0.7,0-1.3,0.2-1.8,0.6c-0.6,0.4-0.9,1-1.1,1.7l-1.3,7.4h-1.9l1.2-7.3c0.1-0.8,0-1.3-0.3-1.8
			c-0.3-0.4-0.8-0.6-1.5-0.6c-1.2,0-2.1,0.5-2.8,1.6l-1.4,8.1h-1.9l1.9-11.1L-5310.5-1740.7z"/>
		<path class="st7" d="M-5291.4-1729.4c-1.4,0-2.5-0.5-3.2-1.5s-1.1-2.3-1-3.8l0.1-0.4c0.1-1.1,0.4-2.1,1-3c0.5-0.9,1.2-1.6,2-2.1
			c0.8-0.5,1.6-0.7,2.5-0.7c1.1,0,2,0.4,2.7,1.1c0.6,0.7,1,1.7,1.1,3c0,0.4,0,0.9,0,1.3l-0.1,0.9h-7.2c-0.1,1,0,1.9,0.5,2.6
			c0.5,0.7,1.1,1.1,2,1.1c1.1,0,2.1-0.5,3-1.5l1.1,0.9c-0.5,0.7-1.1,1.2-1.8,1.6C-5289.7-1729.6-5290.5-1729.4-5291.4-1729.4z
			 M-5290.2-1739.4c-0.8,0-1.4,0.2-2,0.8c-0.6,0.5-1,1.3-1.4,2.4l5.4,0l0-0.2c0.1-0.9,0-1.6-0.4-2.1
			C-5288.9-1739.1-5289.5-1739.4-5290.2-1739.4z"/>
		<path class="st7" d="M-5281.6-1740.7l-0.3,1.4c1-1.1,2.1-1.6,3.4-1.6c1,0,1.8,0.4,2.3,1.1c0.5,0.7,0.7,1.7,0.6,2.9l-1.2,7.3h-1.9
			l1.2-7.3c0-0.3,0-0.6,0-0.9c-0.1-1-0.7-1.4-1.7-1.5c-1.1,0-2.1,0.6-2.9,1.8l-1.4,7.9h-1.9l1.9-11.1L-5281.6-1740.7z"/>
		<path class="st7" d="M-5267.8-1740.9c0.9,0,1.7,0.3,2.4,0.8s1.2,1.2,1.5,2c0.3,0.9,0.4,1.8,0.3,2.8l0,0.2c-0.1,1.1-0.5,2.1-1,2.9
			c-0.5,0.9-1.2,1.6-2,2c-0.8,0.5-1.7,0.7-2.7,0.7c-0.9,0-1.7-0.3-2.4-0.8s-1.2-1.2-1.5-2c-0.3-0.8-0.4-1.8-0.3-2.8
			c0.1-1.1,0.4-2.2,0.9-3.1s1.2-1.6,2-2.1C-5269.7-1740.7-5268.8-1741-5267.8-1740.9z M-5271.6-1735c0,0.4,0,0.9,0,1.3
			c0.1,0.8,0.3,1.5,0.7,1.9c0.4,0.5,1,0.7,1.7,0.7c0.6,0,1.2-0.1,1.7-0.5c0.5-0.3,1-0.8,1.3-1.5s0.6-1.4,0.7-2.2
			c0.1-0.6,0.1-1.2,0-1.6c-0.1-0.8-0.3-1.5-0.7-2s-1-0.7-1.7-0.8c-1,0-1.8,0.4-2.4,1.1s-1.1,1.8-1.2,3L-5271.6-1735z"/>
		<path class="st7" d="M-5255.3-1739l-0.9-0.1c-1.2,0-2.1,0.5-2.8,1.6l-1.4,7.9h-1.9l1.9-11.1l1.8,0l-0.3,1.3c0.8-1,1.7-1.5,2.8-1.5
			c0.2,0,0.5,0.1,0.9,0.2L-5255.3-1739z"/>
		<path class="st7" d="M-5244.4-1740.9c1.3,0,2.2,0.5,2.9,1.3l0.3-1.1h1.7l-2.7,15.4h-1.8l1-5.3c-0.9,0.8-1.9,1.3-3.1,1.2
			c-1,0-1.9-0.4-2.5-1.2c-0.6-0.8-1-1.8-1-3.1c0-0.8,0.1-1.7,0.3-2.7c0.2-0.9,0.6-1.8,1.1-2.5c0.5-0.7,1-1.2,1.7-1.6
			C-5245.9-1740.8-5245.2-1741-5244.4-1740.9z M-5247.7-1735l-0.1,0.9c0,1,0.2,1.8,0.5,2.3c0.4,0.5,0.9,0.8,1.6,0.8
			c1,0,2-0.5,2.8-1.5l1-5.5c-0.5-1-1.2-1.4-2.2-1.5c-0.9,0-1.7,0.3-2.4,1.1S-5247.5-1736.5-5247.7-1735z"/>
		<path class="st7" d="M-5231.4-1730.7c-0.9,0.9-2,1.3-3.3,1.3c-1.1,0-1.8-0.4-2.4-1.1c-0.5-0.7-0.7-1.7-0.6-3l1.2-7.2h1.9l-1.2,7.2
			c0,0.3,0,0.6,0,0.9c0,0.5,0.2,0.9,0.4,1.2s0.6,0.4,1.1,0.5c1.3,0,2.4-0.5,3.1-1.6l1.4-8.1h1.9l-1.9,11.1h-1.8L-5231.4-1730.7z"/>
		<path class="st7" d="M-5222.3-1729.4c-1.4,0-2.5-0.5-3.2-1.5s-1.1-2.3-1-3.8l0.1-0.4c0.1-1.1,0.4-2.1,1-3c0.5-0.9,1.2-1.6,2-2.1
			c0.8-0.5,1.6-0.7,2.5-0.7c1.1,0,2,0.4,2.7,1.1c0.7,0.7,1,1.7,1.1,3c0,0.4,0,0.9,0,1.3l-0.1,0.9h-7.2c-0.1,1,0,1.9,0.5,2.6
			c0.5,0.7,1.1,1.1,2,1.1c1.1,0,2.1-0.5,3-1.5l1.1,0.9c-0.5,0.7-1.1,1.2-1.8,1.6C-5220.6-1729.6-5221.4-1729.4-5222.3-1729.4z
			 M-5221.1-1739.4c-0.8,0-1.4,0.2-2,0.8c-0.6,0.5-1,1.3-1.4,2.4l5.4,0l0-0.2c0.1-0.9,0-1.6-0.4-2.1
			C-5219.8-1739.1-5220.4-1739.4-5221.1-1739.4z"/>
		<path class="st7" d="M-5205.2-1729.6h-1.9l2.2-12.6l-4,1.4l0.3-1.8l5.5-2h0.3L-5205.2-1729.6z"/>
		<path class="st7" d="M-5195-1729.4c-1.3,0-2.2-0.5-2.8-1.3c-0.6-0.9-0.9-2.1-0.9-3.7c0-0.5,0.1-1,0.1-1.5l0.4-2.5
			c0.3-2.1,1-3.7,1.9-4.8s2.1-1.6,3.7-1.5c1.3,0,2.2,0.5,2.8,1.3c0.6,0.8,0.9,2.1,0.9,3.7c0,0.5-0.1,1-0.1,1.5l-0.4,2.4
			c-0.4,2.2-1,3.9-1.9,4.9C-5192.3-1729.9-5193.5-1729.4-5195-1729.4z M-5190.9-1738.6c0.1-0.8,0.1-1.5,0.1-1.9c0-1.7-0.7-2.6-2-2.7
			c-1,0-1.7,0.3-2.3,1.1c-0.6,0.7-1,1.9-1.2,3.5l-0.4,3c-0.1,0.8-0.1,1.4-0.1,1.9c0,1.8,0.7,2.7,2,2.8c0.9,0,1.7-0.3,2.3-1
			c0.6-0.7,1-1.8,1.3-3.4L-5190.9-1738.6z"/>
		<path class="st7" d="M-5184.3-1743.9l-0.9,3.6l-1.1,0l0.8-5.2l1.4,0.1L-5184.3-1743.9z M-5181.6-1743.9l-0.9,3.6h-1.1l0.8-5.1
			l1.4,0.1L-5181.6-1743.9z"/>
		<path class="st7" d="M-5176.1-1735.6c-0.2,1.7-0.7,3.2-1.3,4.7c-0.6,1.5-1.4,2.7-2.3,3.8c-0.9,1-1.9,1.8-2.9,2.3l-0.3-1.2
			c2.3-1.8,3.9-4.6,4.7-8.5c0.3-1.6,0.5-3.1,0.5-4.5c0-2.9-0.7-5-2.1-6.3l0.5-1.1c0.8,0.5,1.4,1.2,1.9,2.1c0.5,0.9,0.9,1.9,1.2,3.1
			c0.2,1.2,0.4,2.4,0.3,3.6c0,0.7-0.1,1.3-0.2,1.9L-5176.1-1735.6z"/>
	</g>
	<g class="st2">
		<path class="st4" d="M-5507.8-1704.2c-1.4,0-2.5-0.5-3.2-1.5s-1.1-2.3-1-3.8l0.1-0.4c0.1-1.1,0.4-2.1,1-3c0.5-0.9,1.2-1.6,2-2.1
			c0.8-0.5,1.6-0.7,2.5-0.7c1.1,0,2,0.4,2.7,1.1c0.6,0.7,1,1.7,1.1,3c0,0.4,0,0.9,0,1.3l-0.1,0.9h-7.2c-0.1,1,0,1.9,0.5,2.6
			c0.5,0.7,1.1,1.1,2,1.1c1.1,0,2.1-0.5,3-1.5l1.1,0.9c-0.5,0.7-1.1,1.2-1.8,1.6C-5506.1-1704.4-5506.9-1704.2-5507.8-1704.2z
			 M-5506.7-1714.2c-0.8,0-1.4,0.2-2,0.8c-0.6,0.5-1,1.3-1.4,2.4l5.4,0l0-0.2c0.1-0.9,0-1.6-0.4-2.1
			C-5505.4-1713.9-5505.9-1714.2-5506.7-1714.2z"/>
		<path class="st4" d="M-5499.7-1704.4h-1.8l2.7-15.8h1.9L-5499.7-1704.4z"/>
		<path class="st4" d="M-5489.8-1707.4c0.1-0.8-0.3-1.3-1.3-1.6l-1.9-0.6c-1.6-0.6-2.4-1.5-2.4-2.8c0-1,0.5-1.8,1.3-2.4
			c0.8-0.6,1.8-0.9,3-0.9c1.1,0,2,0.3,2.7,1c0.7,0.6,1,1.5,1,2.5l-1.8,0c0-0.6-0.2-1-0.5-1.4s-0.8-0.5-1.4-0.5
			c-0.6,0-1.2,0.1-1.7,0.5c-0.4,0.3-0.7,0.7-0.7,1.2c-0.1,0.6,0.3,1.1,1.2,1.4l0.9,0.3c1.3,0.3,2.2,0.8,2.7,1.3s0.8,1.2,0.7,2
			c0,0.7-0.3,1.3-0.7,1.8c-0.4,0.5-1,0.9-1.6,1.2c-0.7,0.3-1.4,0.4-2.2,0.4c-1.2,0-2.1-0.4-2.9-1c-0.8-0.7-1.1-1.5-1.1-2.6l1.9,0
			c0,0.6,0.2,1.1,0.6,1.5c0.4,0.4,0.9,0.6,1.6,0.6c0.7,0,1.3-0.1,1.8-0.4C-5490.2-1706.5-5489.9-1706.9-5489.8-1707.4z"/>
		<path class="st4" d="M-5481.3-1704.2c-1.4,0-2.5-0.5-3.2-1.5s-1.1-2.3-1-3.8l0.1-0.4c0.1-1.1,0.4-2.1,1-3c0.5-0.9,1.2-1.6,2-2.1
			c0.8-0.5,1.6-0.7,2.5-0.7c1.1,0,2,0.4,2.7,1.1c0.6,0.7,1,1.7,1.1,3c0,0.4,0,0.9,0,1.3l-0.1,0.9h-7.2c-0.1,1,0,1.9,0.5,2.6
			c0.5,0.7,1.1,1.1,2,1.1c1.1,0,2.1-0.5,3-1.5l1.1,0.9c-0.5,0.7-1.1,1.2-1.8,1.6C-5479.6-1704.4-5480.4-1704.2-5481.3-1704.2z
			 M-5480.1-1714.2c-0.8,0-1.4,0.2-2,0.8c-0.6,0.5-1,1.3-1.4,2.4l5.4,0l0-0.2c0.1-0.9,0-1.6-0.4-2.1
			C-5478.9-1713.9-5479.4-1714.2-5480.1-1714.2z"/>
		<path class="st4" d="M-5474-1706.6c0.3,0,0.6,0.1,0.8,0.3s0.3,0.5,0.3,0.8s-0.1,0.6-0.3,0.8c-0.2,0.2-0.5,0.3-0.8,0.3
			s-0.6-0.1-0.8-0.3c-0.2-0.2-0.3-0.5-0.3-0.8s0.1-0.6,0.3-0.8C-5474.6-1706.5-5474.3-1706.6-5474-1706.6z M-5472.4-1715.6
			c0.3,0,0.6,0.1,0.8,0.3c0.2,0.2,0.3,0.5,0.3,0.8c0,0.3-0.1,0.6-0.3,0.8c-0.2,0.2-0.5,0.3-0.8,0.3c-0.3,0-0.6-0.1-0.8-0.3
			c-0.2-0.2-0.3-0.5-0.3-0.8s0.1-0.6,0.3-0.8C-5473-1715.5-5472.7-1715.6-5472.4-1715.6z"/>
	</g>
	<g class="st2">
		<path class="st4" d="M-5502.6-1684.7c-0.1,1.1-0.4,2.1-0.9,3s-1.1,1.6-1.8,2c-0.7,0.4-1.5,0.7-2.3,0.6c-1.3,0-2.3-0.5-3-1.3
			l-1,5.4h-1.9l2.7-15.4l1.7,0l-0.2,1.2c0.9-1,2-1.5,3.3-1.4c1.1,0,1.9,0.4,2.5,1.2c0.6,0.8,0.9,1.8,0.9,3.1c0,0.4,0,0.9-0.1,1.3
			L-5502.6-1684.7z M-5504.4-1684.9l0.1-0.9c0-1-0.2-1.8-0.6-2.3c-0.4-0.5-0.9-0.8-1.6-0.8c-1.1,0-2,0.5-2.8,1.5l-0.9,5.3
			c0.4,1,1.2,1.5,2.2,1.5c0.9,0,1.7-0.3,2.4-1.1C-5505.1-1682.4-5504.6-1683.5-5504.4-1684.9z"/>
		<path class="st4" d="M-5494.2-1688.6l-0.9-0.1c-1.2,0-2.1,0.5-2.8,1.6l-1.4,7.9h-1.9l1.9-11.1l1.8,0l-0.3,1.3
			c0.8-1,1.7-1.5,2.8-1.5c0.2,0,0.5,0.1,0.9,0.2L-5494.2-1688.6z"/>
		<path class="st4" d="M-5492.1-1679.2h-1.8l1.9-11.1h1.8L-5492.1-1679.2z M-5490.6-1694.4c0.3,0,0.6,0.1,0.8,0.3
			c0.2,0.2,0.3,0.5,0.3,0.8c0,0.3-0.1,0.6-0.3,0.8s-0.5,0.3-0.8,0.3c-0.3,0-0.6-0.1-0.8-0.3s-0.3-0.5-0.3-0.8s0.1-0.6,0.3-0.8
			S-5490.9-1694.4-5490.6-1694.4z"/>
		<path class="st4" d="M-5485.4-1690.3l-0.3,1.4c1-1.1,2.1-1.6,3.4-1.6c1,0,1.8,0.4,2.3,1.1s0.7,1.7,0.6,2.9l-1.2,7.3h-1.9l1.2-7.3
			c0-0.3,0-0.6,0-0.9c-0.1-1-0.7-1.4-1.7-1.5c-1.1,0-2.1,0.6-2.9,1.8l-1.4,7.9h-1.9l1.9-11.1L-5485.4-1690.3z"/>
		<path class="st4" d="M-5472.8-1693l-0.5,2.7h2l-0.3,1.5h-2l-1.2,6.9c0,0.2,0,0.3,0,0.5c0,0.5,0.3,0.8,0.9,0.8c0.2,0,0.5,0,0.9-0.1
			l-0.1,1.5c-0.4,0.1-0.9,0.2-1.4,0.2c-0.7,0-1.3-0.3-1.7-0.8c-0.4-0.5-0.5-1.2-0.4-2.1l1.1-6.9h-2l0.3-1.5h2l0.5-2.7H-5472.8z"/>
	</g>
	<g class="st2">
		<path class="st7" d="M-5462.1-1693.5l-0.9,3.6l-1.1,0l0.8-5.2l1.4,0.1L-5462.1-1693.5z M-5459.4-1693.5l-0.9,3.6h-1.1l0.8-5.1
			l1.4,0.1L-5459.4-1693.5z"/>
		<path class="st7" d="M-5454.4-1686.3l3-4h2.3l-4.5,5.6l2.7,5.5h-2l-1.8-4.1l-3.1,4.1h-2.3l4.6-5.7l-2.6-5.4h2L-5454.4-1686.3z"/>
		<path class="st7" d="M-5439-1693l-0.5,2.7h2l-0.3,1.5h-2l-1.2,6.9c0,0.2,0,0.3,0,0.5c0,0.5,0.3,0.8,0.9,0.8c0.2,0,0.5,0,0.9-0.1
			l-0.1,1.5c-0.4,0.1-0.9,0.2-1.4,0.2c-0.7,0-1.3-0.3-1.7-0.8c-0.4-0.5-0.5-1.2-0.4-2.1l1.1-6.9h-2l0.3-1.5h2l0.5-2.7H-5439z"/>
		<path class="st7" d="M-5435.1-1679.2h-1.8l1.9-11.1h1.8L-5435.1-1679.2z M-5433.6-1694.4c0.3,0,0.6,0.1,0.8,0.3
			c0.2,0.2,0.3,0.5,0.3,0.8c0,0.3-0.1,0.6-0.3,0.8s-0.5,0.3-0.8,0.3c-0.3,0-0.6-0.1-0.8-0.3s-0.3-0.5-0.3-0.8s0.1-0.6,0.3-0.8
			S-5433.9-1694.4-5433.6-1694.4z"/>
		<path class="st7" d="M-5427.3-1679c-1.4,0-2.5-0.5-3.2-1.5s-1.1-2.3-1-3.8l0.1-0.4c0.1-1.1,0.4-2.1,1-3c0.5-0.9,1.2-1.6,2-2.1
			c0.8-0.5,1.6-0.7,2.5-0.7c1.1,0,2,0.4,2.7,1.1c0.6,0.7,1,1.7,1.1,3c0,0.4,0,0.9,0,1.3l-0.1,0.9h-7.2c-0.1,1,0,1.9,0.5,2.6
			c0.5,0.7,1.1,1.1,2,1.1c1.1,0,2.1-0.5,3-1.5l1.1,0.9c-0.5,0.7-1.1,1.2-1.8,1.6C-5425.5-1679.2-5426.4-1679-5427.3-1679z
			 M-5426.1-1689c-0.8,0-1.4,0.2-2,0.8c-0.6,0.5-1,1.3-1.4,2.4l5.4,0l0-0.2c0.1-0.9,0-1.6-0.4-2.1
			C-5424.8-1688.7-5425.4-1689-5426.1-1689z"/>
		<path class="st7" d="M-5417.5-1690.3l-0.3,1.4c1-1.1,2.1-1.6,3.4-1.6c1,0,1.8,0.4,2.3,1.1s0.7,1.7,0.6,2.9l-1.2,7.3h-1.9l1.2-7.3
			c0-0.3,0-0.6,0-0.9c-0.1-1-0.7-1.4-1.7-1.5c-1.1,0-2.1,0.6-2.9,1.8l-1.4,7.9h-1.9l1.9-11.1L-5417.5-1690.3z"/>
		<path class="st7" d="M-5405-1679c-1.4,0-2.5-0.5-3.2-1.5s-1.1-2.3-1-3.8l0.1-0.4c0.1-1.1,0.4-2.1,1-3c0.5-0.9,1.2-1.6,2-2.1
			c0.8-0.5,1.6-0.7,2.5-0.7c1.1,0,2,0.4,2.7,1.1c0.6,0.7,1,1.7,1.1,3c0,0.4,0,0.9,0,1.3l-0.1,0.9h-7.2c-0.1,1,0,1.9,0.5,2.6
			c0.5,0.7,1.1,1.1,2,1.1c1.1,0,2.1-0.5,3-1.5l1.1,0.9c-0.5,0.7-1.1,1.2-1.8,1.6C-5403.3-1679.2-5404.1-1679-5405-1679z
			 M-5403.9-1689c-0.8,0-1.4,0.2-2,0.8c-0.6,0.5-1,1.3-1.4,2.4l5.4,0l0-0.2c0.1-0.9,0-1.6-0.4-2.1
			C-5402.6-1688.7-5403.1-1689-5403.9-1689z"/>
		<path class="st7" d="M-5386.7-1680.3c-0.9,0.9-2,1.3-3.3,1.3c-1.1,0-1.8-0.4-2.4-1.1c-0.5-0.7-0.7-1.7-0.6-3l1.2-7.2h1.9l-1.2,7.2
			c0,0.3,0,0.6,0,0.9c0,0.5,0.2,0.9,0.4,1.2s0.6,0.4,1.1,0.5c1.3,0,2.4-0.5,3.1-1.6l1.4-8.1h1.9l-1.9,11.1h-1.8L-5386.7-1680.3z"/>
		<path class="st7" d="M-5378.8-1690.3l-0.3,1.4c1-1.1,2.1-1.6,3.4-1.6c1,0,1.8,0.4,2.3,1.1s0.7,1.7,0.6,2.9l-1.2,7.3h-1.9l1.2-7.3
			c0-0.3,0-0.6,0-0.9c-0.1-1-0.7-1.4-1.7-1.5c-1.1,0-2.1,0.6-2.9,1.8l-1.4,7.9h-1.9l1.9-11.1L-5378.8-1690.3z"/>
		<path class="st7" d="M-5361.9-1681.8l4-8.5h2l-5.6,11.1h-1.4l-2.2-11.1h1.8L-5361.9-1681.8z"/>
		<path class="st7" d="M-5349.4-1679.2c0-0.2-0.1-0.4-0.1-0.6l0-0.6c-1,0.9-2.1,1.4-3.2,1.4c-1,0-1.8-0.3-2.4-0.9
			c-0.6-0.6-0.9-1.4-0.8-2.3c0.1-1.2,0.6-2.1,1.5-2.8c1-0.7,2.2-1,3.8-1l1.9,0l0.1-0.9c0.1-0.7-0.1-1.2-0.4-1.6
			c-0.3-0.4-0.8-0.6-1.5-0.6c-0.6,0-1.2,0.1-1.7,0.5c-0.5,0.3-0.8,0.8-0.9,1.3l-1.9,0c0.1-0.6,0.3-1.2,0.8-1.7
			c0.4-0.5,1-0.9,1.7-1.2c0.7-0.3,1.4-0.4,2.2-0.4c1.2,0,2.1,0.4,2.7,1.1c0.6,0.7,0.9,1.6,0.8,2.7l-0.9,5.5l-0.1,0.8
			c0,0.4,0,0.7,0.1,1.1l0,0.2H-5349.4z M-5352.3-1680.7c0.6,0,1.2-0.1,1.7-0.4c0.5-0.3,1-0.7,1.4-1.2l0.4-2.3l-1.4,0
			c-1.2,0-2.1,0.2-2.7,0.6s-1,0.9-1.1,1.6c-0.1,0.5,0.1,1,0.4,1.3C-5353.3-1680.9-5352.9-1680.7-5352.3-1680.7z"/>
		<path class="st7" d="M-5343-1679.2h-1.8l2.7-15.8h1.9L-5343-1679.2z"/>
		<path class="st7" d="M-5333.8-1690.5c0.9,0,1.7,0.3,2.4,0.8c0.7,0.5,1.2,1.2,1.5,2c0.3,0.9,0.4,1.8,0.3,2.8l0,0.2
			c-0.1,1.1-0.5,2.1-1,2.9c-0.5,0.9-1.2,1.6-2,2c-0.8,0.5-1.7,0.7-2.7,0.7c-0.9,0-1.7-0.3-2.4-0.8c-0.7-0.5-1.2-1.2-1.5-2
			s-0.4-1.8-0.3-2.8c0.1-1.1,0.4-2.2,0.9-3.1s1.2-1.6,2-2.1C-5335.7-1690.3-5334.8-1690.6-5333.8-1690.5z M-5337.5-1684.6
			c0,0.4,0,0.9,0,1.3c0.1,0.8,0.3,1.5,0.7,1.9c0.4,0.5,1,0.7,1.7,0.7c0.6,0,1.2-0.1,1.7-0.5c0.5-0.3,1-0.8,1.3-1.5s0.6-1.4,0.7-2.2
			c0.1-0.6,0.1-1.2,0-1.6c-0.1-0.8-0.3-1.5-0.7-2c-0.4-0.5-1-0.7-1.7-0.8c-1,0-1.8,0.4-2.4,1.1s-1.1,1.8-1.2,3L-5337.5-1684.6z"/>
		<path class="st7" d="M-5321.3-1688.6l-0.9-0.1c-1.2,0-2.1,0.5-2.8,1.6l-1.4,7.9h-1.9l1.9-11.1l1.8,0l-0.3,1.3
			c0.8-1,1.7-1.5,2.8-1.5c0.2,0,0.5,0.1,0.9,0.2L-5321.3-1688.6z"/>
		<path class="st7" d="M-5312.4-1690.3l-0.2,1.2c0.9-1,2.1-1.5,3.4-1.4c0.7,0,1.3,0.2,1.8,0.5c0.5,0.3,0.8,0.7,1,1.3
			c1-1.2,2.3-1.8,3.7-1.8c1.1,0,1.9,0.4,2.5,1.1c0.5,0.7,0.7,1.7,0.6,2.9l-1.2,7.3h-1.8l1.2-7.3c0-0.4,0-0.7,0-1
			c-0.1-0.9-0.7-1.4-1.8-1.4c-0.7,0-1.3,0.2-1.8,0.6c-0.6,0.4-0.9,1-1.1,1.7l-1.3,7.4h-1.9l1.2-7.3c0.1-0.8,0-1.3-0.3-1.8
			c-0.3-0.4-0.8-0.6-1.5-0.6c-1.2,0-2.1,0.5-2.8,1.6l-1.4,8.1h-1.9l1.9-11.1L-5312.4-1690.3z"/>
		<path class="st7" d="M-5291.3-1679.2c0-0.2-0.1-0.4-0.1-0.6l0-0.6c-1,0.9-2.1,1.4-3.2,1.4c-1,0-1.8-0.3-2.4-0.9
			c-0.6-0.6-0.9-1.4-0.8-2.3c0.1-1.2,0.6-2.1,1.5-2.8c1-0.7,2.2-1,3.8-1l1.9,0l0.1-0.9c0.1-0.7-0.1-1.2-0.4-1.6
			c-0.3-0.4-0.8-0.6-1.5-0.6c-0.6,0-1.2,0.1-1.7,0.5c-0.5,0.3-0.8,0.8-0.9,1.3l-1.9,0c0.1-0.6,0.3-1.2,0.8-1.7
			c0.4-0.5,1-0.9,1.7-1.2c0.7-0.3,1.4-0.4,2.2-0.4c1.2,0,2.1,0.4,2.7,1.1c0.6,0.7,0.9,1.6,0.8,2.7l-0.9,5.5l-0.1,0.8
			c0,0.4,0,0.7,0.1,1.1l0,0.2H-5291.3z M-5294.2-1680.7c0.6,0,1.2-0.1,1.7-0.4c0.5-0.3,1-0.7,1.4-1.2l0.4-2.3l-1.4,0
			c-1.2,0-2.1,0.2-2.7,0.6c-0.6,0.4-1,0.9-1.1,1.6c-0.1,0.5,0.1,1,0.4,1.3C-5295.3-1680.9-5294.8-1680.7-5294.2-1680.7z"/>
		<path class="st7" d="M-5283.1-1682l3.9-8.3h2.1l-6.6,12.9c-0.9,1.8-2.1,2.7-3.5,2.7c-0.3,0-0.6-0.1-1.1-0.2l0.2-1.5l0.5,0.1
			c0.6,0,1.1-0.1,1.5-0.4c0.4-0.3,0.8-0.8,1.1-1.4l0.7-1.3l-1.9-10.9h1.9L-5283.1-1682z"/>
		<path class="st7" d="M-5271.3-1690.5c0.9,0,1.7,0.3,2.4,0.8s1.2,1.2,1.5,2c0.3,0.9,0.4,1.8,0.3,2.8l0,0.2c-0.1,1.1-0.5,2.1-1,2.9
			c-0.5,0.9-1.2,1.6-2,2c-0.8,0.5-1.7,0.7-2.7,0.7c-0.9,0-1.7-0.3-2.4-0.8s-1.2-1.2-1.5-2c-0.3-0.8-0.4-1.8-0.3-2.8
			c0.1-1.1,0.4-2.2,0.9-3.1s1.2-1.6,2-2.1C-5273.2-1690.3-5272.3-1690.6-5271.3-1690.5z M-5275.1-1684.6c0,0.4,0,0.9,0,1.3
			c0.1,0.8,0.3,1.5,0.7,1.9c0.4,0.5,1,0.7,1.7,0.7c0.6,0,1.2-0.1,1.7-0.5c0.5-0.3,1-0.8,1.3-1.5s0.6-1.4,0.7-2.2
			c0.1-0.6,0.1-1.2,0-1.6c-0.1-0.8-0.3-1.5-0.7-2s-1-0.7-1.7-0.8c-1,0-1.8,0.4-2.4,1.1s-1.1,1.8-1.2,3L-5275.1-1684.6z"/>
		<path class="st7" d="M-5258.9-1688.6l-0.9-0.1c-1.2,0-2.1,0.5-2.8,1.6l-1.4,7.9h-1.9l1.9-11.1l1.8,0l-0.3,1.3
			c0.8-1,1.7-1.5,2.8-1.5c0.2,0,0.5,0.1,0.9,0.2L-5258.9-1688.6z"/>
		<path class="st7" d="M-5248-1690.5c1.3,0,2.2,0.5,2.9,1.3l0.3-1.1h1.7l-2.7,15.4h-1.8l1-5.3c-0.9,0.8-1.9,1.3-3.1,1.2
			c-1,0-1.9-0.4-2.5-1.2c-0.6-0.8-1-1.8-1-3.1c0-0.8,0.1-1.7,0.3-2.7c0.2-0.9,0.6-1.8,1.1-2.5c0.5-0.7,1-1.2,1.7-1.6
			C-5249.4-1690.4-5248.7-1690.6-5248-1690.5z M-5251.2-1684.6l-0.1,0.9c0,1,0.2,1.8,0.5,2.3c0.4,0.5,0.9,0.8,1.6,0.8
			c1,0,2-0.5,2.8-1.5l1-5.5c-0.5-1-1.2-1.4-2.2-1.5c-0.9,0-1.7,0.3-2.4,1.1S-5251-1686.1-5251.2-1684.6z"/>
		<path class="st7" d="M-5234.9-1680.3c-0.9,0.9-2,1.3-3.3,1.3c-1.1,0-1.8-0.4-2.4-1.1c-0.5-0.7-0.7-1.7-0.6-3l1.2-7.2h1.9l-1.2,7.2
			c0,0.3,0,0.6,0,0.9c0,0.5,0.2,0.9,0.4,1.2s0.6,0.4,1.1,0.5c1.3,0,2.4-0.5,3.1-1.6l1.4-8.1h1.9l-1.9,11.1h-1.8L-5234.9-1680.3z"/>
		<path class="st7" d="M-5225.8-1679c-1.4,0-2.5-0.5-3.2-1.5s-1.1-2.3-1-3.8l0.1-0.4c0.1-1.1,0.4-2.1,1-3c0.5-0.9,1.2-1.6,2-2.1
			c0.8-0.5,1.6-0.7,2.5-0.7c1.1,0,2,0.4,2.7,1.1c0.7,0.7,1,1.7,1.1,3c0,0.4,0,0.9,0,1.3l-0.1,0.9h-7.2c-0.1,1,0,1.9,0.5,2.6
			c0.5,0.7,1.1,1.1,2,1.1c1.1,0,2.1-0.5,3-1.5l1.1,0.9c-0.5,0.7-1.1,1.2-1.8,1.6C-5224.1-1679.2-5224.9-1679-5225.8-1679z
			 M-5224.6-1689c-0.8,0-1.4,0.2-2,0.8c-0.6,0.5-1,1.3-1.4,2.4l5.4,0l0-0.2c0.1-0.9,0-1.6-0.4-2.1
			C-5223.4-1688.7-5223.9-1689-5224.6-1689z"/>
		<path class="st7" d="M-5208.7-1679.2h-1.9l2.2-12.6l-4,1.4l0.3-1.8l5.5-2h0.3L-5208.7-1679.2z"/>
		<path class="st7" d="M-5198.5-1679c-1.3,0-2.2-0.5-2.8-1.3c-0.6-0.9-0.9-2.1-0.9-3.7c0-0.5,0.1-1,0.1-1.5l0.4-2.5
			c0.3-2.1,1-3.7,1.9-4.8s2.1-1.6,3.7-1.5c1.3,0,2.2,0.5,2.8,1.3c0.6,0.8,0.9,2.1,0.9,3.7c0,0.5-0.1,1-0.1,1.5l-0.4,2.4
			c-0.4,2.2-1,3.9-1.9,4.9C-5195.8-1679.5-5197-1679-5198.5-1679z M-5194.4-1688.2c0.1-0.8,0.1-1.5,0.1-1.9c0-1.7-0.7-2.6-2-2.7
			c-1,0-1.7,0.3-2.3,1.1c-0.6,0.7-1,1.9-1.2,3.5l-0.4,3c-0.1,0.8-0.1,1.4-0.1,1.9c0,1.8,0.7,2.7,2,2.8c0.9,0,1.7-0.3,2.3-1
			c0.6-0.7,1-1.8,1.3-3.4L-5194.4-1688.2z"/>
		<path class="st7" d="M-5187.8-1693.5l-0.9,3.6l-1.1,0l0.8-5.2l1.4,0.1L-5187.8-1693.5z M-5185.1-1693.5l-0.9,3.6h-1.1l0.8-5.1
			l1.4,0.1L-5185.1-1693.5z"/>
	</g>
</g>
</svg>
