<svg xmlns="http://www.w3.org/2000/svg" width="400" height="345" viewBox="0 0 400 345">
  <g id="Grupo_140236" data-name="Grupo 140236" transform="translate(5544 1331.784)">
    <rect id="Rectángulo_294795" data-name="Rectángulo 294795" width="400" height="345" rx="15" transform="translate(-5544 -1331.784)" fill="#41b8df" opacity="0.55"/>
    <g id="Grupo_137131" data-name="Grupo 137131" transform="translate(-5903.416 -6113.447)">
      <g id="Grupo_137095" data-name="Grupo 137095">
        <g id="Grupo_137092" data-name="Grupo 137092">
          <path id="Trazado_195147" data-name="Trazado 195147" d="M588.294,5112.945h.09a.943.943,0,0,0,.943-.965l-1.43-62-4.214-.491,3.594,62.494A1.019,1.019,0,0,0,588.294,5112.945Z" fill="#9fc8ed"/>
        </g>
        <g id="Grupo_137093" data-name="Grupo 137093">
          <path id="Trazado_195148" data-name="Trazado 195148" d="M612.848,5112.945h.09a.944.944,0,0,0,.944-.965l-1.431-62-4.213-.491,3.593,62.494A1.018,1.018,0,0,0,612.848,5112.945Z" fill="#80b1e1"/>
        </g>
        <g id="Grupo_137094" data-name="Grupo 137094">
          <path id="Trazado_195149" data-name="Trazado 195149" d="M545.093,5112.945H545a.944.944,0,0,1-.943-.965l1.43-62,4.214-.491-3.593,62.494A1.019,1.019,0,0,1,545.093,5112.945Z" fill="#9fc8ed"/>
        </g>
        <path id="Trazado_195150" data-name="Trazado 195150" d="M615.64,5046.136v-42.484a13.535,13.535,0,0,0-13.535-13.536H571.5a13.536,13.536,0,0,0-13.536,13.536v44.108Z" fill="#9fc8ed"/>
        <path id="Rectángulo_294899" data-name="Rectángulo 294899" d="M6.707,0H63.164a0,0,0,0,1,0,0V6.707a0,0,0,0,1,0,0H0a0,0,0,0,1,0,0v0A6.707,6.707,0,0,1,6.707,0Z" transform="translate(615.64 5052.843) rotate(180)" fill="#80b1e1"/>
        <rect id="Rectángulo_294900" data-name="Rectángulo 294900" width="50.722" height="6.707" rx="3.354" transform="translate(593.111 5052.843) rotate(-180)" fill="#bddef7"/>
      </g>
      <g id="Grupo_137112" data-name="Grupo 137112">
        <rect id="Rectángulo_294901" data-name="Rectángulo 294901" width="176.455" height="152.323" transform="translate(471.966 4822.533)" fill="#80b1e1"/>
        <g id="Grupo_137111" data-name="Grupo 137111">
          <rect id="Rectángulo_294902" data-name="Rectángulo 294902" width="169.665" height="146.748" transform="translate(475.325 4825.07)" fill="#d6e9fa"/>
          <g id="Grupo_137096" data-name="Grupo 137096">
            <rect id="Rectángulo_294903" data-name="Rectángulo 294903" width="20.53" height="18.099" transform="translate(578.004 4836.812)" fill="#9fc8ed"/>
            <path id="Trazado_195151" data-name="Trazado 195151" d="M587.37,4838.966a.9.9,0,1,1,.9.9A.9.9,0,0,1,587.37,4838.966Z" fill="#f78e0d"/>
          </g>
          <g id="Grupo_137097" data-name="Grupo 137097">
            <rect id="Rectángulo_294904" data-name="Rectángulo 294904" width="20.529" height="18.099" transform="translate(577.399 4862.027) rotate(-3.993)" fill="#fff"/>
            <path id="Trazado_195152" data-name="Trazado 195152" d="M586.971,4864.644a.9.9,0,1,1,.959.834A.9.9,0,0,1,586.971,4864.644Z" fill="#9fc8ed"/>
          </g>
          <g id="Grupo_137098" data-name="Grupo 137098">
            <rect id="Rectángulo_294905" data-name="Rectángulo 294905" width="20.53" height="18.099" transform="matrix(1, -0.01, 0.01, 1, 483.363, 4940.476)" fill="#fff"/>
            <path id="Trazado_195153" data-name="Trazado 195153" d="M492.762,4943.656a.9.9,0,1,1,.908.89A.9.9,0,0,1,492.762,4943.656Z" fill="#9fc8ed"/>
          </g>
          <g id="Grupo_137099" data-name="Grupo 137099">
            <rect id="Rectángulo_294906" data-name="Rectángulo 294906" width="20.529" height="18.099" transform="translate(608.751 4871.53) rotate(10.133)" fill="#e9f3fd"/>
            <path id="Trazado_195154" data-name="Trazado 195154" d="M617.655,4875.612a.782.782,0,1,1,.632.906A.782.782,0,0,1,617.655,4875.612Z" fill="#5f9bd5"/>
          </g>
          <g id="Grupo_137100" data-name="Grupo 137100">
            <rect id="Rectángulo_294907" data-name="Rectángulo 294907" width="20.53" height="18.099" transform="translate(545.486 4862.447) rotate(-6.177)" fill="#e9f3fd"/>
            <path id="Trazado_195155" data-name="Trazado 195155" d="M555.178,4863.865a.782.782,0,1,1,.862.692A.783.783,0,0,1,555.178,4863.865Z" fill="#5f9bd5"/>
          </g>
          <g id="Grupo_137102" data-name="Grupo 137102">
            <g id="Grupo_137101" data-name="Grupo 137101">
              <path id="Trazado_195156" data-name="Trazado 195156" d="M566.435,4854.91H546.9v-13.128l5.41-4.97h14.13Z" fill="#fff"/>
              <path id="Trazado_195157" data-name="Trazado 195157" d="M546.791,4841.782h5.337l.177-4.97Z" fill="#9fc8ed"/>
            </g>
            <path id="Trazado_195158" data-name="Trazado 195158" d="M556.737,4838.486a.642.642,0,1,1,.643.642A.643.643,0,0,1,556.737,4838.486Z" fill="#9fc8ed"/>
          </g>
          <g id="Grupo_137104" data-name="Grupo 137104">
            <g id="Grupo_137103" data-name="Grupo 137103">
              <path id="Trazado_195159" data-name="Trazado 195159" d="M623.526,4962.379h-19.54V4949.25l5.41-4.971h14.13Z" fill="#fff"/>
              <path id="Trazado_195160" data-name="Trazado 195160" d="M603.882,4949.25h5.337l.177-4.971Z" fill="#9fc8ed"/>
            </g>
            <path id="Trazado_195161" data-name="Trazado 195161" d="M613.828,4945.954a.642.642,0,1,1,.642.643A.643.643,0,0,1,613.828,4945.954Z" fill="#9fc8ed"/>
          </g>
          <g id="Grupo_137106" data-name="Grupo 137106">
            <g id="Grupo_137105" data-name="Grupo 137105">
              <path id="Trazado_195162" data-name="Trazado 195162" d="M632.439,4936.325H612.9V4923.2l5.41-4.97h14.13Z" fill="#fff"/>
              <path id="Trazado_195163" data-name="Trazado 195163" d="M612.8,4923.2h5.337l.177-4.97Z" fill="#9fc8ed"/>
            </g>
            <path id="Trazado_195164" data-name="Trazado 195164" d="M622.741,4919.9a.642.642,0,1,1,.643.643A.643.643,0,0,1,622.741,4919.9Z" fill="#9fc8ed"/>
          </g>
          <g id="Grupo_137108" data-name="Grupo 137108">
            <g id="Grupo_137107" data-name="Grupo 137107">
              <path id="Trazado_195165" data-name="Trazado 195165" d="M606.654,4936.325h-19.54V4923.2l5.41-4.97h14.13Z" fill="#b0dad7"/>
              <path id="Trazado_195166" data-name="Trazado 195166" d="M587.01,4923.2h5.337l.177-4.97Z" fill="#94ccc3"/>
            </g>
            <path id="Trazado_195167" data-name="Trazado 195167" d="M596.956,4919.9a.642.642,0,1,1,.642.643A.642.642,0,0,1,596.956,4919.9Z" fill="#f28135"/>
          </g>
          <g id="Grupo_137110" data-name="Grupo 137110">
            <g id="Grupo_137109" data-name="Grupo 137109">
              <path id="Trazado_195168" data-name="Trazado 195168" d="M637.953,4850.38h-19.54v-13.128l5.41-4.971h14.13Z" fill="#b0dad7"/>
              <path id="Trazado_195169" data-name="Trazado 195169" d="M618.31,4837.251h5.337l.177-4.971Z" fill="#94ccc3"/>
            </g>
            <path id="Trazado_195170" data-name="Trazado 195170" d="M628.255,4833.955a.642.642,0,1,1,.643.642A.642.642,0,0,1,628.255,4833.955Z" fill="#f28135"/>
          </g>
        </g>
      </g>
      <g id="Grupo_137116" data-name="Grupo 137116">
        <g id="Grupo_137113" data-name="Grupo 137113">
          <path id="Trazado_195171" data-name="Trazado 195171" d="M673.535,5110.727c-.177,2.414-3.582,2.44-7.447,1.992s-2.837.529-8.248.6-7.277-1.713-7.538-2.486c-.234-.686,2.372-1.263,5.16-1.942.351-.084.7-.173,1.055-.262,3.144-.8,5.225-3.152,7.915-5.206,2.548-1.946,5.833-8.99,5.833-8.99l7.392-.333s-3.113,6.313-4.282,9.035a8.907,8.907,0,0,0-.1,5.077A9.447,9.447,0,0,1,673.535,5110.727Z" fill="#f79f6a"/>
          <path id="Trazado_195172" data-name="Trazado 195172" d="M666.088,5112.719c-3.865-.449-2.837.529-8.248.6s-7.277-1.713-7.538-2.486c-.234-.686,2.372-1.263,5.16-1.942l.034.051a15.164,15.164,0,0,0,7.94,1.422c3.632-.364,7.338-1.88,9.843-2.152a9.447,9.447,0,0,1,.256,2.511C673.358,5113.141,669.953,5113.167,666.088,5112.719Z" fill="#132b50"/>
        </g>
        <g id="Grupo_137114" data-name="Grupo 137114">
          <path id="Trazado_195173" data-name="Trazado 195173" d="M724.587,5111.228c-.175,2.414-3.581,2.443-7.446,2s-2.836.533-8.247.614-7.278-1.706-7.541-2.479c-.234-.686,2.372-1.266,5.159-1.947.351-.085.7-.174,1.054-.263,3.143-.8,5.222-3.157,7.91-5.215,2.546-1.948,0-13.485,0-13.485l8.131-.791s-.39,9.713-.385,14.13c0,1.742.8,3.418,1.1,4.927A9.492,9.492,0,0,1,724.587,5111.228Z" fill="#f79f6a"/>
          <path id="Trazado_195174" data-name="Trazado 195174" d="M717.141,5113.226c-3.865-.444-2.836.533-8.247.614s-7.278-1.706-7.541-2.479c-.234-.686,2.372-1.266,5.159-1.947l.033.051a15.168,15.168,0,0,0,7.942,1.414c3.631-.368,7.336-1.888,9.841-2.162a9.492,9.492,0,0,1,.259,2.511C724.412,5113.642,721.006,5113.671,717.141,5113.226Z" fill="#132b50"/>
        </g>
        <path id="Trazado_195175" data-name="Trazado 195175" d="M700.859,4911.836c-1.4-5.757.63-8.438,2.46-9.865.868-2.119,1.859-3.646,2.872-4.222a10.37,10.37,0,0,1,5.611-1.073,2.626,2.626,0,0,0-1.183-.562,8.7,8.7,0,0,1,3.1.81c13.36-5.148,15.459,14.523,15.178,19.093s-.241,9.952,6.71,13.552c13.261,6.871-4.408,32.76-4.408,32.76.337-3.693-16.7-23.182-25.592-29.018-2.164-3.186-2.934-8.814-2.991-9.257.373,4.462,1.137,6.965,1.819,8.375C700.387,4928.7,699.787,4919.745,700.859,4911.836Z" fill="#99332f"/>
        <path id="Trazado_195176" data-name="Trazado 195176" d="M706.137,4933.6c-.045.02,4.292,2.272,7.554,1.38,3.069-.837,5.074-4.815,5.031-4.824-1.3-.258-1.674-2.044-1.646-9.718l-.588.116-9.877,1.956s.225,3.109.231,6.037C706.849,4931.007,706.7,4933.339,706.137,4933.6Z" fill="#f79f6a"/>
        <path id="Trazado_195177" data-name="Trazado 195177" d="M706.611,4922.511s.225,3.109.231,6.037c5.528-.156,8.449-5.2,9.646-7.993Z" fill="#eb8349"/>
        <path id="Trazado_195178" data-name="Trazado 195178" d="M666.423,5098.351a2.423,2.423,0,0,0,2.2,3.157l3.858.18,4.083.125a3.275,3.275,0,0,0,2.643-1.206,114.789,114.789,0,0,0,19.376-36.684q.257-.814.543-1.649c4.018-11.718,12.349-26.426,16.74-39.74.7-2.12,1.326-4.116,1.889-6.005.18-.6.356-1.2.523-1.785a141.188,141.188,0,0,0,5.035-26.508l-31.7.253A698.359,698.359,0,0,1,666.423,5098.351Z" fill="#073e86"/>
        <path id="Trazado_195179" data-name="Trazado 195179" d="M696.045,4970.273c.08,15.086-2.213,21.558-2.213,21.558a42.6,42.6,0,0,0,29.707,1.82c.19-.06,13.357-3.065,13.357-3.065-.27-.611-2.671-10.778-2.934-11.338-3.406-7.314-5.992-10.521-6.4-12.77a47.826,47.826,0,0,1-.392-12.639,101.438,101.438,0,0,1,3.911-19.848c-4.4-1-8.511-2.757-13.087-4.473-1.052,1.311-4.269,2.682-7.06,2.619-3.213-.071-4.255-1.447-4.088-2.949-3.425,1.906-6.157,3.706-6.157,3.706-2.911,5.056-8.813,9.965-9.241,17.72C691.346,4952.521,696.043,4969.85,696.045,4970.273Z" fill="#fff"/>
        <path id="Trazado_195180" data-name="Trazado 195180" d="M723.309,4971.955c1.386,1.961,4.043,13.882,10.653,15.381-3.406-8.5-5.992-12.222-6.4-14.834a64.43,64.43,0,0,1-.392-14.681c-2.213-3.878-3.865-6.538-3.865-6.538-.173-.627-3.516-10.962-4.587-1.724S721.762,4969.761,723.309,4971.955Z" fill="#4c8998"/>
        <path id="Trazado_195181" data-name="Trazado 195181" d="M704.765,4925.284s13.077.216,13.087-7.93,1.7-13.6-6.647-14.087-9.975,2.624-10.639,5.343S701.364,4925.018,704.765,4925.284Z" fill="#f79f6a"/>
        <path id="Trazado_195182" data-name="Trazado 195182" d="M705.249,4903.067s3.581,9.557,9.076,10.97,7.879-.059,7.879-.059a15.561,15.561,0,0,1-5.09-9.193S707.95,4898.519,705.249,4903.067Z" fill="#99332f"/>
        <path id="Trazado_195183" data-name="Trazado 195183" d="M706.136,4903.843s-2.674,2.134-3.325,4.208-.946,6.345-2.19,6.2c0,0-2.7-6.5.334-10.171C704.169,4900.184,706.136,4903.843,706.136,4903.843Z" fill="#99332f"/>
        <path id="Trazado_195184" data-name="Trazado 195184" d="M684.188,4980.744l-6.177,18.832,3.523,1.413,10.213-16.638Z" fill="#f79f6a"/>
        <path id="Trazado_195185" data-name="Trazado 195185" d="M700.841,4931.785s-7.283,2.89-9.391,7.4-5.3,34.73-6.57,37.833-2.227,5.562-2.227,5.562,3.672,3.094,7.365,3.321S700.841,4931.785,700.841,4931.785Z" fill="#f28135"/>
        <path id="Trazado_195186" data-name="Trazado 195186" d="M706.85,4929.188s-7.567,18.692-7.789,22.475-.89,61.86-.89,61.86.445,2.67-4.673,1.557-6.453-2.225-6.453-2.225,4.9-35.825,3.56-48.286,10.236-32.784,10.236-32.784Z" fill="#f28135"/>
        <path id="Trazado_195187" data-name="Trazado 195187" d="M672.477,5101.688l4.433.136a2.564,2.564,0,0,0,2.056-.928,114.41,114.41,0,0,0,19.613-36.973q.257-.814.543-1.649c4.018-11.718,12.349-26.426,16.74-39.74.7-2.12,1.326-4.116,1.889-6.005.18-.6.356-1.2.523-1.785L713.6,5011.2s-14.016,22.7-18.355,44.056C691.48,5073.811,676.385,5096.137,672.477,5101.688Z" fill="#08305d"/>
        <path id="Trazado_195188" data-name="Trazado 195188" d="M713.118,5057.247c-.076,9.827.39,31.729,1.586,42.435a1.934,1.934,0,0,0,1.924,1.719h3.308c1.394,0,2.437-.01,3.13-.02a1.271,1.271,0,0,0,1.227-1.027c3.29-16.739,5.644-30.646,7.367-42.662,1.442-10.057,2.724-18.68,3.71-26.1.992-7.47,1.682-13.725,1.929-19.01.038-.832.067-1.642.082-2.428s.02-1.557.014-2.3L710,5005.178C710.348,5023.378,713.163,5051.21,713.118,5057.247Z" fill="#073e86"/>
        <path id="Trazado_195189" data-name="Trazado 195189" d="M719.936,5101.4c1.252,0,2.222-.008,2.908-.017a1.544,1.544,0,0,0,1.492-1.246c3.267-16.643,5.608-30.482,7.324-42.446,1.442-10.057,2.724-18.68,3.71-26.1.992-7.47,1.682-13.725,1.929-19.01l-10.051,5.912s6.415,2.263,3.968,19.4S723.343,5098.976,719.936,5101.4Z" fill="#08305d"/>
        <path id="Trazado_195190" data-name="Trazado 195190" d="M718.642,5012.41s1.93,6.972,8.6,6.082,16.168-4.9,16.168-4.9-2.852-9.014-6.4-20.856c-4.295-14.337-9.611-32.819-12.116-44.477a72.184,72.184,0,0,1-1.362-7.948L718,4929.569s-8.257,18.534-8.7,23.207S718.642,5012.41,718.642,5012.41Z" fill="#f28135"/>
        <path id="Trazado_195191" data-name="Trazado 195191" d="M725.308,4952.079l-7.31-22.51c.02.01,9.232,2.741,13.866,5.083,0,0,2.9,3.734,4.689,12.349,0,0,1.894,20.683-2.334,28.249,0,0-13.351,2.67-34.713-4.673v-4.9s23.364,1.224,28.148,1.78Z" fill="#f79f6a"/>
        <path id="Trazado_195192" data-name="Trazado 195192" d="M718.938,4962.566c.3,7.566,2.079,22.252,17.951,30.114.042.02.084.042.127.06-4.295-14.337-9.611-32.819-12.116-44.477C721.985,4952.62,718.776,4958.4,718.938,4962.566Z" fill="#ea661c"/>
        <path id="Trazado_195193" data-name="Trazado 195193" d="M718,4929.569s13.55.955,16.814,8.224,4.3,31.449.148,38.569c0,0-5.718,1.629-15.832-.262l-.374-.071s-3.227-7.9-.334-9.457c0,0,8.53.445,7.64-2.374S718,4929.569,718,4929.569Z" fill="#f28135"/>
        <g id="Grupo_137115" data-name="Grupo 137115">
          <path id="Trazado_195194" data-name="Trazado 195194" d="M684.026,4968.706l.4,1.283,22.234-6.916a.854.854,0,0,0,.15-.787.629.629,0,0,0-.549-.5Z" fill="#99332f"/>
          <path id="Trazado_195195" data-name="Trazado 195195" d="M682.418,4969.918l1.608-1.212.4,1.283Z" fill="#99332f"/>
        </g>
        <path id="Trazado_195196" data-name="Trazado 195196" d="M678.889,4999.061s-5.641,3.117-6.383,5.491-.232,7.348.663,7.273,2.232-5.343,2.974-5.714,1.781-1.484,1.781-.668-.742,2.3-.371,2.523,1.558-2.077,2.375-2.523,1.159-4.115,1.952-5.1S678.889,4999.061,678.889,4999.061Z" fill="#f79f6a"/>
        <path id="Trazado_195197" data-name="Trazado 195197" d="M699.506,4965.682s-5.044-3.107-7.16-2.629-7.509,4.384-4.915,5.23,4.695-.042,5.692.572,1.734,1.737,6.383,1.722S699.506,4965.682,699.506,4965.682Z" fill="#f79f6a"/>
      </g>
      <g id="Grupo_137125" data-name="Grupo 137125">
        <g id="Grupo_137120" data-name="Grupo 137120">
          <g id="Grupo_137117" data-name="Grupo 137117">
            <path id="Trazado_195198" data-name="Trazado 195198" d="M409.39,5113.11h-.09a.942.942,0,0,1-.943-.965l1.43-62,4.213-.492-3.593,62.5A1.018,1.018,0,0,1,409.39,5113.11Z" fill="#9fc8ed"/>
          </g>
          <g id="Grupo_137118" data-name="Grupo 137118">
            <path id="Trazado_195199" data-name="Trazado 195199" d="M384.836,5113.11h-.09a.943.943,0,0,1-.944-.965l1.431-62,4.214-.492-3.594,62.5A1.018,1.018,0,0,1,384.836,5113.11Z" fill="#80b1e1"/>
          </g>
          <g id="Grupo_137119" data-name="Grupo 137119">
            <path id="Trazado_195200" data-name="Trazado 195200" d="M452.591,5113.11h.09a.943.943,0,0,0,.943-.965l-1.431-62-4.213-.492,3.593,62.5A1.019,1.019,0,0,0,452.591,5113.11Z" fill="#9fc8ed"/>
          </g>
          <path id="Trazado_195201" data-name="Trazado 195201" d="M382.044,5046.3v-42.485a13.535,13.535,0,0,1,13.535-13.535h30.609a13.536,13.536,0,0,1,13.536,13.535v44.108Z" fill="#9fc8ed"/>
          <path id="Rectángulo_294908" data-name="Rectángulo 294908" d="M0,0H63.164a0,0,0,0,1,0,0V6.707a0,0,0,0,1,0,0H6.707A6.707,6.707,0,0,1,0,0V0A0,0,0,0,1,0,0Z" transform="translate(382.044 5046.302)" fill="#80b1e1"/>
          <rect id="Rectángulo_294909" data-name="Rectángulo 294909" width="50.722" height="6.707" rx="3.354" transform="translate(404.573 5046.302)" fill="#9fc8ed"/>
        </g>
        <g id="Grupo_137124" data-name="Grupo 137124">
          <path id="Trazado_195202" data-name="Trazado 195202" d="M450.554,5035.716c-4.385,7.632-9.9,10.578-9.9,10.578H417.709S453.9,5029.894,450.554,5035.716Z" fill="#132b50"/>
          <g id="Grupo_137121" data-name="Grupo 137121">
            <path id="Trazado_195203" data-name="Trazado 195203" d="M432.932,5094.765a2.119,2.119,0,0,0-.378,2.268l.005.012c.548,1.512,2.356,3.2,4.456,4.887.268.217.507.414.715.6.054.048.109.1.16.144s.083.076.124.112c1.958,1.8,1.221,2.219,4.739,5.882,4.012,4.174,6.774,4.249,7.56,3.869.665-.324-.686-2.538-2.182-5.026-.073-.12-.144-.242-.218-.363-.2-.331-.4-.667-.6-1-1.753-3-1.3-4.4-.887-8.857.338-3.621,5.634-20.232,5.634-20.232l-7.688-1.325s-2.315,13.227-4.866,15.265c-1.364,1.085-2.891,1.1-4.2,1.9-.093.056-.184.113-.273.172A10.068,10.068,0,0,0,432.932,5094.765Z" fill="#f79f6a"/>
            <path id="Trazado_195204" data-name="Trazado 195204" d="M432.932,5094.765a2.119,2.119,0,0,0-.378,2.268l.005.012c.67,1.51,2.433,3.191,4.463,4.872.265.22.5.422.708.611.054.048.109.1.16.144s.083.076.124.112c1.958,1.8,1.221,2.219,4.739,5.882,4.012,4.174,6.774,4.249,7.56,3.869.665-.324-.686-2.538-2.182-5.026a17.1,17.1,0,0,1-7.152-5.27c-2.415-3.082-4.026-7.043-5.671-9.337-.093.056-.184.113-.273.172A10.068,10.068,0,0,0,432.932,5094.765Z" fill="#132b50"/>
            <path id="Trazado_195205" data-name="Trazado 195205" d="M494.923,5089.963c.475,2.373,3.857,1.977,7.636,1.054s2.881.174,8.26-.421,7.008-2.6,7.172-3.4c.147-.71-2.511-.96-5.361-1.288-.359-.04-.719-.085-1.079-.129-3.218-.4-5.575-2.481-8.5-4.187-2.769-1.615-6.9-8.2-6.9-8.2l-7.376.585s3.871,5.879,5.368,8.435a8.907,8.907,0,0,1,.724,5.027A9.481,9.481,0,0,0,494.923,5089.963Z" fill="#f79f6a"/>
            <path id="Trazado_195206" data-name="Trazado 195206" d="M502.559,5091.017c3.78-.924,2.881.174,8.26-.421s7.008-2.6,7.172-3.4c.147-.71-2.511-.96-5.361-1.288l-.027.055a15.163,15.163,0,0,1-7.7,2.394c-3.649.089-7.514-.957-10.034-.916a9.481,9.481,0,0,0,.057,2.523C495.4,5092.336,498.78,5091.94,502.559,5091.017Z" fill="#132b50"/>
            <path id="Trazado_195207" data-name="Trazado 195207" d="M466.655,5042.8l-6.9,18.555-9,24.228a14.619,14.619,0,0,1-4.783-.437,20.741,20.741,0,0,1-4.625-2.252s2.5-26.013,7.163-40.946c1.2-3.833,2.534-6.934,4.012-8.679C459.753,5024.723,466.655,5042.8,466.655,5042.8Z" fill="#132b50"/>
            <path id="Trazado_195208" data-name="Trazado 195208" d="M459.644,5013.329c-4.518-1.457-17.4.414-30.345,2.948l-2.71-4.47-27.957-2.184s-9.225,20.458-4.174,33.494a4.727,4.727,0,0,0,4.731,3.185h.409s16.639-.01,22.042-.01c13.9,0,29.423-9.557,31.431-9.958,3.287-.658,4.6,5.915,7.887,12.816s30.892,30.563,30.892,30.563,4.243.042,5.995-.615a5.91,5.91,0,0,0,2.575-1.625S469.832,5016.615,459.644,5013.329Z" fill="#0d397b"/>
            <path id="Trazado_195209" data-name="Trazado 195209" d="M425.489,4930.4c-3.581-1.881-9.03-2.135-9.916-2.254-10.594-1.424-16.969,13.97-17.344,18.634-.692,8.6-5.24,9.908-11.641,15.293-12.837,10.8-9.072,23.341-2.054,28,4.212,2.8,11.635,0,11.635,0,.1.074,20.3-11.29,30.256-16.771C441.349,4971.185,434.615,4935.195,425.489,4930.4Z" fill="#132b50"/>
            <path id="Trazado_195210" data-name="Trazado 195210" d="M418.08,4968.641c.044.028-4.9,1.715-8.2.252-3.109-1.374-5.464-6.488-5.418-6.491,1.414-.065,2.967-1.3,4.163-9.414l.6.216,10.125,3.643s-.734,3.249-1.208,6.342C417.742,4965.786,417.527,4968.274,418.08,4968.641Z" fill="#f79f6a"/>
            <path id="Trazado_195211" data-name="Trazado 195211" d="M419.35,4956.847s-.734,3.249-1.208,6.342c-5.816-1.047-8.1-6.841-8.917-9.985Z" fill="#eb8349"/>
            <path id="Trazado_195212" data-name="Trazado 195212" d="M420.858,4960.071s-13.853-1.859-12.563-10.468.372-14.647,9.272-13.824,10.121,4.366,10.389,7.344S424.494,4960.333,420.858,4960.071Z" fill="#f79f6a"/>
            <path id="Trazado_195213" data-name="Trazado 195213" d="M427.451,4938.4s-8.868,7.642-14.9,8.258-8.315-1.32-8.315-1.32a23.557,23.557,0,0,0,5.7-7.716,4.24,4.24,0,0,1,3.5-2.5C417.734,4934.754,425.9,4934.584,427.451,4938.4Z" fill="#132b50"/>
            <path id="Trazado_195214" data-name="Trazado 195214" d="M421.908,4937.719s2.966,2.869,3.9,5c.9,2.053,1.172,6.964.454,8.914,0,0,4.622-8.988,2.005-13.354C425.493,4933.644,421.908,4937.719,421.908,4937.719Z" fill="#132b50"/>
            <path id="Trazado_195215" data-name="Trazado 195215" d="M429.745,4989.047c-.419,28.042-.115,22.182-3.182,24.843-.739.64-2.817,1.022-5.552,1.2-8.6.571-23.713-.846-24.288-2.435-1.983-5.5-.583-7.206-2.238-15.624-.172-.9-.386-1.864-.636-2.919-1.38-5.782-2.723-7.749,2.172-17.037,4.439-8.414,9.05-15.243,9.465-15,11.711,6.952,12.655,1.108,12.655,1.108S429.951,4975.37,429.745,4989.047Z" fill="#fff"/>
            <path id="Trazado_195216" data-name="Trazado 195216" d="M459.759,5061.352l-9,24.228a14.619,14.619,0,0,1-4.783-.437,20.741,20.741,0,0,1-4.625-2.252s2.5-26.013,7.163-40.946Z" fill="#0d397b"/>
            <path id="Trazado_195217" data-name="Trazado 195217" d="M418.142,4963.189s12.05,2.043,13.465,7.231,9.742,35.689,9.742,35.689-6.126,1.1-8.956-1.729-9.847-26.256-9.847-26.256Z" fill="#fff"/>
            <path id="Trazado_195218" data-name="Trazado 195218" d="M421.011,5015.093c-8.6.571-23.713-.846-24.288-2.435-1.983-5.5-.583-7.206-2.238-15.624l4.147-11.678s-.685,13,3.15,16.425,15.7,6.6,17.566,9.46A10.439,10.439,0,0,1,421.011,5015.093Z" fill="#e5f0fb"/>
            <path id="Trazado_195219" data-name="Trazado 195219" d="M411.16,5009.623s8.483-1.888,9.851-1.135,4.714,3.494,5.133,4.448-3.047-.724-4.175-1.026c-.73-.2-2.652.471-3.6.789-4,1.334-6.457.648-6.457.648Z" fill="#f79f6a"/>
            <path id="Trazado_195220" data-name="Trazado 195220" d="M405.479,4962.076s-11.391.7-15.334,6.2c-5.55,7.741-16.561,40.734-10.251,45.134,7.107,4.956,32.344,1.3,32.344,1.3s.84-3.926-.329-5.825-20.157-4.966-21.033-5.842,10.955-17.09,10.955-19.719S405.479,4962.076,405.479,4962.076Z" fill="#fff"/>
            <path id="Trazado_195221" data-name="Trazado 195221" d="M421.422,5010.849a16.4,16.4,0,0,0,2.36,2.566,1.734,1.734,0,0,0,.959.205l-1.2-2.155Z" fill="#f79f6a"/>
            <path id="Trazado_195222" data-name="Trazado 195222" d="M421.011,5008.488l5.168,2.509a.921.921,0,0,1-.856.331,12.415,12.415,0,0,1-2.242-.616Z" fill="#f79f6a"/>
          </g>
          <g id="Grupo_137123" data-name="Grupo 137123">
            <g id="Grupo_137122" data-name="Grupo 137122">
              <path id="Trazado_195223" data-name="Trazado 195223" d="M423.782,5016.927H464.66l12.3-30.579H436.142Z" fill="#f28135"/>
              <path id="Trazado_195224" data-name="Trazado 195224" d="M465.139,5015.736H411.16v1.191h53.5Z" fill="#ea661c"/>
            </g>
            <path id="Trazado_195225" data-name="Trazado 195225" d="M454.341,5001.638a1.417,1.417,0,0,0-1.388-1.947,2.791,2.791,0,0,0-2.505,1.947,1.416,1.416,0,0,0,1.388,1.946A2.789,2.789,0,0,0,454.341,5001.638Z" fill="#fff"/>
          </g>
        </g>
      </g>
      <g id="Grupo_137128" data-name="Grupo 137128">
        <g id="Grupo_137126" data-name="Grupo 137126">
          <path id="Trazado_195226" data-name="Trazado 195226" d="M637.282,5114.243h.119a1.288,1.288,0,0,0,1.247-1.352l-1.891-86.806-5.572-.688,4.751,87.5A1.385,1.385,0,0,0,637.282,5114.243Z" fill="#5f9bd5"/>
        </g>
        <g id="Grupo_137127" data-name="Grupo 137127">
          <path id="Trazado_195227" data-name="Trazado 195227" d="M411.363,5114.243h-.119a1.289,1.289,0,0,1-1.248-1.352l1.892-86.806,5.572-.688-4.752,87.5A1.384,1.384,0,0,1,411.363,5114.243Z" fill="#5f9bd5"/>
        </g>
        <path id="Rectángulo_294910" data-name="Rectángulo 294910" d="M5.237,0h235a5.237,5.237,0,0,1,5.237,5.237v0a5.237,5.237,0,0,1-5.237,5.237h-235A5.238,5.238,0,0,1,0,5.237v0A5.237,5.237,0,0,1,5.237,0Z" transform="translate(402.051 5017.207)" fill="#5f9bd5"/>
      </g>
      <g id="Grupo_137130" data-name="Grupo 137130">
        <g id="Grupo_137129" data-name="Grupo 137129">
          <path id="Trazado_195228" data-name="Trazado 195228" d="M565.053,5017.207H524.175l-12.3-30.579h40.815Z" fill="#0d397b"/>
          <path id="Trazado_195229" data-name="Trazado 195229" d="M523.7,5016.016h53.979v1.191h-53.5Z" fill="#0d397b"/>
        </g>
        <path id="Trazado_195230" data-name="Trazado 195230" d="M534.494,5001.917a1.416,1.416,0,0,1,1.388-1.946,2.787,2.787,0,0,1,2.5,1.946,1.416,1.416,0,0,1-1.388,1.947A2.788,2.788,0,0,1,534.494,5001.917Z" fill="#fff"/>
      </g>
      <path id="Trazado_195231" data-name="Trazado 195231" d="M753.484,5114.052v.111c0,.177-.2.323-.439.323H366.639c-.241,0-.439-.146-.439-.323v-.111c0-.178.2-.324.439-.324H753.045C753.286,5113.728,753.484,5113.874,753.484,5114.052Z" fill="#1f2841"/>
    </g>
    <g id="Grupo_137177" data-name="Grupo 137177" transform="translate(-5903.416 -6113.447)">
      <g id="Grupo_137136" data-name="Grupo 137136">
        <g id="Grupo_137135" data-name="Grupo 137135">
          <g id="Grupo_137134" data-name="Grupo 137134">
            <g id="Grupo_137133" data-name="Grupo 137133">
              <g id="Grupo_137132" data-name="Grupo 137132">
                <path id="Trazado_195232" data-name="Trazado 195232" d="M569.318,4867.764H495.856c-2.347,0-4.249,2.379-4.249,5.312v44.484c0,2.934,1.9,5.312,4.249,5.312h6.257l-2.851,9.732,11.259-9.732h58.8c2.347,0,4.249-2.378,4.249-5.312v-44.484C573.567,4870.143,571.665,4867.764,569.318,4867.764Z" fill="#fff"/>
              </g>
            </g>
          </g>
        </g>
      </g>
      <g id="Grupo_137146" data-name="Grupo 137146">
        <g id="Grupo_137137" data-name="Grupo 137137">
          <path id="Trazado_195233" data-name="Trazado 195233" d="M501.936,4876.867v4.9h.806v.367h-2.291v-.367h.807v-4.536h-.88v-.367Z" fill="#2393bf"/>
        </g>
        <g id="Grupo_137138" data-name="Grupo 137138">
          <path id="Trazado_195234" data-name="Trazado 195234" d="M509.016,4882.265a1.484,1.484,0,0,1-.755-.19,1.639,1.639,0,0,1-.557-.543,2.734,2.734,0,0,1-.346-.855,5.417,5.417,0,0,1,.009-2.3,2.789,2.789,0,0,1,.37-.885,1.742,1.742,0,0,1,.585-.561,1.517,1.517,0,0,1,.771-.2,1.468,1.468,0,0,1,.748.19,1.616,1.616,0,0,1,.555.543,2.745,2.745,0,0,1,.345.855,4.9,4.9,0,0,1,.119,1.125,5.117,5.117,0,0,1-.117,1.13,2.938,2.938,0,0,1-.348.891,1.752,1.752,0,0,1-.576.587A1.515,1.515,0,0,1,509.016,4882.265Zm.019-.357a1.135,1.135,0,0,0,.3-.039.687.687,0,0,0,.26-.14.956.956,0,0,0,.215-.275,1.833,1.833,0,0,0,.159-.444,4.685,4.685,0,0,0,.1-.649c.023-.252.035-.547.035-.887a8.073,8.073,0,0,0-.073-1.212,2.486,2.486,0,0,0-.207-.726.745.745,0,0,0-.327-.353.989.989,0,0,0-.43-.092,1.033,1.033,0,0,0-.442.094.776.776,0,0,0-.339.36,2.489,2.489,0,0,0-.216.743,7.945,7.945,0,0,0-.077,1.237q0,.5.033.866a4.5,4.5,0,0,0,.1.635,1.845,1.845,0,0,0,.152.435.877.877,0,0,0,.205.27.669.669,0,0,0,.255.138A1.117,1.117,0,0,0,509.035,4881.908Z" fill="#2393bf"/>
        </g>
        <g id="Grupo_137139" data-name="Grupo 137139">
          <path id="Trazado_195235" data-name="Trazado 195235" d="M517.318,4882.265a1.481,1.481,0,0,1-.755-.19,1.642,1.642,0,0,1-.558-.543,2.733,2.733,0,0,1-.346-.855,5.415,5.415,0,0,1,.009-2.3,2.812,2.812,0,0,1,.37-.885,1.76,1.76,0,0,1,.585-.561,1.523,1.523,0,0,1,.772-.2,1.471,1.471,0,0,1,.748.19,1.625,1.625,0,0,1,.555.543,2.768,2.768,0,0,1,.344.855,4.839,4.839,0,0,1,.12,1.125,5.115,5.115,0,0,1-.118,1.13,2.939,2.939,0,0,1-.348.891,1.759,1.759,0,0,1-.575.587A1.518,1.518,0,0,1,517.318,4882.265Zm.018-.357a1.13,1.13,0,0,0,.3-.039.692.692,0,0,0,.261-.14.953.953,0,0,0,.214-.275,1.79,1.79,0,0,0,.16-.444,5.006,5.006,0,0,0,.1-.649c.023-.252.034-.547.034-.887a8.068,8.068,0,0,0-.073-1.212,2.484,2.484,0,0,0-.207-.726.744.744,0,0,0-.326-.353.993.993,0,0,0-.431-.092,1.039,1.039,0,0,0-.442.094.776.776,0,0,0-.339.36,2.487,2.487,0,0,0-.216.743,8.068,8.068,0,0,0-.077,1.237q0,.5.033.866a4.659,4.659,0,0,0,.095.635,1.942,1.942,0,0,0,.152.435.878.878,0,0,0,.206.27.672.672,0,0,0,.254.138A1.123,1.123,0,0,0,517.336,4881.908Z" fill="#2393bf"/>
        </g>
        <g id="Grupo_137140" data-name="Grupo 137140">
          <path id="Trazado_195236" data-name="Trazado 195236" d="M533.5,4876.867v4.9h.807v.367h-2.291v-.367h.806v-4.536h-.88v-.367Z" fill="#2393bf"/>
        </g>
        <g id="Grupo_137141" data-name="Grupo 137141">
          <path id="Trazado_195237" data-name="Trazado 195237" d="M526.028,4876.867v4.9h.806v.367h-2.291v-.367h.806v-4.536h-.879v-.367Z" fill="#2393bf"/>
        </g>
        <g id="Grupo_137142" data-name="Grupo 137142">
          <path id="Trazado_195238" data-name="Trazado 195238" d="M540.579,4882.265a1.484,1.484,0,0,1-.755-.19,1.631,1.631,0,0,1-.557-.543,2.734,2.734,0,0,1-.347-.855,5.4,5.4,0,0,1,.01-2.3,2.79,2.79,0,0,1,.37-.885,1.748,1.748,0,0,1,.584-.561,1.523,1.523,0,0,1,.772-.2,1.468,1.468,0,0,1,.748.19,1.616,1.616,0,0,1,.555.543,2.77,2.77,0,0,1,.345.855,4.9,4.9,0,0,1,.119,1.125,5.121,5.121,0,0,1-.117,1.13,2.965,2.965,0,0,1-.349.891,1.75,1.75,0,0,1-.575.587A1.515,1.515,0,0,1,540.579,4882.265Zm.018-.357a1.138,1.138,0,0,0,.3-.039.687.687,0,0,0,.26-.14.956.956,0,0,0,.215-.275,1.832,1.832,0,0,0,.159-.444,4.681,4.681,0,0,0,.1-.649c.023-.252.035-.547.035-.887a8.2,8.2,0,0,0-.073-1.212,2.451,2.451,0,0,0-.208-.726.744.744,0,0,0-.326-.353.99.99,0,0,0-.431-.092,1.031,1.031,0,0,0-.441.094.776.776,0,0,0-.339.36,2.517,2.517,0,0,0-.217.743,8.069,8.069,0,0,0-.077,1.237q0,.5.033.866a4.5,4.5,0,0,0,.1.635,1.847,1.847,0,0,0,.152.435.877.877,0,0,0,.205.27.669.669,0,0,0,.255.138A1.115,1.115,0,0,0,540.6,4881.908Z" fill="#2393bf"/>
        </g>
        <g id="Grupo_137143" data-name="Grupo 137143">
          <path id="Trazado_195239" data-name="Trazado 195239" d="M548.459,4876.867v4.9h.806v.367h-2.291v-.367h.807v-4.536h-.88v-.367Z" fill="#2393bf"/>
        </g>
        <g id="Grupo_137144" data-name="Grupo 137144">
          <path id="Trazado_195240" data-name="Trazado 195240" d="M555.539,4882.265a1.484,1.484,0,0,1-.755-.19,1.64,1.64,0,0,1-.557-.543,2.735,2.735,0,0,1-.346-.855,5.418,5.418,0,0,1,.009-2.3,2.788,2.788,0,0,1,.37-.885,1.742,1.742,0,0,1,.585-.561,1.517,1.517,0,0,1,.771-.2,1.468,1.468,0,0,1,.748.19,1.628,1.628,0,0,1,.556.543,2.768,2.768,0,0,1,.344.855,4.842,4.842,0,0,1,.119,1.125,5.117,5.117,0,0,1-.117,1.13,2.939,2.939,0,0,1-.348.891,1.753,1.753,0,0,1-.576.587A1.513,1.513,0,0,1,555.539,4882.265Zm.019-.357a1.135,1.135,0,0,0,.3-.039.687.687,0,0,0,.26-.14.956.956,0,0,0,.215-.275,1.792,1.792,0,0,0,.159-.444,4.69,4.69,0,0,0,.1-.649c.024-.252.035-.547.035-.887a8.068,8.068,0,0,0-.073-1.212,2.486,2.486,0,0,0-.207-.726.741.741,0,0,0-.327-.353.986.986,0,0,0-.43-.092,1.033,1.033,0,0,0-.442.094.776.776,0,0,0-.339.36,2.489,2.489,0,0,0-.216.743,7.946,7.946,0,0,0-.077,1.237q0,.5.033.866a4.51,4.51,0,0,0,.1.635,1.892,1.892,0,0,0,.152.435.876.876,0,0,0,.205.27.669.669,0,0,0,.255.138A1.117,1.117,0,0,0,555.558,4881.908Z" fill="#2393bf"/>
        </g>
        <g id="Grupo_137145" data-name="Grupo 137145">
          <path id="Trazado_195241" data-name="Trazado 195241" d="M563.419,4876.867v4.9h.806v.367h-2.291v-.367h.807v-4.536h-.88v-.367Z" fill="#2393bf"/>
        </g>
      </g>
      <g id="Grupo_137156" data-name="Grupo 137156">
        <g id="Grupo_137147" data-name="Grupo 137147">
          <path id="Trazado_195242" data-name="Trazado 195242" d="M501.936,4886.155v4.9h.806v.367h-2.291v-.367h.807v-4.536h-.88v-.367Z" fill="#2393bf"/>
        </g>
        <g id="Grupo_137148" data-name="Grupo 137148">
          <path id="Trazado_195243" data-name="Trazado 195243" d="M509.016,4891.553a1.479,1.479,0,0,1-.755-.19,1.635,1.635,0,0,1-.557-.543,2.735,2.735,0,0,1-.346-.854,5.422,5.422,0,0,1,.009-2.3,2.781,2.781,0,0,1,.37-.884,1.748,1.748,0,0,1,.585-.562,1.517,1.517,0,0,1,.771-.2,1.468,1.468,0,0,1,.748.19,1.616,1.616,0,0,1,.555.543,2.745,2.745,0,0,1,.345.855,4.909,4.909,0,0,1,.119,1.125,5.117,5.117,0,0,1-.117,1.13,2.928,2.928,0,0,1-.348.891,1.737,1.737,0,0,1-.576.587A1.511,1.511,0,0,1,509.016,4891.553Zm.019-.357a1.136,1.136,0,0,0,.3-.039.687.687,0,0,0,.26-.14.956.956,0,0,0,.215-.275,1.833,1.833,0,0,0,.159-.444,4.685,4.685,0,0,0,.1-.649q.034-.378.035-.886a8.1,8.1,0,0,0-.073-1.213,2.487,2.487,0,0,0-.207-.726.745.745,0,0,0-.327-.353.988.988,0,0,0-.43-.091,1.032,1.032,0,0,0-.442.093.773.773,0,0,0-.339.36,2.48,2.48,0,0,0-.216.743,7.945,7.945,0,0,0-.077,1.237q0,.5.033.866a4.491,4.491,0,0,0,.1.635,1.861,1.861,0,0,0,.152.435.9.9,0,0,0,.205.271.68.68,0,0,0,.255.137A1.117,1.117,0,0,0,509.035,4891.2Z" fill="#2393bf"/>
        </g>
        <g id="Grupo_137149" data-name="Grupo 137149">
          <path id="Trazado_195244" data-name="Trazado 195244" d="M517.318,4891.553a1.477,1.477,0,0,1-.755-.19,1.637,1.637,0,0,1-.558-.543,2.734,2.734,0,0,1-.346-.854,5.42,5.42,0,0,1,.009-2.3,2.8,2.8,0,0,1,.37-.884,1.767,1.767,0,0,1,.585-.562,1.523,1.523,0,0,1,.772-.2,1.471,1.471,0,0,1,.748.19,1.625,1.625,0,0,1,.555.543,2.768,2.768,0,0,1,.344.855,4.851,4.851,0,0,1,.12,1.125,5.115,5.115,0,0,1-.118,1.13,2.929,2.929,0,0,1-.348.891,1.744,1.744,0,0,1-.575.587A1.513,1.513,0,0,1,517.318,4891.553Zm.018-.357a1.13,1.13,0,0,0,.3-.039.692.692,0,0,0,.261-.14.953.953,0,0,0,.214-.275,1.79,1.79,0,0,0,.16-.444,5.006,5.006,0,0,0,.1-.649q.035-.378.034-.886a8.094,8.094,0,0,0-.073-1.213,2.485,2.485,0,0,0-.207-.726.744.744,0,0,0-.326-.353.993.993,0,0,0-.431-.091,1.039,1.039,0,0,0-.442.093.773.773,0,0,0-.339.36,2.478,2.478,0,0,0-.216.743,8.068,8.068,0,0,0-.077,1.237q0,.5.033.866a4.648,4.648,0,0,0,.095.635,1.96,1.96,0,0,0,.152.435.9.9,0,0,0,.206.271.684.684,0,0,0,.254.137A1.123,1.123,0,0,0,517.336,4891.2Z" fill="#2393bf"/>
        </g>
        <g id="Grupo_137150" data-name="Grupo 137150">
          <path id="Trazado_195245" data-name="Trazado 195245" d="M525.619,4891.553a1.476,1.476,0,0,1-.755-.19,1.626,1.626,0,0,1-.557-.543,2.735,2.735,0,0,1-.347-.854,5.421,5.421,0,0,1,.009-2.3,2.781,2.781,0,0,1,.371-.884,1.754,1.754,0,0,1,.584-.562,1.523,1.523,0,0,1,.772-.2,1.47,1.47,0,0,1,.748.19,1.616,1.616,0,0,1,.555.543,2.8,2.8,0,0,1,.345.855,4.911,4.911,0,0,1,.119,1.125,5.053,5.053,0,0,1-.118,1.13,2.927,2.927,0,0,1-.348.891,1.744,1.744,0,0,1-.575.587A1.513,1.513,0,0,1,525.619,4891.553Zm.018-.357a1.138,1.138,0,0,0,.3-.039.7.7,0,0,0,.26-.14.954.954,0,0,0,.214-.275,1.787,1.787,0,0,0,.16-.444,5,5,0,0,0,.1-.649q.035-.378.035-.886a8.074,8.074,0,0,0-.074-1.213,2.485,2.485,0,0,0-.207-.726.744.744,0,0,0-.326-.353.99.99,0,0,0-.431-.091,1.038,1.038,0,0,0-.442.093.773.773,0,0,0-.339.36,2.51,2.51,0,0,0-.216.743,8.077,8.077,0,0,0-.077,1.237q0,.5.033.866a4.638,4.638,0,0,0,.095.635,1.906,1.906,0,0,0,.153.435.883.883,0,0,0,.2.271.681.681,0,0,0,.255.137A1.111,1.111,0,0,0,525.637,4891.2Z" fill="#2393bf"/>
        </g>
        <g id="Grupo_137151" data-name="Grupo 137151">
          <path id="Trazado_195246" data-name="Trazado 195246" d="M533.5,4886.155v4.9h.807v.367h-2.291v-.367h.806v-4.536h-.88v-.367Z" fill="#2393bf"/>
        </g>
        <g id="Grupo_137152" data-name="Grupo 137152">
          <path id="Trazado_195247" data-name="Trazado 195247" d="M540.579,4891.553a1.479,1.479,0,0,1-.755-.19,1.626,1.626,0,0,1-.557-.543,2.735,2.735,0,0,1-.347-.854,4.937,4.937,0,0,1-.119-1.13,4.875,4.875,0,0,1,.129-1.171,2.782,2.782,0,0,1,.37-.884,1.755,1.755,0,0,1,.584-.562,1.523,1.523,0,0,1,.772-.2,1.468,1.468,0,0,1,.748.19,1.616,1.616,0,0,1,.555.543,2.77,2.77,0,0,1,.345.855,4.911,4.911,0,0,1,.119,1.125,5.121,5.121,0,0,1-.117,1.13,2.955,2.955,0,0,1-.349.891,1.735,1.735,0,0,1-.575.587A1.511,1.511,0,0,1,540.579,4891.553Zm.018-.357a1.138,1.138,0,0,0,.3-.039.687.687,0,0,0,.26-.14.956.956,0,0,0,.215-.275,1.832,1.832,0,0,0,.159-.444,4.681,4.681,0,0,0,.1-.649q.035-.378.035-.886a8.226,8.226,0,0,0-.073-1.213,2.452,2.452,0,0,0-.208-.726.744.744,0,0,0-.326-.353.99.99,0,0,0-.431-.091,1.031,1.031,0,0,0-.441.093.773.773,0,0,0-.339.36,2.508,2.508,0,0,0-.217.743,8.069,8.069,0,0,0-.077,1.237q0,.5.033.866a4.486,4.486,0,0,0,.1.635,1.863,1.863,0,0,0,.152.435.9.9,0,0,0,.205.271.68.68,0,0,0,.255.137A1.115,1.115,0,0,0,540.6,4891.2Z" fill="#2393bf"/>
        </g>
        <g id="Grupo_137153" data-name="Grupo 137153">
          <path id="Trazado_195248" data-name="Trazado 195248" d="M548.459,4886.155v4.9h.806v.367h-2.291v-.367h.807v-4.536h-.88v-.367Z" fill="#2393bf"/>
        </g>
        <g id="Grupo_137154" data-name="Grupo 137154">
          <path id="Trazado_195249" data-name="Trazado 195249" d="M555.539,4891.553a1.479,1.479,0,0,1-.755-.19,1.635,1.635,0,0,1-.557-.543,2.736,2.736,0,0,1-.346-.854,5.423,5.423,0,0,1,.009-2.3,2.78,2.78,0,0,1,.37-.884,1.748,1.748,0,0,1,.585-.562,1.517,1.517,0,0,1,.771-.2,1.468,1.468,0,0,1,.748.19,1.628,1.628,0,0,1,.556.543,2.768,2.768,0,0,1,.344.855,4.854,4.854,0,0,1,.119,1.125,5.117,5.117,0,0,1-.117,1.13,2.929,2.929,0,0,1-.348.891,1.738,1.738,0,0,1-.576.587A1.508,1.508,0,0,1,555.539,4891.553Zm.019-.357a1.136,1.136,0,0,0,.3-.039.687.687,0,0,0,.26-.14.956.956,0,0,0,.215-.275,1.792,1.792,0,0,0,.159-.444,4.69,4.69,0,0,0,.1-.649c.024-.252.035-.547.035-.886a8.094,8.094,0,0,0-.073-1.213,2.487,2.487,0,0,0-.207-.726.741.741,0,0,0-.327-.353.985.985,0,0,0-.43-.091,1.032,1.032,0,0,0-.442.093.773.773,0,0,0-.339.36,2.48,2.48,0,0,0-.216.743,7.946,7.946,0,0,0-.077,1.237q0,.5.033.866a4.5,4.5,0,0,0,.1.635,1.909,1.909,0,0,0,.152.435.9.9,0,0,0,.205.271.68.68,0,0,0,.255.137A1.117,1.117,0,0,0,555.558,4891.2Z" fill="#2393bf"/>
        </g>
        <g id="Grupo_137155" data-name="Grupo 137155">
          <path id="Trazado_195250" data-name="Trazado 195250" d="M563.419,4886.155v4.9h.806v.367h-2.291v-.367h.807v-4.536h-.88v-.367Z" fill="#2393bf"/>
        </g>
      </g>
      <g id="Grupo_137166" data-name="Grupo 137166">
        <g id="Grupo_137157" data-name="Grupo 137157">
          <path id="Trazado_195251" data-name="Trazado 195251" d="M501.936,4895.443v4.9h.806v.366h-2.291v-.366h.807v-4.537h-.88v-.367Z" fill="#2393bf"/>
        </g>
        <g id="Grupo_137158" data-name="Grupo 137158">
          <path id="Trazado_195252" data-name="Trazado 195252" d="M509.016,4900.841a1.484,1.484,0,0,1-.755-.19,1.63,1.63,0,0,1-.557-.543,2.735,2.735,0,0,1-.346-.854,5.422,5.422,0,0,1,.009-2.3,2.791,2.791,0,0,1,.37-.884,1.754,1.754,0,0,1,.585-.562,1.521,1.521,0,0,1,.771-.2,1.478,1.478,0,0,1,.748.19,1.616,1.616,0,0,1,.555.543,2.75,2.75,0,0,1,.345.855,4.909,4.909,0,0,1,.119,1.125,5.109,5.109,0,0,1-.117,1.13,2.926,2.926,0,0,1-.348.891,1.737,1.737,0,0,1-.576.587A1.511,1.511,0,0,1,509.016,4900.841Zm.019-.357a1.116,1.116,0,0,0,.3-.039.666.666,0,0,0,.26-.14.958.958,0,0,0,.215-.275,1.821,1.821,0,0,0,.159-.444,4.674,4.674,0,0,0,.1-.649q.034-.378.035-.886a8.073,8.073,0,0,0-.073-1.212,2.489,2.489,0,0,0-.207-.727.748.748,0,0,0-.327-.353,1,1,0,0,0-.43-.091,1.018,1.018,0,0,0-.442.094.766.766,0,0,0-.339.359,2.489,2.489,0,0,0-.216.743,7.956,7.956,0,0,0-.077,1.237q0,.5.033.866a4.5,4.5,0,0,0,.1.635,1.845,1.845,0,0,0,.152.435.9.9,0,0,0,.205.271.672.672,0,0,0,.255.137A1.1,1.1,0,0,0,509.035,4900.484Z" fill="#2393bf"/>
        </g>
        <g id="Grupo_137159" data-name="Grupo 137159">
          <path id="Trazado_195253" data-name="Trazado 195253" d="M525.619,4900.841a1.481,1.481,0,0,1-.755-.19,1.621,1.621,0,0,1-.557-.543,2.735,2.735,0,0,1-.347-.854,5.421,5.421,0,0,1,.009-2.3,2.791,2.791,0,0,1,.371-.884,1.76,1.76,0,0,1,.584-.562,1.527,1.527,0,0,1,.772-.2,1.48,1.48,0,0,1,.748.19,1.616,1.616,0,0,1,.555.543,2.8,2.8,0,0,1,.345.855,4.911,4.911,0,0,1,.119,1.125,5.046,5.046,0,0,1-.118,1.13,2.925,2.925,0,0,1-.348.891,1.744,1.744,0,0,1-.575.587A1.513,1.513,0,0,1,525.619,4900.841Zm.018-.357a1.118,1.118,0,0,0,.3-.039.674.674,0,0,0,.26-.14.956.956,0,0,0,.214-.275,1.776,1.776,0,0,0,.16-.444,4.982,4.982,0,0,0,.1-.649q.035-.378.035-.886a8.048,8.048,0,0,0-.074-1.212,2.487,2.487,0,0,0-.207-.727.746.746,0,0,0-.326-.353,1,1,0,0,0-.431-.091,1.024,1.024,0,0,0-.442.094.766.766,0,0,0-.339.359,2.52,2.52,0,0,0-.216.743,8.088,8.088,0,0,0-.077,1.237q0,.5.033.866a4.646,4.646,0,0,0,.095.635,1.889,1.889,0,0,0,.153.435.883.883,0,0,0,.2.271.673.673,0,0,0,.255.137A1.091,1.091,0,0,0,525.637,4900.484Z" fill="#2393bf"/>
        </g>
        <g id="Grupo_137160" data-name="Grupo 137160">
          <path id="Trazado_195254" data-name="Trazado 195254" d="M533.5,4895.443v4.9h.807v.366h-2.291v-.366h.806v-4.537h-.88v-.367Z" fill="#2393bf"/>
        </g>
        <g id="Grupo_137161" data-name="Grupo 137161">
          <path id="Trazado_195255" data-name="Trazado 195255" d="M517.853,4895.443v4.9h.806v.366h-2.291v-.366h.807v-4.537h-.88v-.367Z" fill="#2393bf"/>
        </g>
        <g id="Grupo_137162" data-name="Grupo 137162">
          <path id="Trazado_195256" data-name="Trazado 195256" d="M540.579,4900.841a1.484,1.484,0,0,1-.755-.19,1.622,1.622,0,0,1-.557-.543,2.735,2.735,0,0,1-.347-.854,4.931,4.931,0,0,1-.119-1.13,4.872,4.872,0,0,1,.129-1.171,2.791,2.791,0,0,1,.37-.884,1.761,1.761,0,0,1,.584-.562,1.528,1.528,0,0,1,.772-.2,1.478,1.478,0,0,1,.748.19,1.616,1.616,0,0,1,.555.543,2.775,2.775,0,0,1,.345.855,4.911,4.911,0,0,1,.119,1.125,5.113,5.113,0,0,1-.117,1.13,2.953,2.953,0,0,1-.349.891,1.735,1.735,0,0,1-.575.587A1.511,1.511,0,0,1,540.579,4900.841Zm.018-.357a1.118,1.118,0,0,0,.3-.039.666.666,0,0,0,.26-.14.958.958,0,0,0,.215-.275,1.82,1.82,0,0,0,.159-.444,4.669,4.669,0,0,0,.1-.649q.035-.378.035-.886a8.2,8.2,0,0,0-.073-1.212,2.454,2.454,0,0,0-.208-.727.746.746,0,0,0-.326-.353,1,1,0,0,0-.431-.091,1.017,1.017,0,0,0-.441.094.766.766,0,0,0-.339.359,2.518,2.518,0,0,0-.217.743,8.08,8.08,0,0,0-.077,1.237q0,.5.033.866a4.494,4.494,0,0,0,.1.635,1.847,1.847,0,0,0,.152.435.9.9,0,0,0,.205.271.673.673,0,0,0,.255.137A1.1,1.1,0,0,0,540.6,4900.484Z" fill="#2393bf"/>
        </g>
        <g id="Grupo_137163" data-name="Grupo 137163">
          <path id="Trazado_195257" data-name="Trazado 195257" d="M548.459,4895.443v4.9h.806v.366h-2.291v-.366h.807v-4.537h-.88v-.367Z" fill="#2393bf"/>
        </g>
        <g id="Grupo_137164" data-name="Grupo 137164">
          <path id="Trazado_195258" data-name="Trazado 195258" d="M555.539,4900.841a1.484,1.484,0,0,1-.755-.19,1.631,1.631,0,0,1-.557-.543,2.736,2.736,0,0,1-.346-.854,5.423,5.423,0,0,1,.009-2.3,2.79,2.79,0,0,1,.37-.884,1.755,1.755,0,0,1,.585-.562,1.521,1.521,0,0,1,.771-.2,1.478,1.478,0,0,1,.748.19,1.628,1.628,0,0,1,.556.543,2.773,2.773,0,0,1,.344.855,4.854,4.854,0,0,1,.119,1.125,5.109,5.109,0,0,1-.117,1.13,2.927,2.927,0,0,1-.348.891,1.738,1.738,0,0,1-.576.587A1.508,1.508,0,0,1,555.539,4900.841Zm.019-.357a1.116,1.116,0,0,0,.3-.039.667.667,0,0,0,.26-.14.958.958,0,0,0,.215-.275,1.78,1.78,0,0,0,.159-.444,4.678,4.678,0,0,0,.1-.649c.024-.252.035-.547.035-.886a8.068,8.068,0,0,0-.073-1.212,2.489,2.489,0,0,0-.207-.727.743.743,0,0,0-.327-.353.992.992,0,0,0-.43-.091,1.019,1.019,0,0,0-.442.094.766.766,0,0,0-.339.359,2.489,2.489,0,0,0-.216.743,7.957,7.957,0,0,0-.077,1.237q0,.5.033.866a4.507,4.507,0,0,0,.1.635,1.892,1.892,0,0,0,.152.435.9.9,0,0,0,.205.271.672.672,0,0,0,.255.137A1.1,1.1,0,0,0,555.558,4900.484Z" fill="#2393bf"/>
        </g>
        <g id="Grupo_137165" data-name="Grupo 137165">
          <path id="Trazado_195259" data-name="Trazado 195259" d="M563.419,4895.443v4.9h.806v.366h-2.291v-.366h.807v-4.537h-.88v-.367Z" fill="#2393bf"/>
        </g>
      </g>
      <g id="Grupo_137176" data-name="Grupo 137176">
        <g id="Grupo_137167" data-name="Grupo 137167">
          <path id="Trazado_195260" data-name="Trazado 195260" d="M501.936,4904.731v4.9h.806V4910h-2.291v-.366h.807V4905.1h-.88v-.367Z" fill="#2393bf"/>
        </g>
        <g id="Grupo_137168" data-name="Grupo 137168">
          <path id="Trazado_195261" data-name="Trazado 195261" d="M517.726,4904.731v4.9h.807V4910h-2.291v-.366h.806V4905.1h-.879v-.367Z" fill="#2393bf"/>
        </g>
        <g id="Grupo_137169" data-name="Grupo 137169">
          <path id="Trazado_195262" data-name="Trazado 195262" d="M526.028,4904.731v4.9h.806V4910h-2.291v-.366h.806V4905.1h-.879v-.367Z" fill="#2393bf"/>
        </g>
        <g id="Grupo_137170" data-name="Grupo 137170">
          <path id="Trazado_195263" data-name="Trazado 195263" d="M509.016,4910.13a1.484,1.484,0,0,1-.755-.191,1.621,1.621,0,0,1-.557-.543,2.735,2.735,0,0,1-.346-.854,5.422,5.422,0,0,1,.009-2.3,2.791,2.791,0,0,1,.37-.884,1.745,1.745,0,0,1,.585-.562,1.521,1.521,0,0,1,.771-.2,1.478,1.478,0,0,1,.748.19,1.616,1.616,0,0,1,.555.543,2.75,2.75,0,0,1,.345.855,4.909,4.909,0,0,1,.119,1.125,5.1,5.1,0,0,1-.117,1.13,2.916,2.916,0,0,1-.348.891,1.742,1.742,0,0,1-.576.587A1.511,1.511,0,0,1,509.016,4910.13Zm.019-.358a1.135,1.135,0,0,0,.3-.039.661.661,0,0,0,.26-.14.936.936,0,0,0,.215-.275,1.821,1.821,0,0,0,.159-.444,4.651,4.651,0,0,0,.1-.649q.034-.378.035-.886a8.068,8.068,0,0,0-.073-1.212,2.489,2.489,0,0,0-.207-.727.748.748,0,0,0-.327-.353.988.988,0,0,0-.43-.091,1.018,1.018,0,0,0-.442.094.767.767,0,0,0-.339.359,2.489,2.489,0,0,0-.216.743,7.96,7.96,0,0,0-.077,1.237q0,.5.033.866a4.5,4.5,0,0,0,.1.635,1.845,1.845,0,0,0,.152.435.906.906,0,0,0,.205.271.672.672,0,0,0,.255.137A1.117,1.117,0,0,0,509.035,4909.772Z" fill="#2393bf"/>
        </g>
        <g id="Grupo_137171" data-name="Grupo 137171">
          <path id="Trazado_195264" data-name="Trazado 195264" d="M540.579,4910.13a1.484,1.484,0,0,1-.755-.191,1.613,1.613,0,0,1-.557-.543,2.735,2.735,0,0,1-.347-.854,4.931,4.931,0,0,1-.119-1.13,4.872,4.872,0,0,1,.129-1.171,2.791,2.791,0,0,1,.37-.884,1.752,1.752,0,0,1,.584-.562,1.528,1.528,0,0,1,.772-.2,1.478,1.478,0,0,1,.748.19,1.616,1.616,0,0,1,.555.543,2.775,2.775,0,0,1,.345.855,4.911,4.911,0,0,1,.119,1.125,5.107,5.107,0,0,1-.117,1.13,2.943,2.943,0,0,1-.349.891,1.739,1.739,0,0,1-.575.587A1.511,1.511,0,0,1,540.579,4910.13Zm.018-.358a1.138,1.138,0,0,0,.3-.039.661.661,0,0,0,.26-.14.936.936,0,0,0,.215-.275,1.82,1.82,0,0,0,.159-.444,4.646,4.646,0,0,0,.1-.649q.035-.378.035-.886a8.2,8.2,0,0,0-.073-1.212,2.454,2.454,0,0,0-.208-.727.746.746,0,0,0-.326-.353.99.99,0,0,0-.431-.091,1.017,1.017,0,0,0-.441.094.767.767,0,0,0-.339.359,2.518,2.518,0,0,0-.217.743,8.085,8.085,0,0,0-.077,1.237q0,.5.033.866a4.494,4.494,0,0,0,.1.635,1.847,1.847,0,0,0,.152.435.906.906,0,0,0,.205.271.673.673,0,0,0,.255.137A1.115,1.115,0,0,0,540.6,4909.772Z" fill="#2393bf"/>
        </g>
        <g id="Grupo_137172" data-name="Grupo 137172">
          <path id="Trazado_195265" data-name="Trazado 195265" d="M533.09,4910.13a1.479,1.479,0,0,1-.755-.191,1.624,1.624,0,0,1-.558-.543,2.734,2.734,0,0,1-.346-.854,5.421,5.421,0,0,1,.009-2.3,2.814,2.814,0,0,1,.37-.884,1.763,1.763,0,0,1,.585-.562,1.527,1.527,0,0,1,.772-.2,1.474,1.474,0,0,1,.747.19,1.628,1.628,0,0,1,.556.543,2.774,2.774,0,0,1,.344.855,4.857,4.857,0,0,1,.119,1.125,5.1,5.1,0,0,1-.117,1.13,2.917,2.917,0,0,1-.348.891,1.742,1.742,0,0,1-.576.587A1.508,1.508,0,0,1,533.09,4910.13Zm.018-.358a1.13,1.13,0,0,0,.3-.039.672.672,0,0,0,.261-.14.934.934,0,0,0,.214-.275,1.778,1.778,0,0,0,.16-.444,4.966,4.966,0,0,0,.1-.649q.035-.378.034-.886a8.064,8.064,0,0,0-.073-1.212,2.487,2.487,0,0,0-.207-.727.746.746,0,0,0-.326-.353.993.993,0,0,0-.431-.091,1.021,1.021,0,0,0-.442.094.767.767,0,0,0-.339.359,2.491,2.491,0,0,0-.216.743,8.093,8.093,0,0,0-.077,1.237q0,.5.033.866a4.655,4.655,0,0,0,.1.635,1.942,1.942,0,0,0,.152.435.908.908,0,0,0,.206.271.676.676,0,0,0,.254.137A1.117,1.117,0,0,0,533.108,4909.772Z" fill="#2393bf"/>
        </g>
        <g id="Grupo_137173" data-name="Grupo 137173">
          <path id="Trazado_195266" data-name="Trazado 195266" d="M548.459,4904.731v4.9h.806V4910h-2.291v-.366h.807V4905.1h-.88v-.367Z" fill="#2393bf"/>
        </g>
        <g id="Grupo_137174" data-name="Grupo 137174">
          <path id="Trazado_195267" data-name="Trazado 195267" d="M555.539,4910.13a1.484,1.484,0,0,1-.755-.191,1.622,1.622,0,0,1-.557-.543,2.736,2.736,0,0,1-.346-.854,5.423,5.423,0,0,1,.009-2.3,2.79,2.79,0,0,1,.37-.884,1.745,1.745,0,0,1,.585-.562,1.521,1.521,0,0,1,.771-.2,1.478,1.478,0,0,1,.748.19,1.628,1.628,0,0,1,.556.543,2.773,2.773,0,0,1,.344.855,4.854,4.854,0,0,1,.119,1.125,5.1,5.1,0,0,1-.117,1.13,2.917,2.917,0,0,1-.348.891,1.742,1.742,0,0,1-.576.587A1.509,1.509,0,0,1,555.539,4910.13Zm.019-.358a1.135,1.135,0,0,0,.3-.039.661.661,0,0,0,.26-.14.936.936,0,0,0,.215-.275,1.78,1.78,0,0,0,.159-.444,4.655,4.655,0,0,0,.1-.649c.024-.252.035-.547.035-.886a8.064,8.064,0,0,0-.073-1.212,2.489,2.489,0,0,0-.207-.727.743.743,0,0,0-.327-.353.985.985,0,0,0-.43-.091,1.018,1.018,0,0,0-.442.094.767.767,0,0,0-.339.359,2.489,2.489,0,0,0-.216.743,7.962,7.962,0,0,0-.077,1.237q0,.5.033.866a4.507,4.507,0,0,0,.1.635,1.892,1.892,0,0,0,.152.435.905.905,0,0,0,.205.271.672.672,0,0,0,.255.137A1.117,1.117,0,0,0,555.558,4909.772Z" fill="#2393bf"/>
        </g>
        <g id="Grupo_137175" data-name="Grupo 137175">
          <path id="Trazado_195268" data-name="Trazado 195268" d="M563.419,4904.731v4.9h.806V4910h-2.291v-.366h.807V4905.1h-.88v-.367Z" fill="#2393bf"/>
        </g>
      </g>
    </g>
    <g id="Grupo_137223" data-name="Grupo 137223" transform="translate(-5903.416 -6113.447)">
      <g id="Grupo_137182" data-name="Grupo 137182">
        <g id="Grupo_137181" data-name="Grupo 137181">
          <g id="Grupo_137180" data-name="Grupo 137180">
            <g id="Grupo_137179" data-name="Grupo 137179">
              <g id="Grupo_137178" data-name="Grupo 137178">
                <path id="Trazado_195269" data-name="Trazado 195269" d="M501.7,4941.607H450.741c-1.627,0-2.947,1.649-2.947,3.684v30.857c0,2.035,1.32,3.684,2.947,3.684h4.34l-1.977,6.751,7.81-6.751H501.7c1.627,0,2.947-1.649,2.947-3.684v-30.857C504.646,4943.256,503.326,4941.607,501.7,4941.607Z" fill="#fff"/>
              </g>
            </g>
          </g>
        </g>
      </g>
      <g id="Grupo_137192" data-name="Grupo 137192">
        <g id="Grupo_137183" data-name="Grupo 137183">
          <path id="Trazado_195270" data-name="Trazado 195270" d="M454.959,4947.921v3.4h.559v.254h-1.589v-.254h.559v-3.147h-.61v-.254Z" fill="#2393bf"/>
        </g>
        <g id="Grupo_137184" data-name="Grupo 137184">
          <path id="Trazado_195271" data-name="Trazado 195271" d="M459.87,4951.665a1.043,1.043,0,0,1-.524-.131,1.145,1.145,0,0,1-.386-.377,1.9,1.9,0,0,1-.24-.593,3.747,3.747,0,0,1,.006-1.6,1.93,1.93,0,0,1,.257-.613,1.216,1.216,0,0,1,.4-.39,1.059,1.059,0,0,1,.536-.136,1.017,1.017,0,0,1,.518.132,1.115,1.115,0,0,1,.386.376,1.949,1.949,0,0,1,.239.593,3.388,3.388,0,0,1,.082.781,3.548,3.548,0,0,1-.081.783,2.017,2.017,0,0,1-.242.618,1.205,1.205,0,0,1-.4.407A1.039,1.039,0,0,1,459.87,4951.665Zm.013-.247a.786.786,0,0,0,.21-.028.48.48,0,0,0,.18-.1.675.675,0,0,0,.149-.191,1.279,1.279,0,0,0,.111-.309,3.388,3.388,0,0,0,.068-.449q.024-.263.024-.615a5.738,5.738,0,0,0-.05-.841,1.723,1.723,0,0,0-.144-.5.52.52,0,0,0-.226-.245.693.693,0,0,0-.3-.063.708.708,0,0,0-.307.065.534.534,0,0,0-.235.249,1.761,1.761,0,0,0-.15.515,5.684,5.684,0,0,0-.053.859c0,.228.007.429.023.6a3.11,3.11,0,0,0,.066.441,1.375,1.375,0,0,0,.105.3.613.613,0,0,0,.143.187.455.455,0,0,0,.176.1A.774.774,0,0,0,459.883,4951.418Z" fill="#2393bf"/>
        </g>
        <g id="Grupo_137185" data-name="Grupo 137185">
          <path id="Trazado_195272" data-name="Trazado 195272" d="M465.629,4951.665a1.038,1.038,0,0,1-.524-.131,1.138,1.138,0,0,1-.387-.377,1.9,1.9,0,0,1-.24-.593,3.747,3.747,0,0,1,.006-1.6,1.953,1.953,0,0,1,.257-.613,1.209,1.209,0,0,1,.406-.39,1.055,1.055,0,0,1,.535-.136,1.023,1.023,0,0,1,.519.132,1.112,1.112,0,0,1,.385.376,1.924,1.924,0,0,1,.239.593,3.39,3.39,0,0,1,.082.781,3.548,3.548,0,0,1-.081.783,2.042,2.042,0,0,1-.241.618,1.2,1.2,0,0,1-.4.407A1.038,1.038,0,0,1,465.629,4951.665Zm.012-.247a.781.781,0,0,0,.21-.028.492.492,0,0,0,.181-.1.673.673,0,0,0,.148-.191,1.279,1.279,0,0,0,.111-.309,3.369,3.369,0,0,0,.069-.449q.024-.263.024-.615a5.58,5.58,0,0,0-.051-.841,1.722,1.722,0,0,0-.144-.5.52.52,0,0,0-.226-.245.693.693,0,0,0-.3-.063.7.7,0,0,0-.306.065.525.525,0,0,0-.235.249,1.7,1.7,0,0,0-.15.515,5.541,5.541,0,0,0-.054.859c0,.228.008.429.023.6a3.11,3.11,0,0,0,.066.441,1.322,1.322,0,0,0,.106.3.611.611,0,0,0,.142.187.451.451,0,0,0,.177.1A.766.766,0,0,0,465.641,4951.418Z" fill="#2393bf"/>
        </g>
        <g id="Grupo_137186" data-name="Grupo 137186">
          <path id="Trazado_195273" data-name="Trazado 195273" d="M476.852,4947.921v3.4h.56v.254h-1.589v-.254h.559v-3.147h-.61v-.254Z" fill="#2393bf"/>
        </g>
        <g id="Grupo_137187" data-name="Grupo 137187">
          <path id="Trazado_195274" data-name="Trazado 195274" d="M471.67,4947.921v3.4h.559v.254H470.64v-.254h.56v-3.147h-.611v-.254Z" fill="#2393bf"/>
        </g>
        <g id="Grupo_137188" data-name="Grupo 137188">
          <path id="Trazado_195275" data-name="Trazado 195275" d="M481.764,4951.665a1.041,1.041,0,0,1-.524-.131,1.145,1.145,0,0,1-.386-.377,1.876,1.876,0,0,1-.241-.593,3.409,3.409,0,0,1-.082-.784,3.368,3.368,0,0,1,.089-.812,1.952,1.952,0,0,1,.256-.613,1.218,1.218,0,0,1,.406-.39,1.058,1.058,0,0,1,.535-.136,1.02,1.02,0,0,1,.519.132,1.1,1.1,0,0,1,.385.376,1.923,1.923,0,0,1,.239.593,3.386,3.386,0,0,1,.083.781,3.488,3.488,0,0,1-.082.783,2.017,2.017,0,0,1-.241.618,1.205,1.205,0,0,1-.4.407A1.041,1.041,0,0,1,481.764,4951.665Zm.013-.247a.779.779,0,0,0,.209-.028.476.476,0,0,0,.181-.1.675.675,0,0,0,.149-.191,1.24,1.24,0,0,0,.11-.309,3.216,3.216,0,0,0,.069-.449q.024-.263.024-.615a5.576,5.576,0,0,0-.051-.841,1.758,1.758,0,0,0-.143-.5.521.521,0,0,0-.227-.245.69.69,0,0,0-.3-.063.7.7,0,0,0-.306.065.529.529,0,0,0-.235.249,1.7,1.7,0,0,0-.15.515,5.537,5.537,0,0,0-.054.859c0,.228.008.429.023.6a3.421,3.421,0,0,0,.066.441,1.323,1.323,0,0,0,.106.3.628.628,0,0,0,.142.187.466.466,0,0,0,.177.1A.768.768,0,0,0,481.777,4951.418Z" fill="#2393bf"/>
        </g>
        <g id="Grupo_137189" data-name="Grupo 137189">
          <path id="Trazado_195276" data-name="Trazado 195276" d="M487.23,4947.921v3.4h.559v.254H486.2v-.254h.559v-3.147h-.61v-.254Z" fill="#2393bf"/>
        </g>
        <g id="Grupo_137190" data-name="Grupo 137190">
          <path id="Trazado_195277" data-name="Trazado 195277" d="M492.141,4951.665a1.041,1.041,0,0,1-.524-.131,1.145,1.145,0,0,1-.386-.377,1.9,1.9,0,0,1-.24-.593,3.351,3.351,0,0,1-.083-.784,3.418,3.418,0,0,1,.089-.812,1.93,1.93,0,0,1,.257-.613,1.216,1.216,0,0,1,.4-.39,1.059,1.059,0,0,1,.536-.136,1.017,1.017,0,0,1,.518.132,1.1,1.1,0,0,1,.385.376,1.9,1.9,0,0,1,.239.593,3.333,3.333,0,0,1,.083.781,3.548,3.548,0,0,1-.081.783,2.043,2.043,0,0,1-.242.618,1.205,1.205,0,0,1-.4.407A1.039,1.039,0,0,1,492.141,4951.665Zm.013-.247a.792.792,0,0,0,.21-.028.48.48,0,0,0,.18-.1.675.675,0,0,0,.149-.191,1.24,1.24,0,0,0,.11-.309,3.221,3.221,0,0,0,.069-.449q.024-.263.024-.615a5.58,5.58,0,0,0-.051-.841,1.7,1.7,0,0,0-.143-.5.521.521,0,0,0-.227-.245.689.689,0,0,0-.3-.063.708.708,0,0,0-.307.065.534.534,0,0,0-.235.249,1.762,1.762,0,0,0-.15.515,5.689,5.689,0,0,0-.053.859c0,.228.007.429.023.6a3.11,3.11,0,0,0,.066.441,1.375,1.375,0,0,0,.105.3.613.613,0,0,0,.143.187.455.455,0,0,0,.176.1A.774.774,0,0,0,492.154,4951.418Z" fill="#2393bf"/>
        </g>
        <g id="Grupo_137191" data-name="Grupo 137191">
          <path id="Trazado_195278" data-name="Trazado 195278" d="M497.607,4947.921v3.4h.559v.254h-1.589v-.254h.559v-3.147h-.61v-.254Z" fill="#2393bf"/>
        </g>
      </g>
      <g id="Grupo_137202" data-name="Grupo 137202">
        <g id="Grupo_137193" data-name="Grupo 137193">
          <path id="Trazado_195279" data-name="Trazado 195279" d="M454.959,4954.364v3.4h.559v.254h-1.589v-.254h.559v-3.147h-.61v-.254Z" fill="#2393bf"/>
        </g>
        <g id="Grupo_137194" data-name="Grupo 137194">
          <path id="Trazado_195280" data-name="Trazado 195280" d="M459.87,4958.108a1.034,1.034,0,0,1-.524-.132,1.132,1.132,0,0,1-.386-.376,1.91,1.91,0,0,1-.24-.593,3.745,3.745,0,0,1,.006-1.6,1.934,1.934,0,0,1,.257-.614,1.216,1.216,0,0,1,.4-.389,1.055,1.055,0,0,1,.536-.137,1.017,1.017,0,0,1,.518.132,1.136,1.136,0,0,1,.386.377,1.949,1.949,0,0,1,.239.593,3.389,3.389,0,0,1,.082.78,3.554,3.554,0,0,1-.081.784,2.035,2.035,0,0,1-.242.618,1.217,1.217,0,0,1-.4.407A1.048,1.048,0,0,1,459.87,4958.108Zm.013-.248a.787.787,0,0,0,.21-.027.463.463,0,0,0,.18-.1.656.656,0,0,0,.149-.19,1.279,1.279,0,0,0,.111-.309,3.379,3.379,0,0,0,.068-.45c.016-.174.024-.38.024-.615a5.761,5.761,0,0,0-.05-.841,1.708,1.708,0,0,0-.144-.5.514.514,0,0,0-.226-.245.68.68,0,0,0-.3-.064.722.722,0,0,0-.307.065.541.541,0,0,0-.235.25,1.76,1.76,0,0,0-.15.515,5.65,5.65,0,0,0-.053.858c0,.229.007.429.023.6a3.094,3.094,0,0,0,.066.44,1.322,1.322,0,0,0,.105.3.618.618,0,0,0,.143.188.461.461,0,0,0,.176.1A.774.774,0,0,0,459.883,4957.86Z" fill="#2393bf"/>
        </g>
        <g id="Grupo_137195" data-name="Grupo 137195">
          <path id="Trazado_195281" data-name="Trazado 195281" d="M465.629,4958.108a1.029,1.029,0,0,1-.524-.132,1.126,1.126,0,0,1-.387-.376,1.91,1.91,0,0,1-.24-.593,3.745,3.745,0,0,1,.006-1.6,1.957,1.957,0,0,1,.257-.614,1.209,1.209,0,0,1,.406-.389,1.052,1.052,0,0,1,.535-.137,1.023,1.023,0,0,1,.519.132,1.133,1.133,0,0,1,.385.377,1.924,1.924,0,0,1,.239.593,3.39,3.39,0,0,1,.082.78,3.554,3.554,0,0,1-.081.784,2.06,2.06,0,0,1-.241.618,1.21,1.21,0,0,1-.4.407A1.047,1.047,0,0,1,465.629,4958.108Zm.012-.248a.782.782,0,0,0,.21-.027.473.473,0,0,0,.181-.1.654.654,0,0,0,.148-.19,1.279,1.279,0,0,0,.111-.309,3.36,3.36,0,0,0,.069-.45c.016-.174.024-.38.024-.615a5.6,5.6,0,0,0-.051-.841,1.707,1.707,0,0,0-.144-.5.514.514,0,0,0-.226-.245.68.68,0,0,0-.3-.064.714.714,0,0,0-.306.065.532.532,0,0,0-.235.25,1.7,1.7,0,0,0-.15.515,5.507,5.507,0,0,0-.054.858q0,.344.023.6a3.094,3.094,0,0,0,.066.44,1.273,1.273,0,0,0,.106.3.616.616,0,0,0,.142.188.458.458,0,0,0,.177.1A.767.767,0,0,0,465.641,4957.86Z" fill="#2393bf"/>
        </g>
        <g id="Grupo_137196" data-name="Grupo 137196">
          <path id="Trazado_195282" data-name="Trazado 195282" d="M471.387,4958.108a1.029,1.029,0,0,1-.524-.132,1.126,1.126,0,0,1-.387-.376,1.909,1.909,0,0,1-.24-.593,3.746,3.746,0,0,1,.006-1.6,1.957,1.957,0,0,1,.257-.614,1.209,1.209,0,0,1,.406-.389,1.052,1.052,0,0,1,.535-.137,1.023,1.023,0,0,1,.519.132,1.133,1.133,0,0,1,.385.377,1.923,1.923,0,0,1,.239.593,3.388,3.388,0,0,1,.083.78,3.553,3.553,0,0,1-.082.784,2.061,2.061,0,0,1-.241.618,1.21,1.21,0,0,1-.4.407A1.047,1.047,0,0,1,471.387,4958.108Zm.012-.248a.782.782,0,0,0,.21-.027.466.466,0,0,0,.181-.1.654.654,0,0,0,.148-.19,1.279,1.279,0,0,0,.111-.309,3.214,3.214,0,0,0,.069-.45c.016-.174.024-.38.024-.615a5.6,5.6,0,0,0-.051-.841,1.707,1.707,0,0,0-.144-.5.514.514,0,0,0-.226-.245.68.68,0,0,0-.3-.064.714.714,0,0,0-.306.065.532.532,0,0,0-.235.25,1.7,1.7,0,0,0-.15.515,5.507,5.507,0,0,0-.054.858q0,.344.023.6a3.09,3.09,0,0,0,.066.44,1.274,1.274,0,0,0,.106.3.616.616,0,0,0,.142.188.458.458,0,0,0,.177.1A.767.767,0,0,0,471.4,4957.86Z" fill="#2393bf"/>
        </g>
        <g id="Grupo_137197" data-name="Grupo 137197">
          <path id="Trazado_195283" data-name="Trazado 195283" d="M476.852,4954.364v3.4h.56v.254h-1.589v-.254h.559v-3.147h-.61v-.254Z" fill="#2393bf"/>
        </g>
        <g id="Grupo_137198" data-name="Grupo 137198">
          <path id="Trazado_195284" data-name="Trazado 195284" d="M481.764,4958.108a1.031,1.031,0,0,1-.524-.132,1.133,1.133,0,0,1-.386-.376,1.886,1.886,0,0,1-.241-.593,3.41,3.41,0,0,1-.082-.784,3.357,3.357,0,0,1,.089-.812,1.956,1.956,0,0,1,.256-.614,1.218,1.218,0,0,1,.406-.389,1.054,1.054,0,0,1,.535-.137,1.02,1.02,0,0,1,.519.132,1.124,1.124,0,0,1,.385.377,1.923,1.923,0,0,1,.239.593,3.386,3.386,0,0,1,.083.78,3.494,3.494,0,0,1-.082.784,2.035,2.035,0,0,1-.241.618,1.217,1.217,0,0,1-.4.407A1.05,1.05,0,0,1,481.764,4958.108Zm.013-.248a.779.779,0,0,0,.209-.027.459.459,0,0,0,.181-.1.656.656,0,0,0,.149-.19,1.24,1.24,0,0,0,.11-.309,3.209,3.209,0,0,0,.069-.45c.016-.174.024-.38.024-.615a5.6,5.6,0,0,0-.051-.841,1.742,1.742,0,0,0-.143-.5.516.516,0,0,0-.227-.245.676.676,0,0,0-.3-.064.718.718,0,0,0-.306.065.537.537,0,0,0-.235.25,1.7,1.7,0,0,0-.15.515,5.5,5.5,0,0,0-.054.858c0,.229.008.429.023.6a3.4,3.4,0,0,0,.066.44,1.274,1.274,0,0,0,.106.3.633.633,0,0,0,.142.188.473.473,0,0,0,.177.1A.769.769,0,0,0,481.777,4957.86Z" fill="#2393bf"/>
        </g>
        <g id="Grupo_137199" data-name="Grupo 137199">
          <path id="Trazado_195285" data-name="Trazado 195285" d="M487.23,4954.364v3.4h.559v.254H486.2v-.254h.559v-3.147h-.61v-.254Z" fill="#2393bf"/>
        </g>
        <g id="Grupo_137200" data-name="Grupo 137200">
          <path id="Trazado_195286" data-name="Trazado 195286" d="M492.141,4958.108a1.031,1.031,0,0,1-.524-.132,1.132,1.132,0,0,1-.386-.376,1.91,1.91,0,0,1-.24-.593,3.353,3.353,0,0,1-.083-.784,3.406,3.406,0,0,1,.089-.812,1.934,1.934,0,0,1,.257-.614,1.216,1.216,0,0,1,.4-.389,1.055,1.055,0,0,1,.536-.137,1.017,1.017,0,0,1,.518.132,1.124,1.124,0,0,1,.385.377,1.9,1.9,0,0,1,.239.593,3.333,3.333,0,0,1,.083.78,3.554,3.554,0,0,1-.081.784,2.061,2.061,0,0,1-.242.618,1.217,1.217,0,0,1-.4.407A1.048,1.048,0,0,1,492.141,4958.108Zm.013-.248a.792.792,0,0,0,.21-.027.463.463,0,0,0,.18-.1.656.656,0,0,0,.149-.19,1.24,1.24,0,0,0,.11-.309,3.214,3.214,0,0,0,.069-.45c.016-.174.024-.38.024-.615a5.6,5.6,0,0,0-.051-.841,1.679,1.679,0,0,0-.143-.5.516.516,0,0,0-.227-.245.675.675,0,0,0-.3-.064.722.722,0,0,0-.307.065.542.542,0,0,0-.235.25,1.761,1.761,0,0,0-.15.515,5.654,5.654,0,0,0-.053.858c0,.229.007.429.023.6a3.094,3.094,0,0,0,.066.44,1.322,1.322,0,0,0,.105.3.618.618,0,0,0,.143.188.461.461,0,0,0,.176.1A.774.774,0,0,0,492.154,4957.86Z" fill="#2393bf"/>
        </g>
        <g id="Grupo_137201" data-name="Grupo 137201">
          <path id="Trazado_195287" data-name="Trazado 195287" d="M497.607,4954.364v3.4h.559v.254h-1.589v-.254h.559v-3.147h-.61v-.254Z" fill="#2393bf"/>
        </g>
      </g>
      <g id="Grupo_137212" data-name="Grupo 137212">
        <g id="Grupo_137203" data-name="Grupo 137203">
          <path id="Trazado_195288" data-name="Trazado 195288" d="M454.959,4960.806v3.4h.559v.254h-1.589v-.254h.559v-3.147h-.61v-.255Z" fill="#2393bf"/>
        </g>
        <g id="Grupo_137204" data-name="Grupo 137204">
          <path id="Trazado_195289" data-name="Trazado 195289" d="M459.87,4964.551a1.034,1.034,0,0,1-.524-.132,1.136,1.136,0,0,1-.386-.377,1.9,1.9,0,0,1-.24-.593,3.742,3.742,0,0,1,.006-1.6,1.931,1.931,0,0,1,.257-.614,1.213,1.213,0,0,1,.4-.389,1.055,1.055,0,0,1,.536-.137,1.012,1.012,0,0,1,.518.132,1.118,1.118,0,0,1,.386.377,1.939,1.939,0,0,1,.239.592,3.4,3.4,0,0,1,.082.781,3.537,3.537,0,0,1-.081.783,2.021,2.021,0,0,1-.242.619,1.212,1.212,0,0,1-.4.407A1.048,1.048,0,0,1,459.87,4964.551Zm.013-.248a.787.787,0,0,0,.21-.027.468.468,0,0,0,.18-.1.671.671,0,0,0,.149-.191,1.243,1.243,0,0,0,.111-.308,3.388,3.388,0,0,0,.068-.45q.024-.262.024-.615a5.755,5.755,0,0,0-.05-.841,1.724,1.724,0,0,0-.144-.5.516.516,0,0,0-.226-.244.68.68,0,0,0-.3-.064.722.722,0,0,0-.307.065.541.541,0,0,0-.235.25,1.751,1.751,0,0,0-.15.515,5.654,5.654,0,0,0-.053.858c0,.229.007.429.023.6a3.116,3.116,0,0,0,.066.44,1.335,1.335,0,0,0,.105.3.643.643,0,0,0,.143.188.467.467,0,0,0,.176.095A.774.774,0,0,0,459.883,4964.3Z" fill="#2393bf"/>
        </g>
        <g id="Grupo_137205" data-name="Grupo 137205">
          <path id="Trazado_195290" data-name="Trazado 195290" d="M471.387,4964.551a1.029,1.029,0,0,1-.524-.132,1.129,1.129,0,0,1-.387-.377,1.9,1.9,0,0,1-.24-.593,3.744,3.744,0,0,1,.006-1.6,1.954,1.954,0,0,1,.257-.614,1.206,1.206,0,0,1,.406-.389,1.052,1.052,0,0,1,.535-.137,1.019,1.019,0,0,1,.519.132,1.116,1.116,0,0,1,.385.377,1.914,1.914,0,0,1,.239.592,3.4,3.4,0,0,1,.083.781,3.537,3.537,0,0,1-.082.783,2.047,2.047,0,0,1-.241.619,1.206,1.206,0,0,1-.4.407A1.047,1.047,0,0,1,471.387,4964.551Zm.012-.248a.782.782,0,0,0,.21-.027.472.472,0,0,0,.181-.1.668.668,0,0,0,.148-.191,1.243,1.243,0,0,0,.111-.308,3.222,3.222,0,0,0,.069-.45q.024-.262.024-.615a5.6,5.6,0,0,0-.051-.841,1.723,1.723,0,0,0-.144-.5.516.516,0,0,0-.226-.244.68.68,0,0,0-.3-.064.714.714,0,0,0-.306.065.532.532,0,0,0-.235.25,1.692,1.692,0,0,0-.15.515,5.512,5.512,0,0,0-.054.858q0,.344.023.6a3.112,3.112,0,0,0,.066.44,1.287,1.287,0,0,0,.106.3.641.641,0,0,0,.142.188.463.463,0,0,0,.177.095A.766.766,0,0,0,471.4,4964.3Z" fill="#2393bf"/>
        </g>
        <g id="Grupo_137206" data-name="Grupo 137206">
          <path id="Trazado_195291" data-name="Trazado 195291" d="M476.852,4960.806v3.4h.56v.254h-1.589v-.254h.559v-3.147h-.61v-.255Z" fill="#2393bf"/>
        </g>
        <g id="Grupo_137207" data-name="Grupo 137207">
          <path id="Trazado_195292" data-name="Trazado 195292" d="M466,4960.806v3.4h.559v.254H464.97v-.254h.559v-3.147h-.61v-.255Z" fill="#2393bf"/>
        </g>
        <g id="Grupo_137208" data-name="Grupo 137208">
          <path id="Trazado_195293" data-name="Trazado 195293" d="M481.764,4964.551a1.031,1.031,0,0,1-.524-.132,1.136,1.136,0,0,1-.386-.377,1.873,1.873,0,0,1-.241-.593,3.409,3.409,0,0,1-.082-.783,3.362,3.362,0,0,1,.089-.812,1.953,1.953,0,0,1,.256-.614,1.215,1.215,0,0,1,.406-.389,1.054,1.054,0,0,1,.535-.137,1.016,1.016,0,0,1,.519.132,1.107,1.107,0,0,1,.385.377,1.914,1.914,0,0,1,.239.592,3.4,3.4,0,0,1,.083.781,3.477,3.477,0,0,1-.082.783,2.021,2.021,0,0,1-.241.619,1.212,1.212,0,0,1-.4.407A1.05,1.05,0,0,1,481.764,4964.551Zm.013-.248a.779.779,0,0,0,.209-.027.464.464,0,0,0,.181-.1.671.671,0,0,0,.149-.191,1.207,1.207,0,0,0,.11-.308,3.217,3.217,0,0,0,.069-.45q.024-.262.024-.615a5.592,5.592,0,0,0-.051-.841,1.759,1.759,0,0,0-.143-.5.518.518,0,0,0-.227-.244.676.676,0,0,0-.3-.064.718.718,0,0,0-.306.065.537.537,0,0,0-.235.25,1.692,1.692,0,0,0-.15.515,5.507,5.507,0,0,0-.054.858c0,.229.008.429.023.6a3.43,3.43,0,0,0,.066.44,1.287,1.287,0,0,0,.106.3.659.659,0,0,0,.142.188.478.478,0,0,0,.177.095A.769.769,0,0,0,481.777,4964.3Z" fill="#2393bf"/>
        </g>
        <g id="Grupo_137209" data-name="Grupo 137209">
          <path id="Trazado_195294" data-name="Trazado 195294" d="M487.23,4960.806v3.4h.559v.254H486.2v-.254h.559v-3.147h-.61v-.255Z" fill="#2393bf"/>
        </g>
        <g id="Grupo_137210" data-name="Grupo 137210">
          <path id="Trazado_195295" data-name="Trazado 195295" d="M492.141,4964.551a1.031,1.031,0,0,1-.524-.132,1.136,1.136,0,0,1-.386-.377,1.9,1.9,0,0,1-.24-.593,3.351,3.351,0,0,1-.083-.783,3.412,3.412,0,0,1,.089-.812,1.931,1.931,0,0,1,.257-.614,1.213,1.213,0,0,1,.4-.389,1.055,1.055,0,0,1,.536-.137,1.012,1.012,0,0,1,.518.132,1.107,1.107,0,0,1,.385.377,1.89,1.89,0,0,1,.239.592,3.349,3.349,0,0,1,.083.781,3.537,3.537,0,0,1-.081.783,2.047,2.047,0,0,1-.242.619,1.212,1.212,0,0,1-.4.407A1.048,1.048,0,0,1,492.141,4964.551Zm.013-.248a.792.792,0,0,0,.21-.027.468.468,0,0,0,.18-.1.671.671,0,0,0,.149-.191,1.207,1.207,0,0,0,.11-.308,3.222,3.222,0,0,0,.069-.45q.024-.262.024-.615a5.6,5.6,0,0,0-.051-.841,1.7,1.7,0,0,0-.143-.5.518.518,0,0,0-.227-.244.675.675,0,0,0-.3-.064.722.722,0,0,0-.307.065.542.542,0,0,0-.235.25,1.752,1.752,0,0,0-.15.515,5.658,5.658,0,0,0-.053.858c0,.229.007.429.023.6a3.116,3.116,0,0,0,.066.44,1.335,1.335,0,0,0,.105.3.643.643,0,0,0,.143.188.467.467,0,0,0,.176.095A.774.774,0,0,0,492.154,4964.3Z" fill="#2393bf"/>
        </g>
        <g id="Grupo_137211" data-name="Grupo 137211">
          <path id="Trazado_195296" data-name="Trazado 195296" d="M497.607,4960.806v3.4h.559v.254h-1.589v-.254h.559v-3.147h-.61v-.255Z" fill="#2393bf"/>
        </g>
      </g>
      <g id="Grupo_137222" data-name="Grupo 137222">
        <g id="Grupo_137213" data-name="Grupo 137213">
          <path id="Trazado_195297" data-name="Trazado 195297" d="M454.959,4967.249v3.4h.559v.255h-1.589v-.255h.559V4967.5h-.61v-.254Z" fill="#2393bf"/>
        </g>
        <g id="Grupo_137214" data-name="Grupo 137214">
          <path id="Trazado_195298" data-name="Trazado 195298" d="M465.912,4967.249v3.4h.559v.255h-1.589v-.255h.56V4967.5h-.611v-.254Z" fill="#2393bf"/>
        </g>
        <g id="Grupo_137215" data-name="Grupo 137215">
          <path id="Trazado_195299" data-name="Trazado 195299" d="M471.67,4967.249v3.4h.559v.255H470.64v-.255h.56V4967.5h-.611v-.254Z" fill="#2393bf"/>
        </g>
        <g id="Grupo_137216" data-name="Grupo 137216">
          <path id="Trazado_195300" data-name="Trazado 195300" d="M459.87,4970.994a1.029,1.029,0,0,1-.524-.132,1.136,1.136,0,0,1-.386-.377,1.9,1.9,0,0,1-.24-.593,3.747,3.747,0,0,1,.006-1.6,1.93,1.93,0,0,1,.257-.613,1.221,1.221,0,0,1,.4-.39,1.059,1.059,0,0,1,.536-.136,1.017,1.017,0,0,1,.518.132,1.124,1.124,0,0,1,.386.376,1.956,1.956,0,0,1,.239.593,3.4,3.4,0,0,1,.082.781,3.534,3.534,0,0,1-.081.783,2.005,2.005,0,0,1-.242.618,1.21,1.21,0,0,1-.4.407A1.044,1.044,0,0,1,459.87,4970.994Zm.013-.248a.807.807,0,0,0,.21-.027.483.483,0,0,0,.18-.1.675.675,0,0,0,.149-.191,1.27,1.27,0,0,0,.111-.308,3.375,3.375,0,0,0,.068-.45q.024-.262.024-.615a5.75,5.75,0,0,0-.05-.841,1.724,1.724,0,0,0-.144-.5.521.521,0,0,0-.226-.245.693.693,0,0,0-.3-.063.7.7,0,0,0-.307.065.534.534,0,0,0-.235.249,1.756,1.756,0,0,0-.15.515,5.682,5.682,0,0,0-.053.859c0,.228.007.429.023.6a3.088,3.088,0,0,0,.066.441,1.353,1.353,0,0,0,.105.3.613.613,0,0,0,.143.187.457.457,0,0,0,.176.1A.794.794,0,0,0,459.883,4970.746Z" fill="#2393bf"/>
        </g>
        <g id="Grupo_137217" data-name="Grupo 137217">
          <path id="Trazado_195301" data-name="Trazado 195301" d="M481.764,4970.994a1.027,1.027,0,0,1-.524-.132,1.136,1.136,0,0,1-.386-.377,1.873,1.873,0,0,1-.241-.593,3.769,3.769,0,0,1,.007-1.6,1.952,1.952,0,0,1,.256-.613,1.223,1.223,0,0,1,.406-.39,1.058,1.058,0,0,1,.535-.136,1.02,1.02,0,0,1,.519.132,1.112,1.112,0,0,1,.385.376,1.93,1.93,0,0,1,.239.593,3.393,3.393,0,0,1,.083.781,3.474,3.474,0,0,1-.082.783,2.005,2.005,0,0,1-.241.618,1.21,1.21,0,0,1-.4.407A1.046,1.046,0,0,1,481.764,4970.994Zm.013-.248a.8.8,0,0,0,.209-.027.479.479,0,0,0,.181-.1.675.675,0,0,0,.149-.191,1.232,1.232,0,0,0,.11-.308,3.206,3.206,0,0,0,.069-.45q.024-.262.024-.615a5.587,5.587,0,0,0-.051-.841,1.759,1.759,0,0,0-.143-.5.523.523,0,0,0-.227-.245.745.745,0,0,0-.6,0,.529.529,0,0,0-.235.249,1.7,1.7,0,0,0-.15.515,5.534,5.534,0,0,0-.054.859c0,.228.008.429.023.6a3.394,3.394,0,0,0,.066.441,1.3,1.3,0,0,0,.106.3.628.628,0,0,0,.142.187.468.468,0,0,0,.177.1A.789.789,0,0,0,481.777,4970.746Z" fill="#2393bf"/>
        </g>
        <g id="Grupo_137218" data-name="Grupo 137218">
          <path id="Trazado_195302" data-name="Trazado 195302" d="M476.569,4970.994a1.027,1.027,0,0,1-.524-.132,1.138,1.138,0,0,1-.387-.377,1.9,1.9,0,0,1-.24-.593,3.769,3.769,0,0,1,.007-1.6,1.953,1.953,0,0,1,.256-.613,1.214,1.214,0,0,1,.406-.39,1.055,1.055,0,0,1,.535-.136,1.023,1.023,0,0,1,.519.132,1.121,1.121,0,0,1,.385.376,1.931,1.931,0,0,1,.239.593,3.4,3.4,0,0,1,.083.781,3.473,3.473,0,0,1-.082.783,2.005,2.005,0,0,1-.241.618,1.21,1.21,0,0,1-.4.407A1.046,1.046,0,0,1,476.569,4970.994Zm.012-.248a.8.8,0,0,0,.21-.027.479.479,0,0,0,.181-.1.693.693,0,0,0,.149-.191,1.272,1.272,0,0,0,.11-.308,3.206,3.206,0,0,0,.069-.45q.024-.262.024-.615a5.592,5.592,0,0,0-.051-.841,1.723,1.723,0,0,0-.144-.5.516.516,0,0,0-.226-.245.745.745,0,0,0-.605,0,.529.529,0,0,0-.235.249,1.7,1.7,0,0,0-.15.515,5.538,5.538,0,0,0-.054.859c0,.228.008.429.023.6a3.239,3.239,0,0,0,.066.441,1.3,1.3,0,0,0,.106.3.611.611,0,0,0,.142.187.468.468,0,0,0,.177.1A.787.787,0,0,0,476.581,4970.746Z" fill="#2393bf"/>
        </g>
        <g id="Grupo_137219" data-name="Grupo 137219">
          <path id="Trazado_195303" data-name="Trazado 195303" d="M487.23,4967.249v3.4h.559v.255H486.2v-.255h.559V4967.5h-.61v-.254Z" fill="#2393bf"/>
        </g>
        <g id="Grupo_137220" data-name="Grupo 137220">
          <path id="Trazado_195304" data-name="Trazado 195304" d="M492.141,4970.994a1.027,1.027,0,0,1-.524-.132,1.136,1.136,0,0,1-.386-.377,1.9,1.9,0,0,1-.24-.593,3.349,3.349,0,0,1-.083-.783,3.426,3.426,0,0,1,.089-.813,1.93,1.93,0,0,1,.257-.613,1.221,1.221,0,0,1,.4-.39,1.059,1.059,0,0,1,.536-.136,1.017,1.017,0,0,1,.518.132,1.112,1.112,0,0,1,.385.376,1.906,1.906,0,0,1,.239.593,3.34,3.34,0,0,1,.083.781,3.534,3.534,0,0,1-.081.783,2.031,2.031,0,0,1-.242.618,1.21,1.21,0,0,1-.4.407A1.044,1.044,0,0,1,492.141,4970.994Zm.013-.248a.813.813,0,0,0,.21-.027.482.482,0,0,0,.18-.1.675.675,0,0,0,.149-.191,1.232,1.232,0,0,0,.11-.308,3.21,3.21,0,0,0,.069-.45q.024-.262.024-.615a5.592,5.592,0,0,0-.051-.841,1.7,1.7,0,0,0-.143-.5.523.523,0,0,0-.227-.245.689.689,0,0,0-.3-.063.7.7,0,0,0-.307.065.534.534,0,0,0-.235.249,1.757,1.757,0,0,0-.15.515,5.686,5.686,0,0,0-.053.859c0,.228.007.429.023.6a3.088,3.088,0,0,0,.066.441,1.353,1.353,0,0,0,.105.3.613.613,0,0,0,.143.187.457.457,0,0,0,.176.1A.794.794,0,0,0,492.154,4970.746Z" fill="#2393bf"/>
        </g>
        <g id="Grupo_137221" data-name="Grupo 137221">
          <path id="Trazado_195305" data-name="Trazado 195305" d="M497.607,4967.249v3.4h.559v.255h-1.589v-.255h.559V4967.5h-.61v-.254Z" fill="#2393bf"/>
        </g>
      </g>
    </g>
    <g id="Grupo_137269" data-name="Grupo 137269" transform="translate(-5903.416 -6113.447)">
      <g id="Grupo_137228" data-name="Grupo 137228">
        <g id="Grupo_137227" data-name="Grupo 137227">
          <g id="Grupo_137226" data-name="Grupo 137226">
            <g id="Grupo_137225" data-name="Grupo 137225">
              <g id="Grupo_137224" data-name="Grupo 137224">
                <path id="Trazado_195306" data-name="Trazado 195306" d="M610.6,4958.256H559.639c-1.628,0-2.948,1.649-2.948,3.684V4992.8c0,2.035,1.32,3.684,2.948,3.684h4.34L562,5003.232l7.81-6.751H610.6c1.628,0,2.947-1.649,2.947-3.684V4961.94C613.543,4959.9,612.224,4958.256,610.6,4958.256Z" fill="#fff"/>
              </g>
            </g>
          </g>
        </g>
      </g>
      <g id="Grupo_137238" data-name="Grupo 137238">
        <g id="Grupo_137229" data-name="Grupo 137229">
          <path id="Trazado_195307" data-name="Trazado 195307" d="M563.856,4964.57v3.4h.559v.254h-1.589v-.254h.56v-3.147h-.611v-.254Z" fill="#2393bf"/>
        </g>
        <g id="Grupo_137230" data-name="Grupo 137230">
          <path id="Trazado_195308" data-name="Trazado 195308" d="M568.767,4968.314a1.027,1.027,0,0,1-.523-.132,1.126,1.126,0,0,1-.387-.376,1.9,1.9,0,0,1-.24-.593,3.745,3.745,0,0,1,.006-1.6,1.951,1.951,0,0,1,.257-.613,1.209,1.209,0,0,1,.406-.39,1.055,1.055,0,0,1,.535-.136,1.033,1.033,0,0,1,.519.131,1.129,1.129,0,0,1,.385.377,1.923,1.923,0,0,1,.239.593,3.387,3.387,0,0,1,.082.78,3.554,3.554,0,0,1-.081.784,2.061,2.061,0,0,1-.241.618,1.2,1.2,0,0,1-.4.407A1.039,1.039,0,0,1,568.767,4968.314Zm.013-.248a.782.782,0,0,0,.21-.027.469.469,0,0,0,.18-.1.638.638,0,0,0,.149-.19,1.277,1.277,0,0,0,.111-.309,3.225,3.225,0,0,0,.068-.449q.026-.263.025-.616a5.579,5.579,0,0,0-.051-.84,1.719,1.719,0,0,0-.144-.5.514.514,0,0,0-.226-.245.693.693,0,0,0-.3-.064.7.7,0,0,0-.306.066.531.531,0,0,0-.236.249,1.76,1.76,0,0,0-.15.515,5.663,5.663,0,0,0-.053.858q0,.344.023.6a3.073,3.073,0,0,0,.066.44,1.31,1.31,0,0,0,.106.3.623.623,0,0,0,.142.187.445.445,0,0,0,.177.1A.766.766,0,0,0,568.78,4968.066Z" fill="#2393bf"/>
        </g>
        <g id="Grupo_137231" data-name="Grupo 137231">
          <path id="Trazado_195309" data-name="Trazado 195309" d="M574.526,4968.314a1.031,1.031,0,0,1-.524-.132,1.135,1.135,0,0,1-.387-.376,1.9,1.9,0,0,1-.24-.593,3.4,3.4,0,0,1-.082-.784,3.362,3.362,0,0,1,.089-.812,1.927,1.927,0,0,1,.256-.613,1.209,1.209,0,0,1,.406-.39,1.055,1.055,0,0,1,.535-.136,1.033,1.033,0,0,1,.519.131,1.128,1.128,0,0,1,.385.377,1.923,1.923,0,0,1,.239.593,3.385,3.385,0,0,1,.083.78,3.491,3.491,0,0,1-.082.784,2.036,2.036,0,0,1-.241.618,1.208,1.208,0,0,1-.4.407A1.042,1.042,0,0,1,574.526,4968.314Zm.012-.248a.782.782,0,0,0,.21-.027.473.473,0,0,0,.181-.1.673.673,0,0,0,.149-.19,1.279,1.279,0,0,0,.11-.309,3.211,3.211,0,0,0,.069-.449q.024-.263.024-.616a5.579,5.579,0,0,0-.051-.84,1.719,1.719,0,0,0-.144-.5.51.51,0,0,0-.226-.245.69.69,0,0,0-.3-.064.7.7,0,0,0-.306.066.529.529,0,0,0-.235.249,1.7,1.7,0,0,0-.15.515,5.52,5.52,0,0,0-.054.858q0,.344.023.6a3.217,3.217,0,0,0,.066.44,1.308,1.308,0,0,0,.106.3.623.623,0,0,0,.142.187.459.459,0,0,0,.177.1A.766.766,0,0,0,574.538,4968.066Z" fill="#2393bf"/>
        </g>
        <g id="Grupo_137232" data-name="Grupo 137232">
          <path id="Trazado_195310" data-name="Trazado 195310" d="M585.75,4964.57v3.4h.559v.254H584.72v-.254h.559v-3.147h-.61v-.254Z" fill="#2393bf"/>
        </g>
        <g id="Grupo_137233" data-name="Grupo 137233">
          <path id="Trazado_195311" data-name="Trazado 195311" d="M580.567,4964.57v3.4h.56v.254h-1.589v-.254h.559v-3.147h-.61v-.254Z" fill="#2393bf"/>
        </g>
        <g id="Grupo_137234" data-name="Grupo 137234">
          <path id="Trazado_195312" data-name="Trazado 195312" d="M590.661,4968.314a1.031,1.031,0,0,1-.524-.132,1.132,1.132,0,0,1-.386-.376,1.9,1.9,0,0,1-.24-.593,3.349,3.349,0,0,1-.083-.784,3.412,3.412,0,0,1,.089-.812,1.927,1.927,0,0,1,.257-.613,1.216,1.216,0,0,1,.405-.39,1.058,1.058,0,0,1,.535-.136,1.027,1.027,0,0,1,.519.131,1.12,1.12,0,0,1,.385.377,1.9,1.9,0,0,1,.239.593,3.329,3.329,0,0,1,.083.78,3.55,3.55,0,0,1-.081.784,2.062,2.062,0,0,1-.242.618,1.208,1.208,0,0,1-.4.407A1.039,1.039,0,0,1,590.661,4968.314Zm.013-.248a.792.792,0,0,0,.21-.027.469.469,0,0,0,.18-.1.656.656,0,0,0,.149-.19,1.239,1.239,0,0,0,.11-.309,3.22,3.22,0,0,0,.069-.449q.024-.263.024-.616a5.579,5.579,0,0,0-.051-.84,1.692,1.692,0,0,0-.143-.5.516.516,0,0,0-.227-.245.689.689,0,0,0-.3-.064.708.708,0,0,0-.307.066.534.534,0,0,0-.235.249,1.76,1.76,0,0,0-.15.515,5.539,5.539,0,0,0-.053.858c0,.229.007.43.023.6a3.072,3.072,0,0,0,.066.44,1.307,1.307,0,0,0,.1.3.625.625,0,0,0,.143.187.448.448,0,0,0,.176.1A.774.774,0,0,0,590.674,4968.066Z" fill="#2393bf"/>
        </g>
        <g id="Grupo_137235" data-name="Grupo 137235">
          <path id="Trazado_195313" data-name="Trazado 195313" d="M596.127,4964.57v3.4h.559v.254H595.1v-.254h.559v-3.147h-.61v-.254Z" fill="#2393bf"/>
        </g>
        <g id="Grupo_137236" data-name="Grupo 137236">
          <path id="Trazado_195314" data-name="Trazado 195314" d="M601.038,4968.314a1.027,1.027,0,0,1-.523-.132,1.126,1.126,0,0,1-.387-.376,1.9,1.9,0,0,1-.24-.593,3.745,3.745,0,0,1,.006-1.6,1.951,1.951,0,0,1,.257-.613,1.209,1.209,0,0,1,.406-.39,1.053,1.053,0,0,1,.535-.136,1.026,1.026,0,0,1,.518.131,1.131,1.131,0,0,1,.386.377,1.923,1.923,0,0,1,.239.593,3.387,3.387,0,0,1,.082.78,3.554,3.554,0,0,1-.081.784,2.036,2.036,0,0,1-.242.618,1.19,1.19,0,0,1-.4.407A1.039,1.039,0,0,1,601.038,4968.314Zm.013-.248a.782.782,0,0,0,.21-.027.469.469,0,0,0,.18-.1.656.656,0,0,0,.149-.19,1.28,1.28,0,0,0,.111-.309,3.388,3.388,0,0,0,.068-.449c.016-.175.025-.38.025-.616a5.579,5.579,0,0,0-.051-.84,1.719,1.719,0,0,0-.144-.5.514.514,0,0,0-.226-.245.693.693,0,0,0-.3-.064.7.7,0,0,0-.306.066.531.531,0,0,0-.236.249,1.762,1.762,0,0,0-.15.515,5.663,5.663,0,0,0-.053.858q0,.344.023.6a3.063,3.063,0,0,0,.066.44,1.358,1.358,0,0,0,.1.3.625.625,0,0,0,.143.187.445.445,0,0,0,.177.1A.761.761,0,0,0,601.051,4968.066Z" fill="#2393bf"/>
        </g>
        <g id="Grupo_137237" data-name="Grupo 137237">
          <path id="Trazado_195315" data-name="Trazado 195315" d="M606.5,4964.57v3.4h.559v.254h-1.589v-.254h.56v-3.147h-.611v-.254Z" fill="#2393bf"/>
        </g>
      </g>
      <g id="Grupo_137248" data-name="Grupo 137248">
        <g id="Grupo_137239" data-name="Grupo 137239">
          <path id="Trazado_195316" data-name="Trazado 195316" d="M563.856,4971.012v3.4h.559v.254h-1.589v-.254h.56v-3.147h-.611v-.255Z" fill="#2393bf"/>
        </g>
        <g id="Grupo_137240" data-name="Grupo 137240">
          <path id="Trazado_195317" data-name="Trazado 195317" d="M568.767,4974.757a1.027,1.027,0,0,1-.523-.132,1.12,1.12,0,0,1-.387-.377,1.889,1.889,0,0,1-.24-.592,3.745,3.745,0,0,1,.006-1.6,1.962,1.962,0,0,1,.257-.614,1.209,1.209,0,0,1,.406-.389,1.051,1.051,0,0,1,.535-.137,1.023,1.023,0,0,1,.519.132,1.13,1.13,0,0,1,.385.377,1.915,1.915,0,0,1,.239.593,3.39,3.39,0,0,1,.082.78,3.557,3.557,0,0,1-.081.784,2.056,2.056,0,0,1-.241.618,1.206,1.206,0,0,1-.4.407A1.048,1.048,0,0,1,568.767,4974.757Zm.013-.248a.782.782,0,0,0,.21-.027.462.462,0,0,0,.18-.1.631.631,0,0,0,.149-.191,1.249,1.249,0,0,0,.111-.308,3.226,3.226,0,0,0,.068-.45q.026-.262.025-.615a5.593,5.593,0,0,0-.051-.841,1.707,1.707,0,0,0-.144-.5.514.514,0,0,0-.226-.245.68.68,0,0,0-.3-.064.714.714,0,0,0-.306.065.538.538,0,0,0-.236.25,1.751,1.751,0,0,0-.15.515,5.645,5.645,0,0,0-.053.858q0,.344.023.6a3.1,3.1,0,0,0,.066.44,1.289,1.289,0,0,0,.106.3.628.628,0,0,0,.142.188.463.463,0,0,0,.177.095A.766.766,0,0,0,568.78,4974.509Z" fill="#2393bf"/>
        </g>
        <g id="Grupo_137241" data-name="Grupo 137241">
          <path id="Trazado_195318" data-name="Trazado 195318" d="M574.526,4974.757a1.031,1.031,0,0,1-.524-.132,1.129,1.129,0,0,1-.387-.377,1.889,1.889,0,0,1-.24-.592,3.411,3.411,0,0,1-.082-.784,3.357,3.357,0,0,1,.089-.812,1.937,1.937,0,0,1,.256-.614,1.209,1.209,0,0,1,.406-.389,1.051,1.051,0,0,1,.535-.137,1.023,1.023,0,0,1,.519.132,1.13,1.13,0,0,1,.385.377,1.915,1.915,0,0,1,.239.593,3.388,3.388,0,0,1,.083.78,3.494,3.494,0,0,1-.082.784,2.031,2.031,0,0,1-.241.618,1.212,1.212,0,0,1-.4.407A1.05,1.05,0,0,1,574.526,4974.757Zm.012-.248a.782.782,0,0,0,.21-.027.466.466,0,0,0,.181-.1.665.665,0,0,0,.149-.191,1.251,1.251,0,0,0,.11-.308,3.212,3.212,0,0,0,.069-.45q.024-.262.024-.615a5.593,5.593,0,0,0-.051-.841,1.707,1.707,0,0,0-.144-.5.51.51,0,0,0-.226-.245.677.677,0,0,0-.3-.064.714.714,0,0,0-.306.065.537.537,0,0,0-.235.25,1.693,1.693,0,0,0-.15.515,5.5,5.5,0,0,0-.054.858q0,.344.023.6a3.241,3.241,0,0,0,.066.44,1.287,1.287,0,0,0,.106.3.628.628,0,0,0,.142.188.478.478,0,0,0,.177.095A.766.766,0,0,0,574.538,4974.509Z" fill="#2393bf"/>
        </g>
        <g id="Grupo_137242" data-name="Grupo 137242">
          <path id="Trazado_195319" data-name="Trazado 195319" d="M580.284,4974.757a1.031,1.031,0,0,1-.524-.132,1.118,1.118,0,0,1-.386-.377,1.866,1.866,0,0,1-.241-.592,3.411,3.411,0,0,1-.082-.784,3.357,3.357,0,0,1,.089-.812,1.96,1.96,0,0,1,.256-.614,1.218,1.218,0,0,1,.406-.389,1.051,1.051,0,0,1,.535-.137,1.023,1.023,0,0,1,.519.132,1.122,1.122,0,0,1,.385.377,1.917,1.917,0,0,1,.239.593,3.388,3.388,0,0,1,.083.78,3.494,3.494,0,0,1-.082.784,2.031,2.031,0,0,1-.241.618,1.212,1.212,0,0,1-.4.407A1.05,1.05,0,0,1,580.284,4974.757Zm.013-.248a.779.779,0,0,0,.209-.027.459.459,0,0,0,.181-.1.648.648,0,0,0,.149-.191,1.212,1.212,0,0,0,.11-.308,3.212,3.212,0,0,0,.069-.45q.024-.262.024-.615a5.593,5.593,0,0,0-.051-.841,1.707,1.707,0,0,0-.144-.5.51.51,0,0,0-.226-.245.677.677,0,0,0-.3-.064.718.718,0,0,0-.306.065.537.537,0,0,0-.235.25,1.693,1.693,0,0,0-.15.515,5.5,5.5,0,0,0-.054.858q0,.344.023.6a3.4,3.4,0,0,0,.066.44,1.287,1.287,0,0,0,.106.3.628.628,0,0,0,.142.188.478.478,0,0,0,.177.095A.769.769,0,0,0,580.3,4974.509Z" fill="#2393bf"/>
        </g>
        <g id="Grupo_137243" data-name="Grupo 137243">
          <path id="Trazado_195320" data-name="Trazado 195320" d="M585.75,4971.012v3.4h.559v.254H584.72v-.254h.559v-3.147h-.61v-.255Z" fill="#2393bf"/>
        </g>
        <g id="Grupo_137244" data-name="Grupo 137244">
          <path id="Trazado_195321" data-name="Trazado 195321" d="M590.661,4974.757a1.031,1.031,0,0,1-.524-.132,1.127,1.127,0,0,1-.386-.377,1.889,1.889,0,0,1-.24-.592,3.355,3.355,0,0,1-.083-.784,3.406,3.406,0,0,1,.089-.812,1.938,1.938,0,0,1,.257-.614,1.216,1.216,0,0,1,.405-.389,1.054,1.054,0,0,1,.535-.137,1.018,1.018,0,0,1,.519.132,1.121,1.121,0,0,1,.385.377,1.89,1.89,0,0,1,.239.593,3.331,3.331,0,0,1,.083.78,3.554,3.554,0,0,1-.081.784,2.057,2.057,0,0,1-.242.618,1.212,1.212,0,0,1-.4.407A1.048,1.048,0,0,1,590.661,4974.757Zm.013-.248a.792.792,0,0,0,.21-.027.463.463,0,0,0,.18-.1.648.648,0,0,0,.149-.191,1.212,1.212,0,0,0,.11-.308,3.221,3.221,0,0,0,.069-.45q.024-.262.024-.615a5.593,5.593,0,0,0-.051-.841,1.68,1.68,0,0,0-.143-.5.516.516,0,0,0-.227-.245.675.675,0,0,0-.3-.064.722.722,0,0,0-.307.065.541.541,0,0,0-.235.25,1.751,1.751,0,0,0-.15.515,5.521,5.521,0,0,0-.053.858c0,.229.007.429.023.6a3.094,3.094,0,0,0,.066.44,1.286,1.286,0,0,0,.1.3.63.63,0,0,0,.143.188.466.466,0,0,0,.176.095A.774.774,0,0,0,590.674,4974.509Z" fill="#2393bf"/>
        </g>
        <g id="Grupo_137245" data-name="Grupo 137245">
          <path id="Trazado_195322" data-name="Trazado 195322" d="M596.127,4971.012v3.4h.559v.254H595.1v-.254h.559v-3.147h-.61v-.255Z" fill="#2393bf"/>
        </g>
        <g id="Grupo_137246" data-name="Grupo 137246">
          <path id="Trazado_195323" data-name="Trazado 195323" d="M601.038,4974.757a1.027,1.027,0,0,1-.523-.132,1.12,1.12,0,0,1-.387-.377,1.889,1.889,0,0,1-.24-.592,3.745,3.745,0,0,1,.006-1.6,1.962,1.962,0,0,1,.257-.614,1.209,1.209,0,0,1,.406-.389,1.049,1.049,0,0,1,.535-.137,1.017,1.017,0,0,1,.518.132,1.132,1.132,0,0,1,.386.377,1.915,1.915,0,0,1,.239.593,3.39,3.39,0,0,1,.082.78,3.557,3.557,0,0,1-.081.784,2.031,2.031,0,0,1-.242.618,1.194,1.194,0,0,1-.4.407A1.048,1.048,0,0,1,601.038,4974.757Zm.013-.248a.782.782,0,0,0,.21-.027.462.462,0,0,0,.18-.1.649.649,0,0,0,.149-.191,1.252,1.252,0,0,0,.111-.308,3.388,3.388,0,0,0,.068-.45c.016-.175.025-.38.025-.615a5.593,5.593,0,0,0-.051-.841,1.707,1.707,0,0,0-.144-.5.514.514,0,0,0-.226-.245.68.68,0,0,0-.3-.064.714.714,0,0,0-.306.065.538.538,0,0,0-.236.25,1.753,1.753,0,0,0-.15.515,5.645,5.645,0,0,0-.053.858q0,.344.023.6a3.085,3.085,0,0,0,.066.44,1.335,1.335,0,0,0,.1.3.63.63,0,0,0,.143.188.463.463,0,0,0,.177.095A.761.761,0,0,0,601.051,4974.509Z" fill="#2393bf"/>
        </g>
        <g id="Grupo_137247" data-name="Grupo 137247">
          <path id="Trazado_195324" data-name="Trazado 195324" d="M606.5,4971.012v3.4h.559v.254h-1.589v-.254h.56v-3.147h-.611v-.255Z" fill="#2393bf"/>
        </g>
      </g>
      <g id="Grupo_137258" data-name="Grupo 137258">
        <g id="Grupo_137249" data-name="Grupo 137249">
          <path id="Trazado_195325" data-name="Trazado 195325" d="M563.856,4977.455v3.4h.559v.255h-1.589v-.255h.56v-3.147h-.611v-.254Z" fill="#2393bf"/>
        </g>
        <g id="Grupo_137250" data-name="Grupo 137250">
          <path id="Trazado_195326" data-name="Trazado 195326" d="M568.767,4981.2a1.028,1.028,0,0,1-.523-.132,1.129,1.129,0,0,1-.387-.377,1.9,1.9,0,0,1-.24-.593,3.743,3.743,0,0,1,.006-1.6,1.959,1.959,0,0,1,.257-.614,1.211,1.211,0,0,1,.406-.389,1.056,1.056,0,0,1,.535-.137,1.024,1.024,0,0,1,.519.132,1.115,1.115,0,0,1,.385.377,1.914,1.914,0,0,1,.239.592,3.4,3.4,0,0,1,.082.781,3.541,3.541,0,0,1-.081.783,2.047,2.047,0,0,1-.241.619,1.221,1.221,0,0,1-.4.407A1.052,1.052,0,0,1,568.767,4981.2Zm.013-.248a.781.781,0,0,0,.21-.027.474.474,0,0,0,.18-.1.656.656,0,0,0,.149-.191,1.253,1.253,0,0,0,.111-.308,3.214,3.214,0,0,0,.068-.45q.026-.262.025-.615a5.591,5.591,0,0,0-.051-.841,1.723,1.723,0,0,0-.144-.5.519.519,0,0,0-.226-.245.693.693,0,0,0-.3-.063.714.714,0,0,0-.306.065.538.538,0,0,0-.236.25,1.755,1.755,0,0,0-.15.515,5.649,5.649,0,0,0-.053.858q0,.344.023.6a3.117,3.117,0,0,0,.066.44,1.306,1.306,0,0,0,.106.3.611.611,0,0,0,.142.187.446.446,0,0,0,.177.1A.766.766,0,0,0,568.78,4980.952Z" fill="#2393bf"/>
        </g>
        <g id="Grupo_137251" data-name="Grupo 137251">
          <path id="Trazado_195327" data-name="Trazado 195327" d="M580.284,4981.2a1.031,1.031,0,0,1-.524-.132,1.126,1.126,0,0,1-.386-.377,1.873,1.873,0,0,1-.241-.593,3.406,3.406,0,0,1-.082-.783,3.362,3.362,0,0,1,.089-.812,1.957,1.957,0,0,1,.256-.614,1.22,1.22,0,0,1,.406-.389,1.056,1.056,0,0,1,.535-.137,1.023,1.023,0,0,1,.519.132,1.107,1.107,0,0,1,.385.377,1.916,1.916,0,0,1,.239.592,3.4,3.4,0,0,1,.083.781,3.477,3.477,0,0,1-.082.783,2.022,2.022,0,0,1-.241.619,1.228,1.228,0,0,1-.4.407A1.055,1.055,0,0,1,580.284,4981.2Zm.013-.248a.779.779,0,0,0,.209-.027.471.471,0,0,0,.181-.1.675.675,0,0,0,.149-.191,1.217,1.217,0,0,0,.11-.308,3.2,3.2,0,0,0,.069-.45q.024-.262.024-.615a5.591,5.591,0,0,0-.051-.841,1.723,1.723,0,0,0-.144-.5.514.514,0,0,0-.226-.245.69.69,0,0,0-.3-.063.718.718,0,0,0-.306.065.537.537,0,0,0-.235.25,1.7,1.7,0,0,0-.15.515,5.507,5.507,0,0,0-.054.858q0,.344.023.6a3.429,3.429,0,0,0,.066.44,1.3,1.3,0,0,0,.106.3.611.611,0,0,0,.142.187.46.46,0,0,0,.177.1A.768.768,0,0,0,580.3,4980.952Z" fill="#2393bf"/>
        </g>
        <g id="Grupo_137252" data-name="Grupo 137252">
          <path id="Trazado_195328" data-name="Trazado 195328" d="M585.75,4977.455v3.4h.559v.255H584.72v-.255h.559v-3.147h-.61v-.254Z" fill="#2393bf"/>
        </g>
        <g id="Grupo_137253" data-name="Grupo 137253">
          <path id="Trazado_195329" data-name="Trazado 195329" d="M574.9,4977.455v3.4h.559v.255h-1.589v-.255h.56v-3.147h-.611v-.254Z" fill="#2393bf"/>
        </g>
        <g id="Grupo_137254" data-name="Grupo 137254">
          <path id="Trazado_195330" data-name="Trazado 195330" d="M590.661,4981.2a1.031,1.031,0,0,1-.524-.132,1.136,1.136,0,0,1-.386-.377,1.9,1.9,0,0,1-.24-.593,3.35,3.35,0,0,1-.083-.783,3.412,3.412,0,0,1,.089-.812,1.935,1.935,0,0,1,.257-.614,1.217,1.217,0,0,1,.405-.389,1.059,1.059,0,0,1,.535-.137,1.018,1.018,0,0,1,.519.132,1.107,1.107,0,0,1,.385.377,1.889,1.889,0,0,1,.239.592,3.341,3.341,0,0,1,.083.781,3.537,3.537,0,0,1-.081.783,2.048,2.048,0,0,1-.242.619,1.228,1.228,0,0,1-.4.407A1.052,1.052,0,0,1,590.661,4981.2Zm.013-.248a.792.792,0,0,0,.21-.027.475.475,0,0,0,.18-.1.675.675,0,0,0,.149-.191,1.217,1.217,0,0,0,.11-.308,3.21,3.21,0,0,0,.069-.45q.024-.262.024-.615a5.591,5.591,0,0,0-.051-.841,1.7,1.7,0,0,0-.143-.5.52.52,0,0,0-.227-.245.689.689,0,0,0-.3-.063.722.722,0,0,0-.307.065.541.541,0,0,0-.235.25,1.755,1.755,0,0,0-.15.515,5.526,5.526,0,0,0-.053.858c0,.229.007.429.023.6a3.116,3.116,0,0,0,.066.44,1.3,1.3,0,0,0,.1.3.613.613,0,0,0,.143.187.449.449,0,0,0,.176.1A.774.774,0,0,0,590.674,4980.952Z" fill="#2393bf"/>
        </g>
        <g id="Grupo_137255" data-name="Grupo 137255">
          <path id="Trazado_195331" data-name="Trazado 195331" d="M596.127,4977.455v3.4h.559v.255H595.1v-.255h.559v-3.147h-.61v-.254Z" fill="#2393bf"/>
        </g>
        <g id="Grupo_137256" data-name="Grupo 137256">
          <path id="Trazado_195332" data-name="Trazado 195332" d="M601.038,4981.2a1.028,1.028,0,0,1-.523-.132,1.129,1.129,0,0,1-.387-.377,1.9,1.9,0,0,1-.24-.593,3.743,3.743,0,0,1,.006-1.6,1.959,1.959,0,0,1,.257-.614,1.211,1.211,0,0,1,.406-.389,1.054,1.054,0,0,1,.535-.137,1.017,1.017,0,0,1,.518.132,1.118,1.118,0,0,1,.386.377,1.914,1.914,0,0,1,.239.592,3.4,3.4,0,0,1,.082.781,3.541,3.541,0,0,1-.081.783,2.023,2.023,0,0,1-.242.619,1.209,1.209,0,0,1-.4.407A1.052,1.052,0,0,1,601.038,4981.2Zm.013-.248a.781.781,0,0,0,.21-.027.474.474,0,0,0,.18-.1.675.675,0,0,0,.149-.191,1.256,1.256,0,0,0,.111-.308,3.376,3.376,0,0,0,.068-.45c.016-.175.025-.38.025-.615a5.591,5.591,0,0,0-.051-.841,1.723,1.723,0,0,0-.144-.5.519.519,0,0,0-.226-.245.693.693,0,0,0-.3-.063.714.714,0,0,0-.306.065.538.538,0,0,0-.236.25,1.757,1.757,0,0,0-.15.515,5.649,5.649,0,0,0-.053.858q0,.344.023.6a3.107,3.107,0,0,0,.066.44,1.353,1.353,0,0,0,.1.3.613.613,0,0,0,.143.187.446.446,0,0,0,.177.1A.761.761,0,0,0,601.051,4980.952Z" fill="#2393bf"/>
        </g>
        <g id="Grupo_137257" data-name="Grupo 137257">
          <path id="Trazado_195333" data-name="Trazado 195333" d="M606.5,4977.455v3.4h.559v.255h-1.589v-.255h.56v-3.147h-.611v-.254Z" fill="#2393bf"/>
        </g>
      </g>
      <g id="Grupo_137268" data-name="Grupo 137268">
        <g id="Grupo_137259" data-name="Grupo 137259">
          <path id="Trazado_195334" data-name="Trazado 195334" d="M563.856,4983.9v3.4h.559v.254h-1.589v-.254h.56v-3.147h-.611v-.254Z" fill="#2393bf"/>
        </g>
        <g id="Grupo_137260" data-name="Grupo 137260">
          <path id="Trazado_195335" data-name="Trazado 195335" d="M574.809,4983.9v3.4h.56v.254h-1.59v-.254h.56v-3.147h-.61v-.254Z" fill="#2393bf"/>
        </g>
        <g id="Grupo_137261" data-name="Grupo 137261">
          <path id="Trazado_195336" data-name="Trazado 195336" d="M580.567,4983.9v3.4h.56v.254h-1.589v-.254h.559v-3.147h-.61v-.254Z" fill="#2393bf"/>
        </g>
        <g id="Grupo_137262" data-name="Grupo 137262">
          <path id="Trazado_195337" data-name="Trazado 195337" d="M568.767,4987.642a1.037,1.037,0,0,1-.523-.131,1.135,1.135,0,0,1-.387-.377,1.892,1.892,0,0,1-.24-.593,3.747,3.747,0,0,1,.006-1.6,1.953,1.953,0,0,1,.257-.613,1.209,1.209,0,0,1,.406-.39,1.055,1.055,0,0,1,.535-.136,1.023,1.023,0,0,1,.519.132,1.121,1.121,0,0,1,.385.376,1.919,1.919,0,0,1,.239.593,3.387,3.387,0,0,1,.082.78,3.554,3.554,0,0,1-.081.784,2.043,2.043,0,0,1-.241.618,1.2,1.2,0,0,1-.4.407A1.039,1.039,0,0,1,568.767,4987.642Zm.013-.247a.744.744,0,0,0,.21-.028.48.48,0,0,0,.18-.1.656.656,0,0,0,.149-.191,1.262,1.262,0,0,0,.111-.309,3.221,3.221,0,0,0,.068-.449q.026-.262.025-.615a5.58,5.58,0,0,0-.051-.841,1.723,1.723,0,0,0-.144-.5.52.52,0,0,0-.226-.245.693.693,0,0,0-.3-.063.7.7,0,0,0-.306.065.531.531,0,0,0-.236.249,1.761,1.761,0,0,0-.15.515,5.679,5.679,0,0,0-.053.859c0,.228.008.429.023.6a3.107,3.107,0,0,0,.066.441,1.326,1.326,0,0,0,.106.3.611.611,0,0,0,.142.187.451.451,0,0,0,.177.1A.73.73,0,0,0,568.78,4987.4Z" fill="#2393bf"/>
        </g>
        <g id="Grupo_137263" data-name="Grupo 137263">
          <path id="Trazado_195338" data-name="Trazado 195338" d="M590.661,4987.642a1.04,1.04,0,0,1-.524-.131,1.142,1.142,0,0,1-.386-.377,1.892,1.892,0,0,1-.24-.593,3.353,3.353,0,0,1-.083-.784,3.418,3.418,0,0,1,.089-.812,1.929,1.929,0,0,1,.257-.613,1.216,1.216,0,0,1,.405-.39,1.058,1.058,0,0,1,.535-.136,1.018,1.018,0,0,1,.519.132,1.112,1.112,0,0,1,.385.376,1.893,1.893,0,0,1,.239.593,3.329,3.329,0,0,1,.083.78,3.55,3.55,0,0,1-.081.784,2.043,2.043,0,0,1-.242.618,1.205,1.205,0,0,1-.4.407A1.039,1.039,0,0,1,590.661,4987.642Zm.013-.247a.754.754,0,0,0,.21-.028.48.48,0,0,0,.18-.1.675.675,0,0,0,.149-.191,1.225,1.225,0,0,0,.11-.309,3.217,3.217,0,0,0,.069-.449q.024-.262.024-.615a5.58,5.58,0,0,0-.051-.841,1.7,1.7,0,0,0-.143-.5.521.521,0,0,0-.227-.245.689.689,0,0,0-.3-.063.708.708,0,0,0-.307.065.534.534,0,0,0-.235.249,1.761,1.761,0,0,0-.15.515,5.555,5.555,0,0,0-.053.859c0,.228.007.429.023.6a3.107,3.107,0,0,0,.066.441,1.323,1.323,0,0,0,.1.3.613.613,0,0,0,.143.187.454.454,0,0,0,.176.1A.737.737,0,0,0,590.674,4987.4Z" fill="#2393bf"/>
        </g>
        <g id="Grupo_137264" data-name="Grupo 137264">
          <path id="Trazado_195339" data-name="Trazado 195339" d="M585.466,4987.642a1.04,1.04,0,0,1-.524-.131,1.141,1.141,0,0,1-.386-.377,1.915,1.915,0,0,1-.241-.593,3.409,3.409,0,0,1-.082-.784,3.368,3.368,0,0,1,.089-.812,1.929,1.929,0,0,1,.257-.613,1.216,1.216,0,0,1,.405-.39,1.058,1.058,0,0,1,.535-.136,1.018,1.018,0,0,1,.519.132,1.113,1.113,0,0,1,.385.376,1.893,1.893,0,0,1,.239.593,3.385,3.385,0,0,1,.083.78,3.55,3.55,0,0,1-.081.784,2.043,2.043,0,0,1-.242.618,1.205,1.205,0,0,1-.4.407A1.039,1.039,0,0,1,585.466,4987.642Zm.013-.247a.742.742,0,0,0,.209-.028.476.476,0,0,0,.181-.1.675.675,0,0,0,.149-.191,1.225,1.225,0,0,0,.11-.309,3.208,3.208,0,0,0,.069-.449q.024-.262.024-.615a5.58,5.58,0,0,0-.051-.841,1.726,1.726,0,0,0-.143-.5.521.521,0,0,0-.227-.245.689.689,0,0,0-.3-.063.708.708,0,0,0-.307.065.529.529,0,0,0-.235.249,1.761,1.761,0,0,0-.15.515,5.555,5.555,0,0,0-.053.859c0,.228.007.429.022.6a3.24,3.24,0,0,0,.067.441,1.326,1.326,0,0,0,.1.3.613.613,0,0,0,.143.187.454.454,0,0,0,.176.1A.737.737,0,0,0,585.479,4987.4Z" fill="#2393bf"/>
        </g>
        <g id="Grupo_137265" data-name="Grupo 137265">
          <path id="Trazado_195340" data-name="Trazado 195340" d="M596.127,4983.9v3.4h.559v.254H595.1v-.254h.559v-3.147h-.61v-.254Z" fill="#2393bf"/>
        </g>
        <g id="Grupo_137266" data-name="Grupo 137266">
          <path id="Trazado_195341" data-name="Trazado 195341" d="M601.038,4987.642a1.037,1.037,0,0,1-.523-.131,1.135,1.135,0,0,1-.387-.377,1.892,1.892,0,0,1-.24-.593,3.747,3.747,0,0,1,.006-1.6,1.953,1.953,0,0,1,.257-.613,1.209,1.209,0,0,1,.406-.39,1.053,1.053,0,0,1,.535-.136,1.017,1.017,0,0,1,.518.132,1.123,1.123,0,0,1,.386.376,1.919,1.919,0,0,1,.239.593,3.387,3.387,0,0,1,.082.78,3.554,3.554,0,0,1-.081.784,2.018,2.018,0,0,1-.242.618,1.187,1.187,0,0,1-.4.407A1.039,1.039,0,0,1,601.038,4987.642Zm.013-.247a.744.744,0,0,0,.21-.028.48.48,0,0,0,.18-.1.675.675,0,0,0,.149-.191,1.265,1.265,0,0,0,.111-.309,3.384,3.384,0,0,0,.068-.449c.016-.175.025-.38.025-.615a5.58,5.58,0,0,0-.051-.841,1.723,1.723,0,0,0-.144-.5.52.52,0,0,0-.226-.245.693.693,0,0,0-.3-.063.7.7,0,0,0-.306.065.531.531,0,0,0-.236.249,1.763,1.763,0,0,0-.15.515,5.679,5.679,0,0,0-.053.859c0,.228.008.429.023.6a3.1,3.1,0,0,0,.066.441,1.375,1.375,0,0,0,.1.3.613.613,0,0,0,.143.187.451.451,0,0,0,.177.1A.725.725,0,0,0,601.051,4987.4Z" fill="#2393bf"/>
        </g>
        <g id="Grupo_137267" data-name="Grupo 137267">
          <path id="Trazado_195342" data-name="Trazado 195342" d="M606.5,4983.9v3.4h.559v.254h-1.589v-.254h.56v-3.147h-.611v-.254Z" fill="#2393bf"/>
        </g>
      </g>
    </g>
  </g>
</svg>
