<svg xmlns="http://www.w3.org/2000/svg" width="610" height="363" viewBox="0 0 610 363">
  <g id="Grupo_140237" data-name="Grupo 140237" transform="translate(-180 -6296)">
    <rect id="Rectángulo_294958" data-name="Rectángulo 294958" width="610" height="43" transform="translate(180 6616)" fill="#084a93"/>
    <rect id="Rectángulo_294963" data-name="Rectángulo 294963" width="610" height="320" transform="translate(180 6296)" fill="#00defc" opacity="0.24"/>
    <text id="Ciclo_for_para_" data-name="Ciclo for (para) " transform="translate(416 6645)" fill="#fff" font-size="20" font-family="Roboto-Black, Roboto" font-weight="800"><tspan x="0" y="0">Ciclo</tspan><tspan y="0" xml:space="preserve" font-family="Roboto-Regular, Roboto" font-weight="400"> for</tspan><tspan y="0" xml:space="preserve"> (para)</tspan><tspan y="0" font-size="16"> </tspan></text>
    <g id="Grupo_137533" data-name="Grupo 137533" transform="translate(-270.661 5946)">
      <g id="Grupo_137273" data-name="Grupo 137273" transform="translate(517.291 360)">
        <path id="Trazado_195343" data-name="Trazado 195343" d="M1053.656,524.494c-36.666-12.623,36.557-15.549,13.291-97.789a190.446,190.446,0,0,0-7.4-18.569C1030.482,352.72,905.5,343.551,890.407,388.99c-8,24.085,5.133-.572-104-3.659-47.613-1.347-78.253,16.305-91.694,47.724q-1.562,3.643-2.862,7.429c-8.443,24.54-8.616,52.924,1.512,75.411,24.623,54.672-31.937,5.38-45.164,42.689-24.212,68.292,39.749,107.395,39.749,107.395l357.573.566C1101.834,639.737,1106.024,542.522,1053.656,524.494Z" transform="translate(-642.722 -360)" fill="#d6e6fe"/>
      </g>
      <g id="Grupo_137305" data-name="Grupo 137305" transform="translate(892.409 547.164)">
        <g id="Grupo_137277" data-name="Grupo 137277" transform="translate(36.548 0)">
          <g id="Grupo_137274" data-name="Grupo 137274" transform="translate(0.45 0.45)">
            <path id="Trazado_195344" data-name="Trazado 195344" d="M3826.13,1825.63c-2.371,18.584-1.769,39.954-1.769,39.954,33.73-25.754,27.567-47.376,23.826-52.94C3842.927,1804.818,3828.5,1807.046,3826.13,1825.63Z" transform="translate(-3824.293 -1808.392)" fill="#9db8fd"/>
          </g>
          <g id="Grupo_137276" data-name="Grupo 137276">
            <g id="Grupo_137275" data-name="Grupo 137275">
              <path id="Trazado_195345" data-name="Trazado 195345" d="M3820.909,1863.458l-.025-.884c-.006-.214-.576-21.618,1.772-40.024a25.19,25.19,0,0,1,4.475-12.152,13.4,13.4,0,0,1,7.532-5.187,10.146,10.146,0,0,1,10.877,4.157c2.308,3.432,4.27,10.535,2.2,19.256a45.5,45.5,0,0,1-7.559,15.846,89.355,89.355,0,0,1-18.572,18.451Zm2.2-40.851.449.057c-2.066,16.2-1.863,34.75-1.784,38.991a87.463,87.463,0,0,0,17.676-17.713,44.618,44.618,0,0,0,7.414-15.527,28.686,28.686,0,0,0,.455-11.717,18.138,18.138,0,0,0-2.528-6.825,9.248,9.248,0,0,0-9.916-3.781,12.51,12.51,0,0,0-7.018,4.852,24.3,24.3,0,0,0-4.3,11.72Z" transform="translate(-3820.819 -1804.919)"/>
            </g>
          </g>
        </g>
        <g id="Grupo_137281" data-name="Grupo 137281" transform="translate(37.539 44.755)">
          <g id="Grupo_137278" data-name="Grupo 137278" transform="translate(0.848 0.454)">
            <path id="Trazado_195346" data-name="Trazado 195346" d="M3835.014,2176.5c24.925,5.629,43.082-7.976,35.636-19.893S3835.014,2176.5,3835.014,2176.5Z" transform="translate(-3835.014 -2153.935)" fill="#6178e3"/>
          </g>
          <g id="Grupo_137280" data-name="Grupo 137280">
            <g id="Grupo_137279" data-name="Grupo 137279">
              <path id="Trazado_195347" data-name="Trazado 195347" d="M3840.715,2175.217a52.329,52.329,0,0,1-11.5-1.323l-.749-.169.509-.574a153.26,153.26,0,0,1,11.743-11.641c8.741-7.71,15.465-11.428,19.988-11.05a5.792,5.792,0,0,1,4.628,2.859,10.5,10.5,0,0,1-.443,12.26c-2.668,3.76-7.476,6.714-13.535,8.316A41.692,41.692,0,0,1,3840.715,2175.217Zm-10.538-2.042a45.664,45.664,0,0,0,20.949-.158c5.855-1.548,10.481-4.376,13.028-7.964a9.645,9.645,0,0,0,.413-11.255,4.868,4.868,0,0,0-3.935-2.436C3851.294,2150.584,3833.454,2169.591,3830.177,2173.176Z" transform="translate(-3828.468 -2150.434)"/>
            </g>
          </g>
        </g>
        <g id="Grupo_137285" data-name="Grupo 137285" transform="translate(28.696 71.684)">
          <g id="Grupo_137282" data-name="Grupo 137282" transform="translate(0.963 0.456)">
            <path id="Trazado_195348" data-name="Trazado 195348" d="M3767.633,2377.638c23.729,9.479,48.017.857,42.538-12.082S3767.633,2377.638,3767.633,2377.638Z" transform="translate(-3767.633 -2361.842)" fill="#9db8fd"/>
          </g>
          <g id="Grupo_137284" data-name="Grupo 137284">
            <g id="Grupo_137283" data-name="Grupo 137283">
              <path id="Trazado_195349" data-name="Trazado 195349" d="M3781.563,2379.042a56.285,56.285,0,0,1-20.571-4.048l-.8-.318.709-.479a168.676,168.676,0,0,1,15.267-8.962c11.124-5.711,19.146-7.9,23.846-6.508a6.117,6.117,0,0,1,4.1,3.587,8.849,8.849,0,0,1-2.027,10.255c-3.349,3.418-9.431,5.72-16.687,6.318C3784.141,2378.991,3782.859,2379.042,3781.563,2379.042Zm-19.423-4.573a54,54,0,0,0,23.187,3.514c7.042-.58,12.916-2.784,16.113-6.049a8,8,0,0,0,1.84-9.266,5.181,5.181,0,0,0-3.519-3.071C3790.021,2356.711,3766.57,2371.577,3762.14,2374.47Z" transform="translate(-3760.197 -2358.322)"/>
            </g>
          </g>
        </g>
        <g id="Grupo_137289" data-name="Grupo 137289" transform="translate(12.257 23.331)">
          <g id="Grupo_137286" data-name="Grupo 137286" transform="translate(0.451 0.453)">
            <path id="Trazado_195350" data-name="Trazado 195350" d="M3645.989,1988.541c-18.346.683-5.4,34.341,5.274,45.308C3651.263,2033.849,3664.334,1987.858,3645.989,1988.541Z" transform="translate(-3636.774 -1988.533)" fill="#6178e3"/>
          </g>
          <g id="Grupo_137288" data-name="Grupo 137288">
            <g id="Grupo_137287" data-name="Grupo 137287">
              <path id="Trazado_195351" data-name="Trazado 195351" d="M3648.45,2031.68l-.547-.561c-4.151-4.265-8.528-11.725-11.423-19.468-4.446-11.893-3.284-18.229-2.195-20.948,1.439-3.6,4.351-5.5,8.652-5.662a8.014,8.014,0,0,1,6.979,3.088c3.342,4.258,4.143,12.769,2.377,25.3a148.237,148.237,0,0,1-3.629,17.5Zm-5.5-46.185.017.453c-3.91.146-6.549,1.859-7.844,5.093-1.769,4.419-.966,11.815,2.2,20.293,2.725,7.29,6.771,14.311,10.673,18.57,1.321-4.968,8.168-32.338,1.2-41.214a7.066,7.066,0,0,0-6.232-2.742Z" transform="translate(-3633.288 -1985.034)"/>
            </g>
          </g>
        </g>
        <g id="Grupo_137293" data-name="Grupo 137293" transform="translate(0 50.859)">
          <g id="Grupo_137290" data-name="Grupo 137290" transform="translate(0.444 0.455)">
            <path id="Trazado_195352" data-name="Trazado 195352" d="M3549.9,2201.31c-15.93-3.228-4.4,27.293,7.277,32.8C3557.174,2234.112,3565.826,2204.538,3549.9,2201.31Z" transform="translate(-3542.09 -2201.072)" fill="#9db8fd"/>
          </g>
          <g id="Grupo_137292" data-name="Grupo 137292">
            <g id="Grupo_137291" data-name="Grupo 137291">
              <path id="Trazado_195353" data-name="Trazado 195353" d="M3554.478,2231.69l-.479-.226c-4.11-1.939-8.491-7.02-11.717-13.592-3.165-6.445-4.37-12.741-3.146-16.431.742-2.235,2.709-4.679,7.87-3.633a10.776,10.776,0,0,1,7.361,5.165c2.389,3.956,3.156,9.913,2.281,17.707a69.788,69.788,0,0,1-2.021,10.5Zm-9.755-33.225a4.509,4.509,0,0,0-4.727,3.26c-1.152,3.473.035,9.507,3.1,15.746,2.964,6.037,7.062,10.924,10.806,12.928.816-3.071,4.629-18.777-.311-26.96a9.9,9.9,0,0,0-6.765-4.744A10.616,10.616,0,0,0,3544.722,2198.465Z" transform="translate(-3538.664 -2197.558)"/>
            </g>
          </g>
        </g>
        <g id="Grupo_137295" data-name="Grupo 137295" transform="translate(4.466 19.492)">
          <g id="Grupo_137294" data-name="Grupo 137294">
            <path id="Trazado_195354" data-name="Trazado 195354" d="M3619.355,1955.712c-.171.548-.349,1.094-.526,1.639q-.75,2.3-1.534,4.591-1.208,3.541-2.477,7.061-1.66,4.619-3.408,9.205-2.06,5.409-4.239,10.77-2.435,5.993-5.026,11.921-2.793,6.383-5.786,12.677-3.1,6.5-6.441,12.876-3.394,6.45-7.1,12.73c-2.422,4.09-4.958,8.114-7.644,12.036q-.962,1.4-1.95,2.791c-.312.438.322,1,.638.553,2.742-3.848,5.331-7.8,7.8-11.831q3.8-6.2,7.249-12.606,3.472-6.414,6.661-12.976,3.091-6.338,5.96-12.782,2.7-6.056,5.234-12.187,2.292-5.542,4.454-11.137,1.855-4.8,3.617-9.633,1.4-3.84,2.734-7.7.916-2.654,1.8-5.32c.263-.8.562-1.6.779-2.407.009-.034.021-.067.032-.1C3620.344,1955.362,3619.516,1955.2,3619.355,1955.712Z" transform="translate(-3573.143 -1955.399)"/>
          </g>
        </g>
        <g id="Grupo_137297" data-name="Grupo 137297" transform="translate(31.844 53.879)">
          <g id="Grupo_137296" data-name="Grupo 137296">
            <path id="Trazado_195355" data-name="Trazado 195355" d="M3821.715,2220.94c-.541.437-1.109.841-1.677,1.241-1.534,1.077-3.12,2.081-4.738,3.026a78.086,78.086,0,0,1-17.171,7.425,69.769,69.769,0,0,1-11.708,2.4c-.512.059-1.025.112-1.538.16-.541.05-.492.892.049.843a70.492,70.492,0,0,0,12.074-2.207,76.528,76.528,0,0,0,10.069-3.534,80.247,80.247,0,0,0,7.852-3.9c1.757-1,3.478-2.06,5.142-3.205.71-.489,1.428-.983,2.1-1.529l.025-.021a.433.433,0,0,0,.112-.586A.426.426,0,0,0,3821.715,2220.94Z" transform="translate(-3784.5 -2220.866)"/>
          </g>
        </g>
        <g id="Grupo_137299" data-name="Grupo 137299" transform="translate(22.373 79.862)">
          <g id="Grupo_137298" data-name="Grupo 137298">
            <path id="Trazado_195356" data-name="Trazado 195356" d="M3753.258,2421.492c-.639.246-1.288.467-1.937.687-1.8.607-3.608,1.164-5.431,1.685q-4.2,1.2-8.461,2.157-5.434,1.226-10.943,2.076-6.453,1-12.973,1.47-.875.063-1.749.115a.422.422,0,0,0,.049.843q6.657-.4,13.264-1.366,5.7-.829,11.343-2.055,4.447-.966,8.834-2.184c1.963-.548,3.915-1.135,5.848-1.777.8-.266,1.612-.52,2.393-.838l.031-.012C3754.034,2422.1,3753.766,2421.3,3753.258,2421.492Z" transform="translate(-3711.382 -2421.462)"/>
          </g>
        </g>
        <g id="Grupo_137301" data-name="Grupo 137301" transform="translate(21.071 33.083)">
          <g id="Grupo_137300" data-name="Grupo 137300">
            <path id="Trazado_195357" data-name="Trazado 195357" d="M3706.524,2091.056c-.869-3.638-1.592-7.31-2.2-11q-.784-4.761-1.32-9.559-.382-3.393-.638-6.8c-.073-.984-.1-1.972-.184-2.955,0-.013,0-.026,0-.039a.422.422,0,0,0-.843.05c.033.8.087,1.607.144,2.409q.226,3.228.577,6.446.5,4.667,1.232,9.307c.583,3.7,1.279,7.382,2.112,11.033.883,3.869,1.922,7.706,3.184,11.47q.234.7.48,1.4a.422.422,0,0,0,.8-.271A115.064,115.064,0,0,1,3706.524,2091.056Z" transform="translate(-3701.338 -2060.32)"/>
          </g>
        </g>
        <g id="Grupo_137304" data-name="Grupo 137304" transform="translate(7.257 55.637)">
          <g id="Grupo_137302" data-name="Grupo 137302" transform="translate(12.415 37.917)">
            <path id="Trazado_195358" data-name="Trazado 195358" d="M3690.541,2527.177h0a.108.108,0,0,0-.006-.012C3690.527,2527.147,3690.592,2527.28,3690.541,2527.177Z" transform="translate(-3690.534 -2527.163)"/>
          </g>
          <g id="Grupo_137303" data-name="Grupo 137303">
            <path id="Trazado_195359" data-name="Trazado 195359" d="M3607.28,2272.708l-.115-.228-.053-.1h0c.051.1-.015-.03-.007-.013l.006.012-.039-.078q-.171-.348-.337-.7c-.735-1.541-1.417-3.106-2.067-4.684q-1.532-3.72-2.828-7.531-1.727-5.039-3.1-10.191-1.68-6.253-2.882-12.624-.163-.863-.318-1.728a.435.435,0,0,0-.445-.4.426.426,0,0,0-.4.446q1.18,6.587,2.848,13.073,1.381,5.336,3.12,10.572,1.333,4,2.9,7.906c.686,1.7,1.409,3.384,2.188,5.042q.35.745.718,1.481c.1.2.19.41.307.6,0,.008.009.016.013.024a.425.425,0,0,0,.586.112.431.431,0,0,0,.112-.586C3607.418,2272.979,3607.349,2272.844,3607.28,2272.708Z" transform="translate(-3594.69 -2234.444)"/>
          </g>
        </g>
      </g>
      <g id="Grupo_137349" data-name="Grupo 137349" transform="translate(498.625 482.919)">
        <g id="Grupo_137309" data-name="Grupo 137309" transform="translate(30.05 0)">
          <g id="Grupo_137306" data-name="Grupo 137306" transform="translate(0.454 0.454)">
            <path id="Trazado_195360" data-name="Trazado 195360" d="M742.534,1316.313c-6.769,6.606-21.509,34.691,17.653,79.975,0,0,6.988-29.339,9.068-55.686S752.052,1307.022,742.534,1316.313Z" transform="translate(-734.119 -1312.45)" fill="#9db8fd"/>
          </g>
          <g id="Grupo_137308" data-name="Grupo 137308">
            <g id="Grupo_137307" data-name="Grupo 137307">
              <path id="Trazado_195361" data-name="Trazado 195361" d="M757.375,1394.2l-.579-.669c-9.1-10.521-15.93-20.879-20.3-30.785a64.023,64.023,0,0,1-5.857-23.991,41.539,41.539,0,0,1,2.826-16.75,26.7,26.7,0,0,1,5.708-9.07l.317.325-.317-.325a13.888,13.888,0,0,1,7.573-3.822,14.521,14.521,0,0,1,8.437,1.25A18.721,18.721,0,0,1,764,1319.61c2.32,4.908,3.216,10.956,2.662,17.977-2.058,26.081-9.009,55.462-9.079,55.756Zm-8.458-84.35a12.959,12.959,0,0,0-9.115,3.734c-6.428,6.274-8.468,17.468-8.261,25.147a63.128,63.128,0,0,0,5.781,23.649c4.243,9.611,10.828,19.661,19.578,29.881,1.162-5.058,7-31.253,8.855-54.749.541-6.861-.326-12.755-2.578-17.518a17.829,17.829,0,0,0-8.383-8.81A13.846,13.846,0,0,0,748.917,1309.854Z" transform="translate(-730.617 -1308.947)"/>
            </g>
          </g>
        </g>
        <g id="Grupo_137313" data-name="Grupo 137313" transform="translate(3.675 57.221)">
          <g id="Grupo_137310" data-name="Grupo 137310" transform="translate(0.46 0.453)">
            <path id="Trazado_195362" data-name="Trazado 195362" d="M534.762,1756.686c-13.717,14.312,7.44,38.331,43.482,37.738C578.244,1794.424,548.478,1742.374,534.762,1756.686Z" transform="translate(-530.549 -1754.196)" fill="#6178e3"/>
          </g>
          <g id="Grupo_137312" data-name="Grupo 137312">
            <g id="Grupo_137311" data-name="Grupo 137311">
              <path id="Trazado_195363" data-name="Trazado 195363" d="M573.844,1791.843c-10.773,0-20.836-2.193-29.178-6.369-7.869-3.939-13.625-9.369-16.21-15.291-2.678-6.135-1.653-12.121,2.884-16.856l.327.314-.327-.314a8,8,0,0,1,7.058-2.558c3.492.429,7.625,2.84,12.285,7.165a104.2,104.2,0,0,1,12.009,13.78,215.806,215.806,0,0,1,12.851,19.44l.381.666-.767.012Q574.5,1791.843,573.844,1791.843ZM532,1753.955c-4.268,4.453-5.23,10.088-2.708,15.866,2.5,5.728,8.106,11,15.785,14.843,8.351,4.18,18.471,6.343,29.295,6.271a216.862,216.862,0,0,0-12.405-18.685c-6.643-8.878-16.143-19.656-23.673-20.581a7.044,7.044,0,0,0-6.293,2.286Z" transform="translate(-526.995 -1750.698)"/>
            </g>
          </g>
        </g>
        <g id="Grupo_137317" data-name="Grupo 137317" transform="translate(0 95.329)">
          <g id="Grupo_137314" data-name="Grupo 137314" transform="translate(0.453 0.453)">
            <path id="Trazado_195364" data-name="Trazado 195364" d="M504.483,2051.933c-11.3,16.291,19.763,35.193,55.264,28.939C559.747,2080.872,515.778,2035.642,504.483,2051.933Z" transform="translate(-502.125 -2048.393)" fill="#9db8fd"/>
          </g>
          <g id="Grupo_137316" data-name="Grupo 137316">
            <g id="Grupo_137315" data-name="Grupo 137315">
              <path id="Trazado_195365" data-name="Trazado 195365" d="M542.759,2079.5a73.555,73.555,0,0,1-20.725-2.872c-9.807-2.9-17.506-7.806-21.121-13.453a13.391,13.391,0,0,1-2.288-7.175,12.674,12.674,0,0,1,2.439-7.365l.373.258-.373-.258a8.449,8.449,0,0,1,6.552-3.694c3.789-.313,8.754,1.22,14.759,4.559a117.063,117.063,0,0,1,16.165,11.258,237.315,237.315,0,0,1,18.485,16.759l.6.614-.843.148A81.032,81.032,0,0,1,542.759,2079.5ZM508.613,2045.8q-.47,0-.922.037a7.581,7.581,0,0,0-5.882,3.307h0c-2.992,4.316-3.038,9-.133,13.534,3.5,5.466,11.014,10.231,20.615,13.073a72.641,72.641,0,0,0,20.465,2.835,80.222,80.222,0,0,0,13.01-1.062,238.805,238.805,0,0,0-17.8-16.075C529.032,2054.23,516.845,2045.8,508.613,2045.8Z" transform="translate(-498.625 -2044.897)"/>
            </g>
          </g>
        </g>
        <g id="Grupo_137321" data-name="Grupo 137321" transform="translate(66.084 41.047)">
          <g id="Grupo_137318" data-name="Grupo 137318" transform="translate(0.451 0.452)">
            <path id="Trazado_195366" data-name="Trazado 195366" d="M1032.982,1629.73c-25.138-6.228-20.336,61.051-20.336,61.051C1030.548,1678.711,1058.12,1635.959,1032.982,1629.73Z" transform="translate(-1012.279 -1629.323)" fill="#6178e3"/>
          </g>
          <g id="Grupo_137320" data-name="Grupo 137320">
            <g id="Grupo_137319" data-name="Grupo 137319">
              <path id="Trazado_195367" data-name="Trazado 195367" d="M1009.221,1688.558l-.056-.782a209.035,209.035,0,0,1,.029-25.185,105.275,105.275,0,0,1,2.936-19.8c1.813-6.8,4.36-11.62,7.57-14.321a11.131,11.131,0,0,1,10.363-2.216c5.816,1.441,9.241,4.86,10.179,10.163.648,3.661.08,8.14-1.689,13.313a72.794,72.794,0,0,1-7.351,14.851c-6.216,9.839-14.389,18.859-21.33,23.539Zm17.592-61.814a9.883,9.883,0,0,0-6.529,2.419c-3.064,2.579-5.512,7.241-7.276,13.856a104.364,104.364,0,0,0-2.908,19.622,210.226,210.226,0,0,0-.08,24.274c6.7-4.729,14.458-13.389,20.415-22.819a71.892,71.892,0,0,0,7.26-14.66c1.719-5.026,2.275-9.354,1.654-12.862-.87-4.918-4.068-8.094-9.5-9.441A12.6,12.6,0,0,0,1026.813,1626.745Z" transform="translate(-1008.8 -1625.835)"/>
            </g>
          </g>
        </g>
        <g id="Grupo_137325" data-name="Grupo 137325" transform="translate(77.99 83.73)">
          <g id="Grupo_137322" data-name="Grupo 137322" transform="translate(0.451 0.453)">
            <path id="Trazado_195368" data-name="Trazado 195368" d="M1123.879,1958.849c-22.928-.131-19.5,43.2-19.5,43.2C1122.095,1997.809,1146.808,1958.98,1123.879,1958.849Z" transform="translate(-1104.198 -1958.849)" fill="#9db8fd"/>
          </g>
          <g id="Grupo_137324" data-name="Grupo 137324">
            <g id="Grupo_137323" data-name="Grupo 137323">
              <path id="Trazado_195369" data-name="Trazado 195369" d="M1100.938,1999.57l-.042-.529a98.208,98.208,0,0,1,.235-15.053,64.247,64.247,0,0,1,2.386-12.761,27.991,27.991,0,0,1,5.815-10.925,15.012,15.012,0,0,1,11.411-4.953h.105c7.293.042,9.266,3.895,9.637,7.119.623,5.4-2.841,13.7-9.039,21.65-6.325,8.115-13.8,13.844-19.994,15.328Zm19.807-43.314a14.139,14.139,0,0,0-10.748,4.663c-5.317,5.721-7.265,15.741-7.962,23.14a99.2,99.2,0,0,0-.271,14.371,28.235,28.235,0,0,0,9.491-5.209,57.173,57.173,0,0,0,9.477-9.66c6.057-7.771,9.45-15.814,8.854-20.989-.479-4.161-3.42-6.286-8.742-6.316Z" transform="translate(-1100.715 -1955.349)"/>
            </g>
          </g>
        </g>
        <g id="Grupo_137329" data-name="Grupo 137329" transform="translate(20.522 136.301)">
          <g id="Grupo_137326" data-name="Grupo 137326" transform="translate(0.457 0.454)">
            <path id="Trazado_195370" data-name="Trazado 195370" d="M663.2,2370.641c-12.537,16.363,23.2,20.885,40.221,10.433C703.418,2381.075,676.922,2352.728,663.2,2370.641Z" transform="translate(-660.584 -2364.706)" fill="#9db8fd"/>
          </g>
          <g id="Grupo_137328" data-name="Grupo 137328">
            <g id="Grupo_137327" data-name="Grupo 137327">
              <path id="Trazado_195371" data-name="Trazado 195371" d="M677.634,2384.092h-.093c-8.543-.015-15.5-2.088-18.622-5.544-1.913-2.121-3.318-5.791.85-11.23a14.482,14.482,0,0,1,11.109-6.094c5.729-.28,12.486,2.416,20.1,8.014a78.587,78.587,0,0,1,9.707,8.479l.379.406-.473.29C694.79,2381.971,686.216,2384.092,677.634,2384.092Zm-17.5-16.5.36.276c-3.042,3.97-3.343,7.358-.9,10.072,2.949,3.269,9.659,5.23,17.95,5.245h.092c8.184,0,16.345-1.956,21.993-5.255a79.4,79.4,0,0,0-9.2-7.972c-9.258-6.807-15.715-8.014-19.5-7.829a13.613,13.613,0,0,0-10.433,5.739Z" transform="translate(-657.059 -2361.203)"/>
            </g>
          </g>
        </g>
        <g id="Grupo_137331" data-name="Grupo 137331" transform="translate(47.618 27.672)">
          <g id="Grupo_137330" data-name="Grupo 137330">
            <path id="Trazado_195372" data-name="Trazado 195372" d="M888.861,1634.093c-3.832-12.838-7.086-25.846-9.936-38.936q-3.8-17.44-6.673-35.065-2.1-12.766-3.753-25.6c-.482-3.773-.789-7.582-1.324-11.346-.007-.049-.01-.1-.015-.148-.057-.586-.975-.54-.917.051.3,3.084.674,6.163,1.055,9.238q1.508,12.17,3.456,24.281,2.733,17.12,6.276,34.1c2.742,13.069,5.873,26.061,9.549,38.9a351.554,351.554,0,0,0,13.257,38.514q.924,2.217,1.89,4.417c.235.536,1.111.258.873-.285A328.881,328.881,0,0,1,888.861,1634.093Z" transform="translate(-866.24 -1522.579)"/>
          </g>
        </g>
        <g id="Grupo_137334" data-name="Grupo 137334" transform="translate(12.562 69.937)">
          <g id="Grupo_137332" data-name="Grupo 137332" transform="translate(0.891 0.26)">
            <path id="Trazado_195373" data-name="Trazado 195373" d="M602.513,1850.906l0,0-.014-.016C602.445,1850.827,602.593,1851,602.513,1850.906Z" transform="translate(-602.484 -1850.873)"/>
          </g>
          <g id="Grupo_137333" data-name="Grupo 137333">
            <path id="Trazado_195374" data-name="Trazado 195374" d="M643.2,1879.323a97.649,97.649,0,0,1-15.832-6.451,107.753,107.753,0,0,1-12.806-7.734,110.916,110.916,0,0,1-9.584-7.552c-2.12-1.868-4.172-3.816-6.123-5.86q-.87-.911-1.708-1.852-.247-.278-.489-.56l-.138-.162,0,0c.08.1-.067-.079-.018-.021l.014.016-.037-.044-.03-.036a.473.473,0,0,0-.635-.137.462.462,0,0,0-.137.635c.644.788,1.336,1.539,2.031,2.282,1.829,1.954,3.755,3.817,5.743,5.608a111.19,111.19,0,0,0,9.231,7.459,109.762,109.762,0,0,0,12.595,7.9,100.063,100.063,0,0,0,15.639,6.738q1.039.345,2.086.666C643.572,1880.394,643.763,1879.5,643.2,1879.323Z" transform="translate(-595.607 -1848.864)"/>
          </g>
        </g>
        <g id="Grupo_137336" data-name="Grupo 137336" transform="translate(11.889 107.221)">
          <g id="Grupo_137335" data-name="Grupo 137335">
            <path id="Trazado_195375" data-name="Trazado 195375" d="M646.03,2160.062q-9.046-2.463-17.862-5.686-7.584-2.77-14.962-6.064-5.839-2.607-11.522-5.543c-2.547-1.32-5.069-2.69-7.549-4.133q-1.061-.617-2.109-1.255c-.31-.189-.612-.4-.931-.578-.013-.007-.026-.016-.038-.025-.5-.321-.919.5-.426.814.817.527,1.654,1.022,2.492,1.515,2.319,1.365,4.678,2.663,7.06,3.915q5.467,2.874,11.1,5.427,7.192,3.273,14.6,6.05,8.69,3.26,17.625,5.811,1.166.331,2.335.649C646.406,2161.115,646.6,2160.217,646.03,2160.062Z" transform="translate(-590.411 -2136.705)"/>
          </g>
        </g>
        <g id="Grupo_137338" data-name="Grupo 137338" transform="translate(61.833 54.983)">
          <g id="Grupo_137337" data-name="Grupo 137337">
            <path id="Trazado_195376" data-name="Trazado 195376" d="M998.738,1733.762c-.276,1.1-.58,2.183-.887,3.27q-1.235,4.373-2.64,8.7-2.022,6.259-4.349,12.415-2.788,7.363-6.056,14.534c-2.337,5.092-4.879,10.094-7.709,14.931q-.516.882-1.045,1.756c-.307.507.509.93.814.427a162.6,162.6,0,0,0,7.95-14.956c2.262-4.809,4.332-9.708,6.248-14.665q2.457-6.357,4.585-12.836,1.516-4.605,2.861-9.266.4-1.395.78-2.8c.113-.418.246-.839.333-1.264,0-.017.009-.034.013-.052C999.78,1733.383,998.882,1733.189,998.738,1733.762Z" transform="translate(-975.984 -1733.417)"/>
          </g>
        </g>
        <g id="Grupo_137340" data-name="Grupo 137340" transform="translate(69.463 90.115)">
          <g id="Grupo_137339" data-name="Grupo 137339">
            <path id="Trazado_195377" data-name="Trazado 195377" d="M1063.241,2004.69a.463.463,0,0,0-.62.194q-3.513,8.723-7.676,17.165-3.426,6.928-7.312,13.616-2.991,5.132-6.284,10.08c-1.449,2.167-2.833,4.145-4.406,6.237-.625.831-1.276,1.64-1.92,2.457l-.026.031c-.38.452.3,1.074.677.621.543-.646,1.057-1.317,1.568-1.989,1.475-1.936,2.883-3.923,4.251-5.936q3.2-4.713,6.1-9.622,3.858-6.5,7.259-13.254,4.133-8.182,7.636-16.661.479-1.158.947-2.32A.472.472,0,0,0,1063.241,2004.69Z" transform="translate(-1034.885 -2004.641)"/>
          </g>
        </g>
        <g id="Grupo_137342" data-name="Grupo 137342" transform="translate(28.532 146.569)">
          <g id="Grupo_137341" data-name="Grupo 137341">
            <path id="Trazado_195378" data-name="Trazado 195378" d="M765.1,2447.924c-.971-.093-1.941-.2-2.91-.3q-3.8-.412-7.6-.888-5.3-.662-10.578-1.447c-3.963-.591-7.918-1.24-11.857-1.978-3.833-.718-7.654-1.515-11.433-2.482q-.651-.166-1.3-.34c-.572-.153-.764.745-.195.9,3.718,1,7.484,1.811,11.262,2.542,3.951.765,7.92,1.433,11.9,2.042q5.4.827,10.828,1.514,4.024.513,8.057.958c1.193.132,2.387.265,3.582.376l.048,0a.473.473,0,0,0,.546-.352A.462.462,0,0,0,765.1,2447.924Z" transform="translate(-718.891 -2440.469)"/>
          </g>
        </g>
        <g id="Grupo_137346" data-name="Grupo 137346" transform="translate(83.71 128.854)">
          <g id="Grupo_137343" data-name="Grupo 137343" transform="translate(0.559 0.452)">
            <path id="Trazado_195379" data-name="Trazado 195379" d="M1172.938,2308.156c-17.159-6.75-23.751,24.262-23.751,24.262C1165.509,2332.555,1188.612,2314.322,1172.938,2308.156Z" transform="translate(-1149.187 -2307.195)" fill="#9db8fd"/>
          </g>
          <g id="Grupo_137345" data-name="Grupo 137345">
            <g id="Grupo_137344" data-name="Grupo 137344">
              <path id="Trazado_195380" data-name="Trazado 195380" d="M1145.608,2329.836h-.18l-.555,0,.115-.543a64.353,64.353,0,0,1,3.223-10.042c2.973-7.145,6.581-11.9,10.723-14.124a11.912,11.912,0,0,1,10.414-.424c5.264,2.071,5.832,5.273,5.382,7.595-.728,3.756-4.741,8.163-10.734,11.788C1158.026,2327.691,1151.169,2329.836,1145.608,2329.836Zm18.829-25.219a10.585,10.585,0,0,0-5.072,1.3c-8.531,4.586-12.612,19.9-13.362,23.006,5.33-.1,11.831-2.177,17.524-5.621,5.777-3.495,9.633-7.676,10.313-11.185.56-2.886-1.063-5.1-4.823-6.578A12.481,12.481,0,0,0,1164.437,2304.616Z" transform="translate(-1144.873 -2303.706)"/>
            </g>
          </g>
        </g>
        <g id="Grupo_137348" data-name="Grupo 137348" transform="translate(76.881 135.191)">
          <g id="Grupo_137347" data-name="Grupo 137347">
            <path id="Trazado_195381" data-name="Trazado 195381" d="M1121.1,2352.747q-.381.4-.766.786c-2.237,2.27-4.575,4.439-6.955,6.558q-3.669,3.266-7.465,6.384-3.363,2.778-6.794,5.473-2.456,1.932-4.942,3.825c-.635.482-1.27.964-1.91,1.439a.377.377,0,0,0-.016.53.387.387,0,0,0,.53.016l.032-.023c.789-.582,1.568-1.178,2.348-1.773q2.635-2.012,5.235-4.069,3.5-2.771,6.94-5.625c2.527-2.1,5.023-4.245,7.466-6.446,2.336-2.1,4.628-4.263,6.81-6.528C1121.953,2352.946,1121.44,2352.4,1121.1,2352.747Z" transform="translate(-1092.156 -2352.636)"/>
          </g>
        </g>
      </g>
      <g id="Grupo_137397" data-name="Grupo 137397" transform="translate(728.942 390.372)">
        <g id="Grupo_137396" data-name="Grupo 137396">
          <g id="Grupo_137395" data-name="Grupo 137395">
            <g id="Grupo_137372" data-name="Grupo 137372">
              <g id="Grupo_137353" data-name="Grupo 137353">
                <g id="Grupo_137352" data-name="Grupo 137352">
                  <g id="Grupo_137350" data-name="Grupo 137350" transform="translate(0.453 0.453)">
                    <path id="Rectángulo_294911" data-name="Rectángulo 294911" d="M65.028,0h71.035A65.028,65.028,0,0,1,201.09,65.028v0a65.027,65.027,0,0,1-65.027,65.027H65.027A65.027,65.027,0,0,1,0,65.028v0A65.028,65.028,0,0,1,65.028,0Z" fill="#9db8fd"/>
                  </g>
                  <g id="Grupo_137351" data-name="Grupo 137351">
                    <path id="Trazado_195382" data-name="Trazado 195382" d="M2469.549,725.434h-183.73a9.144,9.144,0,0,1-9.134-9.133V603.607a9.144,9.144,0,0,1,9.134-9.134h183.73a9.144,9.144,0,0,1,9.133,9.134V716.3A9.144,9.144,0,0,1,2469.549,725.434ZM2285.819,595.38a8.236,8.236,0,0,0-8.227,8.227V716.3a8.236,8.236,0,0,0,8.227,8.227h183.73a8.236,8.236,0,0,0,8.227-8.227V603.607a8.237,8.237,0,0,0-8.227-8.227Z" transform="translate(-2276.685 -594.473)"/>
                  </g>
                </g>
              </g>
              <g id="Grupo_137371" data-name="Grupo 137371">
                <g id="Grupo_137357" data-name="Grupo 137357">
                  <g id="Grupo_137354" data-name="Grupo 137354" transform="translate(0.453 0.453)">
                    <path id="Trazado_195383" data-name="Trazado 195383" d="M2472.6,597.973h-183.73a8.679,8.679,0,0,0-8.68,8.68v8.981h201.09v-8.981A8.679,8.679,0,0,0,2472.6,597.973Z" transform="translate(-2280.186 -597.973)" fill="#6178e3"/>
                  </g>
                  <g id="Grupo_137356" data-name="Grupo 137356">
                    <g id="Grupo_137355" data-name="Grupo 137355">
                      <path id="Trazado_195384" data-name="Trazado 195384" d="M2478.682,613.041h-202v-9.434a9.144,9.144,0,0,1,9.134-9.134h183.73a9.144,9.144,0,0,1,9.133,9.134Zm-201.09-.907h200.184v-8.528a8.237,8.237,0,0,0-8.227-8.227h-183.73a8.236,8.236,0,0,0-8.227,8.227Z" transform="translate(-2276.685 -594.473)"/>
                    </g>
                  </g>
                </g>
                <g id="Grupo_137370" data-name="Grupo 137370" transform="translate(8.532 7.302)">
                  <g id="Grupo_137361" data-name="Grupo 137361" transform="translate(21.311)">
                    <g id="Grupo_137358" data-name="Grupo 137358" transform="translate(0.453 0.453)">
                      <path id="Trazado_195385" data-name="Trazado 195385" d="M2513.818,654.342a3.239,3.239,0,1,0,3.24,3.239A3.239,3.239,0,0,0,2513.818,654.342Z" transform="translate(-2510.579 -654.342)" fill="#fff"/>
                    </g>
                    <g id="Grupo_137360" data-name="Grupo 137360">
                      <g id="Grupo_137359" data-name="Grupo 137359">
                        <path id="Trazado_195386" data-name="Trazado 195386" d="M2510.771,658.227a3.693,3.693,0,1,1,3.693-3.693A3.7,3.7,0,0,1,2510.771,658.227Zm0-6.479a2.786,2.786,0,1,0,2.786,2.786A2.789,2.789,0,0,0,2510.771,651.749Z" transform="translate(-2507.079 -650.842)"/>
                      </g>
                    </g>
                  </g>
                  <g id="Grupo_137365" data-name="Grupo 137365" transform="translate(10.764)">
                    <g id="Grupo_137362" data-name="Grupo 137362" transform="translate(0.453 0.453)">
                      <path id="Trazado_195387" data-name="Trazado 195387" d="M2432.393,654.342a3.239,3.239,0,1,0,3.239,3.239A3.239,3.239,0,0,0,2432.393,654.342Z" transform="translate(-2429.154 -654.342)" fill="#fff"/>
                    </g>
                    <g id="Grupo_137364" data-name="Grupo 137364">
                      <g id="Grupo_137363" data-name="Grupo 137363">
                        <path id="Trazado_195388" data-name="Trazado 195388" d="M2429.347,658.227a3.693,3.693,0,1,1,3.692-3.693A3.7,3.7,0,0,1,2429.347,658.227Zm0-6.479a2.786,2.786,0,1,0,2.786,2.786A2.789,2.789,0,0,0,2429.347,651.749Z" transform="translate(-2425.654 -650.842)"/>
                      </g>
                    </g>
                  </g>
                  <g id="Grupo_137369" data-name="Grupo 137369">
                    <g id="Grupo_137366" data-name="Grupo 137366" transform="translate(0.453 0.453)">
                      <path id="Trazado_195389" data-name="Trazado 195389" d="M2349.3,654.342a3.239,3.239,0,1,0,3.239,3.239A3.239,3.239,0,0,0,2349.3,654.342Z" transform="translate(-2346.057 -654.342)" fill="#fff"/>
                    </g>
                    <g id="Grupo_137368" data-name="Grupo 137368">
                      <g id="Grupo_137367" data-name="Grupo 137367">
                        <path id="Trazado_195390" data-name="Trazado 195390" d="M2346.249,658.227a3.693,3.693,0,1,1,3.693-3.693A3.7,3.7,0,0,1,2346.249,658.227Zm0-6.479a2.786,2.786,0,1,0,2.786,2.786A2.789,2.789,0,0,0,2346.249,651.749Z" transform="translate(-2342.556 -650.842)"/>
                      </g>
                    </g>
                  </g>
                </g>
              </g>
            </g>
            <g id="Grupo_137390" data-name="Grupo 137390" transform="translate(21.072 29.041)">
              <g id="Grupo_137373" data-name="Grupo 137373" transform="translate(27.69 13.566)">
                <rect id="Rectángulo_294912" data-name="Rectángulo 294912" width="55.212" height="6.499" fill="#fff"/>
              </g>
              <g id="Grupo_137374" data-name="Grupo 137374" transform="translate(0.084 13.566)">
                <rect id="Rectángulo_294913" data-name="Rectángulo 294913" width="21.207" height="6.499" fill="#fff"/>
              </g>
              <g id="Grupo_137375" data-name="Grupo 137375" transform="translate(0.053 26.817)">
                <rect id="Rectángulo_294914" data-name="Rectángulo 294914" width="83.401" height="6.499" fill="#4268f5"/>
              </g>
              <g id="Grupo_137376" data-name="Grupo 137376" transform="translate(27.384)">
                <rect id="Rectángulo_294915" data-name="Rectángulo 294915" width="55.38" height="6.499" fill="#2727a9"/>
              </g>
              <g id="Grupo_137377" data-name="Grupo 137377">
                <rect id="Rectángulo_294916" data-name="Rectángulo 294916" width="13.957" height="6.499" fill="#4268f5"/>
              </g>
              <g id="Grupo_137378" data-name="Grupo 137378" transform="translate(0.053 38.245)">
                <rect id="Rectángulo_294917" data-name="Rectángulo 294917" width="53.014" height="6.499" fill="#4268f5"/>
              </g>
              <g id="Grupo_137379" data-name="Grupo 137379" transform="translate(20.523 49.673)">
                <rect id="Rectángulo_294918" data-name="Rectángulo 294918" width="32.544" height="6.499" fill="#2727a9"/>
              </g>
              <g id="Grupo_137380" data-name="Grupo 137380" transform="translate(60.732 49.673)">
                <rect id="Rectángulo_294919" data-name="Rectángulo 294919" width="103.36" height="6.499" fill="#fff"/>
              </g>
              <g id="Grupo_137381" data-name="Grupo 137381" transform="translate(0.053 61.1)">
                <rect id="Rectángulo_294920" data-name="Rectángulo 294920" width="45.135" height="6.499" fill="#4268f5"/>
              </g>
              <g id="Grupo_137382" data-name="Grupo 137382" transform="translate(53.067 61.1)">
                <rect id="Rectángulo_294921" data-name="Rectángulo 294921" width="79.763" height="6.499" fill="#2727a9"/>
              </g>
              <g id="Grupo_137383" data-name="Grupo 137383" transform="translate(140.494 61.1)">
                <rect id="Rectángulo_294922" data-name="Rectángulo 294922" width="23.597" height="6.499" fill="#fff"/>
              </g>
              <g id="Grupo_137384" data-name="Grupo 137384" transform="translate(0.053 72.528)">
                <rect id="Rectángulo_294923" data-name="Rectángulo 294923" width="75.581" height="6.499" fill="#4268f5"/>
              </g>
              <g id="Grupo_137385" data-name="Grupo 137385" transform="translate(83.513 72.528)">
                <rect id="Rectángulo_294924" data-name="Rectángulo 294924" width="28.156" height="6.499" fill="#2727a9"/>
              </g>
              <g id="Grupo_137386" data-name="Grupo 137386" transform="translate(119.333 72.528)">
                <rect id="Rectángulo_294925" data-name="Rectángulo 294925" width="44.758" height="6.499" fill="#fff"/>
              </g>
              <g id="Grupo_137387" data-name="Grupo 137387" transform="translate(33.115 83.956)">
                <rect id="Rectángulo_294926" data-name="Rectángulo 294926" width="99.715" height="6.499" fill="#4268f5"/>
              </g>
              <g id="Grupo_137388" data-name="Grupo 137388" transform="translate(0.084 83.956)">
                <rect id="Rectángulo_294927" data-name="Rectángulo 294927" width="13.873" height="6.499" fill="#2727a9"/>
              </g>
              <g id="Grupo_137389" data-name="Grupo 137389" transform="translate(140.494 83.956)">
                <rect id="Rectángulo_294928" data-name="Rectángulo 294928" width="23.597" height="6.499" fill="#fff"/>
              </g>
            </g>
            <g id="Grupo_137394" data-name="Grupo 137394" transform="translate(115.686 29.041)">
              <g id="Grupo_137391" data-name="Grupo 137391" transform="translate(0 9.926)">
                <path id="Trazado_195391" data-name="Trazado 195391" d="M3169.792,909.617l21,7.753v-6.22l-13.59-4.814,13.59-4.814V895.3l-21,7.754Z" transform="translate(-3169.792 -895.303)" fill="#2727a9"/>
              </g>
              <g id="Grupo_137392" data-name="Grupo 137392" transform="translate(21.897)">
                <path id="Trazado_195392" data-name="Trazado 195392" d="M3338.837,858.8h7.2l14.058-40.13h-7.2Z" transform="translate(-3338.837 -818.674)" fill="#2727a9"/>
              </g>
              <g id="Grupo_137393" data-name="Grupo 137393" transform="translate(43.623 9.926)">
                <path id="Trazado_195393" data-name="Trazado 195393" d="M3506.564,901.523l13.59,4.814-13.59,4.814v6.22l21-7.753v-6.56l-21-7.754Z" transform="translate(-3506.564 -895.303)" fill="#2727a9"/>
              </g>
            </g>
          </g>
        </g>
      </g>
      <g id="Grupo_137398" data-name="Grupo 137398" transform="translate(547.176 615.252)">
        <rect id="Rectángulo_294929" data-name="Rectángulo 294929" width="382.253" height="9.753" fill="#2e4ea4"/>
      </g>
      <g id="Grupo_137399" data-name="Grupo 137399" transform="translate(559.951 625.004)">
        <rect id="Rectángulo_294930" data-name="Rectángulo 294930" width="356.702" height="45.873" fill="#8cb6f4"/>
      </g>
      <g id="Grupo_137440" data-name="Grupo 137440" transform="translate(593.798 416.144)">
        <g id="Grupo_137408" data-name="Grupo 137408" transform="translate(0 58.491)">
          <g id="Grupo_137400" data-name="Grupo 137400" transform="translate(139.088 93.114)">
            <path id="Trazado_195394" data-name="Trazado 195394" d="M2328.065,1964.3c-2.866-1.219-16.62-.784-20.35,11.669-1.989,6.642,1.378,13.8,7.036,15.433C2335.648,1997.436,2351.086,1985.191,2328.065,1964.3Z" transform="translate(-2307.139 -1963.848)"/>
          </g>
          <g id="Grupo_137401" data-name="Grupo 137401" transform="translate(0.461 0.453)">
            <path id="Trazado_195395" data-name="Trazado 195395" d="M1376.431,1281.873c-1.918-8.986-7.592-16.334-15.185-19.672l-31.141-13.7-46.4,6.967c-8.949,1.346-16.518,8.171-19.706,17.759l-26.052,78.446a20.247,20.247,0,0,0,.351,13.642,17.515,17.515,0,0,0,5.831,7.755,14.516,14.516,0,0,0,8.614,2.9h11.139l2.138-1.554-3.6,14.251h99l-.063-44.223,1.455,6.775c1.657,7.719,6.708,14.06,13.43,16.258a12.083,12.083,0,0,0,7.782.251l15.855-2.364-9.876-20.654Z" transform="translate(-1236.927 -1248.497)" fill="#fff"/>
          </g>
          <g id="Grupo_137402" data-name="Grupo 137402" transform="translate(4.182 0.454)">
            <path id="Trazado_195396" data-name="Trazado 195396" d="M1399.423,1285.589c-1.918-8.986-6.325-16.9-13.917-20.238l-30.4-16.852-2.646.531,3.462,1.146s4.492,18.424-11.436,15.174c-8.428-1.719-11.639-9.218-12.588-12.193l-20.576,4.131c-8.949,1.346-19.138,6.348-22.326,15.936l-22.835,77.38c-3.057,15.922,8.461,25.359,11.579,25.359h11.139l2.138-1.553-3.6,14.25,94.2-4.9,4.738-39.326,1.455,6.775c1.657,7.719,6.707,14.061,13.43,16.259a12.09,12.09,0,0,0,7.782.25l15.855-2.364-10.585-23.936Z" transform="translate(-1265.651 -1248.499)" fill="#2727a9"/>
          </g>
          <g id="Grupo_137404" data-name="Grupo 137404">
            <g id="Grupo_137403" data-name="Grupo 137403">
              <path id="Trazado_195397" data-name="Trazado 195397" d="M1358.313,1386.066h-99a.453.453,0,0,1-.439-.565l3.294-13.037-1.125.818a.453.453,0,0,1-.266.087h-11.139a14.94,14.94,0,0,1-8.882-2.983,17.941,17.941,0,0,1-5.984-7.955,20.571,20.571,0,0,1-.359-13.951l26.052-78.447c3.249-9.77,10.939-16.692,20.069-18.064l46.4-6.968a.453.453,0,0,1,.25.034l31.142,13.7c7.725,3.4,13.5,10.869,15.446,19.992l13.552,62.777,9.853,20.606a.453.453,0,0,1-.342.644l-15.808,2.357a12.514,12.514,0,0,1-8.036-.262c-6.746-2.205-12.008-8.564-13.732-16.593l-.552-2.57.057,39.922a.454.454,0,0,1-.453.454Zm-98.417-.907h97.963l-.063-43.769a.453.453,0,0,1,.9-.1l1.455,6.775c1.657,7.715,6.687,13.816,13.128,15.922a11.579,11.579,0,0,0,7.482.257.456.456,0,0,1,.093-.024l15.248-2.273-9.612-20.1a.436.436,0,0,1-.034-.1l-13.564-62.83h0c-1.886-8.838-7.465-16.072-14.924-19.351l-31.022-13.652-46.275,6.948c-8.791,1.322-16.2,8.01-19.343,17.454l-26.052,78.446a19.664,19.664,0,0,0,.343,13.334,17.039,17.039,0,0,0,5.678,7.556,14.039,14.039,0,0,0,8.345,2.807h10.992l2.019-1.467a.453.453,0,0,1,.706.478Z" transform="translate(-1233.366 -1244.997)"/>
            </g>
          </g>
          <g id="Grupo_137405" data-name="Grupo 137405" transform="translate(34.933 56.38)">
            <path id="Trazado_195398" data-name="Trazado 195398" d="M1503.055,1720.975l.738.285L1516,1680.537l-.738-.285Z" transform="translate(-1503.055 -1680.251)"/>
          </g>
          <g id="Grupo_137406" data-name="Grupo 137406" transform="translate(124.037 74.81)">
            <path id="Trazado_195399" data-name="Trazado 195399" d="M2190.944,1822.553l.649,38.511.78-.017-.649-38.511Z" transform="translate(-2190.944 -1822.536)"/>
          </g>
          <g id="Grupo_137407" data-name="Grupo 137407" transform="translate(71.622 22.02)">
            <path id="Trazado_195400" data-name="Trazado 195400" d="M1799.489,1422.672c-4.989-.116-9.566-2.91-12.557-7.669l-.635.515c3.137,4.987,7.94,7.917,13.177,8.038.113,0,.227,0,.339,0,5.328,0,10.367-2.91,13.872-8.028l-.615-.543C1809.644,1419.992,1804.712,1422.8,1799.489,1422.672Z" transform="translate(-1786.297 -1414.99)"/>
          </g>
        </g>
        <g id="Grupo_137413" data-name="Grupo 137413" transform="translate(142.379 150.924)">
          <g id="Grupo_137411" data-name="Grupo 137411">
            <g id="Grupo_137409" data-name="Grupo 137409" transform="translate(0.454 0.456)">
              <path id="Trazado_195401" data-name="Trazado 195401" d="M2339.353,1965.677c-3.94,2.76-4.444,9.047-1.026,12.594,0,0,2.339,2.435,6.135,9.96,1.38,2.727,5.348,2.8,4.677-.443-1.169-5.675-.873-10.11,1.466-9.667s8.863,10.774,11.591,11.438,1.949-3.762,1.949-3.762,1.754,3.984,4.092,4.427,4.615-2.851-3.508-16.6C2355.863,1958.61,2346.064,1960.978,2339.353,1965.677Z" transform="translate(-2336.051 -1962.104)" fill="#fff"/>
            </g>
            <g id="Grupo_137410" data-name="Grupo 137410">
              <path id="Trazado_195402" data-name="Trazado 195402" d="M2365.577,1987.653a2.533,2.533,0,0,1-.478-.046c-1.468-.278-2.69-1.74-3.476-2.96a2.99,2.99,0,0,1-.761,1.919,1.871,1.871,0,0,1-1.827.373c-1.543-.376-3.879-3.183-6.351-6.155-1.986-2.387-4.237-5.093-5.217-5.279a.853.853,0,0,0-.832.237c-.973.989-1.014,4.48-.1,8.894.293,1.415-.187,2.488-1.284,2.871a3.727,3.727,0,0,1-4.242-2.132c-3.708-7.349-6.034-9.826-6.058-9.851a8.927,8.927,0,0,1-2.357-7.092,8.466,8.466,0,0,1,3.45-6.187h0c4.459-3.122,8.806-4.254,12.922-3.362,4.826,1.045,9.235,4.9,13.1,11.449,4.936,8.355,6.783,14.2,5.2,16.453A2.006,2.006,0,0,1,2365.577,1987.653Zm-4.486-5.371a.452.452,0,0,1,.415.27c.463,1.048,2.04,3.838,3.762,4.164a1.177,1.177,0,0,0,1.256-.453c.5-.708,1.588-3.915-5.239-15.47-3.735-6.326-7.947-10.035-12.516-11.024-3.858-.835-7.967.248-12.21,3.219h0a7.565,7.565,0,0,0-3.068,5.532,8.023,8.023,0,0,0,2.109,6.376c.1.1,2.43,2.571,6.213,10.07.577,1.141,1.974,2.09,3.134,1.685.646-.226.892-.876.694-1.832-.479-2.328-1.406-7.933.346-9.713a1.755,1.755,0,0,1,1.647-.491c1.213.229,2.98,2.265,5.746,5.589,2.164,2.6,4.616,5.549,5.869,5.854.658.16.909-.075.992-.153.661-.619.508-2.486.4-3.091a.454.454,0,0,1,.447-.531Z" transform="translate(-2332.543 -1958.587)"/>
            </g>
          </g>
          <g id="Grupo_137412" data-name="Grupo 137412" transform="translate(18.979 10.127)">
            <path id="Trazado_195403" data-name="Trazado 195403" d="M2479.492,2036.772l-.429.738c3.488,2.613,6.357,7.877,9.231,13.5l.674-.445C2486.046,2044.849,2483.121,2039.49,2479.492,2036.772Z" transform="translate(-2479.063 -2036.772)"/>
          </g>
        </g>
        <g id="Buku" transform="translate(2.757 96.289)">
          <g id="Grupo_137416" data-name="Grupo 137416">
            <g id="Grupo_137414" data-name="Grupo 137414" transform="translate(0.453 0.453)">
              <path id="Trazado_195404" data-name="Trazado 195404" d="M1258.148,1540.3c11,11.7,8.939,32.82,2.813,53.733,18.217,9.75,34.095,27.187,34.095,27.187a73.186,73.186,0,0,0,8.919-28.263C1300.788,1586.645,1280.449,1554.774,1258.148,1540.3Z" transform="translate(-1258.148 -1540.299)" fill="#f4ad2e"/>
            </g>
            <g id="Grupo_137415" data-name="Grupo 137415">
              <path id="Trazado_195405" data-name="Trazado 195405" d="M1292.01,1618.625a.453.453,0,0,1-.335-.148c-.158-.174-16.037-17.492-33.973-27.092a.453.453,0,0,1-.221-.527c7.471-25.506,6.559-43.437-2.709-53.295a.453.453,0,0,1,.577-.691c11.941,7.75,23.009,20.315,30.192,29.491a178.039,178.039,0,0,1,15.793,23.341.454.454,0,0,1,.047.249,74.35,74.35,0,0,1-8.983,28.455.454.454,0,0,1-.344.214Zm-33.557-27.865c16.313,8.826,30.846,23.864,33.472,26.655a74.258,74.258,0,0,0,8.539-27.419,178.981,178.981,0,0,0-15.638-23.074c-6.61-8.444-16.525-19.773-27.352-27.5C1265,1549.847,1265.332,1567.092,1258.453,1590.76Z" transform="translate(-1254.648 -1536.799)"/>
            </g>
          </g>
          <g id="Grupo_137417" data-name="Grupo 137417" transform="translate(7.132 4.717)">
            <path id="Trazado_195406" data-name="Trazado 195406" d="M1309.709,1573.214c5.588,13.865,8.356,28.306,1.876,45.155,14.375,8.862,35.468,31.584,35.916,30.792s8.161-20.244,8.161-20.244S1337.3,1584.168,1309.709,1573.214Z" transform="translate(-1309.709 -1573.214)" fill="#e8e3b3"/>
          </g>
          <g id="Grupo_137418" data-name="Grupo 137418" transform="translate(10.738 2.896)">
            <path id="Trazado_195407" data-name="Trazado 195407" d="M1337.545,1559.155c5.017,12.174,8.7,28.982,1.2,44.932,12.577,10.9,29.938,32.4,30.5,31.83s15.513-16.886,15.513-16.886S1372.282,1577.532,1337.545,1559.155Z" transform="translate(-1337.545 -1559.155)" fill="#fffcd5"/>
          </g>
          <g id="Grupo_137419" data-name="Grupo 137419" transform="translate(10.696 23.443)">
            <path id="Trazado_195408" data-name="Trazado 195408" d="M1337.224,1743.638c.341.676,9.941,1.2,10.057,1.992l21.274,11.882,43.593,12.018c1.812-.234-15.677-36.874-28.75-51.251C1362.814,1713.627,1336.882,1742.962,1337.224,1743.638Z" transform="translate(-1337.22 -1717.78)" fill="#e8e3b3"/>
          </g>
          <g id="Grupo_137420" data-name="Grupo 137420" transform="translate(9.008 34.34)">
            <path id="Trazado_195409" data-name="Trazado 195409" d="M1324.188,1817.441c.355,4.063,34.691,35.088,34.691,35.088s29.718-13.029,41.306-4.457c2.1-10.584-14.551-33.851-22.124-45.112C1355.235,1798.084,1333.309,1811.42,1324.188,1817.441Z" transform="translate(-1324.188 -1801.909)" fill="#fffcd5"/>
          </g>
          <g id="Grupo_137423" data-name="Grupo 137423" transform="translate(4.203 41.668)">
            <g id="Grupo_137421" data-name="Grupo 137421" transform="translate(0.453 0.451)">
              <path id="Trazado_195410" data-name="Trazado 195410" d="M1355.36,1868.765c-5.758-4.85-14.071-5.46-21.546-6.359a47.446,47.446,0,0,0-12.5-.062,67.9,67.9,0,0,0-13.51,3.937,170.526,170.526,0,0,0-17.212,7.758,226.335,226.335,0,0,1,39.352,35.43c14.9-6.478,32.4-7.448,47.521-1.507C1371.867,1894.019,1361.125,1873.621,1355.36,1868.765Z" transform="translate(-1290.594 -1861.957)" fill="#f4ad2e"/>
            </g>
            <g id="Grupo_137422" data-name="Grupo 137422">
              <path id="Trazado_195411" data-name="Trazado 195411" d="M1326.9,1906.894a.454.454,0,0,1-.341-.154,225.9,225.9,0,0,0-39.273-35.36.453.453,0,0,1,.058-.775,170.972,170.972,0,0,1,17.259-7.779,68.392,68.392,0,0,1,13.6-3.96,47.8,47.8,0,0,1,12.619.061q.88.106,1.773.208c7.178.834,14.6,1.7,20.01,6.255,3.615,3.045,8.581,11.531,11.22,16.319a223.469,223.469,0,0,1,11.015,23.056.453.453,0,0,1-.587.591,58.237,58.237,0,0,0-23.66-3.873,65.872,65.872,0,0,0-23.514,5.373A.452.452,0,0,1,1326.9,1906.894Zm-38.475-35.818a226.839,226.839,0,0,1,38.6,34.817,66.792,66.792,0,0,1,23.537-5.316,59.322,59.322,0,0,1,23.049,3.561c-5.945-14.52-16.249-33.558-21.586-38.054-5.2-4.382-12.486-5.228-19.531-6.047q-.894-.1-1.777-.209a46.913,46.913,0,0,0-12.38-.064,67.707,67.707,0,0,0-13.419,3.914A165.51,165.51,0,0,0,1288.424,1871.076Z" transform="translate(-1287.094 -1858.478)"/>
            </g>
          </g>
        </g>
        <g id="Grupo_137429" data-name="Grupo 137429" transform="translate(13.954 159.905)">
          <g id="Grupo_137426" data-name="Grupo 137426">
            <g id="Grupo_137424" data-name="Grupo 137424" transform="translate(0.453 0.45)">
              <path id="Trazado_195412" data-name="Trazado 195412" d="M1370.857,2041.487c.942-1.925,2.916-5.529,1.036-7.379-1.412-1.39-4.237,1.925-4.237,1.925s1.45-3.734-.471-4.171c-2.825-.642-11.205,7.165-11.205,7.165,4.991-4.6,3.955-7.165,1.695-7.593s-9.7,2.246-12.335,7.165a8.363,8.363,0,0,0-.715,4.481c.784,11.435,12.14,18.025,20.839,12.2a18.359,18.359,0,0,0,7.937-12.615C1373.786,2040.07,1370.857,2041.487,1370.857,2041.487Z" transform="translate(-1344.591 -2031.39)" fill="#fff"/>
            </g>
            <g id="Grupo_137425" data-name="Grupo 137425">
              <path id="Trazado_195413" data-name="Trazado 195413" d="M1355.475,2054.877a13.076,13.076,0,0,1-5.777-1.376,16,16,0,0,1-8.571-13.413,8.738,8.738,0,0,1,.768-4.727c2.761-5.152,10.422-7.85,12.819-7.4a2.588,2.588,0,0,1,2.147,1.773,3.674,3.674,0,0,1-.406,2.65c2.678-2.119,6.049-4.387,7.784-3.993a1.584,1.584,0,0,1,1.08.819,3.73,3.73,0,0,1,.174,2.285,4.53,4.53,0,0,1,2.429-1.209,1.623,1.623,0,0,1,1.242.469c1.817,1.789.551,4.832-.468,6.931a2.011,2.011,0,0,1,1.586.212,1.755,1.755,0,0,1,.519,1.8,18.919,18.919,0,0,1-8.132,12.925A12.866,12.866,0,0,1,1355.475,2054.877Zm-1.393-26.058a13.5,13.5,0,0,0-5.277,1.575c-1.639.816-4.613,2.6-6.111,5.4a7.872,7.872,0,0,0-.662,4.236,15.09,15.09,0,0,0,8.066,12.661,11.832,11.832,0,0,0,12.068-.81,18.01,18.01,0,0,0,7.74-12.305c.041-.276.075-.766-.159-.939-.335-.247-1.235,0-1.738.238a.454.454,0,0,1-.6-.608c.06-.122.123-.25.19-.384.921-1.858,2.463-4.969.935-6.472a.713.713,0,0,0-.566-.209c-1.032.045-2.522,1.535-3.009,2.105a.453.453,0,0,1-.768-.458c.239-.616.763-2.394.332-3.2a.676.676,0,0,0-.481-.36c-1.862-.423-7.462,3.973-10.66,6.929l-.137.127a.453.453,0,0,1-.616-.665l.12-.111c3.444-3.213,3.418-4.964,3.244-5.572a1.742,1.742,0,0,0-1.444-1.132A2.534,2.534,0,0,0,1354.082,2028.818Z" transform="translate(-1341.093 -2027.916)"/>
            </g>
          </g>
          <g id="Grupo_137427" data-name="Grupo 137427" transform="translate(11.574 4.826)">
            <path id="Trazado_195414" data-name="Trazado 195414" d="M1430.446,2076.256l.364.783a38.705,38.705,0,0,0,11.89-11.333l-.621-.534A37.858,37.858,0,0,1,1430.446,2076.256Z" transform="translate(-1430.446 -2065.171)"/>
          </g>
          <g id="Grupo_137428" data-name="Grupo 137428" transform="translate(17.514 10.279)">
            <path id="Trazado_195415" data-name="Trazado 195415" d="M1476.3,2117.991l.486.693a57.074,57.074,0,0,0,9.03-10.876l-.621-.534A56.237,56.237,0,0,1,1476.3,2117.991Z" transform="translate(-1476.303 -2107.274)"/>
          </g>
        </g>
        <g id="Grupo_137439" data-name="Grupo 137439" transform="translate(72.557 0)">
          <g id="Grupo_137432" data-name="Grupo 137432">
            <g id="Grupo_137430" data-name="Grupo 137430" transform="translate(0.455 0.451)">
              <path id="Trazado_195416" data-name="Trazado 195416" d="M1832.218,826.647c-2.818-.822-3.406-1.878-3.171-6.457s.118-7.749-1.29-9.745c0,0,8.57-1.292,6.574-8.688s-11.506-4.11-13.5-3.171-1.41-.618-4.581-1.542-9.745,3.656-12.327,4.828-6.341-1.761-5.52.824a6.322,6.322,0,0,0,2.114,3.4s-3.757-.469-3.168,1.645a2.493,2.493,0,0,0,2.465,1.994s-2.114,8.806-2.114,15.382,2.231,14.676,2.231,14.676l-2.882,19.708s-1.133,7.873,10.753,9.471c11.228,1.51,10.347-4.088,10.347-4.088l1.036-13.232s7.749.351,8.337-4.7.118-14.09,1.057-15.029,4.225-.822,5.988-1.41S1835.036,827.469,1832.218,826.647Z" transform="translate(-1797.019 -796.922)" fill="#fff"/>
            </g>
            <g id="Grupo_137431" data-name="Grupo 137431">
              <path id="Trazado_195417" data-name="Trazado 195417" d="M1808.273,866.658a27.111,27.111,0,0,1-3.587-.264c-4.481-.6-7.689-2.147-9.536-4.591a7.748,7.748,0,0,1-1.605-5.394l2.869-19.616a66.969,66.969,0,0,1-2.222-14.7,79.461,79.461,0,0,1,2.008-14.972,3,3,0,0,1-2.342-2.283,1.528,1.528,0,0,1,.263-1.486,3.142,3.142,0,0,1,2.207-.775,8.673,8.673,0,0,1-1.411-2.772,1.421,1.421,0,0,1,.1-1.4c.433-.469,1.207-.289,2.187-.061a5.67,5.67,0,0,0,3.481.084c.612-.278,1.469-.761,2.462-1.32,3.208-1.807,7.6-4.283,10.18-3.53a7.06,7.06,0,0,1,2.712,1.413c.561.45.694.556,1.548.154a19.1,19.1,0,0,1,4.438-1.347,10.5,10.5,0,0,1,6.237.484,6.3,6.3,0,0,1,3.458,4.326,6.664,6.664,0,0,1-.65,5.585c-1.509,2.309-4.346,3.226-5.635,3.535,1.137,2.081,1.239,5.1,1.015,9.455-.236,4.592.367,5.276,2.844,6,2.231.651,3.457,2.178,3.479,3.284a1.471,1.471,0,0,1-1.113,1.456,15.331,15.331,0,0,1-2.677.5c-1.256.162-2.679.347-3.134.8-.418.47-.5,4.337-.562,7.16-.058,2.687-.117,5.465-.365,7.6-.264,2.263-1.9,3.863-4.721,4.626a14.952,14.952,0,0,1-3.647.476l-1,12.763a3.742,3.742,0,0,1-1.1,2.938C1813.234,866.031,1811.162,866.658,1808.273,866.658Zm-10.932-60.441-.143.6c-.021.088-2.1,8.831-2.1,15.276s2.193,14.476,2.215,14.556l.025.092-2.9,19.8a6.964,6.964,0,0,0,1.444,4.734c1.7,2.234,4.7,3.655,8.921,4.222,5.591.752,7.971-.308,8.984-1.33a2.808,2.808,0,0,0,.855-2.242l-.007-.05,0-.053,1.071-13.669.438.019c.073,0,7.334.271,7.866-4.3.243-2.094.3-4.85.36-7.516.108-5.05.214-7.168.827-7.781.674-.674,2.124-.861,3.659-1.06a14.787,14.787,0,0,0,2.506-.459c.449-.149.5-.4.493-.578-.014-.781-1.153-1.944-2.825-2.431-3.086-.9-3.739-2.192-3.5-6.915.235-4.574.113-7.588-1.208-9.46l-.423-.6.726-.109c.039-.006,3.95-.63,5.673-3.273a5.8,5.8,0,0,0,.531-4.849,5.428,5.428,0,0,0-2.963-3.739,9.764,9.764,0,0,0-5.7-.413,18.356,18.356,0,0,0-4.209,1.274,1.917,1.917,0,0,1-2.5-.267,6.167,6.167,0,0,0-2.4-1.25c-2.214-.645-6.587,1.819-9.481,3.45-1.011.57-1.884,1.062-2.532,1.356a6.434,6.434,0,0,1-4.061-.027,4.717,4.717,0,0,0-1.305-.2,1.334,1.334,0,0,0,.092.5,6.064,6.064,0,0,0,1.928,3.161l1.618,1.068-1.921-.238c-.781-.1-2.178-.066-2.6.424a.638.638,0,0,0-.076.65,2.019,2.019,0,0,0,2,1.663Z" transform="translate(-1793.509 -793.439)"/>
            </g>
          </g>
          <g id="Grupo_137433" data-name="Grupo 137433" transform="translate(0.721 0.451)">
            <path id="Trazado_195418" data-name="Trazado 195418" d="M1822.622,798.587c-2,.939-1.41-.618-4.58-1.542s-9.745,3.656-12.327,4.828-6.341-1.761-5.519.824a6.322,6.322,0,0,0,2.114,3.4s-3.757-.469-3.168,1.645a2.493,2.493,0,0,0,2.465,1.994s-2.114,8.806-2.114,15.382,2.231,14.676,2.231,14.676a15.716,15.716,0,0,0,12.147-4.465c1.651-1.866,3.229-4.522-.145-5.456a5.6,5.6,0,0,1-4.02-6.961c.861-2.656,4.738-3.158,6.03-1.723s2.656,2.154,3.66.359-1-5.528-1.506-6.747-1.149-3.229-.359-4.36,12.02,0,12.02,0,8.571-1.292,6.574-8.688S1824.618,797.648,1822.622,798.587Z" transform="translate(-1799.077 -796.922)"/>
          </g>
          <g id="Grupo_137434" data-name="Grupo 137434" transform="translate(28.381 24.046)">
            <path id="Trazado_195419" data-name="Trazado 195419" d="M2013.716,979.075c-.607,0-1.1.7-1.1,1.557s.493,1.557,1.1,1.557,1.1-.7,1.1-1.557S2014.324,979.075,2013.716,979.075Z" transform="translate(-2012.616 -979.075)"/>
          </g>
          <g id="Grupo_137436" data-name="Grupo 137436" transform="translate(25.677 32.937)">
            <g id="Grupo_137435" data-name="Grupo 137435">
              <path id="Trazado_195420" data-name="Trazado 195420" d="M1995.543,1055.143a.457.457,0,0,1-.134-.02c-4.388-1.355-3.623-6.961-3.615-7.018a.453.453,0,0,1,.9.131h0a8.4,8.4,0,0,0,.124,2.652,4.142,4.142,0,0,0,2.861,3.369.453.453,0,0,1-.133.887Z" transform="translate(-1991.739 -1047.717)"/>
            </g>
          </g>
          <g id="Grupo_137438" data-name="Grupo 137438" transform="translate(15.044 53.877)">
            <g id="Grupo_137437" data-name="Grupo 137437">
              <path id="Trazado_195421" data-name="Trazado 195421" d="M1912.694,1213.592a.449.449,0,0,1-.253-.077c-.427-.288-2.568-1.78-2.774-2.92a.951.951,0,0,1,.153-.739c.292-.409,1-.722,4.2-.241,1.676.252,3.295.62,3.311.624a.453.453,0,1,1-.2.884c-.015,0-1.511-.344-3.1-.589-2.772-.429-3.369-.2-3.471-.14-.069.3.969,1.41,2.393,2.37a.453.453,0,0,1-.254.829Zm-2.153-3.19Z" transform="translate(-1909.649 -1209.371)"/>
            </g>
          </g>
        </g>
      </g>
      <g id="Grupo_137451" data-name="Grupo 137451" transform="translate(718.811 526.213)">
        <g id="Grupo_137448" data-name="Grupo 137448" transform="translate(0.453 0)">
          <g id="Grupo_137441" data-name="Grupo 137441" transform="translate(0 0.453)">
            <path id="Trazado_195422" data-name="Trazado 195422" d="M2366.654,1646.676h-91.711a4.92,4.92,0,0,0-4.754,3.652l-20.912,78.348s-37.647,2.251-42.029,2.457a5.548,5.548,0,0,0-5.273,4.052h147.749a7.357,7.357,0,0,0,7.234-6.017l1.261-6.806,12.985-70.123A4.655,4.655,0,0,0,2366.654,1646.676Z" transform="translate(-2201.974 -1646.676)" fill="#f66b00"/>
          </g>
          <g id="Grupo_137442" data-name="Grupo 137442" transform="translate(112.602 0.453)">
            <path id="Trazado_195423" data-name="Trazado 195423" d="M3123.349,1646.676h-50.938c-8.679,53.286,34.808,74.609,42.5,75.687l12.985-70.123A4.655,4.655,0,0,0,3123.349,1646.676Z" transform="translate(-3071.272 -1646.676)" fill="#f68b00"/>
          </g>
          <g id="Grupo_137445" data-name="Grupo 137445" transform="translate(46.712)">
            <g id="Grupo_137443" data-name="Grupo 137443" transform="translate(0.59 0.453)">
              <path id="Trazado_195424" data-name="Trazado 195424" d="M2588.061,1650.328l-20.912,78.348h5.54s17.644-66.769,20.279-75.159a28.235,28.235,0,0,1,2.981-6.841h-3.134A4.921,4.921,0,0,0,2588.061,1650.328Z" transform="translate(-2567.149 -1646.676)" fill="#ca3230"/>
            </g>
            <g id="Grupo_137444" data-name="Grupo 137444">
              <path id="Trazado_195425" data-name="Trazado 195425" d="M2569.071,1726.083h-6.479l21.064-78.918a5.382,5.382,0,0,1,5.193-3.989h3.967l-.453.7a28.227,28.227,0,0,0-2.929,6.73c-2.6,8.284-20.1,74.471-20.274,75.139Zm-5.3-.907h4.6c1.364-5.156,17.685-66.845,20.2-74.841a31.677,31.677,0,0,1,2.605-6.252h-2.325a4.475,4.475,0,0,0-4.317,3.315Z" transform="translate(-2562.592 -1643.176)"/>
            </g>
          </g>
          <g id="Grupo_137447" data-name="Grupo 137447" transform="translate(103.926 38.047)">
            <g id="Grupo_137446" data-name="Grupo 137446">
              <path id="Trazado_195426" data-name="Trazado 195426" d="M3012.948,1959.65a7.5,7.5,0,0,1-1.183-.094c-5.017-.8-8.29-6.513-7.3-12.734s5.883-10.63,10.9-9.829a8.374,8.374,0,0,1,5.945,4.392,12.892,12.892,0,0,1,1.352,8.342C3021.749,1955.457,3017.529,1959.65,3012.948,1959.65Zm1.229-21.478c-3.963,0-7.636,3.746-8.451,8.85-.882,5.527,1.917,10.585,6.24,11.275a6.283,6.283,0,0,0,.99.078c3.962,0,7.635-3.746,8.45-8.85a11.616,11.616,0,0,0-1.2-7.515,7.127,7.127,0,0,0-5.036-3.76A6.282,6.282,0,0,0,3014.177,1938.172Z" transform="translate(-3004.29 -1936.898)" fill="#c53529"/>
            </g>
          </g>
        </g>
        <g id="Grupo_137450" data-name="Grupo 137450" transform="translate(0 0)">
          <g id="Grupo_137449" data-name="Grupo 137449">
            <path id="Trazado_195427" data-name="Trazado 195427" d="M2346.677,1732.592H2198.928a.453.453,0,0,1-.441-.556,5.993,5.993,0,0,1,5.693-4.4c4.112-.193,37.986-2.216,41.7-2.437l20.827-78.032a5.383,5.383,0,0,1,5.193-3.989h91.713a5.109,5.109,0,0,1,4.992,6.105l-12.984,70.118-1.261,6.805A7.811,7.811,0,0,1,2346.677,1732.592Zm-147.112-.907h147.112a6.9,6.9,0,0,0,6.788-5.646l1.261-6.806,12.985-70.123a4.2,4.2,0,0,0-4.1-5.027H2271.9a4.474,4.474,0,0,0-4.316,3.315l-20.912,78.348a.453.453,0,0,1-.411.336c-.376.023-37.7,2.254-42.035,2.458A5.09,5.09,0,0,0,2199.565,1731.686Z" transform="translate(-2198.475 -1643.176)"/>
          </g>
        </g>
      </g>
      <g id="Grupo_137483" data-name="Grupo 137483" transform="translate(584.287 402.205)">
        <g id="Grupo_137470" data-name="Grupo 137470" transform="translate(0 0)">
          <g id="Grupo_137456" data-name="Grupo 137456">
            <g id="Grupo_137455" data-name="Grupo 137455">
              <g id="Grupo_137454" data-name="Grupo 137454">
                <g id="Grupo_137452" data-name="Grupo 137452" transform="translate(0.453 0.453)">
                  <path id="Trazado_195428" data-name="Trazado 195428" d="M1168.867,689.328a5.429,5.429,0,0,0-5.429,5.429V754.81a5.429,5.429,0,0,0,5.429,5.429h43.387a5.429,5.429,0,0,0,5.429-5.429V711.281l-21.3-21.953Z" transform="translate(-1163.438 -689.328)" fill="#76c3ff"/>
                </g>
                <g id="Grupo_137453" data-name="Grupo 137453">
                  <path id="Trazado_195429" data-name="Trazado 195429" d="M1209.207,757.646H1165.82a5.889,5.889,0,0,1-5.882-5.882V691.71a5.889,5.889,0,0,1,5.882-5.882h27.516a.454.454,0,0,1,.325.138l21.3,21.953a.453.453,0,0,1,.128.316v43.529A5.889,5.889,0,0,1,1209.207,757.646Zm-43.387-70.911a4.981,4.981,0,0,0-4.975,4.975v60.053a4.981,4.981,0,0,0,4.975,4.975h43.387a4.981,4.981,0,0,0,4.976-4.975V708.419l-21.038-21.684Z" transform="translate(-1159.938 -685.828)"/>
                </g>
              </g>
            </g>
          </g>
          <g id="Grupo_137461" data-name="Grupo 137461" transform="translate(0 49.395)">
            <g id="Grupo_137460" data-name="Grupo 137460">
              <g id="Grupo_137459" data-name="Grupo 137459">
                <g id="Grupo_137457" data-name="Grupo 137457" transform="translate(0.453 0.453)">
                  <path id="Trazado_195430" data-name="Trazado 195430" d="M1216.613,1070.665h-52.105a1.07,1.07,0,0,0-1.07,1.07v14.853a5.593,5.593,0,0,0,5.593,5.593h43.058a5.593,5.593,0,0,0,5.593-5.593v-14.853A1.07,1.07,0,0,0,1216.613,1070.665Z" transform="translate(-1163.438 -1070.665)" fill="#489bff"/>
                </g>
                <g id="Grupo_137458" data-name="Grupo 137458">
                  <path id="Trazado_195431" data-name="Trazado 195431" d="M1209.043,1089.587h-43.058a6.054,6.054,0,0,1-6.047-6.047v-14.853a1.525,1.525,0,0,1,1.523-1.523h52.106a1.525,1.525,0,0,1,1.523,1.523v14.853A6.054,6.054,0,0,1,1209.043,1089.587Zm-47.582-21.516a.617.617,0,0,0-.616.616v14.853a5.146,5.146,0,0,0,5.14,5.14h43.058a5.146,5.146,0,0,0,5.14-5.14v-14.853a.617.617,0,0,0-.616-.616Z" transform="translate(-1159.938 -1067.165)"/>
                </g>
              </g>
            </g>
          </g>
          <g id="Grupo_137466" data-name="Grupo 137466" transform="translate(32.945 0)">
            <g id="Grupo_137465" data-name="Grupo 137465">
              <g id="Grupo_137464" data-name="Grupo 137464">
                <g id="Grupo_137462" data-name="Grupo 137462" transform="translate(0.453 0.453)">
                  <path id="Trazado_195432" data-name="Trazado 195432" d="M1417.775,706.229a5.049,5.049,0,0,0,5.049,5.049l16.251,0-21.3-21.953Z" transform="translate(-1417.775 -689.328)" fill="#76c3ff"/>
                </g>
                <g id="Grupo_137463" data-name="Grupo 137463">
                  <path id="Trazado_195433" data-name="Trazado 195433" d="M1436.028,708.688h0l-16.251,0a5.509,5.509,0,0,1-5.5-5.5v-16.9a.453.453,0,0,1,.779-.316l21.3,21.953a.453.453,0,0,1-.325.769ZM1415.182,687.4v15.783a4.6,4.6,0,0,0,4.6,4.6l15.18,0Z" transform="translate(-1414.275 -685.828)"/>
                </g>
              </g>
            </g>
          </g>
          <g id="Grupo_137469" data-name="Grupo 137469" transform="translate(33.619 18.838)" opacity="0.2">
            <g id="Grupo_137468" data-name="Grupo 137468">
              <g id="Grupo_137467" data-name="Grupo 137467">
                <path id="Trazado_195434" data-name="Trazado 195434" d="M1419.478,831.259a5.614,5.614,0,0,0,4.453,5.447,5.3,5.3,0,0,0,.534.12c2.122.379,16.091,2.864,16.091,2.543v-4.542H1424.3S1420.247,834.689,1419.478,831.259Z" transform="translate(-1419.476 -831.259)"/>
              </g>
            </g>
          </g>
        </g>
        <g id="Grupo_137477" data-name="Grupo 137477" transform="translate(15.981 54.861)">
          <g id="Grupo_137472" data-name="Grupo 137472">
            <g id="Grupo_137471" data-name="Grupo 137471">
              <path id="Trazado_195435" data-name="Trazado 195435" d="M1287.992,1111.019a2.713,2.713,0,0,1,2.121.989l1.253-1.157a4.372,4.372,0,1,0,0,5.724l-1.253-1.157a2.688,2.688,0,0,1-2.121,1,2.7,2.7,0,1,1,0-5.4Z" transform="translate(-1283.315 -1109.356)" fill="#fafafa"/>
            </g>
          </g>
          <g id="Grupo_137474" data-name="Grupo 137474" transform="translate(8.625)">
            <g id="Grupo_137473" data-name="Grupo 137473">
              <path id="Trazado_195436" data-name="Trazado 195436" d="M1352.009,1111.886c0-.53.446-.964,1.6-.964a4.758,4.758,0,0,1,2.338.663l.6-1.483a5.65,5.65,0,0,0-2.928-.747c-2.4,0-3.555,1.193-3.555,2.628,0,3.133,4.9,2.048,4.9,3.627,0,.518-.47.9-1.627.9a4.965,4.965,0,0,1-2.784-.88l-.663,1.471a6.019,6.019,0,0,0,3.435.976c2.41,0,3.579-1.205,3.579-2.615C1356.913,1112.369,1352.009,1113.441,1352.009,1111.886Z" transform="translate(-1349.899 -1109.356)" fill="#fafafa"/>
            </g>
          </g>
          <g id="Grupo_137476" data-name="Grupo 137476" transform="translate(16.311)">
            <g id="Grupo_137475" data-name="Grupo 137475">
              <path id="Trazado_195437" data-name="Trazado 195437" d="M1411.345,1111.886c0-.53.446-.964,1.6-.964a4.758,4.758,0,0,1,2.338.663l.6-1.483a5.652,5.652,0,0,0-2.929-.747c-2.4,0-3.555,1.193-3.555,2.628,0,3.133,4.906,2.048,4.906,3.627,0,.518-.47.9-1.627.9a4.968,4.968,0,0,1-2.785-.88l-.662,1.471a6.018,6.018,0,0,0,3.435.976c2.41,0,3.579-1.205,3.579-2.615C1416.25,1112.369,1411.345,1113.441,1411.345,1111.886Z" transform="translate(-1409.236 -1109.356)" fill="#fafafa"/>
            </g>
          </g>
        </g>
        <g id="Grupo_137482" data-name="Grupo 137482" transform="translate(15.52 22.85)">
          <g id="Grupo_137479" data-name="Grupo 137479">
            <g id="Grupo_137478" data-name="Grupo 137478">
              <path id="Trazado_195438" data-name="Trazado 195438" d="M1281.245,865.7v3.508a.794.794,0,0,1-.852.911h-.64v2.364h.64a.794.794,0,0,1,.852.911V876.9c0,2.229,1.24,3.469,3.664,3.469h1.123v-2.364h-.349a1.275,1.275,0,0,1-1.415-1.434v-3.1c0-1.337-.407-1.9-1.3-2.171.892-.271,1.3-.833,1.3-2.171v-3.1a1.275,1.275,0,0,1,1.415-1.434h.349V862.23h-1.123C1282.485,862.23,1281.245,863.47,1281.245,865.7Z" transform="translate(-1279.753 -862.23)" fill="#fafafa"/>
            </g>
          </g>
          <g id="Grupo_137481" data-name="Grupo 137481" transform="translate(17.832)">
            <g id="Grupo_137480" data-name="Grupo 137480">
              <path id="Trazado_195439" data-name="Trazado 195439" d="M1422.207,869.207V865.7c0-2.229-1.241-3.469-3.664-3.469h-1.124v2.364h.349a1.275,1.275,0,0,1,1.415,1.434v3.1c0,1.337.407,1.9,1.3,2.171-.892.271-1.3.833-1.3,2.171v3.1a1.275,1.275,0,0,1-1.415,1.434h-.349v2.364h1.124c2.423,0,3.664-1.24,3.664-3.469v-3.507a.794.794,0,0,1,.852-.911h.64v-2.364h-.64A.794.794,0,0,1,1422.207,869.207Z" transform="translate(-1417.42 -862.23)" fill="#fafafa"/>
            </g>
          </g>
        </g>
      </g>
      <g id="Grupo_137519" data-name="Grupo 137519" transform="translate(936.958 488.115)">
        <g id="Grupo_137502" data-name="Grupo 137502" transform="translate(0)">
          <g id="Grupo_137488" data-name="Grupo 137488">
            <g id="Grupo_137487" data-name="Grupo 137487">
              <g id="Grupo_137486" data-name="Grupo 137486">
                <g id="Grupo_137484" data-name="Grupo 137484" transform="translate(0.453 0.453)">
                  <path id="Trazado_195440" data-name="Trazado 195440" d="M3889.869,1352.555a3.782,3.782,0,0,0-3.783,3.782v41.844a3.783,3.783,0,0,0,3.783,3.783h30.23a3.783,3.783,0,0,0,3.783-3.783v-30.33l-14.841-15.3Z" transform="translate(-3886.087 -1352.555)" fill="#76c3ff"/>
                </g>
                <g id="Grupo_137485" data-name="Grupo 137485">
                  <path id="Trazado_195441" data-name="Trazado 195441" d="M3917.054,1399.37h-30.231a4.241,4.241,0,0,1-4.236-4.236v-41.843a4.241,4.241,0,0,1,4.236-4.236H3906a.455.455,0,0,1,.326.138l14.841,15.3a.454.454,0,0,1,.128.316v30.329A4.241,4.241,0,0,1,3917.054,1399.37Zm-30.231-49.409a3.333,3.333,0,0,0-3.329,3.329v41.843a3.333,3.333,0,0,0,3.329,3.329h30.231a3.334,3.334,0,0,0,3.33-3.329v-30.146l-14.58-15.027Z" transform="translate(-3882.587 -1349.055)"/>
                </g>
              </g>
            </g>
          </g>
          <g id="Grupo_137493" data-name="Grupo 137493" transform="translate(0 34.417)">
            <g id="Grupo_137492" data-name="Grupo 137492">
              <g id="Grupo_137491" data-name="Grupo 137491">
                <g id="Grupo_137489" data-name="Grupo 137489" transform="translate(0.453 0.453)">
                  <path id="Trazado_195442" data-name="Trazado 195442" d="M3886.087,1629.163a4.087,4.087,0,0,0,4.087,4.087H3919.8a4.087,4.087,0,0,0,4.087-4.087v-10.9h-37.8Z" transform="translate(-3886.087 -1618.259)" fill="#489bff"/>
                </g>
                <g id="Grupo_137490" data-name="Grupo 137490">
                  <path id="Trazado_195443" data-name="Trazado 195443" d="M3916.75,1630.657h-29.622a4.546,4.546,0,0,1-4.541-4.54v-10.9a.453.453,0,0,1,.453-.453h37.8a.453.453,0,0,1,.453.453v10.9A4.545,4.545,0,0,1,3916.75,1630.657Zm-33.256-14.991v10.451a3.638,3.638,0,0,0,3.634,3.634h29.622a3.638,3.638,0,0,0,3.634-3.634v-10.451Z" transform="translate(-3882.587 -1614.759)"/>
                </g>
              </g>
            </g>
          </g>
          <g id="Grupo_137498" data-name="Grupo 137498" transform="translate(22.955 0)">
            <g id="Grupo_137497" data-name="Grupo 137497">
              <g id="Grupo_137496" data-name="Grupo 137496">
                <g id="Grupo_137494" data-name="Grupo 137494" transform="translate(0.453 0.453)">
                  <path id="Trazado_195444" data-name="Trazado 195444" d="M4063.3,1364.332a3.518,3.518,0,0,0,3.518,3.518l11.324,0-14.841-15.3Z" transform="translate(-4063.3 -1352.555)" fill="#76c3ff"/>
                </g>
                <g id="Grupo_137495" data-name="Grupo 137495">
                  <path id="Trazado_195445" data-name="Trazado 195445" d="M4075.095,1365.259h0l-11.324,0a3.976,3.976,0,0,1-3.971-3.972v-11.776a.453.453,0,0,1,.778-.316l14.841,15.3a.454.454,0,0,1-.325.769Zm-14.388-14.631v10.658a3.069,3.069,0,0,0,3.065,3.065h10.251Z" transform="translate(-4059.8 -1349.056)"/>
                </g>
              </g>
            </g>
          </g>
          <g id="Grupo_137501" data-name="Grupo 137501" transform="translate(23.562 13.263)" opacity="0.2">
            <g id="Grupo_137500" data-name="Grupo 137500">
              <g id="Grupo_137499" data-name="Grupo 137499">
                <path id="Trazado_195446" data-name="Trazado 195446" d="M4064.487,1451.448a3.912,3.912,0,0,0,3.1,3.8,3.669,3.669,0,0,0,.373.084c1.479.264,11.211,2,11.211,1.772v-3.165H4067.85S4065.023,1453.838,4064.487,1451.448Z" transform="translate(-4064.486 -1451.448)"/>
              </g>
            </g>
          </g>
        </g>
        <g id="Grupo_137509" data-name="Grupo 137509" transform="translate(9.49 17.45)">
          <g id="Grupo_137504" data-name="Grupo 137504" transform="translate(0 3.352)">
            <g id="Grupo_137503" data-name="Grupo 137503">
              <path id="Trazado_195447" data-name="Trazado 195447" d="M3955.848,1513.88l6.485,2.466v-1.7l-4.537-1.649,4.537-1.662v-1.689l-6.485,2.466Z" transform="translate(-3955.848 -1509.643)" fill="#fafafa"/>
            </g>
          </g>
          <g id="Grupo_137506" data-name="Grupo 137506" transform="translate(6.865)">
            <g id="Grupo_137505" data-name="Grupo 137505">
              <path id="Trazado_195448" data-name="Trazado 195448" d="M4008.844,1496.6h1.894l4.5-12.835h-1.894Z" transform="translate(-4008.844 -1483.768)" fill="#fafafa"/>
            </g>
          </g>
          <g id="Grupo_137508" data-name="Grupo 137508" transform="translate(13.499 3.352)">
            <g id="Grupo_137507" data-name="Grupo 137507">
              <path id="Trazado_195449" data-name="Trazado 195449" d="M4060.058,1511.332l4.538,1.662-4.538,1.649v1.7l6.486-2.466v-1.771l-6.486-2.466Z" transform="translate(-4060.058 -1509.643)" fill="#fafafa"/>
            </g>
          </g>
        </g>
        <g id="Grupo_137518" data-name="Grupo 137518" transform="translate(9.773 40.449)">
          <g id="Grupo_137511" data-name="Grupo 137511">
            <g id="Grupo_137510" data-name="Grupo 137510">
              <path id="Trazado_195450" data-name="Trazado 195450" d="M3961.521,1663.329h-2.308v-2h-1.175v5.08h1.175v-2.083h2.308v2.083h1.176v-5.08h-1.176Z" transform="translate(-3958.039 -1661.326)" fill="#fafafa"/>
            </g>
          </g>
          <g id="Grupo_137513" data-name="Grupo 137513" transform="translate(5.289)">
            <g id="Grupo_137512" data-name="Grupo 137512">
              <path id="Trazado_195451" data-name="Trazado 195451" d="M3998.87,1662.284h1.625v4.122h1.175v-4.122h1.626v-.958h-4.427Z" transform="translate(-3998.87 -1661.326)" fill="#fafafa"/>
            </g>
          </g>
          <g id="Grupo_137515" data-name="Grupo 137515" transform="translate(10.346)">
            <g id="Grupo_137514" data-name="Grupo 137514">
              <path id="Trazado_195452" data-name="Trazado 195452" d="M4042.658,1661.326l-1.872,3.157-1.9-3.157h-.972v5.08h1.1v-2.983l1.487,2.446h.53l1.5-2.511.007,3.048h1.1l-.015-5.08Z" transform="translate(-4037.913 -1661.326)" fill="#fafafa"/>
            </g>
          </g>
          <g id="Grupo_137517" data-name="Grupo 137517" transform="translate(17.275)">
            <g id="Grupo_137516" data-name="Grupo 137516">
              <path id="Trazado_195453" data-name="Trazado 195453" d="M4092.579,1661.326H4091.4v5.08h3.722v-.958h-2.547Z" transform="translate(-4091.404 -1661.326)" fill="#fafafa"/>
            </g>
          </g>
        </g>
      </g>
      <g id="Grupo_137532" data-name="Grupo 137532" transform="translate(675.077 628.472)">
        <g id="Grupo_137531" data-name="Grupo 137531" transform="translate(0)">
          <g id="Grupo_137530" data-name="Grupo 137530">
            <g id="Grupo_137522" data-name="Grupo 137522">
              <g id="Grupo_137520" data-name="Grupo 137520" transform="translate(0.453 1.349)">
                <path id="Trazado_195454" data-name="Trazado 195454" d="M1870.177,2452.469a5.833,5.833,0,0,0-5.833,5.833v12.667a5.833,5.833,0,0,0,5.833,5.833h55.315a5.833,5.833,0,0,0,5.833-5.833V2458.3c0-.015,0-.031,0-.047h0v-15.219l-7.147,9.432Z" transform="translate(-1864.344 -2443.037)" fill="#fff"/>
              </g>
              <g id="Grupo_137521" data-name="Grupo 137521">
                <path id="Trazado_195455" data-name="Trazado 195455" d="M1922.446,2468.19h-55.315a6.294,6.294,0,0,1-6.287-6.286v-12.667a6.294,6.294,0,0,1,6.287-6.287h53.776l7.826-10.327V2461.9A6.294,6.294,0,0,1,1922.446,2468.19Zm-55.315-24.333a5.386,5.386,0,0,0-5.38,5.38V2461.9a5.386,5.386,0,0,0,5.38,5.38h55.315a5.386,5.386,0,0,0,5.38-5.38v-12.667c0-.02,0-.033,0-.047v-.847h0v-13.023l-6.469,8.536Z" transform="translate(-1860.844 -2432.623)"/>
              </g>
            </g>
            <g id="Grupo_137529" data-name="Grupo 137529" transform="translate(9.237 17.366)">
              <g id="Grupo_137523" data-name="Grupo 137523" transform="translate(0 1.839)">
                <path id="Trazado_195456" data-name="Trazado 195456" d="M1932.157,2585.532l6.816,2.516v-2.019l-4.411-1.562,4.411-1.562v-2.019l-6.816,2.516Z" transform="translate(-1932.157 -2580.887)" fill="#2727a9"/>
              </g>
              <g id="Grupo_137524" data-name="Grupo 137524" transform="translate(7.992 2.641)">
                <path id="Trazado_195457" data-name="Trazado 195457" d="M1998.138,2589.165a1.613,1.613,0,0,1,1.493,1.009l2.032-1.037a3.027,3.027,0,0,0-1.313-1.514,4.25,4.25,0,0,0-2.2-.546,4.91,4.91,0,0,0-2.226.491,3.765,3.765,0,0,0,0,6.754,4.853,4.853,0,0,0,2.226.5,4.248,4.248,0,0,0,2.2-.547,3.023,3.023,0,0,0,1.313-1.514l-2.032-1.037a1.611,1.611,0,0,1-1.493,1.01,1.559,1.559,0,0,1-1.168-.477,1.813,1.813,0,0,1-.463-1.32,1.77,1.77,0,0,1,.463-1.3A1.571,1.571,0,0,1,1998.138,2589.165Z" transform="translate(-1993.852 -2587.078)" fill="#2727a9"/>
              </g>
              <g id="Grupo_137525" data-name="Grupo 137525" transform="translate(16.246 2.641)">
                <path id="Trazado_195458" data-name="Trazado 195458" d="M2063.99,2587.569a5.093,5.093,0,0,0-4.362,0,3.838,3.838,0,0,0-1.507,5.371,3.755,3.755,0,0,0,1.514,1.382,5.01,5.01,0,0,0,4.355,0,3.709,3.709,0,0,0,1.507-1.382,3.982,3.982,0,0,0,0-4A3.677,3.677,0,0,0,2063.99,2587.569Zm-1.051,4.687a1.585,1.585,0,0,1-2.268,0,1.866,1.866,0,0,1-.442-1.32,1.82,1.82,0,0,1,.442-1.3,1.6,1.6,0,0,1,2.268,0,1.821,1.821,0,0,1,.442,1.3A1.867,1.867,0,0,1,2062.939,2592.255Z" transform="translate(-2057.574 -2587.078)" fill="#2727a9"/>
              </g>
              <g id="Grupo_137526" data-name="Grupo 137526" transform="translate(25.495)">
                <path id="Trazado_195459" data-name="Trazado 195459" d="M2134.745,2570.1a2.719,2.719,0,0,0-2.073-.774,3.77,3.77,0,0,0-1.867.47,3.415,3.415,0,0,0-1.334,1.348,4.5,4.5,0,0,0,0,4.086,3.449,3.449,0,0,0,1.334,1.362,3.727,3.727,0,0,0,1.867.477,2.71,2.71,0,0,0,2.2-.871v.747h2.5V2566.69h-2.627Zm-.4,4.4a1.463,1.463,0,0,1-1.12.477,1.478,1.478,0,0,1-1.134-.477,1.866,1.866,0,0,1-.442-1.32,1.821,1.821,0,0,1,.442-1.3,1.489,1.489,0,0,1,1.134-.47,1.467,1.467,0,0,1,1.127.47,1.839,1.839,0,0,1,.436,1.3A1.866,1.866,0,0,1,2134.344,2574.509Z" transform="translate(-2128.98 -2566.69)" fill="#2727a9"/>
              </g>
              <g id="Grupo_137527" data-name="Grupo 137527" transform="translate(35.104 2.641)">
                <path id="Trazado_195460" data-name="Trazado 195460" d="M2209.316,2587.541a4.722,4.722,0,0,0-4.148.034,3.775,3.775,0,0,0,.083,6.747,5.1,5.1,0,0,0,2.309.5,4.069,4.069,0,0,0,3.193-1.217l-1.383-1.438a2.739,2.739,0,0,1-.795.5,2.58,2.58,0,0,1-.933.152,2.146,2.146,0,0,1-1.2-.311,1.525,1.525,0,0,1-.643-.892h5.447q.042-.622.042-.65a3.938,3.938,0,0,0-.532-2.081A3.524,3.524,0,0,0,2209.316,2587.541Zm-3.553,2.689a1.562,1.562,0,0,1,.518-.94,1.667,1.667,0,0,1,2.033,0,1.563,1.563,0,0,1,.518.94Z" transform="translate(-2203.163 -2587.078)" fill="#2727a9"/>
              </g>
              <g id="Grupo_137528" data-name="Grupo 137528" transform="translate(44.409 1.839)">
                <path id="Trazado_195461" data-name="Trazado 195461" d="M2275,2582.905l4.411,1.562L2275,2586.03v2.019l6.816-2.516V2583.4l-6.816-2.516Z" transform="translate(-2274.998 -2580.887)" fill="#2727a9"/>
              </g>
            </g>
          </g>
        </g>
      </g>
    </g>
  </g>
</svg>
