<svg xmlns="http://www.w3.org/2000/svg" width="1030" height="491.169" viewBox="0 0 1030 491.169">
  <g id="Grupo_140214" data-name="Grupo 140214" transform="translate(-285 -1877.966)">
    <path id="Trazado_192459" data-name="Trazado 192459" d="M-1069.354,3284.709a32.413,32.413,0,0,0-32.412,32.414,32.411,32.411,0,0,0,32.412,32.411,32.411,32.411,0,0,0,32.412-32.411,32.414,32.414,0,0,0-32.412-32.414Z" transform="translate(1610.176 -986.054)" fill="#aad5f4" fill-rule="evenodd"/>
    <path id="Trazado_192460" data-name="Trazado 192460" d="M-514.342,3284.709a32.413,32.413,0,0,0-32.412,32.414,32.411,32.411,0,0,0,32.412,32.411,32.411,32.411,0,0,0,32.413-32.411,32.414,32.414,0,0,0-32.413-32.414Z" transform="translate(1574.557 -986.054)" fill="#062c51" fill-rule="evenodd"/>
    <path id="Trazado_192461" data-name="Trazado 192461" d="M-980.768,3188.713a32.411,32.411,0,0,0-32.411,32.412,32.411,32.411,0,0,0,32.411,32.413,32.413,32.413,0,0,0,32.413-32.413,32.412,32.412,0,0,0-32.413-32.412Z" transform="translate(1604.491 -979.893)" fill="#91d1e6" fill-rule="evenodd"/>
    <path id="Trazado_192462" data-name="Trazado 192462" d="M-607.639,3188.713a32.412,32.412,0,0,0-32.412,32.412,32.412,32.412,0,0,0,32.412,32.413,32.413,32.413,0,0,0,32.413-32.413,32.412,32.412,0,0,0-32.413-32.412Z" transform="translate(1580.544 -979.893)" fill="#003b82" fill-rule="evenodd"/>
    <path id="Trazado_192463" data-name="Trazado 192463" d="M-863.067,3133.624a32.413,32.413,0,0,0-32.412,32.413,32.412,32.412,0,0,0,32.412,32.412,32.413,32.413,0,0,0,32.413-32.412,32.414,32.414,0,0,0-32.413-32.413Z" transform="translate(1596.938 -976.357)" fill="#41b8df" fill-rule="evenodd"/>
    <path id="Trazado_192464" data-name="Trazado 192464" d="M-404.42,3064.418a93.924,93.924,0,0,1,93.922,93.925,93.924,93.924,0,0,1-93.922,93.924,93.711,93.711,0,0,1-71.5-33.021l-59.632,45.256a37.9,37.9,0,0,1,8.335,23.771,38.065,38.065,0,0,1-38.067,38.065,38.065,38.065,0,0,1-38.065-38.065,37.977,37.977,0,0,1,13.584-29.146,292.526,292.526,0,0,0-33.019-37.019,37.988,37.988,0,0,1-29.81,14.395,38.067,38.067,0,0,1-38.065-38.066,37.871,37.871,0,0,1,6.307-20.987,293.016,293.016,0,0,0-42.7-18.945,38.078,38.078,0,0,1-36.257,26.444,38.065,38.065,0,0,1-38.065-38.066,38.489,38.489,0,0,1,.21-4.016q-11.39-.893-22.949-.9a293.292,293.292,0,0,0-29.608,1.5c.1,1.127.154,2.266.154,3.417a38.066,38.066,0,0,1-38.066,38.066,38.077,38.077,0,0,1-35.488-24.273,293.229,293.229,0,0,0-41.346,19.332,37.882,37.882,0,0,1,4.753,18.428,38.067,38.067,0,0,1-38.066,38.066,37.947,37.947,0,0,1-26.969-11.2,292.463,292.463,0,0,0-30.383,34.756,37.969,37.969,0,0,1,12.517,28.218,38.065,38.065,0,0,1-38.065,38.065,38.065,38.065,0,0,1-38.067-38.065,37.883,37.883,0,0,1,7.385-22.531l-60.329-45.784a93.7,93.7,0,0,1-70.889,32.309,93.924,93.924,0,0,1-93.923-93.924,93.926,93.926,0,0,1,93.923-93.925,93.926,93.926,0,0,1,93.925,93.925,93.514,93.514,0,0,1-19.471,57.254l60.429,45.861a37.949,37.949,0,0,1,27.017-11.253,37.889,37.889,0,0,1,21.091,6.375A298.084,298.084,0,0,1-1032.429,3221a37.894,37.894,0,0,1-7.411-22.567,38.02,38.02,0,0,1,15.909-30.954l-43.925-71.964a93.5,93.5,0,0,1-44.3,11.088,93.925,93.925,0,0,1-93.925-93.925,93.925,93.925,0,0,1,93.925-93.924,93.924,93.924,0,0,1,93.924,93.924,93.862,93.862,0,0,1-44.732,80.022l43.847,71.839a37.9,37.9,0,0,1,17.344-4.173,38,38,0,0,1,30.209,14.906,298.571,298.571,0,0,1,42.8-20.017,38.174,38.174,0,0,1-.926-8.376,38.077,38.077,0,0,1,27.3-36.519l-18.921-88.141a94.485,94.485,0,0,1-12.252.8,93.925,93.925,0,0,1-93.925-93.925,93.926,93.926,0,0,1,93.925-93.925,93.925,93.925,0,0,1,93.924,93.925,93.949,93.949,0,0,1-76.094,92.225l18.862,87.859a38.492,38.492,0,0,1,5.243-.361,38.081,38.081,0,0,1,36.992,29.062,298.791,298.791,0,0,1,30.528-1.565q12.064,0,23.964.963a38.08,38.08,0,0,1,36.84-28.46,38.424,38.424,0,0,1,4.688.288l18.716-87.185a93.946,93.946,0,0,1-79.521-92.826,93.925,93.925,0,0,1,93.924-93.925,93.925,93.925,0,0,1,93.924,93.925,93.925,93.925,0,0,1-93.924,93.925c-2.96,0-5.887-.144-8.778-.412l-18.806,87.6a38.082,38.082,0,0,1,27.843,36.676,38.281,38.281,0,0,1-.489,6.1,298.617,298.617,0,0,1,44.874,19.949,37.967,37.967,0,0,1,28.26-12.566,37.864,37.864,0,0,1,18.716,4.915l42.831-70.176a93.9,93.9,0,0,1-48.866-82.428,93.925,93.925,0,0,1,93.924-93.924,93.925,93.925,0,0,1,93.925,93.924,93.924,93.924,0,0,1-93.925,93.925A93.544,93.544,0,0,1-586,3097.672l-43.18,70.746a37.995,37.995,0,0,1,14.657,30.017,37.893,37.893,0,0,1-5.047,18.952,297.953,297.953,0,0,1,34.378,38.438,37.864,37.864,0,0,1,19.911-5.621,37.923,37.923,0,0,1,25.88,10.156l59.96-45.5a93.5,93.5,0,0,1-18.9-56.513,93.927,93.927,0,0,1,93.927-93.925Zm-160.863,191.44a32.413,32.413,0,0,0-32.412,32.414,32.411,32.411,0,0,0,32.412,32.411,32.412,32.412,0,0,0,32.413-32.411,32.414,32.414,0,0,0-32.413-32.414Zm-87.309-89.835A32.411,32.411,0,0,0-685,3198.435a32.412,32.412,0,0,0,32.412,32.413,32.413,32.413,0,0,0,32.413-32.413,32.412,32.412,0,0,0-32.413-32.412ZM-763.3,3114.47a32.412,32.412,0,0,0-32.411,32.413,32.411,32.411,0,0,0,32.411,32.412,32.413,32.413,0,0,0,32.413-32.412A32.414,32.414,0,0,0-763.3,3114.47Zm-321.372,141.388a32.413,32.413,0,0,0-32.412,32.414,32.411,32.411,0,0,0,32.412,32.411,32.411,32.411,0,0,0,32.412-32.411,32.414,32.414,0,0,0-32.412-32.414Zm-161.9-185.787a88.271,88.271,0,0,0-88.27,88.271,88.27,88.27,0,0,0,88.27,88.271,88.271,88.271,0,0,0,88.271-88.271,88.273,88.273,0,0,0-88.271-88.271Zm244.8,95.952a32.411,32.411,0,0,0-32.411,32.412,32.411,32.411,0,0,0,32.411,32.413,32.413,32.413,0,0,0,32.413-32.413,32.412,32.412,0,0,0-32.413-32.412Zm-110.382-241.612a88.271,88.271,0,0,0-88.271,88.27,88.27,88.27,0,0,0,88.271,88.271,88.271,88.271,0,0,0,88.27-88.271,88.271,88.271,0,0,0-88.27-88.27Zm220.529,190.059a32.413,32.413,0,0,0-32.412,32.413,32.412,32.412,0,0,0,32.412,32.412,32.413,32.413,0,0,0,32.413-32.412,32.414,32.414,0,0,0-32.413-32.413Zm-41.935-273.648a88.271,88.271,0,0,0-88.27,88.271,88.27,88.27,0,0,0,88.27,88.271,88.27,88.27,0,0,0,88.27-88.271,88.271,88.271,0,0,0-88.27-88.271Zm208.068,0a88.271,88.271,0,0,0-88.269,88.271,88.271,88.271,0,0,0,88.269,88.271,88.271,88.271,0,0,0,88.27-88.271,88.271,88.271,0,0,0-88.27-88.271Zm137.4,249.458.006-.011.19.115a87.866,87.866,0,0,0,41.913,10.569,88.271,88.271,0,0,0,88.271-88.271,88.271,88.271,0,0,0-88.271-88.27,88.271,88.271,0,0,0-88.27,88.27,88.255,88.255,0,0,0,46.161,77.6Zm271.945,68.063a88.272,88.272,0,0,0-88.269-88.271,88.273,88.273,0,0,0-88.272,88.271,88.272,88.272,0,0,0,88.272,88.271,88.27,88.27,0,0,0,88.269-88.271Z" transform="translate(1625.498 -957.202)" fill="#d8d8d8"/>
    <path id="Trazado_192465" data-name="Trazado 192465" d="M-725.942,3133.624a32.412,32.412,0,0,0-32.411,32.413,32.411,32.411,0,0,0,32.411,32.412,32.413,32.413,0,0,0,32.413-32.412,32.413,32.413,0,0,0-32.413-32.413Z" transform="translate(1588.137 -976.357)" fill="#0063ae" fill-rule="evenodd"/>
    <path id="Trazado_192466" data-name="Trazado 192466" d="M-1070.457,3304.715h6.864l9.486,27.382h-7.636l-1.657-5.361h-7.289l-1.62,5.361h-7.675l9.527-27.382Zm5.86,17.008-2.428-8.485-2.546,8.485Z" transform="translate(1608.779 -987.337)" fill="#003b82"/>
    <path id="Trazado_192467" data-name="Trazado 192467" d="M-966.481,3229.081a6.242,6.242,0,0,1-.771,3.182,6.257,6.257,0,0,1-2.12,2.179,9.941,9.941,0,0,1-3.144,1.254,17.293,17.293,0,0,1-3.8.4h-13.459v-27.38h15.887a5.409,5.409,0,0,1,2.586.617,6.439,6.439,0,0,1,1.966,1.6,7.32,7.32,0,0,1,1.253,2.235,7.622,7.622,0,0,1,.444,2.565,7.416,7.416,0,0,1-.984,3.683,6.185,6.185,0,0,1-2.951,2.643,7.22,7.22,0,0,1,3.722,2.41,7.178,7.178,0,0,1,1.369,4.608Zm-7.635-1.541a2.6,2.6,0,0,0-.54-1.678,1.7,1.7,0,0,0-1.388-.677h-6.209v4.592h5.939a2.239,2.239,0,0,0,1.562-.579,2.128,2.128,0,0,0,.636-1.658Zm-8.137-12.418v4.2h5.128a2.481,2.481,0,0,0,1.407-.424,1.906,1.906,0,0,0,.637-1.7,2.056,2.056,0,0,0-.54-1.6,1.846,1.846,0,0,0-1.273-.48Z" transform="translate(1602.989 -981.177)" fill="#003b82"/>
    <path id="Trazado_192468" data-name="Trazado 192468" d="M-873.68,3167.079a13.54,13.54,0,0,1,.943-4.936,13.385,13.385,0,0,1,2.759-4.357,14.011,14.011,0,0,1,4.4-3.124,13.893,13.893,0,0,1,5.9-1.2,13.813,13.813,0,0,1,6.883,1.639,10.673,10.673,0,0,1,4.339,4.338l-5.746,4.089a4.832,4.832,0,0,0-1.023-1.659,5.233,5.233,0,0,0-1.407-1.041,6.089,6.089,0,0,0-1.6-.54,8.727,8.727,0,0,0-1.6-.155,5.8,5.8,0,0,0-2.8.636,5.746,5.746,0,0,0-1.928,1.658,7.153,7.153,0,0,0-1.119,2.314,9.4,9.4,0,0,0-.366,2.564,8.846,8.846,0,0,0,.424,2.738,7.139,7.139,0,0,0,1.233,2.314,6.038,6.038,0,0,0,1.987,1.6,5.758,5.758,0,0,0,2.642.6,7.524,7.524,0,0,0,1.581-.174,5.908,5.908,0,0,0,1.561-.578,5.278,5.278,0,0,0,1.349-1.042,4.6,4.6,0,0,0,.946-1.562l6.132,3.664a7.815,7.815,0,0,1-1.871,2.7,11.768,11.768,0,0,1-2.854,2,15.116,15.116,0,0,1-3.432,1.236,15.808,15.808,0,0,1-3.567.424,12.666,12.666,0,0,1-5.573-1.216,14.161,14.161,0,0,1-4.358-3.219,14.675,14.675,0,0,1-2.834-4.55,14.01,14.01,0,0,1-1-5.169Z" transform="translate(1595.538 -977.63)" fill="#003b82"/>
    <path id="Trazado_192469" data-name="Trazado 192469" d="M-734.948,3181.011v-27.38h10.528a15.4,15.4,0,0,1,5.978,1.08,12.355,12.355,0,0,1,4.319,2.929,12.33,12.33,0,0,1,2.622,4.34,15.663,15.663,0,0,1,.888,5.3,15.461,15.461,0,0,1-.984,5.649,12.243,12.243,0,0,1-2.8,4.322,12.551,12.551,0,0,1-4.358,2.775,15.609,15.609,0,0,1-5.669.983Zm16.7-13.729a9.363,9.363,0,0,0-.425-2.892,6.5,6.5,0,0,0-1.214-2.237,5.493,5.493,0,0,0-1.948-1.446,6.22,6.22,0,0,0-2.584-.521h-3.009v14.269h3.009a6.133,6.133,0,0,0,2.623-.54,5.467,5.467,0,0,0,1.947-1.5,6.625,6.625,0,0,0,1.2-2.275,9.645,9.645,0,0,0,.405-2.854Z" transform="translate(1586.635 -977.641)" fill="#fff"/>
    <path id="Trazado_192470" data-name="Trazado 192470" d="M-597.131,3229.543v6.556h-19.514v-27.38h19.167v6.556h-11.646v3.856h9.949v6.094h-9.949v4.317Z" transform="translate(1579.042 -981.177)" fill="#fff"/>
    <path id="Trazado_192471" data-name="Trazado 192471" d="M-523.348,3332.1v-27.382h18.781v6.556h-11.26v4.551h9.177v6.092h-9.177V3332.1Z" transform="translate(1573.055 -987.337)" fill="#fff"/>
    <path id="Trazado_192472" data-name="Trazado 192472" d="M-1023.839,3020.756a78,78,0,0,1-78,78,78,78,0,0,1-78-78,78,78,0,0,1,78-78A78,78,0,0,1-1023.839,3020.756Z" transform="translate(1615.188 -964.107)" fill="#91d1e6"/>
    <path id="Trazado_192473" data-name="Trazado 192473" d="M-1167.881,3176.992a77.8,77.8,0,0,1-77.8,77.8,77.8,77.8,0,0,1-77.8-77.8,77.8,77.8,0,0,1,77.8-77.8A77.8,77.8,0,0,1-1167.881,3176.992Z" transform="translate(1624.406 -974.146)" fill="#aad5f4"/>
    <path id="Trazado_192474" data-name="Trazado 192474" d="M-832.684,2929.521a77.8,77.8,0,0,1-77.8,77.8,77.8,77.8,0,0,1-77.8-77.8,77.8,77.8,0,0,1,77.8-77.8A77.8,77.8,0,0,1-832.684,2929.521Z" transform="translate(1602.894 -958.265)" fill="#41b8df"/>
    <path id="Trazado_192475" data-name="Trazado 192475" d="M-611.37,2929.112a78,78,0,0,1-78,78,78,78,0,0,1-78-78,78,78,0,0,1,78-78A78,78,0,0,1-611.37,2929.112Z" transform="translate(1588.716 -958.226)" fill="#0063ae"/>
    <path id="Trazado_192476" data-name="Trazado 192476" d="M-268.429,3176.5a76.791,76.791,0,0,1-76.791,76.794A76.792,76.792,0,0,1-422.01,3176.5a76.792,76.792,0,0,1,76.791-76.789A76.791,76.791,0,0,1-268.429,3176.5Z" transform="translate(1566.551 -974.181)" fill="#062c51"/>
    <path id="Trazado_192477" data-name="Trazado 192477" d="M-572.45,3014.3a76.792,76.792,0,0,0,71.755,81.517,76.793,76.793,0,0,0,81.517-71.755,76.792,76.792,0,0,0-71.756-81.519A76.794,76.794,0,0,0-572.45,3014.3Z" transform="translate(1576.216 -964.083)" fill="#003b82"/>
    <g id="Grupo_133172" data-name="Grupo 133172" transform="translate(1168.954 2155.841)">
      <path id="Trazado_192478" data-name="Trazado 192478" d="M-344.958,3164.115l-.622-6.242a1.719,1.719,0,0,0-1.883-1.542,1.721,1.721,0,0,0-1.542,1.883l.622,6.242a5.547,5.547,0,0,0,4.732,4.95l14.035,2.034a1.175,1.175,0,0,1,1,1.158,1.171,1.171,0,0,1-1.17,1.17h-15.959a6.111,6.111,0,0,1-5.767-4.1l-2.413-6.929a1.721,1.721,0,0,0-2.192-1.059,1.721,1.721,0,0,0-1.059,2.192l2.413,6.929a9.558,9.558,0,0,0,9.018,6.409h15.959a4.618,4.618,0,0,0,4.613-4.612,4.636,4.636,0,0,0-3.951-4.564L-343.157,3166A2.111,2.111,0,0,1-344.958,3164.115Z" transform="translate(393.442 -3133.655)" fill="#aad5f4"/>
      <path id="Trazado_192479" data-name="Trazado 192479" d="M-296.444,3219.256h-6.425v-39.012h3.9a1.721,1.721,0,0,0,1.721-1.721,1.721,1.721,0,0,0-1.721-1.721h-14.687v-15.49a1.717,1.717,0,0,0-.183-.772l-3.336-6.644,3.112-17.795a1.721,1.721,0,0,0-1.4-1.991,1.722,1.722,0,0,0-1.992,1.4l-6.264,35.827a1.721,1.721,0,0,0,1.4,1.992,1.811,1.811,0,0,0,.3.025,1.722,1.722,0,0,0,1.694-1.425l2.158-12.344,1.072,2.135V3176.8h-26.62a1.721,1.721,0,0,0-1.721,1.721,1.721,1.721,0,0,0,1.721,1.721h16.064v39.012h-11.008a5.827,5.827,0,0,0,.532-1.5l4.705-22.762a9.5,9.5,0,0,0-5.268-10.547l-17.521-8.26a1.722,1.722,0,0,0-2.291.823,1.721,1.721,0,0,0,.824,2.29l17.521,8.26a6.067,6.067,0,0,1,3.364,6.736l-4.705,22.762a2.476,2.476,0,0,1-2.415,1.967,2.464,2.464,0,0,1-1.874-.864,2.465,2.465,0,0,1-.561-1.987l3.058-19.4a4.729,4.729,0,0,0-.913-3.594,4.721,4.721,0,0,0-3.234-1.816l-12.981-1.39a9.329,9.329,0,0,1-6.515-3.689,9.33,9.33,0,0,1-1.77-7.275l2.952-17.2a24.136,24.136,0,0,1,5.5-11.66,10.289,10.289,0,0,0,6.863,2.626,10.352,10.352,0,0,0,10.341-10.34,10.352,10.352,0,0,0-10.341-10.341,10.352,10.352,0,0,0-10.34,10.341,10.272,10.272,0,0,0,1.3,5,1.686,1.686,0,0,0-.175.162,27.577,27.577,0,0,0-6.54,13.628l-2.952,17.2a12.743,12.743,0,0,0,2.415,9.934,12.741,12.741,0,0,0,8.9,5.036l12.981,1.39a1.249,1.249,0,0,1,.867.488,1.25,1.25,0,0,1,.245.964l-3.057,19.4c0,.023,0,.044-.008.066l-10.941-4.28v-11.471c.326.016.652.025.982.025h8.427a1.721,1.721,0,0,0,1.721-1.721,1.721,1.721,0,0,0-1.721-1.722h-8.427a17.064,17.064,0,0,1-17.045-17.044v-17.406a27,27,0,0,0-5.471-16.242l-2.06-2.711a1.72,1.72,0,0,0-2.412-.328,1.721,1.721,0,0,0-.329,2.411l2.061,2.711a23.539,23.539,0,0,1,4.769,14.159v17.406a20.518,20.518,0,0,0,16.063,20v11.91l-14.321,5.314a1.721,1.721,0,0,0-1.014,2.212,1.749,1.749,0,0,0,.167.326H-394.2a1.72,1.72,0,0,0-1.721,1.721,1.721,1.721,0,0,0,1.721,1.721h97.758a1.721,1.721,0,0,0,1.721-1.721A1.721,1.721,0,0,0-296.444,3219.256Zm-56.944-83.714a6.907,6.907,0,0,1,6.9,6.9,6.906,6.906,0,0,1-6.9,6.9,6.906,6.906,0,0,1-6.9-6.9A6.906,6.906,0,0,1-353.388,3135.542Zm-9.048,78.9,12.305,4.813h-25.276Zm38.225,4.813v-39.012h17.9v39.012Z" transform="translate(395.923 -3132.1)" fill="#aad5f4"/>
    </g>
    <g id="Grupo_133173" data-name="Grupo 133173" transform="translate(1029.97 1993.059)">
      <path id="Trazado_192480" data-name="Trazado 192480" d="M-521.883,3022.408a1.722,1.722,0,0,0,1.722-1.722,1.722,1.722,0,0,0-1.722-1.723A18.688,18.688,0,0,1-540.55,3000.3a18.688,18.688,0,0,1,18.667-18.666,18.519,18.519,0,0,1,7.563,1.6,8.841,8.841,0,0,1,3.146,2.63,1.721,1.721,0,0,0,1.475.831,1.715,1.715,0,0,0,.876-.24,1.723,1.723,0,0,0,.605-2.36,11.26,11.26,0,0,0-3.734-3.468,17.616,17.616,0,0,1-.1-1.8,17.238,17.238,0,0,1,17.218-17.218,17.238,17.238,0,0,1,17.218,17.218,17.308,17.308,0,0,1-.241,2.828,9.956,9.956,0,0,0-2.271,2.443,1.731,1.731,0,0,0,.6,2.369,1.73,1.73,0,0,0,.882.242,1.707,1.707,0,0,0,1.474-.839,8.77,8.77,0,0,1,3.082-2.595,18.7,18.7,0,0,1,7.629-1.634A18.688,18.688,0,0,1-447.8,3000.3a18.688,18.688,0,0,1-18.667,18.667,1.723,1.723,0,0,0-1.723,1.723,1.723,1.723,0,0,0,1.723,1.722,22.137,22.137,0,0,0,22.113-22.112,22.137,22.137,0,0,0-22.113-22.111,22.2,22.2,0,0,0-7.723,1.389q.015-.379.015-.758a20.687,20.687,0,0,0-20.664-20.663,20.687,20.687,0,0,0-20.664,20.663c0,.1,0,.2,0,.3a22,22,0,0,0-6.383-.935,22.136,22.136,0,0,0-22.112,22.111A22.136,22.136,0,0,0-521.883,3022.408Z" transform="translate(544.409 -2958.154)" fill="#91d1e6"/>
      <path id="Trazado_192481" data-name="Trazado 192481" d="M-464.614,3039.281a43.7,43.7,0,0,1-1.216-4.284,1.722,1.722,0,0,0-2.064-1.294,1.723,1.723,0,0,0-1.293,2.065,47.275,47.275,0,0,0,1.311,4.623,1.724,1.724,0,0,0,1.631,1.168,1.713,1.713,0,0,0,.555-.092A1.724,1.724,0,0,0-464.614,3039.281Z" transform="translate(539.611 -2963)" fill="#91d1e6"/>
      <path id="Trazado_192482" data-name="Trazado 192482" d="M-468.646,3024.454h-.03a1.723,1.723,0,0,0-1.722,1.693c0,.031-.011.753.072,1.972a1.722,1.722,0,0,0,1.716,1.6c.04,0,.081,0,.12,0a1.723,1.723,0,0,0,1.6-1.837c-.072-1.044-.065-1.66-.065-1.679A1.722,1.722,0,0,0-468.646,3024.454Z" transform="translate(539.686 -2962.409)" fill="#91d1e6"/>
      <path id="Trazado_192483" data-name="Trazado 192483" d="M-491.463,3040.36a1.723,1.723,0,0,0,1.723-1.723v-.229a1.722,1.722,0,0,0-1.723-1.723,1.723,1.723,0,0,0-1.723,1.723v.229A1.723,1.723,0,0,0-491.463,3040.36Z" transform="translate(541.149 -2963.194)" fill="#91d1e6"/>
      <path id="Trazado_192484" data-name="Trazado 192484" d="M-489.976,3063.1V3044.79a1.723,1.723,0,0,0-1.723-1.723,1.723,1.723,0,0,0-1.723,1.723V3063.1a5.166,5.166,0,0,0-3.439,4.861,5.169,5.169,0,0,0,5.162,5.163,5.169,5.169,0,0,0,5.163-5.163A5.166,5.166,0,0,0-489.976,3063.1Zm-1.723,6.578a1.719,1.719,0,0,1-1.716-1.717,1.719,1.719,0,0,1,1.716-1.717,1.72,1.72,0,0,1,1.718,1.717A1.72,1.72,0,0,1-491.7,3069.675Z" transform="translate(541.385 -2963.604)" fill="#91d1e6"/>
      <path id="Trazado_192485" data-name="Trazado 192485" d="M-445.262,3057.616a5.146,5.146,0,0,0-3.814,1.7,34.1,34.1,0,0,1-13.121-14.166,1.723,1.723,0,0,0-2.314-.76,1.722,1.722,0,0,0-.761,2.314,37.5,37.5,0,0,0,14.861,15.825c0,.084-.013.167-.013.253a5.169,5.169,0,0,0,5.163,5.163,5.169,5.169,0,0,0,5.163-5.163A5.169,5.169,0,0,0-445.262,3057.616Zm0,6.88a1.719,1.719,0,0,1-1.717-1.717,1.719,1.719,0,0,1,1.717-1.717,1.719,1.719,0,0,1,1.717,1.717A1.719,1.719,0,0,1-445.262,3064.5Z" transform="translate(539.369 -2963.676)" fill="#91d1e6"/>
      <path id="Trazado_192486" data-name="Trazado 192486" d="M-474.462,3054.351a99.123,99.123,0,0,1-3.7-21.532,1.72,1.72,0,0,0-1.8-1.64,1.723,1.723,0,0,0-1.641,1.8,100.52,100.52,0,0,0,3.884,22.505A4.648,4.648,0,0,0-479.33,3059a4.668,4.668,0,0,0,4.663,4.664A4.668,4.668,0,0,0-470,3059,4.664,4.664,0,0,0-474.462,3054.351Zm-.2,5.869a1.218,1.218,0,0,1-1.217-1.218,1.218,1.218,0,0,1,1.217-1.216A1.218,1.218,0,0,1-473.45,3059,1.218,1.218,0,0,1-474.667,3060.22Z" transform="translate(540.405 -2962.841)" fill="#91d1e6"/>
      <path id="Trazado_192487" data-name="Trazado 192487" d="M-520.025,3044.386a1.723,1.723,0,0,0-2.314.76,34.1,34.1,0,0,1-13.121,14.166,5.146,5.146,0,0,0-3.814-1.7,5.169,5.169,0,0,0-5.163,5.163,5.169,5.169,0,0,0,5.163,5.163,5.168,5.168,0,0,0,5.162-5.163c0-.086-.008-.169-.012-.253a37.5,37.5,0,0,0,14.861-15.825A1.723,1.723,0,0,0-520.025,3044.386Zm-19.25,20.11a1.719,1.719,0,0,1-1.717-1.717,1.719,1.719,0,0,1,1.717-1.717,1.72,1.72,0,0,1,1.717,1.717A1.72,1.72,0,0,1-539.275,3064.5Z" transform="translate(544.438 -2963.676)" fill="#91d1e6"/>
      <path id="Trazado_192488" data-name="Trazado 192488" d="M-515.227,3033.7a1.723,1.723,0,0,0-2.064,1.294,43.67,43.67,0,0,1-1.216,4.284,1.722,1.722,0,0,0,1.076,2.186,1.7,1.7,0,0,0,.555.092,1.725,1.725,0,0,0,1.631-1.168,47.267,47.267,0,0,0,1.311-4.623A1.724,1.724,0,0,0-515.227,3033.7Z" transform="translate(542.78 -2963)" fill="#91d1e6"/>
      <path id="Trazado_192489" data-name="Trazado 192489" d="M-514.549,3029.72c.04,0,.08,0,.119,0a1.723,1.723,0,0,0,1.717-1.605c.083-1.218.072-1.941.072-1.971a1.722,1.722,0,0,0-1.722-1.692h-.027a1.723,1.723,0,0,0-1.7,1.748c0,.006.008.624-.064,1.68A1.723,1.723,0,0,0-514.549,3029.72Z" transform="translate(542.623 -2962.409)" fill="#91d1e6"/>
      <path id="Trazado_192490" data-name="Trazado 192490" d="M-503.635,3031.178a1.722,1.722,0,0,0-1.8,1.64,99.058,99.058,0,0,1-3.7,21.532,4.664,4.664,0,0,0-4.456,4.652,4.668,4.668,0,0,0,4.662,4.664,4.668,4.668,0,0,0,4.663-4.664,4.651,4.651,0,0,0-1.613-3.519,100.428,100.428,0,0,0,3.883-22.505A1.723,1.723,0,0,0-503.635,3031.178Zm-5.292,29.042a1.219,1.219,0,0,1-1.217-1.218,1.218,1.218,0,0,1,1.217-1.216,1.218,1.218,0,0,1,1.217,1.216A1.219,1.219,0,0,1-508.927,3060.22Z" transform="translate(542.458 -2962.84)" fill="#91d1e6"/>
    </g>
    <path id="Trazado_192491" data-name="Trazado 192491" d="M-1048.136,2978.227h-26.234a1.692,1.692,0,0,0-1.692,1.692v12.858a1.692,1.692,0,0,0,1.692,1.692h11.2v7.558h-33.839v-7.558h11.559a1.691,1.691,0,0,0,1.692-1.692v-12.858a1.691,1.691,0,0,0-1.692-1.692h-26.234a1.692,1.692,0,0,0-1.692,1.692v12.858a1.692,1.692,0,0,0,1.692,1.692h11.291v7.558h-34.742v-7.558h12.371a1.691,1.691,0,0,0,1.692-1.692v-12.858a1.691,1.691,0,0,0-1.692-1.692H-1149a1.692,1.692,0,0,0-1.692,1.692v12.858a1.692,1.692,0,0,0,1.692,1.692h10.479v9.25a1.692,1.692,0,0,0,1.692,1.692h17.033v5.633h-11.536a1.691,1.691,0,0,0-1.692,1.692v12.858a1.691,1.691,0,0,0,1.692,1.692h11.536v7.565a1.692,1.692,0,0,0,1.692,1.692h17.483v6.656h-11.48a1.691,1.691,0,0,0-1.692,1.692v12.859a1.692,1.692,0,0,0,1.692,1.692h11.48v6.293h-11.087a1.692,1.692,0,0,0-1.692,1.692v12.858a1.692,1.692,0,0,0,1.692,1.692h26.234a1.691,1.691,0,0,0,1.692-1.692v-12.858a1.691,1.691,0,0,0-1.692-1.692h-11.763v-6.293h11.369a1.693,1.693,0,0,0,1.692-1.692V3044.89a1.692,1.692,0,0,0-1.692-1.692h-11.369v-6.656h16.356a1.692,1.692,0,0,0,1.692-1.692v-7.565h11.4a1.692,1.692,0,0,0,1.692-1.692v-12.858a1.692,1.692,0,0,0-1.692-1.692h-11.4v-5.633h17.708a1.691,1.691,0,0,0,1.692-1.692v-9.25h11.65a1.691,1.691,0,0,0,1.692-1.692v-12.858A1.691,1.691,0,0,0-1048.136,2978.227Zm-61.856,3.384h22.85v9.474h-22.85Zm-37.314,0h22.85v9.474h-22.85Zm60.143,96.982h-22.851v-9.474h22.851Zm-.4-22.536h-22.85v-9.475h22.85Zm-42.08-41.63h22.85v9.474h-22.85Zm60.164,9.474h-22.85v-9.474h22.85Zm-13.1-12.858h-11.445a1.691,1.691,0,0,0-1.692,1.692v12.858a1.691,1.691,0,0,0,1.692,1.692h11.445v5.873h-33.839v-5.873h11.314a1.692,1.692,0,0,0,1.692-1.692v-12.858a1.692,1.692,0,0,0-1.692-1.692h-11.314v-5.633h33.839Zm32.742-19.958h-22.85v-9.474h22.85Z" transform="translate(1613.316 -966.384)" fill="#003b82"/>
    <g id="Grupo_133174" data-name="Grupo 133174" transform="translate(646.717 1923.345)">
      <path id="Trazado_192492" data-name="Trazado 192492" d="M-866.722,2905.506a4.132,4.132,0,0,0-4.127,4.128,4.162,4.162,0,0,0,.046.585l-10.047,6.376v-23.653a9.294,9.294,0,0,0-9.283-9.283h-37.559a9.294,9.294,0,0,0-9.282,9.283V2894a1.658,1.658,0,0,0-.06.422,1.661,1.661,0,0,0,.06.423v39.151l-10.488,6.159a4.1,4.1,0,0,0-2.385-.764,4.131,4.131,0,0,0-4.127,4.127,4.131,4.131,0,0,0,4.127,4.127,4.132,4.132,0,0,0,4.127-4.127,4.149,4.149,0,0,0-.025-.448l8.771-5.151V2962.8a1.664,1.664,0,0,0-.06.422,1.666,1.666,0,0,0,.06.423v7.821a9.293,9.293,0,0,0,9.282,9.283h37.559a9.293,9.293,0,0,0,9.283-9.283v-43.279a1.691,1.691,0,0,0-1.692-1.692,1.691,1.691,0,0,0-1.692,1.692v33.344h-49.357v-65.422h49.357v22.327a1.718,1.718,0,0,0,.029.288l-4.228,2.683a4.1,4.1,0,0,0-2.268-.684,4.132,4.132,0,0,0-4.127,4.127,4.108,4.108,0,0,0,.164,1.142l-13.475,11.424a4.1,4.1,0,0,0-1.894-.464,4.1,4.1,0,0,0-2.529.872l-14.233-7.132a1.692,1.692,0,0,0-2.27.755,1.691,1.691,0,0,0,.755,2.27l14.163,7.1c-.006.088-.014.175-.014.265a4.132,4.132,0,0,0,4.128,4.127,4.132,4.132,0,0,0,4.127-4.127,4.121,4.121,0,0,0-.13-1.009l13.562-11.5a4.1,4.1,0,0,0,1.773.406,4.133,4.133,0,0,0,4.127-4.128,4.02,4.02,0,0,0-.047-.585l17.63-11.188a4.106,4.106,0,0,0,2.269.683,4.132,4.132,0,0,0,4.127-4.127A4.132,4.132,0,0,0-866.722,2905.506Zm-60.971-18.463h37.559a5.9,5.9,0,0,1,5.888,5.682h-49.336A5.9,5.9,0,0,1-927.692,2887.043Zm43.459,77.873v6.551a5.906,5.906,0,0,1-5.9,5.9h-37.559a5.906,5.906,0,0,1-5.9-5.9v-6.551Z" transform="translate(953.974 -2883.659)" fill="#0063ae"/>
      <path id="Trazado_192493" data-name="Trazado 192493" d="M-909.592,2978.212h6.768a1.692,1.692,0,0,0,1.692-1.692,1.692,1.692,0,0,0-1.692-1.692h-6.768a1.692,1.692,0,0,0-1.692,1.692A1.692,1.692,0,0,0-909.592,2978.212Z" transform="translate(951.234 -2889.51)" fill="#0063ae"/>
    </g>
    <g id="Grupo_133175" data-name="Grupo 133175" transform="translate(832.633 1926.105)">
      <path id="Trazado_192494" data-name="Trazado 192494" d="M-680.235,2958.427a11.693,11.693,0,0,0-11.68-11.68h-35.306a11.693,11.693,0,0,0-11.68,11.68v8.925a11.694,11.694,0,0,0,11.68,11.68h35.306a11.694,11.694,0,0,0,11.68-11.68Zm-3.508,8.925a8.18,8.18,0,0,1-8.172,8.171h-35.306a8.18,8.18,0,0,1-8.171-8.171v-8.925a8.18,8.18,0,0,1,8.171-8.171h35.306a8.18,8.18,0,0,1,8.172,8.171Z" transform="translate(754.255 -2890.469)" fill="#41b8df"/>
      <path id="Trazado_192495" data-name="Trazado 192495" d="M-693.826,2953.357a9.967,9.967,0,0,0-9.954,9.956,9.967,9.967,0,0,0,9.954,9.956,9.967,9.967,0,0,0,9.955-9.956A9.967,9.967,0,0,0-693.826,2953.357Zm0,16.4a6.454,6.454,0,0,1-6.446-6.447,6.454,6.454,0,0,1,6.446-6.446,6.454,6.454,0,0,1,6.447,6.446A6.454,6.454,0,0,1-693.826,2969.76Z" transform="translate(752.001 -2890.892)" fill="#41b8df"/>
      <path id="Trazado_192496" data-name="Trazado 192496" d="M-727.362,2957.871a1.755,1.755,0,0,0-1.755,1.755v5.38a1.754,1.754,0,0,0,1.755,1.755,1.754,1.754,0,0,0,1.754-1.755v-5.38A1.754,1.754,0,0,0-727.362,2957.871Z" transform="translate(753.628 -2891.182)" fill="#41b8df"/>
      <path id="Trazado_192497" data-name="Trazado 192497" d="M-721.363,2957.871a1.755,1.755,0,0,0-1.755,1.755v5.38a1.754,1.754,0,0,0,1.755,1.755,1.754,1.754,0,0,0,1.754-1.755v-5.38A1.754,1.754,0,0,0-721.363,2957.871Z" transform="translate(753.242 -2891.182)" fill="#41b8df"/>
      <path id="Trazado_192498" data-name="Trazado 192498" d="M-743.622,2946.657l-8.617-3.646a1.755,1.755,0,0,0-2.3.932,1.755,1.755,0,0,0,.932,2.3l8.617,3.646a1.754,1.754,0,0,0,.683.139,1.754,1.754,0,0,0,1.616-1.072A1.754,1.754,0,0,0-743.622,2946.657Z" transform="translate(755.268 -2890.22)" fill="#41b8df"/>
      <path id="Trazado_192499" data-name="Trazado 192499" d="M-736.05,2940.377a1.761,1.761,0,0,0,.658-.129,1.754,1.754,0,0,0,.967-2.285l-3.467-8.555a1.755,1.755,0,0,0-2.285-.967,1.754,1.754,0,0,0-.967,2.285l3.468,8.555A1.756,1.756,0,0,0-736.05,2940.377Z" transform="translate(754.408 -2889.285)" fill="#41b8df"/>
      <path id="Trazado_192500" data-name="Trazado 192500" d="M-746.035,2960.435l-7.966,2.1a1.754,1.754,0,0,0-1.249,2.143,1.756,1.756,0,0,0,1.695,1.308,1.774,1.774,0,0,0,.449-.059l7.966-2.1a1.756,1.756,0,0,0,1.249-2.144A1.755,1.755,0,0,0-746.035,2960.435Z" transform="translate(755.308 -2891.343)" fill="#41b8df"/>
      <path id="Trazado_192501" data-name="Trazado 192501" d="M-641.393,2940.733v-42.239a1.726,1.726,0,0,0,.087-.518,1.728,1.728,0,0,0-.087-.518v-.6a10.265,10.265,0,0,0-10.254-10.254h-63.966a10.265,10.265,0,0,0-10.254,10.254v42.3a1.755,1.755,0,0,0,1.754,1.755,1.755,1.755,0,0,0,1.755-1.755v-39.429H-644.9V2939.5h-36.989a1.754,1.754,0,0,0-1.755,1.755,1.754,1.754,0,0,0,1.755,1.754H-645a6.75,6.75,0,0,1-6.642,5.614h-24.178a1.754,1.754,0,0,0-1.755,1.754,1.754,1.754,0,0,0,1.755,1.754h3.29V2962.3a12.83,12.83,0,0,0,4.052,9.361h-11.07a1.754,1.754,0,0,0-1.754,1.755,1.754,1.754,0,0,0,1.754,1.754h30.225a1.755,1.755,0,0,0,1.755-1.754,1.755,1.755,0,0,0-1.755-1.755h-10.337a9.371,9.371,0,0,1-9.361-9.361v-10.171h17.378a10.265,10.265,0,0,0,10.254-10.254v-.1a1.732,1.732,0,0,0,.087-.518A1.731,1.731,0,0,0-641.393,2940.733Zm-74.22-50.616h63.966a6.753,6.753,0,0,1,6.713,6.1h-77.392A6.753,6.753,0,0,1-715.613,2890.117Z" transform="translate(753.419 -2886.609)" fill="#41b8df"/>
    </g>
    <g id="Grupo_133176" data-name="Grupo 133176" transform="translate(327.438 2152.013)">
      <path id="Trazado_192502" data-name="Trazado 192502" d="M-1260.949,3158.313a11.915,11.915,0,0,1,8.26,3.308l4.568,4.358a1.593,1.593,0,0,0,1.1.44,1.581,1.581,0,0,0,.627-.129,1.592,1.592,0,0,0,.966-1.464v-21.665a15.168,15.168,0,0,0-15.152-15.152H-1280a15.169,15.169,0,0,0-15.152,15.152A15.17,15.17,0,0,0-1280,3158.313Zm-31.015-15.152A11.98,11.98,0,0,1-1280,3131.194h19.417a11.98,11.98,0,0,1,11.966,11.966V3161.1l-1.875-1.789a15.088,15.088,0,0,0-10.46-4.189H-1280A11.98,11.98,0,0,1-1291.964,3143.161Z" transform="translate(1295.15 -3128.009)" fill="#062c51"/>
      <path id="Trazado_192503" data-name="Trazado 192503" d="M-1202.285,3128.009H-1221.7a15.169,15.169,0,0,0-15.152,15.152v21.665a1.592,1.592,0,0,0,.966,1.464,1.581,1.581,0,0,0,.627.129,1.593,1.593,0,0,0,1.1-.44l4.568-4.358a11.916,11.916,0,0,1,8.26-3.308h19.05a15.169,15.169,0,0,0,15.151-15.152A15.168,15.168,0,0,0-1202.285,3128.009Zm0,27.117h-19.05a15.087,15.087,0,0,0-10.46,4.189l-1.875,1.789v-17.944a11.98,11.98,0,0,1,11.967-11.966h19.418a11.979,11.979,0,0,1,11.965,11.966A11.979,11.979,0,0,1-1202.285,3155.126Z" transform="translate(1291.409 -3128.009)" fill="#062c51"/>
      <path id="Trazado_192504" data-name="Trazado 192504" d="M-1258.874,3206.673h12.118a4.5,4.5,0,0,0,4.494-4.493v-5.3a4.5,4.5,0,0,0-4.494-4.494h-12.118a4.5,4.5,0,0,0-4.493,4.494v5.3A4.5,4.5,0,0,0-1258.874,3206.673Zm-1.307-9.791a1.309,1.309,0,0,1,1.307-1.308h1.4v3.263a1.593,1.593,0,0,0,1.593,1.592,1.593,1.593,0,0,0,1.593-1.592v-3.263h2.949v3.263a1.592,1.592,0,0,0,1.593,1.592,1.592,1.592,0,0,0,1.593-1.592v-3.263h1.4a1.309,1.309,0,0,1,1.307,1.308v5.3a1.309,1.309,0,0,1-1.307,1.307h-1.4v-.529a1.593,1.593,0,0,0-1.593-1.593,1.593,1.593,0,0,0-1.593,1.593v.529h-2.949v-.529a1.593,1.593,0,0,0-1.593-1.593,1.593,1.593,0,0,0-1.593,1.593v.529h-1.4a1.309,1.309,0,0,1-1.307-1.307Z" transform="translate(1293.11 -3132.141)" fill="#062c51"/>
      <path id="Trazado_192505" data-name="Trazado 192505" d="M-1232.893,3206.673h12.117a4.5,4.5,0,0,0,4.494-4.493v-5.3a4.5,4.5,0,0,0-4.494-4.494h-12.117a4.5,4.5,0,0,0-4.494,4.494v5.3A4.5,4.5,0,0,0-1232.893,3206.673Zm-1.307-9.791a1.308,1.308,0,0,1,1.307-1.308h1.4v.6a1.593,1.593,0,0,0,1.593,1.593,1.593,1.593,0,0,0,1.594-1.593v-.6h2.948v.6a1.594,1.594,0,0,0,1.594,1.593,1.593,1.593,0,0,0,1.593-1.593v-.6h1.4a1.308,1.308,0,0,1,1.307,1.308v5.3a1.309,1.309,0,0,1-1.307,1.307h-1.4v-3.064a1.593,1.593,0,0,0-1.593-1.593,1.593,1.593,0,0,0-1.594,1.593v3.064h-2.948v-3.064a1.593,1.593,0,0,0-1.594-1.593,1.593,1.593,0,0,0-1.593,1.593v3.064h-1.4a1.309,1.309,0,0,1-1.307-1.307Z" transform="translate(1291.443 -3132.141)" fill="#062c51"/>
      <path id="Trazado_192506" data-name="Trazado 192506" d="M-1205.789,3217.629h-6.075v-32.788a1.593,1.593,0,0,0-1.593-1.594h-26.088l5.782-10.763a1.593,1.593,0,0,0-.65-2.157,1.593,1.593,0,0,0-2.157.649l-5.594,10.413-5.857-10.438a1.592,1.592,0,0,0-2.168-.609,1.592,1.592,0,0,0-.61,2.168l6.026,10.737h-26.345a1.593,1.593,0,0,0-1.593,1.594v32.788h-5.836a10.218,10.218,0,0,0-10.206,10.206v5.231a1.593,1.593,0,0,0,1.593,1.593,1.593,1.593,0,0,0,1.594-1.593v-5.231a7.028,7.028,0,0,1,7.02-7.02h5.836v6.406a1.593,1.593,0,0,0,1.593,1.593h57.662a1.593,1.593,0,0,0,1.593-1.593v-6.406h6.075a7.028,7.028,0,0,1,7.02,7.02v5.231a1.593,1.593,0,0,0,1.593,1.593,1.593,1.593,0,0,0,1.593-1.593v-5.231A10.218,10.218,0,0,0-1205.789,3217.629Zm-28.857,8h-15.284v-14.067h15.284Zm19.6,0h-16.411v-15.66a1.593,1.593,0,0,0-1.593-1.594h-18.469a1.593,1.593,0,0,0-1.593,1.594v15.66h-16.411v-39.195h54.476Z" transform="translate(1294.74 -3130.713)" fill="#062c51"/>
      <path id="Trazado_192507" data-name="Trazado 192507" d="M-1219.846,3141.649a2.972,2.972,0,0,0-2.969,2.968,2.972,2.972,0,0,0,2.969,2.968,2.971,2.971,0,0,0,2.967-2.968A2.971,2.971,0,0,0-1219.846,3141.649Z" transform="translate(1290.508 -3128.885)" fill="#062c51"/>
      <path id="Trazado_192508" data-name="Trazado 192508" d="M-1210.32,3141.649a2.971,2.971,0,0,0-2.968,2.968,2.971,2.971,0,0,0,2.968,2.968,2.971,2.971,0,0,0,2.967-2.968A2.971,2.971,0,0,0-1210.32,3141.649Z" transform="translate(1289.896 -3128.885)" fill="#062c51"/>
      <path id="Trazado_192509" data-name="Trazado 192509" d="M-1201.359,3141.649a2.971,2.971,0,0,0-2.967,2.968,2.971,2.971,0,0,0,2.967,2.968,2.972,2.972,0,0,0,2.969-2.968A2.972,2.972,0,0,0-1201.359,3141.649Z" transform="translate(1289.321 -3128.885)" fill="#062c51"/>
      <path id="Trazado_192510" data-name="Trazado 192510" d="M-1274.843,3144.719a2.972,2.972,0,0,0-2.968-2.969,2.972,2.972,0,0,0-2.969,2.969,2.971,2.971,0,0,0,2.969,2.968A2.971,2.971,0,0,0-1274.843,3144.719Z" transform="translate(1294.228 -3128.891)" fill="#062c51"/>
      <path id="Trazado_192511" data-name="Trazado 192511" d="M-1268.285,3147.687a2.971,2.971,0,0,0,2.968-2.968,2.972,2.972,0,0,0-2.968-2.969,2.972,2.972,0,0,0-2.968,2.969A2.971,2.971,0,0,0-1268.285,3147.687Z" transform="translate(1293.616 -3128.891)" fill="#062c51"/>
      <path id="Trazado_192512" data-name="Trazado 192512" d="M-1259.323,3147.687a2.97,2.97,0,0,0,2.967-2.968,2.971,2.971,0,0,0-2.967-2.969,2.971,2.971,0,0,0-2.968,2.969A2.97,2.97,0,0,0-1259.323,3147.687Z" transform="translate(1293.041 -3128.891)" fill="#062c51"/>
    </g>
  </g>
</svg>
