<svg xmlns="http://www.w3.org/2000/svg" width="300.874" height="274.719" viewBox="0 0 300.874 274.719">
  <g id="Grupo_140245" data-name="Grupo 140245" transform="translate(-299.126 -450.999)">
    <g id="Grupo_140162" data-name="Grupo 140162" transform="translate(299.126 484.429)">
      <rect id="Rectángulo_295159" data-name="Rectángulo 295159" width="145.411" height="105.358" rx="0.956" fill="#f2b509"/>
      <path id="Trazado_196540" data-name="Trazado 196540" d="M410.835,215.111H272.28a2.269,2.269,0,0,1-2.267-2.267V118.9H413.1v93.948A2.267,2.267,0,0,1,410.835,215.111Z" transform="translate(-268.923 -110.769)" fill="#fff"/>
      <path id="Trazado_196541" data-name="Trazado 196541" d="M411,121.653l-140.983-1.16v-1.6H413.1v93.948C413.1,214.1,411,121.653,411,121.653Z" transform="translate(-268.923 -110.769)" fill="#d6d6d6"/>
      <ellipse id="Elipse_5278" data-name="Elipse 5278" cx="71.332" cy="0.544" rx="71.332" ry="0.544" transform="translate(1.514 0.871)" fill="#ffdb75"/>
      <path id="Trazado_196542" data-name="Trazado 196542" d="M273.97,122.051l-.9.9,1.625,1.625-1.625,1.626.9.9,2.521-2.521Z" transform="translate(-264.551 -106.263)" fill="#76a9ab"/>
      <path id="Trazado_196543" data-name="Trazado 196543" d="M275.425,124.6l-.9.9,1.625,1.625-1.625,1.626.9.9,2.521-2.521Z" transform="translate(-262.473 -102.627)" fill="#76a9ab"/>
      <path id="Trazado_196544" data-name="Trazado 196544" d="M273.97,129.692l-.9.9,1.625,1.625-1.625,1.626.9.9,2.521-2.521Z" transform="translate(-264.551 -95.354)" fill="#76a9ab"/>
      <path id="Trazado_196545" data-name="Trazado 196545" d="M276.153,127.145l-.9.9,1.626,1.625-1.626,1.626.9.9,2.521-2.521Z" transform="translate(-261.434 -98.99)" fill="#76a9ab"/>
      <path id="Trazado_196546" data-name="Trazado 196546" d="M276.153,132.239l-.9.9,1.626,1.625-1.626,1.626.9.9,2.521-2.521Z" transform="translate(-261.434 -91.717)" fill="#76a9ab"/>
      <rect id="Rectángulo_295160" data-name="Rectángulo 295160" width="20.67" height="2.135" transform="translate(16.931 17.241)" fill="#8a8a8a"/>
      <rect id="Rectángulo_295161" data-name="Rectángulo 295161" width="20.671" height="2.135" transform="translate(53.131 17.241)" fill="#8a8a8a"/>
      <rect id="Rectángulo_295162" data-name="Rectángulo 295162" width="38.102" height="2.135" transform="translate(18.566 23.425)" fill="#8a8a8a"/>
      <rect id="Rectángulo_295163" data-name="Rectángulo 295163" width="38.102" height="2.135" transform="translate(58.723 23.425)" fill="#8a8a8a"/>
      <rect id="Rectángulo_295164" data-name="Rectángulo 295164" width="38.102" height="2.135" transform="translate(81.733 29.609)" fill="#8a8a8a"/>
      <rect id="Rectángulo_295165" data-name="Rectángulo 295165" width="36.587" height="2.135" transform="translate(13.382 35.792)" fill="#8a8a8a"/>
      <rect id="Rectángulo_295166" data-name="Rectángulo 295166" width="58.061" height="2.135" transform="translate(19.713 29.609)" fill="#8a8a8a"/>
      <rect id="Rectángulo_295167" data-name="Rectángulo 295167" width="58.061" height="2.135" transform="translate(65.453 35.792)" fill="#8a8a8a"/>
      <rect id="Rectángulo_295168" data-name="Rectángulo 295168" width="58.061" height="2.135" transform="translate(59.371 41.976)" fill="#8a8a8a"/>
      <rect id="Rectángulo_295169" data-name="Rectángulo 295169" width="38.102" height="2.135" transform="translate(18.566 41.976)" fill="#8a8a8a"/>
      <rect id="Rectángulo_295170" data-name="Rectángulo 295170" width="9.378" height="2.135" transform="translate(40.149 17.241)" fill="#8a8a8a"/>
      <rect id="Rectángulo_295171" data-name="Rectángulo 295171" width="9.378" height="2.135" transform="translate(77.044 17.241)" fill="#8a8a8a"/>
      <rect id="Rectángulo_295172" data-name="Rectángulo 295172" width="9.378" height="2.135" transform="translate(89.794 17.241)" fill="#8a8a8a"/>
      <rect id="Rectángulo_295173" data-name="Rectángulo 295173" width="9.378" height="2.135" transform="translate(99.172 23.425)" fill="#8a8a8a"/>
      <rect id="Rectángulo_295174" data-name="Rectángulo 295174" width="9.378" height="2.135" transform="translate(122.329 29.609)" fill="#8a8a8a"/>
      <rect id="Rectángulo_295175" data-name="Rectángulo 295175" width="9.378" height="2.135" transform="translate(53.131 35.792)" fill="#8a8a8a"/>
      <rect id="Rectángulo_295176" data-name="Rectángulo 295176" width="9.378" height="2.135" transform="translate(111.044 23.425)" fill="#8a8a8a"/>
      <path id="Trazado_196547" data-name="Trazado 196547" d="M273.97,134.814l-.9.9,1.625,1.626-1.625,1.625.9.9,2.521-2.521Z" transform="translate(-264.551 -88.041)" fill="#76a9ab"/>
      <path id="Trazado_196548" data-name="Trazado 196548" d="M275.425,137.361l-.9.9,1.625,1.626-1.625,1.625.9.9,2.521-2.521Z" transform="translate(-262.473 -84.405)" fill="#76a9ab"/>
      <path id="Trazado_196549" data-name="Trazado 196549" d="M273.97,142.455l-.9.9,1.625,1.626-1.625,1.625.9.9,2.521-2.521Z" transform="translate(-264.551 -77.131)" fill="#76a9ab"/>
      <path id="Trazado_196550" data-name="Trazado 196550" d="M276.153,139.908l-.9.9,1.626,1.626-1.626,1.625.9.9,2.521-2.521Z" transform="translate(-261.434 -80.768)" fill="#76a9ab"/>
      <path id="Trazado_196551" data-name="Trazado 196551" d="M276.153,145l-.9.9,1.626,1.626-1.626,1.625.9.9,2.521-2.521Z" transform="translate(-261.434 -73.495)" fill="#76a9ab"/>
      <rect id="Rectángulo_295177" data-name="Rectángulo 295177" width="20.67" height="2.135" transform="translate(16.931 48.226)" fill="#8a8a8a"/>
      <rect id="Rectángulo_295178" data-name="Rectángulo 295178" width="20.671" height="2.135" transform="translate(53.131 48.226)" fill="#8a8a8a"/>
      <rect id="Rectángulo_295179" data-name="Rectángulo 295179" width="38.102" height="2.135" transform="translate(18.566 54.41)" fill="#8a8a8a"/>
      <rect id="Rectángulo_295180" data-name="Rectángulo 295180" width="38.102" height="2.135" transform="translate(58.723 54.41)" fill="#8a8a8a"/>
      <rect id="Rectángulo_295181" data-name="Rectángulo 295181" width="38.102" height="2.135" transform="translate(81.733 60.593)" fill="#8a8a8a"/>
      <rect id="Rectángulo_295182" data-name="Rectángulo 295182" width="36.587" height="2.135" transform="translate(13.382 66.777)" fill="#8a8a8a"/>
      <rect id="Rectángulo_295183" data-name="Rectángulo 295183" width="58.061" height="2.135" transform="translate(19.713 60.593)" fill="#8a8a8a"/>
      <rect id="Rectángulo_295184" data-name="Rectángulo 295184" width="58.061" height="2.135" transform="translate(65.453 66.777)" fill="#8a8a8a"/>
      <rect id="Rectángulo_295185" data-name="Rectángulo 295185" width="58.061" height="2.135" transform="translate(59.371 72.961)" fill="#8a8a8a"/>
      <rect id="Rectángulo_295186" data-name="Rectángulo 295186" width="38.102" height="2.135" transform="translate(18.566 72.961)" fill="#8a8a8a"/>
      <rect id="Rectángulo_295187" data-name="Rectángulo 295187" width="9.378" height="2.135" transform="translate(40.149 48.226)" fill="#8a8a8a"/>
      <rect id="Rectángulo_295188" data-name="Rectángulo 295188" width="9.378" height="2.135" transform="translate(77.044 48.226)" fill="#8a8a8a"/>
      <rect id="Rectángulo_295189" data-name="Rectángulo 295189" width="9.378" height="2.135" transform="translate(89.794 48.226)" fill="#8a8a8a"/>
      <rect id="Rectángulo_295190" data-name="Rectángulo 295190" width="9.378" height="2.135" transform="translate(99.172 54.41)" fill="#8a8a8a"/>
      <rect id="Rectángulo_295191" data-name="Rectángulo 295191" width="9.378" height="2.135" transform="translate(122.329 60.593)" fill="#8a8a8a"/>
      <rect id="Rectángulo_295192" data-name="Rectángulo 295192" width="9.378" height="2.135" transform="translate(53.131 66.777)" fill="#8a8a8a"/>
      <path id="Trazado_196552" data-name="Trazado 196552" d="M273.97,150l-.9.9,1.625,1.626-1.625,1.625.9.9,2.521-2.521Z" transform="translate(-264.551 -66.358)" fill="#76a9ab"/>
      <path id="Trazado_196553" data-name="Trazado 196553" d="M276.153,147.454l-.9.9,1.626,1.626-1.626,1.625.9.9,2.521-2.521Z" transform="translate(-261.434 -69.994)" fill="#76a9ab"/>
      <path id="Trazado_196554" data-name="Trazado 196554" d="M276.153,152.548l-.9.9,1.626,1.626-1.626,1.625.9.9,2.521-2.521Z" transform="translate(-261.434 -62.721)" fill="#76a9ab"/>
      <rect id="Rectángulo_295193" data-name="Rectángulo 295193" width="38.102" height="2.135" transform="translate(81.733 78.913)" fill="#8a8a8a"/>
      <rect id="Rectángulo_295194" data-name="Rectángulo 295194" width="36.587" height="2.135" transform="translate(13.382 85.097)" fill="#8a8a8a"/>
      <rect id="Rectángulo_295195" data-name="Rectángulo 295195" width="58.061" height="2.135" transform="translate(19.713 78.913)" fill="#8a8a8a"/>
      <rect id="Rectángulo_295196" data-name="Rectángulo 295196" width="58.061" height="2.135" transform="translate(65.453 85.097)" fill="#8a8a8a"/>
      <rect id="Rectángulo_295197" data-name="Rectángulo 295197" width="58.061" height="2.135" transform="translate(59.371 91.281)" fill="#8a8a8a"/>
      <rect id="Rectángulo_295198" data-name="Rectángulo 295198" width="38.102" height="2.135" transform="translate(18.566 91.281)" fill="#8a8a8a"/>
      <rect id="Rectángulo_295199" data-name="Rectángulo 295199" width="9.378" height="2.135" transform="translate(122.329 78.913)" fill="#8a8a8a"/>
      <rect id="Rectángulo_295200" data-name="Rectángulo 295200" width="9.378" height="2.135" transform="translate(53.131 85.097)" fill="#8a8a8a"/>
      <rect id="Rectángulo_295201" data-name="Rectángulo 295201" width="9.378" height="2.135" transform="translate(111.044 54.41)" fill="#8a8a8a"/>
      <path id="Trazado_196555" data-name="Trazado 196555" d="M321.945,118.657a1.979,1.979,0,1,1-1.979-1.979A1.979,1.979,0,0,1,321.945,118.657Z" transform="translate(-200.426 -113.934)" fill="#946e06"/>
      <path id="Trazado_196556" data-name="Trazado 196556" d="M321.1,118.344a1.447,1.447,0,1,1-1.447-1.447A1.447,1.447,0,0,1,321.1,118.344Z" transform="translate(-200.114 -113.621)" fill="#ff4040"/>
      <path id="Trazado_196557" data-name="Trazado 196557" d="M324.843,118.657a1.979,1.979,0,1,1-1.979-1.979A1.979,1.979,0,0,1,324.843,118.657Z" transform="translate(-196.289 -113.934)" fill="#946e06"/>
      <path id="Trazado_196558" data-name="Trazado 196558" d="M324,118.344a1.447,1.447,0,1,1-1.447-1.447A1.447,1.447,0,0,1,324,118.344Z" transform="translate(-195.976 -113.621)" fill="#eb6511"/>
      <path id="Trazado_196559" data-name="Trazado 196559" d="M327.74,118.657a1.979,1.979,0,1,1-1.979-1.979A1.977,1.977,0,0,1,327.74,118.657Z" transform="translate(-192.152 -113.934)" fill="#946e06"/>
      <path id="Trazado_196560" data-name="Trazado 196560" d="M326.9,118.344a1.448,1.448,0,1,1-1.449-1.447A1.448,1.448,0,0,1,326.9,118.344Z" transform="translate(-191.84 -113.621)" fill="#f2b509"/>
      <rect id="Rectángulo_295202" data-name="Rectángulo 295202" width="10.439" height="105.358" transform="translate(57.82)" fill="#303030" opacity="0.2"/>
    </g>
    <g id="Grupo_140163" data-name="Grupo 140163" transform="translate(367.385 450.999)">
      <rect id="Rectángulo_295203" data-name="Rectángulo 295203" width="203.409" height="140.579" fill="#1b79b3"/>
      <rect id="Rectángulo_295204" data-name="Rectángulo 295204" width="5.564" height="5.564" transform="translate(156.962 4.967)" fill="#134c61"/>
      <rect id="Rectángulo_295205" data-name="Rectángulo 295205" width="5.564" height="5.564" transform="translate(167.727 4.967)" fill="#134c61"/>
      <rect id="Rectángulo_295206" data-name="Rectángulo 295206" width="5.564" height="5.564" transform="translate(178.165 4.967)" fill="#134c61"/>
      <rect id="Rectángulo_295207" data-name="Rectángulo 295207" width="198.752" height="2.268" transform="translate(2.328 1.361)" fill="#dbfaff"/>
      <rect id="Rectángulo_295208" data-name="Rectángulo 295208" width="198.752" height="123.211" transform="translate(2.328 14.444)" fill="#fff"/>
      <rect id="Rectángulo_295209" data-name="Rectángulo 295209" width="186.893" height="102.842" transform="translate(8.076 25.051)" fill="#1b79b3"/>
      <path id="Trazado_196561" data-name="Trazado 196561" d="M307.591,113.675l-1.383,1.383,2.509,2.509-2.509,2.509,1.383,1.383,3.892-3.892Z" transform="translate(-285.504 -84.792)" fill="#fff"/>
      <path id="Trazado_196562" data-name="Trazado 196562" d="M309.837,117.607l-1.383,1.383,2.509,2.509-2.509,2.509,1.383,1.383,3.892-3.892Z" transform="translate(-282.296 -79.178)" fill="#fff"/>
      <path id="Trazado_196563" data-name="Trazado 196563" d="M307.591,125.47l-1.383,1.383,2.509,2.509-2.509,2.509,1.383,1.383,3.892-3.892Z" transform="translate(-285.504 -67.952)" fill="#fff"/>
      <path id="Trazado_196564" data-name="Trazado 196564" d="M310.961,121.538l-1.383,1.383,2.509,2.509-2.509,2.509,1.383,1.383,3.892-3.892Z" transform="translate(-280.692 -73.565)" fill="#fff"/>
      <path id="Trazado_196565" data-name="Trazado 196565" d="M310.961,129.4l-1.383,1.383,2.509,2.509-2.509,2.509,1.383,1.383,3.892-3.892Z" transform="translate(-280.692 -62.338)" fill="#fff"/>
      <rect id="Rectángulo_295210" data-name="Rectángulo 295210" width="31.907" height="3.295" transform="translate(33.682 31.127)" fill="#fff"/>
      <rect id="Rectángulo_295211" data-name="Rectángulo 295211" width="31.907" height="3.295" transform="translate(89.56 31.127)" fill="#fff"/>
      <rect id="Rectángulo_295212" data-name="Rectángulo 295212" width="58.814" height="3.295" transform="translate(36.206 40.672)" fill="#fff"/>
      <rect id="Rectángulo_295213" data-name="Rectángulo 295213" width="58.814" height="3.295" transform="translate(98.192 40.672)" fill="#fff"/>
      <rect id="Rectángulo_295214" data-name="Rectángulo 295214" width="56.475" height="3.295" transform="translate(28.204 59.763)" fill="#fff"/>
      <rect id="Rectángulo_295215" data-name="Rectángulo 295215" width="89.622" height="3.295" transform="translate(37.977 50.217)" fill="#fff"/>
      <rect id="Rectángulo_295216" data-name="Rectángulo 295216" width="58.814" height="3.295" transform="translate(36.206 69.307)" fill="#fff"/>
      <rect id="Rectángulo_295217" data-name="Rectángulo 295217" width="14.476" height="3.295" transform="translate(69.521 31.127)" fill="#fff"/>
      <rect id="Rectángulo_295218" data-name="Rectángulo 295218" width="14.476" height="3.295" transform="translate(126.471 31.127)" fill="#fff"/>
      <rect id="Rectángulo_295219" data-name="Rectángulo 295219" width="14.476" height="3.295" transform="translate(89.56 59.763)" fill="#fff"/>
      <path id="Trazado_196566" data-name="Trazado 196566" d="M307.591,133.376l-1.383,1.383,2.509,2.509-2.509,2.509,1.383,1.383,3.892-3.892Z" transform="translate(-285.504 -56.665)" fill="#fff"/>
      <rect id="Rectángulo_295220" data-name="Rectángulo 295220" width="31.907" height="3.295" transform="translate(33.682 78.955)" fill="#fff"/>
      <rect id="Rectángulo_295221" data-name="Rectángulo 295221" width="31.907" height="3.295" transform="translate(89.56 78.955)" fill="#fff"/>
      <rect id="Rectángulo_295222" data-name="Rectángulo 295222" width="14.476" height="3.295" transform="translate(69.521 78.955)" fill="#fff"/>
      <rect id="Rectángulo_295223" data-name="Rectángulo 295223" width="14.476" height="3.295" transform="translate(126.471 78.955)" fill="#fff"/>
      <path id="Trazado_196567" data-name="Trazado 196567" d="M307.591,137.887l-1.383,1.383,2.509,2.509-2.509,2.509,1.383,1.383,3.892-3.892Z" transform="translate(-285.504 -50.224)" fill="#fff"/>
      <path id="Trazado_196568" data-name="Trazado 196568" d="M309.837,141.818l-1.383,1.383,2.509,2.509-2.509,2.509,1.383,1.383,3.892-3.892Z" transform="translate(-282.296 -44.61)" fill="#fff"/>
      <path id="Trazado_196569" data-name="Trazado 196569" d="M307.591,149.682l-1.383,1.383,2.509,2.509-2.509,2.509,1.383,1.383,3.892-3.892Z" transform="translate(-285.504 -33.383)" fill="#fff"/>
      <path id="Trazado_196570" data-name="Trazado 196570" d="M310.961,145.75l-1.383,1.383,2.509,2.509-2.509,2.509,1.383,1.383,3.892-3.892Z" transform="translate(-280.692 -38.997)" fill="#fff"/>
      <rect id="Rectángulo_295224" data-name="Rectángulo 295224" width="31.907" height="3.295" transform="translate(33.682 89.907)" fill="#fff"/>
      <rect id="Rectángulo_295225" data-name="Rectángulo 295225" width="31.907" height="3.295" transform="translate(89.56 89.907)" fill="#fff"/>
      <rect id="Rectángulo_295226" data-name="Rectángulo 295226" width="58.814" height="3.295" transform="translate(36.206 99.452)" fill="#fff"/>
      <rect id="Rectángulo_295227" data-name="Rectángulo 295227" width="58.814" height="3.295" transform="translate(98.192 99.452)" fill="#fff"/>
      <rect id="Rectángulo_295228" data-name="Rectángulo 295228" width="56.475" height="3.295" transform="translate(28.204 118.542)" fill="#fff"/>
      <rect id="Rectángulo_295229" data-name="Rectángulo 295229" width="89.622" height="3.295" transform="translate(37.977 108.997)" fill="#fff"/>
      <rect id="Rectángulo_295230" data-name="Rectángulo 295230" width="14.476" height="3.295" transform="translate(69.521 89.907)" fill="#fff"/>
      <rect id="Rectángulo_295231" data-name="Rectángulo 295231" width="14.476" height="3.295" transform="translate(160.629 99.452)" fill="#fff"/>
      <rect id="Rectángulo_295232" data-name="Rectángulo 295232" width="14.476" height="3.295" transform="translate(89.56 118.542)" fill="#fff"/>
    </g>
    <g id="Grupo_140164" data-name="Grupo 140164" transform="translate(444.537 608.954)">
      <path id="Trazado_196596" data-name="Trazado 196596" d="M0,0H155.463V116.764H0Z" fill="#084a93"/>
      <rect id="Rectángulo_295234" data-name="Rectángulo 295234" width="4.622" height="4.622" transform="translate(116.884 4.126)" fill="#b9ddfc"/>
      <rect id="Rectángulo_295235" data-name="Rectángulo 295235" width="4.622" height="4.622" transform="translate(125.826 4.126)" fill="#b9ddfc"/>
      <rect id="Rectángulo_295236" data-name="Rectángulo 295236" width="4.622" height="4.622" transform="translate(134.495 4.126)" fill="#b9ddfc"/>
      <rect id="Rectángulo_295237" data-name="Rectángulo 295237" width="151.594" height="1.884" transform="translate(1.934 1.13)" fill="#b9ddfc"/>
      <rect id="Rectángulo_295238" data-name="Rectángulo 295238" width="151.594" height="102.338" transform="translate(1.934 11.997)" fill="#fff"/>
      <rect id="Rectángulo_295239" data-name="Rectángulo 295239" width="151.512" height="102.325" transform="translate(1.935 11.997)" fill="#4a4a4a"/>
      <path id="Trazado_196571" data-name="Trazado 196571" d="M413.56,148.738a10.045,10.045,0,1,1-10.046-10.046A10.047,10.047,0,0,1,413.56,148.738Z" transform="translate(-292.593 -112.53)" fill="#333"/>
      <path id="Trazado_196572" data-name="Trazado 196572" d="M414.2,147.83a10.045,10.045,0,1,1-10.046-10.044A10.046,10.046,0,0,1,414.2,147.83Z" transform="translate(-291.685 -113.823)" fill="#949494"/>
      <circle id="Elipse_5279" data-name="Elipse 5279" cx="5.197" cy="5.197" r="5.197" transform="translate(109.627 25.814)" fill="#ababab"/>
      <path id="Trazado_196573" data-name="Trazado 196573" d="M390.7,141.3l.024-8.436-26.606,0c.621,9.08-4.423,13.469-11.4,15.642V175.33l3.671.015.051-13.073a27.909,27.909,0,0,0,8.64-3.549l9.216,9.289,8.932-8.866-9.216-9.286a27.851,27.851,0,0,0,3.615-8.614Z" transform="translate(-350.782 -120.861)" fill="#333"/>
      <path id="Trazado_196574" data-name="Trazado 196574" d="M365.931,149.094l-4.295,1.437,1.493,4.462a10.043,10.043,0,0,0-2.537,2.207l-4.212-2.1-2.022,4.054,4.212,2.1a10.066,10.066,0,0,0-.238,3.355L353.87,166.1l1.437,4.295,4.462-1.491a10.028,10.028,0,0,0,2.207,2.535l-2.1,4.215,4.052,2.02,2.1-4.212a10.057,10.057,0,0,0,3.353.238l1.493,4.462,4.295-1.435-1.493-4.462a10.043,10.043,0,0,0,2.537-2.207l4.212,2.1,2.022-4.052-4.212-2.1a10.052,10.052,0,0,0,.238-3.353l4.462-1.491-1.437-4.3-4.462,1.493a10.088,10.088,0,0,0-2.207-2.537l2.1-4.212-4.052-2.022-2.1,4.212a10.122,10.122,0,0,0-3.353-.238ZM372.653,161a5,5,0,0,1-3.792,7.6,4.947,4.947,0,0,1-4.71-2.35,5,5,0,0,1,3.792-7.6A4.947,4.947,0,0,1,372.653,161Z" transform="translate(-349.133 -97.678)" fill="#333"/>
      <path id="Trazado_196575" data-name="Trazado 196575" d="M383.058,134.795l-6.353,2.124,2.207,6.6a14.921,14.921,0,0,0-3.751,3.263l-6.232-3.107-2.991,5.994,6.232,3.11a14.865,14.865,0,0,0-.352,4.96l-6.6,2.207,2.124,6.353,6.6-2.207a14.845,14.845,0,0,0,3.265,3.751l-3.11,6.232,6,2.991,3.108-6.232a14.88,14.88,0,0,0,4.962.352l2.207,6.6,6.353-2.124-2.207-6.6a14.875,14.875,0,0,0,3.751-3.263l6.232,3.107,2.988-5.994-6.232-3.11a14.8,14.8,0,0,0,.352-4.96l6.6-2.207-2.124-6.353-6.6,2.207a14.79,14.79,0,0,0-3.263-3.751l3.107-6.232-5.994-2.991-3.107,6.232a14.865,14.865,0,0,0-4.96-.352ZM393,152.408a7.391,7.391,0,1,1-6.968-3.477A7.32,7.32,0,0,1,393,152.408Z" transform="translate(-332.932 -118.094)" fill="#333"/>
      <path id="Trazado_196576" data-name="Trazado 196576" d="M413.346,151.328l-8.2,2.743,2.848,8.519a19.161,19.161,0,0,0-4.841,4.215l-8.043-4.013-3.863,7.737,8.043,4.013a19.275,19.275,0,0,0-.454,6.4l-8.519,2.848,2.741,8.2,8.521-2.85a19.254,19.254,0,0,0,4.212,4.843l-4.013,8.043,7.74,3.86,4.013-8.043a19.2,19.2,0,0,0,6.4.454l2.848,8.519,8.2-2.741-2.848-8.521a19.194,19.194,0,0,0,4.841-4.212l8.043,4.013,3.86-7.737-8.043-4.013a19.211,19.211,0,0,0,.454-6.4l8.521-2.85-2.743-8.2L434.545,169a19.145,19.145,0,0,0-4.212-4.841l4.013-8.043-7.737-3.86L422.6,160.3a19.208,19.208,0,0,0-6.4-.454Zm12.833,22.733a9.553,9.553,0,0,1-7.24,14.515,9.456,9.456,0,0,1-8.995-4.489,9.552,9.552,0,0,1,7.24-14.513A9.454,9.454,0,0,1,426.179,174.061Z" transform="translate(-297.096 -94.489)" fill="#333"/>
      <path id="Trazado_196577" data-name="Trazado 196577" d="M392.272,139.306l.024-6.446-26.606,0A13.87,13.87,0,0,1,352.72,146.7l0-.027v26.661l5.244.022.051-13.076a27.926,27.926,0,0,0,8.64-3.547l9.213,9.286,8.932-8.864-9.213-9.286a27.875,27.875,0,0,0,3.612-8.614Z" transform="translate(-350.782 -120.859)" fill="#949494"/>
      <path id="Trazado_196578" data-name="Trazado 196578" d="M366.579,148.275l-4.295,1.437,1.491,4.462a10.027,10.027,0,0,0-2.535,2.207l-4.214-2.1L355,158.331l4.215,2.1a10.059,10.059,0,0,0-.238,3.353l-4.462,1.493,1.435,4.295,4.462-1.493a10.044,10.044,0,0,0,2.207,2.537l-2.1,4.212,4.052,2.022,2.1-4.212a10.052,10.052,0,0,0,3.353.238l1.491,4.462,4.3-1.437-1.493-4.462a10.038,10.038,0,0,0,2.537-2.207l4.212,2.1,2.022-4.052-4.215-2.1a9.993,9.993,0,0,0,.238-3.353l4.465-1.493-1.437-4.295-4.462,1.491A10.074,10.074,0,0,0,375.477,155l2.1-4.212-4.052-2.022-2.1,4.212a10.071,10.071,0,0,0-3.355-.238Zm6.722,11.906a5,5,0,1,1-4.712-2.35A5.005,5.005,0,0,1,373.3,160.181Z" transform="translate(-348.208 -98.848)" fill="#949494"/>
      <path id="Trazado_196579" data-name="Trazado 196579" d="M383.706,133.975l-6.353,2.124,2.207,6.6a14.846,14.846,0,0,0-3.751,3.265l-6.232-3.11-2.991,6,6.232,3.108a14.862,14.862,0,0,0-.352,4.96l-6.6,2.209,2.124,6.353,6.6-2.207a14.92,14.92,0,0,0,3.263,3.751l-3.107,6.232,5.994,2.991,3.11-6.232a14.865,14.865,0,0,0,4.96.352l2.207,6.6,6.353-2.124-2.207-6.6a14.888,14.888,0,0,0,3.751-3.265l6.232,3.11,2.991-6-6.232-3.108a14.866,14.866,0,0,0,.352-4.96l6.6-2.207-2.124-6.356-6.6,2.207a14.834,14.834,0,0,0-3.265-3.751l3.11-6.232-5.994-2.991-3.11,6.232a14.993,14.993,0,0,0-4.96-.352Zm9.944,17.613a7.4,7.4,0,0,1-5.61,11.245,7.32,7.32,0,0,1-6.968-3.477,7.4,7.4,0,0,1,5.611-11.245A7.325,7.325,0,0,1,393.65,151.588Z" transform="translate(-332.007 -119.264)" fill="#949494"/>
      <path id="Trazado_196580" data-name="Trazado 196580" d="M413.992,150.509l-8.2,2.741,2.85,8.521a19.253,19.253,0,0,0-4.843,4.212l-8.043-4.013-3.86,7.74,8.043,4.013a19.2,19.2,0,0,0-.454,6.4l-8.519,2.848,2.741,8.2,8.521-2.848a19.1,19.1,0,0,0,4.212,4.841l-4.013,8.045,7.74,3.858,4.013-8.043a19.134,19.134,0,0,0,6.4.454L423.429,206l8.2-2.743-2.85-8.519a19.166,19.166,0,0,0,4.843-4.215l8.043,4.013,3.86-7.737-8.045-4.013a19.077,19.077,0,0,0,.454-6.4l8.524-2.848-2.743-8.2-8.521,2.848a19.153,19.153,0,0,0-4.212-4.841l4.011-8.043-7.735-3.863-4.013,8.046a19.143,19.143,0,0,0-6.4-.454Zm12.835,22.733a9.551,9.551,0,0,1-7.242,14.513,9.448,9.448,0,0,1-8.992-4.486,9.55,9.55,0,0,1,7.24-14.513A9.454,9.454,0,0,1,426.827,173.242Z" transform="translate(-296.171 -95.658)" fill="#949494"/>
      <rect id="Rectángulo_295240" data-name="Rectángulo 295240" width="83.89" height="34.678" transform="translate(1.935 79.645)" fill="#828282"/>
      <path id="Trazado_196581" data-name="Trazado 196581" d="M363.881,195.4h-9.046l13.034-34.678h9.046Z" transform="translate(-347.755 -81.077)" fill="#ababab"/>
      <path id="Trazado_196582" data-name="Trazado 196582" d="M378.738,195.4H361.557l13.034-34.678h17.181Z" transform="translate(-338.157 -81.077)" fill="#ababab"/>
      <path id="Trazado_196583" data-name="Trazado 196583" d="M389.37,165.363a3.06,3.06,0,1,1-3.061-3.059A3.06,3.06,0,0,1,389.37,165.363Z" transform="translate(-307.186 -78.818)" fill="#1a1a1a"/>
      <path id="Trazado_196584" data-name="Trazado 196584" d="M389.37,174.292a3.06,3.06,0,1,1-3.061-3.059A3.061,3.061,0,0,1,389.37,174.292Z" transform="translate(-307.186 -66.07)" fill="#1a1a1a"/>
      <path id="Trazado_196585" data-name="Trazado 196585" d="M504.227,235.183h-6.565l-.349-96.084-144.6-.349v-5.892H504.227Z" transform="translate(-350.781 -120.86)" fill="#303030" opacity="0.3"/>
    </g>
    <g id="Grupo_140165" data-name="Grupo 140165" transform="translate(348.282 568.434)">
      <rect id="Rectángulo_295241" data-name="Rectángulo 295241" width="136.551" height="81.04" fill="#eb6511"/>
      <rect id="Rectángulo_295242" data-name="Rectángulo 295242" width="136.551" height="57.543" transform="translate(0 12.245)" fill="#ffb30b"/>
      <rect id="Rectángulo_295243" data-name="Rectángulo 295243" width="85.661" height="14.386" transform="translate(10.838 23.162)" fill="#fff"/>
      <rect id="Rectángulo_295244" data-name="Rectángulo 295244" width="14.225" height="14.386" transform="translate(10.838 23.162)" fill="#eb6511"/>
      <rect id="Rectángulo_295245" data-name="Rectángulo 295245" width="85.661" height="14.386" transform="translate(10.838 43.214)" fill="#fff"/>
      <rect id="Rectángulo_295246" data-name="Rectángulo 295246" width="14.225" height="14.386" transform="translate(10.838 43.214)" fill="#eb6511"/>
      <path id="Trazado_196586" data-name="Trazado 196586" d="M305.288,163.871a2.072,2.072,0,1,1-2.073-2.071A2.072,2.072,0,0,1,305.288,163.871Z" transform="translate(-273.631 -133.517)" fill="#3d2d02"/>
      <path id="Trazado_196587" data-name="Trazado 196587" d="M307.443,163.871a2.072,2.072,0,1,1-2.073-2.071A2.072,2.072,0,0,1,307.443,163.871Z" transform="translate(-270.554 -133.517)" fill="#3d2d02"/>
      <path id="Trazado_196588" data-name="Trazado 196588" d="M309.6,163.871a2.072,2.072,0,1,1-2.071-2.071A2.072,2.072,0,0,1,309.6,163.871Z" transform="translate(-267.479 -133.517)" fill="#3d2d02"/>
      <path id="Trazado_196589" data-name="Trazado 196589" d="M311.752,163.871a2.072,2.072,0,1,1-2.071-2.071A2.072,2.072,0,0,1,311.752,163.871Z" transform="translate(-264.402 -133.517)" fill="#3d2d02"/>
      <path id="Trazado_196590" data-name="Trazado 196590" d="M313.907,163.871a2.072,2.072,0,1,1-2.073-2.071A2.072,2.072,0,0,1,313.907,163.871Z" transform="translate(-261.326 -133.517)" fill="#3d2d02"/>
      <path id="Trazado_196591" data-name="Trazado 196591" d="M316.062,163.871a2.072,2.072,0,1,1-2.073-2.071A2.072,2.072,0,0,1,316.062,163.871Z" transform="translate(-258.249 -133.517)" fill="#3d2d02"/>
      <path id="Trazado_196592" data-name="Trazado 196592" d="M305.288,172.131a2.072,2.072,0,1,1-2.073-2.071A2.072,2.072,0,0,1,305.288,172.131Z" transform="translate(-273.631 -121.724)" fill="#3d2d02"/>
      <path id="Trazado_196593" data-name="Trazado 196593" d="M307.443,172.131a2.072,2.072,0,1,1-2.073-2.071A2.072,2.072,0,0,1,307.443,172.131Z" transform="translate(-270.554 -121.724)" fill="#3d2d02"/>
      <path id="Trazado_196594" data-name="Trazado 196594" d="M309.6,172.131a2.072,2.072,0,1,1-2.071-2.071A2.072,2.072,0,0,1,309.6,172.131Z" transform="translate(-267.479 -121.724)" fill="#3d2d02"/>
      <path id="Trazado_196595" data-name="Trazado 196595" d="M311.752,172.131a2.072,2.072,0,1,1-2.071-2.071A2.072,2.072,0,0,1,311.752,172.131Z" transform="translate(-264.402 -121.724)" fill="#3d2d02"/>
    </g>
  </g>
</svg>
