<svg xmlns="http://www.w3.org/2000/svg" width="400" height="400" viewBox="0 0 400 400">
  <g id="Grupo_140210" data-name="Grupo 140210" transform="translate(-180 -2159.39)">
    <g id="Grupo_132085" data-name="Grupo 132085" transform="translate(2705.361 1116.005)">
      <circle id="Elipse_5086" data-name="Elipse 5086" cx="200" cy="200" r="200" transform="translate(-2525.362 1043.385)" fill="#b9ddfc" opacity="0.57"/>
      <g id="Grupo_132084" data-name="Grupo 132084" transform="translate(-2440.362 1043.386)">
        <g id="Grupo_132056" data-name="Grupo 132056" transform="translate(87.066)">
          <g id="Grupo_132039" data-name="Grupo 132039" transform="translate(44.35)">
            <path id="Trazado_192015" data-name="Trazado 192015" d="M-2204.661,1176.082c-.454.02-.581-.3-.745-.54a22.29,22.29,0,0,0-6.926-6.183c-5.261-3.336-11.084-5.107-17.117-6.361-2.028-.422-4.038-.929-6.072-1.317a2.018,2.018,0,0,1-1.831-1.862,57.311,57.311,0,0,0-5.411-15.874,52.4,52.4,0,0,0-7.247-11.106,23.534,23.534,0,0,0-4.4-3.951,5.648,5.648,0,0,1-.618-.487c-.05-.044-.037-.159-.054-.252.212-.322.55-.213.832-.192a18.593,18.593,0,0,1,8.538,2.479,86.483,86.483,0,0,1,10.514,7.732,142.917,142.917,0,0,1,10.758,9.915,153.591,153.591,0,0,1,11.462,13.07c1.532,1.978,3.046,3.972,4.564,5.961a34.706,34.706,0,0,1,2.967,4.66,8.118,8.118,0,0,1,1.01,2.97A1.833,1.833,0,0,1-2204.661,1176.082Z" transform="translate(2314.361 -1077.429)" fill="#8e93c9"/>
            <path id="Trazado_192016" data-name="Trazado 192016" d="M-2272.143,1218.776h-19.421c-.441,0-.882,0-1.323-.007-1.652-.027-1.694-.088-1.465-1.781a99.311,99.311,0,0,0,.827-16.091,21.314,21.314,0,0,0-1.469-6.425c-1.562-4.45-3.227-8.864-4.8-13.311a219.743,219.743,0,0,1-7.32-23.193,48.824,48.824,0,0,1-1.4-11.921,12.009,12.009,0,0,1,4.9-10.078,19.181,19.181,0,0,1,5.239-2.783,85.4,85.4,0,0,1,17.714-4.231c3.9-.425,7.786-1.008,11.7-1.19a94.152,94.152,0,0,1,12.947-.167c1.491.135,2.992.139,4.488.229a10.473,10.473,0,0,1,5.772,2.385,23.435,23.435,0,0,1,6.4,7.662,56.124,56.124,0,0,1,6.358,19.641c.537,4.111.831,8.237,1.085,12.373.22,3.57.107,7.142.272,10.707.23,4.981.219,9.962.167,14.942a150.378,150.378,0,0,1-1.408,18.178c-.152,1.136-.268,2.275-.414,3.412s-.287,1.267-1.387,1.333c-.132.008-.265.006-.4.006C-2247.3,1218.47-2259.506,1218.989-2272.143,1218.776Z" transform="translate(2310.059 -1077.47)" fill="#abafd9"/>
            <g id="Grupo_132026" data-name="Grupo 132026" transform="translate(44.065 62.872)">
              <path id="Trazado_192017" data-name="Trazado 192017" d="M-2269.029,1139.379a.888.888,0,0,1,.409.582c2.625,8.269,5.2,16.551,7.012,25.034.9,4.217,1.56,8.465,2.08,12.743a161.505,161.505,0,0,1,1.39,20,46.166,46.166,0,0,1-.754,9.109,8.723,8.723,0,0,1-1.745,4.139,1.613,1.613,0,0,1-.766.61c-.391-.267-.153-.564-.078-.806a42.4,42.4,0,0,0,1.621-10.386,95.438,95.438,0,0,0-1.466-19.965c-1.706-10.911-4.07-21.7-6.17-32.542-.485-2.5-1.041-5-1.558-7.494C-2269.12,1140.083-2269.275,1139.759-2269.029,1139.379Z" transform="translate(2269.163 -1139.379)" fill="#8e93c9"/>
              <g id="Grupo_132025" data-name="Grupo 132025" transform="translate(2.044 42.85)">
                <path id="Trazado_192018" data-name="Trazado 192018" d="M-2264.9,1180.191a1.186,1.186,0,0,1-1.154,1.216,1.185,1.185,0,0,1-1.215-1.154,1.185,1.185,0,0,1,1.153-1.216A1.186,1.186,0,0,1-2264.9,1180.191Z" transform="translate(2267.271 -1179.037)" fill="#fff" fill-rule="evenodd"/>
                <path id="Trazado_192019" data-name="Trazado 192019" d="M-2264.857,1190.964a1.186,1.186,0,0,1-1.447-.847,1.186,1.186,0,0,1,.847-1.447,1.184,1.184,0,0,1,1.445.847A1.185,1.185,0,0,1-2264.857,1190.964Z" transform="translate(2267.346 -1178.264)" fill="#fff" fill-rule="evenodd"/>
                <path id="Trazado_192020" data-name="Trazado 192020" d="M-2264.43,1200.572a1.185,1.185,0,0,1-1.446-.847,1.184,1.184,0,0,1,.846-1.446,1.185,1.185,0,0,1,1.447.846A1.185,1.185,0,0,1-2264.43,1200.572Z" transform="translate(2267.381 -1177.491)" fill="#fff" fill-rule="evenodd"/>
              </g>
            </g>
            <g id="Grupo_132036" data-name="Grupo 132036" transform="translate(15.881)">
              <g id="Grupo_132034" data-name="Grupo 132034">
                <path id="Trazado_192021" data-name="Trazado 192021" d="M-2252.6,1104.773a3.326,3.326,0,0,1-.65,1.922c-1.9,2.928-1.7,2.2-.857,5.715a29.722,29.722,0,0,1,.859,5.01,11.919,11.919,0,0,1-.419,4.075,3.9,3.9,0,0,1-3.311,2.98,34.5,34.5,0,0,1-6.152.479c-1.7-.02-1.736.063-1.452,1.7.407,2.35.935,4.674,1.432,7.005.205.957.093,1.157-.882,1.323-5.618.959-11.142,2.376-16.751,3.37-.12.022-.239.047-.359.063-.964.129-1.1.053-1.315-.934-.259-1.183-.475-2.376-.712-3.566-.877-4.4-1.88-8.769-2.646-13.19a4.719,4.719,0,0,1,.08-2.149,48.477,48.477,0,0,0,1.514-10.53,35.594,35.594,0,0,1,2.776-12.716,18.236,18.236,0,0,1,8.051-8.917c2.457-1.34,6.983-3.927,10.5-.074,2.6,2.848,3.175,5.569,3.953,8.877a10.746,10.746,0,0,0,3.767,6.045,18.765,18.765,0,0,1,1.824,1.771A2.494,2.494,0,0,1-2252.6,1104.773Z" transform="translate(2296 -1080.939)" fill="#f4c7a5"/>
                <path id="Trazado_192022" data-name="Trazado 192022" d="M-2266.438,1081.2c.4,0,.809-.022,1.211,0,1.428.089,2.232.787,2.053,2.635a3.744,3.744,0,0,1-1.144,2.226,6.557,6.557,0,0,1-3.4,1.993,2.272,2.272,0,0,0-1.916,1.756,11.172,11.172,0,0,1-.584,1.461,5,5,0,0,1-3.772,2.917,18.726,18.726,0,0,1-2.529.247c-1.319.087-1.808.6-1.819,1.914a29.554,29.554,0,0,0,.651,5.523,28.037,28.037,0,0,1,.434,8.794,14.916,14.916,0,0,1-4.1,7.95,16.423,16.423,0,0,1-2.857,2.611c-.648.449-.858.377-1.194-.33a.762.762,0,0,1-.042-.114c-1.207-4.359-3.835-7.986-6.081-11.809a28.3,28.3,0,0,1-3.4-8.251c-1.111-5.032.772-8.834,4.782-11.772a28.762,28.762,0,0,1,7.507-3.885,84.452,84.452,0,0,1,14.036-3.718A12.059,12.059,0,0,1-2266.438,1081.2Z" transform="translate(2295.248 -1081.191)" fill="#142459"/>
                <g id="Grupo_132030" data-name="Grupo 132030" transform="translate(13.336 13.396)">
                  <g id="Grupo_132027" data-name="Grupo 132027" transform="translate(2.642)">
                    <path id="Trazado_192023" data-name="Trazado 192023" d="M-2266.083,1103.481c-2.175-.46-3.317-4.062-3.707-5.589a.624.624,0,0,1,.29-.7,35.417,35.417,0,0,1,6.752-2.884c.791-.254,1.6-.489,2.4-.7a.632.632,0,0,1,.478.064.634.634,0,0,1,.292.385c.623,2.4,1.145,5.378-.4,7.142a10.164,10.164,0,0,1-3.689,1.956h0A5.042,5.042,0,0,1-2266.083,1103.481Zm3.718-7.974a34.837,34.837,0,0,0-6.087,2.534c.676,2.38,1.688,4.014,2.628,4.213a3.838,3.838,0,0,0,1.771-.293,9.443,9.443,0,0,0,3.128-1.589c1.043-1.193.751-3.415.282-5.381C-2261.22,1095.152-2261.8,1095.324-2262.365,1095.507Z" transform="translate(2281.318 -1093.589)" fill="#fff"/>
                    <path id="Trazado_192024" data-name="Trazado 192024" d="M-2259.932,1093.838c.117.34.251.672.4,1a203.145,203.145,0,0,0-20.856,8.3c-.148-.432-.234-1.173,1.556-2.024C-2273.851,1098.845-2267.659,1096.477-2259.932,1093.838Z" transform="translate(2280.46 -1093.569)" fill="#fff"/>
                  </g>
                  <g id="Grupo_132029" data-name="Grupo 132029" transform="translate(0 8.659)">
                    <path id="Trazado_192025" data-name="Trazado 192025" d="M-2282.844,1106.232c.254,2,3.136,6.271,5.341,5.694,1.656-.432,1.072-4.472.818-6.474a10.178,10.178,0,0,0-1.508-3.849c-1.524.642-2.409.9-3.113,1.278C-2282.9,1103.739-2283.02,1104.84-2282.844,1106.232Z" transform="translate(2282.905 -1101.603)" fill="#f4c7a5" fill-rule="evenodd"/>
                    <g id="Grupo_132028" data-name="Grupo 132028" transform="translate(2.39 2.529)">
                      <path id="Trazado_192026" data-name="Trazado 192026" d="M-2276.484,1108.26a.526.526,0,0,0,.121-.032.49.49,0,0,0,.278-.636,5.437,5.437,0,0,0-4.025-3.638.491.491,0,0,0-.575.39.493.493,0,0,0,.394.573,4.5,4.5,0,0,1,3.291,3.033A.494.494,0,0,0-2276.484,1108.26Z" transform="translate(2280.693 -1103.944)" fill="#d19c79"/>
                      <path id="Trazado_192027" data-name="Trazado 192027" d="M-2279.778,1108.662a.49.49,0,0,0,.426-.489,2.783,2.783,0,0,1,1.464-2.346.487.487,0,0,0,.149-.677.485.485,0,0,0-.673-.155,3.712,3.712,0,0,0-1.92,3.18.493.493,0,0,0,.493.49Z" transform="translate(2280.721 -1103.865)" fill="#d19c79"/>
                    </g>
                  </g>
                </g>
                <g id="Grupo_132033" data-name="Grupo 132033" transform="translate(21.164 11.611)">
                  <g id="Grupo_132031" data-name="Grupo 132031" transform="translate(18.908 13.331)">
                    <path id="Trazado_192028" data-name="Trazado 192028" d="M-2256.441,1104.386a2.413,2.413,0,0,1-1.46.93.385.385,0,0,0-.242.477.372.372,0,0,0,.412.253.255.255,0,0,0,.063-.012,1.82,1.82,0,0,0,1.146-.9,1.818,1.818,0,0,0,.162-.86C-2256.387,1104.312-2256.416,1104.349-2256.441,1104.386Z" transform="translate(2258.161 -1104.275)" fill="#d19c79"/>
                  </g>
                  <g id="Grupo_132032" data-name="Grupo 132032" transform="translate(6.449)">
                    <path id="Trazado_192029" data-name="Trazado 192029" d="M-2262.342,1092.126c.241.476-2.192,1.417-4.019,2.34s-3.061,1.9-3.3,1.429.956-1.925,2.779-2.855S-2262.579,1091.65-2262.342,1092.126Z" transform="translate(2269.691 -1091.937)" fill="#142459" fill-rule="evenodd"/>
                    <path id="Trazado_192030" data-name="Trazado 192030" d="M-2262.835,1097.683a1.545,1.545,0,0,1-.556,2.056c-.648.246-1.448-.279-1.789-1.159a1.544,1.544,0,0,1,.562-2.052c.646-.251,1.447.268,1.784,1.155" transform="translate(2270.042 -1091.573)" fill="#142459" fill-rule="evenodd"/>
                  </g>
                  <path id="Trazado_192031" data-name="Trazado 192031" d="M-2255.854,1111.5a3.783,3.783,0,0,1-2.394.138,2.708,2.708,0,0,1-1.7-1.6.55.55,0,0,0-.691-.286.329.329,0,0,0-.044.017.554.554,0,0,0-.269.733,3.8,3.8,0,0,0,2.391,2.2,4.619,4.619,0,0,0,2.929-.115Z" transform="translate(2276.84 -1090.506)" fill="#d19c79"/>
                  <path id="Trazado_192032" data-name="Trazado 192032" d="M-2265.131,1122.179c-1.835.276-10.529-1.384-10.529-1.384s3.782,6.38,11.161,7.425Z" transform="translate(2275.66 -1089.614)" fill="#ddb18f"/>
                </g>
              </g>
              <g id="Grupo_132035" data-name="Grupo 132035" transform="translate(8.231 46.332)">
                <path id="Trazado_192033" data-name="Trazado 192033" d="M-2271.452,1130.88c-1.715,2.572,5,9.489,6.445,9.241.946-.161,3.718-6.6,4.876-9.042.484-1.026,1.146-2.376.739-3.584-.4-1.188-2.773-2.621-3.743-3.238s-1.942.424-2.9,1.262C-2266.653,1126.065-2270.6,1129.8-2271.452,1130.88Z" transform="translate(2288.91 -1124.072)" fill="#fff" fill-rule="evenodd"/>
                <path id="Trazado_192034" data-name="Trazado 192034" d="M-2270.9,1130.826c2.628,1.628-.607,10.709-2.026,11.085-.927.244-10.468-5.479-12.535-7.216-.866-.733-2.031-1.682-2.162-2.952-.131-1.249,1.434-3.538,2.063-4.5s1.939-.42,3.155-.053C-2281.612,1127.424-2272.122,1130.2-2270.9,1130.826Z" transform="translate(2287.63 -1123.86)" fill="#fff" fill-rule="evenodd"/>
                <path id="Trazado_192035" data-name="Trazado 192035" d="M-2263.5,1161.932c-2.028-1.7-6.507-6.688-6.729-7.455-.372-1.27-.208-16.69-.452-17.148-.315-.593-1.42-.647-1.708-1.175-.322-.6.418-4.2.77-4.611a.7.7,0,0,1,.263-.134h0a.325.325,0,0,1,.034-.009l.033-.011v0a.741.741,0,0,1,.293-.02c.507.176,2.989,2.9,3.011,3.573.023.6-.9,1.211-.869,1.882.025.518,8.026,13.7,8.355,14.983.2.773-1.105,7.349-1.987,9.843A.77.77,0,0,1-2263.5,1161.932Z" transform="translate(2288.851 -1123.485)" fill="#00defc"/>
              </g>
            </g>
            <g id="Grupo_132037" data-name="Grupo 132037" transform="translate(0 58.325)">
              <path id="Trazado_192036" data-name="Trazado 192036" d="M-2270.822,1186.874c-1.886.251-5-1.024-7.963-2.8a91.686,91.686,0,0,1-14.33-10.83,69.676,69.676,0,0,1-13.762-16.991,20.33,20.33,0,0,1-3.016-8.537,13.246,13.246,0,0,1,3-10c2.063-2.408,4.852-2.89,7.851-2.34a21.087,21.087,0,0,1,6.564,2.735,58.615,58.615,0,0,1,9.73,7.056c6.087,5.373,19.243,19.331,19.865,20.074,0,0,10.2-.058,14.473-.089a5.09,5.09,0,0,1,3.063.989c4.935,3.409,9.795,6.922,14.657,10.432,1.394,1.006,2.844,1.934,4.262,2.908.281.192.7.334.66.748-.05.488-.535.529-.9.64a91.42,91.42,0,0,1-11.059,2.629c-5.433.926-10.9,1.612-16.38,2.167C-2259.107,1186.17-2264.125,1186.39-2270.822,1186.874Z" transform="translate(2309.945 -1135.171)" fill="#8e93c9"/>
              <path id="Trazado_192037" data-name="Trazado 192037" d="M-2275.15,1180.723a5.554,5.554,0,0,0,3.488-.124c.092-.037.188-.064.277-.107.2-.1.478-.156.495-.426.017-.3-.273-.333-.48-.416-1.224-.492-2.455-.969-3.675-1.471-.885-.363-1.757-.757-2.636-1.134-.212-.091-.443-.219-.657-.067-.269.191-.17.476-.088.725A4.407,4.407,0,0,0-2275.15,1180.723Z" transform="translate(2312.476 -1131.812)" fill="#fff"/>
            </g>
            <g id="Grupo_132038" data-name="Grupo 132038" transform="translate(47.063 80.704)">
              <path id="Trazado_192038" data-name="Trazado 192038" d="M-2207.046,1168.456a20.178,20.178,0,0,0-7.886-5.424,75.674,75.674,0,0,0-29.071-6.043,53.564,53.564,0,0,0-6.092.258c-.493,3.084-.983,6.169-1.517,9.244,3.809,2.444,7.775,4.609,11.718,6.819,4.192,2.349,8.32,4.819,12.658,6.9a30.366,30.366,0,0,0,9.686,3,13.243,13.243,0,0,0,9.958-2.659,7.276,7.276,0,0,0,2.823-4.773A8.678,8.678,0,0,0-2207.046,1168.456Z" transform="translate(2267.577 -1155.794)" fill="#c1c3e4"/>
              <path id="Trazado_192039" data-name="Trazado 192039" d="M-2250.423,1166.472l1.517-9.244s-10.212,0-17.482,6.238Z" transform="translate(2266.388 -1155.775)" fill="#f4c7a5"/>
              <path id="Trazado_192040" data-name="Trazado 192040" d="M-2248.928,1156.435a1.847,1.847,0,0,0-1.317,1.139,7,7,0,0,0-.32,1.076,77.165,77.165,0,0,0-1.186,8.49c-.123,1.87.172,2.258,2,2.8a8.747,8.747,0,0,0,2.2.441,2.138,2.138,0,0,0,2.444-1.654,12.778,12.778,0,0,0,.411-1.635q.954-4.684,1.893-9.372c.308-1.526-.015-1.925-1.517-1.82q-1.752.123-3.5.315A9.722,9.722,0,0,0-2248.928,1156.435Z" transform="translate(2267.564 -1155.883)" fill="#fff"/>
            </g>
          </g>
          <g id="Grupo_132055" data-name="Grupo 132055" transform="translate(0 136.401)">
            <g id="Grupo_132052" data-name="Grupo 132052" transform="translate(0 1.846)">
              <g id="Grupo_132043" data-name="Grupo 132043" transform="translate(128.481 209.468)">
                <g id="Grupo_132040" data-name="Grupo 132040">
                  <path id="Trazado_192041" data-name="Trazado 192041" d="M-2232.081,1405.822l15.511-2.819,5.223,19.053-18.8,3.109Z" transform="translate(2232.081 -1403.003)" fill="#00defc" fill-rule="evenodd"/>
                  <path id="Trazado_192042" data-name="Trazado 192042" d="M-2215.095,1407.6c-6.341,5.414-16.57,2.039-16.57,2.039Z" transform="translate(2232.115 -1402.633)" fill="#084a93" fill-rule="evenodd"/>
                </g>
                <g id="Grupo_132042" data-name="Grupo 132042" transform="translate(0.618 9.281)">
                  <path id="Trazado_192043" data-name="Trazado 192043" d="M-2213.664,1411.592c-.737.167-3.376.539-4.192,1.661-.848,1.16-.316,2.744-.044,4.835-5.02.591-7.143-4.106-13.609-1.976a105,105,0,0,0,1.956,16.939c13.363-1.928,27.148-4.447,40.676-6.6a12.434,12.434,0,0,0-1.759-3.33c-2.094-2.6-5.02-3.552-8.276-4.063-4.388-.69-9.469-1.149-12.407-4.228A25.673,25.673,0,0,1-2213.664,1411.592Z" transform="translate(2231.509 -1411.592)" fill="#fff" fill-rule="evenodd"/>
                  <g id="Grupo_132041" data-name="Grupo 132041" transform="translate(16.13 3.362)">
                    <path id="Trazado_192044" data-name="Trazado 192044" d="M-2216.426,1417.817c.467.709,2.146-.506,3.493-.957.792-.261,2.747-.515,2.774-1.283.046-1.379-2.865-.839-4.046-.321C-2215.35,1415.759-2217.115,1416.768-2216.426,1417.817Z" transform="translate(2216.581 -1414.703)" fill="#112f80" fill-rule="evenodd"/>
                    <path id="Trazado_192045" data-name="Trazado 192045" d="M-2214.133,1420.33c.845.823,2.6-.6,3.915-1.13.7-.279,1.485-.51,2.176-.724.656-.2,1.912-.325,1.783-.9-.279-1.223-2.324-.983-3.721-.59C-2211.744,1417.486-2215.393,1419.107-2214.133,1420.33Z" transform="translate(2216.757 -1414.545)" fill="#112f80" fill-rule="evenodd"/>
                  </g>
                  <path id="Trazado_192046" data-name="Trazado 192046" d="M-2204.578,1417.94c1.3.228,2.607.4,3.862.6,3.255.511,6.182,1.464,8.275,4.063a12.431,12.431,0,0,1,1.759,3.33c-6.076.969-12.206,2.013-18.323,3.038A11.906,11.906,0,0,1-2204.578,1417.94Z" transform="translate(2233.314 -1411.081)" fill="#112f80"/>
                  <path id="Trazado_192047" data-name="Trazado 192047" d="M-2221.362,1431.024c-2.751.432-5.5.856-8.217,1.248-.647-3.748-1.253-7.467-1.615-11.007A13.686,13.686,0,0,1-2221.362,1431.024Z" transform="translate(2231.534 -1410.813)" fill="#112f80"/>
                </g>
              </g>
              <g id="Grupo_132047" data-name="Grupo 132047" transform="translate(0 194.429)">
                <g id="Grupo_132044" data-name="Grupo 132044" transform="translate(5.664)">
                  <path id="Trazado_192048" data-name="Trazado 192048" d="M-2333.308,1389.084l12.885,9.085-9.925,17.082-15.4-11.23Z" transform="translate(2345.749 -1389.084)" fill="#00defc" fill-rule="evenodd"/>
                  <path id="Trazado_192049" data-name="Trazado 192049" d="M-2323.43,1401.747a15.771,15.771,0,0,1-13.835-9.2Z" transform="translate(2346.432 -1388.806)" fill="#084a93" fill-rule="evenodd"/>
                </g>
                <g id="Grupo_132046" data-name="Grupo 132046" transform="translate(0 8.14)">
                  <path id="Trazado_192050" data-name="Trazado 192050" d="M-2324.549,1406.174c-.636-.407-2.752-2.029-4.124-1.824-1.422.207-2.177,1.7-3.479,3.357-3.941-3.165-2.08-7.972-8.13-11.089a104.752,104.752,0,0,0-10.708,13.27c10.742,8.178,22.2,16.242,33.225,24.377a12.424,12.424,0,0,0,1.141-3.589c.385-3.315-.986-6.069-2.9-8.75-2.584-3.612-5.818-7.558-5.683-11.811A25.475,25.475,0,0,1-2324.549,1406.174Z" transform="translate(2350.991 -1396.618)" fill="#fff" fill-rule="evenodd"/>
                  <g id="Grupo_132045" data-name="Grupo 132045" transform="translate(20.556 12.237)">
                    <path id="Trazado_192051" data-name="Trazado 192051" d="M-2331.805,1408.69c-.177.83,1.865,1.176,3.132,1.819.743.381,2.293,1.6,2.86,1.079,1.014-.934-1.411-2.631-2.608-3.11C-2329.582,1408.013-2331.54,1407.462-2331.805,1408.69Z" transform="translate(2331.978 -1407.943)" fill="#112f80" fill-rule="evenodd"/>
                    <path id="Trazado_192052" data-name="Trazado 192052" d="M-2331.966,1412.058c.006,1.18,2.25,1.429,3.551,2,.686.3,1.4.7,2.041,1.044.6.33,1.573,1.137,1.891.642.677-1.056-.928-2.347-2.188-3.066C-2328.263,1411.768-2331.978,1410.3-2331.966,1412.058Z" transform="translate(2331.966 -1407.678)" fill="#112f80" fill-rule="evenodd"/>
                  </g>
                  <path id="Trazado_192053" data-name="Trazado 192053" d="M-2323.163,1417.107c.749,1.086,1.54,2.142,2.276,3.176,1.918,2.681,3.289,5.435,2.9,8.75a12.422,12.422,0,0,1-1.141,3.589c-4.951-3.653-9.992-7.293-15.012-10.937A11.908,11.908,0,0,1-2323.163,1417.107Z" transform="translate(2352.348 -1394.976)" fill="#112f80"/>
                  <path id="Trazado_192054" data-name="Trazado 192054" d="M-2344.342,1414.544c-2.236-1.658-4.462-3.318-6.649-4.984,2.219-3.089,4.446-6.129,6.716-8.87A13.687,13.687,0,0,1-2344.342,1414.544Z" transform="translate(2350.991 -1396.29)" fill="#112f80"/>
                </g>
              </g>
              <g id="Grupo_132051" data-name="Grupo 132051" transform="translate(12.037)">
                <path id="Trazado_192055" data-name="Trazado 192055" d="M-2251.8,1283.683c-.307,3-.624,5.965-.913,8.936-1.253,12.851-3.019,25.615-6.327,38.127a106.46,106.46,0,0,1-12.264,27.761,209.726,209.726,0,0,1-18.676,25.9q-10.425,12.5-20.886,24.971c-2.538,3.027-5.107,6.029-7.679,9.027-.957,1.115-1.013,1.123-2.194.266-5.546-4.03-11.291-7.763-17.061-11.46-.294-.189-.586-.384-.875-.58-1.4-.95-1.407-1.029-.751-2.539a195.358,195.358,0,0,1,15.143-27.93c5.985-9.3,12.228-18.416,18.462-27.544,3.018-4.418,6.021-8.853,8.623-13.538a64.069,64.069,0,0,0,4.438-9.834c1.418-4.029,1.586-8.211,1.585-12.432,0-6-.257-12-.472-17.995-.437-12.2-.213-24.4-.153-36.6,0-.5.077-1,.111-1.494a16.549,16.549,0,0,0-.524-6.224,60.46,60.46,0,0,1-2.894-18.752,60.934,60.934,0,0,1,2.907-18.6,2.375,2.375,0,0,1,2.413-1.914q9.942-.8,19.905-1.191c4.35-.164,8.7-.107,13.045-.308,4.6-.213,9.2-.1,13.8-.285,3.348-.138,6.7-.205,10.045-.29,1.791-.045,1.83-.079,2.312,1.721q1.9,7.1,3.73,14.219c5.171,20.255,9.718,40.655,13.975,61.118,2.148,10.327,4.074,20.7,6.008,31.072a80.971,80.971,0,0,1,1.358,14.166c.05,5.753.491,11.485.8,17.224.038.7.043,1.4.058,2.1.116,5.6.29,11.2.433,16.8.15,5.851.027,11.7.238,17.55.182,5.049.152,10.1.35,15.146.15,3.85.134,7.7.255,11.547.1,3.146.309,6.29.469,9.434.018.35.041.7.044,1.049.011,1.346-.056,1.467-1.363,1.641q-6.763.9-13.533,1.756c-2.281.289-4.567.537-6.85.8-.2.024-.4.053-.6.069-1.619.136-1.8.037-2.221-1.508-.814-2.991-1.644-5.979-2.379-8.991-2.232-9.131-4.481-18.26-6.266-27.492a119.316,119.316,0,0,1-1.7-13.834c-1.037-13.932-.8-27.884-.893-41.834a87.119,87.119,0,0,0-2.107-18.894,84.246,84.246,0,0,0-3.723-11.4C-2246.927,1296.546-2251.448,1283.828-2251.8,1283.683Z" transform="translate(2339.85 -1209.14)" fill="#112f80"/>
                <g id="Grupo_132050" data-name="Grupo 132050" transform="translate(0 1.715)">
                  <g id="Grupo_132049" data-name="Grupo 132049">
                    <path id="Trazado_192056" data-name="Trazado 192056" d="M-2234.161,1369.526c-.376-7.137-.712-14.275-1.232-21.4-.448-6.13-.7-12.272-1.184-18.4a132.471,132.471,0,0,0-4.945-26.792c-2.45-8.4-4.931-16.781-7.081-25.268a227.965,227.965,0,0,1-6.08-35.429c-.038-.428.047-.911-.428-1.279a1.135,1.135,0,0,0-.279.786c-.661,5-1.048,10.038-1.465,15.067-.251,3.037-.457,6.079-.725,9.115a149.236,149.236,0,0,0-.817,15.578c.012-.124.025-.249.038-.374.355.145,4.876,12.862,7.208,18.93a84.075,84.075,0,0,1,3.723,11.4,87.1,87.1,0,0,1,2.107,18.894c.091,13.949-.145,27.9.893,41.834a119.313,119.313,0,0,0,1.7,13.834c1.785,9.232,4.033,18.361,6.265,27.492.736,3.011,1.566,6,2.38,8.991.419,1.544.6,1.645,2.221,1.508.2-.016.4-.046.6-.069,1.454-.17,2.91-.335,4.365-.506a319.311,319.311,0,0,1-5.469-31.64C-2233.282,1384.4-2233.77,1376.96-2234.161,1369.526Z" transform="translate(2346.406 -1208.294)" fill="#142459"/>
                    <path id="Trazado_192057" data-name="Trazado 192057" d="M-2300.238,1355.77c4.695-6.294,9.412-12.561,13.126-19.528a38.036,38.036,0,0,0,4.233-19.114c-.161-7.244-.838-14.468-1.307-21.7-.411-6.337-.448-12.69-.577-19.038-.067-3.3.144-6.6.242-9.9.023-.749.1-1.5.157-2.242.228-3.241.468-6.481.68-9.722a38.907,38.907,0,0,0-1.255-11.287,68.582,68.582,0,0,1-1.391-24.865,51.644,51.644,0,0,1,1.442-7.652q-2.45.173-4.9.372a2.376,2.376,0,0,0-2.413,1.914,60.938,60.938,0,0,0-2.907,18.6,60.461,60.461,0,0,0,2.894,18.752,16.549,16.549,0,0,1,.524,6.224c-.033.5-.109,1-.111,1.494-.06,12.2-.284,24.4.153,36.6.215,5.995.471,11.991.472,17.995,0,4.221-.167,8.4-1.585,12.432a64.077,64.077,0,0,1-4.438,9.835c-2.6,4.685-5.6,9.119-8.623,13.537-6.234,9.128-12.478,18.248-18.462,27.544a195.371,195.371,0,0,0-15.143,27.93c-.656,1.511-.647,1.589.751,2.539.289.2.581.391.875.58.615.393,1.226.791,1.84,1.185a225.715,225.715,0,0,1,17.265-27.7C-2312.676,1372.2-2306.4,1364.029-2300.238,1355.77Z" transform="translate(2339.85 -1210.727)" fill="#142459"/>
                    <g id="Grupo_132048" data-name="Grupo 132048" transform="translate(62.009 7.079)">
                      <path id="Trazado_192058" data-name="Trazado 192058" d="M-2282.461,1239.2c4.777-2.6,12.032-12.9,14.586-20.658a32.2,32.2,0,0,1-2.616,12.646,13.442,13.442,0,0,1-9.682,7.979A4.334,4.334,0,0,1-2282.461,1239.2Z" transform="translate(2282.461 -1217.177)" fill="#142459"/>
                      <path id="Trazado_192059" data-name="Trazado 192059" d="M-2232.538,1237.693c-4.125-2.244-10.391-11.143-12.6-17.841a27.825,27.825,0,0,0,2.259,10.922,11.615,11.615,0,0,0,8.362,6.892A3.744,3.744,0,0,0-2232.538,1237.693Z" transform="translate(2285.465 -1217.072)" fill="#142459"/>
                      <path id="Trazado_192060" data-name="Trazado 192060" d="M-2255.086,1217.279s.782,20.743-3.074,23.343c0,0,3.324.421,4.012-2.293C-2253.21,1234.63-2255.086,1217.279-2255.086,1217.279Z" transform="translate(2284.417 -1217.279)" fill="#142459"/>
                    </g>
                  </g>
                  <path id="Trazado_192061" data-name="Trazado 192061" d="M-2225.033,1316a7.792,7.792,0,0,1,.212-4.895c.052-.129.092-.264.152-.388.141-.285.224-.67.6-.689.419-.021.465.388.578.677.677,1.724,1.336,3.457,2.026,5.176.5,1.246,1.045,2.475,1.564,3.714.125.3.3.625.089.924-.272.375-.672.232-1.02.114A6.19,6.19,0,0,1-2225.033,1316Z" transform="translate(2349.069 -1202.734)" fill="#142459"/>
                  <path id="Trazado_192062" data-name="Trazado 192062" d="M-2277.126,1326.341a7.8,7.8,0,0,1,2.749-4.055c.113-.083.217-.177.334-.251.269-.169.542-.452.876-.269.368.2.191.574.136.88-.328,1.824-.677,3.643-.992,5.469-.228,1.324-.41,2.655-.618,3.982-.05.32-.07.692-.411.832-.427.177-.694-.155-.928-.437A6.191,6.191,0,0,1-2277.126,1326.341Z" transform="translate(2344.871 -1201.794)" fill="#142459"/>
                </g>
              </g>
            </g>
            <g id="Grupo_132054" data-name="Grupo 132054" transform="translate(60.023)">
              <path id="Trazado_192063" data-name="Trazado 192063" d="M-2295.44,1213.329a1.72,1.72,0,0,0,1.771,1.662h58.686a1.717,1.717,0,0,0,1.769-1.662v-3.509a1.717,1.717,0,0,0-1.769-1.663h-58.686a1.72,1.72,0,0,0-1.771,1.663Z" transform="translate(2295.44 -1207.373)" fill="#00defc" fill-rule="evenodd"/>
              <g id="Grupo_132053" data-name="Grupo 132053" transform="translate(29.989)">
                <path id="Trazado_192064" data-name="Trazado 192064" d="M-2255.507,1214.91a1.061,1.061,0,0,0,1.079,1.044,1.065,1.065,0,0,0,1.045-1.081l-.109-6.4a1.059,1.059,0,0,0-1.077-1.044,1.063,1.063,0,0,0-1.046,1.082Z" transform="translate(2268.656 -1207.431)" fill="#fff" fill-rule="evenodd"/>
                <path id="Trazado_192065" data-name="Trazado 192065" d="M-2267.576,1215.067a1.064,1.064,0,0,0,1.081,1.046,1.063,1.063,0,0,0,1.043-1.079l-.109-6.4a1.057,1.057,0,0,0-1.078-1.042,1.064,1.064,0,0,0-1.045,1.077Z" transform="translate(2267.685 -1207.418)" fill="#fff" fill-rule="evenodd"/>
                <path id="Trazado_192066" data-name="Trazado 192066" d="M-2264.366,1208.395c0,.01,0,.018,0,.029l0,0,0,.022.095,5.906a.764.764,0,0,0,.016.106.891.891,0,0,0-.026.215.967.967,0,0,0,.951.981l5.767.014a.97.97,0,0,0,.962-.977c0-.01,0-.014-.005-.027a.748.748,0,0,0,.03-.236l-.1-5.914a.217.217,0,0,1,0-.044c0-.013,0-.022,0-.031a.968.968,0,0,0-.955-.981l-5.771-.014a.957.957,0,0,0-.941.791.787.787,0,0,0-.017.157m2.045,5.3-.023-1.281,3.767.012.023,1.279Zm3.694-4.278.02,1.046-3.768-.007-.016-1.047Z" transform="translate(2267.952 -1207.43)" fill="#fff" fill-rule="evenodd"/>
              </g>
            </g>
          </g>
        </g>
        <g id="Grupo_132083" data-name="Grupo 132083" transform="translate(0 13.357)">
          <g id="Grupo_132057" data-name="Grupo 132057" transform="translate(6.018 217.666)">
            <path id="Trazado_192067" data-name="Trazado 192067" d="M-2379.268,1340.027a124.609,124.609,0,0,1-1.018,14.6q-.687,6.241-1.388,12.479a281.768,281.768,0,0,1-4.825,29.869c-1.137,5.119-2.1,10.279-3.407,15.358a45.69,45.69,0,0,0-1.687,6.926c-.068.7-.127,1.4-.152,2.107-.039,1.1-.064,2.2-.064,3.305,0,3.423-1.73,5.717-4.669,7.241a25.884,25.884,0,0,1-3.415,1.422c-3.912,1.363-7.811,2.768-11.8,3.9a21.067,21.067,0,0,1-2.984.568,4.086,4.086,0,0,1-2.44-.421,2.182,2.182,0,0,1-.976-3.137,5.608,5.608,0,0,1,1.086-1.323c1.838-1.847,3.9-3.436,5.857-5.15s3.937-3.4,5.726-5.294a3.114,3.114,0,0,0,.925-1.968,80.473,80.473,0,0,0,.076-9.642c-.032-1.014-.095-2.027-.086-3.04.052-6-.239-11.986-.371-17.978-.119-5.419-.312-10.835-.539-16.25-.215-5.15-.509-10.3-.778-15.442-.259-4.971-.506-9.943-.8-14.912-.287-4.837-.6-9.672-.826-14.513-.114-2.461-.139-4.929-.356-7.392a23.686,23.686,0,0,1,.832-8.11c1.522-5.809,3.673-11.41,5.544-17.1.383-1.163.508-1.2,1.734-1.072,3.9.408,7.814.653,11.725.936,4.305.312,8.607.685,12.909,1.044,1.155.1,1.266.3.809,1.447-1.294,3.233-2.62,6.453-3.891,9.7a112.2,112.2,0,0,0-4.025,10.771,3.057,3.057,0,0,0,.073,2.182,41.546,41.546,0,0,1,3.2,17.419C-2379.269,1338.943-2379.268,1339.34-2379.268,1340.027Z" transform="translate(2426.613 -1295.003)" fill="#f4c7a5"/>
            <path id="Trazado_192068" data-name="Trazado 192068" d="M-2376.61,1297.033c-4.3-.359-8.6-.731-12.91-1.044-3.911-.283-7.824-.527-11.725-.936-1.226-.129-1.352-.091-1.734,1.072q-.411,1.251-.838,2.5c2.489.078,4.978.123,7.468.18,4.316.1,8.63.259,12.945.4,1.157.039,1.28.242.878,1.4-1.132,3.293-2.3,6.575-3.407,9.876a112.163,112.163,0,0,0-3.487,10.957,3.049,3.049,0,0,0,.18,2.175,41.539,41.539,0,0,1,4.058,17.239c.018.4.039.793.073,1.478a124.867,124.867,0,0,1-.3,14.635q-.378,6.266-.771,12.531a282.2,282.2,0,0,1-3.021,30.132c-.883,5.17-1.886,12.7-1.886,12.7,1.31-5.081,2.27-10.239,3.407-15.358a281.706,281.706,0,0,0,4.825-29.869q.7-6.238,1.388-12.479a124.609,124.609,0,0,0,1.018-14.6c0-.687,0-1.084,0-1.48a41.547,41.547,0,0,0-3.2-17.419,3.057,3.057,0,0,1-.074-2.182,112.2,112.2,0,0,1,4.025-10.771c1.271-3.242,2.6-6.462,3.891-9.7C-2375.344,1297.338-2375.455,1297.13-2376.61,1297.033Z" transform="translate(2427.787 -1295.003)" fill="#ddb18f"/>
            <path id="Trazado_192069" data-name="Trazado 192069" d="M-2391.144,1412.317c-.031.971.025,1.946-.053,2.913-.552,6.907-15.9,11.432-19.885,12.561a19.335,19.335,0,0,1-2.583.513,5.773,5.773,0,0,1-1.2.054c-2.486-.174-3.489-1.876-2.612-3.557a5.609,5.609,0,0,1,1.086-1.324c.653-.657,1.342-1.277,2.038-1.886l0,0c-3.126,2.888-5.656,3.628-10.178,6.841-2.251,1.6-2.428,4.2,3.3,4.654,14.472,1.149,23.48-5.42,24.96-6.44-.083,2.318-.256,5.014-.191,6.438l4.588.019C-2391.719,1432.452-2388.719,1417.148-2391.144,1412.317Z" transform="translate(2426.002 -1285.56)" fill="#2b3b8a"/>
            <path id="Trazado_192070" data-name="Trazado 192070" d="M-2400.712,1324.794a6.532,6.532,0,0,0-.918-4c-.062-.1-.115-.2-.185-.3-.158-.213-.285-.516-.6-.475-.348.047-.323.39-.374.646-.3,1.523-.574,3.049-.882,4.569-.223,1.1-.483,2.2-.723,3.3-.059.265-.156.561.068.774.28.268.588.091.856-.059A5.184,5.184,0,0,0-2400.712,1324.794Z" transform="translate(2427.735 -1292.989)" fill="#ddb18f"/>
          </g>
          <g id="Grupo_132082" data-name="Grupo 132082">
            <g id="Grupo_132060" data-name="Grupo 132060" transform="translate(20.378 115.978)">
              <g id="Grupo_132058" data-name="Grupo 132058" transform="translate(57.344 99.364)">
                <path id="Trazado_192071" data-name="Trazado 192071" d="M-2317.446,1331.872a124.74,124.74,0,0,1,6.714,13.008q2.653,5.689,5.294,11.384a281.419,281.419,0,0,1,11.39,28.031c1.688,4.965,3.546,9.872,5.065,14.893a45.757,45.757,0,0,0,2.156,6.794c.305.634.62,1.265.965,1.88.538.96,1.09,1.916,1.663,2.857,1.779,2.925,1.49,5.785-.23,8.613a25.977,25.977,0,0,1-2.179,2.99c-2.636,3.2-5.237,6.422-8.061,9.46a20.965,20.965,0,0,1-2.256,2.036,4.081,4.081,0,0,1-2.3.908,2.183,2.183,0,0,1-2.462-2.174,5.642,5.642,0,0,1,.241-1.7c.612-2.533,1.551-4.963,2.331-7.443s1.6-4.949,2.144-7.5a3.112,3.112,0,0,0-.231-2.161,80.159,80.159,0,0,0-4.945-8.28c-.553-.848-1.133-1.682-1.652-2.552-3.07-5.151-6.429-10.119-9.654-15.171q-4.373-6.851-8.9-13.606c-2.858-4.288-5.783-8.533-8.685-12.792-2.8-4.113-5.6-8.234-8.429-12.327-2.757-3.985-5.536-7.953-8.244-11.973-1.375-2.044-2.678-4.14-4.143-6.131a23.7,23.7,0,0,1-3.5-7.363c-1.716-5.754-2.788-11.658-4.146-17.5-.278-1.192-.189-1.29.926-1.817,3.545-1.676,7.016-3.5,10.5-5.289,3.842-1.97,7.712-3.885,11.574-5.813,1.036-.518,1.24-.4,1.443.816.573,3.435,1.113,6.875,1.71,10.306a112.411,112.411,0,0,0,2.155,11.294,3.056,3.056,0,0,0,1.2,1.827,41.54,41.54,0,0,1,11.784,13.222C-2318.01,1330.947-2317.8,1331.285-2317.446,1331.872Z" transform="translate(2359.639 -1292.853)" fill="#f4c7a5"/>
                <path id="Trazado_192072" data-name="Trazado 192072" d="M-2336.5,1293.143c-3.863,1.928-7.732,3.843-11.574,5.813-3.489,1.788-6.959,3.613-10.505,5.289-1.114.527-1.2.626-.925,1.817q.3,1.284.58,2.571c2.167-1.226,4.319-2.481,6.477-3.726,3.74-2.157,7.51-4.26,11.273-6.377,1.009-.568,1.218-.458,1.48.743.742,3.4,1.451,6.811,2.217,10.209a112.515,112.515,0,0,0,2.711,11.174,3.059,3.059,0,0,0,1.285,1.766,41.554,41.554,0,0,1,12.421,12.623c.222.33.445.657.831,1.225a124.925,124.925,0,0,1,7.349,12.66q2.932,5.551,5.85,11.11a281.9,281.9,0,0,1,13.069,27.318c1.931,4.875,4.982,11.83,4.982,11.83-1.519-5.022-3.378-9.928-5.065-14.893a281.419,281.419,0,0,0-11.39-28.031q-2.646-5.692-5.294-11.384a124.74,124.74,0,0,0-6.714-13.008c-.356-.587-.564-.925-.768-1.264A41.54,41.54,0,0,0-2330,1317.386a3.056,3.056,0,0,1-1.2-1.827,112.411,112.411,0,0,1-2.155-11.294c-.6-3.431-1.138-6.871-1.71-10.306C-2335.262,1292.745-2335.465,1292.625-2336.5,1293.143Z" transform="translate(2359.639 -1292.853)" fill="#ddb18f"/>
                <path id="Trazado_192073" data-name="Trazado 192073" d="M-2289.647,1399.61c.476.846,1.032,1.65,1.468,2.516,3.114,6.189-7.646,18.025-10.47,21.062a19.459,19.459,0,0,1-1.941,1.781,5.793,5.793,0,0,1-1,.672c-2.215,1.143-3.955.21-4.079-1.683a5.643,5.643,0,0,1,.241-1.7c.217-.9.483-1.788.762-2.67h-.005c-1.171,4.092-2.949,6.038-5.145,11.131-1.093,2.535.106,4.85,5.234,2.265,12.964-6.535,17.25-16.826,17.985-18.466,1.133,2.023,2.386,4.418,3.181,5.6l3.93-2.366C-2279.681,1417.115-2285.066,1402.479-2289.647,1399.61Z" transform="translate(2363.62 -1284.26)" fill="#2b3b8a"/>
                <path id="Trazado_192074" data-name="Trazado 192074" d="M-2345.648,1323.868a6.525,6.525,0,0,0-2.861-2.94c-.1-.052-.2-.115-.311-.158-.246-.1-.513-.294-.762-.094-.272.22-.073.5.018.745.538,1.456,1.092,2.9,1.62,4.363.383,1.058.728,2.129,1.093,3.192.088.256.159.56.46.627.379.082.549-.229.7-.5A5.183,5.183,0,0,0-2345.648,1323.868Z" transform="translate(2360.438 -1290.62)" fill="#ddb18f"/>
              </g>
              <g id="Grupo_132059" data-name="Grupo 132059">
                <path id="Trazado_192075" data-name="Trazado 192075" d="M-2362.786,1327.677h-47.625c-2.269,0-2.264,0-2.3-2.262a92.459,92.459,0,0,1,1.11-13.031,86.665,86.665,0,0,1,4.292-18.38q2.481-6.912,5.569-13.579c2.95-6.361,6.183-12.583,9.266-18.879,2.89-5.9,5.858-11.76,8.7-17.683a86.873,86.873,0,0,0,6.6-17.686,65.015,65.015,0,0,0,1.576-10.446c.289-4.267.414-8.538.448-12.815,0-.264.018-.528.018-.793,0-.666.371-.948,1-.962.354-.007.706-.017,1.059-.018,3.483-.011,6.967,0,10.45-.032,5.686-.047,11.375-.255,17.059-.136,5.072.106,10.135-.165,15.2-.059.4.009.8.024,1.191,0,.9-.051,1.324.431,1.637,1.225,1.359,3.445,2.8,6.857,4.151,10.3a142.028,142.028,0,0,1,5.946,18.771,70.669,70.669,0,0,1,1.733,12.82c.279,5.42.136,10.845.3,16.264.253,8.42.077,16.843.254,25.262.129,6.213.283,12.427.543,18.636.261,6.25.62,12.5,1.305,18.721.125,1.139.288,2.273.414,3.411.118,1.066-.05,1.27-1.084,1.334-.439.027-.882.011-1.323.011Z" transform="translate(2412.711 -1200.891)" fill="#112f80"/>
                <path id="Trazado_192076" data-name="Trazado 192076" d="M-2336.576,1230.576a31.578,31.578,0,0,1-.936,4.807c-1.692,7.512-4.031,14.842-6.2,22.22a189.176,189.176,0,0,1-8.974,24.052c-2.639,5.878-5.817,11.425-10.576,15.916a56.623,56.623,0,0,1-11.083,7.983c-4.026,2.282-8.3,4.025-12.523,5.891a1.039,1.039,0,0,1-.875.151c-.149-.41.219-.524.427-.7a236.533,236.533,0,0,0,17.426-16.039,103.35,103.35,0,0,0,20.517-29.366c2.719-5.871,4.859-11.971,6.993-18.072,1.811-5.18,3.644-10.352,5.163-15.628A2.131,2.131,0,0,1-2336.576,1230.576Z" transform="translate(2414.718 -1198.501)" fill="#142459"/>
                <path id="Trazado_192077" data-name="Trazado 192077" d="M-2357.091,1248.452a1.561,1.561,0,0,1-.123,1.265,177.175,177.175,0,0,1-8.649,19.025,48.965,48.965,0,0,1-10.151,12.453c-5.218,4.723-10.837,8.929-16.427,13.179a5.711,5.711,0,0,1-1.658,1.051c.011-.528.369-.761.627-1.009,1.846-1.778,3.729-3.518,5.557-5.314,4.833-4.745,9.334-9.795,13.682-14.982a156.084,156.084,0,0,0,15.046-22.273A22.879,22.879,0,0,1-2357.091,1248.452Z" transform="translate(2414.209 -1197.063)" fill="#142459"/>
              </g>
            </g>
            <g id="Grupo_132081" data-name="Grupo 132081">
              <g id="Grupo_132061" data-name="Grupo 132061" transform="translate(0 14.813)">
                <path id="Trazado_192078" data-name="Trazado 192078" d="M-2408.631,1138.175c.253.438,9.822,4.275,13.984,6.471,2.229,1.177,2.05.938,1.117,3.128q-2.5,5.864-5.007,11.723c-.16.374-.333.742-.5,1.111a.62.62,0,0,1-.893.342c-.21-.084-.415-.18-.617-.282-6.06-3.042-12.1-6.126-17.93-9.6a39.728,39.728,0,0,1-9.777-7.666,14.355,14.355,0,0,1-2.884-4.549,6.23,6.23,0,0,1,.84-6.042,16.061,16.061,0,0,1,4.051-3.769c3.357-2.381,6.842-4.568,10.386-6.658,6.7-3.949,13.528-7.665,20.57-10.974,2.988-1.4,6.016-2.713,9.118-3.844,1.586-.578,2.134-.4,3.045,1.044a9.732,9.732,0,0,1,1.376,4.355,2.712,2.712,0,0,1-.859,1.92C-2385.134,1117.394-2408.565,1137.748-2408.631,1138.175Z" transform="translate(2431.571 -1107.263)" fill="#f4c7a5"/>
                <path id="Trazado_192079" data-name="Trazado 192079" d="M-2409.933,1136.1s-5.619-2.035-5.458-2.775,8.537,0,8.537,0Z" transform="translate(2432.874 -1105.191)" fill="#ddb18f"/>
              </g>
              <g id="Grupo_132063" data-name="Grupo 132063" transform="translate(26.013 46.927)">
                <path id="Trazado_192080" data-name="Trazado 192080" d="M-2366.678,1207.924c-2.16,0-4.323-.07-6.48.028a2.267,2.267,0,0,1-2.557-1.525c-.606-1.463-1.414-2.84-1.994-4.32a32.316,32.316,0,0,0-5.29-8.342q-.747-.927-1.547-1.809c-2.986-3.3-3.694-7.2-3.041-11.46a20.669,20.669,0,0,1,.968-3.434c.435-1.285.437-1.3-.68-2-2.721-1.718-5.459-3.408-8.173-5.139-3.828-2.444-7.624-4.937-11.2-7.74-.99-.775-1.009-.811-.454-1.833,3.912-7.21,7.337-14.667,11.117-21.944.867-1.666.881-1.714,2.567-.93,5.517,2.562,11.166,4.828,16.6,7.568a58.011,58.011,0,0,0,16.355,5.086c4.082.709,8.167,1.408,12.294,1.782,2.983.27,5.974.492,8.966.608a57.461,57.461,0,0,1,15.693,2.836,30.677,30.677,0,0,1,11.1,6.775c4.164,3.814,7.943,8.014,11.751,12.176,3.781,4.131,7.374,8.425,10.858,12.807a48.072,48.072,0,0,1,5.367,8.163,13.981,13.981,0,0,1,1.253,7.984,5.322,5.322,0,0,1-.657,2.136c-.387.663-.9.693-1.328.044a16.333,16.333,0,0,1-1-1.858,17.469,17.469,0,0,0-1.442-2.521,12.861,12.861,0,0,0-6.723-4.871,37.676,37.676,0,0,0-14.748-1.579c-3.56.292-7.093.8-10.642,1.145a14.5,14.5,0,0,0-8.771,4.175,40.68,40.68,0,0,0-6.27,7.656,2.654,2.654,0,0,1-2.7,1.393c-5.5-.348-11.006-.42-16.507-.7C-2358.215,1208.062-2362.442,1207.774-2366.678,1207.924Z" transform="translate(2407.496 -1136.984)" fill="#00defc"/>
                <g id="Grupo_132062" data-name="Grupo 132062" transform="translate(19.684 29.692)">
                  <path id="Trazado_192081" data-name="Trazado 192081" d="M-2384.533,1186.973a9.03,9.03,0,0,1-.937-3.685,19.986,19.986,0,0,1,.974-6.643,33.778,33.778,0,0,0,1.2-11.125c-.016-.371.111-.811-.336-1.057-.428.112-.465.5-.579.816-.816,2.285-1.741,4.525-2.745,6.734q-.469,1.032-.9,2.079c-.043.193-.125.435-.235.759a20.675,20.675,0,0,0-.968,3.434c-.653,4.255.054,8.161,3.041,11.46q.8.882,1.547,1.809a32.323,32.323,0,0,1,5.29,8.343c.58,1.48,1.388,2.857,1.994,4.32a3.181,3.181,0,0,0,.378.677,34.246,34.246,0,0,0-5.6-14.419A31.88,31.88,0,0,1-2384.533,1186.973Z" transform="translate(2389.278 -1164.464)" fill="#15b5cb"/>
                  <path id="Trazado_192082" data-name="Trazado 192082" d="M-2334.076,1178.519c.338,0,3.655,8.95,5.289,13.138a10.7,10.7,0,0,1,.484,1.782.753.753,0,0,1-.66.965c-.647.135-1.3.239-1.943.4-.674.167-1-.128-1.128-.75-.229-1.123-.5-2.239-.673-3.37C-2333.241,1187.152-2334.793,1178.519-2334.076,1178.519Z" transform="translate(2393.707 -1163.333)" fill="#8e93c9"/>
                </g>
              </g>
              <g id="Grupo_132071" data-name="Grupo 132071" transform="translate(62.568 5.801)">
                <path id="Trazado_192083" data-name="Trazado 192083" d="M-2354.173,1160.905a14.875,14.875,0,0,1-5.548-1.083,2.464,2.464,0,0,1-1.729-2.084c-.6-3.25-1.082-6.52-1.566-9.788-.207-1.394-.364-2.8-.545-4.193-.161-1.234-.264-1.356-1.492-1.657a14.834,14.834,0,0,1-4.15-1.687,8.835,8.835,0,0,1-4.3-9.471,21.712,21.712,0,0,1,3.023-7.429,78.443,78.443,0,0,1,11.839-15.355,21.276,21.276,0,0,1,2.625-2.214,9.012,9.012,0,0,1,8.662-1.235,28.8,28.8,0,0,1,10.593,6.065,18.572,18.572,0,0,1,4.574,6.721,9.586,9.586,0,0,1-.037,7.1,29.828,29.828,0,0,1-5.513,8.811c-.822.977-1.692,1.915-2.567,2.845a17.164,17.164,0,0,0-2.175,2.986c-1.146,1.907-1,3.973-.742,6.045.39,3.151,1.066,6.253,1.6,9.379.4,2.333.88,2.122-1.747,3.579A23.306,23.306,0,0,1-2354.173,1160.905Z" transform="translate(2373.664 -1098.503)" fill="#f4c7a5"/>
                <path id="Trazado_192084" data-name="Trazado 192084" d="M-2342.252,1129.706c-6.538-7.334-9.141-13.236-6.563-21.607-5.471,5.494-8.669,4.869-14.716,5.3-1.55,1.991-3.351,4.285-3.351,4.285a11.9,11.9,0,0,1,.679-5.647c1.681-4.986,6.181-10.98,11.418-12.4,3.241-.877,6.906-1.517,11.212,1.628a23.088,23.088,0,0,0,3.714,2.552c6.807,3.3,10.812,7.612,12.108,9.828,4.136,7.073,4.173,17.215-3.708,25.781-5.183,5.635-11.01,9.519-16.948,11.423C-2348.406,1150.853-2342.814,1136.666-2342.252,1129.706Z" transform="translate(2374.2 -1098.922)" fill="#142459" fill-rule="evenodd"/>
                <path id="Trazado_192085" data-name="Trazado 192085" d="M-2342.171,1135.363c-.851,2.409-2.822,7.268-.526,9.571,2.552,2.56,9.056.385,12.854.368,3.428-.015,6.374.6,7.977,2.655,1.95,2.5.789,5.974,1.615,8.3.6,1.691,2.489,2.522,4.224,3.594,3.635,2.244,8.733,6.962,5.307,13.493-1.3,2.487-4.718,3.557-5.438,6.945-.649,3.063,1.629,6.574.71,9.46-.385,1.2-1.463,2.147-3.47,2.6-.407-1.707.342-4.1-1.238-5.207-1.487-1.041-4.5.178-6.677-.919-2.711-1.368-2.046-6.186-3.415-8.848a5.48,5.48,0,0,0-3.487-2.515c-5.658-1.38-7.392.293-12.131-2.342-5.108-2.841-4.472-15.9-4.472-15.9.48-3.858.134-8.974,1.323-11.963.641-1.607,1.981-2.808,3.188-4.255C-2344.515,1138.828-2343.64,1136.815-2342.171,1135.363Z" transform="translate(2375.54 -1095.988)" fill="#142459" fill-rule="evenodd"/>
                <path id="Trazado_192086" data-name="Trazado 192086" d="M-2341.706,1143.744a1.637,1.637,0,0,1-1.632,1.645l-5.22.019a1.638,1.638,0,0,1-1.643-1.634h0a1.64,1.64,0,0,1,1.633-1.645l5.219-.017a1.635,1.635,0,0,1,1.644,1.631Z" transform="translate(2375.553 -1095.445)" fill="#00defc" fill-rule="evenodd"/>
                <path id="Trazado_192087" data-name="Trazado 192087" d="M-2364.851,1139.741c5.358.6,11.7-2.6,11.7-2.6a12.634,12.634,0,0,1-10.478,8.8Z" transform="translate(2374.374 -1095.845)" fill="#ddb18f"/>
                <g id="Grupo_132068" data-name="Grupo 132068" transform="translate(5.291 14.361)">
                  <g id="Grupo_132064" data-name="Grupo 132064" transform="translate(3.387 5.937)">
                    <path id="Trazado_192088" data-name="Trazado 192088" d="M-2364.485,1128.532a.511.511,0,0,1-.085-.063,2.963,2.963,0,0,1-1.063-2.118c-.019-1.513,1.339-2.87,3.055-4.583a32.114,32.114,0,0,0,3.409-3.812.619.619,0,0,1,.854-.133.608.608,0,0,1,.138.854,33.609,33.609,0,0,1-3.539,3.951c-1.454,1.456-2.711,2.712-2.7,3.708a1.821,1.821,0,0,0,.689,1.238.626.626,0,0,1,.026.87.607.607,0,0,1-.782.088" transform="translate(2365.633 -1117.707)" fill="#d19c79"/>
                  </g>
                  <g id="Grupo_132066" data-name="Grupo 132066" transform="translate(2.494)">
                    <g id="Grupo_132065" data-name="Grupo 132065" transform="translate(0 4.783)">
                      <path id="Trazado_192089" data-name="Trazado 192089" d="M-2366.034,1117.389a1.426,1.426,0,0,0-.049,1.986,1.449,1.449,0,0,0,1.918-.551,1.456,1.456,0,0,0,.042-2,1.44,1.44,0,0,0-1.911.562" transform="translate(2366.459 -1116.639)" fill="#142459" fill-rule="evenodd"/>
                    </g>
                    <path id="Trazado_192090" data-name="Trazado 192090" d="M-2358.12,1115.713c-.244.468-2.329-.781-4.064-1.586s-3.188-1.131-2.948-1.6,2.047-.464,3.787.338S-2357.878,1115.24-2358.12,1115.713Z" transform="translate(2366.564 -1112.212)" fill="#142459" fill-rule="evenodd"/>
                  </g>
                  <g id="Grupo_132067" data-name="Grupo 132067" transform="translate(11.721 5.386)">
                    <path id="Trazado_192091" data-name="Trazado 192091" d="M-2356.09,1117.252c-.4.348,1.489,2.144,2.826,3.693s2.109,2.918,2.508,2.577-.151-2.144-1.483-3.7S-2355.689,1116.9-2356.09,1117.252Z" transform="translate(2358.063 -1117.197)" fill="#142459" fill-rule="evenodd"/>
                    <path id="Trazado_192092" data-name="Trazado 192092" d="M-2357.469,1123.55a1.548,1.548,0,0,0-.055,2.13,1.556,1.556,0,0,0,2.046-.6,1.543,1.543,0,0,0,.049-2.127,1.536,1.536,0,0,0-2.04.6" transform="translate(2357.92 -1116.75)" fill="#142459" fill-rule="evenodd"/>
                  </g>
                  <path id="Trazado_192093" data-name="Trazado 192093" d="M-2361.293,1130.873a.551.551,0,0,0-.743.078,2.714,2.714,0,0,1-2.086,1.049c-1.877,0-3.657-2.016-3.676-2.036a.553.553,0,0,0-.78-.053.554.554,0,0,0-.054.778c.09.1,2.123,2.406,4.506,2.415a3.8,3.8,0,0,0,2.919-1.422.554.554,0,0,0-.048-.779C-2361.271,1130.89-2361.281,1130.883-2361.293,1130.873Z" transform="translate(2368.768 -1110.799)" fill="#d19c79"/>
                </g>
                <g id="Grupo_132070" data-name="Grupo 132070" transform="translate(28.133 30.558)">
                  <path id="Trazado_192094" data-name="Trazado 192094" d="M-2340.457,1132.34c-.627,1.919-4.259,5.57-6.317,4.59-1.546-.736-.212-4.594.414-6.513a7.822,7.822,0,0,1,2.183-3.213c1.375.916,2.218,1.053,2.838,1.557C-2339.93,1129.9-2340.024,1131.006-2340.457,1132.34Z" transform="translate(2347.638 -1127.203)" fill="#f4c7a5" fill-rule="evenodd"/>
                  <g id="Grupo_132069" data-name="Grupo 132069" transform="translate(0 2.536)">
                    <path id="Trazado_192095" data-name="Trazado 192095" d="M-2347.284,1133.1a.6.6,0,0,1-.114-.054.491.491,0,0,1-.153-.678,5.438,5.438,0,0,1,4.636-2.818.492.492,0,0,1,.492.492.493.493,0,0,1-.493.49,4.5,4.5,0,0,0-3.8,2.36A.492.492,0,0,1-2347.284,1133.1Z" transform="translate(2347.627 -1129.55)" fill="#d19c79"/>
                    <path id="Trazado_192096" data-name="Trazado 192096" d="M-2344.315,1134.137a.492.492,0,0,1-.327-.561,2.781,2.781,0,0,0-1-2.578.487.487,0,0,1-.02-.694.484.484,0,0,1,.69-.025,3.708,3.708,0,0,1,1.288,3.484.492.492,0,0,1-.575.388Z" transform="translate(2347.775 -1129.502)" fill="#d19c79"/>
                  </g>
                </g>
              </g>
              <g id="Grupo_132072" data-name="Grupo 132072" transform="translate(34.8)">
                <path id="Trazado_192097" data-name="Trazado 192097" d="M-2385.237,1105.178a9.7,9.7,0,0,1,2.32-3.406c1.956-1.89,4.434-3.459,6.685-5.443,1.106-.981,2.737-3.082,3.455-2.74,1.263.6-1.042,5.133-2.029,5.855-.954.7-2.752.953-4.2,1.593a31.824,31.824,0,0,0-6.235,4.141" transform="translate(2400.501 -1093.553)" fill="#ddb18f" fill-rule="evenodd"/>
                <path id="Trazado_192098" data-name="Trazado 192098" d="M-2385.39,1105.648c-1.327.907-7.1,3.867-13.974,7.71q3.669,4.248,7.149,8.659c3.23-3.26,6.555-6.4,8.374-7.328.666-.34,1.708-.054,2.565-.229a22.019,22.019,0,0,0,4.833-2.094c1.526.236,2.954.6,4.425.97,1.44.361,4.418,1.382,4.636.686.562-1.8-5.17-2.8-7.441-4.8a33.973,33.973,0,0,1,6.423,1.388c2.127.612,6.083,2.628,6.565,1.317.255-.7-1.45-1.589-2.294-2.056a54.848,54.848,0,0,0-5.715-2.459,5.393,5.393,0,0,1-2.575-1.552c3.618-.632,6.9.619,10.054,1.151,1,.168,3.263.72,3.347-.091.136-1.283-5.692-3.366-6.663-3.673-1.03-.327-3.154-1-4.41-1.25,2.971-1.595,9.066-3.338,8.093-4.821-1.413-.562-4.747.756-9.184,1.263a23.233,23.233,0,0,0-8.675,2.973C-2381.835,1102.558-2383.466,1104.331-2385.39,1105.648Z" transform="translate(2399.364 -1093.272)" fill="#f4c7a5" fill-rule="evenodd"/>
              </g>
              <g id="Grupo_132080" data-name="Grupo 132080" transform="translate(62.636 79.514)">
                <g id="Grupo_132079" data-name="Grupo 132079" transform="translate(0 0)">
                  <g id="Grupo_132076" data-name="Grupo 132076" transform="translate(7.446)">
                    <g id="Grupo_132074" data-name="Grupo 132074">
                      <rect id="Rectángulo_294045" data-name="Rectángulo 294045" width="41.408" height="54.448" transform="translate(0 3.738) rotate(-5.179)" fill="#fff"/>
                      <g id="Grupo_132073" data-name="Grupo 132073" transform="translate(5.35 9.395)">
                        <path id="Trazado_192099" data-name="Trazado 192099" d="M-2330.041,1177.359l-30.886,2.8a.763.763,0,0,1-.829-.69.763.763,0,0,1,.691-.829l30.887-2.8a.761.761,0,0,1,.828.69A.762.762,0,0,1-2330.041,1177.359Z" transform="translate(2361.759 -1175.838)" fill="#8e93c9"/>
                        <path id="Trazado_192100" data-name="Trazado 192100" d="M-2329.506,1183.264l-30.886,2.8a.764.764,0,0,1-.829-.69.763.763,0,0,1,.69-.829l30.887-2.8a.762.762,0,0,1,.828.691A.762.762,0,0,1-2329.506,1183.264Z" transform="translate(2361.802 -1175.363)" fill="#8e93c9"/>
                        <path id="Trazado_192101" data-name="Trazado 192101" d="M-2328.963,1189.249l-30.887,2.8a.762.762,0,0,1-.828-.69.762.762,0,0,1,.691-.829l30.886-2.8a.764.764,0,0,1,.829.691A.763.763,0,0,1-2328.963,1189.249Z" transform="translate(2361.846 -1174.881)" fill="#8e93c9"/>
                        <path id="Trazado_192102" data-name="Trazado 192102" d="M-2328.428,1195.154l-30.887,2.8a.763.763,0,0,1-.828-.692.762.762,0,0,1,.69-.828l30.886-2.8a.763.763,0,0,1,.829.69A.763.763,0,0,1-2328.428,1195.154Z" transform="translate(2361.889 -1174.406)" fill="#8e93c9"/>
                        <path id="Trazado_192103" data-name="Trazado 192103" d="M-2327.886,1201.138l-30.886,2.8a.763.763,0,0,1-.829-.692.762.762,0,0,1,.691-.828l30.887-2.8a.762.762,0,0,1,.828.69A.763.763,0,0,1-2327.886,1201.138Z" transform="translate(2361.933 -1173.924)" fill="#8e93c9"/>
                      </g>
                    </g>
                    <g id="Grupo_132075" data-name="Grupo 132075" transform="translate(8.332 42.829)">
                      <path id="Trazado_192104" data-name="Trazado 192104" d="M-2343.27,1214.527c0-.024-.006-.046-.008-.07-.031-.446.575-1.111.539-1.615a1.061,1.061,0,0,0-.128-.451c-.215-.555-.843-.6-1.258-.917a.87.87,0,0,1-.16-.219c-.255-.5.025-1-.135-1.488a1,1,0,0,0-.351-.494,1.08,1.08,0,0,0-.485-.279c-.337-.084-.736.09-1.143-.026a.852.852,0,0,1-.164-.069c-.388-.285-.408-.864-.723-1.253a1.055,1.055,0,0,0-.653-.383,1.086,1.086,0,0,0-.38-.045c-.464.031-.842.479-1.358.482l-.024,0c-.61-.112-.8-.778-1.509-.9a.782.782,0,0,0-.269,0,.792.792,0,0,0-.264.053c-.674.248-.742.938-1.323,1.159l-.023.005c-.509.091-.961-.282-1.423-.23a1.1,1.1,0,0,0-.365.114,1.05,1.05,0,0,0-.574.494c-.239.439-.156,1.012-.487,1.363a.769.769,0,0,1-.148.1c-.381.188-.8.089-1.121.232a1.065,1.065,0,0,0-.427.361,1,1,0,0,0-.256.549c-.07.513.3.951.135,1.488a.941.941,0,0,1-.119.245c-.351.389-.96.542-1.073,1.128a1.061,1.061,0,0,0-.044.467c.055.5.77,1.047.82,1.491,0,.024,0,.047.005.071-.067.65-.823,1.11-.441,1.891a1.233,1.233,0,0,0,.111.219c.29.459,1.154.477,1.435,1.076.211.452-.027,1.03.135,1.488a1.063,1.063,0,0,0,.711.652c.356.09.767-.08,1.143.027a1.248,1.248,0,0,1,.594.435c.166.241.188.579.371.847a1.129,1.129,0,0,0,.923.471c.662-.025.868-.562,1.588-.47.434.055.765.771,1.368.886a.739.739,0,0,0,.253,0,.729.729,0,0,0,.249-.05c.573-.221.685-.912,1.186-1.118.67-.276.991.272,1.646.177a1.128,1.128,0,0,0,.823-.629c.131-.3.091-.633.212-.9a1.255,1.255,0,0,1,.506-.535c.352-.173.785-.08,1.12-.232a1.064,1.064,0,0,0,.582-.769c.076-.481-.261-1.006-.135-1.488.168-.642,1.016-.814,1.218-1.317a1.154,1.154,0,0,0,.07-.235C-2342.261,1215.471-2343.086,1215.155-2343.27,1214.527Z" transform="translate(2358.999 -1206.781)" fill="#ffdc90"/>
                      <path id="Trazado_192105" data-name="Trazado 192105" d="M-2345.74,1229.24l-4.109-1.4-3.806,2.036-1.033-11.691,7.913-.636Z" transform="translate(2359.346 -1205.914)" fill="#ffb30b" fill-rule="evenodd"/>
                      <path id="Trazado_192106" data-name="Trazado 192106" d="M-2355.927,1218.62a6.272,6.272,0,0,0,8.756,1.423,6.274,6.274,0,0,0,1.343-8.769,6.274,6.274,0,0,0-8.757-1.423A6.274,6.274,0,0,0-2355.927,1218.62Z" transform="translate(2359.149 -1206.63)" fill="#fff" fill-rule="evenodd"/>
                      <path id="Trazado_192107" data-name="Trazado 192107" d="M-2354.3,1217.146a4.041,4.041,0,0,0,5.64.917,4.041,4.041,0,0,0,.865-5.649,4.042,4.042,0,0,0-5.64-.916A4.041,4.041,0,0,0-2354.3,1217.146Z" transform="translate(2359.315 -1206.463)" fill="#ffb30b" fill-rule="evenodd"/>
                    </g>
                  </g>
                  <g id="Grupo_132078" data-name="Grupo 132078" transform="translate(0 23.837)">
                    <path id="Trazado_192108" data-name="Trazado 192108" d="M-2310.141,1206.508c-5.54.095-25.639-1.169-30.155-1.331-2.273-.082-6.8-.126-6.8-.126-.321-.055-.638-.126-.955-.205a4.764,4.764,0,0,1-3.987-4.36c-.2-1.641.605-2.427,2.43-3.387,1.483-.781,24.2-6.749,38.119-7.882,16.056-.317,21.478,6.17,23.01,8.553a5.01,5.01,0,0,1,.877,3.484,4.29,4.29,0,0,1-2.811,3.421,16.613,16.613,0,0,1-4.493,1.1A103.283,103.283,0,0,1-2310.141,1206.508Z" transform="translate(2375.334 -1189.205)" fill="#f4c7a5"/>
                    <g id="Grupo_132077" data-name="Grupo 132077" transform="translate(0 4.783)">
                      <path id="Trazado_192109" data-name="Trazado 192109" d="M-2352.385,1197.413a9.684,9.684,0,0,0-4.007-.958c-2.718-.083-5.608.424-8.608.469-1.478.018-4.1-.438-4.4.3-.532,1.291,4.225,3.1,5.442,2.968,1.173-.127,2.677-1.146,4.176-1.645a31.864,31.864,0,0,1,7.4-1.131" transform="translate(2373.936 -1193.404)" fill="#ddb18f" fill-rule="evenodd"/>
                      <path id="Trazado_192110" data-name="Trazado 192110" d="M-2350.591,1197.326c1.593-.22,7.854-1.915,15.525-3.7.1,3.742,2.082,7.716,2.334,11.451-4.583-.24-10.954-.56-12.924-.023-.72.2-1.3,1.109-2.052,1.556a22.006,22.006,0,0,1-4.986,1.7c-.97,1.2-1.781,2.431-2.62,3.694-.822,1.236-2.339,3.995-2.969,3.627-1.623-.951,1.945-5.547,2.274-8.561a34.016,34.016,0,0,0-3.818,5.348c-1.162,1.884-2.732,6.036-3.972,5.391-.659-.347,0-2.151.313-3.064a55.153,55.153,0,0,1,2.575-5.664,5.393,5.393,0,0,0,.861-2.881c-3.1,1.967-4.69,5.1-6.665,7.615-.625.8-1.931,2.727-2.538,2.185-.964-.857,1.948-6.319,2.46-7.2.54-.935,1.662-2.859,2.422-3.891-3.272.819-8.955,3.629-9.232,1.877.669-1.366,4.022-2.633,7.646-5.244a23.235,23.235,0,0,1,8.419-3.636C-2355.3,1197.432-2352.9,1197.648-2350.591,1197.326Z" transform="translate(2373.601 -1193.631)" fill="#f4c7a5" fill-rule="evenodd"/>
                    </g>
                  </g>
                </g>
                <path id="Trazado_192111" data-name="Trazado 192111" d="M-2294.809,1200.194a3.371,3.371,0,0,0,.175-2.108c-.015-.057-.025-.118-.044-.174-.045-.13-.059-.3-.222-.327-.178-.032-.219.14-.284.258-.384.7-.76,1.408-1.148,2.107-.282.507-.581,1-.871,1.505-.069.121-.164.252-.088.391.1.175.276.136.43.1A2.675,2.675,0,0,0-2294.809,1200.194Z" transform="translate(2379.741 -1164.693)" fill="#d19c79"/>
              </g>
            </g>
          </g>
        </g>
      </g>
    </g>
    <g id="Grupo_132086" data-name="Grupo 132086" transform="translate(192.483 2238.089)">
      <g id="Grupo_131823" data-name="Grupo 131823" transform="translate(302.517 -16.101)">
        <g id="Grupo_131820" data-name="Grupo 131820" transform="translate(-292.573 154)">
          <path id="Trazado_191781" data-name="Trazado 191781" d="M399.357,33.216H352.388a6.119,6.119,0,0,0-6.119,6.119V68.16a6.119,6.119,0,0,0,6.119,6.119h21.1L370.12,86.694h3.365l13.421-12.415h12.451a6.119,6.119,0,0,0,6.119-6.119V39.335A6.119,6.119,0,0,0,399.357,33.216Z" transform="translate(-342.903 -33.216)" fill="#b9ddfc"/>
          <path id="Trazado_191782" data-name="Trazado 191782" d="M393.754,33.216h-46.97a6.119,6.119,0,0,0-6.119,6.119V68.16a6.119,6.119,0,0,0,6.119,6.119h21.1V86.694L381.3,74.279h12.452a6.119,6.119,0,0,0,6.119-6.119V39.335A6.119,6.119,0,0,0,393.754,33.216Z" transform="translate(-340.665 -33.216)" fill="#fff"/>
          <g id="Grupo_131819" data-name="Grupo 131819" transform="translate(9.784 13.722)">
            <path id="Trazado_191783" data-name="Trazado 191783" d="M363.4,59.024a2.3,2.3,0,0,0-2.01,1.055,5.1,5.1,0,0,0-.722,2.91q0,3.855,2.933,3.855a6,6,0,0,0,1.717-.247A17.107,17.107,0,0,0,366.987,66v3.052a9.257,9.257,0,0,1-3.782.74,5.983,5.983,0,0,1-4.637-1.754,7.234,7.234,0,0,1-1.612-5.07,8.092,8.092,0,0,1,.781-3.645,5.587,5.587,0,0,1,2.247-2.416,6.785,6.785,0,0,1,3.449-.845,9.5,9.5,0,0,1,4.139.941l-1.106,2.841a12.388,12.388,0,0,0-1.48-.584A5.169,5.169,0,0,0,363.4,59.024Z" transform="translate(-356.956 -56.064)" fill="#b9ddfc"/>
            <path id="Trazado_191784" data-name="Trazado 191784" d="M383.811,69.74l-2.731-9.62H381q.192,2.458.192,3.819v5.8h-3.2V56.383H382.8l2.786,9.483h.073l2.732-9.483H393.2V69.74h-3.316V63.884q0-.457.013-1.014t.124-2.732h-.082l-2.695,9.6Z" transform="translate(-365.358 -56.191)" fill="#b9ddfc"/>
            <path id="Trazado_191785" data-name="Trazado 191785" d="M416.43,65.556a3.945,3.945,0,0,1-.63,2.207,4.131,4.131,0,0,1-1.818,1.5,6.744,6.744,0,0,1-2.787.535,11.264,11.264,0,0,1-2.238-.187,8.29,8.29,0,0,1-1.882-.653V65.738a10.775,10.775,0,0,0,2.147.827,8.013,8.013,0,0,0,2.046.3,1.984,1.984,0,0,0,1.178-.279.856.856,0,0,0,.375-.717.79.79,0,0,0-.151-.479,1.752,1.752,0,0,0-.484-.416q-.333-.211-1.777-.859a8.508,8.508,0,0,1-1.959-1.151,3.526,3.526,0,0,1-.969-1.279,4.245,4.245,0,0,1-.315-1.709,3.425,3.425,0,0,1,1.343-2.877,5.92,5.92,0,0,1,3.691-1.032,10.354,10.354,0,0,1,4.229.959l-1.105,2.786a8.012,8.012,0,0,0-3.234-.858,1.689,1.689,0,0,0-1.023.246.748.748,0,0,0-.32.612.885.885,0,0,0,.407.7,15.581,15.581,0,0,0,2.206,1.133,6.1,6.1,0,0,1,2.4,1.667A3.618,3.618,0,0,1,416.43,65.556Z" transform="translate(-376.974 -56.064)" fill="#b9ddfc"/>
          </g>
        </g>
        <g id="Grupo_131822" data-name="Grupo 131822" transform="translate(0 53.237)">
          <path id="Trazado_191786" data-name="Trazado 191786" d="M217.73,121.857H176.184a5.413,5.413,0,0,0-5.413,5.413v25.5a5.409,5.409,0,0,0,5.068,5.4l-2.977,10.154h2.977L186.8,158.179H217.73a5.412,5.412,0,0,0,5.413-5.412v-25.5A5.412,5.412,0,0,0,217.73,121.857Z" transform="translate(-167.794 -121.857)" fill="#b9ddfc"/>
          <path id="Trazado_191787" data-name="Trazado 191787" d="M212.774,121.857H171.228a5.413,5.413,0,0,0-5.413,5.413v25.5a5.409,5.409,0,0,0,5.068,5.4v10.154l10.958-10.137h30.933a5.412,5.412,0,0,0,5.413-5.412v-25.5A5.413,5.413,0,0,0,212.774,121.857Z" transform="translate(-165.815 -121.857)" fill="#fff"/>
          <g id="Grupo_131821" data-name="Grupo 131821" transform="translate(7.95 8.524)">
            <path id="Trazado_191788" data-name="Trazado 191788" d="M187.009,139.707a2.843,2.843,0,0,0-2.483,1.3,6.293,6.293,0,0,0-.892,3.595q0,4.763,3.623,4.763a7.406,7.406,0,0,0,2.122-.305,21.22,21.22,0,0,0,2.065-.733v3.77a11.439,11.439,0,0,1-4.673.914,7.392,7.392,0,0,1-5.728-2.167,8.938,8.938,0,0,1-1.992-6.264,10,10,0,0,1,.965-4.5,6.91,6.91,0,0,1,2.777-2.985,8.386,8.386,0,0,1,4.261-1.044,11.741,11.741,0,0,1,5.113,1.163l-1.366,3.51a15.39,15.39,0,0,0-1.829-.722A6.381,6.381,0,0,0,187.009,139.707Z" transform="translate(-179.052 -136.05)" fill="#b9ddfc"/>
            <path id="Trazado_191789" data-name="Trazado 191789" d="M207.625,148.1h-4.2v-3.025h4.2v-4.142h3.036v4.142h4.2V148.1h-4.2v4.074h-3.036Z" transform="translate(-188.787 -138.002)" fill="#b9ddfc"/>
            <path id="Trazado_191790" data-name="Trazado 191790" d="M229.4,148.1h-4.2v-3.025h4.2v-4.142h3.037v4.142h4.2V148.1h-4.2v4.074H229.4Z" transform="translate(-197.486 -138.002)" fill="#b9ddfc"/>
          </g>
        </g>
      </g>
      <g id="Grupo_131829" data-name="Grupo 131829" transform="translate(0 30.125)">
        <g id="Grupo_131825" data-name="Grupo 131825" transform="translate(302.517 -70)">
          <circle id="Elipse_5080" data-name="Elipse 5080" cx="16.653" cy="16.653" r="16.653" transform="translate(3.557 0)" fill="#83c3fb"/>
          <circle id="Elipse_5081" data-name="Elipse 5081" cx="16.653" cy="16.653" r="16.653" fill="#b9ddfc"/>
          <g id="Grupo_131824" data-name="Grupo 131824" transform="translate(3.344 11.061)">
            <path id="Trazado_191791" data-name="Trazado 191791" d="M277.564,92.054a1.888,1.888,0,0,0-1.649.866,4.179,4.179,0,0,0-.593,2.388q0,3.164,2.407,3.164a4.926,4.926,0,0,0,1.41-.2,14.217,14.217,0,0,0,1.372-.487v2.5a7.6,7.6,0,0,1-3.1.607,4.908,4.908,0,0,1-3.8-1.44,5.937,5.937,0,0,1-1.324-4.161,6.637,6.637,0,0,1,.641-2.992,4.588,4.588,0,0,1,1.844-1.983,5.576,5.576,0,0,1,2.831-.693,7.8,7.8,0,0,1,3.4.772l-.908,2.332a10.085,10.085,0,0,0-1.214-.48A4.233,4.233,0,0,0,277.564,92.054Z" transform="translate(-272.278 -89.625)" fill="#fff"/>
            <path id="Trazado_191792" data-name="Trazado 191792" d="M296.371,97.415a3.232,3.232,0,0,1-.518,1.811,3.386,3.386,0,0,1-1.492,1.229,5.529,5.529,0,0,1-2.286.438,9.237,9.237,0,0,1-1.837-.154,6.813,6.813,0,0,1-1.544-.536V97.565a8.821,8.821,0,0,0,1.762.678,6.557,6.557,0,0,0,1.68.244,1.63,1.63,0,0,0,.967-.229.7.7,0,0,0,.308-.589.649.649,0,0,0-.124-.393,1.435,1.435,0,0,0-.4-.341q-.273-.173-1.458-.705a6.987,6.987,0,0,1-1.608-.944,2.906,2.906,0,0,1-.8-1.05,3.487,3.487,0,0,1-.258-1.4,2.809,2.809,0,0,1,1.1-2.362,4.859,4.859,0,0,1,3.029-.847,8.508,8.508,0,0,1,3.471.787l-.908,2.287a6.577,6.577,0,0,0-2.654-.705,1.385,1.385,0,0,0-.84.2.614.614,0,0,0-.262.5.724.724,0,0,0,.334.577,12.708,12.708,0,0,0,1.81.93,5.005,5.005,0,0,1,1.968,1.368A2.972,2.972,0,0,1,296.371,97.415Z" transform="translate(-278.835 -89.625)" fill="#fff"/>
            <path id="Trazado_191793" data-name="Trazado 191793" d="M311.126,97.415a3.236,3.236,0,0,1-.517,1.811,3.39,3.39,0,0,1-1.492,1.229,5.53,5.53,0,0,1-2.287.438,9.231,9.231,0,0,1-1.837-.154,6.817,6.817,0,0,1-1.545-.536V97.565a8.826,8.826,0,0,0,1.762.678,6.549,6.549,0,0,0,1.679.244,1.63,1.63,0,0,0,.967-.229.7.7,0,0,0,.308-.589.645.645,0,0,0-.124-.393,1.441,1.441,0,0,0-.4-.341q-.274-.173-1.458-.705a7,7,0,0,1-1.608-.944,2.9,2.9,0,0,1-.795-1.05,3.486,3.486,0,0,1-.259-1.4,2.811,2.811,0,0,1,1.1-2.362,4.86,4.86,0,0,1,3.029-.847,8.508,8.508,0,0,1,3.471.787l-.907,2.287a6.578,6.578,0,0,0-2.654-.705,1.389,1.389,0,0,0-.84.2.614.614,0,0,0-.262.5.726.726,0,0,0,.334.577,12.693,12.693,0,0,0,1.811.93,5.01,5.01,0,0,1,1.968,1.368A2.975,2.975,0,0,1,311.126,97.415Z" transform="translate(-284.728 -89.625)" fill="#fff"/>
          </g>
        </g>
        <g id="Grupo_131828" data-name="Grupo 131828" transform="translate(0 27.628)">
          <g id="Grupo_131826" data-name="Grupo 131826">
            <path id="Trazado_191794" data-name="Trazado 191794" d="M98.673,139.643A22.424,22.424,0,1,0,84.827,160.37l2.736,6.456h3.72V156.283A22.376,22.376,0,0,0,98.673,139.643Z" transform="translate(-50.087 -117.21)" fill="#83c3fb"/>
            <path id="Trazado_191795" data-name="Trazado 191795" d="M92.479,139.643A22.424,22.424,0,1,0,78.633,160.37l6.456,6.456V156.283A22.375,22.375,0,0,0,92.479,139.643Z" transform="translate(-47.613 -117.21)" fill="#b9ddfc"/>
          </g>
          <g id="Grupo_131827" data-name="Grupo 131827" transform="translate(12.008 9.925)">
            <path id="Trazado_191796" data-name="Trazado 191796" d="M70.1,157.085a11.73,11.73,0,0,1-2.492-.255V153.1q.389.073.826.164a4.658,4.658,0,0,0,.948.091,1.944,1.944,0,0,0,1.7-.717,4.394,4.394,0,0,0,.511-2.455V133.735h4.826v16.033a8.223,8.223,0,0,1-1.58,5.464A5.885,5.885,0,0,1,70.1,157.085Z" transform="translate(-67.606 -133.735)" fill="#fff"/>
            <path id="Trazado_191797" data-name="Trazado 191797" d="M98.715,149.774a3.915,3.915,0,0,1-1.507,3.342,7.113,7.113,0,0,1-4.327,1.13,18.8,18.8,0,0,1-2.662-.164,11.3,11.3,0,0,1-2.31-.6v-3.8a14.3,14.3,0,0,0,2.425.8,10.216,10.216,0,0,0,2.352.317q1.544,0,1.544-.705a.8.8,0,0,0-.431-.65,19.747,19.747,0,0,0-2.51-1.112,6.251,6.251,0,0,1-2.65-1.768,4.027,4.027,0,0,1-.754-2.51,3.476,3.476,0,0,1,1.483-2.99,7.078,7.078,0,0,1,4.193-1.07,10.564,10.564,0,0,1,2.559.3,15.125,15.125,0,0,1,2.485.869l-1.288,3.063a14.462,14.462,0,0,0-2.005-.724,6.685,6.685,0,0,0-1.726-.3q-1.167,0-1.167.571a.712.712,0,0,0,.407.6,22.1,22.1,0,0,0,2.352,1.015,9.027,9.027,0,0,1,2.157,1.166,3.5,3.5,0,0,1,1.046,1.344A4.719,4.719,0,0,1,98.715,149.774Z" transform="translate(-75.706 -136.233)" fill="#fff"/>
          </g>
        </g>
      </g>
      <g id="Grupo_131836" data-name="Grupo 131836" transform="translate(35.398 -4)">
        <g id="Grupo_131832" data-name="Grupo 131832">
          <g id="Grupo_131830" data-name="Grupo 131830">
            <path id="Trazado_191798" data-name="Trazado 191798" d="M137.766,21.05H104.683a4.691,4.691,0,0,0-4.691,4.691V58.824a4.691,4.691,0,0,0,4.691,4.691h19.453l7.61,9.182h3.061V63.516h2.96a4.691,4.691,0,0,0,4.691-4.691V25.741A4.691,4.691,0,0,0,137.766,21.05Z" transform="translate(-96.931 -21.05)" fill="#2e2e59"/>
            <path id="Trazado_191799" data-name="Trazado 191799" d="M132.67,21.05H99.587A4.691,4.691,0,0,0,94.9,25.741V58.824a4.691,4.691,0,0,0,4.691,4.691H119.04L129.711,72.7V63.516h2.96a4.691,4.691,0,0,0,4.691-4.691V25.741A4.691,4.691,0,0,0,132.67,21.05Z" transform="translate(-94.896 -21.05)" fill="#084a93"/>
          </g>
          <g id="Grupo_131831" data-name="Grupo 131831" transform="translate(5.819 12.439)">
            <path id="Trazado_191800" data-name="Trazado 191800" d="M115.563,57.219l-10.979-4.876V50.475l10.979-5.495v3.225l-6.733,3.073,6.733,2.737Z" transform="translate(-104.584 -43.047)" fill="#fff"/>
            <path id="Trazado_191801" data-name="Trazado 191801" d="M134.095,41.762l-5.918,16.322h-3.757l5.918-16.322Z" transform="translate(-112.506 -41.762)" fill="#fff"/>
            <path id="Trazado_191802" data-name="Trazado 191802" d="M141.9,54.015l6.733-2.737L141.9,48.205V44.98l10.979,5.495v1.868L141.9,57.219Z" transform="translate(-119.489 -43.047)" fill="#fff"/>
          </g>
        </g>
        <g id="Grupo_131835" data-name="Grupo 131835" transform="translate(37.119 81.184)">
          <g id="Grupo_131833" data-name="Grupo 131833">
            <path id="Trazado_191803" data-name="Trazado 191803" d="M420.155,181.2H390.987a4.136,4.136,0,0,0-4.136,4.136V202.8a4.136,4.136,0,0,0,4.136,4.136l-1.778,8.219h3.121l8.885-8.219h18.94a4.136,4.136,0,0,0,4.136-4.136V185.334A4.136,4.136,0,0,0,420.155,181.2Z" transform="translate(-383.731 -181.198)" fill="#2e2e59"/>
            <path id="Trazado_191804" data-name="Trazado 191804" d="M414.96,181.2H385.792a4.136,4.136,0,0,0-4.136,4.136V202.8a4.136,4.136,0,0,0,4.136,4.136h1.343v8.219l8.885-8.219h18.94A4.136,4.136,0,0,0,419.1,202.8V185.334A4.136,4.136,0,0,0,414.96,181.2Z" transform="translate(-381.656 -181.198)" fill="#084a93"/>
          </g>
          <g id="Grupo_131834" data-name="Grupo 131834" transform="translate(5.932 9.553)">
            <path id="Trazado_191805" data-name="Trazado 191805" d="M397.789,205.036h-1.3v-3.575H392.83v3.575h-1.3V197.1h1.3v3.244h3.657V197.1h1.3Z" transform="translate(-391.533 -197.104)" fill="#fff"/>
            <path id="Trazado_191806" data-name="Trazado 191806" d="M407.576,205.036h-1.3v-6.82h-2.333V197.1h5.963v1.112h-2.333Z" transform="translate(-396.491 -197.104)" fill="#fff"/>
            <path id="Trazado_191807" data-name="Trazado 191807" d="M419.327,205.036l-2.3-6.625h-.043q.092,1.476.092,2.767v3.858H415.9V197.1h1.828l2.2,6.31h.032l2.268-6.31h1.834v7.932h-1.248v-3.923q0-.592.03-1.541t.052-1.15h-.043l-2.382,6.614Z" transform="translate(-401.265 -197.104)" fill="#fff"/>
            <path id="Trazado_191808" data-name="Trazado 191808" d="M432.972,205.036V197.1h1.3v6.82h3.359v1.112Z" transform="translate(-408.084 -197.104)" fill="#fff"/>
          </g>
        </g>
      </g>
      <g id="Grupo_131846" data-name="Grupo 131846" transform="translate(227.363 100.041)">
        <g id="Grupo_131840" data-name="Grupo 131840" transform="translate(121.667 45.323)">
          <path id="Trazado_191811" data-name="Trazado 191811" d="M341.232,152.728a17.851,17.851,0,1,0-20.128,17.7l2.4,7.622h2.785l2.4-8.275A17.86,17.86,0,0,0,341.232,152.728Z" transform="translate(-302.745 -134.877)" fill="#d8a159"/>
          <path id="Trazado_191812" data-name="Trazado 191812" d="M336.6,152.728a17.851,17.851,0,1,0-20.127,17.7l5.182,7.622,2.4-8.275A17.859,17.859,0,0,0,336.6,152.728Z" transform="translate(-300.893 -134.877)" fill="#ffc979"/>
          <g id="Grupo_131839" data-name="Grupo 131839" transform="translate(6.528 12.533)">
            <path id="Trazado_191813" data-name="Trazado 191813" d="M318.56,158.725a3.138,3.138,0,0,1-.925,2.425A3.735,3.735,0,0,1,315,162h-.711v3.108h-2.531v-9.368H315a3.964,3.964,0,0,1,2.665.775A2.765,2.765,0,0,1,318.56,158.725Zm-4.267,1.217h.461a1.263,1.263,0,0,0,.907-.32,1.165,1.165,0,0,0,.336-.885q0-.948-1.051-.948h-.653Z" transform="translate(-311.762 -155.745)" fill="#084a93"/>
            <path id="Trazado_191814" data-name="Trazado 191814" d="M333.6,165.113h-2.544v-3.819h-2.941v3.819h-2.544v-9.368h2.544v3.473h2.941v-3.473H333.6Z" transform="translate(-317.276 -155.745)" fill="#084a93"/>
            <path id="Trazado_191815" data-name="Trazado 191815" d="M349.1,158.725a3.138,3.138,0,0,1-.925,2.425,3.735,3.735,0,0,1-2.631.855h-.711v3.108h-2.531v-9.368h3.242a3.964,3.964,0,0,1,2.665.775A2.765,2.765,0,0,1,349.1,158.725Zm-4.267,1.217h.461a1.263,1.263,0,0,0,.907-.32,1.165,1.165,0,0,0,.336-.885q0-.948-1.051-.948h-.653Z" transform="translate(-323.961 -155.745)" fill="#084a93"/>
          </g>
        </g>
        <g id="Grupo_131845" data-name="Grupo 131845" transform="translate(75.154)">
          <path id="Trazado_191816" data-name="Trazado 191816" d="M215.144,47.758H194.869a2.875,2.875,0,0,0-2.875,2.875V70.908a2.875,2.875,0,0,0,2.875,2.875h10.124l5.534,7.351h2.925V73.784h1.691a2.875,2.875,0,0,0,2.875-2.875V50.633A2.875,2.875,0,0,0,215.144,47.758Z" transform="translate(-189.068 -47.758)" fill="#d8a159"/>
          <path id="Trazado_191817" data-name="Trazado 191817" d="M210.272,47.758H190a2.875,2.875,0,0,0-2.876,2.875V70.908A2.875,2.875,0,0,0,190,73.784h10.124l8.46,7.351V73.784h1.691a2.875,2.875,0,0,0,2.875-2.875V50.633A2.875,2.875,0,0,0,210.272,47.758Z" transform="translate(-187.122 -47.758)" fill="#ffc979"/>
          <g id="Grupo_131844" data-name="Grupo 131844" transform="translate(3.906 3.92)">
            <g id="Grupo_131841" data-name="Grupo 131841" transform="translate(11.339 11.339)">
              <path id="Trazado_191818" data-name="Trazado 191818" d="M219.463,77.932a1.55,1.55,0,0,1,0,2.191h0a1.55,1.55,0,0,1-2.191,0l-4.313-4.313a1.55,1.55,0,0,1,0-2.191h0a1.549,1.549,0,0,1,2.191,0Z" transform="translate(-212.505 -73.165)" fill="#084a93"/>
            </g>
            <g id="Grupo_131842" data-name="Grupo 131842">
              <path id="Trazado_191819" data-name="Trazado 191819" d="M203.968,64.628a6.06,6.06,0,1,1,0-8.57A6.067,6.067,0,0,1,203.968,64.628Zm-7.6-7.6a4.693,4.693,0,1,0,6.637,0A4.7,4.7,0,0,0,196.365,57.025Z" transform="translate(-193.626 -54.285)" fill="#084a93"/>
            </g>
            <g id="Grupo_131843" data-name="Grupo 131843" transform="translate(9.376 9.376)">
              <rect id="Rectángulo_294018" data-name="Rectángulo 294018" width="1.367" height="6.646" transform="translate(0 0.967) rotate(-45)" fill="#084a93"/>
            </g>
          </g>
        </g>
      </g>
    </g>
  </g>
</svg>
