<svg xmlns="http://www.w3.org/2000/svg" xmlns:xlink="http://www.w3.org/1999/xlink" width="201.927" height="164.407" viewBox="0 0 201.927 164.407">
  <defs>
    <radialGradient id="radial-gradient" cx="0.451" cy="0.419" r="1.394" gradientTransform="translate(0.159) scale(0.681 1)" gradientUnits="objectBoundingBox">
      <stop offset="0" stop-color="#5b1445"/>
      <stop offset="0.189" stop-color="#551341"/>
      <stop offset="0.424" stop-color="#461036"/>
      <stop offset="0.684" stop-color="#2c0c23"/>
      <stop offset="0.96" stop-color="#09060a"/>
      <stop offset="1" stop-color="#040506"/>
    </radialGradient>
    <linearGradient id="linear-gradient" x1="6.227" y1="4.6" x2="-18.844" y2="-13.047" gradientUnits="objectBoundingBox">
      <stop offset="0.03" stop-color="#433081"/>
      <stop offset="0.303" stop-color="#495396"/>
      <stop offset="0.908" stop-color="#58aece"/>
      <stop offset="1" stop-color="#5bbdd7"/>
    </linearGradient>
    <linearGradient id="linear-gradient-2" x1="5.162" y1="3.85" x2="-19.909" y2="-13.797" xlink:href="#linear-gradient"/>
    <linearGradient id="linear-gradient-3" x1="4.107" y1="3.107" x2="-20.965" y2="-14.54" xlink:href="#linear-gradient"/>
    <linearGradient id="linear-gradient-4" x1="9.154" y1="3.642" x2="-4.141" y2="-1.185" gradientUnits="objectBoundingBox">
      <stop offset="0.035" stop-color="#f2947a"/>
      <stop offset="0.271" stop-color="#f4a37f"/>
      <stop offset="0.725" stop-color="#facb8c"/>
      <stop offset="1" stop-color="#ffe795"/>
    </linearGradient>
    <linearGradient id="linear-gradient-5" x1="7.056" y1="3.234" x2="-4.28" y2="-1.488" xlink:href="#linear-gradient-4"/>
    <linearGradient id="linear-gradient-6" x1="8.257" y1="2.501" x2="-12.159" y2="-2.766" xlink:href="#linear-gradient-4"/>
    <linearGradient id="linear-gradient-7" x1="4.693" y1="2.043" x2="-8.441" y2="-2.791" xlink:href="#linear-gradient-4"/>
    <linearGradient id="linear-gradient-8" x1="1.558" y1="0.882" x2="-10.595" y2="-3.198" xlink:href="#linear-gradient-4"/>
  </defs>
  <g id="Grupo_140195" data-name="Grupo 140195" transform="translate(12033.375 12049.969)">
    <g id="Grupo_131781" data-name="Grupo 131781" transform="translate(-12033.375 -12049.969)">
      <path id="Trazado_191613" data-name="Trazado 191613" d="M-73.964,487.281l-160.069-92.717c-11.511-6.646-20.928-24.641-20.928-39.988v-10.9c0-15.348,9.417-22.468,20.928-15.822l160.069,92.717c11.511,6.646,20.929,24.641,20.929,39.988v10.9C-53.035,486.808-62.453,493.927-73.964,487.281Z" transform="translate(254.962 -325.364)" fill="#aad5f4" opacity="0.61"/>
      <path id="Trazado_191614" data-name="Trazado 191614" d="M-73.963,420.571l-160.07-92.717c-11.511-6.646-20.928.474-20.928,15.821v2.35c0-15.348,9.417-22.468,20.928-15.822l160.07,92.717c11.51,6.646,20.928,24.641,20.928,39.989v-2.35C-53.036,445.212-62.453,427.217-73.963,420.571Z" transform="translate(254.962 -325.364)" fill="url(#radial-gradient)" style="mix-blend-mode: color-dodge;isolation: isolate"/>
      <ellipse id="Elipse_5075" data-name="Elipse 5075" cx="16.999" cy="29.445" rx="16.999" ry="29.445" transform="matrix(0.863, -0.505, 0.505, 0.863, 20.446, 37.807)" fill="#41b8df" opacity="0.35" style="isolation: isolate"/>
      <ellipse id="Elipse_5076" data-name="Elipse 5076" cx="16.999" cy="29.445" rx="16.999" ry="29.445" transform="matrix(0.863, -0.505, 0.505, 0.863, 69.358, 66.924)" fill="#41b8df" opacity="0.35" style="isolation: isolate"/>
      <ellipse id="Elipse_5077" data-name="Elipse 5077" cx="16.999" cy="29.445" rx="16.999" ry="29.445" transform="translate(118.651 95.015) rotate(-30.311)" fill="#41b8df" opacity="0.35" style="isolation: isolate"/>
      <g id="Grupo_131778" data-name="Grupo 131778" transform="translate(29.097 28.759)" opacity="0.5" style="mix-blend-mode: multiply;isolation: isolate">
        <path id="Trazado_191615" data-name="Trazado 191615" d="M-202.36,404.989c-11.535-6.659-20.886-22.788-20.886-36.025,0-6.516,2.273-11.1,5.95-13.3-4.292,1.912-7.01,6.714-7.01,13.831,0,13.236,9.351,29.364,20.886,36.024,5.856,3.382,11.142,3.659,14.935,1.393C-192.177,408.556-197.028,408.068-202.36,404.989Z" transform="translate(224.306 -355.664)" opacity="0.6" fill="url(#linear-gradient)"/>
        <path id="Trazado_191616" data-name="Trazado 191616" d="M-150.828,435.665c-11.535-6.659-20.886-22.788-20.886-36.024,0-6.517,2.274-11.1,5.952-13.3-4.293,1.911-7.012,6.714-7.012,13.831,0,13.236,9.351,29.365,20.886,36.025,5.856,3.381,11.142,3.659,14.935,1.393C-140.645,439.232-145.495,438.744-150.828,435.665Z" transform="translate(221.685 -357.224)" opacity="0.6" fill="url(#linear-gradient-2)"/>
        <path id="Trazado_191617" data-name="Trazado 191617" d="M-98.893,465.262c-11.535-6.659-20.886-22.788-20.886-36.024,0-6.516,2.274-11.1,5.95-13.3-4.292,1.912-7.01,6.715-7.01,13.831,0,13.237,9.351,29.364,20.886,36.025,5.856,3.381,11.142,3.659,14.935,1.392C-88.71,468.829-93.561,468.341-98.893,465.262Z" transform="translate(219.043 -358.73)" opacity="0.6" fill="url(#linear-gradient-3)"/>
      </g>
      <path id="Trazado_191618" data-name="Trazado 191618" d="M-77.4,444.145v21.432l11.57-4.036Zm-155.854-69.336V353.375l-11.571,4.037Z" transform="translate(254.446 -326.789)" fill="#fda000"/>
      <g id="Grupo_131780" data-name="Grupo 131780" transform="translate(37.072 34.846)" opacity="0.57" style="mix-blend-mode: screen;isolation: isolate">
        <path id="Trazado_191619" data-name="Trazado 191619" d="M-214.452,387.727a12.12,12.12,0,0,1-1.451-5.935V366.7q0-3.29,1.451-4.259t4.215.627a10.912,10.912,0,0,1,4.214,4.239,12.134,12.134,0,0,1,1.451,5.936v2.97l-3.637-2.1v-3.251a3.95,3.95,0,0,0-1.924-3.72q-1.923-1.11-1.924,1.5v15.693a3.911,3.911,0,0,0,1.924,3.679q1.923,1.11,1.924-1.458v-4.294l3.637,2.1v3.974q0,3.29-1.451,4.259t-4.214-.627A10.9,10.9,0,0,1-214.452,387.727Z" transform="translate(215.903 -362.078)" fill="url(#linear-gradient-4)"/>
        <path id="Trazado_191620" data-name="Trazado 191620" d="M-200.739,389.031l-1.714-.989.279-2.969,1.714.989.664-6.961-1.748-1.009.28-2.969,1.748,1.009.6-6.118,3.042,1.757-.594,6.118,2.483,1.434.6-6.118,3.043,1.757-.6,6.118,1.784,1.03-.28,2.969-1.783-1.03-.665,6.961,1.784,1.03-.28,2.969-1.783-1.03-.735,7.6-3.043-1.757.735-7.6-2.484-1.434-.735,7.6-3.042-1.756Zm5.8.222.665-6.961-2.484-1.434-.664,6.961Z" transform="translate(215.219 -362.481)" fill="url(#linear-gradient-5)"/>
        <path id="Trazado_191621" data-name="Trazado 191621" d="M-160.564,421.7V417.69a8.069,8.069,0,0,0,1.259.887q1.155.666,1.714.327c.372-.227.559-.793.559-1.7V395.649l3.848,2.221V419.3q0,3.452-1.382,4.339t-4.214-.747A14.646,14.646,0,0,1-160.564,421.7Z" transform="translate(213.088 -363.785)" fill="url(#linear-gradient-6)"/>
        <path id="Trazado_191622" data-name="Trazado 191622" d="M-149.145,426.867a12.557,12.557,0,0,1-1.433-6.065V419.2l3.637,2.1v1.927a4.117,4.117,0,0,0,1.993,3.88q.98.565,1.486.2t.508-1.855a9.4,9.4,0,0,0-.7-3.514,31.48,31.48,0,0,0-2.588-4.725,37.5,37.5,0,0,1-3.323-6.273,13.871,13.871,0,0,1-.944-4.94q0-3.331,1.469-4.309t4.267.638a10.663,10.663,0,0,1,4.179,4.239,12.623,12.623,0,0,1,1.417,6.056v1.164l-3.638-2.1v-1.445a5.17,5.17,0,0,0-.49-2.39,3.61,3.61,0,0,0-1.433-1.49q-1.925-1.11-1.924,1.578a8.582,8.582,0,0,0,.717,3.264,33.277,33.277,0,0,0,2.605,4.714,34.766,34.766,0,0,1,3.323,6.294,14.871,14.871,0,0,1,.909,5.14q0,3.452-1.486,4.44t-4.32-.648A10.836,10.836,0,0,1-149.145,426.867Z" transform="translate(212.58 -364.073)" fill="url(#linear-gradient-7)"/>
        <g id="Grupo_131779" data-name="Grupo 131779" transform="translate(105.388 59.055)" opacity="0.9">
          <path id="Trazado_191623" data-name="Trazado 191623" d="M-104.868,424.3l5.961,3.442a11.925,11.925,0,0,1,4.535,4.276,11.7,11.7,0,0,1,1.426,5.922v1.8q0,4.574-2.633,4.271v.085a7.383,7.383,0,0,1,2.066,3.249,14.945,14.945,0,0,1,.6,4.5v5.161q0,1.259.073,2.077a8.174,8.174,0,0,0,.365,1.744l-4.1-2.365a10.542,10.542,0,0,1-.292-1.511q-.074-.672-.073-2.308v-5.372a7.1,7.1,0,0,0-.568-3.139,4.76,4.76,0,0,0-1.956-1.927l-1.39-.8v12.589l-4.022-2.323Zm5.485,15.757q1.207.7,1.811.331t.6-2.043v-2.266a5.862,5.862,0,0,0-.494-2.593,3.794,3.794,0,0,0-1.554-1.611l-1.829-1.056v8.393Z" transform="translate(104.868 -424.297)" fill="url(#linear-gradient-8)"/>
        </g>
      </g>
    </g>
  </g>
</svg>
