<svg xmlns="http://www.w3.org/2000/svg" width="110.99" height="195.534" viewBox="0 0 110.99 195.534">
  <g id="Grupo_140196" data-name="Grupo 140196" transform="translate(11927.991 12161.322)">
    <path id="Unión_3" data-name="Unión 3" d="M0,61.239V57.962L35.551,78.678v3.278Zm0-6.714V51.247L35.551,71.964v3.278ZM0,41.1V37.819L35.551,58.536v3.278Zm0-7.564V30.256L35.551,50.972v3.278Zm0-7.563V22.692L35.551,43.408v3.278Zm0-7.564V15.127L35.551,35.844v3.278Zm0-7.564V7.563L35.551,28.28v3.278ZM0,3.278V0L35.551,20.716v3.278Z" transform="translate(-11852.552 -12132.906)" fill="#42b6d5"/>
    <g id="Grupo_140194" data-name="Grupo 140194">
      <path id="Trazado_191626" data-name="Trazado 191626" d="M-104.134,245.549l-14.5-8.372v3.277l14.5,8.372Zm-1.318,6.8-12.158-7.02v3.277l12.158,7.02Zm11.28-1.053-7.617-4.4v3.277l7.617,4.4Zm-9.082-9.529,3.516,2.029v-3.277l-3.516-2.029Zm12.012-8.193,15.819,9.134v-3.278L-91.243,230.3Zm9.667,17.432-15.819-9.134v3.277l15.819,9.134Zm-15.673,9.357,15.82,9.134v-3.278l-15.82-9.134Zm19.19-14.891-5.714-3.3v3.277l5.714,3.3Zm-13.77,10.456,5.713,3.3v-3.277l-5.713-3.3Zm-35.3-23.659-2.659-1.535v3.277l2.659,1.536Zm24.024,24.711,3.516,2.03v-3.278l-3.516-2.029Zm-16.845-13-9.837-5.679v3.277l9.837,5.68Zm6.005-26.788-9.96-5.751v3.278l9.96,5.751Zm-7.031,21.911v-3.278l-3.809-2.2V236.9Zm27.246.6,7.617,4.4v-3.278l-7.617-4.4ZM-97.1,230.2l3.516,2.029v-3.277l-3.516-2.03Zm-13.476-.217,14.5,8.373v-3.278l-14.5-8.372Zm-9.522-1.211-9.69-5.594v3.278l9.69,5.594Zm33.544-3.325v3.278l7.617,4.4V229.84Zm9.96,9.029,6.391,3.689v-3.278l-6.391-3.688Zm6.391,58.373-13.568-7.833v3.278l13.568,7.833Zm-5.511-42.738,5.511,3.182V250.01l-5.511-3.182Zm-3.516,5.534,9.026,5.212v-3.277l-9.026-5.212Zm.146,15.212,8.88,5.127V272.7l-8.88-5.127Zm-4.688-10.27,13.568,7.833v-3.277l-13.568-7.833Zm10.693-16.518,2.875,1.659v-3.277l-2.875-1.66ZM-113.8,212.99l10.254,5.92v-3.278l-10.254-5.92Zm27.684,70.668-5.713-3.3v3.277l5.713,3.3Zm-26.806-58.311-8.057-4.651v3.277l8.057,4.652Zm-10.4-6-6.467-3.734v3.278l6.467,3.733Zm5.567,14.056,12.158,7.019V237.14l-12.158-7.019Zm-8.5-23.311-3.537-2.043v3.278l3.537,2.042Zm14.648,11.734,12.158,7.02v-3.277l-12.158-7.02Zm10.4-1.559,12.3,7.1v-3.277l-12.3-7.1ZM-79.231,284.2l9.026,5.212v-3.277l-9.026-5.212Zm-18.164-10.487,15.819,9.134v-3.277l-15.819-9.134Zm-5.86-3.383,3.516,2.03v-3.278l-3.516-2.029Zm-14.5-8.372,12.158,7.02V265.7l-12.158-7.019Z" transform="translate(-11784.78 -12369.367)" fill="#003b82" opacity="0.8" style="isolation: isolate"/>
      <g id="Grupo_131784" data-name="Grupo 131784" transform="translate(-11927.991 -12099.526)">
        <path id="Trazado_191643" data-name="Trazado 191643" d="M-141.066,276.11l-2-1.157v-1.56a5.736,5.736,0,0,0,1.315.6.947.947,0,0,0,.792-.072,1.6,1.6,0,0,0,.523-.769l1.29.746v13.99l-1.917-1.106Z" transform="translate(143.887 -273.152)" fill="#003b82"/>
        <path id="Trazado_191644" data-name="Trazado 191644" d="M-135.29,289.369a6.143,6.143,0,0,1-.75-3.032v-7.356q0-1.68.75-2.166t2.159.328a5.609,5.609,0,0,1,2.159,2.166,6.132,6.132,0,0,1,.75,3.031V289.7q0,1.68-.75,2.166c-.5.327-1.22.215-2.159-.326A5.624,5.624,0,0,1-135.29,289.369Zm3.152-.639v-7.635a2.068,2.068,0,0,0-.993-1.953q-.992-.574-.993.808v7.635a2.069,2.069,0,0,0,.993,1.951Q-132.137,290.108-132.138,288.73Z" transform="translate(143.53 -273.329)" fill="#003b82"/>
        <path id="Trazado_191645" data-name="Trazado 191645" d="M-127.4,293.924a6.135,6.135,0,0,1-.75-3.032v-7.356c0-1.12.25-1.839.75-2.166s1.22-.213,2.159.328a5.624,5.624,0,0,1,2.159,2.167,6.143,6.143,0,0,1,.75,3.032v7.356c0,1.117-.25,1.842-.75,2.166s-1.219.215-2.159-.328A5.624,5.624,0,0,1-127.4,293.924Zm3.152-.639V285.65a2.068,2.068,0,0,0-.993-1.951q-.992-.577-.993.806v7.635a2.069,2.069,0,0,0,.993,1.951Q-124.248,294.663-124.247,293.285Z" transform="translate(143.128 -273.561)" fill="#003b82"/>
        <path id="Trazado_191646" data-name="Trazado 191646" d="M-119.508,298.479a6.133,6.133,0,0,1-.749-3.03v-7.355q0-1.68.749-2.167t2.159.329a5.605,5.605,0,0,1,2.162,2.164,6.172,6.172,0,0,1,.747,3.032v7.356q0,1.68-.747,2.166t-2.162-.327A5.635,5.635,0,0,1-119.508,298.479Zm3.153-.636v-7.636a2.07,2.07,0,0,0-.994-1.953q-.992-.572-.992.806V296.7a2.069,2.069,0,0,0,.992,1.95Q-116.357,299.221-116.355,297.843Z" transform="translate(142.727 -273.793)" fill="#003b82"/>
        <path id="Trazado_191647" data-name="Trazado 191647" d="M-109.5,294.334l-2-1.155v-1.56a5.731,5.731,0,0,0,1.315.6.958.958,0,0,0,.793-.074,1.614,1.614,0,0,0,.523-.766l1.289.742v13.994l-1.916-1.107Z" transform="translate(142.282 -274.079)" fill="#003b82"/>
        <path id="Trazado_191648" data-name="Trazado 191648" d="M-103.725,307.592a6.135,6.135,0,0,1-.749-3.03v-7.355q0-1.681.749-2.167t2.159.327a5.637,5.637,0,0,1,2.16,2.166,6.157,6.157,0,0,1,.749,3.033v7.355c0,1.118-.25,1.842-.749,2.167s-1.22.215-2.16-.329A5.6,5.6,0,0,1-103.725,307.592Zm3.153-.636V299.32a2.067,2.067,0,0,0-.994-1.953q-.992-.574-.992.8v7.636a2.068,2.068,0,0,0,.992,1.951Q-100.572,308.331-100.572,306.956Z" transform="translate(141.924 -274.256)" fill="#003b82"/>
        <path id="Trazado_191649" data-name="Trazado 191649" d="M-93.717,303.446l-2-1.157v-1.559a5.646,5.646,0,0,0,1.316.6.944.944,0,0,0,.792-.072,1.6,1.6,0,0,0,.523-.768l1.289.745v13.993l-1.916-1.106Z" transform="translate(141.479 -274.542)" fill="#003b82"/>
        <path id="Trazado_191650" data-name="Trazado 191650" d="M-87.942,316.7a6.149,6.149,0,0,1-.75-3.03v-7.356q0-1.68.75-2.169t2.159.329a5.633,5.633,0,0,1,2.161,2.166,6.162,6.162,0,0,1,.748,3.032v7.356c0,1.118-.25,1.842-.748,2.166s-1.22.215-2.161-.328A5.609,5.609,0,0,1-87.942,316.7Zm3.152-.639v-7.633a2.069,2.069,0,0,0-.993-1.954q-.992-.572-.993.806v7.636a2.066,2.066,0,0,0,.993,1.951Q-84.789,317.444-84.79,316.066Z" transform="translate(141.121 -274.719)" fill="#003b82"/>
        <path id="Trazado_191651" data-name="Trazado 191651" d="M-77.934,312.559l-2-1.157v-1.56a5.648,5.648,0,0,0,1.315.6.951.951,0,0,0,.794-.072,1.621,1.621,0,0,0,.522-.768l1.289.745v13.99l-1.916-1.106Z" transform="translate(140.676 -275.006)" fill="#003b82"/>
        <path id="Trazado_191652" data-name="Trazado 191652" d="M-70.043,317.114l-2-1.155V314.4a5.779,5.779,0,0,0,1.315.6.957.957,0,0,0,.794-.074,1.616,1.616,0,0,0,.523-.766l1.288.743v13.993l-1.916-1.107Z" transform="translate(140.275 -275.238)" fill="#003b82"/>
        <path id="Trazado_191653" data-name="Trazado 191653" d="M-62.151,321.671l-2-1.158v-1.559a5.709,5.709,0,0,0,1.316.6.947.947,0,0,0,.793-.071,1.636,1.636,0,0,0,.523-.769l1.289.745v13.991l-1.916-1.106Z" transform="translate(139.873 -275.469)" fill="#003b82"/>
        <path id="Trazado_191654" data-name="Trazado 191654" d="M-56.377,334.93a6.153,6.153,0,0,1-.749-3.032v-7.356q0-1.68.749-2.166t2.159.328a5.6,5.6,0,0,1,2.161,2.166,6.149,6.149,0,0,1,.747,3.03v7.356q0,1.68-.747,2.166c-.5.327-1.22.215-2.161-.327A5.628,5.628,0,0,1-56.377,334.93Zm3.154-.639v-7.636a2.071,2.071,0,0,0-.995-1.953q-.992-.572-.992.808v7.636a2.068,2.068,0,0,0,.992,1.951Q-53.224,335.669-53.223,334.291Z" transform="translate(139.516 -275.646)" fill="#003b82"/>
        <path id="Trazado_191655" data-name="Trazado 191655" d="M-48.485,339.485a6.146,6.146,0,0,1-.75-3.03V329.1q0-1.681.75-2.169t2.16.328a5.647,5.647,0,0,1,2.159,2.166,6.157,6.157,0,0,1,.75,3.033v7.355c0,1.118-.251,1.842-.75,2.167s-1.22.215-2.159-.329A5.586,5.586,0,0,1-48.485,339.485Zm3.153-.639v-7.633a2.068,2.068,0,0,0-.993-1.953q-.994-.572-.994.8V337.7a2.068,2.068,0,0,0,.994,1.951C-45.663,340.033-45.332,339.767-45.332,338.846Z" transform="translate(139.115 -275.878)" fill="#003b82"/>
        <path id="Trazado_191656" data-name="Trazado 191656" d="M-141.066,293.877l-2-1.157v-1.56a5.562,5.562,0,0,0,1.315.6.951.951,0,0,0,.792-.071,1.6,1.6,0,0,0,.523-.769l1.29.746v13.99l-1.917-1.106Z" transform="translate(143.887 -274.056)" fill="#003b82"/>
        <path id="Trazado_191657" data-name="Trazado 191657" d="M-133.174,298.433l-2-1.157v-1.56a5.533,5.533,0,0,0,1.315.6.95.95,0,0,0,.793-.072,1.6,1.6,0,0,0,.522-.766l1.289.743v13.99l-1.915-1.106Z" transform="translate(143.486 -274.288)" fill="#003b82"/>
        <path id="Trazado_191658" data-name="Trazado 191658" d="M-127.4,311.691a6.133,6.133,0,0,1-.75-3.03v-7.355q0-1.681.75-2.169t2.159.328a5.624,5.624,0,0,1,2.159,2.167,6.136,6.136,0,0,1,.75,3.032v7.355q0,1.677-.75,2.164t-2.159-.326A5.637,5.637,0,0,1-127.4,311.691Zm3.152-.639v-7.635a2.067,2.067,0,0,0-.993-1.951q-.992-.572-.993.806v7.635a2.069,2.069,0,0,0,.993,1.951Q-124.248,312.43-124.247,311.052Z" transform="translate(143.128 -274.464)" fill="#003b82"/>
        <path id="Trazado_191659" data-name="Trazado 191659" d="M-117.39,307.545l-2-1.158v-1.559a5.64,5.64,0,0,0,1.315.6.952.952,0,0,0,.793-.071,1.627,1.627,0,0,0,.523-.769l1.288.745v13.991l-1.915-1.107Z" transform="translate(142.683 -274.751)" fill="#003b82"/>
        <path id="Trazado_191660" data-name="Trazado 191660" d="M-111.617,320.8a6.148,6.148,0,0,1-.748-3.033v-7.355q0-1.68.748-2.166t2.16.328a5.646,5.646,0,0,1,2.161,2.166,6.158,6.158,0,0,1,.747,3.033v7.355q0,1.677-.747,2.164t-2.161-.326A5.643,5.643,0,0,1-111.617,320.8Zm3.153-.639v-7.636a2.064,2.064,0,0,0-.993-1.95q-.992-.577-.993.8v7.636a2.066,2.066,0,0,0,.993,1.951Q-108.463,321.543-108.464,320.165Z" transform="translate(142.325 -274.928)" fill="#003b82"/>
        <path id="Trazado_191661" data-name="Trazado 191661" d="M-101.608,316.658l-2-1.157v-1.56a5.617,5.617,0,0,0,1.316.6.954.954,0,0,0,.792-.072,1.619,1.619,0,0,0,.524-.768l1.289.745v13.991l-1.916-1.107Z" transform="translate(141.88 -275.214)" fill="#003b82"/>
        <path id="Trazado_191662" data-name="Trazado 191662" d="M-95.834,329.914a6.138,6.138,0,0,1-.749-3.03v-7.355q0-1.681.749-2.167t2.16.328a5.624,5.624,0,0,1,2.159,2.167,6.128,6.128,0,0,1,.749,3.03v7.355q0,1.681-.749,2.167t-2.159-.327A5.618,5.618,0,0,1-95.834,329.914Zm3.153-.636v-7.636a2.066,2.066,0,0,0-.993-1.953q-.992-.574-.993.808v7.635a2.068,2.068,0,0,0,.993,1.951Q-92.68,330.655-92.681,329.278Z" transform="translate(141.523 -275.391)" fill="#003b82"/>
        <path id="Trazado_191663" data-name="Trazado 191663" d="M-85.825,325.77l-2-1.157v-1.56a5.773,5.773,0,0,0,1.315.6.962.962,0,0,0,.794-.072,1.635,1.635,0,0,0,.522-.769l1.288.746v13.99l-1.915-1.106Z" transform="translate(141.078 -275.678)" fill="#003b82"/>
        <path id="Trazado_191664" data-name="Trazado 191664" d="M-77.934,330.325l-2-1.157v-1.56a5.649,5.649,0,0,0,1.315.6.951.951,0,0,0,.794-.072,1.62,1.62,0,0,0,.522-.769l1.289.746V342.1L-77.934,341Z" transform="translate(140.676 -275.909)" fill="#003b82"/>
        <path id="Trazado_191665" data-name="Trazado 191665" d="M-70.043,334.881l-2-1.155v-1.559a5.778,5.778,0,0,0,1.315.6.957.957,0,0,0,.794-.074,1.616,1.616,0,0,0,.523-.766l1.288.743v13.993l-1.916-1.107Z" transform="translate(140.275 -276.141)" fill="#003b82"/>
        <path id="Trazado_191666" data-name="Trazado 191666" d="M-64.269,348.139a6.153,6.153,0,0,1-.749-3.03v-7.355q0-1.68.749-2.167t2.16.327a5.635,5.635,0,0,1,2.161,2.167,6.162,6.162,0,0,1,.747,3.032v7.356q0,1.68-.747,2.166t-2.161-.328A5.614,5.614,0,0,1-64.269,348.139Zm3.154-.636v-7.636a2.068,2.068,0,0,0-.994-1.953q-.992-.572-.993.806v7.635a2.069,2.069,0,0,0,.993,1.951Q-61.115,348.882-61.115,347.5Z" transform="translate(139.917 -276.318)" fill="#003b82"/>
        <path id="Trazado_191667" data-name="Trazado 191667" d="M-56.377,352.694a6.134,6.134,0,0,1-.749-3.029v-7.356q0-1.68.749-2.167t2.159.329a5.62,5.62,0,0,1,2.161,2.166,6.149,6.149,0,0,1,.747,3.03v7.356q0,1.68-.747,2.166t-2.161-.327A5.622,5.622,0,0,1-56.377,352.694Zm3.154-.636v-7.636a2.069,2.069,0,0,0-.995-1.953q-.992-.572-.992.808v7.636a2.066,2.066,0,0,0,.992,1.95Q-53.224,353.436-53.223,352.058Z" transform="translate(139.516 -276.55)" fill="#003b82"/>
        <path id="Trazado_191668" data-name="Trazado 191668" d="M-46.369,348.551l-2-1.157v-1.56a5.677,5.677,0,0,0,1.315.6.958.958,0,0,0,.793-.072,1.618,1.618,0,0,0,.522-.768l1.289.745v13.991l-1.916-1.107Z" transform="translate(139.071 -276.837)" fill="#003b82"/>
        <path id="Trazado_191669" data-name="Trazado 191669" d="M-143.181,320.348a6.145,6.145,0,0,1-.75-3.033V309.96q0-1.68.75-2.166t2.159.328a5.628,5.628,0,0,1,2.159,2.166,6.139,6.139,0,0,1,.749,3.033v7.355q0,1.677-.749,2.164c-.5.327-1.22.215-2.159-.326A5.615,5.615,0,0,1-143.181,320.348Zm3.152-.639v-7.636a2.07,2.07,0,0,0-.993-1.953q-.992-.572-.993.808v7.636a2.069,2.069,0,0,0,.993,1.951Q-140.028,321.087-140.029,319.709Z" transform="translate(143.931 -274.905)" fill="#003b82"/>
        <path id="Trazado_191670" data-name="Trazado 191670" d="M-135.29,324.9a6.136,6.136,0,0,1-.75-3.03v-7.356q0-1.68.75-2.168t2.159.328a5.635,5.635,0,0,1,2.159,2.166,6.144,6.144,0,0,1,.75,3.033v7.355c0,1.118-.25,1.842-.75,2.167s-1.22.215-2.159-.329A5.59,5.59,0,0,1-135.29,324.9Zm3.152-.639v-7.633a2.066,2.066,0,0,0-.993-1.953q-.992-.574-.993.8v7.636a2.069,2.069,0,0,0,.993,1.951C-132.468,325.451-132.138,325.184-132.138,324.264Z" transform="translate(143.53 -275.136)" fill="#003b82"/>
        <path id="Trazado_191671" data-name="Trazado 191671" d="M-125.284,320.757l-2-1.157V318.04a5.678,5.678,0,0,0,1.315.6.946.946,0,0,0,.793-.072,1.6,1.6,0,0,0,.524-.768l1.288.745v13.991l-1.917-1.107Z" transform="translate(143.084 -275.423)" fill="#003b82"/>
        <path id="Trazado_191672" data-name="Trazado 191672" d="M-119.508,334.016a6.138,6.138,0,0,1-.749-3.03V323.63q0-1.68.749-2.169t2.159.329a5.629,5.629,0,0,1,2.162,2.166,6.167,6.167,0,0,1,.747,3.032v7.356q0,1.677-.747,2.164t-2.162-.326A5.647,5.647,0,0,1-119.508,334.016Zm3.153-.639v-7.636a2.069,2.069,0,0,0-.994-1.951q-.992-.572-.992.806v7.636a2.066,2.066,0,0,0,.992,1.95Q-116.357,334.755-116.355,333.377Z" transform="translate(142.727 -275.6)" fill="#003b82"/>
        <path id="Trazado_191673" data-name="Trazado 191673" d="M-109.5,329.87l-2-1.157v-1.56a5.649,5.649,0,0,0,1.315.6.948.948,0,0,0,.793-.072,1.632,1.632,0,0,0,.523-.768l1.289.745v13.99l-1.916-1.106Z" transform="translate(142.282 -275.886)" fill="#003b82"/>
        <path id="Trazado_191674" data-name="Trazado 191674" d="M-101.608,334.425l-2-1.157v-1.56a5.64,5.64,0,0,0,1.316.6.95.95,0,0,0,.792-.074,1.6,1.6,0,0,0,.524-.766l1.289.743v13.993l-1.916-1.107Z" transform="translate(141.88 -276.118)" fill="#003b82"/>
        <path id="Trazado_191675" data-name="Trazado 191675" d="M-93.717,338.98l-2-1.155v-1.559a5.729,5.729,0,0,0,1.316.6.963.963,0,0,0,.792-.071,1.622,1.622,0,0,0,.523-.769l1.289.743V350.76l-1.916-1.106Z" transform="translate(141.479 -276.35)" fill="#003b82"/>
        <path id="Trazado_191676" data-name="Trazado 191676" d="M-87.942,352.238a6.135,6.135,0,0,1-.75-3.029v-7.356q0-1.68.75-2.166t2.159.328a5.62,5.62,0,0,1,2.161,2.166,6.15,6.15,0,0,1,.748,3.03v7.356q0,1.68-.748,2.166t-2.161-.327A5.622,5.622,0,0,1-87.942,352.238Zm3.152-.636v-7.636a2.068,2.068,0,0,0-.993-1.953q-.992-.572-.993.808v7.636a2.069,2.069,0,0,0,.993,1.951Q-84.789,352.98-84.79,351.6Z" transform="translate(141.121 -276.527)" fill="#003b82"/>
        <path id="Trazado_191677" data-name="Trazado 191677" d="M-80.051,356.8a6.136,6.136,0,0,1-.75-3.03v-7.355q0-1.681.75-2.169t2.159.328a5.639,5.639,0,0,1,2.161,2.166,6.161,6.161,0,0,1,.748,3.033v7.355q0,1.677-.748,2.164t-2.161-.326A5.641,5.641,0,0,1-80.051,356.8Zm3.152-.639v-7.635a2.065,2.065,0,0,0-.993-1.951q-.992-.574-.993.8v7.636a2.069,2.069,0,0,0,.993,1.951Q-76.9,357.535-76.9,356.157Z" transform="translate(140.72 -276.759)" fill="#003b82"/>
        <path id="Trazado_191678" data-name="Trazado 191678" d="M-70.043,352.65l-2-1.157v-1.559a5.7,5.7,0,0,0,1.315.6.951.951,0,0,0,.794-.072,1.633,1.633,0,0,0,.523-.768l1.288.745v13.991l-1.916-1.107Z" transform="translate(140.275 -277.045)" fill="#003b82"/>
        <path id="Trazado_191679" data-name="Trazado 191679" d="M-64.269,365.909a6.167,6.167,0,0,1-.749-3.033v-7.355q0-1.681.749-2.167t2.16.329a5.614,5.614,0,0,1,2.161,2.166,6.157,6.157,0,0,1,.747,3.032v7.356q0,1.677-.747,2.164c-.5.327-1.22.215-2.161-.327A5.643,5.643,0,0,1-64.269,365.909Zm3.154-.639v-7.636a2.07,2.07,0,0,0-.994-1.953q-.992-.572-.993.808v7.636a2.066,2.066,0,0,0,.993,1.95Q-61.115,366.648-61.115,365.27Z" transform="translate(139.917 -277.222)" fill="#003b82"/>
        <path id="Trazado_191680" data-name="Trazado 191680" d="M-54.26,361.761l-2-1.155v-1.56a5.732,5.732,0,0,0,1.315.6.966.966,0,0,0,.793-.072,1.625,1.625,0,0,0,.523-.768l1.289.742V373.54l-1.916-1.106Z" transform="translate(139.472 -277.508)" fill="#003b82"/>
        <path id="Trazado_191681" data-name="Trazado 191681" d="M-48.485,375.019a6.141,6.141,0,0,1-.75-3.03v-7.356q0-1.68.75-2.166t2.16.328a5.63,5.63,0,0,1,2.159,2.167,6.136,6.136,0,0,1,.75,3.03v7.355q0,1.68-.75,2.167t-2.159-.327A5.611,5.611,0,0,1-48.485,375.019Zm3.153-.637v-7.635a2.068,2.068,0,0,0-.993-1.953q-.994-.574-.994.808v7.635a2.067,2.067,0,0,0,.994,1.951Q-45.333,375.76-45.332,374.382Z" transform="translate(139.115 -277.686)" fill="#003b82"/>
        <path id="Trazado_191682" data-name="Trazado 191682" d="M-141.066,329.412l-2-1.155V326.7a5.544,5.544,0,0,0,1.315.6.944.944,0,0,0,.792-.071,1.6,1.6,0,0,0,.523-.766l1.29.742v13.994l-1.917-1.107Z" transform="translate(143.887 -275.863)" fill="#003b82"/>
        <path id="Trazado_191683" data-name="Trazado 191683" d="M-133.174,333.969l-2-1.157v-1.56a5.7,5.7,0,0,0,1.315.6.957.957,0,0,0,.793-.072,1.6,1.6,0,0,0,.522-.768l1.289.745v13.991l-1.915-1.107Z" transform="translate(143.486 -276.095)" fill="#003b82"/>
        <path id="Trazado_191684" data-name="Trazado 191684" d="M-127.4,347.225a6.128,6.128,0,0,1-.75-3.03v-7.356q0-1.68.75-2.166t2.159.328a5.6,5.6,0,0,1,2.159,2.167,6.126,6.126,0,0,1,.75,3.03v7.355q0,1.68-.75,2.167t-2.159-.327A5.629,5.629,0,0,1-127.4,347.225Zm3.152-.637v-7.635A2.068,2.068,0,0,0-125.24,337q-.992-.574-.993.808v7.633a2.072,2.072,0,0,0,.993,1.953Q-124.248,347.966-124.247,346.588Z" transform="translate(143.128 -276.272)" fill="#003b82"/>
        <path id="Trazado_191685" data-name="Trazado 191685" d="M-119.508,351.783a6.141,6.141,0,0,1-.749-3.033V341.4c0-1.121.249-1.84.749-2.167s1.22-.213,2.159.329a5.623,5.623,0,0,1,2.162,2.166,6.172,6.172,0,0,1,.747,3.032v7.356c0,1.118-.25,1.842-.747,2.166s-1.22.215-2.162-.328A5.635,5.635,0,0,1-119.508,351.783Zm3.153-.64v-7.635a2.069,2.069,0,0,0-.994-1.951q-.992-.575-.992.806V350a2.066,2.066,0,0,0,.992,1.951Q-116.357,352.521-116.355,351.143Z" transform="translate(142.727 -276.504)" fill="#003b82"/>
        <path id="Trazado_191686" data-name="Trazado 191686" d="M-111.617,356.338a6.145,6.145,0,0,1-.748-3.03v-7.356q0-1.68.748-2.166t2.16.327a5.639,5.639,0,0,1,2.161,2.166,6.162,6.162,0,0,1,.747,3.032v7.356q0,1.68-.747,2.166t-2.161-.328A5.611,5.611,0,0,1-111.617,356.338Zm3.153-.637v-7.636a2.068,2.068,0,0,0-.993-1.953q-.992-.572-.993.806v7.636a2.066,2.066,0,0,0,.993,1.95Q-108.463,357.08-108.464,355.7Z" transform="translate(142.325 -276.735)" fill="#003b82"/>
        <path id="Trazado_191687" data-name="Trazado 191687" d="M-103.725,360.895a6.135,6.135,0,0,1-.749-3.032v-7.356c0-1.12.249-1.839.749-2.166s1.219-.215,2.159.328a5.633,5.633,0,0,1,2.16,2.167,6.135,6.135,0,0,1,.749,3.03v7.355q0,1.68-.749,2.167t-2.16-.327A5.63,5.63,0,0,1-103.725,360.895Zm3.153-.639v-7.635a2.071,2.071,0,0,0-.994-1.953q-.992-.574-.992.808v7.635a2.068,2.068,0,0,0,.992,1.951Q-100.572,361.634-100.572,360.256Z" transform="translate(141.924 -276.967)" fill="#003b82"/>
        <path id="Trazado_191688" data-name="Trazado 191688" d="M-93.717,356.749l-2-1.158v-1.559a5.728,5.728,0,0,0,1.316.6.955.955,0,0,0,.792-.071,1.622,1.622,0,0,0,.523-.769l1.289.745v13.991l-1.916-1.107Z" transform="translate(141.479 -277.253)" fill="#003b82"/>
        <path id="Trazado_191689" data-name="Trazado 191689" d="M-87.942,370.008a6.153,6.153,0,0,1-.75-3.032V359.62q0-1.68.75-2.167t2.159.329a5.6,5.6,0,0,1,2.161,2.166,6.15,6.15,0,0,1,.748,3.03v7.356q0,1.68-.748,2.166c-.5.327-1.22.215-2.161-.326A5.641,5.641,0,0,1-87.942,370.008Zm3.152-.639v-7.636a2.069,2.069,0,0,0-.993-1.953q-.992-.572-.993.808v7.636a2.066,2.066,0,0,0,.993,1.95Q-84.789,370.747-84.79,369.369Z" transform="translate(141.121 -277.431)" fill="#003b82"/>
        <path id="Trazado_191690" data-name="Trazado 191690" d="M-77.934,365.86l-2-1.155v-1.56a5.731,5.731,0,0,0,1.315.6.961.961,0,0,0,.794-.074,1.614,1.614,0,0,0,.522-.766l1.289.743V377.64l-1.916-1.107Z" transform="translate(140.676 -277.717)" fill="#003b82"/>
        <path id="Trazado_191691" data-name="Trazado 191691" d="M-72.16,379.118a6.135,6.135,0,0,1-.749-3.03v-7.355q0-1.681.749-2.167t2.159.327a5.635,5.635,0,0,1,2.162,2.166,6.176,6.176,0,0,1,.747,3.033v7.355q0,1.681-.747,2.167T-70,381.284A5.609,5.609,0,0,1-72.16,379.118Zm3.154-.636v-7.636A2.068,2.068,0,0,0-70,368.893q-.992-.574-.992.8v7.636A2.068,2.068,0,0,0-70,379.285Q-69.007,379.86-69.006,378.482Z" transform="translate(140.319 -277.894)" fill="#003b82"/>
        <path id="Trazado_191692" data-name="Trazado 191692" d="M-62.151,374.972l-2-1.154v-1.56a5.6,5.6,0,0,0,1.316.6.947.947,0,0,0,.793-.072,1.62,1.62,0,0,0,.523-.766l1.289.743v13.993l-1.916-1.106Z" transform="translate(139.873 -278.18)" fill="#003b82"/>
        <path id="Trazado_191693" data-name="Trazado 191693" d="M-54.26,379.529l-2-1.157v-1.56a5.772,5.772,0,0,0,1.315.6.959.959,0,0,0,.793-.072,1.629,1.629,0,0,0,.523-.769l1.289.746v13.99L-54.26,390.2Z" transform="translate(139.472 -278.412)" fill="#003b82"/>
        <path id="Trazado_191694" data-name="Trazado 191694" d="M-48.485,392.788a6.154,6.154,0,0,1-.75-3.032V382.4q0-1.68.75-2.166t2.16.328a5.618,5.618,0,0,1,2.159,2.167,6.136,6.136,0,0,1,.75,3.03v7.355q0,1.68-.75,2.167c-.5.326-1.22.215-2.159-.327A5.62,5.62,0,0,1-48.485,392.788Zm3.153-.639v-7.635a2.071,2.071,0,0,0-.993-1.953q-.994-.574-.994.808V391a2.067,2.067,0,0,0,.994,1.951Q-45.333,393.527-45.332,392.149Z" transform="translate(139.115 -278.589)" fill="#003b82"/>
        <path id="Trazado_191695" data-name="Trazado 191695" d="M-141.066,347.181l-2-1.157v-1.56a5.615,5.615,0,0,0,1.315.6.954.954,0,0,0,.792-.072,1.6,1.6,0,0,0,.523-.768l1.29.745v13.99l-1.917-1.106Z" transform="translate(143.887 -276.767)" fill="#003b82"/>
        <path id="Trazado_191696" data-name="Trazado 191696" d="M-135.29,360.437a6.131,6.131,0,0,1-.75-3.03v-7.356q0-1.68.75-2.166t2.159.328a5.618,5.618,0,0,1,2.159,2.167,6.126,6.126,0,0,1,.75,3.03v7.355q0,1.68-.75,2.166t-2.159-.326A5.616,5.616,0,0,1-135.29,360.437Zm3.152-.637v-7.635a2.066,2.066,0,0,0-.993-1.953q-.992-.574-.993.808v7.635a2.069,2.069,0,0,0,.993,1.951Q-132.137,361.178-132.138,359.8Z" transform="translate(143.53 -276.944)" fill="#003b82"/>
        <path id="Trazado_191697" data-name="Trazado 191697" d="M-127.4,364.994a6.133,6.133,0,0,1-.75-3.03v-7.355q0-1.68.75-2.169t2.159.328a5.624,5.624,0,0,1,2.159,2.167,6.136,6.136,0,0,1,.75,3.032v7.356q0,1.676-.75,2.164t-2.159-.326A5.637,5.637,0,0,1-127.4,364.994Zm3.152-.639V356.72a2.068,2.068,0,0,0-.993-1.951q-.992-.572-.993.806v7.635a2.068,2.068,0,0,0,.993,1.951Q-124.248,365.733-124.247,364.355Z" transform="translate(143.128 -277.176)" fill="#003b82"/>
        <path id="Trazado_191698" data-name="Trazado 191698" d="M-119.508,369.549a6.125,6.125,0,0,1-.749-3.03v-7.355q0-1.68.749-2.166t2.159.328a5.6,5.6,0,0,1,2.162,2.166,6.16,6.16,0,0,1,.747,3.03v7.356q0,1.68-.747,2.166t-2.162-.326A5.629,5.629,0,0,1-119.508,369.549Zm3.153-.636v-7.636a2.071,2.071,0,0,0-.994-1.953q-.992-.572-.992.808v7.633a2.072,2.072,0,0,0,.992,1.954Q-116.357,370.291-116.355,368.913Z" transform="translate(142.727 -277.407)" fill="#003b82"/>
        <path id="Trazado_191699" data-name="Trazado 191699" d="M-109.5,365.4l-2-1.155v-1.56a5.731,5.731,0,0,0,1.315.6.958.958,0,0,0,.793-.074,1.615,1.615,0,0,0,.523-.766l1.289.743v13.993l-1.916-1.107Z" transform="translate(142.282 -277.694)" fill="#003b82"/>
        <path id="Trazado_191700" data-name="Trazado 191700" d="M-103.725,378.662a6.133,6.133,0,0,1-.749-3.03v-7.355q0-1.681.749-2.167t2.159.326a5.637,5.637,0,0,1,2.16,2.166,6.159,6.159,0,0,1,.749,3.033v7.355q0,1.681-.749,2.167t-2.16-.328A5.6,5.6,0,0,1-103.725,378.662Zm3.153-.636V370.39a2.067,2.067,0,0,0-.994-1.953q-.992-.574-.992.8v7.636a2.068,2.068,0,0,0,.992,1.951Q-100.572,379.4-100.572,378.026Z" transform="translate(141.924 -277.871)" fill="#003b82"/>
        <path id="Trazado_191701" data-name="Trazado 191701" d="M-93.717,374.516l-2-1.157V371.8a5.528,5.528,0,0,0,1.316.6.948.948,0,0,0,.792-.071,1.615,1.615,0,0,0,.523-.767l1.289.743v13.991l-1.916-1.107Z" transform="translate(141.479 -278.157)" fill="#003b82"/>
        <path id="Trazado_191702" data-name="Trazado 191702" d="M-87.942,387.775a6.146,6.146,0,0,1-.75-3.03v-7.356q0-1.68.75-2.166t2.159.326a5.639,5.639,0,0,1,2.161,2.166,6.162,6.162,0,0,1,.748,3.032V388.1c0,1.118-.25,1.842-.748,2.167s-1.22.215-2.161-.329A5.622,5.622,0,0,1-87.942,387.775Zm3.152-.637V379.5a2.065,2.065,0,0,0-.993-1.951q-.992-.574-.993.8v7.636a2.066,2.066,0,0,0,.993,1.95Q-84.789,388.514-84.79,387.138Z" transform="translate(141.121 -278.334)" fill="#003b82"/>
        <path id="Trazado_191703" data-name="Trazado 191703" d="M-77.934,383.629l-2-1.157v-1.56a5.65,5.65,0,0,0,1.315.6.951.951,0,0,0,.794-.072,1.621,1.621,0,0,0,.522-.768l1.289.745v13.991l-1.916-1.107Z" transform="translate(140.676 -278.621)" fill="#003b82"/>
        <path id="Trazado_191704" data-name="Trazado 191704" d="M-70.043,388.184l-2-1.155v-1.559a5.737,5.737,0,0,0,1.315.6.957.957,0,0,0,.794-.074,1.616,1.616,0,0,0,.523-.766l1.288.743v13.993l-1.916-1.106Z" transform="translate(140.275 -278.852)" fill="#003b82"/>
        <path id="Trazado_191705" data-name="Trazado 191705" d="M-62.151,392.741l-2-1.158v-1.559a5.638,5.638,0,0,0,1.316.6.957.957,0,0,0,.793-.072,1.635,1.635,0,0,0,.523-.769l1.289.746v13.99l-1.916-1.106Z" transform="translate(139.873 -279.084)" fill="#003b82"/>
        <path id="Trazado_191706" data-name="Trazado 191706" d="M-56.377,406a6.14,6.14,0,0,1-.749-3.03v-7.356q0-1.68.749-2.166t2.159.328a5.626,5.626,0,0,1,2.161,2.166,6.149,6.149,0,0,1,.747,3.03v7.356q0,1.68-.747,2.166t-2.161-.327A5.62,5.62,0,0,1-56.377,406Zm3.154-.637v-7.635a2.07,2.07,0,0,0-.995-1.954q-.992-.572-.992.808v7.636a2.068,2.068,0,0,0,.992,1.951Q-53.224,406.739-53.223,405.361Z" transform="translate(139.516 -279.261)" fill="#003b82"/>
        <path id="Trazado_191707" data-name="Trazado 191707" d="M-48.485,410.555a6.144,6.144,0,0,1-.75-3.03V400.17q0-1.681.75-2.167t2.16.327a5.643,5.643,0,0,1,2.159,2.167,6.153,6.153,0,0,1,.75,3.032v7.355c0,1.118-.251,1.842-.75,2.167s-1.22.215-2.159-.328A5.607,5.607,0,0,1-48.485,410.555Zm3.153-.636v-7.638a2.068,2.068,0,0,0-.993-1.951q-.994-.572-.994.8v7.636a2.068,2.068,0,0,0,.994,1.951Q-45.333,411.294-45.332,409.919Z" transform="translate(139.115 -279.493)" fill="#003b82"/>
      </g>
    </g>
  </g>
</svg>
