<svg xmlns="http://www.w3.org/2000/svg" xmlns:xlink="http://www.w3.org/1999/xlink" width="151.359" height="280.958" viewBox="0 0 151.359 280.958">
  <defs>
    <radialGradient id="radial-gradient" cx="0.5" cy="0.5" r="1.358" gradientTransform="translate(0.155) scale(0.69 1)" gradientUnits="objectBoundingBox">
      <stop offset="0" stop-color="#5b1445"/>
      <stop offset="0.189" stop-color="#551341"/>
      <stop offset="0.424" stop-color="#461036"/>
      <stop offset="0.684" stop-color="#2c0c23"/>
      <stop offset="0.96" stop-color="#09060a"/>
      <stop offset="1" stop-color="#040506"/>
    </radialGradient>
  </defs>
  <g id="Grupo_140193" data-name="Grupo 140193" transform="translate(12240.973 12237.439)">
    <g id="Grupo_131775" data-name="Grupo 131775" transform="translate(-12207.361 -12188.938)">
      <path id="Trazado_191509" data-name="Trazado 191509" d="M-422.091,181.171c-8.936-5.159-16.18-1.029-16.18,9.226V331.73c0,10.254,7.244,22.748,16.18,27.908l85.387,49.546c8.936,5.16,16.18,1.03,16.18-9.225V258.625c0-10.254-7.244-22.748-16.18-27.908Z" transform="translate(438.271 -178.949)" fill="#aad5f4" opacity="0.61"/>
      <path id="Trazado_191510" data-name="Trazado 191510" d="M-336.7,230.718l-85.387-49.547c-8.936-5.159-16.18-1.029-16.18,9.226v1.564c0-10.254,7.244-14.384,16.18-9.225l85.387,49.547c8.936,5.159,16.18,17.654,16.18,27.908v-1.565C-320.524,248.372-327.768,235.877-336.7,230.718Z" transform="translate(438.271 -178.949)" fill="url(#radial-gradient)" style="mix-blend-mode: color-dodge;isolation: isolate"/>
      <g id="Grupo_131774" data-name="Grupo 131774" transform="translate(16.106 24.573)" opacity="0.74" style="isolation: isolate">
        <g id="Grupo_131770" data-name="Grupo 131770" opacity="0.6" style="mix-blend-mode: color-dodge;isolation: isolate">
          <path id="Trazado_191511" data-name="Trazado 191511" d="M-369.434,237.432l7.013,4.078v-3.428l-7.013-4.077Z" transform="translate(418.664 -206.322)" fill="#fff"/>
          <path id="Trazado_191512" data-name="Trazado 191512" d="M-364.941,266.866l-11.544-6.665v3.427l11.544,6.665Z" transform="translate(419.023 -207.654)" fill="#fff"/>
          <path id="Trazado_191513" data-name="Trazado 191513" d="M-365.664,247.379v-3.427l-12.891-7.309v3.427Z" transform="translate(419.128 -206.456)" fill="#fff"/>
          <path id="Trazado_191514" data-name="Trazado 191514" d="M-379.245,250.922v3.427l6.553,3.784v-3.427Z" transform="translate(419.163 -207.182)" fill="#fff"/>
          <path id="Trazado_191515" data-name="Trazado 191515" d="M-390.251,255.8v-3.427l-10.654-6.028v3.427Z" transform="translate(420.265 -206.949)" fill="#fff"/>
          <path id="Trazado_191516" data-name="Trazado 191516" d="M-364.192,259.7l-4.54-2.706v3.427l4.54,2.706Z" transform="translate(418.629 -207.491)" fill="#fff"/>
          <path id="Trazado_191517" data-name="Trazado 191517" d="M-372.942,247.255v3.427l5.423,3.089v-3.427Z" transform="translate(418.843 -206.996)" fill="#fff"/>
          <path id="Trazado_191518" data-name="Trazado 191518" d="M-358.436,240.367v3.427l2.949,1.714v-3.427Z" transform="translate(418.105 -206.646)" fill="#fff"/>
          <path id="Trazado_191519" data-name="Trazado 191519" d="M-377.141,248.289v-3.427l-11.036-6.287V242Z" transform="translate(419.618 -206.554)" fill="#fff"/>
          <path id="Trazado_191520" data-name="Trazado 191520" d="M-361.365,246.41v3.428l11.675,6.746v-3.427Z" transform="translate(418.254 -206.953)" fill="#fff"/>
          <path id="Trazado_191521" data-name="Trazado 191521" d="M-383.542,251.882v-3.427L-397.4,240.7v3.427Z" transform="translate(420.087 -206.662)" fill="#fff"/>
          <path id="Trazado_191522" data-name="Trazado 191522" d="M-393.89,220v3.427l10.845,6.208v-3.427Z" transform="translate(419.908 -205.61)" fill="#fff"/>
          <path id="Trazado_191523" data-name="Trazado 191523" d="M-373.338,231.77l-5.518-3.159v3.427l5.518,3.159Z" transform="translate(419.143 -206.048)" fill="#fff"/>
          <path id="Trazado_191524" data-name="Trazado 191524" d="M-380.346,257.975l-5.726-3.24v3.427l5.726,3.24Z" transform="translate(419.51 -207.376)" fill="#fff"/>
          <path id="Trazado_191525" data-name="Trazado 191525" d="M-352.274,270.02l14.795,8.6v-3.427l-14.795-8.6Z" transform="translate(417.791 -207.979)" fill="#fff"/>
          <path id="Trazado_191526" data-name="Trazado 191526" d="M-404.794,244.141l-5.232-3.007v3.427l5.232,3.007Z" transform="translate(420.729 -206.685)" fill="#fff"/>
          <path id="Trazado_191527" data-name="Trazado 191527" d="M-421.3,204.838v3.427l23.26,13.256v-3.428Z" transform="translate(421.302 -204.838)" fill="#fff"/>
          <path id="Trazado_191528" data-name="Trazado 191528" d="M-348.664,264.591l5.471,3.189v-3.427l-5.471-3.189Z" transform="translate(417.608 -207.703)" fill="#fff"/>
          <path id="Trazado_191529" data-name="Trazado 191529" d="M-345.456,259.011-330.083,268v-3.427l-15.374-8.987Z" transform="translate(417.445 -207.419)" fill="#fff"/>
          <path id="Trazado_191530" data-name="Trazado 191530" d="M-363.62,255.992l10.821,6.214v-3.427l-10.821-6.214Z" transform="translate(418.369 -207.266)" fill="#fff"/>
          <path id="Trazado_191531" data-name="Trazado 191531" d="M-351.721,244.239v3.427l12.272,7.026v-3.427Z" transform="translate(417.763 -206.842)" fill="#fff"/>
          <path id="Trazado_191532" data-name="Trazado 191532" d="M-401.465,238.423l-8.562-4.792v3.427l8.562,4.792Z" transform="translate(420.729 -206.303)" fill="#fff"/>
          <path id="Trazado_191533" data-name="Trazado 191533" d="M-356.058,264.407l-4.282-2.48v3.427l4.282,2.48Z" transform="translate(418.202 -207.742)" fill="#fff"/>
          <path id="Trazado_191534" data-name="Trazado 191534" d="M-392.713,235.991l-17.314-9.863v3.427l17.314,9.863Z" transform="translate(420.729 -205.921)" fill="#fff"/>
          <path id="Trazado_191535" data-name="Trazado 191535" d="M-360.965,279.8l9.3,5.354v-3.427l-9.3-5.354Z" transform="translate(418.233 -208.477)" fill="#fff"/>
          <path id="Trazado_191536" data-name="Trazado 191536" d="M-383.58,233.766l-26.446-15.141v3.427l26.446,15.141Z" transform="translate(420.729 -205.54)" fill="#fff"/>
        </g>
        <g id="Grupo_131771" data-name="Grupo 131771" transform="translate(0 105.385)" opacity="0.6" style="mix-blend-mode: color-dodge;isolation: isolate">
          <path id="Trazado_191537" data-name="Trazado 191537" d="M-369.434,348.465l7.013,4.078v-3.427l-7.013-4.077Z" transform="translate(418.664 -317.354)" fill="#fff"/>
          <path id="Trazado_191538" data-name="Trazado 191538" d="M-364.941,377.9l-11.544-6.665v3.427l11.544,6.665Z" transform="translate(419.023 -318.687)" fill="#fff"/>
          <path id="Trazado_191539" data-name="Trazado 191539" d="M-365.664,358.412v-3.427l-12.891-7.309V351.1Z" transform="translate(419.128 -317.489)" fill="#fff"/>
          <path id="Trazado_191540" data-name="Trazado 191540" d="M-379.245,361.955v3.427l6.553,3.784v-3.427Z" transform="translate(419.163 -318.215)" fill="#fff"/>
          <path id="Trazado_191541" data-name="Trazado 191541" d="M-390.251,366.831V363.4l-10.654-6.028V360.8Z" transform="translate(420.265 -317.982)" fill="#fff"/>
          <path id="Trazado_191542" data-name="Trazado 191542" d="M-364.192,370.731l-4.54-2.706v3.427l4.54,2.706Z" transform="translate(418.629 -318.524)" fill="#fff"/>
          <path id="Trazado_191543" data-name="Trazado 191543" d="M-372.942,358.287v3.427l5.423,3.089v-3.427Z" transform="translate(418.843 -318.028)" fill="#fff"/>
          <path id="Trazado_191544" data-name="Trazado 191544" d="M-358.436,351.4v3.427l2.949,1.714v-3.427Z" transform="translate(418.105 -317.678)" fill="#fff"/>
          <path id="Trazado_191545" data-name="Trazado 191545" d="M-377.141,359.322v-3.427l-11.036-6.287v3.427Z" transform="translate(419.618 -317.587)" fill="#fff"/>
          <path id="Trazado_191546" data-name="Trazado 191546" d="M-361.365,357.442v3.427l11.675,6.746v-3.428Z" transform="translate(418.254 -317.985)" fill="#fff"/>
          <path id="Trazado_191547" data-name="Trazado 191547" d="M-383.542,362.914v-3.427l-13.855-7.755v3.427Z" transform="translate(420.087 -317.695)" fill="#fff"/>
          <path id="Trazado_191548" data-name="Trazado 191548" d="M-393.89,331.037v3.427l10.845,6.209v-3.427Z" transform="translate(419.908 -316.642)" fill="#fff"/>
          <path id="Trazado_191549" data-name="Trazado 191549" d="M-373.338,342.8l-5.518-3.159v3.427l5.518,3.159Z" transform="translate(419.143 -317.08)" fill="#fff"/>
          <path id="Trazado_191550" data-name="Trazado 191550" d="M-380.346,369.008l-5.726-3.24V369.2l5.726,3.24Z" transform="translate(419.51 -318.409)" fill="#fff"/>
          <path id="Trazado_191551" data-name="Trazado 191551" d="M-352.274,381.052l14.795,8.6v-3.427l-14.795-8.6Z" transform="translate(417.791 -319.012)" fill="#fff"/>
          <path id="Trazado_191552" data-name="Trazado 191552" d="M-404.794,355.173l-5.232-3.007v3.427l5.232,3.007Z" transform="translate(420.729 -317.717)" fill="#fff"/>
          <path id="Trazado_191553" data-name="Trazado 191553" d="M-421.3,315.871V319.3l23.26,13.256v-3.427Z" transform="translate(421.302 -315.871)" fill="#fff"/>
          <path id="Trazado_191554" data-name="Trazado 191554" d="M-348.664,375.624l5.471,3.189v-3.427l-5.471-3.189Z" transform="translate(417.608 -318.736)" fill="#fff"/>
          <path id="Trazado_191555" data-name="Trazado 191555" d="M-345.456,370.043l15.374,8.987V375.6l-15.374-8.987Z" transform="translate(417.445 -318.452)" fill="#fff"/>
          <path id="Trazado_191556" data-name="Trazado 191556" d="M-363.62,367.024l10.821,6.214v-3.427L-363.62,363.6Z" transform="translate(418.369 -318.298)" fill="#fff"/>
          <path id="Trazado_191557" data-name="Trazado 191557" d="M-351.721,355.271V358.7l12.272,7.026V362.3Z" transform="translate(417.763 -317.875)" fill="#fff"/>
          <path id="Trazado_191558" data-name="Trazado 191558" d="M-401.465,349.456l-8.562-4.792v3.427l8.562,4.792Z" transform="translate(420.729 -317.335)" fill="#fff"/>
          <path id="Trazado_191559" data-name="Trazado 191559" d="M-356.058,375.44l-4.282-2.48v3.427l4.282,2.481Z" transform="translate(418.202 -318.775)" fill="#fff"/>
          <path id="Trazado_191560" data-name="Trazado 191560" d="M-392.713,347.024l-17.314-9.863v3.427l17.314,9.863Z" transform="translate(420.729 -316.954)" fill="#fff"/>
          <path id="Trazado_191561" data-name="Trazado 191561" d="M-383.58,344.8l-26.446-15.141v3.427l26.446,15.141Z" transform="translate(420.729 -316.572)" fill="#fff"/>
        </g>
        <g id="Grupo_131772" data-name="Grupo 131772" transform="translate(2.854 41.384)" opacity="0.6" style="mix-blend-mode: color-dodge;isolation: isolate">
          <path id="Trazado_191562" data-name="Trazado 191562" d="M-364.941,296.681l-11.544-6.665v3.427l11.544,6.665Z" transform="translate(416.169 -250.554)" fill="#fff"/>
          <path id="Trazado_191563" data-name="Trazado 191563" d="M-365.664,277.194v-3.427l-12.891-7.309v3.428Z" transform="translate(416.274 -249.356)" fill="#fff"/>
          <path id="Trazado_191564" data-name="Trazado 191564" d="M-379.245,280.737v3.427l6.553,3.784v-3.427Z" transform="translate(416.309 -250.082)" fill="#fff"/>
          <path id="Trazado_191565" data-name="Trazado 191565" d="M-390.251,285.613v-3.427l-10.654-6.028v3.427Z" transform="translate(417.411 -249.85)" fill="#fff"/>
          <path id="Trazado_191566" data-name="Trazado 191566" d="M-364.192,289.513l-4.54-2.706v3.427l4.54,2.706Z" transform="translate(415.775 -250.391)" fill="#fff"/>
          <path id="Trazado_191567" data-name="Trazado 191567" d="M-372.942,277.07V280.5l5.423,3.089v-3.427Z" transform="translate(415.989 -249.896)" fill="#fff"/>
          <path id="Trazado_191568" data-name="Trazado 191568" d="M-377.141,278.1v-3.427l-11.036-6.287v3.427Z" transform="translate(416.764 -249.454)" fill="#fff"/>
          <path id="Trazado_191569" data-name="Trazado 191569" d="M-383.542,281.7V278.27l-13.855-7.755v3.427Z" transform="translate(417.233 -249.563)" fill="#fff"/>
          <path id="Trazado_191570" data-name="Trazado 191570" d="M-380.346,287.79l-5.726-3.24v3.427l5.726,3.24Z" transform="translate(416.657 -250.276)" fill="#fff"/>
          <path id="Trazado_191571" data-name="Trazado 191571" d="M-352.274,299.834l14.795,8.6V305l-14.795-8.6Z" transform="translate(414.938 -250.88)" fill="#fff"/>
          <path id="Trazado_191572" data-name="Trazado 191572" d="M-404.794,273.956l-5.232-3.007v3.427l5.232,3.007Z" transform="translate(417.875 -249.585)" fill="#fff"/>
          <path id="Trazado_191573" data-name="Trazado 191573" d="M-348.664,294.406l5.471,3.189v-3.427l-5.471-3.189Z" transform="translate(414.754 -250.603)" fill="#fff"/>
          <path id="Trazado_191574" data-name="Trazado 191574" d="M-363.62,285.807l10.821,6.214v-3.427l-10.821-6.214Z" transform="translate(415.515 -250.166)" fill="#fff"/>
          <path id="Trazado_191575" data-name="Trazado 191575" d="M-401.465,268.238l-8.562-4.792v3.427l8.562,4.792Z" transform="translate(417.875 -249.203)" fill="#fff"/>
          <path id="Trazado_191576" data-name="Trazado 191576" d="M-356.058,294.222l-4.282-2.481v3.427l4.282,2.481Z" transform="translate(415.348 -250.642)" fill="#fff"/>
          <path id="Trazado_191577" data-name="Trazado 191577" d="M-392.713,265.806l-17.314-9.863v3.427l17.314,9.863Z" transform="translate(417.875 -248.821)" fill="#fff"/>
          <path id="Trazado_191578" data-name="Trazado 191578" d="M-381.211,294.56v3.427l5.423,3.089v-3.427Z" transform="translate(416.409 -250.786)" fill="#fff"/>
          <path id="Trazado_191579" data-name="Trazado 191579" d="M-385.41,295.594v-3.427l-11.036-6.287v3.427Z" transform="translate(417.184 -250.344)" fill="#fff"/>
          <path id="Trazado_191580" data-name="Trazado 191580" d="M-356.933,311.9l5.471,3.189v-3.427l-5.471-3.189Z" transform="translate(415.174 -251.493)" fill="#fff"/>
          <path id="Trazado_191581" data-name="Trazado 191581" d="M-371.889,303.3l10.821,6.214v-3.427l-10.821-6.214Z" transform="translate(415.935 -251.056)" fill="#fff"/>
          <path id="Trazado_191582" data-name="Trazado 191582" d="M-400.982,283.3l-17.314-9.863v3.427l17.314,9.863Z" transform="translate(418.295 -249.711)" fill="#fff"/>
          <path id="Trazado_191583" data-name="Trazado 191583" d="M-383.58,263.581l-26.446-15.141v3.428l26.446,15.141Z" transform="translate(417.875 -248.44)" fill="#fff"/>
        </g>
        <g id="Grupo_131773" data-name="Grupo 131773" transform="translate(10.283 76.445)" opacity="0.6" style="mix-blend-mode: color-dodge;isolation: isolate">
          <path id="Trazado_191584" data-name="Trazado 191584" d="M-364.941,333.621l-11.544-6.665v3.427l11.544,6.665Z" transform="translate(408.74 -287.495)" fill="#fff"/>
          <path id="Trazado_191585" data-name="Trazado 191585" d="M-365.664,314.135v-3.427l-12.891-7.309v3.428Z" transform="translate(408.845 -286.297)" fill="#fff"/>
          <path id="Trazado_191586" data-name="Trazado 191586" d="M-379.245,317.678V321.1l6.553,3.784v-3.427Z" transform="translate(408.88 -287.023)" fill="#fff"/>
          <path id="Trazado_191587" data-name="Trazado 191587" d="M-390.251,322.554v-3.427l-10.654-6.028v3.427Z" transform="translate(409.982 -286.79)" fill="#fff"/>
          <path id="Trazado_191588" data-name="Trazado 191588" d="M-364.192,326.454l-4.54-2.706v3.427l4.54,2.706Z" transform="translate(408.345 -287.332)" fill="#fff"/>
          <path id="Trazado_191589" data-name="Trazado 191589" d="M-372.942,314.01v3.427l5.423,3.089V317.1Z" transform="translate(408.56 -286.837)" fill="#fff"/>
          <path id="Trazado_191590" data-name="Trazado 191590" d="M-377.141,315.045v-3.427l-11.036-6.287v3.427Z" transform="translate(409.335 -286.395)" fill="#fff"/>
          <path id="Trazado_191591" data-name="Trazado 191591" d="M-383.542,318.637V315.21l-13.855-7.755v3.427Z" transform="translate(409.803 -286.503)" fill="#fff"/>
          <path id="Trazado_191592" data-name="Trazado 191592" d="M-380.346,324.731l-5.726-3.24v3.427l5.726,3.24Z" transform="translate(409.227 -287.217)" fill="#fff"/>
          <path id="Trazado_191593" data-name="Trazado 191593" d="M-352.274,336.775l14.795,8.6v-3.427l-14.795-8.6Z" transform="translate(407.508 -287.82)" fill="#fff"/>
          <path id="Trazado_191594" data-name="Trazado 191594" d="M-404.794,310.9l-5.232-3.007v3.427l5.232,3.007Z" transform="translate(410.446 -286.525)" fill="#fff"/>
          <path id="Trazado_191595" data-name="Trazado 191595" d="M-348.664,331.347l5.471,3.189v-3.427l-5.471-3.189Z" transform="translate(407.325 -287.544)" fill="#fff"/>
          <path id="Trazado_191596" data-name="Trazado 191596" d="M-363.62,322.747l10.821,6.214v-3.427l-10.821-6.214Z" transform="translate(408.086 -287.107)" fill="#fff"/>
          <path id="Trazado_191597" data-name="Trazado 191597" d="M-401.465,305.179l-8.562-4.792v3.427l8.562,4.792Z" transform="translate(410.446 -286.144)" fill="#fff"/>
          <path id="Trazado_191598" data-name="Trazado 191598" d="M-356.058,331.163l-4.282-2.481v3.427l4.282,2.481Z" transform="translate(407.919 -287.583)" fill="#fff"/>
          <path id="Trazado_191599" data-name="Trazado 191599" d="M-392.713,302.747l-17.314-9.863v3.427l17.314,9.863Z" transform="translate(410.446 -285.762)" fill="#fff"/>
          <path id="Trazado_191600" data-name="Trazado 191600" d="M-381.211,331.5v3.427l5.423,3.089v-3.427Z" transform="translate(408.98 -287.726)" fill="#fff"/>
          <path id="Trazado_191601" data-name="Trazado 191601" d="M-385.41,332.535v-3.427l-11.036-6.287v3.427Z" transform="translate(409.755 -287.285)" fill="#fff"/>
          <path id="Trazado_191602" data-name="Trazado 191602" d="M-356.933,348.837l5.471,3.189V348.6l-5.471-3.189Z" transform="translate(407.745 -288.434)" fill="#fff"/>
          <path id="Trazado_191603" data-name="Trazado 191603" d="M-371.889,340.237l10.821,6.214v-3.427l-10.821-6.214Z" transform="translate(408.506 -287.996)" fill="#fff"/>
          <path id="Trazado_191604" data-name="Trazado 191604" d="M-400.584,320.462l-9.885-5.668v3.427l9.885,5.668Z" transform="translate(410.468 -286.876)" fill="#fff"/>
          <path id="Trazado_191605" data-name="Trazado 191605" d="M-383.58,300.521l-26.446-15.141v3.428l26.446,15.141Z" transform="translate(410.446 -285.38)" fill="#fff"/>
        </g>
      </g>
    </g>
    <path id="Trazado_191624" data-name="Trazado 191624" d="M-437.8,293.552a14.906,14.906,0,0,0-.128-1.818l3.03-.383a27.461,27.461,0,0,0-1.373-4.586l-3.452-1.044a24.325,24.325,0,0,0-2.149-3.706l.828-3.483a27.716,27.716,0,0,0-3.307-3.484l-1.858,2.4a15.044,15.044,0,0,0-1.519-1.024,11.587,11.587,0,0,0-1.519-.729l-1.858-4.55a9.208,9.208,0,0,0-3.306-.333l.827,4.439a4.735,4.735,0,0,0-2.149,1.225l-3.452-2.943a9.043,9.043,0,0,0-1.373,3l3.03,3.882a11.558,11.558,0,0,0-.128,1.67,14.9,14.9,0,0,0,.128,1.817l-3.03.383a27.446,27.446,0,0,0,1.373,4.587l3.452,1.044a24.268,24.268,0,0,0,2.149,3.705l-.827,3.484a27.573,27.573,0,0,0,3.306,3.484l1.858-2.4a15.152,15.152,0,0,0,1.519,1.023,11.793,11.793,0,0,0,1.519.731l1.858,4.549a9.21,9.21,0,0,0,3.307.333l-.828-4.439a4.742,4.742,0,0,0,2.149-1.224l3.452,2.941a9.025,9.025,0,0,0,1.373-3l-3.03-3.881A11.545,11.545,0,0,0-437.8,293.552Zm-9.929-1.157a8.786,8.786,0,0,1-3.987-6.878c0-2.527,1.785-3.544,3.987-2.273a8.786,8.786,0,0,1,3.988,6.878C-443.736,292.648-445.522,293.667-447.725,292.395Z" transform="translate(-11767.956 -12372.558)" fill="#41b8df" opacity="0.6" style="isolation: isolate"/>
    <path id="Trazado_191625" data-name="Trazado 191625" d="M-470.108,377.251l4.976-2.837c.522-.3.6-1.161.249-2.064l1.458-.831c2.886,4.174,7.01,6.308,9.642,4.807,2.877-1.64,2.877-6.991,0-11.952s-7.539-7.653-10.415-6.014c-2.632,1.5-2.847,6.11-.663,10.684l-1.458.831c-.61-.756-1.4-1.123-1.923-.826l-4.976,2.837c-.623.355-.623,1.515,0,2.59l.853,1.471C-471.74,377.023-470.73,377.606-470.108,377.251Zm7.687-7.951c-1.895-3.268-1.895-6.793,0-7.873s4.967.693,6.861,3.961,1.895,6.793,0,7.873S-460.526,372.568-462.421,369.3Z" transform="translate(-11767.289 -12376.988)" fill="#41b8df" opacity="0.6" style="isolation: isolate"/>
    <g id="Grupo_131782" data-name="Grupo 131782" transform="translate(-12207.716 -12214.204)" opacity="0.6" style="isolation: isolate">
      <path id="Trazado_191627" data-name="Trazado 191627" d="M-429.057,156.968l-3.047,2.841v.074l4.842,2.06v2.5l-4.842-3.458v.074l3.078,6.191-2.02.159-1.924-6.262-.065-.037-2.084,3.984-1.827-2.38,3.047-2.731v-.073l-4.747-2.042v-2.5l4.713,3.421v-.074l-3.014-6.229,1.955-.159,1.988,6.262.064.037,1.957-4.021Z" transform="translate(438.645 -152.329)" fill="#41b8df"/>
      <path id="Trazado_191628" data-name="Trazado 191628" d="M-415.037,165.063l-3.047,2.841v.074l4.843,2.06v2.5l-4.843-3.458v.073l3.079,6.192-2.02.159-1.925-6.263-.064-.037-2.085,3.985-1.827-2.38,3.047-2.73v-.074l-4.747-2.041v-2.5l4.714,3.421v-.074l-3.014-6.229,1.955-.159,1.988,6.261.065.037,1.956-4.021Z" transform="translate(437.932 -152.741)" fill="#41b8df"/>
      <path id="Trazado_191629" data-name="Trazado 191629" d="M-401.015,173.158-404.062,176v.074l4.842,2.06v2.5l-4.842-3.458v.073l3.078,6.192-2.02.159-1.924-6.262-.065-.037-2.084,3.984-1.828-2.379,3.047-2.731V176.1l-4.746-2.042v-2.5l4.713,3.421v-.074l-3.014-6.229,1.957-.158,1.987,6.26.065.038,1.955-4.022Z" transform="translate(437.219 -153.152)" fill="#41b8df"/>
      <path id="Trazado_191630" data-name="Trazado 191630" d="M-386.995,181.253l-3.047,2.841v.073l4.843,2.06v2.5l-4.843-3.458v.074l3.078,6.192-2.02.159-1.924-6.263-.064-.037-2.085,3.984L-394.883,187l3.047-2.73V184.2l-4.747-2.041v-2.5l4.713,3.42V183l-3.014-6.23,1.956-.158,1.988,6.261.065.038,1.956-4.022Z" transform="translate(436.506 -153.564)" fill="#41b8df"/>
      <path id="Trazado_191631" data-name="Trazado 191631" d="M-372.975,189.347l-3.047,2.841v.074l4.842,2.06v2.5l-4.842-3.458v.074l3.078,6.191-2.02.159-1.924-6.262-.064-.037-2.085,3.984-1.827-2.38,3.047-2.731v-.073l-4.747-2.042v-2.5l4.714,3.421V191.1l-3.014-6.23,1.956-.158,1.987,6.261.065.037,1.955-4.021Z" transform="translate(435.793 -153.976)" fill="#41b8df"/>
    </g>
    <g id="Grupo_131783" data-name="Grupo 131783" transform="translate(-12166.292 -12237.439)" opacity="0.6" style="isolation: isolate">
      <path id="Trazado_191632" data-name="Trazado 191632" d="M-366.934,156.521a.974.974,0,0,1-.335-.345.914.914,0,0,1-.143-.481v-2.139a.582.582,0,0,1,.143-.453,1.048,1.048,0,0,1,.455-.19l5.787-1.1-5.787-7.787a5.211,5.211,0,0,1-.455-.716,1.435,1.435,0,0,1-.143-.644v-2.113c0-.183.044-.3.131-.35a.35.35,0,0,1,.347.049,1.641,1.641,0,0,1,.478.523l8.107,11.02a4.716,4.716,0,0,1,.538.887,1.879,1.879,0,0,1,.156.749v.658a.794.794,0,0,1-.168.562.944.944,0,0,1-.526.246l-8.107,1.685A.556.556,0,0,1-366.934,156.521Z" transform="translate(393.598 -128.475)" fill="#41b8df"/>
      <path id="Trazado_191633" data-name="Trazado 191633" d="M-371.352,157.582l-1.554-.9a1.4,1.4,0,0,1-.491-.46,2.034,2.034,0,0,1-.251-.543l-8.179-27.143a1.162,1.162,0,0,1-.048-.329.344.344,0,0,1,.144-.328.348.348,0,0,1,.358.043l1.555.9a1.415,1.415,0,0,1,.477.454,2.477,2.477,0,0,1,.288.564l8.131,27.115a1.161,1.161,0,0,1,.047.329.347.347,0,0,1-.143.329A.326.326,0,0,1-371.352,157.582Z" transform="translate(394.333 -127.848)" fill="#41b8df"/>
      <path id="Trazado_191634" data-name="Trazado 191634" d="M-385.721,145.946a1.547,1.547,0,0,1-.478-.5l-8.108-11.047a4.786,4.786,0,0,1-.526-.852,1.817,1.817,0,0,1-.168-.756v-.658a.875.875,0,0,1,.156-.569.946.946,0,0,1,.538-.265l8.108-1.658a.545.545,0,0,1,.478.028.972.972,0,0,1,.334.345.962.962,0,0,1,.144.509v2.113a.623.623,0,0,1-.144.479,1.041,1.041,0,0,1-.455.191l-5.787,1.1,5.787,7.787a5.116,5.116,0,0,1,.455.716,1.378,1.378,0,0,1,.144.618v2.139c0,.165-.049.27-.144.315A.35.35,0,0,1-385.721,145.946Z" transform="translate(395.001 -127.938)" fill="#41b8df"/>
    </g>
    <path id="Trazado_191723" data-name="Trazado 191723" d="M-421.3,204.838v3.427l23.26,13.256v-3.428Z" transform="translate(-11769.953 -12369.203)" fill="#fda000"/>
    <path id="Trazado_191724" data-name="Trazado 191724" d="M-421.3,315.871V319.3l23.26,13.256v-3.427Z" transform="translate(-11769.953 -12374.852)" fill="#fda000"/>
    <path id="Trazado_191725" data-name="Trazado 191725" d="M-400.982,283.3l-17.314-9.863v3.427l17.314,9.863Z" transform="translate(-11770.106 -12372.691)" fill="#fda000"/>
  </g>
</svg>
