<svg xmlns="http://www.w3.org/2000/svg" width="400" height="335.428" viewBox="0 0 400 335.428">
  <g id="Grupo_140201" data-name="Grupo 140201" transform="translate(-1020 -421.661)">
    <circle id="Elipse_5082" data-name="Elipse 5082" cx="166.061" cy="166.061" r="166.061" transform="translate(1056.896 422.409)" fill="#aad5f4" opacity="0.57"/>
    <g id="Grupo_131971" data-name="Grupo 131971" transform="translate(1020 421.661)">
      <g id="Grupo_131881" data-name="Grupo 131881" transform="translate(0 0)">
        <g id="Grupo_131877" data-name="Grupo 131877" transform="translate(0 0.966)">
          <g id="Grupo_131868" data-name="Grupo 131868" transform="translate(33.164 16.355)">
            <g id="Grupo_131867" data-name="Grupo 131867">
              <path id="Trazado_191827" data-name="Trazado 191827" d="M-993.7,607.694s-17.938-14.9-23.207-19.366-6.65-3.6-10.719.055c-4.809,4.324-23.136,19.325-23.136,19.325v.388l57.062-.013Z" transform="translate(1050.762 -585.297)" fill="#8e93c9"/>
              <path id="Trazado_191828" data-name="Trazado 191828" d="M-1050.762,611.7l0,5.245,28.534,24.356,28.528-24.369,0-5.245Z" transform="translate(1050.762 -589.286)" fill="#8e93c9"/>
              <g id="Grupo_131864" data-name="Grupo 131864" transform="translate(6.735 10.398)">
                <rect id="Rectángulo_294025" data-name="Rectángulo 294025" width="43.73" height="40.099" fill="#fff"/>
              </g>
              <g id="Grupo_131865" data-name="Grupo 131865" transform="translate(8.833 15.168)">
                <path id="Trazado_191829" data-name="Trazado 191829" d="M-1002.545,604.746h-37.021a.789.789,0,0,1-.789-.789.789.789,0,0,1,.789-.789h37.021a.789.789,0,0,1,.789.789A.79.79,0,0,1-1002.545,604.746Z" transform="translate(1040.356 -603.167)" fill="#112f80"/>
                <path id="Trazado_191830" data-name="Trazado 191830" d="M-1002.545,610.915h-37.021a.789.789,0,0,1-.789-.789.789.789,0,0,1,.789-.789h37.021a.79.79,0,0,1,.789.789A.789.789,0,0,1-1002.545,610.915Z" transform="translate(1040.356 -604.1)" fill="#112f80"/>
                <path id="Trazado_191831" data-name="Trazado 191831" d="M-1002.545,617.085h-37.021a.79.79,0,0,1-.789-.789.789.789,0,0,1,.789-.789h37.021a.789.789,0,0,1,.789.789A.79.79,0,0,1-1002.545,617.085Z" transform="translate(1040.356 -605.033)" fill="#112f80"/>
                <path id="Trazado_191832" data-name="Trazado 191832" d="M-1015.306,623.254h-24.26a.789.789,0,0,1-.789-.789.789.789,0,0,1,.789-.789h24.26a.79.79,0,0,1,.789.789A.789.789,0,0,1-1015.306,623.254Z" transform="translate(1040.356 -605.965)" fill="#112f80"/>
              </g>
              <g id="Grupo_131866" data-name="Grupo 131866" transform="translate(0 22.398)">
                <path id="Trazado_191833" data-name="Trazado 191833" d="M-993.692,650.384l-57.06.013-.01-38.7,28.536,21.208,28.525-21.221Z" transform="translate(1050.762 -611.684)" fill="#abafd9"/>
                <path id="Trazado_191834" data-name="Trazado 191834" d="M-993.69,653.89l-57.062.01v-4.923s18.329-11.359,23.138-15.683c4.068-3.659,5.683-4.292,10.95.178s22.974,15.493,22.974,15.493Z" transform="translate(1050.761 -614.504)" fill="#8e93c9"/>
              </g>
            </g>
          </g>
          <g id="Grupo_131872" data-name="Grupo 131872" transform="translate(82.539 4.971)">
            <rect id="Rectángulo_294026" data-name="Rectángulo 294026" width="40.732" height="46.85" rx="9.564" transform="translate(0 2.212)" fill="#112f80"/>
            <rect id="Rectángulo_294027" data-name="Rectángulo 294027" width="32.846" height="30.18" rx="9.564" transform="translate(4.085 14.591)" fill="#fff"/>
            <g id="Grupo_131869" data-name="Grupo 131869" transform="translate(9.108 19.493)">
              <path id="Trazado_191835" data-name="Trazado 191835" d="M-979.816,596.2a6.772,6.772,0,0,1,4.342-1.347,7.055,7.055,0,0,1,3.136.648,4.646,4.646,0,0,1,2,1.763,4.755,4.755,0,0,1,.674,2.514,4.453,4.453,0,0,1-.855,2.748,4.157,4.157,0,0,1-2.048,1.529v.1a4.352,4.352,0,0,1,2.385,1.7,5.4,5.4,0,0,1,.855,3.149,5.27,5.27,0,0,1-.7,2.721A4.831,4.831,0,0,1-972.1,613.6a7.289,7.289,0,0,1-3.292.687,7.143,7.143,0,0,1-4.6-1.439,5.089,5.089,0,0,1-1.856-3.369.674.674,0,0,1,.67-.765h1.528a.676.676,0,0,1,.657.54,3.147,3.147,0,0,0,.985,1.7,3.71,3.71,0,0,0,2.591.868,3.265,3.265,0,0,0,2.437-.868,3.056,3.056,0,0,0,.855-2.242,2.86,2.86,0,0,0-1.154-2.579,6.5,6.5,0,0,0-3.538-.765h0a.675.675,0,0,1-.674-.674v-1.089a.675.675,0,0,1,.674-.674h.026a6.352,6.352,0,0,0,3.2-.7,2.309,2.309,0,0,0,1.1-2.125,2.563,2.563,0,0,0-.8-1.983,3.245,3.245,0,0,0-2.281-.739,3.206,3.206,0,0,0-2.255.739,2.97,2.97,0,0,0-.851,1.339.677.677,0,0,1-.644.488h-1.578a.679.679,0,0,1-.659-.818A4.78,4.78,0,0,1-979.816,596.2Z" transform="translate(981.862 -594.849)" fill="#142459"/>
              <path id="Trazado_191836" data-name="Trazado 191836" d="M-963.893,597.39v-1.348a.673.673,0,0,1,.674-.674h4.043a.673.673,0,0,1,.674.674v17.547a.673.673,0,0,1-.674.674h-1.632a.673.673,0,0,1-.674-.674V598.738a.674.674,0,0,0-.674-.674h-1.063A.674.674,0,0,1-963.893,597.39Z" transform="translate(979.145 -594.927)" fill="#142459"/>
            </g>
            <g id="Grupo_131870" data-name="Grupo 131870" transform="translate(6.174)">
              <path id="Trazado_191837" data-name="Trazado 191837" d="M-979.484,579.773a2.917,2.917,0,0,1-2.917,2.917,2.917,2.917,0,0,1-2.916-2.917,2.916,2.916,0,0,1,2.916-2.917,2.916,2.916,0,0,1,2.917,2.917" transform="translate(985.318 -572.636)" fill="#41b8df"/>
              <path id="Trazado_191838" data-name="Trazado 191838" d="M-982.151,580.3h0a1.456,1.456,0,0,1-1.451-1.452v-5.517a1.455,1.455,0,0,1,1.451-1.451,1.455,1.455,0,0,1,1.451,1.451v5.517a1.456,1.456,0,0,1-1.451,1.452" transform="translate(985.059 -571.884)" fill="#fff"/>
            </g>
            <g id="Grupo_131871" data-name="Grupo 131871" transform="translate(29.355)">
              <path id="Trazado_191839" data-name="Trazado 191839" d="M-952.172,579.773a2.917,2.917,0,0,1-2.917,2.917,2.918,2.918,0,0,1-2.917-2.917,2.917,2.917,0,0,1,2.917-2.917,2.916,2.916,0,0,1,2.917,2.917" transform="translate(958.007 -572.636)" fill="#41b8df"/>
              <path id="Trazado_191840" data-name="Trazado 191840" d="M-954.839,580.3h0a1.456,1.456,0,0,1-1.451-1.452v-5.517a1.455,1.455,0,0,1,1.451-1.451,1.455,1.455,0,0,1,1.452,1.451v5.517a1.456,1.456,0,0,1-1.452,1.452" transform="translate(957.747 -571.884)" fill="#fff"/>
            </g>
          </g>
          <g id="Grupo_131874" data-name="Grupo 131874">
            <path id="Rectángulo_294028" data-name="Rectángulo 294028" d="M3.419,0H34.775a3.42,3.42,0,0,1,3.42,3.42v9.352a3.42,3.42,0,0,1-3.42,3.42H3.421A3.421,3.421,0,0,1,0,12.77V3.419A3.419,3.419,0,0,1,3.419,0Z" fill="#112f80"/>
            <path id="Rectángulo_294029" data-name="Rectángulo 294029" d="M1.3,0h32a1.3,1.3,0,0,1,1.3,1.3v9.992a1.3,1.3,0,0,1-1.3,1.3H1.3a1.3,1.3,0,0,1-1.3-1.3V1.3A1.3,1.3,0,0,1,1.3,0Z" transform="translate(1.799 1.799)" fill="#8e93c9"/>
            <g id="Grupo_131873" data-name="Grupo 131873" transform="translate(9.75 4.816)">
              <path id="Trazado_191841" data-name="Trazado 191841" d="M-1077.447,573.5h18.543a.9.9,0,0,0,.9-.9.9.9,0,0,0-.9-.9h-18.543a.9.9,0,0,0-.9.9A.9.9,0,0,0-1077.447,573.5Z" transform="translate(1078.347 -571.702)" fill="#112f80"/>
              <path id="Trazado_191842" data-name="Trazado 191842" d="M-1077.447,578.928h9.271a.9.9,0,0,0,.9-.9.9.9,0,0,0-.9-.9h-9.271a.9.9,0,0,0-.9.9A.9.9,0,0,0-1077.447,578.928Z" transform="translate(1078.347 -572.523)" fill="#112f80"/>
            </g>
          </g>
          <g id="Grupo_131876" data-name="Grupo 131876" transform="translate(22.197 77.558)">
            <path id="Rectángulo_294030" data-name="Rectángulo 294030" d="M3.77,0H20.926A3.772,3.772,0,0,1,24.7,3.772v0a3.769,3.769,0,0,1-3.769,3.769H3.77A3.77,3.77,0,0,1,0,3.77v0A3.77,3.77,0,0,1,3.77,0Z" fill="#142459"/>
            <g id="Grupo_131875" data-name="Grupo 131875" transform="translate(4.903 2.375)">
              <path id="Trazado_191843" data-name="Trazado 191843" d="M-1055.08,661.613a1.414,1.414,0,0,1-1.414,1.414,1.413,1.413,0,0,1-1.413-1.414,1.414,1.414,0,0,1,1.413-1.414A1.415,1.415,0,0,1-1055.08,661.613Z" transform="translate(1057.907 -660.199)" fill="#fff"/>
              <path id="Trazado_191844" data-name="Trazado 191844" d="M-1047.973,661.613a1.414,1.414,0,0,1-1.413,1.414,1.414,1.414,0,0,1-1.415-1.414,1.414,1.414,0,0,1,1.415-1.414A1.415,1.415,0,0,1-1047.973,661.613Z" transform="translate(1056.833 -660.199)" fill="#fff"/>
              <path id="Trazado_191845" data-name="Trazado 191845" d="M-1040.865,661.613a1.414,1.414,0,0,1-1.414,1.414,1.414,1.414,0,0,1-1.414-1.414,1.415,1.415,0,0,1,1.414-1.414A1.415,1.415,0,0,1-1040.865,661.613Z" transform="translate(1055.758 -660.199)" fill="#fff"/>
            </g>
          </g>
        </g>
        <path id="Trazado_191846" data-name="Trazado 191846" d="M-902.049,725.448a5.114,5.114,0,0,0,5.115,5.116h0a5.115,5.115,0,0,0,5.115-5.116V656.187a5.116,5.116,0,0,0-5.115-5.116h0a5.115,5.115,0,0,0-5.115,5.116Z" transform="translate(1291.819 -619.468)" fill="#fff" fill-rule="evenodd"/>
        <path id="Trazado_191847" data-name="Trazado 191847" d="M-896.935,675.735a5.116,5.116,0,0,1,5.115,5.116v40.915a5.115,5.115,0,0,1-5.115,5.115,5.114,5.114,0,0,1-5.115-5.115V680.851A5.115,5.115,0,0,1-896.935,675.735Z" transform="translate(1291.819 -615.785)" fill="#41b8df" fill-rule="evenodd"/>
        <path id="Trazado_191848" data-name="Trazado 191848" d="M-917.6,725.448a5.114,5.114,0,0,0,5.114,5.116h0a5.114,5.114,0,0,0,5.114-5.116V656.187a5.115,5.115,0,0,0-5.114-5.116h0a5.115,5.115,0,0,0-5.114,5.116Z" transform="translate(1289.497 -619.468)" fill="#fff" fill-rule="evenodd"/>
        <path id="Trazado_191849" data-name="Trazado 191849" d="M-912.487,664.031a5.115,5.115,0,0,1,5.114,5.115v54.368a5.114,5.114,0,0,1-5.114,5.116,5.114,5.114,0,0,1-5.114-5.116V669.146A5.115,5.115,0,0,1-912.487,664.031Z" transform="translate(1289.497 -617.534)" fill="#41b8df" fill-rule="evenodd"/>
        <path id="Trazado_191850" data-name="Trazado 191850" d="M-932.6,725.448a5.115,5.115,0,0,0,5.115,5.116h0a5.114,5.114,0,0,0,5.114-5.116V656.187a5.115,5.115,0,0,0-5.114-5.116h0a5.116,5.116,0,0,0-5.115,5.116Z" transform="translate(1287.257 -619.468)" fill="#fff" fill-rule="evenodd"/>
        <path id="Trazado_191851" data-name="Trazado 191851" d="M-927.488,672.455a5.115,5.115,0,0,1,5.114,5.114v44.686a5.114,5.114,0,0,1-5.114,5.116,5.115,5.115,0,0,1-5.115-5.116V677.569A5.115,5.115,0,0,1-927.488,672.455Z" transform="translate(1287.257 -616.275)" fill="#41b8df" fill-rule="evenodd"/>
        <path id="Trazado_191852" data-name="Trazado 191852" d="M-947.372,725.448a5.115,5.115,0,0,0,5.116,5.116h0a5.115,5.115,0,0,0,5.114-5.116V656.187a5.115,5.115,0,0,0-5.114-5.116h0a5.116,5.116,0,0,0-5.116,5.116Z" transform="translate(1285.052 -619.468)" fill="#fff" fill-rule="evenodd"/>
        <path id="Trazado_191853" data-name="Trazado 191853" d="M-942.256,656.2a5.115,5.115,0,0,1,5.114,5.114v63.373a5.115,5.115,0,0,1-5.114,5.116,5.115,5.115,0,0,1-5.116-5.116V661.31A5.116,5.116,0,0,1-942.256,656.2Z" transform="translate(1285.052 -618.704)" fill="#41b8df" fill-rule="evenodd"/>
        <g id="Grupo_131878" data-name="Grupo 131878" transform="translate(320.707 31.603)">
          <path id="Trazado_191854" data-name="Trazado 191854" d="M-962.14,725.448a5.115,5.115,0,0,0,5.115,5.116h0a5.114,5.114,0,0,0,5.115-5.116V656.187a5.115,5.115,0,0,0-5.115-5.116h0a5.116,5.116,0,0,0-5.115,5.116Z" transform="translate(962.14 -651.071)" fill="#fff" fill-rule="evenodd"/>
          <path id="Trazado_191855" data-name="Trazado 191855" d="M-957.026,669.785a5.114,5.114,0,0,1,5.115,5.114v47.755a5.115,5.115,0,0,1-5.115,5.116,5.115,5.115,0,0,1-5.115-5.116V674.9A5.115,5.115,0,0,1-957.026,669.785Z" transform="translate(962.14 -648.277)" fill="#41b8df" fill-rule="evenodd"/>
        </g>
        <path id="Trazado_191856" data-name="Trazado 191856" d="M-887.394,605.407h-31.141a5.168,5.168,0,0,0-5.168,5.169v34.879l12.853-11.606h23.456a5.169,5.169,0,0,0,5.169-5.169v-18.1A5.169,5.169,0,0,0-887.394,605.407Z" transform="translate(1244.41 -605.407)" fill="#142459"/>
        <g id="Grupo_131879" data-name="Grupo 131879" transform="translate(326.343 5.483)">
          <path id="Trazado_191857" data-name="Trazado 191857" d="M-917.376,627.773a1.076,1.076,0,0,1-.846-.41,1.079,1.079,0,0,1,.177-1.515l8.36-6.607a1.081,1.081,0,0,1,1.366.024l5.091,4.311,12.176-12.729a1.078,1.078,0,0,1,1.525-.033,1.079,1.079,0,0,1,.034,1.525L-902.37,625.8a1.08,1.08,0,0,1-1.477.077l-5.193-4.4-7.667,6.059A1.075,1.075,0,0,1-917.376,627.773Z" transform="translate(918.454 -610.513)" fill="#fff"/>
          <path id="Trazado_191858" data-name="Trazado 191858" d="M-898.931,611.518" transform="translate(919.899 -610.438)" fill="#646db0"/>
          <path id="Trazado_191859" data-name="Trazado 191859" d="M-891.513,621.772a1.079,1.079,0,0,1-1.079-1.079v-8.023h-8.023a1.078,1.078,0,0,1-1.078-1.078,1.078,1.078,0,0,1,1.078-1.079h9.1a1.078,1.078,0,0,1,1.078,1.079v9.1A1.078,1.078,0,0,1-891.513,621.772Z" transform="translate(919.695 -610.513)" fill="#fff"/>
        </g>
        <path id="Rectángulo_294031" data-name="Rectángulo 294031" d="M3.77,0H20.929A3.769,3.769,0,0,1,24.7,3.769v0a3.77,3.77,0,0,1-3.77,3.77H3.77A3.77,3.77,0,0,1,0,3.77v0A3.77,3.77,0,0,1,3.77,0Z" transform="translate(362.185 119.797)" fill="#142459"/>
        <g id="Grupo_131880" data-name="Grupo 131880" transform="translate(367.089 122.171)">
          <path id="Trazado_191860" data-name="Trazado 191860" d="M-866.232,732.169a1.414,1.414,0,0,1-1.414,1.414,1.413,1.413,0,0,1-1.413-1.414,1.414,1.414,0,0,1,1.413-1.414A1.415,1.415,0,0,1-866.232,732.169Z" transform="translate(869.059 -730.755)" fill="#fff"/>
          <path id="Trazado_191861" data-name="Trazado 191861" d="M-859.125,732.169a1.414,1.414,0,0,1-1.413,1.414,1.413,1.413,0,0,1-1.415-1.414,1.414,1.414,0,0,1,1.415-1.414A1.415,1.415,0,0,1-859.125,732.169Z" transform="translate(867.985 -730.755)" fill="#fff"/>
          <path id="Trazado_191862" data-name="Trazado 191862" d="M-852.018,732.169a1.414,1.414,0,0,1-1.414,1.414,1.414,1.414,0,0,1-1.414-1.414,1.415,1.415,0,0,1,1.414-1.414A1.415,1.415,0,0,1-852.018,732.169Z" transform="translate(866.91 -730.755)" fill="#fff"/>
        </g>
      </g>
      <g id="Grupo_131885" data-name="Grupo 131885" transform="translate(170.306 71.717)">
        <g id="Grupo_131884" data-name="Grupo 131884" transform="translate(0 0.7)">
          <g id="Grupo_131883" data-name="Grupo 131883" transform="translate(10.861 47.389)">
            <path id="Trazado_191863" data-name="Trazado 191863" d="M-1040.78,802.062c-1.425-.586-2.366-2.547-3.827-3.329-1.284-.687-5.62-1.217-8.595-1.751-1.085-.2-2.213-.345-3.356-.482-1.656-8.942-3.653-17.551-5.283-26.258-.553-2.956-1.074-5.785-1.8-8.568-.7-2.666-1.742-5.252-2.636-7.89-1.842-5.428-4.41-19.9-5.9-25.72,0-.055-.008-.108-.083-.094l-15.835,3.4c.482,3.028,2.8,12.955,3.372,16.187a76.435,76.435,0,0,1,.628,10.37,69.71,69.71,0,0,0,3.416,19.112c3.044,9.988,7.857,18.8,12.713,27.248a22.253,22.253,0,0,0,1.877,3.107h0c.609,1.869,20.064.3,22.4,1.09,1.377.467,6.292,2.85,6.216-.594.449.249,1.33.17,1.413-.334C-1035.563,806.34-1038.684,802.924-1040.78,802.062Z" transform="translate(1088.1 -727.968)" fill="#edc7a6" fill-rule="evenodd"/>
            <g id="Grupo_131882" data-name="Grupo 131882" transform="translate(13.356 26.485)">
              <path id="Trazado_191864" data-name="Trazado 191864" d="M-1072.365,762.18l8.081-2.248S-1069.305,757.169-1072.365,762.18Z" transform="translate(1072.365 -759.172)" fill="#864321" fill-rule="evenodd"/>
              <path id="Trazado_191865" data-name="Trazado 191865" d="M-1029.294,819.6c.29.442.541,1.042.163,1.475-.88,1.012-2.366-.648-3.66-1.429a23.805,23.805,0,0,0-2.628-1.347,41.966,41.966,0,0,0-6.3-1.736c2.875-.266,6.959,1,9.319,2.263.779.417,3.114,1.149,3.107.774" transform="translate(1067.731 -767.844)" fill="#ddb18f" fill-rule="evenodd"/>
              <path id="Trazado_191866" data-name="Trazado 191866" d="M-1042.325,812.492a22.367,22.367,0,0,1,6.594.791,11.761,11.761,0,0,0,2.37,1.8,42.5,42.5,0,0,0-8.964-2.592" transform="translate(1067.823 -767.234)" fill="#ddb18f" fill-rule="evenodd"/>
            </g>
          </g>
          <path id="Trazado_191867" data-name="Trazado 191867" d="M-1058.921,785.793c-8.234,2.5-10.125,3.518-19.326,4.7-3.051-8.758-23.26-86.875-22.635-96.215a47.168,47.168,0,0,1,2.417-12.56c1.313-3.65,3.549-8.019,7.582-9.15,1.617-.452,2.438-.6,3.6-.184,2.882,1.036,5.957,4.783,7.386,8.266a92.07,92.07,0,0,1,3.7,11.972C-1073.974,701.289-1060.614,777.13-1058.921,785.793Z" transform="translate(1100.896 -672.138)" fill="#abafd9" fill-rule="evenodd"/>
        </g>
        <path id="Trazado_191868" data-name="Trazado 191868" d="M-1086.151,671.313a11.175,11.175,0,0,1,1.8,5.149,16.274,16.274,0,0,1-1.821,8.025,46.47,46.47,0,0,1-3.454,6.4,102.475,102.475,0,0,1-7.636,9.659C-1073.538,685.132-1085.792,671.355-1086.151,671.313Z" transform="translate(1100.347 -671.313)" fill="#8e93c9"/>
      </g>
      <g id="Grupo_131887" data-name="Grupo 131887" transform="translate(75.953 57.513)">
        <g id="Grupo_131886" data-name="Grupo 131886">
          <path id="Trazado_191869" data-name="Trazado 191869" d="M-1147.759,654.591a50.894,50.894,0,0,1,10.815,1.339c5.208,1.1,10.312,2.6,15.4,4.156a93.09,93.09,0,0,1,9.658,3.352,43.983,43.983,0,0,1,6,3.078,8.459,8.459,0,0,1,4.186,7.593,21.42,21.42,0,0,1-2.86,11.253,57.7,57.7,0,0,1-5.819,8.394,37.778,37.778,0,0,1-7.689,6.855,200.521,200.521,0,0,0-17.069,13.021,139.94,139.94,0,0,0-13.336,12.671c-1.174,1.283-2.394,2.523-3.564,3.809a2.105,2.105,0,0,1-1.594.745c-4.086.167-8.176.265-12.262.414-6.167.226-12.336.3-18.5.429-4.773.1-9.547.014-14.317.171-3.814.125-7.632.18-11.436.534a9.075,9.075,0,0,1-1.124.045c-.674-.021-.879-.226-.733-.9.218-1,.5-1.984.8-2.96a95.794,95.794,0,0,1,3.743-10.168,59.369,59.369,0,0,1,4.055-7.45,175.568,175.568,0,0,1,14.93-20.229c3.556-4.228,6.891-8.632,10.356-12.933,2.7-3.348,5.555-6.551,8.437-9.737,1.831-2.023,3.691-4.017,5.673-5.893a36.88,36.88,0,0,1,6.4-4.915A17.91,17.91,0,0,1-1147.759,654.591Z" transform="translate(1212.056 -654.579)" fill="#c1c3e4"/>
        </g>
        <path id="Trazado_191870" data-name="Trazado 191870" d="M-1157.06,657.367c-.187.1-.372.21-.557.321a36.883,36.883,0,0,0-6.4,4.915c-1.982,1.876-3.843,3.87-5.673,5.893-2.882,3.186-5.74,6.389-8.437,9.737-3.466,4.3-6.8,8.705-10.356,12.933a175.557,175.557,0,0,0-14.93,20.229,59.428,59.428,0,0,0-4.055,7.45,95.869,95.869,0,0,0-3.743,10.168c-.3.976-.586,1.962-.8,2.96-.147.671.059.876.733.9a9.051,9.051,0,0,0,1.124-.045c2.822-.262,5.653-.361,8.484-.445a50.354,50.354,0,0,1,2.659-9.237,84.373,84.373,0,0,1,9.79-17.438c3.581-5.109,7.257-10.151,10.862-15.243a209.09,209.09,0,0,1,14.8-19.176,68.6,68.6,0,0,1,9.923-9.262,58.069,58.069,0,0,1,6.62-4.214Q-1152.041,657.676-1157.06,657.367Z" transform="translate(1212.056 -655.001)" fill="#8e93c9"/>
      </g>
      <path id="Trazado_191871" data-name="Trazado 191871" d="M-1108,618.512c2.611-3.921,5.569-5.423,9.374-6.807a15.522,15.522,0,0,1,14.516,1.477c11.5,7.434,6.462,15.79,2.089,23.844-4.053,7.463-6.387,11.759-12.073,12.968a33.58,33.58,0,0,1-3.694.448s-2.708,5.334-5.349,10.481c-2.337,4.555-19.2-4.986-16.835-9.183,4.162-7.4,9.462-16.4,9.62-17.117C-1110.133,633.637-1112.583,626.489-1108,618.512Z" transform="translate(1274.12 -590.41)" fill="#f4c7a5" fill-rule="evenodd"/>
      <g id="Grupo_131890" data-name="Grupo 131890" transform="translate(160.382 29.603)">
        <path id="Trazado_191872" data-name="Trazado 191872" d="M-1095.584,655.943a13.033,13.033,0,0,1-9.814-9s-2.294,9.686,7.722,13.127Z" transform="translate(1111.534 -625.515)" fill="#ddb18f"/>
        <g id="Grupo_131889" data-name="Grupo 131889">
          <path id="Trazado_191873" data-name="Trazado 191873" d="M-1111.821,623.894c-1.113,2.082-1.256,8.105,1.238,9.048,1.875.711,4.926-3.231,6.042-5.311s1.794-3.79,1.794-3.79c-1.883-.421-4.41-1.984-5.341-2.1C-1110.192,621.477-1111.046,622.451-1111.821,623.894Z" transform="translate(1112.587 -621.697)" fill="#ddb18f" fill-rule="evenodd"/>
          <g id="Grupo_131888" data-name="Grupo 131888" transform="translate(1.755 1.999)">
            <path id="Trazado_191874" data-name="Trazado 191874" d="M-1106.377,630.79a.986.986,0,0,0,.133.053.583.583,0,0,0,.7-.42,6.376,6.376,0,0,0-1.373-6.2.583.583,0,0,0-.814-.016.578.578,0,0,0-.017.816,5.252,5.252,0,0,1,1.086,5.118A.582.582,0,0,0-1106.377,630.79Z" transform="translate(1110.124 -624.052)" fill="#ddb18f"/>
            <path id="Trazado_191875" data-name="Trazado 191875" d="M-1110.212,629.465a.576.576,0,0,0,.74-.177,3.241,3.241,0,0,1,2.98-1.243.579.579,0,0,0,.6-.545.568.568,0,0,0-.543-.6,4.355,4.355,0,0,0-3.983,1.731.575.575,0,0,0,.139.8Z" transform="translate(1110.519 -624.48)" fill="#ddb18f"/>
          </g>
        </g>
      </g>
      <g id="Grupo_131891" data-name="Grupo 131891" transform="translate(180.011 38.826)">
        <path id="Trazado_191876" data-name="Trazado 191876" d="M-1089.151,642.584c.026.014.059.025.088.039a2.818,2.818,0,0,0,2.228-.092c1.249-.679,1.745-2.415,2.372-4.608a30.372,30.372,0,0,1,1.575-4.545.58.58,0,0,0-.283-.761.575.575,0,0,0-.765.281,32.178,32.178,0,0,0-1.633,4.711c-.527,1.859-.987,3.467-1.808,3.915a1.737,1.737,0,0,1-1.335,0,.574.574,0,0,0-.721.374.573.573,0,0,0,.283.682" transform="translate(1089.461 -632.564)" fill="#d19c79"/>
      </g>
      <g id="Grupo_131893" data-name="Grupo 131893" transform="translate(188.039 37.084)">
        <g id="Grupo_131892" data-name="Grupo 131892" transform="translate(0 6.572)">
          <path id="Trazado_191877" data-name="Trazado 191877" d="M-1077.7,640.328a1.421,1.421,0,0,1-1.786.839,1.434,1.434,0,0,1-.264-1.962c.426-.772,1.228-1.154,1.789-.845a1.433,1.433,0,0,1,.261,1.968" transform="translate(1080.003 -638.254)" fill="#142459" fill-rule="evenodd"/>
        </g>
        <path id="Trazado_191878" data-name="Trazado 191878" d="M-1078.229,630.56c-.385.317,1.377,2.032,2.619,3.5,1.224,1.473,1.946,2.77,2.327,2.448s-.119-2.016-1.353-3.489S-1077.845,630.236-1078.229,630.56Z" transform="translate(1079.743 -630.51)" fill="#55271f" fill-rule="evenodd"/>
      </g>
      <g id="Grupo_131894" data-name="Grupo 131894" transform="translate(177.086 33.112)">
        <path id="Trazado_191879" data-name="Trazado 191879" d="M-1084.144,627.9c-.091.491-2.448-.2-4.335-.564s-4.516-.38-4.426-.864,2.962-.85,4.854-.5C-1084.832,626.583-1084.037,627.334-1084.144,627.9Z" transform="translate(1092.908 -625.831)" fill="#55271f" fill-rule="evenodd"/>
        <path id="Trazado_191880" data-name="Trazado 191880" d="M-1089.335,633.734a1.449,1.449,0,0,1-1.812.856,1.477,1.477,0,0,1-.262-1.993,1.46,1.46,0,0,1,1.816-.845,1.452,1.452,0,0,1,.258,1.982" transform="translate(1092.719 -626.71)" fill="#142459" fill-rule="evenodd"/>
      </g>
      <path id="Trazado_191881" data-name="Trazado 191881" d="M-1091.655,603.786a6.4,6.4,0,0,0-6.915-2.463,13.114,13.114,0,0,0-7.578,7.008c-1.734,3.7-1.138,7.018-.971,10.281a16.806,16.806,0,0,1-.452,5.089c-.249,1.028-1.72,4.494.044,4.945,1.227.312,2.823-3.694,3.289-4.627,1.949-3.916,4.753-9.49,7.479-10.607,1.983-.816,4.6.155,7,1.806,1.84,1.268,3.1,3.2,4.443,4.874,2.24,2.79,4.7,6.666,9.076,6.945-.5,2.218-2.3,4.909-3.679,7.847-.556,1.182-3.555,6.393-3.555,6.393,2.533.524,5.062-3.416,5.983-4.264a26.345,26.345,0,0,1,2.687-2.293c1.888-1.3,4.011-2.139,5.625-4.022,2.263-2.641,2.578-6.588,1.262-8.291a6.289,6.289,0,0,0-3.866-1.881c5.2-5.791,2.862-13.332-2.666-17.1C-1080.836,599.078-1086.961,600.757-1091.655,603.786Z" transform="translate(1272.333 -588.933)" fill="#55271f" fill-rule="evenodd"/>
      <g id="Grupo_131895" data-name="Grupo 131895" transform="translate(162.79 28.247)">
        <path id="Trazado_191882" data-name="Trazado 191882" d="M-1109.75,621.771a3.553,3.553,0,0,1,2.532-.17c2.251,1.1,5.839,2.855,9.82,4.884-.92,1.479-2.559,4.589-1.449,6.436a5.178,5.178,0,0,0,1.928,1.581,10.38,10.38,0,0,0,4.036,1.4c2.226-.07,3.992-2.2,5.322-4.215.516.286,1.026.571,1.526.853-1.021,2.187-1.911,4.808-.8,6.74a10.363,10.363,0,0,0,3.305,2.709,5.179,5.179,0,0,0,2.356.816c2.272-.022,4.148-3.4,4.852-4.853a.653.653,0,0,0-.153-.761l-.085-.07,0,0-.043-.035a36.815,36.815,0,0,0-6.065-4.153c-.739-.413-1.5-.812-2.262-1.187a.6.6,0,0,0-.284-.06c-.666-.374-1.344-.75-2.038-1.131a.6.6,0,0,0-.206-.223c-.714-.449-1.455-.891-2.2-1.305a41.1,41.1,0,0,0-4.891-2.35c-5.252-2.725-10.212-5.175-12.865-6.486C-1108.993,619.653-1109.75,621.771-1109.75,621.771Zm24.833,11.413c.084.042.166.09.25.135,2.352,1.355,4.457,2.653,6.077,3.792.308.239.61.479.886.714-1.16,2.248-2.5,3.683-3.49,3.692a3.908,3.908,0,0,1-1.715-.652,9.69,9.69,0,0,1-2.815-2.226C-1086.53,637.23-1085.789,635.059-1084.917,633.184Zm-11.511-5.83a28.373,28.373,0,0,1,3.094,1.231c1.474.771,2.951,1.557,4.4,2.348.08.048.16.091.237.137-1.143,1.724-2.606,3.493-4.225,3.545a9.7,9.7,0,0,1-3.371-1.234,3.9,3.9,0,0,1-1.454-1.121C-1098.255,631.415-1097.736,629.518-1096.428,627.354Z" transform="translate(1109.75 -620.099)" fill="#112f80"/>
      </g>
      <path id="Trazado_191883" data-name="Trazado 191883" d="M-1091.969,647.729v0a.538.538,0,0,0-.526-.548h0a3.531,3.531,0,0,1-2.438-1.05,2.412,2.412,0,0,1-.2-2.145.538.538,0,0,0-.374-.665.537.537,0,0,0-.662.375,3.419,3.419,0,0,0,.376,3.081,4.576,4.576,0,0,0,3.277,1.481A.539.539,0,0,0-1091.969,647.729Z" transform="translate(1270.516 -595.36)" fill="#d19c79"/>
      <g id="Grupo_131896" data-name="Grupo 131896" transform="translate(150.657 57.291)">
        <path id="Trazado_191884" data-name="Trazado 191884" d="M-1107.338,666.016c-2.707,1.315-.476,10.432.859,10.937.874.33,6.375-3.713,8.551-5.191.912-.623,2.134-1.43,2.386-2.645.25-1.194-1.038-3.568-1.547-4.565s-1.84-.6-3.056-.367C-1100.933,664.337-1106.1,665.529-1107.338,666.016Z" transform="translate(1121.711 -655.767)" fill="#fff" fill-rule="evenodd"/>
        <path id="Trazado_191885" data-name="Trazado 191885" d="M-1110.337,664.388c1.27,2.61-5.6,8.715-6.885,8.361-.839-.232-5.542-9.548-6.323-11.986-.326-1.025-.779-2.373-.273-3.5.495-1.111,2.81-2.3,3.763-2.812s1.713.564,2.486,1.446C-1117.063,656.47-1110.991,663.287-1110.337,664.388Z" transform="translate(1124.044 -654.317)" fill="#fff" fill-rule="evenodd"/>
        <path id="Trazado_191886" data-name="Trazado 191886" d="M-1118.022,697.017c-.867-2.424-2.169-8.822-1.978-9.577.313-1.25,8.048-14.119,8.07-14.624.027-.654-.873-1.244-.856-1.828.024-.66,2.422-3.322,2.919-3.493a.7.7,0,0,1,.287.016h0a.153.153,0,0,1,.032.008l.033.008v0a.731.731,0,0,1,.256.128c.339.4,1.083,3.906.769,4.486-.278.515-1.355.572-1.658,1.152-.234.446-.01,15.46-.365,16.7-.214.747-4.55,5.627-6.519,7.288A.75.75,0,0,1-1118.022,697.017Z" transform="translate(1123.435 -656.308)" fill="#142459"/>
      </g>
      <path id="Trazado_191887" data-name="Trazado 191887" d="M-1168.07,942.852l15.672,2.261-2.695,18.628-16.96-3.427Z" transform="translate(1281.96 -640.653)" fill="#41b8df" fill-rule="evenodd"/>
      <path id="Trazado_191888" data-name="Trazado 191888" d="M-1152.935,952.621c-8.281,4.2-16.123-2.326-16.123-2.326Z" transform="translate(1281.507 -641.778)" fill="#175f70" fill-rule="evenodd"/>
      <g id="Grupo_131898" data-name="Grupo 131898" transform="translate(107.585 311.778)">
        <path id="Trazado_191889" data-name="Trazado 191889" d="M-1153.392,956.146c-.712-.1-3.188-.658-4.292.063-1.148.747-1.209,2.338-1.679,4.288-4.662-1.172-4.965-6.071-11.438-6.36a99.14,99.14,0,0,0-3.987,15.736c12.543,2.8,25.662,5.225,38.431,7.881a11.944,11.944,0,0,0-.438-3.557c-.987-3.019-3.267-4.86-5.994-6.419-3.669-2.095-8.037-4.224-9.608-7.954A24.876,24.876,0,0,1-1153.392,956.146Z" transform="translate(1174.789 -954.137)" fill="#abafd9" fill-rule="evenodd"/>
        <g id="Grupo_131897" data-name="Grupo 131897" transform="translate(17.794 5.714)">
          <path id="Trazado_191890" data-name="Trazado 191890" d="M-1153.8,962.4c.175.794,2.08.277,3.432.334.795.031,2.622.471,2.9-.207.508-1.209-2.266-1.712-3.491-1.653C-1152.146,960.935-1154.063,961.235-1153.8,962.4Z" transform="translate(1153.826 -960.869)" fill="#002875" fill-rule="evenodd"/>
          <path id="Trazado_191891" data-name="Trazado 191891" d="M-1152.288,966.172c.475,1.019,2.517.345,3.87.321.71-.013,1.493.046,2.176.091.654.045,1.814.357,1.892-.194.165-1.184-1.736-1.665-3.111-1.783C-1149.2,964.448-1152.995,964.659-1152.288,966.172Z" transform="translate(1153.606 -961.428)" fill="#002875" fill-rule="evenodd"/>
        </g>
        <path id="Trazado_191892" data-name="Trazado 191892" d="M-1142.263,968.041c1.079.64,2.185,1.244,3.23,1.839,2.727,1.558,5.007,3.4,5.994,6.419a11.938,11.938,0,0,1,.438,3.557c-5.735-1.193-11.541-2.338-17.337-3.5A11.343,11.343,0,0,1-1142.263,968.041Z" transform="translate(1171.031 -956.239)" fill="#002875"/>
        <path id="Trazado_191893" data-name="Trazado 191893" d="M-1167.056,972.5c-2.595-.545-5.181-1.1-7.732-1.668.686-3.557,1.4-7.07,2.282-10.346A13.039,13.039,0,0,1-1167.056,972.5Z" transform="translate(1174.789 -955.097)" fill="#002875"/>
      </g>
      <path id="Trazado_191894" data-name="Trazado 191894" d="M-1201.289,950.973l15.809-.878,1.038,18.793-17.3-.01Z" transform="translate(1286.45 -641.748)" fill="#41b8df" fill-rule="evenodd"/>
      <path id="Trazado_191895" data-name="Trazado 191895" d="M-1185.136,957.7c-7.289,5.751-16.266.9-16.266.9Z" transform="translate(1286.398 -642.897)" fill="#175f70" fill-rule="evenodd"/>
      <g id="Grupo_131900" data-name="Grupo 131900" transform="translate(83.967 317.604)">
        <path id="Trazado_191896" data-name="Trazado 191896" d="M-1184.338,961c-.717.046-3.254-.014-4.195.91-.978.959-.724,2.53-.8,4.535-4.8-.228-6.066-4.971-12.47-3.976a99.261,99.261,0,0,0-.8,16.213c12.849.272,26.188.054,39.23.136a11.959,11.959,0,0,0-1.131-3.4c-1.565-2.765-4.163-4.119-7.144-5.108-4.01-1.33-8.714-2.553-10.989-5.9A24.939,24.939,0,0,1-1184.338,961Z" transform="translate(1202.613 -961.001)" fill="#c1c3e4" fill-rule="evenodd"/>
        <g id="Grupo_131899" data-name="Grupo 131899" transform="translate(15.721 3.604)">
          <path id="Trazado_191897" data-name="Trazado 191897" d="M-1184.011,967.482c.329.745,2.095-.138,3.431-.35.786-.126,2.664-.056,2.8-.776.26-1.286-2.558-1.231-3.749-.931C-1182.678,965.72-1184.5,966.393-1184.011,967.482Z" transform="translate(1184.092 -965.248)" fill="#112f80" fill-rule="evenodd"/>
          <path id="Trazado_191898" data-name="Trazado 191898" d="M-1181.784,970.839c.667.9,2.535-.16,3.856-.45.694-.152,1.473-.25,2.152-.34.65-.085,1.849-.009,1.816-.564-.072-1.193-2.031-1.289-3.4-1.134C-1179.1,968.539-1182.776,969.494-1181.784,970.839Z" transform="translate(1183.768 -965.708)" fill="#112f80" fill-rule="evenodd"/>
        </g>
        <path id="Trazado_191899" data-name="Trazado 191899" d="M-1171.337,970.6c1.185.414,2.389.789,3.531,1.165,2.981.989,5.579,2.344,7.144,5.108a11.959,11.959,0,0,1,1.131,3.4c-5.858-.037-11.775-.012-17.685,0A11.342,11.342,0,0,1-1171.337,970.6Z" transform="translate(1198.773 -962.452)" fill="#112f80"/>
        <path id="Trazado_191900" data-name="Trazado 191900" d="M-1194.692,980.055c-2.651-.022-5.295-.052-7.909-.109-.031-3.621-.019-7.208.194-10.592A13.037,13.037,0,0,1-1194.692,980.055Z" transform="translate(1202.614 -962.264)" fill="#112f80"/>
      </g>
      <g id="Grupo_131903" data-name="Grupo 131903" transform="translate(74.687 132.17)">
        <path id="Trazado_191901" data-name="Trazado 191901" d="M-1176.943,781.542a2.434,2.434,0,0,0-.037.292c-.07,7.91.053,15.821.235,23.726.17,7.4.453,14.787.341,22.186-.055,3.716-.311,7.421-.558,11.128-.238,3.571-.624,7.128-.906,10.695-.3,3.736-.651,7.467-.943,11.2-.19,2.446-.311,4.9-.468,7.345-.182,2.856-.374,5.712-.554,8.569-.086,1.361-.136,2.723-.217,4.084-.2,3.4-.3,6.809-.487,10.212-.221,3.946-.492,7.89-.748,11.833-.139,2.142.368,19.293.227,21.436-.068,1.042-.169,1.179-1.216,1.188-2.591.024-5.179.133-7.768.213-5.962.183-11.923.414-17.889.424-1.553,0-1.583-.011-1.635-1.58-.172-5.212-1.171-25.426-1.342-30.638-.161-4.871-.267-9.743-.389-14.616-.174-6.92-.2-13.84-.179-20.761.017-5.184.345-10.352.782-15.515.4-4.722,1.012-9.417,1.606-14.116a68.256,68.256,0,0,0,.672-10.4q-.131-4.908-.668-9.788c-.4-3.726-.859-7.447-1.337-11.164-.417-3.244-.923-6.477-1.34-9.722-.518-4.021-1.032-8.041-1.39-12.083a144.475,144.475,0,0,1-.3-16.556,116.77,116.77,0,0,1,1.185-14.15c.046-.3.092-.608.165-.9.17-.69.532-.85,1.074-.417a.632.632,0,0,0,.614.2,34.123,34.123,0,0,1,5.175-.581c2.989-.221,5.986-.332,8.981-.489,8.451-.443,16.908-.2,25.361-.112,5.281.056,10.561.307,15.843.391.647.01,1.292.116,1.939.117a1.03,1.03,0,0,1,1.126.812c.228.75.493,1.489.771,2.222,2.5,6.6,5.053,13.178,7.513,19.792q6.543,17.592,12.357,35.439c1.7,5.219,3.512,10.4,4.775,15.752a38.86,38.86,0,0,1,.761,12.5,77.236,77.236,0,0,1-3.417,15.76c-2.716,8.835-5.881,17.515-9.051,26.193-4.5,12.331-11.629,36.054-16.434,48.269-.679,1.725-.6,1.889-2.413,1.644,0,0-17.978-2.744-21.488-2.692-1.391.02-1.439-.021-1.238-1.344.76-4.987,3.276-18.582,4.076-23.562,1.558-9.7,3.809-19.258,6.223-28.776,1.023-4.034,2.417-7.959,3.507-11.971,1.638-6.027,3.718-11.909,5.713-17.82a48.21,48.21,0,0,0,1.929-6.992,14.244,14.244,0,0,0-1.22-9.148c-2.061-4.116-4.359-8.108-6.345-12.262-2.457-5.135-4.989-10.237-7.15-15.508-1.086-2.65-2.014-5.361-2.961-8.064-.225-.64-.473-1.272-.71-1.908Z" transform="translate(1213.547 -742.535)" fill="#112f80"/>
        <g id="Grupo_131902" data-name="Grupo 131902" transform="translate(0 0.515)">
          <path id="Trazado_191902" data-name="Trazado 191902" d="M-1202.154,885.762c-.131-6.545.053-13.088.312-19.629.139-3.507.184-7.019.272-10.529.015-.58.022-1.159.053-1.738q.271-4.9.554-9.8c.144-2.449.28-4.9.469-7.346.251-3.26.542-6.519.958-9.764q.793-6.185,1.552-12.374a70.809,70.809,0,0,0,.7-9.474,98.517,98.517,0,0,0-1.316-13.624c-1.072-7.007-2.427-13.969-3.29-21.008-.406-3.315-.783-6.636-.891-9.974-.093-2.893-.026-5.789.116-8.687a48.323,48.323,0,0,1,1.231-8.676c-1.27.066-2.539.138-3.806.232a34.123,34.123,0,0,0-5.175.581.632.632,0,0,1-.614-.2c-.542-.434-.9-.273-1.074.417-.073.3-.119.6-.165.9a116.77,116.77,0,0,0-1.185,14.15,144.472,144.472,0,0,0,.3,16.556c.357,4.042.872,8.062,1.39,12.083.418,3.245.923,6.478,1.34,9.722.478,3.717.934,7.438,1.337,11.164q.529,4.879.668,9.788a68.256,68.256,0,0,1-.672,10.4c-.594,4.7-1.206,9.395-1.606,14.116-.437,5.163-.765,10.331-.782,15.515-.023,6.921.005,13.841.179,20.761.122,4.873.227,9.745.389,14.616.171,5.212,1.17,25.427,1.342,30.638.052,1.569.081,1.583,1.635,1.58,2.574,0,5.345-.122,7.917-.188-.328-4.3-1.494-23.547-1.726-27.855C-1201.963,894.009-1202.072,889.884-1202.154,885.762Z" transform="translate(1213.547 -743.142)" fill="#142459"/>
          <path id="Trazado_191903" data-name="Trazado 191903" d="M-1149.714,868.237a142.5,142.5,0,0,0,5.449-19.163,45.193,45.193,0,0,0,1.037-9.332,38.9,38.9,0,0,0-2.824-13.543,97.231,97.231,0,0,0-7.334-14.493,159.69,159.69,0,0,1-9.819-19.307q-2.479-5.844-4.451-11.869a10.6,10.6,0,0,0-.895-2.17,1.187,1.187,0,0,0-1.226-.744,1.207,1.207,0,0,0-.969,1.06,2.99,2.99,0,0,0-.092.5,28.407,28.407,0,0,0-.17,2.857c.058,1.6.106,3.2.16,4.8l.046-.005c.238.636.485,1.267.71,1.908.946,2.7,1.874,5.414,2.961,8.064,2.161,5.27,4.693,10.372,7.15,15.508,1.987,4.154,4.285,8.146,6.346,12.262a14.244,14.244,0,0,1,1.22,9.148,48.193,48.193,0,0,1-1.929,6.992c-2,5.911-4.075,11.792-5.713,17.82-1.09,4.012-2.484,7.938-3.507,11.971-2.414,9.518-4.664,19.073-6.222,28.776-.8,4.98-3.316,18.575-4.076,23.562-.2,1.322-.151,1.248,1.238,1.344,1.491.1,4.5.427,4.5.427,2.571-6.975,6.971-23.03,9.2-30.13C-1156.163,885.628-1152.743,877-1149.714,868.237Z" transform="translate(1207.56 -748.352)" fill="#142459"/>
          <g id="Grupo_131901" data-name="Grupo 131901" transform="translate(12.859 3.047)">
            <path id="Trazado_191904" data-name="Trazado 191904" d="M-1139.12,761.462a10.059,10.059,0,0,1-12.082-9.783C-1149.465,755.683-1143.484,759.806-1139.12,761.462Z" transform="translate(1191.262 -747.48)" fill="#142459" fill-rule="evenodd"/>
            <path id="Trazado_191905" data-name="Trazado 191905" d="M-1198.4,761.462a10.059,10.059,0,0,0,12.082-9.783C-1188.054,755.683-1194.034,759.806-1198.4,761.462Z" transform="translate(1198.398 -747.48)" fill="#142459" fill-rule="evenodd"/>
            <path id="Trazado_191906" data-name="Trazado 191906" d="M-1169.516,769.616c-.525-7.661-.558-22.986-.508-22.883,1.257,6.108,3.226,12.746,3.18,18.743C-1166.854,766.975-1166.729,770.194-1169.516,769.616Z" transform="translate(1194.11 -746.732)" fill="#142459" fill-rule="evenodd"/>
          </g>
        </g>
      </g>
      <g id="Grupo_131905" data-name="Grupo 131905" transform="translate(75.755 127.532)">
        <path id="Trazado_191907" data-name="Trazado 191907" d="M-1212.286,742.075a1.711,1.711,0,0,0,1.674,1.748l58.9,3.551a1.718,1.718,0,0,0,1.877-1.533l.216-3.466a1.711,1.711,0,0,0-1.673-1.75l-58.9-3.551a1.721,1.721,0,0,0-1.879,1.535Z" transform="translate(1212.289 -737.071)" fill="#41b8df" fill-rule="evenodd"/>
        <g id="Grupo_131904" data-name="Grupo 131904" transform="translate(30.199 1.148)">
          <path id="Trazado_191908" data-name="Trazado 191908" d="M-1161.166,746.487a1.055,1.055,0,0,0,1.019,1.1,1.063,1.063,0,0,0,1.115-1l.284-6.324a1.057,1.057,0,0,0-1.018-1.1,1.062,1.062,0,0,0-1.115,1.005Z" transform="translate(1174.36 -738.534)" fill="#fff" fill-rule="evenodd"/>
          <path id="Trazado_191909" data-name="Trazado 191909" d="M-1176.709,745.75a1.061,1.061,0,0,0,1.021,1.1,1.063,1.063,0,0,0,1.113-1l.283-6.327a1.053,1.053,0,0,0-1.018-1.094,1.063,1.063,0,0,0-1.115,1Z" transform="translate(1176.71 -738.423)" fill="#fff" fill-rule="evenodd"/>
          <path id="Trazado_191910" data-name="Trazado 191910" d="M-1172.056,739.377a.211.211,0,0,0,0,.029l0,0a.124.124,0,0,0,0,.022l-.267,5.836a.7.7,0,0,0,.009.106.869.869,0,0,0-.039.211.962.962,0,0,0,.894,1.027l5.786.362a.97.97,0,0,0,1.025-.906.17.17,0,0,0,0-.026.712.712,0,0,0,.046-.232l.264-5.845a.194.194,0,0,1,0-.045c0-.012,0-.02,0-.03a.964.964,0,0,0-.9-1.027l-5.791-.363a.96.96,0,0,0-.994.725.72.72,0,0,0-.026.154m1.726,5.359.057-1.266,3.781.239-.057,1.265Zm3.971-4-.045,1.033-3.781-.235.048-1.035Z" transform="translate(1176.053 -738.434)" fill="#fff" fill-rule="evenodd"/>
        </g>
      </g>
      <path id="Trazado_191911" data-name="Trazado 191911" d="M-1192.8,762.011c-1.491,1.62-3.512,7.832-5.641,7.225-2.31-.658.72-6.313.908-8.014-1.42,1.975-3.324,6.464-4.659,6.287-1.506-.2-1.187-2.822-.8-4.5.413-1.8,1.3-3.414,1.51-4.428-1.147,1.442-2.787,4.78-4.481,4.067-1.652-.7.357-4.363.789-5.931.572-2.068,1.451-4.591,1.414-6.021-.025-1.083-1.05-2.557-2.009-3.962-2.519-3.69-4.124-8.311-3.341-12.684l13.335,4.44c.874,2.233,2.435,3.871,4.656,5.965,1.434,1.356,3.832,3.119,4.5,4.993.992,2.8.035,8.971-1.755,13.182-.739,1.74-3,6.484-4.408,6.172-2.394-.532-.245-5.184-.016-6.786" transform="translate(1287.594 -609.081)" fill="#edc7a6" fill-rule="evenodd"/>
      <path id="Trazado_191912" data-name="Trazado 191912" d="M-1195.74,772.713c-3.07,1.368-1.524-3.832-.867-5.918,1.03-3.278,2.542-6.729,3.012-8.837.752,3.2-2.994,9.363-2.978,12.847a2.173,2.173,0,0,0,.833,1.907" transform="translate(1285.82 -612.697)" fill="#ddb18f" fill-rule="evenodd"/>
      <path id="Trazado_191913" data-name="Trazado 191913" d="M-1189.2,772.024a1.035,1.035,0,0,1-1.409.054c-1.221-.715-.167-4.308.348-5.941,1.032-3.276,2.737-6.767,3.211-8.875.749,3.2-3,9.362-2.982,12.849a2.186,2.186,0,0,0,.832,1.912" transform="translate(1284.852 -612.592)" fill="#ddb18f" fill-rule="evenodd"/>
      <path id="Trazado_191914" data-name="Trazado 191914" d="M-1205.7,762.724c-1.7-.185-.751-3.639-.289-5.48.264-1.049.639-2.137,1-3.235a13.889,13.889,0,0,0,1-3.237c.033-1.533-2.409-4.241-3.161-5.83a18.583,18.583,0,0,1-1.963-10.9c4.458,1.344,8.663,2.639,13.336,4.439-.623.506-4.183.416-6.671-.562a16.152,16.152,0,0,1-4.7-2.543,32.052,32.052,0,0,0,2.269,11.545c.72,1.891,1.7,2.916,1.169,5-.833,3.3-3.332,9.39-1.992,10.794" transform="translate(1287.59 -609.081)" fill="#ddb18f" fill-rule="evenodd"/>
      <path id="Trazado_191915" data-name="Trazado 191915" d="M-1199.882,769.819c-2.042,2.479-2.607-.5-2.567-1.6.148-4,3.416-7.724,3.958-13.311a3.835,3.835,0,0,1,.108,2.477c-.414,2.538-2.135,6.583-2.808,9.27-.308,1.229-.443,2.653,1.309,3.169" transform="translate(1286.556 -612.235)" fill="#ddb18f" fill-rule="evenodd"/>
      <g id="Grupo_131906" data-name="Grupo 131906" transform="translate(66.157 57.291)">
        <path id="Trazado_191916" data-name="Trazado 191916" d="M-1198.887,692.8c2.21,11.385,4.539,22.749,5.655,34.342a94.923,94.923,0,0,1-20.949,4.034c-2.76-9.381-5.491-18.162-7.378-27.847a99.548,99.548,0,0,1-1.941-14.2c-.25-4.788-.211-10.291,2.63-15.059,4.074-6.835,12.367-10.085,17.764-11.932,9.872-3.382,18.892-4.885,28.944-6.344a127.07,127.07,0,0,1,19.7-1.473,17.564,17.564,0,0,1,8.939,1.965c5.417,3.062,6.117,9.035,2.113,14.065-3.475,4.367-8.862,7.105-13.254,9.165C-1169.85,685.692-1186,689.979-1198.887,692.8Z" transform="translate(1223.597 -654.318)" fill="#abafd9" fill-rule="evenodd"/>
        <path id="Trazado_191917" data-name="Trazado 191917" d="M-1194.762,697.693l-1.549-11.034,4.518,10.37Z" transform="translate(1219.471 -659.207)" fill="#8e93c9"/>
      </g>
      <g id="Grupo_131926" data-name="Grupo 131926" transform="translate(47.3 101.924)">
        <g id="Grupo_131913" data-name="Grupo 131913" transform="translate(0 98.529)">
          <rect id="Rectángulo_294032" data-name="Rectángulo 294032" width="85.771" height="11.663" transform="translate(6.475 3.122)" fill="#8e93c9"/>
          <g id="Grupo_131909" data-name="Grupo 131909" transform="translate(158.293 9.066)">
            <g id="Grupo_131907" data-name="Grupo 131907">
              <path id="Trazado_191918" data-name="Trazado 191918" d="M-1050.675,835.114V957.284h-4.906l-3.741-123.622Z" transform="translate(1059.323 -833.662)" fill="#fff"/>
              <path id="Trazado_191919" data-name="Trazado 191919" d="M-1050.675,833.662V852.17h-8.063l-.584-18.508Z" transform="translate(1059.323 -833.662)" fill="#8e93c9"/>
            </g>
            <g id="Grupo_131908" data-name="Grupo 131908" transform="translate(62.83)">
              <path id="Trazado_191920" data-name="Trazado 191920" d="M-976.655,835.114V959.053h-4.906l-3.74-125.39Z" transform="translate(985.301 -833.662)" fill="#fff"/>
              <path id="Trazado_191921" data-name="Trazado 191921" d="M-976.655,833.662V852.17h-8.062l-.584-18.508Z" transform="translate(985.301 -833.662)" fill="#4368aa"/>
            </g>
          </g>
          <g id="Grupo_131912" data-name="Grupo 131912" transform="translate(6.475 9.11)">
            <g id="Grupo_131910" data-name="Grupo 131910" transform="translate(71.13)">
              <path id="Trazado_191922" data-name="Trazado 191922" d="M-1154.381,835.164l8.641-1.447-3.744,125.29h-4.9Z" transform="translate(1154.384 -833.715)" fill="#fff"/>
              <path id="Trazado_191923" data-name="Trazado 191923" d="M-1146.332,852.208l.59-18.494-8.642,1.45v17.044Z" transform="translate(1154.384 -833.714)" fill="#8e93c9"/>
            </g>
            <g id="Grupo_131911" data-name="Grupo 131911">
              <path id="Trazado_191924" data-name="Trazado 191924" d="M-1238.182,835.164l8.638-1.447-3.74,125.29h-4.9Z" transform="translate(1238.184 -833.715)" fill="#fff"/>
              <path id="Trazado_191925" data-name="Trazado 191925" d="M-1230.133,852.208l.588-18.494-8.64,1.45v17.044Z" transform="translate(1238.185 -833.714)" fill="#8e93c9"/>
            </g>
          </g>
          <rect id="Rectángulo_294033" data-name="Rectángulo 294033" width="137.523" height="11.663" transform="translate(92.245 3.122)" fill="#8e93c9"/>
          <path id="Trazado_191926" data-name="Trazado 191926" d="M-1245.813,824.543a1.564,1.564,0,0,0,1.566,1.561h231.067a1.565,1.565,0,0,0,1.568-1.561,1.564,1.564,0,0,0-1.568-1.562h-231.067a1.563,1.563,0,0,0-1.566,1.562" transform="translate(1245.813 -822.981)" fill="#fff"/>
        </g>
        <g id="Grupo_131925" data-name="Grupo 131925" transform="translate(78.863)">
          <g id="Grupo_131916" data-name="Grupo 131916">
            <g id="Grupo_131914" data-name="Grupo 131914" transform="translate(35.675 74.649)">
              <path id="Trazado_191927" data-name="Trazado 191927" d="M-1078.105,795.551c-.119,3.5-.89,9.192-1.319,13.591-.329,3.407-.813,5.276,1.429,6.421.426.217,1.172.182,1.463.783-7.748-.078-15.81-.038-23.848-.005-2.254.011-6.656.373-7.2-1.08-.41-1.095.614-3.831.873-5.046,1.115-5.24,2.049-10.327,3.269-15.2,8.365.082,16.868.327,25.336.533" transform="translate(1110.389 -794.874)" fill="#8e93c9" fill-rule="evenodd"/>
              <path id="Trazado_191928" data-name="Trazado 191928" d="M-1096.5,815.762l-10.568,0c-.487-.014-.8-.28-.716-.8.157-1.053,2.809-14.888,3.865-19.971,0-.079,0-.152-.115-.141a9.418,9.418,0,0,1-2.692,0c-.837,4.287-4.075,18.519-4.134,20.02a3.468,3.468,0,0,0,1.473,3.442,3.221,3.221,0,0,0,1.57.406c.045,0,.087.012.132.012l11.186-.005a1.617,1.617,0,0,0,1.725-1.48,1.617,1.617,0,0,0-1.727-1.48" transform="translate(1110.872 -794.848)" fill="#737cba" fill-rule="evenodd"/>
              <path id="Trazado_191929" data-name="Trazado 191929" d="M-1072.349,821.341a1.055,1.055,0,0,1-1.017,1.091l-20.213.008a1.053,1.053,0,0,1-1.016-1.09v-.775a1.054,1.054,0,0,1,1.016-1.09l20.213-.009a1.054,1.054,0,0,1,1.015,1.091Z" transform="translate(1108.411 -798.572)" fill="#b8bbe0" fill-rule="evenodd"/>
            </g>
            <g id="Grupo_131915" data-name="Grupo 131915">
              <path id="Trazado_191930" data-name="Trazado 191930" d="M-1146.608,770.3l-.023-50.4a12.953,12.953,0,0,1,12.949-12.959l-6.272,0A12.952,12.952,0,0,0-1152.9,719.9l.022,50.394a12.956,12.956,0,0,0,12.962,12.949l6.269,0a12.953,12.953,0,0,1-12.959-12.946" transform="translate(1152.902 -706.907)" fill="#8e93c9"/>
              <path id="Trazado_191931" data-name="Trazado 191931" d="M-1055.651,706.9l-6.272,0-70.642.031a12.956,12.956,0,0,0-12.951,12.959l.026,50.4a12.952,12.952,0,0,0,12.958,12.948l70.641-.032,6.273,0a12.953,12.953,0,0,0,12.949-12.959l-.024-50.394a12.949,12.949,0,0,0-12.958-12.947" transform="translate(1151.785 -706.901)" fill="#737cba"/>
              <path id="Trazado_191932" data-name="Trazado 191932" d="M-1057.126,709.031l-5.924,0-66.7.029a12.233,12.233,0,0,0-12.228,12.237l.022,47.585a12.233,12.233,0,0,0,12.238,12.226l66.7-.031,5.922,0a12.233,12.233,0,0,0,12.227-12.235l-.022-47.585a12.232,12.232,0,0,0-12.237-12.227" transform="translate(1151.25 -707.223)" fill="#fff"/>
            </g>
          </g>
          <g id="Grupo_131924" data-name="Grupo 131924" transform="translate(16.233 7.733)">
            <rect id="Rectángulo_294034" data-name="Rectángulo 294034" width="84.359" height="61.695" rx="2.655" fill="#c1c3e4"/>
            <g id="Grupo_131920" data-name="Grupo 131920" transform="translate(3.414 3.681)">
              <g id="Grupo_131917" data-name="Grupo 131917" transform="translate(71.259 0.001)">
                <path id="Trazado_191933" data-name="Trazado 191933" d="M-1043.195,725.565a2.611,2.611,0,0,1-2.608-2.609,2.611,2.611,0,0,1,2.608-2.608,2.611,2.611,0,0,1,2.608,2.608A2.612,2.612,0,0,1-1043.195,725.565Zm0-3.771a1.163,1.163,0,0,0-1.163,1.162,1.164,1.164,0,0,0,1.163,1.163,1.164,1.164,0,0,0,1.162-1.163A1.163,1.163,0,0,0-1043.195,721.794Z" transform="translate(1045.803 -720.348)" fill="#8e93c9"/>
                <path id="Trazado_191934" data-name="Trazado 191934" d="M-1039.291,727.31a.721.721,0,0,1-.466-.171l-2.018-1.705a.722.722,0,0,1-.086-1.019.723.723,0,0,1,1.019-.086l2.017,1.705a.722.722,0,0,1,.086,1.018A.722.722,0,0,1-1039.291,727.31Z" transform="translate(1045.233 -720.924)" fill="#8e93c9"/>
              </g>
              <g id="Grupo_131919" data-name="Grupo 131919">
                <path id="Trazado_191935" data-name="Trazado 191935" d="M-1115.016,725.565h-3.771a.723.723,0,0,1-.722-.723V721.07a.722.722,0,0,1,.722-.722h3.771a.722.722,0,0,1,.723.722v3.771A.723.723,0,0,1-1115.016,725.565Zm-3.048-1.446h2.326v-2.325h-2.326Z" transform="translate(1128.206 -720.347)" fill="#8e93c9"/>
                <g id="Grupo_131918" data-name="Grupo 131918">
                  <path id="Trazado_191936" data-name="Trazado 191936" d="M-1125.261,725.565a.722.722,0,0,1-.511-.212l-3.771-3.77a.723.723,0,0,1,0-1.023.722.722,0,0,1,1.022,0l3.771,3.771a.722.722,0,0,1,0,1.022A.722.722,0,0,1-1125.261,725.565Z" transform="translate(1129.756 -720.347)" fill="#8e93c9"/>
                  <path id="Trazado_191937" data-name="Trazado 191937" d="M-1129.033,725.565a.722.722,0,0,1-.511-.212.722.722,0,0,1,0-1.022l3.771-3.771a.722.722,0,0,1,1.022,0,.723.723,0,0,1,0,1.023l-3.771,3.77A.722.722,0,0,1-1129.033,725.565Z" transform="translate(1129.756 -720.347)" fill="#8e93c9"/>
                </g>
              </g>
            </g>
            <g id="Grupo_131921" data-name="Grupo 131921" transform="translate(63.428 17.781)">
              <path id="Trazado_191938" data-name="Trazado 191938" d="M-1042.873,775.734h-15.455a.724.724,0,0,1-.723-.723V737.683a.724.724,0,0,1,.723-.723h15.455a.723.723,0,0,1,.723.723v37.328A.723.723,0,0,1-1042.873,775.734Zm-14.732-1.446h14.01V738.406h-14.01Z" transform="translate(1059.051 -736.96)" fill="#8e93c9"/>
              <path id="Trazado_191939" data-name="Trazado 191939" d="M-1042.872,775.734a.722.722,0,0,1-.668-.447L-1059,737.96a.723.723,0,0,1,.392-.945.722.722,0,0,1,.944.391l15.455,37.328a.723.723,0,0,1-.391.945A.719.719,0,0,1-1042.872,775.734Z" transform="translate(1059.051 -736.96)" fill="#8e93c9"/>
              <path id="Trazado_191940" data-name="Trazado 191940" d="M-1058.328,775.734a.716.716,0,0,1-.276-.055.723.723,0,0,1-.392-.945l15.456-37.328a.722.722,0,0,1,.944-.391.723.723,0,0,1,.391.945l-15.455,37.327A.723.723,0,0,1-1058.328,775.734Z" transform="translate(1059.051 -736.96)" fill="#8e93c9"/>
            </g>
            <g id="Grupo_131922" data-name="Grupo 131922" transform="translate(3.82 17.781)">
              <path id="Trazado_191941" data-name="Trazado 191941" d="M-1113.1,775.734h-15.455a.724.724,0,0,1-.723-.723V737.683a.724.724,0,0,1,.723-.723h15.455a.723.723,0,0,1,.723.723v37.328A.723.723,0,0,1-1113.1,775.734Zm-14.732-1.446h14.009V738.406h-14.009Z" transform="translate(1129.277 -736.96)" fill="#8e93c9"/>
              <path id="Trazado_191942" data-name="Trazado 191942" d="M-1113.1,775.734a.722.722,0,0,1-.668-.447l-15.455-37.327a.723.723,0,0,1,.391-.945.723.723,0,0,1,.945.391l15.455,37.328a.723.723,0,0,1-.392.945A.717.717,0,0,1-1113.1,775.734Z" transform="translate(1129.277 -736.96)" fill="#8e93c9"/>
              <path id="Trazado_191943" data-name="Trazado 191943" d="M-1128.555,775.734a.723.723,0,0,1-.276-.055.723.723,0,0,1-.391-.945l15.455-37.328a.722.722,0,0,1,.944-.391.723.723,0,0,1,.392.945l-15.455,37.327A.723.723,0,0,1-1128.555,775.734Z" transform="translate(1129.277 -736.96)" fill="#8e93c9"/>
            </g>
            <g id="Grupo_131923" data-name="Grupo 131923" transform="translate(27.803 19.307)">
              <path id="Trazado_191944" data-name="Trazado 191944" d="M-1073.4,740.2h-26.9a.723.723,0,0,1-.723-.723.723.723,0,0,1,.723-.723h26.9a.724.724,0,0,1,.723.723A.724.724,0,0,1-1073.4,740.2Z" transform="translate(1101.022 -738.757)" fill="#8e93c9"/>
              <path id="Trazado_191945" data-name="Trazado 191945" d="M-1073.4,754.225h-26.9a.723.723,0,0,1-.723-.723.722.722,0,0,1,.723-.722h26.9a.723.723,0,0,1,.723.722A.723.723,0,0,1-1073.4,754.225Z" transform="translate(1101.022 -740.877)" fill="#8e93c9"/>
              <path id="Trazado_191946" data-name="Trazado 191946" d="M-1073.4,768.36h-26.9a.723.723,0,0,1-.723-.723.723.723,0,0,1,.723-.723h26.9a.724.724,0,0,1,.723.723A.724.724,0,0,1-1073.4,768.36Z" transform="translate(1101.022 -743.014)" fill="#8e93c9"/>
              <path id="Trazado_191947" data-name="Trazado 191947" d="M-1073.4,782.382h-26.9a.723.723,0,0,1-.723-.723.723.723,0,0,1,.723-.723h26.9a.724.724,0,0,1,.723.723A.724.724,0,0,1-1073.4,782.382Z" transform="translate(1101.022 -745.134)" fill="#8e93c9"/>
            </g>
            <path id="Trazado_191948" data-name="Trazado 191948" d="M-1058.433,724.892a4.033,4.033,0,0,1-4.032,4.032h-44.27a4.03,4.03,0,0,1-4.031-4.032h0a4.03,4.03,0,0,1,4.031-4.032h44.27a4.033,4.033,0,0,1,4.032,4.032Z" transform="translate(1130.298 -716.744)" fill="#fff"/>
          </g>
        </g>
      </g>
      <g id="Grupo_131940" data-name="Grupo 131940" transform="translate(249.595 147.046)">
        <g id="Grupo_131936" data-name="Grupo 131936" transform="translate(18.987 107.991)">
          <g id="Grupo_131933" data-name="Grupo 131933" transform="translate(0 58.239)">
            <path id="Trazado_191949" data-name="Trazado 191949" d="M-981.514,965.943a6.448,6.448,0,0,1,6.44-6.441H-899.5a6.448,6.448,0,0,1,6.441,6.441v5.383h3.6v-5.383A10.054,10.054,0,0,0-899.5,955.9h-75.578a10.051,10.051,0,0,0-10.039,10.041v5.383h3.6Z" transform="translate(985.113 -955.902)" fill="#151c40"/>
            <g id="Grupo_131927" data-name="Grupo 131927" transform="translate(0 9.82)">
              <path id="Trazado_191950" data-name="Trazado 191950" d="M-978.975,980.842a6.139,6.139,0,0,0,6.139-6.139h-12.277A6.138,6.138,0,0,0-978.975,980.842Z" transform="translate(985.113 -968.564)" fill="#151c40"/>
              <path id="Trazado_191951" data-name="Trazado 191951" d="M-978.975,967.471a6.137,6.137,0,0,0-6.138,6.138h12.277A6.139,6.139,0,0,0-978.975,967.471Z" transform="translate(985.113 -967.471)" fill="#fff"/>
            </g>
            <g id="Grupo_131929" data-name="Grupo 131929" transform="translate(23.786 0.45)">
              <rect id="Rectángulo_294035" data-name="Rectángulo 294035" width="3.6" height="14.975" fill="#151c40"/>
              <g id="Grupo_131928" data-name="Grupo 131928" transform="translate(0 9.37)">
                <path id="Trazado_191952" data-name="Trazado 191952" d="M-950.953,980.842a6.138,6.138,0,0,0,6.139-6.139H-957.09A6.137,6.137,0,0,0-950.953,980.842Z" transform="translate(957.09 -968.564)" fill="#151c40"/>
                <path id="Trazado_191953" data-name="Trazado 191953" d="M-950.953,967.471a6.137,6.137,0,0,0-6.137,6.138h12.276A6.138,6.138,0,0,0-950.953,967.471Z" transform="translate(957.09 -967.471)" fill="#112f80"/>
              </g>
            </g>
            <g id="Grupo_131931" data-name="Grupo 131931" transform="translate(68.193 0.45)">
              <rect id="Rectángulo_294036" data-name="Rectángulo 294036" width="3.6" height="14.975" fill="#151c40"/>
              <g id="Grupo_131930" data-name="Grupo 131930" transform="translate(0 9.37)">
                <path id="Trazado_191954" data-name="Trazado 191954" d="M-898.635,980.842A6.138,6.138,0,0,0-892.5,974.7h-12.276A6.138,6.138,0,0,0-898.635,980.842Z" transform="translate(904.772 -968.564)" fill="#151c40"/>
                <path id="Trazado_191955" data-name="Trazado 191955" d="M-898.635,967.471a6.138,6.138,0,0,0-6.137,6.138H-892.5A6.138,6.138,0,0,0-898.635,967.471Z" transform="translate(904.772 -967.471)" fill="#112f80"/>
              </g>
            </g>
            <g id="Grupo_131932" data-name="Grupo 131932" transform="translate(92.03 9.82)">
              <path id="Trazado_191956" data-name="Trazado 191956" d="M-870.552,980.842a6.14,6.14,0,0,0,6.14-6.139h-12.277A6.137,6.137,0,0,0-870.552,980.842Z" transform="translate(876.689 -968.564)" fill="#151c40"/>
              <path id="Trazado_191957" data-name="Trazado 191957" d="M-870.552,967.471a6.136,6.136,0,0,0-6.137,6.138h12.277A6.139,6.139,0,0,0-870.552,967.471Z" transform="translate(876.689 -967.471)" fill="#112f80"/>
            </g>
          </g>
          <g id="Grupo_131935" data-name="Grupo 131935" transform="translate(23.292)">
            <g id="Grupo_131934" data-name="Grupo 131934">
              <path id="Trazado_191958" data-name="Trazado 191958" d="M-907.617,887.432c-.008,6.29-6.2,6.625-13.538,6.625h-23.333c-5.92,0-10.965-.154-12.674-4.033a5.554,5.554,0,0,1-.434-1.439c-.072-.671-.25-1,.434-1.154a4.109,4.109,0,0,1,.576-.143C-941.026,887.642-923.333,887.585-907.617,887.432Z" transform="translate(957.672 -887.289)" fill="#151c40" fill-rule="evenodd"/>
            </g>
            <path id="Rectángulo_294037" data-name="Rectángulo 294037" d="M4.1,0H8.253a4.1,4.1,0,0,1,4.1,4.1V33.274a4.1,4.1,0,0,1-4.1,4.1H4.1a4.1,4.1,0,0,1-4.1-4.1V4.1A4.1,4.1,0,0,1,4.1,0Z" transform="translate(18.766 29.257)" fill="#151c40"/>
            <rect id="Rectángulo_294038" data-name="Rectángulo 294038" width="5.7" height="20.404" transform="translate(22.116 11.029)" fill="#151c40"/>
            <rect id="Rectángulo_294039" data-name="Rectángulo 294039" width="12.552" height="5.36" transform="translate(18.766 6.769)" fill="#151c40"/>
            <path id="Trazado_191959" data-name="Trazado 191959" d="M-898.35,902.71h-19.157l-.175-.036a34.659,34.659,0,0,1-5.6-2.3l1.6-3.225a37.316,37.316,0,0,0,4.559,1.963h18.772Z" transform="translate(952.471 -888.779)" fill="#151c40"/>
          </g>
        </g>
        <g id="Grupo_131939" data-name="Grupo 131939">
          <g id="Grupo_131937" data-name="Grupo 131937">
            <path id="Trazado_191960" data-name="Trazado 191960" d="M-953.067,760.176c1.973-.259,5.558,0,8.211,0h48.391c2.641,0,5.049-.379,6.916.288a6.364,6.364,0,0,1,3.744,3.456c.628,1.74.174,4.367,0,6.481-2.021,24.368-4.073,46.677-6.049,71.007-.7,8.546-3.8,14.937-8.354,19.586a21.983,21.983,0,0,1-8.5,5.617c-3.445,1.205-7.8,1.216-12.533,1.441-8.033.384-18.055.863-27.077.863-13.063,0-29.066.087-41.047-.142-2.273-.044-4.763,0-7.057,0-2.4,0-4.6.341-6.483-.145a5.9,5.9,0,0,1-4.319-4.034,6.263,6.263,0,0,1,3.31-7.489c1.73-.775,4.534-.626,7.2-.72,4.946-.174,10.165-.34,15.268-.576,3.23-.151,6.719-.171,8.786-1.152a13.325,13.325,0,0,0,6.192-7.059c1.282-3.053,1.464-6.743,1.873-11.232,2.063-22.638,3.675-44,5.761-66.685a23.426,23.426,0,0,1,.865-5.618A5.563,5.563,0,0,1-953.067,760.176Z" transform="translate(1007.482 -760.06)" fill="#8e93c9" fill-rule="evenodd"/>
          </g>
          <g id="Grupo_131938" data-name="Grupo 131938" transform="translate(60.605 0.069)">
            <path id="Trazado_191961" data-name="Trazado 191961" d="M-881.637,760.188c2.586-.341,5.723,1.243,6.628,3.744.913,2.533-.045,6.516-.29,9.363-1.88,21.969-3.826,43.785-5.617,65.389a58.918,58.918,0,0,1-1.152,9.072c-1.863,7.574-6.64,14.293-12.82,17.573a23.259,23.259,0,0,1-7.92,2.3c-5.937.768-12.7.735-19.157,1.008-3.119.131-6.8.7-9.506,0a5.964,5.964,0,0,1-4.609-6.05,6.009,6.009,0,0,1,3.6-5.472c1.771-.793,4.831-.639,7.2-.72,5.19-.182,10.049-.333,15.268-.576,2.938-.136,5.992-.171,7.92-.864a12.652,12.652,0,0,0,6.193-5.473c2.867-5.039,2.894-13.643,3.457-20.452,1.721-20.742,3.443-39.585,5.185-60.491C-886.873,764-886.015,760.764-881.637,760.188Z" transform="translate(936.082 -760.142)" fill="#fff" fill-rule="evenodd"/>
          </g>
        </g>
      </g>
      <g id="Grupo_131946" data-name="Grupo 131946" transform="translate(167.39 127.703)">
        <g id="Grupo_131944" data-name="Grupo 131944">
          <g id="Grupo_131941" data-name="Grupo 131941" transform="translate(19.467 1.751)">
            <path id="Trazado_191962" data-name="Trazado 191962" d="M-1003.708,745.431c-.481-3.982-3.133-6.412-6.358-6.063-3.019.324-5.06,2.02-6.925,3.514a45.484,45.484,0,0,0-4.979,4.866,205.229,205.229,0,0,0-16.683,21.514c-2.245,3.261-4.32,6.769-6.4,10.034a2.829,2.829,0,0,1-1.052,1.2c-4.777-7.55-10.325-14.71-15.583-21.857a72,72,0,0,0-6.056-7.217c-5.185,1.972-8.494,5.619-13.649,7.671,2.678,2.645,3.837,5.905,5.023,8.257,5.226,10.371,9.467,19.685,15.323,29.338a113.266,113.266,0,0,0,6.623,10.162,12.235,12.235,0,0,0,2.541,2.9c3.424,1.962,9.111-1.881,11.592-3.719a63.351,63.351,0,0,0,7.758-6.964,128.9,128.9,0,0,0,18.18-24.307c1.675-2.838,3.186-5.875,4.694-9.049a74.215,74.215,0,0,0,3.9-9.5c.48-1.512,1.045-3.3,1.443-5.082A17.813,17.813,0,0,0-1003.708,745.431Z" transform="translate(1081.397 -739.335)" fill="#944a32" fill-rule="evenodd"/>
            <path id="Trazado_191963" data-name="Trazado 191963" d="M-1002.768,745.434c-.433-3.578-2.62-5.9-5.4-6.078-.176,1.341-.41,2.653-.62,3.809a74.776,74.776,0,0,1-2.676,10.03c-1.1,3.38-2.221,6.622-3.532,9.685a130.265,130.265,0,0,1-15.07,26.738,64.065,64.065,0,0,1-6.875,7.991c-2.249,2.164-7.452,6.758-11.141,5.236a12.369,12.369,0,0,1-2.926-2.582,114.526,114.526,0,0,1-7.964-9.328c-5.877-7.357-10.86-15.215-16.212-23.082,4.982,9.889,9.461,19.587,15.07,28.834a113.3,113.3,0,0,0,6.623,10.162,12.238,12.238,0,0,0,2.541,2.9c3.424,1.962,9.111-1.881,11.592-3.719a63.36,63.36,0,0,0,7.758-6.964,128.9,128.9,0,0,0,18.18-24.307c1.675-2.838,3.186-5.875,4.694-9.049a74.222,74.222,0,0,0,3.9-9.5c.48-1.511,1.045-3.3,1.443-5.082A17.816,17.816,0,0,0-1002.768,745.434Z" transform="translate(1080.457 -739.338)" fill="#55271f"/>
          </g>
          <g id="Grupo_131943" data-name="Grupo 131943">
            <path id="Trazado_191964" data-name="Trazado 191964" d="M-1096.43,749.234c-1.1.261-4.924.435-6.633,1.143-.663.273-1.366.793-1.257,1.422.227,1.326,3.235.912,4.3.914,1.848,0,3.135.118,4.711.071-1.218.47-4.928.617-7.073,1.376-.893.317-1.864.849-1.689,1.653.22,1.021,2.728.963,3.572.971a66.685,66.685,0,0,1,11.806.79c3.69.783,5.173,1.519,8.015,5.268.542.714,10.344-10.785,10.063-11.09-5.925-6.459-12.126-9.823-13.58-10.973-1.377-1.092-5.871-4.7-7.486-3.1-1.328,1.315,3.443,4.289,4.253,5.508a29.217,29.217,0,0,0-10.7-.817c-1.1.12-3.432.255-3.522,1.241-.125,1.351,1.733,1.312,2.583,1.463a17.172,17.172,0,0,0,3.082.474c-1.485.432-4.929.5-6.606,1.261-.547.247-1.115.753-1.05,1.248.151,1.141,1.971.882,3.195.94,1.67.078,2.746.243,3.9.273Z" transform="translate(1104.331 -737.272)" fill="#944a32" fill-rule="evenodd"/>
            <g id="Grupo_131942" data-name="Grupo 131942" transform="translate(7.861 6.621)">
              <path id="Trazado_191965" data-name="Trazado 191965" d="M-1092.616,755.573a4.315,4.315,0,0,1-1.271-1.254c-1.782-2.72-1.372-7.368.042-9.247A13.824,13.824,0,0,0-1092.616,755.573Z" transform="translate(1095.07 -745.072)" fill="#55271f" fill-rule="evenodd"/>
            </g>
            <path id="Trazado_191966" data-name="Trazado 191966" d="M-1084.528,743.95a13.516,13.516,0,0,0,2.8,8.165C-1084.372,751.465-1085.913,746.118-1084.528,743.95Z" transform="translate(1101.415 -738.282)" fill="#55271f" fill-rule="evenodd"/>
          </g>
        </g>
        <g id="Grupo_131945" data-name="Grupo 131945" transform="translate(54.78 3.137)">
          <path id="Trazado_191967" data-name="Trazado 191967" d="M-1038.37,778.808-1024.2,798.2c3.161-2.6,38.313-45.719,22.1-56C-1016.677,732.957-1038.37,778.808-1038.37,778.808Z" transform="translate(1039.578 -740.968)" fill="#3490a6" fill-rule="evenodd"/>
          <path id="Trazado_191968" data-name="Trazado 191968" d="M-1029.9,809.779l-9.893-22.344,1.456-2.438,13.92,19.862S-1027.263,808.373-1029.9,809.779Z" transform="translate(1039.793 -747.625)" fill="#175f70" fill-rule="evenodd"/>
          <path id="Trazado_191969" data-name="Trazado 191969" d="M-996.768,752.737c-1.9,3.291-3.832,6.592-5.593,9.539-3.333,5.578-7.752,11.662-11.238,16.366-2.068,2.794-4.107,5.543-5.975,7.9-3.528,4.451-6.986,8.828-11.623,12.494l2.6,5.865a24.731,24.731,0,0,0,2.917-2.2,30.117,30.117,0,0,0,2.479-2.617c.025-.032.053-.064.078-.1l.009-.009.01-.011q.853-.881,1.678-1.757C-1015.347,791.31-996.847,767.107-996.768,752.737Z" transform="translate(1038.493 -742.747)" fill="#4bb7ca"/>
        </g>
      </g>
      <g id="Grupo_131947" data-name="Grupo 131947" transform="translate(204.469 298.513)">
        <path id="Trazado_191970" data-name="Trazado 191970" d="M-1039.522,941.5l-14.711-2.991-6.412,25.581,17.009,3.177Z" transform="translate(1060.646 -938.509)" fill="#944a32" fill-rule="evenodd"/>
        <path id="Trazado_191971" data-name="Trazado 191971" d="M-1054.61,944.566c6.32,6.411,15.485,2.122,15.485,2.122Z" transform="translate(1059.734 -939.425)" fill="#55271f" fill-rule="evenodd"/>
      </g>
      <path id="Trazado_191972" data-name="Trazado 191972" d="M-1063.1,957.553c.7.177,3.2.585,3.956,1.667.784,1.123.245,2.62-.049,4.6,4.761.659,6.877-3.769,12.988-1.611a99.357,99.357,0,0,1-2.2,16.083c-12.679-2.1-25.751-4.77-38.585-7.093a11.956,11.956,0,0,1,1.738-3.134c2.047-2.429,4.851-3.282,7.963-3.705,4.187-.568,9.036-.9,11.888-3.775A24.909,24.909,0,0,0-1063.1,957.553Z" transform="translate(1269.099 -642.875)" fill="#41b8df" fill-rule="evenodd"/>
      <g id="Grupo_131948" data-name="Grupo 131948" transform="translate(197.495 317.815)">
        <path id="Trazado_191973" data-name="Trazado 191973" d="M-1058.306,964.307c-.46.671-2.033-.523-3.307-.976-.75-.268-2.608-.546-2.613-1.279-.019-1.312,2.742-.738,3.856-.225C-1059.292,962.33-1057.627,963.325-1058.306,964.307Z" transform="translate(1068.162 -961.249)" fill="#175f70" fill-rule="evenodd"/>
        <path id="Trazado_191974" data-name="Trazado 191974" d="M-1061.411,967.149c-.822.767-2.462-.623-3.708-1.152-.654-.278-1.4-.517-2.052-.731-.624-.2-1.816-.35-1.682-.889.291-1.16,2.234-.893,3.553-.488C-1063.629,964.394-1060.189,966.01-1061.411,967.149Z" transform="translate(1068.863 -961.596)" fill="#175f70" fill-rule="evenodd"/>
      </g>
      <path id="Trazado_191975" data-name="Trazado 191975" d="M-1073.609,965c-1.241.189-2.493.335-3.686.495-3.112.423-5.915,1.276-7.963,3.7a11.956,11.956,0,0,0-1.738,3.134c5.764,1.042,11.576,2.158,17.383,3.256A11.344,11.344,0,0,0-1073.609,965Z" transform="translate(1269.099 -644.001)" fill="#175f70"/>
      <path id="Trazado_191976" data-name="Trazado 191976" d="M-1050.72,978.781c2.61.467,5.214.924,7.795,1.35.7-3.554,1.346-7.082,1.759-10.447A13.039,13.039,0,0,0-1050.72,978.781Z" transform="translate(1263.615 -644.71)" fill="#175f70"/>
      <g id="Grupo_131949" data-name="Grupo 131949" transform="translate(204.632 199.301)">
        <path id="Trazado_191977" data-name="Trazado 191977" d="M-1060.455,925.3l23.263,3.159c3.793-11.332,5.729-15.865,8.6-28.312,2.846-12.375,5.438-26.006,3.85-41.179,17.565,2.006,40.435,3.141,58.046.533,9.18-1.361,16.625-3.59,20.855-9.962a29.955,29.955,0,0,0,3.985-11.423c.67-3.967.319-8.443,0-12.354-.015-.217-.295-.511-.264-.665.057-.284.73-.046.4-.53-7.143-.194-14.332-.728-21.517-1.062s-14.268-1.4-21.122-1.727c-1.142-.053-3.029-.214-4.382-.135-1.309.08-2.212.338-3.32.4-3.848.221-7.457.259-11.027.532-3.6.276-7.064.643-10.491,1.063-13.672,1.68-27.237,3.42-33.075,13.151-2.813,4.688-3.863,11.2-4.915,18.2Z" transform="translate(1060.455 -821.624)" fill="#142459" fill-rule="evenodd"/>
        <path id="Trazado_191978" data-name="Trazado 191978" d="M-1023.144,836.862a14.619,14.619,0,0,1,3.187-2.922c.216-.144.446-.278.677-.411-16.068,0-7.285,30.961-7.981,45.043a166.217,166.217,0,0,1-6.777,39.182c-.872,3.006-2.679,11.6-2.652,12.085l3.09.422a277.047,277.047,0,0,0,8.6-28.312c2.338-10.158,4.5-21.164,4.319-33.172h0c-.039-2.621-.184-5.289-.469-8.008.17.02.348.039.514.059-.081-.155-.158-.312-.247-.455a6.189,6.189,0,0,0-3.229-2.659C-1025.922,850.678-1027.1,842.206-1023.144,836.862Z" transform="translate(1056.862 -823.424)" fill="#151c40"/>
      </g>
      <g id="Grupo_131950" data-name="Grupo 131950" transform="translate(267.852 294.805)">
        <path id="Trazado_191979" data-name="Trazado 191979" d="M-971.167,934.141l-14.806,2.477,3.177,26.18,17.018-3.126Z" transform="translate(985.973 -934.141)" fill="#944a32" fill-rule="evenodd"/>
        <path id="Trazado_191980" data-name="Trazado 191980" d="M-985.016,945.551c8.206,4.344,15.71-1.984,15.71-1.984Z" transform="translate(985.828 -935.566)" fill="#55271f" fill-rule="evenodd"/>
      </g>
      <path id="Trazado_191981" data-name="Trazado 191981" d="M-987.629,956.6c.714-.084,3.2-.6,4.291.139,1.135.767,1.167,2.359,1.6,4.317,4.681-1.09,5.071-5.982,11.549-6.157a99.236,99.236,0,0,1,3.708,15.8c-12.59,2.581-25.75,4.77-38.564,7.2a11.944,11.944,0,0,1,.5-3.549c1.041-3,3.353-4.8,6.106-6.311,3.706-2.03,8.112-4.081,9.748-7.783A24.83,24.83,0,0,0-987.629,956.6Z" transform="translate(1256.708 -642.474)" fill="#41b8df" fill-rule="evenodd"/>
      <g id="Grupo_131951" data-name="Grupo 131951" transform="translate(263.266 317.839)">
        <path id="Trazado_191982" data-name="Trazado 191982" d="M-981.559,962.862c-.189.792-2.086.24-3.438.273-.794.018-2.63.425-2.9-.258-.487-1.218,2.3-1.671,3.52-1.591C-983.188,961.369-981.277,961.7-981.559,962.862Z" transform="translate(990.858 -961.277)" fill="#175f70" fill-rule="evenodd"/>
        <path id="Trazado_191983" data-name="Trazado 191983" d="M-983.428,966.6c-.493,1.011-2.522.3-3.874.253-.71-.025-1.494.019-2.178.053-.654.033-1.82.323-1.889-.228-.143-1.187,1.766-1.634,3.142-1.728C-986.484,964.827-982.694,965.1-983.428,966.6Z" transform="translate(991.376 -961.829)" fill="#175f70" fill-rule="evenodd"/>
      </g>
      <path id="Trazado_191984" data-name="Trazado 191984" d="M-995.172,968.284c-1.091.621-2.208,1.206-3.264,1.782-2.753,1.509-5.066,3.31-6.106,6.311a11.943,11.943,0,0,0-.5,3.549c5.755-1.092,11.58-2.132,17.4-3.187A11.341,11.341,0,0,0-995.172,968.284Z" transform="translate(1256.708 -644.498)" fill="#175f70"/>
      <path id="Trazado_191985" data-name="Trazado 191985" d="M-968.757,973.2c2.6-.5,5.2-1.005,7.761-1.531-.622-3.568-1.28-7.093-2.1-10.384A13.038,13.038,0,0,0-968.757,973.2Z" transform="translate(1251.226 -643.44)" fill="#175f70"/>
      <g id="Grupo_131953" data-name="Grupo 131953" transform="translate(235.702 202.189)">
        <path id="Trazado_191986" data-name="Trazado 191986" d="M-931.275,842.22c-1.032-6.233-3.289-11.77-4.917-17.136-.519-.21-.271.223-.528.278-6.617.743-13.693.44-21.122.518-7.221.076-14.557.4-21.653.665-6.873.257-14.306.427-21.12,1.2a67.473,67.473,0,0,0-9.3,1.858c-3.054.791-5.981,1.639-8.1,3.055a14.619,14.619,0,0,0-3.187,2.922c-5.21,7.037-1.517,19.5.8,26.966,2.661,8.581,6.249,16.353,9.032,24.308,5.7,16.261,10.5,26.611,16.041,41.511,1.425-.231,2.866-.39,4.3-.564,3.554-.431,7.121-.761,10.663-1.288,2.9-.432,5.787-.939,8.659-1.495-.825-10.872-1.419-18.1-4.191-28.2a149.178,149.178,0,0,0-13.019-31.348c8.8,2.122,19.679,2.526,30.417,2.526,10.544,0,20.347-1.4,25.107-7.838C-930.171,855.782-930.214,848.637-931.275,842.22Z" transform="translate(1023.85 -825.027)" fill="#112f80" fill-rule="evenodd"/>
        <g id="Grupo_131952" data-name="Grupo 131952" transform="translate(27.953 8.529)">
          <path id="Trazado_191987" data-name="Trazado 191987" d="M-926.3,843.74a63.776,63.776,0,0,0-2.164-8.665,44.166,44.166,0,0,1,.57,6.936c0,5.2-.576,9.373-2.788,12.618a19.641,19.641,0,0,1-5.448,5.446c-5.759,3.637-17.748,2.914-26.962,2.658-6.692-.188-14.256-.806-21.917-.4-2.406.127-5.2.575-5.713,1.728-.642,1.454.427,3.522,1.062,4.915,4.511,9.849,9.082,20.137,12.354,31.348,3,10.276,4.684,16.733,6.121,27.022q2.228-.385,4.446-.812c-.825-10.872-1.418-18.1-4.191-28.2a149.172,149.172,0,0,0-13.019-31.348c8.8,2.122,19.68,2.526,30.417,2.526,10.544,0,20.348-1.4,25.107-7.838C-925.192,857.3-925.234,850.156-926.3,843.74Z" transform="translate(990.917 -835.075)" fill="#142459"/>
        </g>
      </g>
      <g id="Grupo_131966" data-name="Grupo 131966" transform="translate(226.611 67.394)">
        <g id="Grupo_131954" data-name="Grupo 131954" transform="translate(25.668 56.174)">
          <path id="Trazado_191988" data-name="Trazado 191988" d="M-976.612,812.539c-2.291-12.632-10.225-25.554-14.792-31.554-.544-.715-1.492-2.176-2.1-2.348a8.818,8.818,0,0,0-1.929,0,9.711,9.711,0,0,1-4.276-1.342,8.054,8.054,0,0,1-3.69-3.775c-.979-2.344-.283-7.135-.419-10.147-.158-3.46-.485-6.932-.5-10.315a20.54,20.54,0,0,1,3.942-12.411,17.254,17.254,0,0,1,7.044-6.542,16.724,16.724,0,0,1,6.541-1.677,24.853,24.853,0,0,1,10.651,2.012,41.456,41.456,0,0,1,8.3,4.361,52.2,52.2,0,0,1,13.083,12.245c22.588,31.04,20.454,57.211,21.446,60.032C-933.161,811.5-971.706,813.318-976.612,812.539Z" transform="translate(1004.319 -732.4)" fill="#41b8df" fill-rule="evenodd"/>
          <path id="Trazado_191989" data-name="Trazado 191989" d="M-947.9,754.335c16.1,28.038,15.134,50.753,14.836,58.964a57.325,57.325,0,0,0,6.946-.571c-.991-2.821,1.143-28.992-21.446-60.032a47.711,47.711,0,0,0-9.2-9.387A48.513,48.513,0,0,1-947.9,754.335Z" transform="translate(997.128 -734.049)" fill="#2290ac"/>
        </g>
        <g id="Grupo_131965" data-name="Grupo 131965">
          <g id="Grupo_131964" data-name="Grupo 131964">
            <path id="Trazado_191990" data-name="Trazado 191990" d="M-1014.816,713.211l-.064-.008-.037.053a2.1,2.1,0,0,1-.211.244c-.083.083-.16.171-.238.26l-.229.258.223.014a6.622,6.622,0,0,1,6.2,6.53,6.613,6.613,0,0,1-6.55,6.661,6.613,6.613,0,0,1-6.661-6.549,6.582,6.582,0,0,1,4.617-6.341c.355-.192.408-.445.345-.6s-.293-.3-.654-.21a7.439,7.439,0,0,0-5.179,7.161,7.485,7.485,0,0,0,7.539,7.413,7.485,7.485,0,0,0,7.413-7.539A7.5,7.5,0,0,0-1014.816,713.211Z" transform="translate(1032.85 -673.324)" fill="#fff"/>
            <path id="Trazado_191991" data-name="Trazado 191991" d="M-988.054,709.917a17.288,17.288,0,0,0,2.951-8.5c-1.309-5.54-1.785-15.377-6.237-17.591-6.551-3.255-15.937-.664-19.94,3.951-3.434,3.968-6.224,12.458-5.925,20.712.3,8.343,3.8,13.907,13.757,11.359,1,3.27,2.559,8.67,2.966,9.846.858,2.5,12.09,5.9,17.141-4.227C-983.321,725.859-987.853,712.015-988.054,709.917Z" transform="translate(1031.94 -668.662)" fill="#944a32"/>
            <g id="Grupo_131955" data-name="Grupo 131955">
              <path id="Trazado_191992" data-name="Trazado 191992" d="M-969.454,696.164a4.123,4.123,0,0,0,3.231-4.059,4.124,4.124,0,0,0-4.158-4.089,4.066,4.066,0,0,0-1.013.149,3.185,3.185,0,0,0-1.662-2.189,2.655,2.655,0,0,0,.075-.416,5.074,5.074,0,0,0,1.944-4.037,5.087,5.087,0,0,0-5.129-5.044,5.061,5.061,0,0,0-3.25,1.211,4.052,4.052,0,0,0-3.793-2.554,6.159,6.159,0,0,0-6.212-6.106,6.156,6.156,0,0,0-5.955,4.822c-.149.006-.3.016-.442.035a3.184,3.184,0,0,0-3.161-2.651c-.091,0-.176.021-.264.029a6.156,6.156,0,0,0-6.1-5.045,6.152,6.152,0,0,0-5.521,3.551,3.182,3.182,0,0,0-3.011-2.095,3.191,3.191,0,0,0-3.163,3.218,3.162,3.162,0,0,0,.837,2.108,2.769,2.769,0,0,0,.111.63,3.553,3.553,0,0,0-3.575.133,2.857,2.857,0,0,0-.99,2.831,4.019,4.019,0,0,0-2.1-.58,4.057,4.057,0,0,0-4.022,4.091,4.025,4.025,0,0,0,.947,2.542,4.051,4.051,0,0,0-3.939,4.082,4.109,4.109,0,0,0,.086.785,5.084,5.084,0,0,0-4.871,5.119,5.084,5.084,0,0,0,4.949,5.036,5.075,5.075,0,0,0-.107,1.077,5.087,5.087,0,0,0,5.129,5.044,7.4,7.4,0,0,0,4.881-1.962s.394-3.148.671-4.692a25.334,25.334,0,0,1,1.836-5.9,3.856,3.856,0,0,0,2.078-2.285,2.3,2.3,0,0,0,1.052.369,2.266,2.266,0,0,0,2.157-1.069,1.921,1.921,0,0,0,1.372.763,1.967,1.967,0,0,0,1.567-.584,8.214,8.214,0,0,0,3.868,1.4,7.4,7.4,0,0,0,4.52-.486,2.617,2.617,0,0,0,1.738,1.363,2.422,2.422,0,0,0-.772,1.517,2.549,2.549,0,0,0,2.407,2.724,2.9,2.9,0,0,0,.463,0,1.7,1.7,0,0,0-.413.9,1.814,1.814,0,0,0,1.595,1.924c-.491,4.168-2.279,8.276-1.587,8.351,1.833-.454,3.422-5.987,4.771-5.948a2.248,2.248,0,0,1,1.643.823,4.168,4.168,0,0,1-2.394,6.864c-2.125,2.027-.9,4.405.045,4.858a2.736,2.736,0,0,0,2.167-.177,3.565,3.565,0,0,0,3.663,1.041c.08-.032.149-.079.223-.117a4.205,4.205,0,0,0,3.846,2.436,4.213,4.213,0,0,0,4.176-4.247,4.345,4.345,0,0,0-.078-.716,4.1,4.1,0,0,0,2.327.7,4.111,4.111,0,0,0,4.062-3.866c.029,0,.056,0,.084,0a6.255,6.255,0,0,0,6.2-6.308A6.242,6.242,0,0,0-969.454,696.164Z" transform="translate(1034.56 -666.22)" fill="#151c40" fill-rule="evenodd"/>
              <path id="Trazado_191993" data-name="Trazado 191993" d="M-1004.005,676.768a3.148,3.148,0,0,1,1.213.572,3.145,3.145,0,0,0-1.9-1.416,3.157,3.157,0,0,0-3.889,2.287,5.138,5.138,0,0,0,.205,2.89,3.553,3.553,0,0,0-3.488-.8,2.856,2.856,0,0,0-1.691,2.478,4.02,4.02,0,0,0-1.877-1.105,4.057,4.057,0,0,0-4.946,2.908,3.468,3.468,0,0,0,1,3.158,3.935,3.935,0,0,1-.02-1.808,4.056,4.056,0,0,1,4.849-3.068,4.016,4.016,0,0,1,1.911,1.043,2.86,2.86,0,0,1,1.609-2.531,3.557,3.557,0,0,1,3.512.685,8.244,8.244,0,0,1-.3-2.882C-1007.712,677.422-1005.724,676.381-1004.005,676.768Z" transform="translate(1032.428 -667.671)" fill="#0f2f80"/>
              <path id="Trazado_191994" data-name="Trazado 191994" d="M-983.214,679.649a6.159,6.159,0,0,1,4.016,7.729,4.052,4.052,0,0,1,2.817,3.6,5.061,5.061,0,0,1,3.465-.146,5.087,5.087,0,0,1,3.317,6.384,5.046,5.046,0,0,1-.725,1.43,5.043,5.043,0,0,0,2.018-2.682,5.087,5.087,0,0,0-3.317-6.384,5.07,5.07,0,0,0-3.465.146,4.049,4.049,0,0,0-2.817-3.6,6.158,6.158,0,0,0-4.016-7.729,6.151,6.151,0,0,0-6.723,2.114A6.138,6.138,0,0,1-983.214,679.649Z" transform="translate(1027.618 -668.017)" fill="#0f2f80"/>
            </g>
            <g id="Grupo_131963" data-name="Grupo 131963" transform="translate(15.37 26.984)">
              <g id="Grupo_131958" data-name="Grupo 131958" transform="translate(13.122 6.205)">
                <g id="Grupo_131957" data-name="Grupo 131957">
                  <g id="Grupo_131956" data-name="Grupo 131956" transform="translate(0 13.501)">
                    <path id="Trazado_191995" data-name="Trazado 191995" d="M-1000.993,725.725l1.344,4.5c4.438-2.49,6.515-9,6.515-9S-999.074,724.783-1000.993,725.725Z" transform="translate(1000.993 -721.227)" fill="#55271f" fill-rule="evenodd"/>
                  </g>
                  <path id="Trazado_191996" data-name="Trazado 191996" d="M-980.738,709.905c-.639,1.888-3.432,4.638-5.089,4.078s-1.55-4.215-.912-6.108a3.414,3.414,0,0,1,4.157-2.407A3.417,3.417,0,0,1-980.738,709.905Z" transform="translate(998.903 -705.321)" fill="#944a32" fill-rule="evenodd"/>
                </g>
                <path id="Trazado_191997" data-name="Trazado 191997" d="M-982.5,712.938l-.064-.008-.038.053a2.062,2.062,0,0,1-.21.244c-.083.083-.161.172-.238.26l-.23.258.224.013a6.621,6.621,0,0,1,6.2,6.53,6.613,6.613,0,0,1-6.549,6.661,6.613,6.613,0,0,1-6.661-6.549,6.58,6.58,0,0,1,4.617-6.342c.355-.192.408-.444.345-.6s-.294-.3-.654-.21a7.439,7.439,0,0,0-5.178,7.161,7.485,7.485,0,0,0,7.539,7.414,7.485,7.485,0,0,0,7.413-7.54A7.5,7.5,0,0,0-982.5,712.938Z" transform="translate(999.472 -706.472)" fill="#fff"/>
              </g>
              <g id="Grupo_131962" data-name="Grupo 131962">
                <g id="Grupo_131959" data-name="Grupo 131959" transform="translate(3.203 2.103)">
                  <path id="Trazado_191998" data-name="Trazado 191998" d="M-1010.387,710.95a.536.536,0,0,1-.087-.023A2.538,2.538,0,0,1-1012,709.6c-.5-1.189.136-2.7.941-4.606a27.8,27.8,0,0,0,1.468-4.108.527.527,0,0,1,.634-.378.526.526,0,0,1,.383.631,29.058,29.058,0,0,1-1.524,4.259c-.684,1.619-1.272,3.016-.944,3.8a1.56,1.56,0,0,0,.94.758.525.525,0,0,1,.3.676.512.512,0,0,1-.585.323" transform="translate(1012.603 -700.488)" fill="#55271f"/>
                  <path id="Trazado_191999" data-name="Trazado 191999" d="M-1010.627,719.185c-2.027-.3-2.147-3.241-2.016-3.5a.522.522,0,0,1,.7-.237c2.742,1.352,4.006-.146,4.062-.21.178-.223.564-.312.727-.081.7.949-1.067,4.494-3.471,4.024" transform="translate(1012.679 -702.686)" fill="#55271f"/>
                </g>
                <g id="Grupo_131960" data-name="Grupo 131960">
                  <path id="Trazado_192000" data-name="Trazado 192000" d="M-1016.452,698.943c.019.418,1.35.7,2.977.614s2.923-.492,2.905-.913-1.357-.7-2.983-.617-2.925.488-2.9.917" transform="translate(1016.452 -698.01)" fill="#151c40" fill-rule="evenodd"/>
                  <path id="Trazado_192001" data-name="Trazado 192001" d="M-1014.987,703.879c-.107.716.238,1.363.766,1.433s1.037-.449,1.14-1.167-.246-1.364-.768-1.435-1.038.446-1.137,1.17" transform="translate(1016.234 -698.72)" fill="#151c40" fill-rule="evenodd"/>
                </g>
                <g id="Grupo_131961" data-name="Grupo 131961" transform="translate(8.714 0.614)">
                  <path id="Trazado_192002" data-name="Trazado 192002" d="M-1006.174,698.977c-.146.409,1.008,1.2,2.586,1.759s2.969.692,3.112.285-1.007-1.2-2.583-1.77-2.967-.685-3.114-.274" transform="translate(1006.187 -698.733)" fill="#151c40" fill-rule="evenodd"/>
                  <path id="Trazado_192003" data-name="Trazado 192003" d="M-1004.981,704.859c-.111.762.251,1.457.817,1.536s1.1-.484,1.215-1.249a1.263,1.263,0,0,0-.823-1.534c-.56-.079-1.105.48-1.209,1.248" transform="translate(1006.007 -699.47)" fill="#151c40" fill-rule="evenodd"/>
                </g>
              </g>
            </g>
          </g>
          <path id="Trazado_192004" data-name="Trazado 192004" d="M-991.885,742.761c-3.092,0-5.854-.273-8.3-1.867l1.748-5.383a11.059,11.059,0,0,0,10.326,1.569,9.174,9.174,0,0,0,6.329-7.339l4.416,3.7c-1.433,4.275-4.643,6.925-9.122,8.439A16.821,16.821,0,0,1-991.885,742.761Z" transform="translate(1029.363 -675.824)" fill="#2290ac"/>
        </g>
      </g>
      <g id="Grupo_131970" data-name="Grupo 131970" transform="translate(227.321 127.058)">
        <g id="Grupo_131968" data-name="Grupo 131968" transform="translate(0 0.524)">
          <path id="Trazado_192005" data-name="Trazado 192005" d="M-970.7,746.527c-.8-5.356-4.125-12.349-10.6-7.946a13.493,13.493,0,0,0-4.235,5.084,94.462,94.462,0,0,0-6.823,17.316,164.724,164.724,0,0,0-4.749,21.18,14.025,14.025,0,0,1-.585,2.983,144.52,144.52,0,0,1-8.979-16.577c-1.307-3.049-6.076-14.86-7.57-19.176-1.207-3.487-3.223-10.029-6.962-11.356a19.972,19.972,0,0,0-4.372-.645c-2.65-.173-7.38-.673-7.935.47-1.374,2.833,4.146,3.437,5.829,3.983a3.734,3.734,0,0,0-1.761,2.318,9.644,9.644,0,0,1-.217,1.639c-.114.274-.627.482-.917,1.043a7.365,7.365,0,0,0-.284,4.648c.457,1.28,2.407,2,2.952,2.982.455.823.219,1.846.474,2.55a8.554,8.554,0,0,0,2.344,3.6c.514.425,1.392.524,1.794,1.041.274.351,3.561,16.731,4.387,19.52a169.367,169.367,0,0,0,6.234,17.5c2.591,6.222,6.312,12.758,10.663,14.959a10.228,10.228,0,0,0,7.739.395c4.244-1.509,6.68-4.235,8.816-7.127,6.1-8.252,8.66-17.166,10.976-26.494a154.333,154.333,0,0,0,3.609-18.887A54.435,54.435,0,0,0-970.7,746.527Z" transform="translate(1033.724 -737.13)" fill="#944a32" fill-rule="evenodd"/>
          <g id="Grupo_131967" data-name="Grupo 131967" transform="translate(0.019 1.809)">
            <path id="Trazado_192006" data-name="Trazado 192006" d="M-1033.7,739.262a11.316,11.316,0,0,0,1.444.729c2.213.974,5.149.721,8.323,1.1a7.753,7.753,0,0,0-3.738,1.072c-2.226-.331-5.749-1.068-6.028-2.9" transform="translate(1033.702 -739.262)" fill="#55271f" fill-rule="evenodd"/>
            <path id="Trazado_192007" data-name="Trazado 192007" d="M-1024.054,744.086a14.2,14.2,0,0,0-4.354.329c.539-1.5,3.069-.969,4.354-.329" transform="translate(1032.901 -739.895)" fill="#55271f" fill-rule="evenodd"/>
            <path id="Trazado_192008" data-name="Trazado 192008" d="M-1024.813,746.576c-1.333.147-2.7.251-3.932.517.465-1.2,2.5-.958,3.932-.517" transform="translate(1032.953 -740.314)" fill="#55271f" fill-rule="evenodd"/>
            <path id="Trazado_192009" data-name="Trazado 192009" d="M-1020.941,764.076c.605.424,1.537,1,1.775,1.176a6.09,6.09,0,0,1-6.148-2.931c-1.5-2.346-1.328-5.72-1.856-8.406-.057-.288,2.83,7.778,6.229,10.16" transform="translate(1032.715 -741.477)" fill="#55271f" fill-rule="evenodd"/>
          </g>
        </g>
        <g id="Grupo_131969" data-name="Grupo 131969" transform="translate(14.073)">
          <path id="Trazado_192010" data-name="Trazado 192010" d="M-990.7,782.8l17.471,14.059c1.975-3.454,20-55.328,3.308-60.092C-984.917,732.49-990.7,782.8-990.7,782.8Z" transform="translate(1013.145 -736.513)" fill="#3490a6" fill-rule="evenodd"/>
          <path id="Trazado_192011" data-name="Trazado 192011" d="M-976.627,811.39-991.27,793.2l.566-2.769,17.389,14.581A24.1,24.1,0,0,1-976.627,811.39Z" transform="translate(1013.232 -744.665)" fill="#175f70" fill-rule="evenodd"/>
          <path id="Trazado_192012" data-name="Trazado 192012" d="M-986.094,808.494c-1.524,2.142-4.861,6.591-8.939,7.2-2.536.38-5.278-2.3-7.1-4.4-5.918-6.838-10.8-16.853-14.974-25.776-.012-.026-.024-.054-.036-.081.317,1.4.58,2.5.744,3.057a169.394,169.394,0,0,0,6.234,17.5c2.591,6.222,6.312,12.758,10.663,14.959a9.852,9.852,0,0,0,4.477.969,11.508,11.508,0,0,0,1.431-.118,9.8,9.8,0,0,0,1.832-.456c4.244-1.509,6.68-4.235,8.816-7.127.873-1.18,1.671-2.375,2.408-3.582l-3.844-4.775C-984.913,806.748-985.479,807.627-986.094,808.494Z" transform="translate(1017.144 -743.909)" fill="#55271f"/>
          <path id="Trazado_192013" data-name="Trazado 192013" d="M-962.022,745.08c-.71,3.718-1.44,7.453-2.124,10.8-1.3,6.336-3.377,13.487-5.045,19.039-.991,3.3-1.967,6.542-2.905,9.361-1.775,5.324-3.512,10.556-6.45,15.477l3.843,4.775a25.035,25.035,0,0,0,1.879-2.992,31.794,31.794,0,0,0,1.389-3.255c.013-.039.027-.077.04-.116l.005-.011.006-.014q.484-1.1.944-2.189C-967.168,787.508-958.1,758.769-962.022,745.08Z" transform="translate(1011.308 -737.808)" fill="#4bb7ca"/>
        </g>
      </g>
    </g>
  </g>
</svg>
