<svg xmlns="http://www.w3.org/2000/svg" width="524.449" height="319.877" viewBox="0 0 524.449 319.877">
  <g id="Grupo_140226" data-name="Grupo 140226" transform="translate(2529.475 2445.273)">
    <g id="Grupo_109589" data-name="Grupo 109589" transform="translate(-3339.101 -5657.273)">
      <rect id="_4344786" data-name="4344786" width="524.449" height="319.877" transform="translate(809.626 3212)" fill="#ecf2f9"/>
    </g>
    <g id="Grupo_135003" data-name="Grupo 135003" transform="translate(-2241 -8579.734)">
      <g id="Grupo_134789" data-name="Grupo 134789" transform="translate(-196 6147)">
        <g id="window" transform="translate(61.397 61.254)">
          <rect id="Rectángulo_294295" data-name="Rectángulo 294295" width="200.849" height="200.076" fill="#aae0ff"/>
        </g>
        <g id="shadow" transform="translate(0 302.888)">
          <path id="shadow-2" data-name="shadow" d="M157.159,2235.01h321.45a1.775,1.775,0,0,0,1.775-1.775h0a1.775,1.775,0,0,0-1.775-1.775H157.159a1.775,1.775,0,0,0-1.775,1.775h0A1.775,1.775,0,0,0,157.159,2235.01Z" transform="translate(-155.384 -2231.46)" fill="#2d5b98"/>
        </g>
        <g id="system" transform="translate(12.528 0)">
          <g id="Grupo_134773" data-name="Grupo 134773" transform="translate(0)">
            <g id="Grupo_134769" data-name="Grupo 134769" transform="translate(0.366)">
              <circle id="Elipse_5179" data-name="Elipse 5179" cx="76.822" cy="76.822" r="76.822" transform="translate(21.58 18.971)" fill="none" stroke="#2e77e6" stroke-miterlimit="10" stroke-width="2" stroke-dasharray="13.096 13.096"/>
              <path id="Trazado_193319" data-name="Trazado 193319" d="M747.378,677.823a13.533,13.533,0,0,0-25.878-7.095,9.45,9.45,0,0,0-15.744,7.06h-1.766a9.162,9.162,0,0,0-9.135,9.135h0a9.162,9.162,0,0,0,9.135,9.135H746.7a9.162,9.162,0,0,0,9.135-9.135h0A9.159,9.159,0,0,0,747.378,677.823Z" transform="translate(-629.526 -587.072)" fill="#fff"/>
              <g id="Grupo_134746" data-name="Grupo 134746" transform="translate(65.582 135.176)">
                <rect id="Rectángulo_294296" data-name="Rectángulo 294296" width="64.156" height="54.946" rx="24.034" fill="#5896fa"/>
                <g id="Grupo_134745" data-name="Grupo 134745" transform="translate(10.524 4.354)">
                  <g id="Grupo_134744" data-name="Grupo 134744">
                    <path id="Trazado_193320" data-name="Trazado 193320" d="M810.152,1276.488H771.476a2.308,2.308,0,0,1-2.3-2.3h0a2.308,2.308,0,0,1,2.3-2.3h38.676a2.308,2.308,0,0,1,2.3,2.3h0A2.308,2.308,0,0,1,810.152,1276.488Z" transform="translate(-769.175 -1247.666)" fill="#fff"/>
                    <path id="Trazado_193321" data-name="Trazado 193321" d="M810.152,1327.6H771.476a2.308,2.308,0,0,1-2.3-2.3h0a2.308,2.308,0,0,1,2.3-2.3h38.676a2.308,2.308,0,0,1,2.3,2.3h0A2.308,2.308,0,0,1,810.152,1327.6Z" transform="translate(-769.175 -1291.368)" fill="#fff"/>
                    <g id="Grupo_134737" data-name="Grupo 134737" transform="translate(7.903 33.327)">
                      <path id="Trazado_193322" data-name="Trazado 193322" d="M825.3,1335.5a.81.81,0,1,1-.81-.81A.81.81,0,0,1,825.3,1335.5Z" transform="translate(-823.676 -1334.689)" fill="#80b2ff"/>
                      <path id="Trazado_193323" data-name="Trazado 193323" d="M844.452,1335.5a.81.81,0,1,1-.81-.81A.81.81,0,0,1,844.452,1335.5Z" transform="translate(-840.055 -1334.689)" fill="#80b2ff"/>
                      <path id="Trazado_193324" data-name="Trazado 193324" d="M863.608,1335.5a.81.81,0,1,1-.81-.81A.81.81,0,0,1,863.608,1335.5Z" transform="translate(-856.433 -1334.689)" fill="#80b2ff"/>
                      <path id="Trazado_193325" data-name="Trazado 193325" d="M882.765,1335.5a.81.81,0,1,1-.81-.81A.81.81,0,0,1,882.765,1335.5Z" transform="translate(-872.812 -1334.689)" fill="#80b2ff"/>
                      <path id="Trazado_193326" data-name="Trazado 193326" d="M901.921,1335.5a.81.81,0,1,1-.81-.81A.81.81,0,0,1,901.921,1335.5Z" transform="translate(-889.19 -1334.689)" fill="#80b2ff"/>
                      <path id="Trazado_193327" data-name="Trazado 193327" d="M921.077,1335.5a.81.81,0,1,1-.81-.81A.81.81,0,0,1,921.077,1335.5Z" transform="translate(-905.569 -1334.689)" fill="#80b2ff"/>
                      <path id="Trazado_193328" data-name="Trazado 193328" d="M940.234,1335.5a.81.81,0,1,1-.81-.81A.81.81,0,0,1,940.234,1335.5Z" transform="translate(-921.947 -1334.689)" fill="#80b2ff"/>
                      <path id="Trazado_193329" data-name="Trazado 193329" d="M959.39,1335.5a.81.81,0,1,1-.81-.81A.81.81,0,0,1,959.39,1335.5Z" transform="translate(-938.326 -1334.689)" fill="#80b2ff"/>
                      <path id="Trazado_193330" data-name="Trazado 193330" d="M978.546,1335.5a.81.81,0,1,1-.81-.81A.81.81,0,0,1,978.546,1335.5Z" transform="translate(-954.705 -1334.689)" fill="#80b2ff"/>
                    </g>
                    <g id="Grupo_134740" data-name="Grupo 134740" transform="translate(12.761)">
                      <circle id="Elipse_5180" data-name="Elipse 5180" cx="8.891" cy="8.891" r="8.891" fill="#fff"/>
                      <g id="Grupo_134739" data-name="Grupo 134739" transform="translate(3.948 2.924)">
                        <g id="Grupo_134738" data-name="Grupo 134738" transform="translate(2.151)">
                          <path id="Trazado_193331" data-name="Trazado 193331" d="M902.052,1130.622a2.808,2.808,0,0,0,2.181-1.068,2.738,2.738,0,0,0,.6-1.736,2.793,2.793,0,1,0-5.587,0,2.734,2.734,0,0,0,.6,1.736A2.818,2.818,0,0,0,902.052,1130.622Z" transform="translate(-899.247 -1125.013)" fill="#005cea"/>
                        </g>
                        <path id="Trazado_193332" data-name="Trazado 193332" d="M894.3,1173.267c0,1.77-9.883,1.77-9.883,0l0-2.062c.391-2.819,9.077-2.938,9.882,0Z" transform="translate(-884.414 -1162.66)" fill="#005cea"/>
                      </g>
                    </g>
                    <path id="Trazado_193333" data-name="Trazado 193333" d="M786.785,1329.877v-.123a.905.905,0,1,0-1.811,0v.123h-.137v1.632c0,.282,2.091.282,2.091,0v-1.632Zm-1.488-.123a.586.586,0,1,1,1.172,0v.123H785.3Zm.737.945v.471a.15.15,0,0,1-.157.145.139.139,0,0,1-.145-.145v-.471a.275.275,0,0,1-.145-.242.29.29,0,1,1,.447.242Z" transform="translate(-782.566 -1296.368)" fill="#5896fa"/>
                    <g id="Grupo_134743" data-name="Grupo 134743" transform="translate(2.26 25.171)">
                      <g id="Grupo_134742" data-name="Grupo 134742">
                        <g id="Grupo_134741" data-name="Grupo 134741" transform="translate(0.465)">
                          <path id="Trazado_193334" data-name="Trazado 193334" d="M788.555,1279.626a.593.593,0,0,0,.46-.225.578.578,0,0,0,.127-.366.589.589,0,1,0-1.179,0,.577.577,0,0,0,.127.366A.594.594,0,0,0,788.555,1279.626Z" transform="translate(-787.963 -1278.442)" fill="#5896fa"/>
                        </g>
                        <path id="Trazado_193335" data-name="Trazado 193335" d="M786.855,1288.624c0,.374-2.1.374-2.1,0l.011-.435c.082-.6,1.915-.62,2.085,0Z" transform="translate(-784.759 -1286.386)" fill="#5896fa"/>
                      </g>
                      <path id="Trazado_193336" data-name="Trazado 193336" d="M831.515,1284.45h-8.476a.677.677,0,0,1-.675-.675h0a.677.677,0,0,1,.675-.675h8.476a.677.677,0,0,1,.675.675h0A.677.677,0,0,1,831.515,1284.45Z" transform="translate(-816.911 -1282.424)" fill="#80b2ff"/>
                      <path id="Trazado_193337" data-name="Trazado 193337" d="M908.609,1284.45h-8.476a.677.677,0,0,1-.675-.675h0a.677.677,0,0,1,.675-.675h8.476a.677.677,0,0,1,.675.675h0A.677.677,0,0,1,908.609,1284.45Z" transform="translate(-882.827 -1282.424)" fill="#80b2ff"/>
                    </g>
                  </g>
                  <rect id="Rectángulo_294297" data-name="Rectángulo 294297" width="11.624" height="3.943" rx="1.972" transform="translate(14.822 39.472)" fill="#1251b3"/>
                </g>
              </g>
              <g id="Grupo_134754" data-name="Grupo 134754" transform="translate(0 92.464)">
                <g id="Grupo_134752" data-name="Grupo 134752">
                  <g id="Grupo_134748" data-name="Grupo 134748">
                    <g id="Grupo_134747" data-name="Grupo 134747">
                      <path id="Trazado_193338" data-name="Trazado 193338" d="M244.649,850.125h0c0-.063,0-.091,0-.1C244.649,850.039,244.649,850.125,244.649,850.125Z" transform="translate(-244.599 -839.911)" fill="#d9ffff"/>
                      <path id="Trazado_193339" data-name="Trazado 193339" d="M244.649,850.125h0c0-.063,0-.091,0-.1C244.649,850.039,244.649,850.125,244.649,850.125Z" transform="translate(-244.599 -839.911)" fill="#d9ffff"/>
                      <path id="Trazado_193340" data-name="Trazado 193340" d="M505.384,851.291s0-.086,0-.1c0,.006,0,.034,0,.1Z" transform="translate(-467.527 -840.908)" fill="#d9ffff"/>
                      <path id="Trazado_193341" data-name="Trazado 193341" d="M505.384,851.291s0-.086,0-.1c0,.006,0,.034,0,.1Z" transform="translate(-467.527 -840.908)" fill="#d9ffff"/>
                      <path id="Trazado_193342" data-name="Trazado 193342" d="M263.335,780.259c-4.406,4.719-11.436,8.587-18.959,10.235,0,.5-.015,3.286-.072,16.116-.077,17.115,16.212,25.479,18.741,26.763,2.45-1.128,18.944-9.478,19.021-26.594.057-12.83.07-15.614.072-16.116C274.63,788.948,267.7,785.018,263.335,780.259Z" transform="translate(-244.304 -780.259)" fill="#fff"/>
                    </g>
                  </g>
                  <g id="Grupo_134751" data-name="Grupo 134751" transform="translate(2.057 3.093)">
                    <g id="Grupo_134749" data-name="Grupo 134749">
                      <path id="Trazado_193343" data-name="Trazado 193343" d="M275.417,801.592a40.007,40.007,0,0,1-16.864,8.764l-.065,14.5c-.03,6.635,2.606,12.638,7.835,17.842a37.48,37.48,0,0,0,8.881,6.493l.25-.129V801.626Z" transform="translate(-258.488 -801.592)" fill="#296acc"/>
                    </g>
                    <g id="Grupo_134750" data-name="Grupo 134750" transform="translate(16.967 0.034)">
                      <path id="Trazado_193344" data-name="Trazado 193344" d="M375.5,801.825v47.437a37.5,37.5,0,0,0,8.688-6.284c5.275-5.157,7.965-11.136,7.994-17.771l.065-14.5A40.024,40.024,0,0,1,375.5,801.825Z" transform="translate(-375.499 -801.825)" fill="#2e77e6"/>
                    </g>
                  </g>
                </g>
                <g id="Grupo_134753" data-name="Grupo 134753" transform="translate(11.386 16.172)">
                  <path id="Trazado_193345" data-name="Trazado 193345" d="M322.831,945.973v11.234c0,1.251,15.274,1.251,15.274,0V945.973Zm8.409,5.966v3.184a.773.773,0,1,1-1.545,0v-3.191a1.879,1.879,0,1,1,1.545.007Z" transform="translate(-322.831 -938.116)" fill="#fff"/>
                  <path id="Trazado_193346" data-name="Trazado 193346" d="M344.657,898.844h-1.546v-.756a4.753,4.753,0,1,0-9.507,0v.756h-1.546v-.756a6.3,6.3,0,1,1,12.6,0Z" transform="translate(-330.72 -891.788)" fill="#fff"/>
                </g>
              </g>
              <g id="Grupo_134759" data-name="Grupo 134759" transform="translate(104.493)">
                <g id="Grupo_134755" data-name="Grupo 134755">
                  <rect id="Rectángulo_294298" data-name="Rectángulo 294298" width="27.59" height="34.439" fill="#296acc"/>
                </g>
                <g id="Grupo_134756" data-name="Grupo 134756" transform="translate(3.578 3.556)">
                  <rect id="Rectángulo_294299" data-name="Rectángulo 294299" width="27.59" height="34.439" fill="#fff" stroke="#5896fa" stroke-miterlimit="10" stroke-width="6.341"/>
                </g>
                <g id="Grupo_134757" data-name="Grupo 134757" transform="translate(8.122 7.048)">
                  <rect id="Rectángulo_294300" data-name="Rectángulo 294300" width="27.59" height="34.439" fill="#fff" stroke="#5896fa" stroke-miterlimit="10" stroke-width="6.341"/>
                </g>
                <g id="Grupo_134758" data-name="Grupo 134758" transform="translate(11.428 10.604)">
                  <rect id="Rectángulo_294301" data-name="Rectángulo 294301" width="27.59" height="34.439" fill="#5896fa"/>
                  <rect id="Rectángulo_294302" data-name="Rectángulo 294302" width="14.272" height="2.24" transform="translate(9.026 5.654)" fill="#005cea"/>
                  <rect id="Rectángulo_294303" data-name="Rectángulo 294303" width="18.492" height="2.24" transform="translate(4.806 10.916)" fill="#005cea"/>
                  <rect id="Rectángulo_294304" data-name="Rectángulo 294304" width="18.492" height="2.24" transform="translate(4.806 16.179)" fill="#005cea"/>
                  <rect id="Rectángulo_294305" data-name="Rectángulo 294305" width="18.492" height="2.24" transform="translate(4.806 21.441)" fill="#005cea"/>
                  <rect id="Rectángulo_294306" data-name="Rectángulo 294306" width="18.492" height="2.24" transform="translate(4.806 26.703)" fill="#005cea"/>
                </g>
              </g>
              <g id="Grupo_134762" data-name="Grupo 134762" transform="translate(4.581 17.332)">
                <circle id="Elipse_5181" data-name="Elipse 5181" cx="9.745" cy="9.745" r="9.745" transform="translate(27.709 27.476) rotate(-77.096)" fill="#fff"/>
                <g id="Grupo_134760" data-name="Grupo 134760" transform="translate(19.237)">
                  <path id="Trazado_193347" data-name="Trazado 193347" d="M444.091,291.526a17.879,17.879,0,0,0,2.388-6.645l.726.106,1.433.211.019,0a20.016,20.016,0,0,0-.377-7.786l-2.132.528a17.884,17.884,0,0,0-3.017-6.383l1.768-1.314A19.931,19.931,0,0,0,439.128,265l-1.139,1.888a17.846,17.846,0,0,0-6.645-2.388l.319-2.178a20.144,20.144,0,0,0-7.786.377l.528,2.133a17.886,17.886,0,0,0-6.384,3.016l-1.314-1.768a19.936,19.936,0,0,0-5.245,5.771l1.888,1.139a17.846,17.846,0,0,0-2.388,6.645l-1.541-.227-.63-.087-.007,0a20.148,20.148,0,0,0,.376,7.785l2.133-.528a17.919,17.919,0,0,0,3.024,6.388l-1.768,1.314a19.891,19.891,0,0,0,5.763,5.241l1.139-1.888a17.892,17.892,0,0,0,6.652,2.393l-.25,1.692-.068.485a20.107,20.107,0,0,0,7.778-.381l-.528-2.133a18.072,18.072,0,0,0,6.395-3.019l1.314,1.768a20.042,20.042,0,0,0,5.234-5.768Zm-20.4-.922a9.742,9.742,0,1,1,13.372-3.318A9.741,9.741,0,0,1,423.688,290.6Z" transform="translate(-408.57 -262.106)" fill="#005cea"/>
                </g>
                <g id="Grupo_134761" data-name="Grupo 134761" transform="translate(0 22.934)">
                  <path id="Trazado_193348" data-name="Trazado 193348" d="M294.187,425.464a9.416,9.416,0,0,0-2.62-2.637l.215-.321.424-.634,0-.008a10.539,10.539,0,0,0-3.788-1.58l-.231,1.133a9.419,9.419,0,0,0-3.717-.008l-.225-1.137a10.491,10.491,0,0,0-3.8,1.559l.641.968a9.4,9.4,0,0,0-2.637,2.62l-.964-.644a10.6,10.6,0,0,0-1.58,3.788l1.133.231a9.42,9.42,0,0,0-.008,3.717l-1.137.225a10.5,10.5,0,0,0,1.559,3.8l.968-.641a9.4,9.4,0,0,0,2.62,2.637l-.456.681-.184.28,0,0a10.608,10.608,0,0,0,3.787,1.58l.231-1.134a9.434,9.434,0,0,0,3.721.006l.225,1.137a10.475,10.475,0,0,0,3.795-1.557l-.641-.968a9.421,9.421,0,0,0,2.641-2.623l.748.5.215.142A10.588,10.588,0,0,0,296.7,432.8l-1.133-.231a9.517,9.517,0,0,0,.009-3.723l1.137-.225a10.551,10.551,0,0,0-1.56-3.792Zm-5.049,9.494a5.129,5.129,0,1,1,1.444-7.109A5.129,5.129,0,0,1,289.139,434.958Z" transform="translate(-275.899 -420.271)" fill="#1251b3"/>
                </g>
              </g>
              <g id="Grupo_134763" data-name="Grupo 134763" transform="translate(157.65 50.014)">
                <rect id="Rectángulo_294307" data-name="Rectángulo 294307" width="25.496" height="15.248" rx="6.228" transform="translate(0)" fill="#005cea"/>
                <rect id="Rectángulo_294308" data-name="Rectángulo 294308" width="25.496" height="2.631" transform="translate(0 2.88)" fill="#5896fa"/>
                <path id="Trazado_193349" data-name="Trazado 193349" d="M1347.172,572.477h-3.749a.432.432,0,0,0-.432.431h0a.431.431,0,0,0,.432.432h3.749a.431.431,0,0,0,.431-.432h0A.431.431,0,0,0,1347.172,572.477Z" transform="translate(-1341.332 -560.155)" fill="#d1f5ff"/>
                <path id="Trazado_193350" data-name="Trazado 193350" d="M1386.929,572.477h-3.749a.432.432,0,0,0-.432.431h0a.431.431,0,0,0,.432.432h3.749a.431.431,0,0,0,.432-.432h0A.432.432,0,0,0,1386.929,572.477Z" transform="translate(-1375.324 -560.155)" fill="#d1f5ff"/>
                <path id="Trazado_193351" data-name="Trazado 193351" d="M1426.687,572.477h-3.749a.432.432,0,0,0-.432.431h0a.431.431,0,0,0,.432.432h3.749a.431.431,0,0,0,.431-.432h0A.431.431,0,0,0,1426.687,572.477Z" transform="translate(-1409.318 -560.155)" fill="#d1f5ff"/>
                <path id="Trazado_193352" data-name="Trazado 193352" d="M1466.444,572.477H1462.7a.431.431,0,0,0-.432.431h0a.431.431,0,0,0,.432.432h3.749a.431.431,0,0,0,.432-.432h0A.432.432,0,0,0,1466.444,572.477Z" transform="translate(-1443.31 -560.155)" fill="#d1f5ff"/>
                <path id="Trazado_193353" data-name="Trazado 193353" d="M1341.968,492.833h0a.476.476,0,0,0-.476.476v.167a.476.476,0,0,0,.476.476h0a.476.476,0,0,0,.476-.476v-.167A.476.476,0,0,0,1341.968,492.833Z" transform="translate(-1340.05 -492.059)" fill="#d1f5ff"/>
                <path id="Trazado_193354" data-name="Trazado 193354" d="M1351.852,493.393h0a.56.56,0,0,0,.56.56h1.984a.56.56,0,0,0,.56-.56h0a.56.56,0,0,0-.56-.56h-1.984A.56.56,0,0,0,1351.852,493.393Z" transform="translate(-1348.907 -492.059)" fill="#d1f5ff"/>
                <rect id="Rectángulo_294309" data-name="Rectángulo 294309" width="4.05" height="3.697" rx="1.848" transform="translate(1.941 6.926)" fill="#5896fa"/>
              </g>
              <g id="Grupo_134768" data-name="Grupo 134768" transform="translate(154.751 92.381)">
                <g id="Grupo_134764" data-name="Grupo 134764" transform="translate(0 8.546)">
                  <path id="Trazado_193355" data-name="Trazado 193355" d="M1329.664,841.8v-1.742a1.432,1.432,0,0,0-1.432-1.432h-15.245a1.432,1.432,0,0,0-1.432,1.432v30.788h39.433V841.8Z" transform="translate(-1311.555 -838.622)" fill="#1251b3"/>
                  <path id="Trazado_193356" data-name="Trazado 193356" d="M1352.628,867.808h-38.668l-2.405,27.988H1350.8Z" transform="translate(-1311.555 -863.576)" fill="#fff"/>
                  <path id="Trazado_193357" data-name="Trazado 193357" d="M1350.988,889.557h-39.433l4.184-27.64a1.654,1.654,0,0,1,1.635-1.406h36.088a1.654,1.654,0,0,1,1.635,1.9Z" transform="translate(-1311.555 -857.337)" fill="#3383ff"/>
                </g>
                <g id="Grupo_134767" data-name="Grupo 134767" transform="translate(30.784 0)">
                  <g id="Grupo_134765" data-name="Grupo 134765" transform="translate(0)">
                    <circle id="Elipse_5182" data-name="Elipse 5182" cx="9.035" cy="9.035" r="9.035" transform="translate(0 12.778) rotate(-45)" fill="#005cea"/>
                    <path id="Trazado_193358" data-name="Trazado 193358" d="M1556.747,821.948a9.366,9.366,0,1,1,9.367-9.366A9.378,9.378,0,0,1,1556.747,821.948Zm0-18.07a8.7,8.7,0,1,0,8.7,8.7A8.713,8.713,0,0,0,1556.747,803.878Z" transform="translate(-1543.969 -799.805)" fill="#fff"/>
                  </g>
                  <g id="Grupo_134766" data-name="Grupo 134766" transform="translate(8.429 6.669)">
                    <path id="Trazado_193359" data-name="Trazado 193359" d="M1581.988,856.532v6.4c0,.712,8.7.712,8.7,0v-6.4Zm4.789,3.4v1.813a.44.44,0,1,1-.88,0v-1.817a1.07,1.07,0,1,1,.88,0Z" transform="translate(-1581.988 -852.058)" fill="#fff"/>
                    <path id="Trazado_193360" data-name="Trazado 193360" d="M1594.418,829.693h-.88v-.431a2.707,2.707,0,1,0-5.414,0v.431h-.88v-.431a3.587,3.587,0,1,1,7.175,0Z" transform="translate(-1586.481 -825.675)" fill="#fff"/>
                  </g>
                </g>
              </g>
            </g>
            <circle id="Elipse_5183" data-name="Elipse 5183" cx="3.459" cy="3.459" r="3.459" transform="translate(163.846 26.085)" fill="#aae0ff"/>
            <circle id="Elipse_5184" data-name="Elipse 5184" cx="3.459" cy="3.459" r="3.459" transform="translate(72.477 45.275) rotate(-80.25)" fill="#aae0ff"/>
            <circle id="Elipse_5185" data-name="Elipse 5185" cx="1.81" cy="1.81" r="1.81" transform="translate(189.751 86.697)" fill="#fff"/>
            <circle id="Elipse_5186" data-name="Elipse 5186" cx="1.81" cy="1.81" r="1.81" transform="translate(0 93.248) rotate(-76.789)" fill="#aae0ff"/>
            <circle id="Elipse_5187" data-name="Elipse 5187" cx="3.459" cy="3.459" r="3.459" transform="translate(25.867 156.233) rotate(-25.745)" fill="#aae0ff"/>
            <g id="Grupo_134770" data-name="Grupo 134770" transform="translate(82.185 0.497)">
              <path id="Trazado_193361" data-name="Trazado 193361" d="M831.3,153.618h0a.6.6,0,0,1-.6-.6V146.6a.6.6,0,0,1,.6-.6h0a.6.6,0,0,1,.6.6v6.417A.6.6,0,0,1,831.3,153.618Z" transform="translate(-827.496 -146.003)" fill="#aae0ff"/>
              <path id="Trazado_193362" data-name="Trazado 193362" d="M808.578,168.728h0a.6.6,0,0,1,.6-.6h6.417a.6.6,0,0,1,.6.6h0a.6.6,0,0,1-.6.6h-6.417A.6.6,0,0,1,808.578,168.728Z" transform="translate(-808.578 -164.921)" fill="#aae0ff"/>
            </g>
            <g id="Grupo_134771" data-name="Grupo 134771" transform="translate(150.4 82.889)">
              <path id="Trazado_193363" data-name="Trazado 193363" d="M1301.751,721.841h0a.6.6,0,0,1-.6-.6v-6.417a.6.6,0,0,1,.6-.6h0a.6.6,0,0,1,.6.6v6.417A.6.6,0,0,1,1301.751,721.841Z" transform="translate(-1297.944 -714.226)" fill="#fff"/>
              <path id="Trazado_193364" data-name="Trazado 193364" d="M1279.025,736.952h0a.6.6,0,0,1,.6-.6h6.416a.6.6,0,0,1,.6.6h0a.6.6,0,0,1-.6.6h-6.416A.6.6,0,0,1,1279.025,736.952Z" transform="translate(-1279.025 -733.145)" fill="#fff"/>
            </g>
            <g id="Grupo_134772" data-name="Grupo 134772" transform="translate(143.876 167.404)">
              <path id="Trazado_193365" data-name="Trazado 193365" d="M1256.758,1304.7h0a.6.6,0,0,1-.6-.6v-6.417a.6.6,0,0,1,.6-.6h0a.6.6,0,0,1,.6.6v6.417A.6.6,0,0,1,1256.758,1304.7Z" transform="translate(-1252.951 -1297.085)" fill="#fff"/>
              <path id="Trazado_193366" data-name="Trazado 193366" d="M1234.033,1319.81h0a.6.6,0,0,1,.6-.6h6.417a.6.6,0,0,1,.6.6h0a.6.6,0,0,1-.6.6h-6.417A.6.6,0,0,1,1234.033,1319.81Z" transform="translate(-1234.033 -1316.003)" fill="#fff"/>
            </g>
            <circle id="Elipse_5188" data-name="Elipse 5188" cx="1.919" cy="1.919" r="1.919" transform="translate(92.36 125.206)" fill="none" stroke="#fff" stroke-miterlimit="10" stroke-width="4.226"/>
          </g>
        </g>
        <g id="male" transform="translate(165.669 142.224)">
          <g id="Grupo_134788" data-name="Grupo 134788">
            <g id="Grupo_134776" data-name="Grupo 134776" transform="translate(0 36.276)">
              <path id="Trazado_193367" data-name="Trazado 193367" d="M1168.317,2135.067h-7.508l-.776-16.324h9.061Z" transform="translate(-1144.027 -2010.699)" fill="#0e0e0e"/>
              <path id="Trazado_193368" data-name="Trazado 193368" d="M2068.189,2135.067h-7.508l-.776-16.324h9.061Z" transform="translate(-1913.418 -2010.699)" fill="#0e0e0e"/>
              <path id="Trazado_193369" data-name="Trazado 193369" d="M1278.806,1453.322q-1.241,3.851-2.716,7.9H1151.455s-16.085-65.469,0-77.442a10.643,10.643,0,0,1,1.481-.9c21.663-11.132,108.519-13.745,126.152.575.135.106.259.217.38.327C1285.965,1389.749,1291.614,1413.557,1278.806,1453.322Z" transform="translate(-1130.581 -1373.61)" fill="#ea7b00"/>
              <path id="Trazado_193370" data-name="Trazado 193370" d="M1240.766,1707.292H1193.8l4.579-45.885C1206.573,1664.96,1228.374,1683.721,1240.766,1707.292Z" transform="translate(-1172.902 -1619.676)" fill="#ecaa10"/>
              <path id="Trazado_193371" data-name="Trazado 193371" d="M1788.951,1696.51q-1.241,3.851-2.716,7.9h-45.269c7.785-14.438,26.662-36.307,44.993-46.373Z" transform="translate(-1640.725 -1616.798)" fill="#ecaa10"/>
              <path id="Trazado_193372" data-name="Trazado 193372" d="M1213.494,1656.978h-17.28a5.79,5.79,0,0,0-5.74,5.031l-5.511,41.67H1083.974l-5.511-41.67a5.79,5.79,0,0,0-5.74-5.031h-17.28a5.79,5.79,0,0,0-5.7,6.807l9.594,69.394H1209.6l9.594-69.394A5.79,5.79,0,0,0,1213.494,1656.978Z" transform="translate(-1049.651 -1615.89)" fill="#ea7b00"/>
              <g id="Grupo_134775" data-name="Grupo 134775" transform="translate(30.207 63.19)">
                <g id="Grupo_134774" data-name="Grupo 134774">
                  <path id="Trazado_193373" data-name="Trazado 193373" d="M1362.076,1811.242c8.132,2.722,6.546,19.939,0,22.586h-98.647c-7.367-1.9-7.99-24.676,2.635-22.963C1331.088,1823.092,1334.239,1803.587,1362.076,1811.242Z" transform="translate(-1257.979 -1809.403)" fill="#f2b066"/>
                </g>
              </g>
            </g>
            <g id="Grupo_134787" data-name="Grupo 134787" transform="translate(50.53)">
              <path id="Trazado_193374" data-name="Trazado 193374" d="M1457.343,1387.066a91.445,91.445,0,0,0,.687,12.3h46.255l2.739-45.165c-2.748-16.5-10.27-20.495-22.175-20.495-10.655,0-17.751,8.692-22.064,20.326C1459.059,1364.08,1457.41,1376.326,1457.343,1387.066Z" transform="translate(-1448.756 -1303.212)" fill="#f6f6f6"/>
              <path id="Trazado_193375" data-name="Trazado 193375" d="M1457.359,1507.793l16.739-1.007c-9.292-3.042-10.032-17.3-.585-26.179l-10.711-6.724C1459.074,1483.936,1457.426,1497.054,1457.359,1507.793Z" transform="translate(-1448.772 -1423.068)" fill="#f6f6f6"/>
              <path id="Trazado_193376" data-name="Trazado 193376" d="M1435.388,1723.369h63.551v-21.627h-57.246Z" transform="translate(-1429.986 -1617.887)" fill="#0e0e0e"/>
              <g id="Grupo_134779" data-name="Grupo 134779" transform="translate(46.691 83.718)">
                <g id="Grupo_134777" data-name="Grupo 134777">
                  <path id="Trazado_193377" data-name="Trazado 193377" d="M1750.524,1715.7l-17.07,62.024h-13.31c4.214-26.394,3.27-43.552,7.234-65.469C1730.855,1694.265,1754.663,1699.026,1750.524,1715.7Z" transform="translate(-1720.144 -1700.799)" fill="#0e0e0e"/>
                </g>
                <g id="Grupo_134778" data-name="Grupo 134778" transform="translate(0 65.074)">
                  <path id="Trazado_193378" data-name="Trazado 193378" d="M1778.953,2181.506c0-.041,0-.082,0-.123a8.325,8.325,0,1,1,16.651,0c0,.041,0,.082,0,.123Z" transform="translate(-1770.423 -2169.655)" fill="#b15626"/>
                  <path id="Trazado_193379" data-name="Trazado 193379" d="M1738.6,2153.146l-3.026-.925c-2-3.93-10.517-3.443-9.33,1.339a6.249,6.249,0,0,1-5.1-1.167l-1,9.046h18.05Z" transform="translate(-1720.144 -2149.588)" fill="#b15626"/>
                </g>
              </g>
              <g id="Grupo_134782" data-name="Grupo 134782" transform="translate(1.637 83.718)">
                <g id="Grupo_134780" data-name="Grupo 134780">
                  <path id="Trazado_193380" data-name="Trazado 193380" d="M1409.906,1715.7l17.07,62.024h13.31c-4.214-26.394-3.27-43.552-7.234-65.469C1429.575,1694.265,1405.767,1699.026,1409.906,1715.7Z" transform="translate(-1409.424 -1700.799)" fill="#0e0e0e"/>
                </g>
                <g id="Grupo_134781" data-name="Grupo 134781" transform="translate(5.684 65.074)">
                  <path id="Trazado_193381" data-name="Trazado 193381" d="M1465.272,2181.506c0-.041,0-.082,0-.123a8.325,8.325,0,1,0-16.651,0c0,.041,0,.082,0,.123Z" transform="translate(-1448.624 -2169.655)" fill="#b15626"/>
                  <path id="Trazado_193382" data-name="Trazado 193382" d="M1494.973,2153.146l3.026-.925c2-3.93,10.517-3.443,9.33,1.339a6.249,6.249,0,0,0,5.1-1.167l1,9.046h-18.05Z" transform="translate(-1488.253 -2149.588)" fill="#b15626"/>
                </g>
              </g>
              <path id="Trazado_193383" data-name="Trazado 193383" d="M1427.1,1343.708c6.243,3.789,7.133,15.04,3.932,19.522l-17.813,13.27,18.136,9.339-2.946,9.646s-18.931-1.54-28.2-11.045C1391.318,1375.315,1413.008,1348.507,1427.1,1343.708Z" transform="translate(-1398.136 -1311.768)" fill="#e8e8e8"/>
              <path id="Trazado_193384" data-name="Trazado 193384" d="M1653.755,1362.533c-5.34-6.705-1.652-17.066,5.155-16.761,22.167,7.8,29.009,29.471,21.987,39.2-6.016,8.333-32.482,11.542-32.482,11.542v-9.123l18.388-3.973S1657.322,1368.724,1653.755,1362.533Z" transform="translate(-1612.125 -1313.526)" fill="#f6f6f6"/>
              <g id="Grupo_134784" data-name="Grupo 134784" transform="translate(20.149 48.972)">
                <path id="Trazado_193385" data-name="Trazado 193385" d="M1551.041,1632.621a7.024,7.024,0,0,1,6.042-7.711c8.031-1.458,10.938,2.948,11.7,6.1a1.334,1.334,0,0,1-1.238,1.612,1.357,1.357,0,0,1-1.293-1.091,3.107,3.107,0,0,0-1.4-2.169c.83,1.627.483,3.26-1.778,3.26Z" transform="translate(-1548.984 -1600.922)" fill="#f7a594"/>
                <g id="Grupo_134783" data-name="Grupo 134783">
                  <path id="Trazado_193386" data-name="Trazado 193386" d="M1557.288,1492.859l6.32-31.691h1.34l-6.84,34.883h-18.941l-2.069-3.192Z" transform="translate(-1537.098 -1461.168)" fill="#99c1ff"/>
                  <path id="Trazado_193387" data-name="Trazado 193387" d="M1688.836,1461.168h47.031l-6.957,34.883H1682Z" transform="translate(-1660.986 -1461.168)" fill="#afafaf"/>
                </g>
              </g>
              <g id="Grupo_134786" data-name="Grupo 134786" transform="translate(34.287)">
                <g id="Grupo_134785" data-name="Grupo 134785" transform="translate(0 20.279)">
                  <path id="Trazado_193388" data-name="Trazado 193388" d="M1634.6,1277.221c0,3.606,10.81,6,14.343,2.207a4,4,0,0,0,1.044-2.139l2.036-9.133-12.91-4.868-.385,1.193Z" transform="translate(-1634.6 -1263.288)" fill="#f7a594"/>
                  <path id="Trazado_193389" data-name="Trazado 193389" d="M1677.429,1286.6l2.036-9.133-12.214-3.289C1664.089,1283.589,1675.371,1291.106,1677.429,1286.6Z" transform="translate(-1662.042 -1272.6)" fill="#f4856d"/>
                </g>
                <path id="Trazado_193390" data-name="Trazado 193390" d="M1658.874,1149.122c-.68,8.977,6.414,16.883,12.367,17.283s14.148-6.248,14.828-15.224-4.857-16.715-12.367-17.283S1659.553,1140.145,1658.874,1149.122Z" transform="translate(-1655.315 -1132.352)" fill="#f7a594"/>
                <path id="Trazado_193391" data-name="Trazado 193391" d="M1667.595,1125.657c8.231-5.213,12.762-.31,16.86,4.889,2.876,3.649,4.913,6.271,8.493,6.819-6.886,8.685-20.657,2.956-25-5.748-.427,4.954-6.267,9.058-10.31,8.584C1656.333,1134.689,1660.151,1123.544,1667.595,1125.657Z" transform="translate(-1654.084 -1123.432)" fill="#0e0e0e"/>
                <circle id="Elipse_5189" data-name="Elipse 5189" cx="3.583" cy="3.583" r="3.583" transform="translate(1.019 13.927) rotate(-9.217)" fill="#f7a594"/>
              </g>
            </g>
          </g>
        </g>
      </g>
    </g>
  </g>
</svg>
