<svg xmlns="http://www.w3.org/2000/svg" width="85" height="84.997" viewBox="0 0 85 84.997">
  <g id="Grupo_140227" data-name="Grupo 140227" transform="translate(-320 -4957.26)">
    <path id="Trazado_189723" data-name="Trazado 189723" d="M1485.294,1143.517a12.631,12.631,0,0,1-12.766,12.49h-46.3a12.631,12.631,0,0,1-12.767-12.49v-31.212c0-6.9-2.778-11.491,4.273-11.491h54.8c7.05,0,12.766-1.9,12.766,5Z" transform="translate(-1086.917 3883.501)" fill="#f2f4f5" fill-rule="evenodd"/>
    <g id="Grupo_128889" data-name="Grupo 128889" transform="translate(320 4957.26)">
      <path id="Trazado_189724" data-name="Trazado 189724" d="M1443.429,1152.5q-18.756,0-37.512,0c-3.492,0-5-1.505-5-4.984,0-1.37.027-2.741-.008-4.111-.032-1.288.525-1.871,1.834-1.887,1.18-.014,2.836.557,3.413-.232.606-.828.237-2.393.238-3.637q.012-20.725.005-41.452c0-2.492.137-2.629,2.606-2.63,1.941,0,3.883-.03,5.823.013.809.017,1.171-.1,1.2-1.081.112-4.417.153-4.416,4.559-4.416q7.537,0,15.073,0c2.006,0,2.249.26,2.265,2.287.025,3.194.025,3.194,3.15,3.194,2.684,0,5.369.056,8.05-.028,1.078-.033,1.228.412,1.148,1.3-.069.75.254,1.55-1.112,1.507-3.365-.1-6.736-.04-10.1-.027-.511,0-1.192-.253-1.145.743.043.894.67.606,1.1.609,3.368.02,6.738.058,10.106-.016,1.066-.023,1.239.4,1.152,1.29-.073.745.264,1.555-1.105,1.512-3.308-.1-6.623.008-9.934-.058-1.021-.021-1.389.189-1.337,1.294.1,2.108,0,4.225.042,6.336.028,1.345-.475,2.007-1.893,2q-9.079-.042-18.156,0c-1.409.006-1.933-.634-1.9-1.989.046-2.168-.078-4.345.045-6.507.078-1.361-.737-1.06-1.5-1.122-.867-.071-1.308.046-1.3,1.137q.065,17.385.006,34.771c0,.91.262,1.128,1.144,1.128q29.035-.037,58.067.015c1.351,0,1.114-.728,1.114-1.494q0-17.643,0-35.286c0-1.532.862-2.132,2.313-1.619.812.288.407.97.408,1.449q.039,15.844.02,31.688c0,1.942-.053,3.884.016,5.823.054,1.515-.5,2.166-2.084,2.164q-30.832-.042-61.664,0c-1.435,0-2.074-.505-2.071-2q.04-19.269,0-38.54c0-1.508.667-2.054,2.09-1.973.911.05,1.827-.009,2.74.015.52.014.679-.194.682-.7,0-.537-.22-.681-.709-.677q-2.74.023-5.481,0c-.522,0-.715.206-.679.706.021.285,0,.571,0,.857,0,14.046.02,28.091-.034,42.137,0,1.3.328,1.568,1.588,1.566q32.715-.064,65.432,0c1.284,0,1.579-.3,1.574-1.579-.051-13.588-.031-27.176-.031-40.765,0-.826-.266-1.652,1.2-1.606,1.271.039,1.579.326,1.574,1.6-.053,13.417,0,26.836-.077,40.252-.01,1.707.374,2.391,2.1,2.074a13.015,13.015,0,0,1,1.369-.018c1.436-.1,2.126.493,2.07,1.988-.057,1.539.009,3.083-.018,4.624a4.108,4.108,0,0,1-4.428,4.351c-4.339.025-8.678.007-13.018.007Zm.144-8.223h-37.168c-2.753,0-2.753,0-2.752,2.735,0,2.682.068,2.747,2.834,2.747h72.793c3.885,0,3.822,0,3.9-3.942.027-1.294-.316-1.577-1.585-1.572C1468.924,1144.293,1456.249,1144.272,1443.574,1144.272Zm-8.4-45.229c0-2.4-.034-4.8.018-7.192.018-.825-.226-1.055-1.049-1.049q-7.192.054-14.385,0c-.822-.006-1.055.226-1.049,1.049q.055,7.193,0,14.386c-.007.822.226,1.055,1.049,1.048q7.193-.056,14.385,0c.823.006,1.067-.225,1.049-1.049C1435.143,1103.839,1435.178,1101.441,1435.178,1099.043Z" transform="translate(-1400.904 -1067.505)" fill-rule="evenodd"/>
      <path id="Trazado_189725" data-name="Trazado 189725" d="M1516.111,1079.813c-.57,0-1.141,0-1.711,0-2.139-.009-2.375-.181-2.37-2.321a1.318,1.318,0,0,0-1.041-1.454c-.711-.258-1.241-.536-1.959.176-1.606,1.594-1.777,1.534-3.424-.106-.889-.885-1.748-1.8-2.669-2.654-1.022-.941-1.051-1.834.007-2.727a1.626,1.626,0,0,0,.56-2.177c-.429-1.07-1.06-1.136-1.951-1.076-1.272.088-1.919-.481-1.894-1.8q.045-2.31,0-4.62c-.026-1.324.626-1.888,1.9-1.8.893.062,1.519-.014,1.948-1.079a1.626,1.626,0,0,0-.562-2.177c-1.055-.894-1.022-1.783,0-2.728,1.045-.969,2.062-1.973,3.023-3.025.992-1.086,1.934-1.139,2.846.008.638.8,1.245.814,2.2.467,1.034-.376,1.049-1.019.994-1.831-.09-1.352.481-2.026,1.891-1.984q2.223.065,4.448,0c1.409-.041,1.983.632,1.893,1.984-.055.814-.036,1.451,1,1.828.953.349,1.561.342,2.2-.462.913-1.151,1.854-1.1,2.846-.01.961,1.051,1.979,2.056,3.023,3.026,1.015.944,1.05,1.835-.007,2.729a1.631,1.631,0,0,0-.561,2.178c.428,1.07,1.059,1.138,1.95,1.076,1.273-.088,1.919.482,1.895,1.8q-.044,2.309,0,4.62c.025,1.321-.627,1.889-1.9,1.8-.894-.062-1.518.014-1.948,1.079a1.626,1.626,0,0,0,.566,2.177c1.058.9,1.011,1.786,0,2.73-1.083,1.011-2.125,2.07-3.147,3.144a1.547,1.547,0,0,1-2.61-.007c-.583-.646-1.057-1.108-2.157-.655-1.128.465-1.208,1.115-1.156,2.072.1,1.765-1.1,1.86-2.4,1.8C1517.253,1079.793,1516.682,1079.813,1516.111,1079.813Zm-10.654-7.807c.266.3.465.5.64.725.733.927,1.432,1.553,2.423.213.52-.7,1.286-.537,2.015-.177a11.93,11.93,0,0,0,2.493,1.082c1.3.3,1.892.975,1.709,2.279-.161,1.156.631.985,1.282.93.617-.054,1.651.445,1.466-.91-.2-1.444.545-2.065,1.861-2.341a5.884,5.884,0,0,0,1.876-.793c1.132-.713,2.117-.756,2.989.368.847,1.094,1.2-.018,1.652-.408s1.233-.819.269-1.535c-1.152-.855-1.058-1.861-.356-2.985a5.869,5.869,0,0,0,.79-1.876c.271-1.335.926-2.059,2.351-1.839,1.009.157,1.025-.518.88-1.141-.131-.568.628-1.734-.761-1.581-1.648.181-2.217-.7-2.559-2.076a7.972,7.972,0,0,0-.88-2.025,1.647,1.647,0,0,1,.338-2.417c.961-.709.633-1.229-.1-1.806-.352-.278-.662-.608-1.081-1-1.088,1.8-2.444,1.877-4.04.752a3.984,3.984,0,0,0-1.58-.613,1.713,1.713,0,0,1-1.639-2.138c.179-1.238-.643-1.052-1.364-1.037-.687.015-1.581-.28-1.4,1,.194,1.342-.508,1.961-1.767,2.232a6.713,6.713,0,0,0-2.035.857c-1.078.657-2.029.739-2.841-.349-.764-1.023-1.19-.2-1.671.281s-1.283.915-.268,1.671c1.094.815.985,1.772.335,2.845a6.606,6.606,0,0,0-.861,2.031c-.261,1.278-.9,1.947-2.232,1.76-1.29-.181-.957.734-.988,1.408-.034.743-.169,1.53,1.049,1.352,1.237-.179,1.911.415,2.133,1.648a4.018,4.018,0,0,0,.613,1.582C1507.341,1069.579,1507.221,1070.929,1505.458,1072.006Z" transform="translate(-1450.32 -1046.901)" fill="#050505" fill-rule="evenodd"/>
      <path id="Trazado_189726" data-name="Trazado 189726" d="M1453,1148.488c0,2.91-.045,5.822.018,8.731.034,1.512-.5,2.179-2.083,2.166q-8.9-.073-17.805,0c-1.584.012-2.09-.663-2.078-2.17.047-5.878.056-11.756,0-17.634-.017-1.671.673-2.182,2.258-2.167,5.821.055,11.642.018,17.463.025,1.975,0,2.225.269,2.229,2.317C1453.009,1142.667,1453,1145.578,1453,1148.488Zm-19.191-.251c0,2.456.034,4.912-.019,7.366-.018.837.246,1.048,1.058,1.042q7.194-.053,14.39,0c.834.006,1.048-.246,1.042-1.058q-.053-7.195,0-14.39c.007-.834-.245-1.047-1.057-1.042q-7.194.054-14.39,0c-.834-.007-1.06.244-1.042,1.058C1433.846,1143.554,1433.813,1145.9,1433.813,1148.237Z" transform="translate(-1415.989 -1092.193)" fill-rule="evenodd"/>
      <path id="Trazado_189727" data-name="Trazado 189727" d="M1503.818,1117.848c1.685,1.671,2.72-.717,4.166-.7.7.007,1.271-.174,1.282-1.176.011-1.045.956-.467,1.457-.506.425-.034,1.287-.457,1.234.574-.04.767.351.974.989,1.086a8.294,8.294,0,0,1,2.671,1.1c.281.162.606.558.9.24,1.266-1.387,1.637.214,2.333.676.161.107.352.488.3.557-1.578,1.966,1.138,3.153.886,4.875-.018.12.3.429.435.41,1.327-.193,1.073.723,1.116,1.488.044.812.042,1.475-1.1,1.328-.416-.054-.5.4-.559.733a8.9,8.9,0,0,1-1.229,2.983c-.144.236-.435.542-.19.755,1.417,1.225-.111,1.651-.614,2.341-.157.216-.388.467-.706.269-2.017-1.256-3.255,1.08-5.013,1.18-.218.012-.326,1.578-1.61,1.333-.707-.136-1.511.138-1.361-1.075.065-.526-.488-.549-.862-.627a7.85,7.85,0,0,1-2.522-1.015c-.55-.34-1.016-.691-1.6.013-.57.688-.919-.058-1.177-.378-.342-.423-1.385-.778-.8-1.39.841-.877.212-1.371-.105-2.055-.334-.718-.561-1.485-.829-2.233-.11-.308-.088-.824-.488-.8-1.867.089-1-1.3-1.171-2.112-.042-.2.075-.615.139-.619,2.617-.181,1.388-3.063,2.851-4.052.284-.192.072-.495-.062-.758C1502.185,1119.52,1503.016,1117.892,1503.818,1117.848Zm6.733,15.392a6.851,6.851,0,1,0-6.8-6.9A6.87,6.87,0,0,0,1510.551,1133.24Z" transform="translate(-1450.286 -1081.146)" fill="#050505" fill-rule="evenodd"/>
      <path id="Trazado_189728" data-name="Trazado 189728" d="M1446.328,1200.522c12.675,0,25.35.021,38.025-.032,1.269-.005,1.612.278,1.585,1.572-.08,3.94-.017,3.942-3.9,3.942h-72.793c-2.766,0-2.832-.065-2.834-2.747,0-2.735,0-2.735,2.752-2.735Z" transform="translate(-1403.659 -1123.755)" fill="#f7f9fa" fill-rule="evenodd"/>
      <path id="Trazado_189729" data-name="Trazado 189729" d="M1453.014,1101.772c0,2.4-.035,4.8.018,7.193.018.824-.226,1.056-1.049,1.049q-7.192-.055-14.385,0c-.822.006-1.055-.226-1.049-1.048q.055-7.193,0-14.386c-.007-.823.226-1.055,1.049-1.049q7.193.056,14.385,0c.823-.006,1.067.224,1.049,1.049C1452.979,1096.977,1453.014,1099.375,1453.014,1101.772Zm-9.7,3.023c-.855-1.135-1.654-2.1-2.347-3.142-.76-1.137-1.236-.117-1.753.2-.54.33-1.237.623-.468,1.521,1.112,1.3,2.066,2.726,3.1,4.086,1.267,1.659,2.047,1.613,3.193-.207,1.913-3.038,3.741-6.131,5.739-9.112.719-1.075.275-1.379-.548-1.911s-1.228-.632-1.808.359C1446.825,1099.332,1445.075,1101.995,1443.316,1104.795Z" transform="translate(-1418.74 -1070.234)" fill="#0ddcf1" fill-rule="evenodd"/>
      <path id="Trazado_189730" data-name="Trazado 189730" d="M1508.192,1074.747c1.763-1.077,1.884-2.427.748-4.03a4.018,4.018,0,0,1-.613-1.582c-.222-1.233-.9-1.828-2.133-1.648-1.218.177-1.083-.609-1.049-1.352.031-.673-.3-1.589.988-1.408,1.334.187,1.971-.482,2.232-1.76a6.611,6.611,0,0,1,.861-2.031c.651-1.073.76-2.029-.335-2.845-1.016-.756-.216-1.188.268-1.671s.906-1.3,1.671-.281c.812,1.088,1.763,1.006,2.841.349a6.711,6.711,0,0,1,2.034-.857c1.259-.271,1.961-.89,1.767-2.232-.184-1.279.71-.985,1.4-1,.722-.015,1.543-.2,1.365,1.037a1.713,1.713,0,0,0,1.639,2.138,3.986,3.986,0,0,1,1.58.613c1.6,1.125,2.953,1.046,4.04-.752.419.392.729.722,1.081,1,.729.576,1.058,1.1.1,1.806a1.647,1.647,0,0,0-.338,2.417,7.974,7.974,0,0,1,.88,2.025c.342,1.375.911,2.258,2.559,2.076,1.389-.152.63,1.014.761,1.581.145.623.129,1.3-.88,1.141-1.426-.22-2.08.5-2.352,1.839a5.863,5.863,0,0,1-.79,1.877c-.7,1.125-.8,2.13.356,2.985.964.716.2,1.136-.269,1.535s-.8,1.5-1.652.408c-.872-1.125-1.857-1.082-2.989-.368a5.9,5.9,0,0,1-1.875.793c-1.317.276-2.06.9-1.862,2.341.185,1.355-.849.856-1.466.91-.65.055-1.443.226-1.282-.93.183-1.3-.413-1.981-1.709-2.279a11.929,11.929,0,0,1-2.492-1.082c-.729-.36-1.494-.526-2.015.177-.991,1.34-1.69.714-2.423-.213C1508.656,1075.25,1508.458,1075.048,1508.192,1074.747Zm1.069-8.648a9.589,9.589,0,1,0,9.551-9.584A9.624,9.624,0,0,0,1509.261,1066.1Z" transform="translate(-1453.054 -1049.642)" fill="#0ddcf1" fill-rule="evenodd"/>
      <path id="Trazado_189731" data-name="Trazado 189731" d="M1436.559,1150.984c0-2.341.034-4.683-.017-7.023-.018-.813.207-1.064,1.042-1.058q7.194.057,14.39,0c.812-.006,1.064.207,1.057,1.042q-.057,7.195,0,14.39c.007.812-.207,1.064-1.042,1.058q-7.2-.058-14.39,0c-.812.006-1.076-.206-1.058-1.042C1436.594,1155.9,1436.559,1153.439,1436.559,1150.984Zm14.768,4.891c-.484-.535-.74-.831-1.01-1.114-1.138-1.191-3.089-2.312-3.2-3.587-.11-1.326,1.978-2.42,3.161-3.545.831-.79.776-1.211.009-2.009-.82-.855-1.291-.749-2,.064-.86.988-1.876,1.838-2.758,2.81-.55.606-.918.639-1.486.013-.958-1.055-2.057-1.984-2.994-3.057-.76-.872-1.2-.41-1.736.188-.478.532-1.207.92-.273,1.735,1.03.9,1.9,1.984,2.941,2.866.866.732.71,1.19-.048,1.859-1.026.9-1.911,1.966-2.933,2.876-.98.873-.057,1.226.375,1.719.458.525.867,1.053,1.6.221.983-1.109,2.108-2.089,3.119-3.176.508-.547.845-.564,1.361-.007.969,1.047,1.993,2.044,3.026,3.028.288.273.515.9,1.077.528C1450.172,1156.884,1450.709,1156.377,1451.327,1155.875Z" transform="translate(-1418.736 -1094.939)" fill="#0ddcf1" fill-rule="evenodd"/>
      <path id="Trazado_189732" data-name="Trazado 189732" d="M1514.716,1137.447a6.851,6.851,0,1,1,6.9-6.8A6.872,6.872,0,0,1,1514.716,1137.447Zm5.526-6.9a5.477,5.477,0,1,0-5.514,5.527A5.5,5.5,0,0,0,1520.242,1130.548Z" transform="translate(-1454.451 -1085.354)" fill="#0ddcf1" fill-rule="evenodd"/>
      <path id="Trazado_189733" data-name="Trazado 189733" d="M1445.179,1107.1c1.759-2.8,3.508-5.462,5.114-8.208.579-.991.994-.885,1.808-.359s1.267.836.548,1.911c-2,2.981-3.826,6.074-5.739,9.112-1.146,1.821-1.926,1.866-3.193.207-1.039-1.36-1.992-2.791-3.1-4.086-.769-.9-.072-1.191.468-1.521.517-.316.993-1.335,1.753-.2C1443.525,1105,1444.323,1105.966,1445.179,1107.1Z" transform="translate(-1420.602 -1072.541)" fill="#070707" fill-rule="evenodd"/>
      <path id="Trazado_189734" data-name="Trazado 189734" d="M1513.406,1070.241a9.589,9.589,0,1,1,9.542,9.595A9.62,9.62,0,0,1,1513.406,1070.241Zm16.436.15a6.848,6.848,0,1,0-6.992,6.7A6.872,6.872,0,0,0,1529.842,1070.391Z" transform="translate(-1457.199 -1053.785)" fill="#070707" fill-rule="evenodd"/>
      <path id="Trazado_189735" data-name="Trazado 189735" d="M1453.362,1157.942c-.618.5-1.156,1.01-1.761,1.413-.562.374-.789-.255-1.077-.528-1.033-.984-2.057-1.981-3.026-3.028-.516-.557-.853-.54-1.361.007-1.011,1.087-2.136,2.067-3.119,3.176-.737.831-1.146.3-1.6-.221-.432-.493-1.355-.846-.375-1.719,1.021-.91,1.907-1.972,2.933-2.876.758-.668.914-1.127.048-1.859-1.043-.881-1.911-1.968-2.941-2.866-.934-.815-.2-1.2.273-1.735.538-.6.976-1.06,1.736-.188.937,1.073,2.036,2,2.994,3.058.568.626.936.593,1.486-.013.882-.972,1.9-1.822,2.758-2.81.708-.813,1.18-.919,2-.064.767.8.823,1.219-.009,2.009-1.183,1.125-3.271,2.22-3.161,3.545.106,1.275,2.058,2.4,3.2,3.587C1452.622,1157.111,1452.878,1157.408,1453.362,1157.942Z" transform="translate(-1420.771 -1097.007)" fill="#050505" fill-rule="evenodd"/>
      <path id="Trazado_189736" data-name="Trazado 189736" d="M1521.618,1131.924a5.477,5.477,0,1,1-5.439-5.428A5.5,5.5,0,0,1,1521.618,1131.924Zm-5.343-2.687a2.738,2.738,0,1,0,2.6,2.827A2.765,2.765,0,0,0,1516.274,1129.237Z" transform="translate(-1455.827 -1086.729)" fill="#070707" fill-rule="evenodd"/>
      <path id="Trazado_189737" data-name="Trazado 189737" d="M1532.588,1073.136a6.848,6.848,0,1,1-6.7-6.993A6.876,6.876,0,0,1,1532.588,1073.136Z" transform="translate(-1459.944 -1056.529)" fill="#f2f4f5" fill-rule="evenodd"/>
      <path id="Trazado_189738" data-name="Trazado 189738" d="M1519.016,1131.979a2.738,2.738,0,1,1-2.866,2.559A2.77,2.77,0,0,1,1519.016,1131.979Z" transform="translate(-1458.569 -1089.471)" fill="#f0f2f3" fill-rule="evenodd"/>
    </g>
  </g>
</svg>
