<svg xmlns="http://www.w3.org/2000/svg" width="400" height="345" viewBox="0 0 400 345">
  <g id="Grupo_140228" data-name="Grupo 140228" transform="translate(-915 -5546)">
    <rect id="Rectángulo_294795" data-name="Rectángulo 294795" width="400" height="345" rx="15" transform="translate(915 5546)" fill="#41b8df" opacity="0.55"/>
    <g id="Grupo_135175" data-name="Grupo 135175" transform="translate(555.584 3880.395)">
      <path id="Trazado_194326" data-name="Trazado 194326" d="M548.03,1829.155l4.194-3.108a1.158,1.158,0,0,1,1.2-.1q.741.379,1.522.7a19.429,19.429,0,0,0,2.928.953,1.141,1.141,0,0,1,.873.945l.829,5.392a1.12,1.12,0,0,0,1.19.952l4.977-.328a1.107,1.107,0,0,0,1.031-1.053l.213-5.019a1.112,1.112,0,0,1,.835-1.041,20.182,20.182,0,0,0,5.789-2.63,1.148,1.148,0,0,1,1.395.113l2.255,2.062a1.16,1.16,0,0,0,1.533.015l3.706-3.284a1.053,1.053,0,0,0,.2-.221,1.114,1.114,0,0,0-.034-1.3l-2.318-3.135-.566-.763a19.934,19.934,0,0,0,1.255-2.526,20.239,20.239,0,0,0,1.106-3.6,1.112,1.112,0,0,1,.924-.882l4.344-.663a1.153,1.153,0,0,0,.976-1.218l-.25-3.8-.075-1.09a1.168,1.168,0,0,0-1.114-1.094l-4.194-.181a1.111,1.111,0,0,1-1.039-.8,20.013,20.013,0,0,0-1.664-3.944,3.542,3.542,0,0,0-.172-.317.621.621,0,0,1-.054-.109,1.138,1.138,0,0,1,.205-1.245l3.341-3.669a.956.956,0,0,0,.1-.13,1.158,1.158,0,0,0-.09-1.4l-3.268-3.7a1.152,1.152,0,0,0-1.547-.163l-4.373,3.244a1.114,1.114,0,0,1-1.26.053,20.408,20.408,0,0,0-2.765-1.391q-.774-.319-1.558-.568a1.171,1.171,0,0,1-.8-.94l-.8-5.182a1.12,1.12,0,0,0-1.18-.948l-4.922.332a1.171,1.171,0,0,0-1.1,1.119l-.169,3.971a1.149,1.149,0,0,1-.92,1.081,20.1,20.1,0,0,0-5.828,2.114,1.143,1.143,0,0,1-1.335-.155l-3.3-3.012a1.182,1.182,0,0,0-1.571-.013L543,1790.749a1.132,1.132,0,0,0-.159,1.524l.134.184,2.7,3.641a1.156,1.156,0,0,1,.042,1.318l0,.005a19.975,19.975,0,0,0-1.634,3.145c-.245.595-.455,1.193-.643,1.8a1.131,1.131,0,0,1-.914.8l-4.41.672a1.172,1.172,0,0,0-.995,1.235l.328,4.9a1.268,1.268,0,0,0,.1.391,1.166,1.166,0,0,0,1,.683l3.35.136a1.164,1.164,0,0,1,.967.614,1.216,1.216,0,0,1,.109.3,20.058,20.058,0,0,0,3.063,7.31,1.121,1.121,0,0,1-.1,1.394l-2.707,2.969a1.146,1.146,0,0,0-.013,1.528l.075.086,3.183,3.608A1.166,1.166,0,0,0,548.03,1829.155Zm21.313-29.391a13.393,13.393,0,0,1,1.811,1.719,10.53,10.53,0,0,1,2.209,5.3c.013.178.02.353.028.529.338,10.7-12.11,15.751-19.339,7.655a10.922,10.922,0,0,1-2.154-4.49,6.964,6.964,0,0,1-.148-1.047,12.383,12.383,0,0,1,.431-4.189A10.812,10.812,0,0,1,569.343,1799.764Z" fill="#d5e6f8"/>
      <path id="Trazado_194327" data-name="Trazado 194327" d="M581.466,1777.5l3.6-1.952a.911.911,0,0,1,.946.059q.532.377,1.1.712a15.257,15.257,0,0,0,2.169,1.064.9.9,0,0,1,.574.83l.048,4.28a.881.881,0,0,0,.82.872l3.9.294a.87.87,0,0,0,.917-.7l.719-3.875a.874.874,0,0,1,.764-.717,15.806,15.806,0,0,0,4.788-1.4.9.9,0,0,1,1.071.242l1.524,1.851a.912.912,0,0,0,1.19.181l3.241-2.143a.772.772,0,0,0,.176-.15.872.872,0,0,0,.117-1.009l-1.455-2.692-.355-.655a15.878,15.878,0,0,0,2.51-4.5.873.873,0,0,1,.815-.584l3.448-.035a.9.9,0,0,0,.892-.838l.226-2.983.062-.856a.915.915,0,0,0-.744-.972l-3.238-.6a.871.871,0,0,1-.72-.734,15.634,15.634,0,0,0-.858-3.247,2.539,2.539,0,0,0-.1-.265.484.484,0,0,1-.03-.091.894.894,0,0,1,.3-.945l3-2.481a.671.671,0,0,0,.094-.09.908.908,0,0,0,.085-1.1l-2.131-3.234a.9.9,0,0,0-1.183-.3L606,1750.776a.874.874,0,0,1-.985-.1,16.138,16.138,0,0,0-1.995-1.386q-.566-.333-1.148-.613a.92.92,0,0,1-.519-.818l-.047-4.114a.88.88,0,0,0-.813-.867l-3.86-.286a.919.919,0,0,0-.975.749l-.57,3.066a.9.9,0,0,1-.833.739,15.783,15.783,0,0,0-4.762,1,.9.9,0,0,1-1.019-.268l-2.236-2.705a.926.926,0,0,0-1.219-.183l-3.224,2.121a.887.887,0,0,0-.292,1.166l.084.158,1.691,3.126a.905.905,0,0,1-.112,1.028l0,0a15.685,15.685,0,0,0-1.617,2.264c-.256.435-.485.876-.7,1.326a.888.888,0,0,1-.8.521l-3.5.035a.921.921,0,0,0-.91.85l-.286,3.844a.96.96,0,0,0,.033.315.916.916,0,0,0,.7.641l2.588.475a.914.914,0,0,1,.683.583.967.967,0,0,1,.051.248,15.74,15.74,0,0,0,1.573,6.017.887.887,0,0,1-.122.965.863.863,0,0,1-.11.107l-2.43,2.007a.9.9,0,0,0-.18,1.186l.049.076,2.075,3.154A.915.915,0,0,0,581.466,1777.5Zm19.8-20.481a10.607,10.607,0,0,1,1.217,1.535,8.269,8.269,0,0,1,1.13,4.362c-.009.14-.022.277-.036.415a8.545,8.545,0,0,1-17.047.086,5.576,5.576,0,0,1,0-.829,9.711,9.711,0,0,1,.8-3.207A8.484,8.484,0,0,1,601.268,1757.023Z" fill="#d5e6f8"/>
      <path id="Trazado_194328" data-name="Trazado 194328" d="M373.226,1891.986l2.608-1.414a.658.658,0,0,1,.685.043q.385.272.8.516a11.014,11.014,0,0,0,1.571.77.65.65,0,0,1,.416.6l.035,3.1a.637.637,0,0,0,.594.631l2.826.214a.631.631,0,0,0,.665-.511l.52-2.806a.634.634,0,0,1,.554-.52,11.443,11.443,0,0,0,3.467-1.016.652.652,0,0,1,.776.174l1.1,1.341a.659.659,0,0,0,.861.131l2.348-1.552a.606.606,0,0,0,.128-.108.632.632,0,0,0,.084-.731l-1.053-1.95-.258-.474a11.508,11.508,0,0,0,1.818-3.257.631.631,0,0,1,.591-.422l2.5-.026a.654.654,0,0,0,.646-.607l.164-2.161.045-.619a.663.663,0,0,0-.54-.7l-2.345-.437a.634.634,0,0,1-.521-.532,11.325,11.325,0,0,0-.621-2.352,2.007,2.007,0,0,0-.071-.192.366.366,0,0,1-.022-.066.646.646,0,0,1,.215-.684l2.173-1.8a.459.459,0,0,0,.068-.064.659.659,0,0,0,.062-.794l-1.544-2.343a.655.655,0,0,0-.857-.215l-2.72,1.475a.63.63,0,0,1-.713-.07,11.667,11.667,0,0,0-1.445-1q-.41-.242-.831-.444a.666.666,0,0,1-.376-.593l-.035-2.979a.635.635,0,0,0-.588-.628l-2.8-.207a.665.665,0,0,0-.706.542l-.413,2.221a.653.653,0,0,1-.6.535,11.441,11.441,0,0,0-3.449.723.647.647,0,0,1-.738-.194l-1.619-1.958a.671.671,0,0,0-.883-.133l-2.335,1.536a.643.643,0,0,0-.212.845l.061.114,1.225,2.264a.659.659,0,0,1-.081.745l0,0a11.392,11.392,0,0,0-1.171,1.639c-.185.315-.351.635-.505.961a.645.645,0,0,1-.579.377l-2.535.025a.666.666,0,0,0-.658.616l-.208,2.784a.74.74,0,0,0,.024.228.663.663,0,0,0,.508.464l1.874.344a.664.664,0,0,1,.495.423.7.7,0,0,1,.037.179,11.379,11.379,0,0,0,1.139,4.358.643.643,0,0,1-.088.7.655.655,0,0,1-.08.077l-1.76,1.454a.653.653,0,0,0-.13.859l.036.055,1.5,2.284A.663.663,0,0,0,373.226,1891.986Zm14.341-14.834a7.648,7.648,0,0,1,.882,1.112,5.989,5.989,0,0,1,.819,3.159c-.007.1-.017.2-.027.3a6.188,6.188,0,0,1-12.346.063,4.151,4.151,0,0,1,0-.6,7.054,7.054,0,0,1,.578-2.322A6.145,6.145,0,0,1,387.567,1877.152Z" fill="#d5e6f8"/>
      <path id="Trazado_194329" data-name="Trazado 194329" d="M611.115,1848.319l6.7-4.8a1.826,1.826,0,0,1,1.9-.119q1.16.617,2.385,1.146a30.6,30.6,0,0,0,4.6,1.582,1.8,1.8,0,0,1,1.355,1.515l1.166,8.535a1.77,1.77,0,0,0,1.855,1.535l7.866-.388a1.749,1.749,0,0,0,1.656-1.636l.468-7.918a1.757,1.757,0,0,1,1.346-1.623,31.827,31.827,0,0,0,9.209-4,1.815,1.815,0,0,1,2.2.215l3.506,3.315a1.834,1.834,0,0,0,2.421.065l5.937-5.089a1.6,1.6,0,0,0,.315-.344,1.758,1.758,0,0,0-.019-2.045l-3.578-5.011-.874-1.22a31.884,31.884,0,0,0,3.889-9.606,1.757,1.757,0,0,1,1.482-1.368l6.877-.932a1.819,1.819,0,0,0,1.572-1.9l-.294-6.014-.09-1.723a1.844,1.844,0,0,0-1.73-1.756l-6.617-.4a1.752,1.752,0,0,1-1.619-1.287,31.691,31.691,0,0,0-2.525-6.27,5.394,5.394,0,0,0-.263-.505,1.051,1.051,0,0,1-.082-.173,1.8,1.8,0,0,1,.357-1.962l5.37-5.7a1.294,1.294,0,0,0,.166-.2,1.829,1.829,0,0,0-.1-2.21l-5.064-5.926a1.819,1.819,0,0,0-2.438-.3l-6.989,5.007a1.757,1.757,0,0,1-1.991.051,32.263,32.263,0,0,0-4.329-2.269q-1.215-.523-2.446-.938a1.85,1.85,0,0,1-1.241-1.505l-1.124-8.2a1.769,1.769,0,0,0-1.838-1.528l-7.781.4a1.849,1.849,0,0,0-1.759,1.739l-.372,6.265a1.815,1.815,0,0,1-1.48,1.682,31.8,31.8,0,0,0-9.259,3.185,1.8,1.8,0,0,1-2.1-.28l-5.139-4.842a1.866,1.866,0,0,0-2.481-.062l-5.907,5.043a1.783,1.783,0,0,0-.292,2.4l.206.294,4.159,5.821a1.824,1.824,0,0,1,.033,2.081l0,.008a31.645,31.645,0,0,0-2.663,4.924c-.4.933-.748,1.871-1.061,2.823a1.789,1.789,0,0,1-1.465,1.239l-6.98.945a1.852,1.852,0,0,0-1.6,1.924l.389,7.749a1.96,1.96,0,0,0,.144.62,1.84,1.84,0,0,0,1.56,1.1l5.287.3a1.843,1.843,0,0,1,1.51.995,1.972,1.972,0,0,1,.164.482,31.658,31.658,0,0,0,4.644,11.622,1.781,1.781,0,0,1,0,1.958,1.717,1.717,0,0,1-.191.24l-4.353,4.617a1.811,1.811,0,0,0-.061,2.412l.116.139,4.931,5.78A1.844,1.844,0,0,0,611.115,1848.319Zm34.423-45.847a21.127,21.127,0,0,1,2.815,2.762,16.636,16.636,0,0,1,3.347,8.428c.016.281.024.558.032.836.251,16.9-19.536,24.551-30.737,11.579a17.25,17.25,0,0,1-3.283-7.147,11.252,11.252,0,0,1-.207-1.656,19.6,19.6,0,0,1,.792-6.6A17.074,17.074,0,0,1,645.538,1802.472Z" fill="#d5e6f8"/>
      <path id="Trazado_194330" data-name="Trazado 194330" d="M403.093,1834.095c2.1-10.641,19.949-8.611,19.949-8.611s13.245,17.439,16.757,17.63-8.413-17.12-8.413-17.12c6.7-1.125,24.465,5.94,24.465,5.94s.4,21.4,3.855,20.719-1.325-18.928-1.325-18.928c6.665,1.5,13.289,8.69,13.289,8.69,8.483,11.868-7.2,22.148-7.2,22.148a34.79,34.79,0,0,0,5.463,15.578h0a25.228,25.228,0,0,1,2.375,4.084l-1.779.125q-.268-.7-.58-1.348l0-.007-.009-.019c-.141-.266-.344-.645-.6-1.107v0l0,0c-.618-1.026-1.04-1.786-1.312-2.338l0-.005c-1.863-3.227-4.514-7.415-6.143-8.219a3.45,3.45,0,0,0,.323-.843c-.1.269-.211.549-.323.843-2.59,6.741-17.743,8.894-26.35,7.747s-5.076-3.8-.779-8,13.942-3.85,16.664-5.571-1.519-2.954-7.145-2.123-8.059,6.686-17.136,8.195-17.242-15.191-17.242-15.191c6.446,1.517,17.516-2.756,17.8-4.962s-16.455-.816-19.111-1.286S400.995,1844.737,403.093,1834.095Z" fill="#d5e6f8"/>
      <path id="Trazado_194331" data-name="Trazado 194331" d="M546.876,1874.577l-9.442,112.268s-.989,6.805,4.073,6.818c8.323.019,41.427,0,41.427,0s-6.264-1.417-6.189-4.6c.09-3.758,11.036-115.544,11.036-115.544Z" fill="#5489c8"/>
      <path id="Trazado_194332" data-name="Trazado 194332" d="M585.62,1991.626c-1.637.005-33.255.1-41.361,0-3.532-.044-4.152-3.141-4.181-5.145a10.022,10.022,0,0,1,.107-1.672l.246-2.918.626-7.437.552-6.571.711-8.443.6-7.127,6.709-79.774,40.9-1.062s-4.61,46.783-7.871,80.836c-.364,3.794-.71,7.433-1.03,10.829q-.156,1.626-.3,3.176c-.3,3.222-.579,6.181-.819,8.793-.127,1.377-.244,2.656-.35,3.828-.416,4.593-.66,7.525-.663,8.083a4.744,4.744,0,0,0,.079.909C580.249,1991.509,585.005,1991.626,585.62,1991.626Z" fill="#98b3df"/>
      <path id="Trazado_194333" data-name="Trazado 194333" d="M447.535,1813.485l23,92.383,3.149,12.652,10.712,43.029H683.4l-39.482-148.064Z" fill="#98b3df"/>
      <path id="Trazado_194334" data-name="Trazado 194334" d="M447.535,1813.485l-3.187,1.062,35.81,150.216,4.238-3.214Z" fill="#5489c8"/>
      <path id="Trazado_194335" data-name="Trazado 194335" d="M480.158,1964.763H677.942l5.462-3.214H484.4Z" fill="#5489c8"/>
      <rect id="Rectángulo_294797" data-name="Rectángulo 294797" width="42.823" height="2.035" transform="translate(592.437 1993.705) rotate(180)" fill="#98b3df"/>
      <path id="Trazado_194336" data-name="Trazado 194336" d="M581.551,1964.762l-.221,1.556-40.273,8.136.553-6.571.263-3.121Z" fill="#5489c8" opacity="0.7"/>
      <path id="Trazado_194337" data-name="Trazado 194337" d="M585.62,1991.626c-1.637.005-33.255.1-41.361,0-3.532-.044-4.152-3.141-4.181-5.145l40.083-7.542c-.416,4.593-.66,7.525-.663,8.083a4.744,4.744,0,0,0,.079.909C580.249,1991.509,585.005,1991.626,585.62,1991.626Z" fill="#789fd4"/>
      <path id="Trazado_194338" data-name="Trazado 194338" d="M571.817,1931.575,484.4,1961.55l-10.712-43.03Z" fill="#789fd4"/>
      <path id="Trazado_194339" data-name="Trazado 194339" d="M447.535,1813.485H643.922l31.623,119H477.17Z" fill="#c4d7f1"/>
      <path id="Trazado_194340" data-name="Trazado 194340" d="M455.45,1817.712l28.211,108.4H666.033L637.512,1818.96Z" fill="#98b3df" opacity="0.5"/>
      <rect id="Rectángulo_294798" data-name="Rectángulo 294798" width="68.983" height="43.525" transform="translate(521.466 1882.583)" fill="#ea5e00"/>
      <rect id="Rectángulo_294799" data-name="Rectángulo 294799" width="68.981" height="43.524" transform="translate(555.958 1882.584)" fill="#f17925"/>
      <path id="Trazado_194341" data-name="Trazado 194341" d="M555.958,1889.012l-14.54,14.54h-19.91v-20.971h34.451Z" fill="#e74f00"/>
      <path id="Trazado_194342" data-name="Trazado 194342" d="M521.467,1882.582l-15.509,14.966H540.47l15.487-14.966Z" fill="#f17925"/>
      <path id="Trazado_194343" data-name="Trazado 194343" d="M624.939,1884.126l-68.982-1.542v5.514h0v.9l12.826,14.063h56.155v-14l-.355-.417h.356Z" fill="#ea5e00"/>
      <path id="Trazado_194344" data-name="Trazado 194344" d="M555.958,1882.582l13.649,14.966h68.069l-12.737-14.966Z" fill="#f17925"/>
      <path id="Trazado_194345" data-name="Trazado 194345" d="M435.754,1877.075s.48-5.227-5.361-5.227a6.856,6.856,0,0,1,2.685,1.44,6.905,6.905,0,0,0-7.778,1.173c-4.054,3.361-1.535,11.788-2.768,13.388s-6.033,1.92-5.446,7.094,15.235,11.654,14.294,15.934c0,0,5.741-8.438,1.636-12.289a7.605,7.605,0,0,1,2.205,4.124s.543-4.373-2.24-5.772c-2.463-1.238-4.481-5.766-4.267-6.575S435.754,1877.075,435.754,1877.075Z" fill="#172c55"/>
      <path id="Trazado_194346" data-name="Trazado 194346" d="M430.005,1902.171s4.363,18.051,8.646,21.659c2.574,2.169,10.229,7.146,10.229,7.146l-3.184,1.156s-10.617-3.586-12.994-6.381-8.885-16.8-8.885-16.8Z" fill="#f59763"/>
      <g id="Grupo_135161" data-name="Grupo 135161">
        <path id="Trazado_194347" data-name="Trazado 194347" d="M455.118,1937.574l-1.025-2.54a7.2,7.2,0,0,0-6.678-4.505H428.5v63.241h78.244v-51.239H462.467A7.926,7.926,0,0,1,455.118,1937.574Z" fill="#f17925"/>
        <g id="Grupo_135160" data-name="Grupo 135160">
          <path id="Trazado_194348" data-name="Trazado 194348" d="M440.3,1968.987v-4.559l15.989-7v4.658l-11.166,4.592,11.166,4.592v4.724Z" fill="#fff"/>
          <path id="Trazado_194349" data-name="Trazado 194349" d="M472.908,1951.973h4.261l-14.634,30.591h-4.262Z" fill="#fff"/>
          <path id="Trazado_194350" data-name="Trazado 194350" d="M494.942,1964.428v4.559l-15.989,7v-4.658l11.166-4.592-11.166-4.592v-4.724Z" fill="#fff"/>
        </g>
      </g>
      <path id="Trazado_194351" data-name="Trazado 194351" d="M389,1933.883l.12.211c.955,1.66,3.145,5.726,5.558,10.176,1.141,2.111,2.336,4.309,3.469,6.377,1.953,3.569,3.73,6.747,4.766,8.427,1.054,1.708,1.83,2.907,2.144,3.387l0,0a.8.8,0,0,1,.1.495,25.876,25.876,0,0,0,.069,4.475,34.329,34.329,0,0,0,11.217,22.235l2.9.429s-4.108-15.217-5.318-23.82a16.591,16.591,0,0,1-.222-3.411,35.652,35.652,0,0,0-.937-9.31,208.489,208.489,0,0,0-5.935-21.551c-.135-.421-4.217-15.186-4.217-15.186-3.426,2.994-15.922,4.23-15.922,4.23S384.679,1926.2,389,1933.883Z" fill="#004390"/>
      <path id="Trazado_194352" data-name="Trazado 194352" d="M425.44,1993.77H413.326a6.648,6.648,0,0,1,.343-3.246c.606-1.345,1.47-1.387.11-3.494.77.792,3.244,1.12,5,.885.214.347,1.383,2.681,2.1,3.2C421.667,1991.68,425.2,1991.478,425.44,1993.77Z" fill="#0e2b53"/>
      <path id="Trazado_194353" data-name="Trazado 194353" d="M389,1933.883l.12.211c.955,1.66,6.119,11.2,8.531,15.647a64.52,64.52,0,0,1-.851-23Z" fill="#0e2b53"/>
      <path id="Trazado_194354" data-name="Trazado 194354" d="M434.1,1876.34c.079-.318-6.919,3.163-7.274,3.556-3.282,3.641-2.346,8.392-.468,8.437,1.2.03.971,2.032.971,2.032l13.418-5.676S439.133,1875.268,434.1,1876.34Z" fill="#172c55"/>
      <path id="Trazado_194355" data-name="Trazado 194355" d="M429.593,1899.461s2.042,4.079,1.787,7.389c0,0-2.462,3.886-8.848,4.87C422.532,1911.72,428.022,1899.458,429.593,1899.461Z" fill="#f17925"/>
      <path id="Trazado_194356" data-name="Trazado 194356" d="M398.442,1921.952l.041-2.266c-4.514.569-15.565-5.394-15.565-5.394s-4.722,3.141-5.369,12.111c-.315,4.378-2.311,22.9-2.532,28.424-.081,2-.107,3.434-.117,4.005v.006a.791.791,0,0,1-.192.466,25.914,25.914,0,0,0-2.446,3.749c-6.888,12.816-3.286,30.231-3.286,30.231l1.6-.407s5.824-18.053,9.63-25.861a16.356,16.356,0,0,1,1.724-2.951,35.619,35.619,0,0,0,4.429-8.244C389.171,1949.1,398.442,1921.952,398.442,1921.952Z" fill="#004390"/>
      <path id="Trazado_194357" data-name="Trazado 194357" d="M378.61,1993.77H366.5a6.648,6.648,0,0,1,.343-3.246c.606-1.345,1.556-1.956,1.328-3.582a4.364,4.364,0,0,0,3.776,1.445,13.257,13.257,0,0,0,2.1,2.724C374.836,1991.68,378.366,1991.478,378.61,1993.77Z" fill="#0e2b53"/>
      <path id="Trazado_194358" data-name="Trazado 194358" d="M421.715,1914.322c-1.628.277.265,1.571-1.973,1.814-3.185.348-6.474.586-8.2,1.273a1.853,1.853,0,0,0-1.18.955c-.746,2.246-5.476,6.1-5.476,6.1-21.093-.961-22.452-10.362-22.452-10.362,13.69-13.3,25.337-20.543,34.963-21.44a17.1,17.1,0,0,1,6.981.734c3.367,1.5,5.212,6.06,5.212,6.06S427.9,1913.267,421.715,1914.322Z" fill="#f17925"/>
      <path id="Trazado_194359" data-name="Trazado 194359" d="M419.742,1916.136c-3.185.348-6.474.586-8.2,1.273a33.59,33.59,0,0,1,4.261-18.434S419.045,1912.155,419.742,1916.136Z" fill="#ea5e00"/>
      <path id="Trazado_194360" data-name="Trazado 194360" d="M422.49,1897.194s-8.01-.437-9.433,4.592,2.67,25.1,3.552,27.175c1.606,3.772,9.426,14.538,9.426,14.538l2.875-.876s-5.214-16.447-6.378-18.074C420.7,1921.994,424.888,1899.382,422.49,1897.194Z" fill="#f59763"/>
      <path id="Trazado_194361" data-name="Trazado 194361" d="M428.91,1942.623a4.532,4.532,0,0,0,.687,1.934c.539.658,2.106,2.251,2.134,3.184,0,0-.079.414-.415.338s-1.5-1.232-2.1-1.149a11.6,11.6,0,0,0,.636,2.395,6.859,6.859,0,0,1-.125,3.213c-.19.455-2.527-2.438-3.488-3.73s-.015-6.535-.015-6.535Z" fill="#f59763"/>
      <path id="Trazado_194362" data-name="Trazado 194362" d="M411.477,1908.511c.021.118,7.58,1.391,12.308-1.009,0,0,3.95-12.374-1.694-11.782s-8.987,2.37-9.13,5.072A51.976,51.976,0,0,1,411.477,1908.511Z" fill="#f17925"/>
      <path id="Trazado_194363" data-name="Trazado 194363" d="M424.2,1894.269c.6,1.886,2.61,7.26,5.392,5.192a6.854,6.854,0,0,1,1.179-2.752c.881-1.514,1.93-3.061,1.93-3.061l-4.534-3.972-.27-.237a11.545,11.545,0,0,1-3.373,3.828A.909.909,0,0,0,424.2,1894.269Z" fill="#f59763"/>
      <path id="Trazado_194364" data-name="Trazado 194364" d="M432.7,1893.65s-1.048,1.543-1.929,3.059c-2.818-1.737-2.821-5.226-2.6-7.033Z" fill="#f17d41"/>
      <path id="Trazado_194365" data-name="Trazado 194365" d="M432.827,1895.64s-6.842-3.807-4.4-8.032,3.194-7.561,7.666-5.309,4.383,4.35,3.913,5.958S434.67,1896.521,432.827,1895.64Z" fill="#f59763"/>
      <path id="Trazado_194366" data-name="Trazado 194366" d="M441.157,1885.793c-.314-1.876-1.267-2.055-1.931-1.93a5.472,5.472,0,0,0-6.655-2.548,9.32,9.32,0,0,1-5.393,3.24s.794,1.477,4.065,2.391a5.581,5.581,0,0,0,3.228-.258,18.266,18.266,0,0,1-4.643,1.751c4.311.394,8.412-3.547,8.838-3.969a6.148,6.148,0,0,1,.339,2.825c-.284,1.27-1.412,3.571-.723,3.869C438.282,1891.164,441.626,1888.606,441.157,1885.793Z" fill="#172c55"/>
      <path id="Trazado_194367" data-name="Trazado 194367" d="M450.131,1930.985s-1.909,1.432-.47,2.368,4.008,1.189,4.019.575C453.715,1931.866,452.687,1930.4,450.131,1930.985Z" fill="#f59763"/>
      <rect id="Rectángulo_294800" data-name="Rectángulo 294800" width="397.1" height="1.586" rx="0.582" transform="translate(360.416 1993.284)" fill="#1e2844"/>
      <path id="Trazado_194368" data-name="Trazado 194368" d="M477.768,1852.38c-.222-.917.179-1.636,1.029-1.638a2,2,0,0,1,1.812,1.633c.222.917-.175,1.637-1.029,1.638A1.991,1.991,0,0,1,477.768,1852.38Zm2.119,0c-.139-.573-.527-1.006-.947-1.006s-.593.422-.45,1.009.522,1.007.947,1.006S480.028,1852.959,479.887,1852.376Z" fill="#f17925"/>
      <path id="Trazado_194369" data-name="Trazado 194369" d="M465.489,1828.615l-.524.137-.284-.569.852-.273h.48l.771,3.185h-.7Z" fill="#789fd4"/>
      <path id="Trazado_194370" data-name="Trazado 194370" d="M467.981,1829.51c-.222-.917.18-1.636,1.029-1.637a2,2,0,0,1,1.812,1.633c.222.917-.175,1.636-1.029,1.637A1.99,1.99,0,0,1,467.981,1829.51Zm2.119,0c-.139-.574-.527-1.007-.947-1.006s-.593.421-.45,1.008.522,1.007.947,1.006S470.241,1830.09,470.1,1829.507Z" fill="#789fd4"/>
      <path id="Trazado_194371" data-name="Trazado 194371" d="M523.946,1828.509l-.525.136-.284-.569.853-.272h.479l.772,3.185h-.7Z" fill="#789fd4"/>
      <path id="Trazado_194372" data-name="Trazado 194372" d="M526.438,1829.4c-.222-.917.18-1.636,1.029-1.638a2,2,0,0,1,1.812,1.633c.222.917-.175,1.637-1.029,1.638A1.991,1.991,0,0,1,526.438,1829.4Zm2.119,0c-.139-.574-.527-1.008-.947-1.007s-.592.422-.45,1.009.522,1.007.947,1.006S528.7,1829.983,528.557,1829.4Z" fill="#789fd4"/>
      <path id="Trazado_194373" data-name="Trazado 194373" d="M530.686,1829.4c-.222-.917.179-1.636,1.029-1.638a2,2,0,0,1,1.811,1.633c.222.917-.175,1.636-1.029,1.638A1.99,1.99,0,0,1,530.686,1829.4Zm2.119,0c-.139-.573-.527-1.007-.947-1.006s-.593.421-.451,1.009.523,1.007.948,1.006S532.946,1829.976,532.8,1829.393Z" fill="#789fd4"/>
      <path id="Trazado_194374" data-name="Trazado 194374" d="M552.409,1829.4c-.222-.917.179-1.636,1.029-1.638a2,2,0,0,1,1.812,1.633c.222.917-.175,1.637-1.029,1.638A1.991,1.991,0,0,1,552.409,1829.4Zm2.119,0c-.139-.574-.527-1.008-.947-1.007s-.593.422-.45,1.009.522,1.007.947,1.006S554.669,1829.983,554.528,1829.4Z" fill="#789fd4"/>
      <path id="Trazado_194375" data-name="Trazado 194375" d="M556.656,1829.4c-.222-.917.18-1.636,1.03-1.638a2,2,0,0,1,1.811,1.633c.222.917-.175,1.636-1.029,1.638A1.992,1.992,0,0,1,556.656,1829.4Zm2.12,0c-.139-.573-.527-1.007-.948-1.006s-.592.421-.45,1.009.523,1.007.947,1.006S558.917,1829.976,558.776,1829.393Z" fill="#789fd4"/>
      <path id="Trazado_194376" data-name="Trazado 194376" d="M560.9,1829.39c-.222-.917.18-1.637,1.029-1.638a2,2,0,0,1,1.812,1.633c.222.917-.175,1.636-1.029,1.638A1.991,1.991,0,0,1,560.9,1829.39Zm2.119,0c-.139-.574-.527-1.007-.947-1.006s-.592.421-.45,1.009.522,1.006.947,1.006S563.164,1829.969,563.023,1829.386Z" fill="#789fd4"/>
      <path id="Trazado_194377" data-name="Trazado 194377" d="M590.434,1829.318c-.222-.918.179-1.637,1.029-1.638a2,2,0,0,1,1.812,1.633c.222.917-.175,1.636-1.03,1.637A1.988,1.988,0,0,1,590.434,1829.318Zm2.119,0c-.139-.574-.527-1.007-.947-1.006s-.593.421-.451,1.008.523,1.007.948,1.007S592.694,1829.9,592.553,1829.314Z" fill="#789fd4"/>
      <path id="Trazado_194378" data-name="Trazado 194378" d="M594.5,1829.311c-.222-.917.179-1.637,1.029-1.638a2,2,0,0,1,1.812,1.633c.222.917-.175,1.636-1.029,1.638A1.99,1.99,0,0,1,594.5,1829.311Zm2.119,0c-.139-.574-.527-1.007-.947-1.006s-.593.421-.451,1.009.523,1.006.948,1.006S596.759,1829.89,596.618,1829.307Z" fill="#789fd4"/>
      <path id="Trazado_194379" data-name="Trazado 194379" d="M598.92,1829.3c-.222-.917.179-1.636,1.029-1.637a2,2,0,0,1,1.812,1.633c.222.916-.175,1.636-1.029,1.637A1.99,1.99,0,0,1,598.92,1829.3Zm2.119,0c-.139-.574-.527-1.007-.947-1.007s-.593.422-.451,1.009.523,1.007.948,1.006S601.18,1829.882,601.039,1829.3Z" fill="#789fd4"/>
      <path id="Trazado_194380" data-name="Trazado 194380" d="M606.141,1829.291c-.222-.917.179-1.636,1.029-1.638a2,2,0,0,1,1.812,1.633c.222.917-.175,1.637-1.029,1.638A1.991,1.991,0,0,1,606.141,1829.291Zm2.119,0c-.139-.574-.527-1.007-.947-1.007s-.593.422-.451,1.009.523,1.007.948,1.006S608.4,1829.87,608.26,1829.288Z" fill="#789fd4"/>
      <path id="Trazado_194381" data-name="Trazado 194381" d="M610.714,1828.384l-.524.137-.284-.569.852-.273h.48l.771,3.185h-.694Z" fill="#789fd4"/>
      <path id="Trazado_194382" data-name="Trazado 194382" d="M613.206,1829.279c-.222-.917.18-1.636,1.029-1.638a2,2,0,0,1,1.812,1.633c.222.918-.175,1.637-1.029,1.638A1.991,1.991,0,0,1,613.206,1829.279Zm2.12,0c-.139-.574-.527-1.007-.948-1.007s-.592.422-.45,1.009.523,1.007.947,1.006S615.467,1829.858,615.326,1829.276Z" fill="#789fd4"/>
      <path id="Trazado_194383" data-name="Trazado 194383" d="M620.285,1829.26c-.223-.917.179-1.636,1.029-1.638a2,2,0,0,1,1.811,1.633c.222.917-.175,1.637-1.029,1.638A1.989,1.989,0,0,1,620.285,1829.26Zm2.119,0c-.139-.574-.527-1.007-.948-1.007s-.592.422-.45,1.009.523,1.007.947,1.006S622.545,1829.839,622.4,1829.257Z" fill="#789fd4"/>
      <path id="Trazado_194384" data-name="Trazado 194384" d="M497.792,1836.347c-.222-.917.179-1.636,1.029-1.638a2,2,0,0,1,1.812,1.633c.222.917-.175,1.636-1.029,1.638A1.99,1.99,0,0,1,497.792,1836.347Zm2.119,0c-.139-.574-.527-1.007-.947-1.006s-.593.421-.451,1.009.523,1.006.948,1.006S500.052,1836.926,499.911,1836.343Z" fill="#789fd4"/>
      <path id="Trazado_194385" data-name="Trazado 194385" d="M502.039,1836.34c-.222-.917.18-1.637,1.029-1.638a2,2,0,0,1,1.812,1.633c.222.917-.175,1.636-1.029,1.638A1.992,1.992,0,0,1,502.039,1836.34Zm2.12,0c-.139-.574-.528-1.007-.948-1.006s-.592.421-.45,1.008.522,1.007.947,1.007S504.3,1836.919,504.159,1836.336Z" fill="#789fd4"/>
      <path id="Trazado_194386" data-name="Trazado 194386" d="M607.808,1836.175c-.222-.917.179-1.636,1.029-1.638a2,2,0,0,1,1.811,1.633c.222.917-.175,1.636-1.029,1.638A1.99,1.99,0,0,1,607.808,1836.175Zm2.119,0c-.139-.573-.527-1.007-.948-1.006s-.592.421-.45,1.009.523,1.007.947,1.006S610.068,1836.754,609.927,1836.171Z" fill="#789fd4"/>
      <path id="Trazado_194387" data-name="Trazado 194387" d="M612.381,1835.268l-.524.136-.284-.569.852-.272h.48l.771,3.185h-.694Z" fill="#789fd4"/>
      <path id="Trazado_194388" data-name="Trazado 194388" d="M614.873,1836.163c-.222-.917.18-1.636,1.029-1.638a2,2,0,0,1,1.812,1.633c.222.917-.175,1.637-1.029,1.638A1.991,1.991,0,0,1,614.873,1836.163Zm2.119,0c-.138-.573-.527-1.007-.947-1.006s-.592.422-.45,1.009.522,1.007.947,1.006S617.134,1836.742,616.992,1836.159Z" fill="#789fd4"/>
      <path id="Trazado_194389" data-name="Trazado 194389" d="M630.447,1836.13c-.222-.917.179-1.637,1.029-1.638a2,2,0,0,1,1.812,1.633c.221.917-.176,1.636-1.03,1.638A1.99,1.99,0,0,1,630.447,1836.13Zm2.119,0c-.139-.574-.527-1.007-.947-1.006s-.593.421-.451,1.008.523,1.007.947,1.007S632.707,1836.709,632.566,1836.126Z" fill="#789fd4"/>
      <path id="Trazado_194390" data-name="Trazado 194390" d="M635.02,1835.223l-.524.136-.284-.569.852-.272h.48l.771,3.184-.694,0Z" fill="#789fd4"/>
      <path id="Trazado_194391" data-name="Trazado 194391" d="M494.218,1873.512c-.222-.917.18-1.636,1.029-1.638a2,2,0,0,1,1.812,1.633c.222.917-.175,1.636-1.029,1.638A1.992,1.992,0,0,1,494.218,1873.512Zm2.12,0c-.139-.573-.528-1.007-.948-1.006s-.592.421-.45,1.009.523,1.007.947,1.006S496.479,1874.091,496.338,1873.508Z" fill="#789fd4"/>
      <path id="Trazado_194392" data-name="Trazado 194392" d="M498.466,1873.505c-.222-.917.179-1.637,1.029-1.638a2,2,0,0,1,1.812,1.633c.222.917-.175,1.636-1.029,1.638A1.991,1.991,0,0,1,498.466,1873.505Zm2.119,0c-.139-.574-.527-1.007-.947-1.006s-.593.421-.451,1.009.523,1.006.948,1.006S500.726,1874.084,500.585,1873.5Z" fill="#789fd4"/>
      <path id="Trazado_194393" data-name="Trazado 194393" d="M503.039,1872.6l-.524.136-.284-.569.852-.272h.48l.771,3.185h-.694Z" fill="#789fd4"/>
      <path id="Trazado_194394" data-name="Trazado 194394" d="M509.779,1873.486c-.222-.917.18-1.637,1.029-1.638a2,2,0,0,1,1.812,1.633c.222.917-.175,1.636-1.029,1.638A1.991,1.991,0,0,1,509.779,1873.486Zm2.119,0c-.139-.574-.527-1.007-.947-1.006s-.592.421-.45,1.008.522,1.007.947,1.007S512.039,1874.065,511.9,1873.482Z" fill="#789fd4"/>
      <path id="Trazado_194395" data-name="Trazado 194395" d="M514.027,1873.479c-.222-.918.179-1.637,1.029-1.638a2,2,0,0,1,1.812,1.633c.222.917-.175,1.636-1.029,1.637A1.989,1.989,0,0,1,514.027,1873.479Zm2.119,0c-.139-.574-.527-1.007-.947-1.006s-.593.421-.451,1.008.523,1.007.948,1.006S516.287,1874.058,516.146,1873.475Z" fill="#789fd4"/>
      <path id="Trazado_194396" data-name="Trazado 194396" d="M518.274,1873.471c-.222-.917.18-1.636,1.029-1.637a2,2,0,0,1,1.812,1.633c.222.917-.175,1.636-1.029,1.637A1.991,1.991,0,0,1,518.274,1873.471Zm2.12,0c-.139-.574-.528-1.007-.948-1.007s-.592.422-.45,1.009.523,1.007.947,1.006S520.535,1874.051,520.394,1873.468Z" fill="#789fd4"/>
      <path id="Trazado_194397" data-name="Trazado 194397" d="M571.3,1873.512c-.222-.917.179-1.636,1.029-1.638a2,2,0,0,1,1.811,1.633c.223.917-.174,1.636-1.028,1.638A1.99,1.99,0,0,1,571.3,1873.512Zm2.119,0c-.139-.573-.527-1.007-.947-1.006s-.593.421-.451,1.009.523,1.007.948,1.006S573.562,1874.091,573.421,1873.508Z" fill="#789fd4"/>
      <path id="Trazado_194398" data-name="Trazado 194398" d="M575.549,1873.505c-.222-.917.18-1.637,1.029-1.638a2,2,0,0,1,1.812,1.633c.222.917-.175,1.636-1.029,1.638A1.991,1.991,0,0,1,575.549,1873.505Zm2.119,0c-.139-.574-.527-1.007-.947-1.006s-.592.421-.45,1.009.522,1.006.947,1.006S577.81,1874.084,577.668,1873.5Z" fill="#789fd4"/>
      <path id="Trazado_194399" data-name="Trazado 194399" d="M580.123,1872.6l-.525.136-.284-.569.853-.272h.479l.771,3.185h-.694Z" fill="#789fd4"/>
      <path id="Trazado_194400" data-name="Trazado 194400" d="M599.779,1873.512c-.222-.917.179-1.636,1.029-1.638a2,2,0,0,1,1.811,1.633c.222.917-.175,1.636-1.029,1.638A1.99,1.99,0,0,1,599.779,1873.512Zm2.119,0c-.139-.573-.527-1.007-.948-1.006s-.592.421-.45,1.009.523,1.007.947,1.006S602.039,1874.091,601.9,1873.508Z" fill="#789fd4"/>
      <path id="Trazado_194401" data-name="Trazado 194401" d="M604.026,1873.505c-.222-.917.18-1.637,1.029-1.638a2,2,0,0,1,1.812,1.633c.222.917-.175,1.636-1.029,1.638A1.991,1.991,0,0,1,604.026,1873.505Zm2.119,0c-.139-.574-.527-1.007-.947-1.006s-.593.421-.45,1.009.522,1.006.947,1.006S606.286,1874.084,606.145,1873.5Z" fill="#789fd4"/>
      <path id="Trazado_194402" data-name="Trazado 194402" d="M608.6,1872.6l-.525.136-.284-.569.853-.272h.479l.771,3.185H609.2Z" fill="#789fd4"/>
      <path id="Trazado_194403" data-name="Trazado 194403" d="M586.862,1873.486c-.222-.917.18-1.637,1.029-1.638a2,2,0,0,1,1.812,1.633c.222.917-.175,1.636-1.029,1.638A1.992,1.992,0,0,1,586.862,1873.486Zm2.12,0c-.139-.574-.527-1.007-.948-1.006s-.592.421-.45,1.008.523,1.007.947,1.007S589.123,1874.065,588.982,1873.482Z" fill="#789fd4"/>
      <path id="Trazado_194404" data-name="Trazado 194404" d="M591.11,1873.479c-.222-.918.179-1.637,1.029-1.638a2,2,0,0,1,1.812,1.633c.222.917-.175,1.636-1.029,1.637A1.989,1.989,0,0,1,591.11,1873.479Zm2.119,0c-.139-.574-.527-1.007-.947-1.006s-.593.421-.45,1.008.522,1.007.947,1.006S593.37,1874.058,593.229,1873.475Z" fill="#789fd4"/>
      <path id="Trazado_194405" data-name="Trazado 194405" d="M595.358,1873.471c-.222-.917.179-1.636,1.029-1.637a2,2,0,0,1,1.812,1.633c.222.917-.175,1.636-1.029,1.637A1.989,1.989,0,0,1,595.358,1873.471Zm2.119,0c-.139-.574-.527-1.007-.947-1.007s-.593.422-.451,1.009.523,1.007.948,1.006S597.618,1874.051,597.477,1873.468Z" fill="#789fd4"/>
      <path id="Trazado_194406" data-name="Trazado 194406" d="M532.8,1873.4c-.222-.917.179-1.637,1.029-1.638a2,2,0,0,1,1.812,1.633c.222.917-.175,1.636-1.029,1.638A1.991,1.991,0,0,1,532.8,1873.4Zm2.119,0c-.139-.573-.527-1.007-.947-1.006s-.593.421-.45,1.009.522,1.007.947,1.006S535.061,1873.979,534.92,1873.4Z" fill="#789fd4"/>
      <path id="Trazado_194407" data-name="Trazado 194407" d="M537.374,1872.493l-.524.136-.284-.569.853-.272h.479l.771,3.185h-.694Z" fill="#789fd4"/>
      <path id="Trazado_194408" data-name="Trazado 194408" d="M539.867,1873.388c-.222-.917.179-1.636,1.029-1.638a2,2,0,0,1,1.812,1.633c.222.917-.175,1.636-1.03,1.638A1.99,1.99,0,0,1,539.867,1873.388Zm2.119,0c-.139-.574-.527-1.008-.947-1.007s-.593.422-.451,1.009.523,1.007.948,1.006S542.127,1873.967,541.986,1873.385Z" fill="#789fd4"/>
      <path id="Trazado_194409" data-name="Trazado 194409" d="M623.88,1873.3c-.223-.917.179-1.637,1.028-1.638a2,2,0,0,1,1.812,1.633c.222.917-.175,1.636-1.029,1.638A1.99,1.99,0,0,1,623.88,1873.3Zm2.119,0c-.139-.574-.527-1.007-.948-1.006s-.592.421-.45,1.009.523,1.006.947,1.006S626.14,1873.879,626,1873.3Z" fill="#789fd4"/>
      <path id="Trazado_194410" data-name="Trazado 194410" d="M628.453,1872.393l-.525.136-.283-.569.852-.272h.48l.771,3.185h-.694Z" fill="#789fd4"/>
      <path id="Trazado_194411" data-name="Trazado 194411" d="M630.945,1873.288c-.222-.917.18-1.636,1.029-1.638a2,2,0,0,1,1.812,1.633c.222.917-.175,1.636-1.029,1.638A1.991,1.991,0,0,1,630.945,1873.288Zm2.119,0c-.139-.573-.527-1.007-.947-1.006s-.593.421-.45,1.009.522,1.007.947,1.006S633.205,1873.867,633.064,1873.284Z" fill="#789fd4"/>
      <path id="Trazado_194412" data-name="Trazado 194412" d="M469.092,1843.495l-.524.137-.284-.569.852-.273h.48l.771,3.184-.694,0Z" fill="#789fd4"/>
      <path id="Trazado_194413" data-name="Trazado 194413" d="M471.584,1844.391c-.222-.917.18-1.637,1.029-1.638a2,2,0,0,1,1.812,1.633c.222.917-.175,1.636-1.029,1.638A1.991,1.991,0,0,1,471.584,1844.391Zm2.119,0c-.139-.574-.527-1.007-.947-1.006s-.593.421-.45,1.009.522,1.006.947,1.006S473.844,1844.97,473.7,1844.387Z" fill="#789fd4"/>
      <path id="Trazado_194414" data-name="Trazado 194414" d="M495.64,1844.35c-.222-.917.18-1.636,1.029-1.638a2,2,0,0,1,1.812,1.633c.222.917-.175,1.637-1.029,1.638A1.99,1.99,0,0,1,495.64,1844.35Zm2.119,0c-.138-.574-.527-1.007-.947-1.007s-.592.422-.45,1.009.522,1.007.947,1.006S497.9,1844.929,497.759,1844.347Z" fill="#789fd4"/>
      <path id="Trazado_194415" data-name="Trazado 194415" d="M499.888,1844.343c-.222-.917.179-1.636,1.029-1.638a2,2,0,0,1,1.812,1.633c.222.917-.175,1.636-1.03,1.638A1.99,1.99,0,0,1,499.888,1844.343Zm2.119,0c-.139-.573-.527-1.007-.947-1.006s-.593.422-.451,1.009.523,1.007.948,1.006S502.148,1844.922,502.007,1844.339Z" fill="#789fd4"/>
      <path id="Trazado_194416" data-name="Trazado 194416" d="M504.135,1844.336c-.222-.917.18-1.636,1.029-1.638a2,2,0,0,1,1.812,1.633c.222.917-.175,1.636-1.029,1.638A1.992,1.992,0,0,1,504.135,1844.336Zm2.12,0c-.139-.574-.528-1.007-.948-1.006s-.592.421-.45,1.009.523,1.007.947,1.006S506.4,1844.915,506.255,1844.332Z" fill="#789fd4"/>
      <path id="Trazado_194417" data-name="Trazado 194417" d="M508.709,1843.429l-.525.136L507.9,1843l.853-.272h.479l.772,3.185h-.7Z" fill="#789fd4"/>
      <path id="Trazado_194418" data-name="Trazado 194418" d="M511.55,1843.424l-.525.136-.284-.568.853-.273h.479l.771,3.185h-.694Z" fill="#789fd4"/>
      <path id="Trazado_194419" data-name="Trazado 194419" d="M514.042,1844.319c-.222-.917.179-1.636,1.029-1.638a2,2,0,0,1,1.812,1.633c.222.917-.175,1.637-1.029,1.638A1.991,1.991,0,0,1,514.042,1844.319Zm2.119,0c-.139-.574-.527-1.007-.947-1.007s-.593.422-.45,1.009.522,1.007.947,1.006S516.3,1844.9,516.161,1844.316Z" fill="#789fd4"/>
      <path id="Trazado_194420" data-name="Trazado 194420" d="M623.887,1844.14c-.222-.917.18-1.636,1.03-1.637a2,2,0,0,1,1.811,1.633c.222.917-.175,1.636-1.029,1.637A1.99,1.99,0,0,1,623.887,1844.14Zm2.12,0c-.139-.574-.527-1.007-.948-1.006s-.592.421-.45,1.008.523,1.007.947,1.006S626.148,1844.72,626.007,1844.137Z" fill="#f17925"/>
      <path id="Trazado_194421" data-name="Trazado 194421" d="M628.135,1844.133c-.222-.917.18-1.636,1.029-1.637a2,2,0,0,1,1.812,1.632c.222.918-.175,1.637-1.029,1.638A1.99,1.99,0,0,1,628.135,1844.133Zm2.119,0c-.138-.574-.527-1.007-.947-1.006s-.592.421-.45,1.008.522,1.007.947,1.006S630.4,1844.712,630.254,1844.13Z" fill="#f17925"/>
      <path id="Trazado_194422" data-name="Trazado 194422" d="M632.383,1844.126c-.222-.917.179-1.636,1.029-1.638a2,2,0,0,1,1.812,1.633c.222.917-.175,1.637-1.029,1.638A1.991,1.991,0,0,1,632.383,1844.126Zm2.119,0c-.139-.574-.527-1.007-.947-1.007s-.593.422-.451,1.009.523,1.007.948,1.006S634.643,1844.7,634.5,1844.123Z" fill="#789fd4"/>
      <path id="Trazado_194423" data-name="Trazado 194423" d="M636.956,1843.219l-.524.137-.284-.569.852-.273h.48l.771,3.185h-.694Z" fill="#789fd4"/>
      <path id="Trazado_194424" data-name="Trazado 194424" d="M471.028,1851.492l-.524.136-.284-.568.852-.273h.48l.771,3.185h-.694Z" fill="#789fd4"/>
      <path id="Trazado_194425" data-name="Trazado 194425" d="M473.52,1852.387c-.222-.917.18-1.636,1.029-1.638a2,2,0,0,1,1.812,1.633c.222.917-.175,1.637-1.029,1.638A1.991,1.991,0,0,1,473.52,1852.387Zm2.12,0c-.139-.574-.528-1.007-.948-1.007s-.592.422-.45,1.009.522,1.007.947,1.006S475.781,1852.966,475.64,1852.384Z" fill="#789fd4"/>
      <path id="Trazado_194426" data-name="Trazado 194426" d="M493.329,1852.354c-.222-.917.179-1.636,1.029-1.638a2,2,0,0,1,1.812,1.633c.222.917-.175,1.636-1.029,1.638A1.991,1.991,0,0,1,493.329,1852.354Zm2.119,0c-.139-.574-.527-1.007-.947-1.006s-.593.421-.451,1.009.523,1.006.948,1.006S495.589,1852.933,495.448,1852.35Z" fill="#789fd4"/>
      <path id="Trazado_194427" data-name="Trazado 194427" d="M497.576,1852.347c-.222-.917.18-1.637,1.029-1.638a2,2,0,0,1,1.812,1.633c.222.917-.175,1.636-1.029,1.638A1.992,1.992,0,0,1,497.576,1852.347Zm2.12,0c-.139-.574-.528-1.007-.948-1.006s-.592.421-.45,1.008.523,1.007.947,1.007S499.837,1852.926,499.7,1852.343Z" fill="#789fd4"/>
      <path id="Trazado_194428" data-name="Trazado 194428" d="M481.467,1867.827c-.222-.917.18-1.637,1.029-1.638a2,2,0,0,1,1.812,1.633c.222.917-.175,1.636-1.029,1.638A1.991,1.991,0,0,1,481.467,1867.827Zm2.119,0c-.139-.574-.527-1.007-.947-1.006s-.592.421-.45,1.009.522,1.006.947,1.006S483.728,1868.406,483.586,1867.823Z" fill="#f17925"/>
      <path id="Trazado_194429" data-name="Trazado 194429" d="M486.041,1866.92l-.525.136-.284-.569.853-.272h.479l.771,3.185h-.694Z" fill="#f17925"/>
      <path id="Trazado_194430" data-name="Trazado 194430" d="M472.791,1858.942l-.524.137-.284-.569.852-.273h.48l.771,3.185h-.694Z" fill="#789fd4"/>
      <path id="Trazado_194431" data-name="Trazado 194431" d="M475.283,1859.837c-.222-.917.18-1.636,1.029-1.637a2,2,0,0,1,1.812,1.632c.222.918-.175,1.637-1.029,1.638A1.991,1.991,0,0,1,475.283,1859.837Zm2.12,0c-.139-.574-.528-1.007-.948-1.007s-.592.422-.45,1.009.523,1.007.947,1.006S477.544,1860.416,477.4,1859.834Z" fill="#789fd4"/>
      <path id="Trazado_194432" data-name="Trazado 194432" d="M479.531,1859.83c-.222-.917.179-1.636,1.029-1.638a2,2,0,0,1,1.812,1.633c.222.917-.175,1.637-1.029,1.638A1.99,1.99,0,0,1,479.531,1859.83Zm2.119,0c-.139-.574-.527-1.007-.947-1.007s-.593.422-.45,1.009.522,1.007.947,1.006S481.791,1860.409,481.65,1859.827Z" fill="#789fd4"/>
      <path id="Trazado_194433" data-name="Trazado 194433" d="M484.1,1858.923l-.524.137-.284-.569.852-.273h.48l.771,3.185H484.7Z" fill="#789fd4"/>
      <path id="Trazado_194434" data-name="Trazado 194434" d="M486.6,1859.818c-.222-.917.179-1.636,1.029-1.637a2,2,0,0,1,1.812,1.633c.222.917-.175,1.636-1.029,1.637A1.989,1.989,0,0,1,486.6,1859.818Zm2.119,0c-.139-.574-.527-1.007-.947-1.006s-.593.421-.451,1.008.523,1.007.948,1.006S488.857,1860.4,488.716,1859.815Z" fill="#789fd4"/>
      <path id="Trazado_194435" data-name="Trazado 194435" d="M490.844,1859.811c-.222-.917.18-1.636,1.029-1.638a2,2,0,0,1,1.812,1.633c.222.917-.175,1.637-1.029,1.638A1.991,1.991,0,0,1,490.844,1859.811Zm2.12,0c-.139-.574-.528-1.007-.948-1.007s-.592.422-.45,1.009.522,1.007.947,1.006S493.105,1860.39,492.964,1859.808Z" fill="#789fd4"/>
      <path id="Trazado_194436" data-name="Trazado 194436" d="M495.092,1859.8c-.222-.917.179-1.636,1.029-1.638a2,2,0,0,1,1.812,1.633c.222.917-.175,1.636-1.029,1.638A1.991,1.991,0,0,1,495.092,1859.8Zm2.119,0c-.139-.573-.527-1.007-.947-1.006s-.593.421-.451,1.009.523,1.007.948,1.006S497.352,1860.383,497.211,1859.8Z" fill="#789fd4"/>
      <path id="Trazado_194437" data-name="Trazado 194437" d="M499.34,1859.8c-.223-.917.179-1.637,1.028-1.638a2,2,0,0,1,1.812,1.633c.222.917-.175,1.636-1.029,1.638A1.99,1.99,0,0,1,499.34,1859.8Zm2.119,0c-.139-.574-.528-1.007-.948-1.006s-.592.421-.45,1.009.523,1.006.947,1.006S501.6,1860.376,501.459,1859.793Z" fill="#789fd4"/>
      <path id="Trazado_194438" data-name="Trazado 194438" d="M503.587,1859.79c-.222-.918.179-1.637,1.029-1.638a2,2,0,0,1,1.812,1.633c.222.917-.175,1.636-1.029,1.638A1.991,1.991,0,0,1,503.587,1859.79Zm2.119,0c-.139-.574-.527-1.007-.947-1.006s-.593.421-.45,1.008.522,1.007.947,1.007S505.847,1860.369,505.706,1859.786Z" fill="#789fd4"/>
      <path id="Trazado_194439" data-name="Trazado 194439" d="M507.835,1859.782c-.222-.917.179-1.636,1.029-1.637a2,2,0,0,1,1.811,1.633c.222.917-.175,1.636-1.029,1.637A1.988,1.988,0,0,1,507.835,1859.782Zm2.119,0c-.139-.574-.527-1.007-.947-1.006s-.593.421-.451,1.008.523,1.007.947,1.006S510.1,1860.362,509.954,1859.779Z" fill="#789fd4"/>
      <path id="Trazado_194440" data-name="Trazado 194440" d="M512.408,1858.875l-.524.137-.284-.569.852-.273h.48l.771,3.184h-.694Z" fill="#789fd4"/>
      <path id="Trazado_194441" data-name="Trazado 194441" d="M515.249,1858.871l-.524.136-.284-.569.852-.272h.48l.771,3.185h-.7Z" fill="#789fd4"/>
      <path id="Trazado_194442" data-name="Trazado 194442" d="M517.741,1859.766c-.222-.917.18-1.637,1.029-1.638a2,2,0,0,1,1.812,1.633c.222.917-.175,1.636-1.029,1.638A1.991,1.991,0,0,1,517.741,1859.766Zm2.119,0c-.139-.574-.527-1.007-.947-1.006s-.592.421-.45,1.009.522,1.006.947,1.006S520,1860.345,519.86,1859.762Z" fill="#789fd4"/>
      <path id="Trazado_194443" data-name="Trazado 194443" d="M474.727,1866.939l-.524.136-.284-.569.852-.273h.48l.771,3.185h-.694Z" fill="#789fd4"/>
      <path id="Trazado_194444" data-name="Trazado 194444" d="M477.22,1867.834c-.222-.917.179-1.637,1.029-1.638a2,2,0,0,1,1.811,1.633c.222.917-.175,1.636-1.029,1.638A1.99,1.99,0,0,1,477.22,1867.834Zm2.119,0c-.139-.573-.527-1.007-.948-1.006s-.592.421-.45,1.009.523,1.007.948,1.006S479.48,1868.413,479.339,1867.83Z" fill="#789fd4"/>
      <path id="Trazado_194445" data-name="Trazado 194445" d="M488.533,1867.815c-.222-.917.179-1.637,1.029-1.638a2,2,0,0,1,1.812,1.633c.222.917-.175,1.636-1.029,1.638A1.991,1.991,0,0,1,488.533,1867.815Zm2.119,0c-.139-.574-.527-1.007-.947-1.006s-.593.421-.45,1.009.522,1.006.947,1.006S490.793,1868.394,490.652,1867.811Z" fill="#789fd4"/>
      <path id="Trazado_194446" data-name="Trazado 194446" d="M492.78,1867.808c-.222-.918.18-1.637,1.029-1.638a2,2,0,0,1,1.812,1.633c.222.917-.175,1.636-1.029,1.638A1.992,1.992,0,0,1,492.78,1867.808Zm2.12,0c-.139-.574-.527-1.007-.948-1.006s-.592.421-.45,1.008.523,1.007.947,1.007S495.041,1868.387,494.9,1867.8Z" fill="#789fd4"/>
      <path id="Trazado_194447" data-name="Trazado 194447" d="M485.223,1885.557c-.222-.917.18-1.636,1.029-1.638a2,2,0,0,1,1.812,1.633c.222.918-.175,1.637-1.029,1.638A1.99,1.99,0,0,1,485.223,1885.557Zm2.119,0c-.138-.574-.527-1.007-.947-1.007s-.592.422-.45,1.009.522,1.007.947,1.006S487.484,1886.136,487.342,1885.554Z" fill="#789fd4"/>
      <path id="Trazado_194448" data-name="Trazado 194448" d="M489.8,1884.65l-.525.137-.284-.569.853-.273h.479l.772,3.185h-.7Z" fill="#789fd4"/>
      <path id="Trazado_194449" data-name="Trazado 194449" d="M478.484,1884.669l-.525.137-.284-.569.852-.273h.48l.771,3.185h-.694Z" fill="#789fd4"/>
      <path id="Trazado_194450" data-name="Trazado 194450" d="M480.976,1885.564c-.222-.917.179-1.636,1.029-1.637a2,2,0,0,1,1.811,1.633c.223.917-.174,1.636-1.029,1.637A1.989,1.989,0,0,1,480.976,1885.564Zm2.119,0c-.139-.574-.527-1.007-.948-1.006s-.592.421-.45,1.008.523,1.007.948,1.006S483.236,1886.144,483.1,1885.561Z" fill="#789fd4"/>
      <path id="Trazado_194451" data-name="Trazado 194451" d="M492.289,1885.545c-.222-.917.179-1.636,1.029-1.637a2,2,0,0,1,1.812,1.632c.222.917-.175,1.637-1.029,1.638A1.99,1.99,0,0,1,492.289,1885.545Zm2.119,0c-.139-.574-.527-1.007-.947-1.007s-.593.422-.45,1.009.522,1.007.947,1.006S494.549,1886.124,494.408,1885.542Z" fill="#f17925"/>
      <path id="Trazado_194452" data-name="Trazado 194452" d="M496.536,1885.538c-.222-.917.18-1.636,1.03-1.638a2,2,0,0,1,1.811,1.633c.222.917-.175,1.637-1.029,1.638A1.991,1.991,0,0,1,496.536,1885.538Zm2.12,0c-.139-.574-.527-1.007-.948-1.007s-.592.422-.45,1.009.523,1.007.947,1.006S498.8,1886.117,498.656,1885.535Z" fill="#f17925"/>
      <path id="Trazado_194453" data-name="Trazado 194453" d="M479.975,1891.261c-.222-.918.179-1.637,1.029-1.638a2,2,0,0,1,1.812,1.633c.222.917-.175,1.636-1.029,1.638A1.991,1.991,0,0,1,479.975,1891.261Zm2.119,0c-.139-.574-.527-1.007-.947-1.006s-.593.421-.45,1.008.522,1.007.947,1.007S482.235,1891.84,482.094,1891.257Z" fill="#789fd4"/>
      <path id="Trazado_194454" data-name="Trazado 194454" d="M484.548,1890.353l-.524.137-.284-.569.852-.273h.48l.771,3.184-.694,0Z" fill="#789fd4"/>
      <path id="Trazado_194455" data-name="Trazado 194455" d="M487.041,1891.249c-.222-.917.179-1.637,1.029-1.638a2,2,0,0,1,1.811,1.633c.223.917-.174,1.636-1.028,1.638A1.99,1.99,0,0,1,487.041,1891.249Zm2.119,0c-.139-.574-.527-1.007-.947-1.006s-.593.421-.451,1.009.523,1.007.948,1.006S489.3,1891.828,489.16,1891.245Z" fill="#789fd4"/>
      <path id="Trazado_194456" data-name="Trazado 194456" d="M491.288,1891.242c-.222-.918.18-1.637,1.029-1.638a2,2,0,0,1,1.812,1.633c.222.917-.175,1.636-1.029,1.637A1.989,1.989,0,0,1,491.288,1891.242Zm2.119,0c-.139-.574-.527-1.007-.947-1.006s-.592.421-.45,1.008.522,1.007.947,1.007S493.549,1891.821,493.407,1891.238Z" fill="#789fd4"/>
      <path id="Trazado_194457" data-name="Trazado 194457" d="M497.028,1867.8c-.222-.917.18-1.636,1.029-1.637a2,2,0,0,1,1.812,1.633c.222.917-.175,1.636-1.029,1.637A1.989,1.989,0,0,1,497.028,1867.8Zm2.119,0c-.139-.574-.527-1.007-.947-1.006s-.593.421-.45,1.008.522,1.007.947,1.006S499.288,1868.38,499.147,1867.8Z" fill="#789fd4"/>
      <path id="Trazado_194458" data-name="Trazado 194458" d="M501.276,1867.793c-.222-.917.179-1.636,1.029-1.637a2,2,0,0,1,1.812,1.633c.222.917-.175,1.636-1.03,1.637A1.989,1.989,0,0,1,501.276,1867.793Zm2.119,0c-.139-.574-.527-1.007-.947-1.006s-.593.421-.451,1.008.523,1.007.948,1.006S503.536,1868.372,503.395,1867.79Z" fill="#789fd4"/>
      <path id="Trazado_194459" data-name="Trazado 194459" d="M490.618,1906.188c-.222-.917.179-1.636,1.029-1.638a2,2,0,0,1,1.812,1.633c.222.917-.175,1.637-1.029,1.638A1.991,1.991,0,0,1,490.618,1906.188Zm2.119,0c-.139-.573-.527-1.007-.947-1.006s-.593.422-.451,1.009.523,1.007.948,1.006S492.878,1906.767,492.737,1906.184Z" fill="#f17925"/>
      <path id="Trazado_194460" data-name="Trazado 194460" d="M495.191,1905.281l-.524.136-.284-.569.852-.272h.48l.771,3.185h-.694Z" fill="#f17925"/>
      <path id="Trazado_194461" data-name="Trazado 194461" d="M481.942,1897.3l-.525.137-.284-.569.853-.273h.48l.771,3.184-.7,0Z" fill="#789fd4"/>
      <path id="Trazado_194462" data-name="Trazado 194462" d="M484.434,1898.2c-.222-.917.179-1.637,1.029-1.638a2,2,0,0,1,1.812,1.633c.222.917-.175,1.636-1.029,1.638A1.991,1.991,0,0,1,484.434,1898.2Zm2.119,0c-.139-.574-.527-1.007-.947-1.006s-.593.421-.45,1.009.522,1.006.947,1.006S486.694,1898.778,486.553,1898.195Z" fill="#789fd4"/>
      <path id="Trazado_194463" data-name="Trazado 194463" d="M488.682,1898.192c-.222-.918.179-1.637,1.029-1.638a2,2,0,0,1,1.811,1.633c.222.917-.174,1.636-1.029,1.637A1.988,1.988,0,0,1,488.682,1898.192Zm2.119,0c-.139-.574-.527-1.007-.947-1.006s-.593.421-.451,1.008.523,1.007.948,1.007S490.942,1898.771,490.8,1898.188Z" fill="#789fd4"/>
      <path id="Trazado_194464" data-name="Trazado 194464" d="M493.255,1897.284l-.524.137-.284-.569.852-.273h.48l.771,3.184-.694,0Z" fill="#789fd4"/>
      <path id="Trazado_194465" data-name="Trazado 194465" d="M483.878,1905.3l-.524.137-.284-.569.852-.273h.48l.771,3.185h-.694Z" fill="#789fd4"/>
      <path id="Trazado_194466" data-name="Trazado 194466" d="M486.37,1906.195c-.222-.917.18-1.636,1.029-1.638a2,2,0,0,1,1.812,1.633c.222.917-.175,1.637-1.029,1.638A1.99,1.99,0,0,1,486.37,1906.195Zm2.119,0c-.138-.574-.527-1.007-.947-1.007s-.592.422-.45,1.009.522,1.007.947,1.006S488.631,1906.774,488.489,1906.192Z" fill="#789fd4"/>
      <path id="Trazado_194467" data-name="Trazado 194467" d="M497.684,1906.176c-.222-.917.179-1.636,1.029-1.638a2,2,0,0,1,1.811,1.633c.222.917-.175,1.637-1.029,1.638A1.99,1.99,0,0,1,497.684,1906.176Zm2.119,0c-.139-.574-.527-1.007-.948-1.007s-.592.422-.45,1.009.523,1.007.947,1.006S499.944,1906.755,499.8,1906.173Z" fill="#789fd4"/>
      <path id="Trazado_194468" data-name="Trazado 194468" d="M501.931,1906.169c-.222-.917.18-1.636,1.029-1.638a2,2,0,0,1,1.812,1.633c.222.917-.175,1.636-1.029,1.638A1.991,1.991,0,0,1,501.931,1906.169Zm2.119,0c-.139-.573-.527-1.007-.947-1.006s-.593.421-.45,1.009.522,1.007.947,1.006S504.191,1906.748,504.05,1906.165Z" fill="#789fd4"/>
      <path id="Trazado_194469" data-name="Trazado 194469" d="M492.256,1911.834c-.222-.917.179-1.636,1.029-1.638a2,2,0,0,1,1.811,1.633c.223.917-.175,1.636-1.029,1.638A1.99,1.99,0,0,1,492.256,1911.834Zm2.119,0c-.139-.573-.527-1.007-.947-1.006s-.593.421-.451,1.009.523,1.007.948,1.006S494.516,1912.413,494.375,1911.83Z" fill="#f17925"/>
      <path id="Trazado_194470" data-name="Trazado 194470" d="M496.829,1910.927l-.524.136-.284-.569.852-.272h.48l.771,3.185h-.694Z" fill="#f17925"/>
      <path id="Trazado_194471" data-name="Trazado 194471" d="M488.008,1911.841c-.222-.917.18-1.636,1.029-1.638a2,2,0,0,1,1.812,1.633c.222.917-.175,1.637-1.029,1.638A1.991,1.991,0,0,1,488.008,1911.841Zm2.119,0c-.139-.573-.527-1.006-.947-1.006s-.593.421-.45,1.009.522,1.007.947,1.006S490.268,1912.42,490.127,1911.837Z" fill="#789fd4"/>
      <path id="Trazado_194472" data-name="Trazado 194472" d="M499.321,1911.822c-.222-.917.18-1.636,1.029-1.638a2,2,0,0,1,1.812,1.633c.222.917-.175,1.636-1.029,1.638A1.992,1.992,0,0,1,499.321,1911.822Zm2.12,0c-.139-.573-.528-1.007-.948-1.006s-.592.421-.45,1.009.523,1.007.947,1.006S501.582,1912.4,501.441,1911.818Z" fill="#789fd4"/>
      <path id="Trazado_194473" data-name="Trazado 194473" d="M503.569,1911.815c-.222-.917.179-1.637,1.029-1.638a2,2,0,0,1,1.812,1.633c.222.917-.175,1.636-1.029,1.638A1.991,1.991,0,0,1,503.569,1911.815Zm2.119,0c-.139-.573-.527-1.007-.947-1.006s-.593.421-.45,1.009.522,1.006.947,1.006S505.829,1912.394,505.688,1911.811Z" fill="#789fd4"/>
      <path id="Trazado_194474" data-name="Trazado 194474" d="M506.179,1906.162c-.222-.917.179-1.636,1.029-1.638a2,2,0,0,1,1.812,1.633c.222.917-.175,1.636-1.03,1.638A1.99,1.99,0,0,1,506.179,1906.162Zm2.119,0c-.139-.574-.527-1.007-.947-1.006s-.593.421-.451,1.009.523,1.006.948,1.006S508.439,1906.741,508.3,1906.158Z" fill="#789fd4"/>
      <path id="Trazado_194475" data-name="Trazado 194475" d="M510.426,1906.155c-.222-.917.18-1.637,1.029-1.638a2,2,0,0,1,1.812,1.633c.222.917-.175,1.636-1.029,1.638A1.992,1.992,0,0,1,510.426,1906.155Zm2.12,0c-.139-.574-.528-1.007-.948-1.006s-.592.421-.45,1.008.522,1.007.947,1.007S512.687,1906.734,512.546,1906.151Z" fill="#789fd4"/>
      <path id="Trazado_194476" data-name="Trazado 194476" d="M623.332,1851.242l-.525.136-.284-.569.853-.272h.479l.771,3.185h-.694Z" fill="#789fd4"/>
      <path id="Trazado_194477" data-name="Trazado 194477" d="M625.824,1852.137c-.222-.917.179-1.636,1.029-1.638a2,2,0,0,1,1.812,1.633c.222.917-.175,1.637-1.03,1.638A1.99,1.99,0,0,1,625.824,1852.137Zm2.119,0c-.139-.573-.527-1.007-.947-1.006s-.593.421-.451,1.009.523,1.007.948,1.006S628.084,1852.716,627.943,1852.133Z" fill="#789fd4"/>
      <path id="Trazado_194478" data-name="Trazado 194478" d="M630.071,1852.13c-.222-.917.18-1.637,1.029-1.638a2,2,0,0,1,1.812,1.633c.222.917-.175,1.636-1.029,1.638A1.992,1.992,0,0,1,630.071,1852.13Zm2.12,0c-.139-.574-.528-1.007-.948-1.006s-.592.421-.45,1.009.523,1.007.947,1.006S632.332,1852.709,632.191,1852.126Z" fill="#789fd4"/>
      <path id="Trazado_194479" data-name="Trazado 194479" d="M634.319,1852.123c-.222-.917.179-1.637,1.029-1.638a2,2,0,0,1,1.812,1.633c.222.917-.175,1.636-1.029,1.638A1.991,1.991,0,0,1,634.319,1852.123Zm2.119,0c-.139-.574-.527-1.007-.947-1.006s-.593.421-.45,1.008.522,1.007.947,1.007S636.579,1852.7,636.438,1852.119Z" fill="#789fd4"/>
      <path id="Trazado_194480" data-name="Trazado 194480" d="M638.893,1851.216l-.525.136-.284-.569.852-.273h.48l.771,3.185h-.694Z" fill="#789fd4"/>
      <path id="Trazado_194481" data-name="Trazado 194481" d="M618.758,1859.775c-.222-.917.18-1.636,1.029-1.637a2,2,0,0,1,1.812,1.633c.222.917-.175,1.636-1.029,1.637A1.99,1.99,0,0,1,618.758,1859.775Zm2.119,0c-.139-.574-.527-1.007-.947-1.006s-.593.421-.45,1.008.522,1.007.947,1.006S621.019,1860.355,620.877,1859.772Z" fill="#789fd4"/>
      <path id="Trazado_194482" data-name="Trazado 194482" d="M623.332,1858.868l-.525.137-.284-.569.853-.273h.479l.771,3.185h-.694Z" fill="#789fd4"/>
      <path id="Trazado_194483" data-name="Trazado 194483" d="M625.824,1859.764c-.222-.918.179-1.637,1.029-1.638a2,2,0,0,1,1.812,1.633c.222.917-.175,1.636-1.03,1.637A1.989,1.989,0,0,1,625.824,1859.764Zm2.119,0c-.139-.574-.527-1.007-.947-1.006s-.593.421-.451,1.008.523,1.007.948,1.006S628.084,1860.342,627.943,1859.76Z" fill="#f17925"/>
      <path id="Trazado_194484" data-name="Trazado 194484" d="M630.071,1859.756c-.222-.917.18-1.636,1.029-1.638a2,2,0,0,1,1.812,1.633c.222.918-.175,1.637-1.029,1.638A1.991,1.991,0,0,1,630.071,1859.756Zm2.12,0c-.139-.574-.528-1.007-.948-1.007s-.592.422-.45,1.009.523,1.007.947,1.006S632.332,1860.335,632.191,1859.753Z" fill="#f17925"/>
      <path id="Trazado_194485" data-name="Trazado 194485" d="M634.319,1859.749c-.222-.917.179-1.636,1.029-1.638a2,2,0,0,1,1.812,1.633c.222.917-.175,1.637-1.029,1.638A1.991,1.991,0,0,1,634.319,1859.749Zm2.119,0c-.139-.574-.527-1.007-.947-1.007s-.593.422-.45,1.009.522,1.007.947,1.006S636.579,1860.328,636.438,1859.746Z" fill="#f17925"/>
      <path id="Trazado_194486" data-name="Trazado 194486" d="M638.893,1858.842l-.525.136-.284-.569.852-.272h.48l.771,3.185h-.694Z" fill="#f17925"/>
      <path id="Trazado_194487" data-name="Trazado 194487" d="M638.029,1902.908l-.525.137-.284-.569.853-.273h.48l.771,3.185h-.695Z" fill="#789fd4"/>
      <path id="Trazado_194488" data-name="Trazado 194488" d="M640.521,1903.8c-.222-.917.18-1.636,1.029-1.638a2,2,0,0,1,1.812,1.633c.222.917-.175,1.637-1.029,1.638A1.99,1.99,0,0,1,640.521,1903.8Zm2.119,0c-.139-.574-.527-1.007-.947-1.007s-.593.422-.45,1.009.522,1.007.947,1.006S642.781,1904.382,642.64,1903.8Z" fill="#789fd4"/>
      <path id="Trazado_194489" data-name="Trazado 194489" d="M644.769,1903.8c-.222-.917.179-1.636,1.029-1.638a2,2,0,0,1,1.811,1.633c.223.917-.174,1.637-1.029,1.638A1.99,1.99,0,0,1,644.769,1903.8Zm2.119,0c-.139-.573-.527-1.006-.947-1.006s-.593.421-.451,1.009.523,1.007.948,1.006S647.029,1904.375,646.888,1903.792Z" fill="#789fd4"/>
      <path id="Trazado_194490" data-name="Trazado 194490" d="M633.856,1908.092l-.525.137-.284-.569.853-.273h.479l.771,3.185h-.694Z" fill="#789fd4"/>
      <path id="Trazado_194491" data-name="Trazado 194491" d="M636.348,1908.987c-.222-.917.179-1.636,1.029-1.638a2,2,0,0,1,1.812,1.633c.222.917-.175,1.637-1.03,1.638A1.989,1.989,0,0,1,636.348,1908.987Zm2.119,0c-.139-.574-.527-1.007-.947-1.007s-.593.422-.451,1.009.523,1.007.948,1.006S638.608,1909.566,638.467,1908.984Z" fill="#789fd4"/>
      <path id="Trazado_194492" data-name="Trazado 194492" d="M640.595,1908.98c-.222-.917.18-1.636,1.029-1.638a2,2,0,0,1,1.812,1.633c.222.917-.175,1.637-1.029,1.638A1.992,1.992,0,0,1,640.595,1908.98Zm2.12,0c-.139-.573-.527-1.006-.948-1.006s-.592.422-.45,1.009.523,1.007.947,1.006S642.856,1909.559,642.715,1908.976Z" fill="#789fd4"/>
      <path id="Trazado_194493" data-name="Trazado 194493" d="M649.016,1903.789c-.222-.917.18-1.636,1.029-1.638a2,2,0,0,1,1.812,1.633c.222.917-.175,1.636-1.029,1.638A1.992,1.992,0,0,1,649.016,1903.789Zm2.119,0c-.138-.573-.527-1.007-.947-1.006s-.592.421-.45,1.009.522,1.007.947,1.006S651.277,1904.368,651.135,1903.785Z" fill="#789fd4"/>
      <path id="Trazado_194494" data-name="Trazado 194494" d="M653.59,1902.882l-.525.136-.284-.569.853-.272h.479l.772,3.185h-.7Z" fill="#789fd4"/>
      <g id="Grupo_135165" data-name="Grupo 135165">
        <g id="Grupo_135162" data-name="Grupo 135162">
          <path id="Trazado_194495" data-name="Trazado 194495" d="M710.867,1867.015a8.723,8.723,0,0,1,7.575,3.509c2.369,3.234.729,7.047,6.652,9.985s5.073,6.645,3.888,11.292-6.152,10.267-12.075,9.993-16.053-12.469-15.688-16.558,2.124-4.579.729-7.282C699.761,1873.718,703.816,1867.683,710.867,1867.015Z" fill="#0a2a4e"/>
          <path id="Trazado_194496" data-name="Trazado 194496" d="M713.177,1886.411a.324.324,0,0,0,.043-.068c-.656-.235-.713-1.192-.1-5.181l-.314.015-5.288.253s-.124,1.634-.347,3.157c-.044.3-.093.6-.145.883C703.041,1889.432,711.607,1891.224,713.177,1886.411Z" fill="#f59763"/>
          <path id="Trazado_194497" data-name="Trazado 194497" d="M702.369,1993.706h11.425a6.274,6.274,0,0,0-.323-3.063c-.572-1.267-1.461-2.05-1.543-3.021a3.429,3.429,0,0,1-3.271,1.006,12.5,12.5,0,0,1-1.982,2.57C705.929,1991.734,702.6,1991.543,702.369,1993.706Z" fill="#003167"/>
          <path id="Trazado_194498" data-name="Trazado 194498" d="M715.779,1947.006c-1.064,2.626-1.883,5.013-1.626,7.118l0,.011a5.67,5.67,0,0,0,.128.688c3.749,14.99-1.566,34.51-1.566,34.51a22.113,22.113,0,0,1-2.42.415c-1.8.16-2.063-.375-2.063-.375s-1.788-15.919-7.577-46.348a84.6,84.6,0,0,1-1.465-10.733c-.091-1.17-.179-2.471-.275-4-.263-4.1.359-11,3.437-12.816,1.4-.827,3.306-.6,5.869,1.418.2.16.393.35.619.512C724.584,1928.74,719.032,1938.992,715.779,1947.006Z" fill="#004390"/>
          <path id="Trazado_194499" data-name="Trazado 194499" d="M714.153,1954.124c-.177-.617-5.839-20.4-5.934-21.9-.206-3.231,7.277,5.692,7.56,14.783C714.715,1949.632,713.9,1952.019,714.153,1954.124Z" fill="#0e2b53"/>
          <path id="Trazado_194500" data-name="Trazado 194500" d="M754.213,1969.662l-4.755-10.388a6.278,6.278,0,0,0-2.65,1.568c-.914,1.048-1.576.862-3.66-.584a11.461,11.461,0,0,1,1.376,3.519c.382.047,2.561,2.155,4.792,2.736C750.206,1966.744,752.151,1970.353,754.213,1969.662Z" fill="#003167"/>
          <path id="Trazado_194501" data-name="Trazado 194501" d="M704.361,1920.038s10.237,35.588,13.988,37.879,22.3,6.847,27.774,7.941a10.565,10.565,0,0,0-.091-2.977,13.068,13.068,0,0,0-.629-1.528s-9.738-9.742-19.255-11.107c-1.993-.286.8-31.405-12.718-32.625C701.081,1916.506,704.361,1920.038,704.361,1920.038Z" fill="#004390"/>
          <path id="Trazado_194502" data-name="Trazado 194502" d="M689.186,1864.032s.229-1.141.487-2.011c.113-.385-.681-2.915-1.231-3.227s-1.982,1.393-1.576,2.7c.208.672.55,2.859.55,2.859Z" fill="#f59763"/>
          <path id="Trazado_194503" data-name="Trazado 194503" d="M736.456,1866.148c.07.144.168.4.254.645,0-.066,0-.131,0-.2.005-.483,1.811-3.116,2.553-3.28s1.791,2.3.863,3.664c-.476.7-1.915,3.2-1.915,3.2l-1.593-.962a2.225,2.225,0,0,0-.44-1.215,8.565,8.565,0,0,1-.3-2.129S736.2,1865.614,736.456,1866.148Z" fill="#f59763"/>
          <path id="Trazado_194504" data-name="Trazado 194504" d="M707.513,1881.43s-.124,1.634-.347,3.157c2.886.347,4.8-2.049,5.635-3.41Z" fill="#f07c3f"/>
          <path id="Trazado_194505" data-name="Trazado 194505" d="M713.792,1880.509a16.6,16.6,0,0,0,2.743-4.494c.515-1.537.582-7.508-5.424-7.54a8.071,8.071,0,0,0-3.5.76c-1.4.672-3.524,2.259-2.223,7.672l.278,1.8Z" fill="#0a2a4e"/>
          <path id="Trazado_194506" data-name="Trazado 194506" d="M706.1,1882.718s7.37,1.22,8.06-3.381,2.105-7.543-2.571-8.517-5.857.644-6.46,2.124S704.205,1882.281,706.1,1882.718Z" fill="#f59763"/>
          <path id="Trazado_194507" data-name="Trazado 194507" d="M707.506,1870.176s1.959,5.731,4.945,6.991,4.456.629,4.456.629a8.889,8.889,0,0,1-2.1-5.622S709.415,1867.834,707.506,1870.176Z" fill="#0a2a4e"/>
          <path id="Trazado_194508" data-name="Trazado 194508" d="M708.682,1870.72a5.541,5.541,0,0,0-2.565,1.815,9.383,9.383,0,0,0-1.426,3.6s-.979-3.9,1.043-5.718C707.878,1868.487,708.682,1870.72,708.682,1870.72Z" fill="#0a2a4e"/>
          <path id="Trazado_194509" data-name="Trazado 194509" d="M738.509,1870.2s-1.618,13.219-5.032,16.379c-2.369,2.193-10.753,5.731-12.757,8.991a10.633,10.633,0,0,0-.761,3.13,55.178,55.178,0,0,0,2.276,23.547c.145.435.3.87.456,1.306a2.209,2.209,0,0,1-1.312,2.86,37.661,37.661,0,0,1-6.174,1.614c-.485.085-.987.16-1.5.224-7.032.894-11.791-.756-14.209-1.977a3.219,3.219,0,0,1-1.762-3.053c.145-2.609,1.451-5.19,2.039-11.462.446-4.758-2.8-11.469-2.628-14,.069-1,.564-5.447.06-6.135-3.345-4.593-8.97-8.993-9.834-13.188-1-4.835-.352-14.486-.352-14.486a5.525,5.525,0,0,1,1.56-.393,2.305,2.305,0,0,1,1.617.872s2.51,9.4,2.636,10.032c.667,3.372,7.08,8.257,9.022,9.237a15.241,15.241,0,0,0,5.165,1.776s-1.581,2.732.759,3.111c2.816.457,4.991-2.781,4.991-2.781a12.606,12.606,0,0,0,4.791.027c2.556-.375,11.653-3.451,12.967-5.785.957-1.7,6.008-11.111,6.008-11.111a1.319,1.319,0,0,1,1.223.12A1.38,1.38,0,0,1,738.509,1870.2Z" fill="#98b3df"/>
          <path id="Trazado_194510" data-name="Trazado 194510" d="M708.245,1880.219s-.315.636-.739.648a5.017,5.017,0,0,1-1.575-.2,6.157,6.157,0,0,1-.252-.774A7.172,7.172,0,0,1,708.245,1880.219Z" fill="#fff"/>
          <path id="Trazado_194511" data-name="Trazado 194511" d="M722.235,1922.245s-6.326-1.085-6.746-5.588c-.448-4.8,4.466-17.969,4.466-17.969l0,.01A55.178,55.178,0,0,0,722.235,1922.245Z" fill="#789fd4"/>
        </g>
        <g id="Grupo_135164" data-name="Grupo 135164">
          <path id="Trazado_194512" data-name="Trazado 194512" d="M706.817,1811.45l-.659-2.418a6.593,6.593,0,0,0-5.587-4.812l-17.193-2.031-1.289,10.91-5.5,46.576,71.123,8.4,5.5-46.576-40.248-4.754A7.255,7.255,0,0,1,706.817,1811.45Z" fill="#f17925"/>
          <g id="Grupo_135163" data-name="Grupo 135163">
            <path id="Trazado_194513" data-name="Trazado 194513" d="M689.977,1838.414l.489-4.144,15.286-4.65-.5,4.234-10.643,2.976,9.657,5.373-.507,4.294Z" fill="#fff"/>
            <path id="Trazado_194514" data-name="Trazado 194514" d="M721.442,1826.45l3.873.457-16.587,26.236-3.874-.458Z" fill="#fff"/>
            <path id="Trazado_194515" data-name="Trazado 194515" d="M740.134,1840.136l-.49,4.144-15.286,4.65.5-4.234,10.643-2.975-9.657-5.373.507-4.3Z" fill="#fff"/>
          </g>
        </g>
        <path id="Trazado_194516" data-name="Trazado 194516" d="M736.057,1867.646a13.533,13.533,0,0,0-.392-2.173c-.183-.342.273-.441.66.342s1.162.546,1.55,1.321.045.98-.433.934A6.784,6.784,0,0,1,736.057,1867.646Z" fill="#f59763"/>
        <path id="Trazado_194517" data-name="Trazado 194517" d="M689.314,1863.437s1.043-1.127,1.038-1.632.729-1.754.524-1.982-.569.137-.763.479-.992.32-1.174,1.253A3.083,3.083,0,0,0,689.314,1863.437Z" fill="#f59763"/>
      </g>
      <g id="Grupo_135169" data-name="Grupo 135169">
        <g id="Grupo_135168" data-name="Grupo 135168">
          <g id="Grupo_135167" data-name="Grupo 135167">
            <g id="Grupo_135166" data-name="Grupo 135166">
              <path id="Trazado_194518" data-name="Trazado 194518" d="M524.189,1857.647l27.008,11.83v-10.526l-14.071-5.787,14.071-5.787V1836.95l-27.008,11.83Z" fill="#172c55"/>
              <path id="Trazado_194519" data-name="Trazado 194519" d="M576.026,1829.66l-23.337,48.781h9.864l23.337-48.781Z" fill="#172c55"/>
            </g>
            <path id="Trazado_194520" data-name="Trazado 194520" d="M587.7,1836.95v10.526l14.071,5.787-14.071,5.787v10.427l27.008-11.83v-8.867Z" fill="#172c55"/>
          </g>
        </g>
        <rect id="Rectángulo_294801" data-name="Rectángulo 294801" width="9.864" height="2.786" transform="translate(552.69 1875.656)" fill="#172c55"/>
        <rect id="Rectángulo_294802" data-name="Rectángulo 294802" width="4.608" height="2.785" transform="translate(581.282 1826.875)" fill="#172c55"/>
      </g>
      <g id="Grupo_135172" data-name="Grupo 135172">
        <g id="Grupo_135171" data-name="Grupo 135171">
          <g id="Grupo_135170" data-name="Grupo 135170">
            <path id="Trazado_194521" data-name="Trazado 194521" d="M524.189,1854.861l27.008,11.83v-10.526l-14.071-5.787,14.071-5.787v-10.427l-27.008,11.83Z" fill="#003880"/>
            <path id="Trazado_194522" data-name="Trazado 194522" d="M576.026,1826.875l-23.337,48.781h9.864l23.337-48.781Z" fill="#003880"/>
          </g>
          <path id="Trazado_194523" data-name="Trazado 194523" d="M587.7,1834.164v10.526l14.071,5.787-14.071,5.787v10.427l27.008-11.83v-8.867Z" fill="#003880"/>
        </g>
      </g>
      <path id="Trazado_194524" data-name="Trazado 194524" d="M675.654,1932.481h-1.645l-13.462-51.368-17.305-66.034H449.978l29.275,117.4-2.09.022-29.628-119.017,197.067-.171.173.657,17.3,66.389Z" fill="#789fd4"/>
      <path id="Trazado_194525" data-name="Trazado 194525" d="M675.953,1933.627l-1.587.213-13.818-52.727,1.527-.753Z" fill="#98b3df"/>
      <path id="Trazado_194526" data-name="Trazado 194526" d="M477.6,1842.737a1.28,1.28,0,0,0-.228,1.37l0,.007a8.52,8.52,0,0,0,2.689,2.949c.162.131.307.25.432.36.033.029.066.058.1.087s.05.046.075.067c1.181,1.09.737,1.339,2.86,3.55,2.421,2.52,4.088,2.565,4.563,2.336.4-.2-.414-1.532-1.317-3.034-.044-.072-.087-.146-.132-.219-.12-.2-.24-.4-.359-.6-1.059-1.807-.787-2.655-.536-5.345.2-2.186,3.4-12.212,3.4-12.212l-4.64-.8s-1.4,7.983-2.937,9.213c-.823.655-1.744.663-2.536,1.149-.056.034-.11.069-.164.1A6.1,6.1,0,0,0,477.6,1842.737Z" fill="#f59763"/>
      <path id="Trazado_194527" data-name="Trazado 194527" d="M477.6,1842.737a1.28,1.28,0,0,0-.228,1.37l0,.007a9.883,9.883,0,0,0,2.694,2.94c.16.133.3.255.427.369.033.029.066.058.1.087s.05.046.075.067c1.181,1.09.737,1.339,2.86,3.55,2.421,2.52,4.088,2.565,4.563,2.336.4-.2-.414-1.532-1.317-3.034a10.323,10.323,0,0,1-4.317-3.18c-1.458-1.861-2.43-4.251-3.423-5.636-.056.034-.11.069-.164.1A6.1,6.1,0,0,0,477.6,1842.737Z" fill="#0e2b53"/>
      <path id="Trazado_194528" data-name="Trazado 194528" d="M515.01,1839.839c.286,1.433,2.328,1.194,4.609.636s1.739.106,4.985-.254,4.23-1.57,4.329-2.052c.088-.428-1.516-.58-3.236-.778-.217-.024-.434-.051-.651-.078-1.943-.243-3.365-1.5-5.13-2.526-1.671-.975-4.165-4.948-4.165-4.948l-4.452.353s2.336,3.548,3.24,5.091a5.385,5.385,0,0,1,.437,3.034A5.666,5.666,0,0,0,515.01,1839.839Z" fill="#f59763"/>
      <path id="Trazado_194529" data-name="Trazado 194529" d="M519.619,1840.475c2.281-.557,1.739.106,4.985-.254s4.23-1.57,4.329-2.052c.088-.428-1.516-.58-3.236-.778l-.016.033a9.144,9.144,0,0,1-4.649,1.445c-2.2.054-4.535-.577-6.056-.552a5.666,5.666,0,0,0,.034,1.522C515.3,1841.272,517.338,1841.033,519.619,1840.475Z" fill="#0e2b53"/>
      <path id="Trazado_194530" data-name="Trazado 194530" d="M497.949,1811.372l-4.162,11.2-5.433,14.623a8.811,8.811,0,0,1-2.887-.264,12.535,12.535,0,0,1-2.792-1.359s1.509-15.7,4.324-24.713a16.059,16.059,0,0,1,2.421-5.238C493.783,1800.464,497.949,1811.372,497.949,1811.372Z" fill="#172c55"/>
      <path id="Trazado_194531" data-name="Trazado 194531" d="M493.717,1793.587c-2.726-.879-10.5.25-18.314,1.779l-1.636-2.7-16.873-1.317s-5.568,12.347-2.52,20.214a2.854,2.854,0,0,0,2.856,1.923h.246s10.043-.006,13.3-.006c8.391,0,17.759-5.768,18.97-6.011,1.984-.4,2.777,3.571,4.761,7.736s18.644,18.446,18.644,18.446a14.649,14.649,0,0,0,3.619-.371,3.574,3.574,0,0,0,1.554-.981S499.866,1795.571,493.717,1793.587Z" fill="#004390"/>
      <path id="Trazado_194532" data-name="Trazado 194532" d="M468.176,1741.3a17.82,17.82,0,0,0-6.137.05c-6.42.633-8.577,7.795-7.605,13.351.9,5.128-1.7,6.546-4.719,10.6-6.044,8.122-2.093,14.969,2.676,16.734,2.861,1.059,6.834-1.613,6.834-1.613.072.029,12.483-8.131,17.571-12.731C485.268,1764.375,474.2,1742.852,468.176,1741.3Z" fill="#003880"/>
      <path id="Trazado_194533" data-name="Trazado 194533" d="M469.125,1764.791c.168.594-2.64,1.686-4.784,1.285-2.016-.376-4.277-2.738-3.811-2.959.772-.367,1.291-1.279.869-6.21l.384.043,6.452.737s.02,2.01.17,3.893A12.721,12.721,0,0,0,469.125,1764.791Z" fill="#f59763"/>
      <path id="Trazado_194534" data-name="Trazado 194534" d="M468.235,1757.687s.02,2.01.17,3.893c-3.561.191-5.7-2.9-6.622-4.63Z" fill="#f07c3f"/>
      <path id="Trazado_194535" data-name="Trazado 194535" d="M469.568,1759.372s-8.395.828-8.83-4.408-1.812-8.655,3.53-9.405,6.55,1.161,7.121,2.873S471.741,1759.022,469.568,1759.372Z" fill="#f59763"/>
      <path id="Trazado_194536" data-name="Trazado 194536" d="M468.669,1744.732s-1.057,6.4-5.839,7.914c-3.488,1.108-5.067.378-5.067.378a14.216,14.216,0,0,0,2.275-5.322,2.56,2.56,0,0,1,1.708-1.954C464.224,1744.933,467.228,1742.7,468.669,1744.732Z" fill="#003880"/>
      <path id="Trazado_194537" data-name="Trazado 194537" d="M467.087,1746.1a5.552,5.552,0,0,1,2.984,2.393,10.721,10.721,0,0,1,1.5,5.174s1.469-5.921-.673-8.123C468.628,1743.206,467.087,1746.1,467.087,1746.1Z" fill="#003880"/>
      <path id="Trazado_194538" data-name="Trazado 194538" d="M454.008,1781.991c.149.636.278,1.221.382,1.761.171.87.288,1.621.371,2.284.257,2.065.179,3.288.353,4.626a11.5,11.5,0,0,0,.628,2.52c.347.959,9.47,1.813,14.66,1.469a7.116,7.116,0,0,0,3.35-.724c1.851-1.608,1.667,1.929,1.921-14.995.122-8.254-7.005-15.606-7.005-15.606s-.569,3.527-7.637-.67c-.251-.147-3.035,3.975-5.714,9.05C452.365,1777.314,453.174,1778.5,454.008,1781.991Z" fill="#f17925"/>
      <path id="Trazado_194539" data-name="Trazado 194539" d="M493.787,1822.571l-5.433,14.623a8.811,8.811,0,0,1-2.887-.264,12.535,12.535,0,0,1-2.792-1.359s1.509-15.7,4.324-24.713Z" fill="#003880"/>
      <path id="Trazado_194540" data-name="Trazado 194540" d="M468.669,1763.325s7.273,1.233,8.127,4.364,6.754,20.645,6.754,20.645-4.572,1.56-6.28-.148-5.943-15.847-5.943-15.847Z" fill="#f17925"/>
      <path id="Trazado_194541" data-name="Trazado 194541" d="M498.317,1784.309l1.723-.683a4.109,4.109,0,0,1,1.6-.054c.56.176,1.96.158,1.967.387s-1.6.944-1.6.944l-.05-.019c.609,1.379,3.655,2.167,3.8,2.673.178.613-1.239.931-2.011,1.122a4.263,4.263,0,0,1-3.6-.811c-.681-.719-1.834-1.707-1.834-1.707Z" fill="#f59763"/>
      <path id="Trazado_194542" data-name="Trazado 194542" d="M467.631,1756.284a1.442,1.442,0,0,0,1.281.861c.93,0,1.181-.139,1.357-.336a2.864,2.864,0,0,0,.35-.576A7.893,7.893,0,0,0,467.631,1756.284Z" fill="#fff"/>
      <path id="Trazado_194543" data-name="Trazado 194543" d="M481.523,1782.282l17.607,1.344a5.492,5.492,0,0,1-.767,3.644s-15.885,3.1-20.03,1.519-3.678-9.066-3.678-9.066Z" fill="#f17925"/>
      <path id="Trazado_194544" data-name="Trazado 194544" d="M454.761,1786.036c.257,2.065.179,3.288.353,4.626,6.6.022,15.432-5.1,15.432-5.1Z" fill="#ea5e00"/>
      <path id="Trazado_194545" data-name="Trazado 194545" d="M470.546,1781.232s-10.287-.307-12.021-6.154c-1.9-6.424-4.039,2.642-4.039,2.642l1.135,5.786h11.287Z" fill="#ea5e00"/>
      <g id="Grupo_135174" data-name="Grupo 135174">
        <path id="Trazado_194546" data-name="Trazado 194546" d="M488.48,1765.365l-.556-1.377a3.9,3.9,0,0,0-3.62-2.442H474.048v34.289h42.423v-27.782H492.465A4.3,4.3,0,0,1,488.48,1765.365Z" fill="#98b3df"/>
        <g id="Grupo_135173" data-name="Grupo 135173">
          <path id="Trazado_194547" data-name="Trazado 194547" d="M480.447,1782.4v-2.472l8.669-3.8v2.526l-6.054,2.489,6.054,2.49v2.561Z" fill="#fff"/>
          <path id="Trazado_194548" data-name="Trazado 194548" d="M498.126,1773.173h2.31l-7.935,16.586h-2.31Z" fill="#fff"/>
          <path id="Trazado_194549" data-name="Trazado 194549" d="M510.072,1779.925v2.472l-8.669,3.8v-2.525l6.054-2.49-6.054-2.49v-2.561Z" fill="#fff"/>
        </g>
      </g>
      <path id="Trazado_194550" data-name="Trazado 194550" d="M470.545,1782.587l.744-1.168a6.01,6.01,0,0,0,1.416-.772c.982-.69.852-1.724,1.343-1.614l.006,2.271-.053.008c2.108.563,4.574-.049,4.623.476.136,1.444-.981,2.094-1.917,2.546a3.39,3.39,0,0,1-2.824.463c-.945-.294-2.434-.594-2.434-.594Z" fill="#f59763"/>
      <path id="Trazado_194551" data-name="Trazado 194551" d="M461.03,1762.657s-6.678.437-8.347,3.042-3.74,15.827-2.872,20.369,22.253-.869,22.253-.869l-.682-3.94s-12.342.072-13.045-1.536C457.4,1777.586,461.03,1762.657,461.03,1762.657Z" fill="#f17925"/>
      <path id="Trazado_194552" data-name="Trazado 194552" d="M493.266,1768.038a2.484,2.484,0,0,0,2.52,1.619c.946-.19,2.175-2.225,1.1-2.674A3.072,3.072,0,0,0,493.266,1768.038Z" fill="#f59763"/>
    </g>
  </g>
</svg>
