<svg xmlns="http://www.w3.org/2000/svg" width="400" height="345" viewBox="0 0 400 345">
  <g id="Grupo_140230" data-name="Grupo 140230" transform="translate(5544 4800.784)">
    <rect id="Rectángulo_294795" data-name="Rectángulo 294795" width="400" height="345" rx="15" transform="translate(-5544 -4800.784)" fill="#41b8df" opacity="0.55"/>
    <g id="Grupo_136948" data-name="Grupo 136948" transform="translate(-5903.416 -7208.81)">
      <path id="Trazado_194869" data-name="Trazado 194869" d="M519.178,2510.573l7.2-.811a1.6,1.6,0,0,1,1.511.723q.626.97,1.34,1.9a26.92,26.92,0,0,0,2.851,3.183,1.583,1.583,0,0,1,.39,1.743l-2.761,7.051a1.556,1.556,0,0,0,.767,1.972l6.2,3.073a1.538,1.538,0,0,0,1.972-.547l3.751-5.877a1.544,1.544,0,0,1,1.729-.669,28,28,0,0,0,8.782.875,1.592,1.592,0,0,1,1.6,1.106l1.272,4.047a1.611,1.611,0,0,0,1.83,1.087l6.737-1.363a1.428,1.428,0,0,0,.389-.129,1.548,1.548,0,0,0,.862-1.578l-.6-5.379-.149-1.311a27.7,27.7,0,0,0,3.267-2.157,28.067,28.067,0,0,0,3.833-3.55,1.545,1.545,0,0,1,1.724-.415l5.677,2.23a1.6,1.6,0,0,0,2.02-.782l2.35-4.743.67-1.361a1.62,1.62,0,0,0-.577-2.088l-4.909-3.139a1.541,1.541,0,0,1-.692-1.681,27.761,27.761,0,0,0,.748-5.9,4.662,4.662,0,0,0,.015-.5.94.94,0,0,1,.011-.168,1.582,1.582,0,0,1,1.114-1.353l6.566-2.078a1.127,1.127,0,0,0,.214-.085,1.606,1.606,0,0,0,.867-1.74l-1.348-6.718a1.6,1.6,0,0,0-1.744-1.273l-7.509.849a1.546,1.546,0,0,1-1.551-.813,28.136,28.136,0,0,0-2.351-3.6q-.707-.921-1.476-1.767a1.63,1.63,0,0,1-.307-1.687l2.651-6.777a1.554,1.554,0,0,0-.756-1.961l-6.142-3.03a1.625,1.625,0,0,0-2.1.581l-2.969,4.65a1.6,1.6,0,0,1-1.857.657,27.915,27.915,0,0,0-8.471-1.521,1.587,1.587,0,0,1-1.494-1.116l-1.87-5.918a1.64,1.64,0,0,0-1.878-1.11l-6.694,1.34a1.568,1.568,0,0,0-1.253,1.718l.032.314.7,6.249a1.6,1.6,0,0,1-.867,1.611l-.006.005a27.785,27.785,0,0,0-4.153,2.639c-.709.544-1.376,1.115-2.024,1.712a1.573,1.573,0,0,1-1.655.324l-5.763-2.265a1.628,1.628,0,0,0-2.055.79l-3.021,6.114a1.769,1.769,0,0,0-.156.538,1.62,1.62,0,0,0,.725,1.516l3.929,2.5a1.62,1.62,0,0,1,.733,1.411,1.709,1.709,0,0,1-.081.44,27.821,27.821,0,0,0-1.414,10.91,1.566,1.566,0,0,1-.84,1.5,1.651,1.651,0,0,1-.251.1l-5.318,1.679a1.592,1.592,0,0,0-1.08,1.825l.03.157,1.308,6.549A1.623,1.623,0,0,0,519.178,2510.573Zm46.061-20.445a18.571,18.571,0,0,1,.978,3.325,14.639,14.639,0,0,1-1.041,7.9c-.108.223-.221.439-.334.655-7.045,13.078-25.512,10.477-28.553-4.279a15.164,15.164,0,0,1,.542-6.891,9.686,9.686,0,0,1,.551-1.36,17.184,17.184,0,0,1,3.436-4.729A15.007,15.007,0,0,1,565.239,2490.128Z" fill="#d5e6f8"/>
      <path id="Trazado_194870" data-name="Trazado 194870" d="M710.508,2511.753v181.932c0,3.183-2.3,5.764-5.131,5.764H442.889c-2.833,0-5.131-2.581-5.131-5.764V2511.753c0-3.185,2.3-5.765,5.131-5.765H705.377C708.21,2505.988,710.508,2508.568,710.508,2511.753Z" fill="#98b3df"/>
      <g id="Grupo_136901" data-name="Grupo 136901">
        <path id="Trazado_194871" data-name="Trazado 194871" d="M697.532,2501.367v14.753H404.6v-14.753a5.511,5.511,0,0,1,5.511-5.511H692.022A5.51,5.51,0,0,1,697.532,2501.367Z" fill="#f17925"/>
        <g id="Grupo_136900" data-name="Grupo 136900">
          <path id="Trazado_194872" data-name="Trazado 194872" d="M413.557,2505.988a2.565,2.565,0,1,1,2.565,2.566A2.566,2.566,0,0,1,413.557,2505.988Z" fill="#d5e6f8"/>
          <path id="Trazado_194873" data-name="Trazado 194873" d="M423.666,2505.988a2.565,2.565,0,1,1,2.565,2.566A2.565,2.565,0,0,1,423.666,2505.988Z" fill="#d5e6f8"/>
          <path id="Trazado_194874" data-name="Trazado 194874" d="M434.029,2505.988a2.566,2.566,0,1,1,2.566,2.566A2.566,2.566,0,0,1,434.029,2505.988Z" fill="#d5e6f8"/>
        </g>
      </g>
      <path id="Trazado_194875" data-name="Trazado 194875" d="M594.374,2479.964l3.506-.4a.781.781,0,0,1,.736.353q.3.472.652.926a13.181,13.181,0,0,0,1.389,1.55.772.772,0,0,1,.19.849l-1.345,3.434a.758.758,0,0,0,.374.96l3.021,1.5a.749.749,0,0,0,.96-.267l1.827-2.862a.753.753,0,0,1,.842-.326,13.6,13.6,0,0,0,4.277.426.777.777,0,0,1,.777.539l.619,1.971a.785.785,0,0,0,.892.529l3.281-.663a.726.726,0,0,0,.189-.063.754.754,0,0,0,.42-.769l-.292-2.619-.073-.639a13.485,13.485,0,0,0,1.591-1.05,13.7,13.7,0,0,0,1.867-1.729.75.75,0,0,1,.84-.2l2.764,1.086a.779.779,0,0,0,.984-.381l1.144-2.31.327-.663a.79.79,0,0,0-.281-1.017l-2.391-1.528a.753.753,0,0,1-.337-.819,13.529,13.529,0,0,0,.365-2.871c.008-.084.007-.161.007-.243a.452.452,0,0,1,.005-.082.771.771,0,0,1,.543-.659l3.2-1.012a.615.615,0,0,0,.1-.041.784.784,0,0,0,.422-.848l-.657-3.272a.779.779,0,0,0-.849-.62l-3.657.414a.752.752,0,0,1-.755-.4,13.812,13.812,0,0,0-1.145-1.752q-.345-.448-.719-.86a.794.794,0,0,1-.15-.822l1.292-3.3a.757.757,0,0,0-.369-.954l-2.991-1.476a.791.791,0,0,0-1.02.283l-1.446,2.264a.778.778,0,0,1-.9.321,13.563,13.563,0,0,0-4.126-.741.772.772,0,0,1-.727-.544l-.911-2.882a.8.8,0,0,0-.915-.541l-3.26.653a.764.764,0,0,0-.61.837l.016.153.34,3.043a.78.78,0,0,1-.422.785l0,0a13.524,13.524,0,0,0-2.023,1.285c-.345.265-.67.543-.985.834a.768.768,0,0,1-.806.158l-2.807-1.1a.792.792,0,0,0-1,.384l-1.472,2.978a.877.877,0,0,0-.076.262.789.789,0,0,0,.354.738l1.913,1.216a.788.788,0,0,1,.357.687.846.846,0,0,1-.039.214,13.551,13.551,0,0,0-.689,5.313.764.764,0,0,1-.41.732.78.78,0,0,1-.121.05l-2.59.817a.776.776,0,0,0-.527.889l.015.076.637,3.19A.791.791,0,0,0,594.374,2479.964Zm22.432-9.957a9.159,9.159,0,0,1,.476,1.62,7.131,7.131,0,0,1-.507,3.849c-.053.108-.108.213-.163.319a7.361,7.361,0,0,1-13.641-5.44,4.664,4.664,0,0,1,.268-.662,8.4,8.4,0,0,1,1.673-2.3A7.31,7.31,0,0,1,616.806,2470.007Z" fill="#d5e6f8"/>
      <g id="Grupo_136905" data-name="Grupo 136905">
        <path id="Trazado_194876" data-name="Trazado 194876" d="M431.967,2644.572s.39-4.258-4.367-4.258a5.583,5.583,0,0,1,2.187,1.173,5.624,5.624,0,0,0-6.335.956c-3.3,2.737-1.251,9.6-2.255,10.9s-4.914,1.564-4.436,5.778,12.409,9.492,11.643,12.979c0,0,4.676-6.873,1.333-10.01a6.2,6.2,0,0,1,1.8,3.359s.443-3.562-1.824-4.7c-2.007-1.008-3.65-4.7-3.476-5.355S431.967,2644.572,431.967,2644.572Z" fill="#172c55"/>
        <path id="Trazado_194877" data-name="Trazado 194877" d="M427.284,2665.014s3.553,14.7,7.042,17.642c2.1,1.766,8.332,5.82,8.332,5.82l-2.593.942s-8.648-2.921-10.585-5.2-7.236-13.683-7.236-13.683Z" fill="#f59763"/>
        <path id="Trazado_194878" data-name="Trazado 194878" d="M393.882,2690.844c.031.056.065.114.1.173.778,1.351,2.562,4.663,4.527,8.288.929,1.719,1.9,3.51,2.826,5.194,1.59,2.907,3.038,5.5,3.882,6.864.859,1.391,1.491,2.368,1.747,2.759l0,0a.657.657,0,0,1,.083.4,21,21,0,0,0,.056,3.645,27.96,27.96,0,0,0,9.137,18.111l2.364.349s-3.346-12.4-4.331-19.4a13.365,13.365,0,0,1-.181-2.778,29.039,29.039,0,0,0-.764-7.584,169.947,169.947,0,0,0-4.834-17.554c-.11-.343-3.435-12.37-3.435-12.37-2.791,2.44-12.969,3.446-12.969,3.446S390.364,2684.587,393.882,2690.844Z" fill="#004390"/>
        <path id="Trazado_194879" data-name="Trazado 194879" d="M423.566,2739.625H413.7a5.419,5.419,0,0,1,.278-2.645c.494-1.095,1.2-1.129.09-2.846.627.646,2.643.913,4.069.721a12.086,12.086,0,0,0,1.711,2.6C420.492,2737.922,423.367,2737.757,423.566,2739.625Z" fill="#003567"/>
        <path id="Trazado_194880" data-name="Trazado 194880" d="M393.882,2690.844c.031.056.065.114.1.173.778,1.351,4.984,9.119,6.949,12.744a52.555,52.555,0,0,1-.694-18.735Z" fill="#0e2b53"/>
        <path id="Trazado_194881" data-name="Trazado 194881" d="M430.621,2643.973a39.583,39.583,0,0,0-5.925,2.9c-2.673,2.965-1.911,6.835-.381,6.872.981.024.791,1.655.791,1.655l10.929-4.623S434.719,2643.1,430.621,2643.973Z" fill="#172c55"/>
        <path id="Trazado_194882" data-name="Trazado 194882" d="M426.948,2662.806s1.664,3.322,1.456,6.019c0,0-2.006,3.165-7.207,3.967C421.2,2672.792,425.669,2662.8,426.948,2662.806Z" fill="#f17925"/>
        <path id="Trazado_194883" data-name="Trazado 194883" d="M401.575,2681.126l.033-1.846c-3.677.464-12.678-4.394-12.678-4.394s-3.847,2.559-4.373,9.865c-.257,3.567-1.883,18.649-2.063,23.153-.066,1.632-.088,2.8-.1,3.262v0a.638.638,0,0,1-.156.38,20.984,20.984,0,0,0-1.992,3.054c-5.611,10.439-2.677,24.623-2.677,24.623l1.3-.331s4.744-14.7,7.845-21.065a13.29,13.29,0,0,1,1.4-2.4,29.017,29.017,0,0,0,3.607-6.714C394.023,2703.242,401.575,2681.126,401.575,2681.126Z" fill="#004390"/>
        <path id="Trazado_194884" data-name="Trazado 194884" d="M385.421,2739.625h-9.868a5.425,5.425,0,0,1,.279-2.645c.494-1.095,1.268-1.592,1.082-2.917a3.553,3.553,0,0,0,3.076,1.177,10.823,10.823,0,0,0,1.712,2.219C382.347,2737.922,385.222,2737.757,385.421,2739.625Z" fill="#003567"/>
        <path id="Trazado_194885" data-name="Trazado 194885" d="M420.531,2674.911c-1.325.226.216,1.279-1.607,1.477-2.594.284-5.273.478-6.676,1.037a1.5,1.5,0,0,0-.961.779c-.608,1.829-4.461,4.972-4.461,4.972-17.182-.782-18.288-8.44-18.288-8.44,11.151-10.83,20.638-16.734,28.478-17.464a13.951,13.951,0,0,1,5.687.6c2.743,1.221,4.245,4.936,4.245,4.936S425.567,2674.052,420.531,2674.911Z" fill="#f17925"/>
        <path id="Trazado_194886" data-name="Trazado 194886" d="M418.924,2676.388c-2.594.284-5.273.478-6.676,1.037a27.36,27.36,0,0,1,3.47-15.015S418.356,2673.146,418.924,2676.388Z" fill="#ea5e00"/>
        <path id="Trazado_194887" data-name="Trazado 194887" d="M422.557,2658.577c.49,1.536,2.125,5.914,4.391,4.229a5.584,5.584,0,0,1,.961-2.242c.717-1.233,1.572-2.493,1.572-2.493l-3.693-3.235-.22-.194a9.408,9.408,0,0,1-2.748,3.119A.739.739,0,0,0,422.557,2658.577Z" fill="#f59763"/>
        <path id="Trazado_194888" data-name="Trazado 194888" d="M429.48,2658.072s-.853,1.258-1.571,2.492c-2.295-1.415-2.3-4.256-2.121-5.728Z" fill="#f17d41"/>
        <path id="Trazado_194889" data-name="Trazado 194889" d="M429.583,2659.694s-5.573-3.1-3.589-6.543,2.6-6.158,6.245-4.324,3.57,3.543,3.187,4.853S431.084,2660.412,429.583,2659.694Z" fill="#f59763"/>
        <path id="Trazado_194890" data-name="Trazado 194890" d="M436.367,2651.673c-.255-1.528-1.031-1.674-1.572-1.572a4.457,4.457,0,0,0-5.421-2.075,7.585,7.585,0,0,1-4.393,2.638s.647,1.2,3.312,1.948a4.547,4.547,0,0,0,2.628-.21,14.861,14.861,0,0,1-3.782,1.426c3.512.321,6.853-2.889,7.2-3.233a4.989,4.989,0,0,1,.277,2.3c-.232,1.035-1.15,2.909-.589,3.152C434.026,2656.048,436.75,2653.964,436.367,2651.673Z" fill="#172c55"/>
        <g id="Grupo_136904" data-name="Grupo 136904">
          <rect id="Rectángulo_294862" data-name="Rectángulo 294862" width="46.264" height="12.133" transform="matrix(0.899, 0.438, -0.438, 0.899, 450.31, 2695.855)" fill="#003880"/>
          <g id="Grupo_136902" data-name="Grupo 136902">
            <path id="Trazado_194891" data-name="Trazado 194891" d="M431.986,2709.042a13.751,13.751,0,0,1-7.442-9.461,3.125,3.125,0,0,1,6.1-1.341,7.568,7.568,0,1,0,5.252-8.876,3.124,3.124,0,0,1-1.77-5.993,13.817,13.817,0,1,1-2.144,25.671Z" fill="#003880"/>
          </g>
          <g id="Grupo_136903" data-name="Grupo 136903">
            <path id="Trazado_194892" data-name="Trazado 194892" d="M490.816,2737.723a13.817,13.817,0,1,1,18.9-17.5,3.124,3.124,0,0,1-5.811,2.3,7.567,7.567,0,1,0-3.758,9.6,3.124,3.124,0,1,1,2.7,5.634A13.75,13.75,0,0,1,490.816,2737.723Z" fill="#003880"/>
          </g>
          <rect id="Rectángulo_294863" data-name="Rectángulo 294863" width="3.813" height="26.914" rx="1.271" transform="translate(453.879 2706.131) rotate(-64.01)" fill="#0e2b53"/>
        </g>
        <path id="Trazado_194893" data-name="Trazado 194893" d="M426.392,2697.963a3.685,3.685,0,0,0,.559,1.575c.439.536,1.716,1.834,1.739,2.594,0,0-.065.337-.339.275s-1.224-1-1.712-.935a9.471,9.471,0,0,0,.518,1.951,5.352,5.352,0,0,1,.578,2.414c-.155.37-2.739-1.784-3.521-2.836s-.013-5.323-.013-5.323Z" fill="#f59763"/>
        <path id="Trazado_194894" data-name="Trazado 194894" d="M421.163,2660.96s-6.525-.357-7.684,3.74,2.175,20.447,2.894,22.135c1.308,3.072,7.677,11.841,7.677,11.841l2.342-.713s-4.247-13.4-5.2-14.722C419.709,2681.16,423.116,2662.742,421.163,2660.96Z" fill="#f59763"/>
        <path id="Trazado_194895" data-name="Trazado 194895" d="M412.192,2670.178c.017.1,6.175,1.133,10.026-.822,0,0,3.217-10.079-1.381-9.6s-7.32,1.93-7.436,4.131A42.374,42.374,0,0,1,412.192,2670.178Z" fill="#f17925"/>
        <path id="Trazado_194896" data-name="Trazado 194896" d="M439.453,2681.922a2.528,2.528,0,0,0-1.081.273c-.356.274-.756.751.041,1.148,1.2.6,3.587.332,3.494-.027C441.613,2682.185,441.181,2681.842,439.453,2681.922Z" fill="#f59763"/>
      </g>
      <g id="Grupo_136908" data-name="Grupo 136908">
        <path id="Trazado_194897" data-name="Trazado 194897" d="M473.831,2521.467a1.115,1.115,0,0,0-.2,1.194l0,.006a7.432,7.432,0,0,0,2.344,2.572c.142.114.267.217.377.313l.084.076.065.059c1.031.95.643,1.167,2.494,3.095,2.111,2.2,3.564,2.235,3.978,2.035.349-.17-.361-1.335-1.149-2.644-.038-.063-.075-.127-.114-.191-.1-.174-.209-.351-.314-.526-.922-1.575-.685-2.315-.467-4.66.178-1.9,2.965-10.646,2.965-10.646l-4.045-.7s-1.218,6.959-2.561,8.031c-.717.572-1.521.579-2.211,1l-.143.091A5.341,5.341,0,0,0,473.831,2521.467Z" fill="#f59763"/>
        <path id="Trazado_194898" data-name="Trazado 194898" d="M473.831,2521.467a1.115,1.115,0,0,0-.2,1.194l0,.006a8.606,8.606,0,0,0,2.348,2.564c.14.115.263.222.373.321l.084.076.065.059c1.031.95.643,1.167,2.494,3.095,2.111,2.2,3.564,2.235,3.978,2.035.349-.17-.361-1.335-1.149-2.644a9,9,0,0,1-3.762-2.773c-1.271-1.622-2.119-3.706-2.985-4.913l-.143.091A5.341,5.341,0,0,0,473.831,2521.467Z" fill="#0e2b53"/>
        <path id="Trazado_194899" data-name="Trazado 194899" d="M506.449,2518.941c.25,1.249,2.029,1.04,4.018.554s1.516.092,4.346-.221,3.687-1.369,3.774-1.79c.077-.373-1.321-.5-2.821-.677l-.568-.068c-1.693-.213-2.934-1.3-4.472-2.2-1.457-.85-3.631-4.313-3.631-4.313l-3.881.307s2.036,3.093,2.824,4.438a4.69,4.69,0,0,1,.381,2.645A4.965,4.965,0,0,0,506.449,2518.941Z" fill="#f59763"/>
        <path id="Trazado_194900" data-name="Trazado 194900" d="M510.467,2519.5c1.989-.486,1.516.092,4.346-.221s3.687-1.369,3.774-1.79c.077-.373-1.321-.5-2.821-.677l-.014.028a7.975,7.975,0,0,1-4.053,1.26c-1.92.047-3.954-.5-5.28-.482a4.965,4.965,0,0,0,.03,1.328C506.7,2520.19,508.478,2519.981,510.467,2519.5Z" fill="#0e2b53"/>
        <path id="Trazado_194901" data-name="Trazado 194901" d="M491.575,2494.124l-3.628,9.763-4.737,12.747a7.643,7.643,0,0,1-2.516-.23,10.887,10.887,0,0,1-2.434-1.184s1.315-13.688,3.769-21.545a13.985,13.985,0,0,1,2.111-4.566C487.944,2484.614,491.575,2494.124,491.575,2494.124Z" fill="#172c55"/>
        <path id="Trazado_194902" data-name="Trazado 194902" d="M487.886,2478.619c-2.377-.767-9.156.217-15.966,1.55l-1.426-2.351-14.71-1.149s-4.854,10.764-2.2,17.623a2.489,2.489,0,0,0,2.49,1.676h.215s8.755-.005,11.6-.005c7.315,0,15.481-5.029,16.538-5.24,1.729-.346,2.421,3.112,4.15,6.744s16.254,16.081,16.254,16.081a12.789,12.789,0,0,0,3.155-.324,3.109,3.109,0,0,0,1.354-.855S493.247,2480.348,487.886,2478.619Z" fill="#004390"/>
        <path id="Trazado_194903" data-name="Trazado 194903" d="M465.62,2433.037a15.511,15.511,0,0,0-5.35.044c-5.6.551-7.478,6.795-6.631,11.639.782,4.47-1.486,5.707-4.113,9.238-5.269,7.08-1.826,13.049,2.332,14.588,2.495.923,5.958-1.406,5.958-1.406.063.025,10.882-7.089,15.318-11.1C480.52,2453.151,470.872,2434.388,465.62,2433.037Z" fill="#003880"/>
        <path id="Trazado_194904" data-name="Trazado 194904" d="M466.447,2453.514c.147.518-2.3,1.471-4.171,1.121-1.758-.328-3.728-2.387-3.322-2.58.673-.32,1.126-1.115.758-5.414l.334.038,5.625.642s.017,1.752.148,3.394A11.08,11.08,0,0,0,466.447,2453.514Z" fill="#f59763"/>
        <path id="Trazado_194905" data-name="Trazado 194905" d="M465.671,2447.321s.017,1.752.148,3.394c-3.105.166-4.974-2.525-5.773-4.036Z" fill="#f07c3f"/>
        <path id="Trazado_194906" data-name="Trazado 194906" d="M466.833,2448.79s-7.319.722-7.7-3.843-1.579-7.545,3.078-8.2,5.71,1.012,6.207,2.5S468.727,2448.485,466.833,2448.79Z" fill="#f59763"/>
        <path id="Trazado_194907" data-name="Trazado 194907" d="M466.049,2436.027s-.922,5.577-5.09,6.9c-3.041.965-4.418.329-4.418.329a12.4,12.4,0,0,0,1.984-4.64,2.233,2.233,0,0,1,1.489-1.7C462.175,2436.2,464.793,2434.259,466.049,2436.027Z" fill="#003880"/>
        <path id="Trazado_194908" data-name="Trazado 194908" d="M464.67,2437.217a4.839,4.839,0,0,1,2.6,2.087,9.336,9.336,0,0,1,1.31,4.51s1.281-5.161-.587-7.081C466.014,2434.7,464.67,2437.217,464.67,2437.217Z" fill="#003880"/>
        <path id="Trazado_194909" data-name="Trazado 194909" d="M453.268,2468.509c.13.555.242,1.065.333,1.535.149.759.251,1.414.324,1.991.223,1.8.156,2.867.307,4.034a10.1,10.1,0,0,0,.547,2.2c.3.836,8.256,1.581,12.781,1.281a6.2,6.2,0,0,0,2.92-.631c1.615-1.4,1.454,1.681,1.675-13.072.107-7.2-6.106-13.6-6.106-13.6s-.5,3.074-6.659-.585c-.218-.128-2.645,3.465-4.981,7.89C451.836,2464.431,452.541,2465.466,453.268,2468.509Z" fill="#f17925"/>
        <path id="Trazado_194910" data-name="Trazado 194910" d="M487.947,2503.887l-4.737,12.747a7.643,7.643,0,0,1-2.516-.23,10.887,10.887,0,0,1-2.434-1.184s1.315-13.688,3.769-21.545Z" fill="#003880"/>
        <path id="Trazado_194911" data-name="Trazado 194911" d="M466.049,2452.236s6.34,1.075,7.085,3.8,5.888,18,5.888,18-3.985,1.36-5.474-.129-5.182-13.815-5.182-13.815Z" fill="#f17925"/>
        <path id="Trazado_194912" data-name="Trazado 194912" d="M465.144,2446.1a1.259,1.259,0,0,0,1.117.751c.811,0,1.03-.121,1.183-.293a2.52,2.52,0,0,0,.3-.5A6.892,6.892,0,0,0,465.144,2446.1Z" fill="#fff"/>
        <path id="Trazado_194913" data-name="Trazado 194913" d="M453.925,2472.035c.223,1.8.156,2.867.307,4.034,5.757.018,13.454-4.446,13.454-4.446Z" fill="#ea5e00"/>
        <path id="Trazado_194914" data-name="Trazado 194914" d="M467.686,2467.847s-8.969-.267-10.48-5.365c-1.661-5.6-3.521,2.3-3.521,2.3l.99,5.044h9.839Z" fill="#ea5e00"/>
        <g id="Grupo_136907" data-name="Grupo 136907">
          <path id="Trazado_194915" data-name="Trazado 194915" d="M483.321,2454.015l-.485-1.2a3.405,3.405,0,0,0-3.157-2.13h-8.94v29.893h36.984v-24.22H486.794A3.746,3.746,0,0,1,483.321,2454.015Z" fill="#5682c2"/>
          <g id="Grupo_136906" data-name="Grupo 136906">
            <path id="Trazado_194916" data-name="Trazado 194916" d="M476.318,2468.863v-2.155l7.557-3.31v2.2l-5.278,2.17,5.278,2.171v2.233Z" fill="#fff"/>
            <path id="Trazado_194917" data-name="Trazado 194917" d="M491.729,2460.821h2.015l-6.918,14.46h-2.014Z" fill="#fff"/>
            <path id="Trazado_194918" data-name="Trazado 194918" d="M502.144,2466.708v2.155l-7.557,3.311v-2.2l5.278-2.171-5.278-2.17V2463.4Z" fill="#fff"/>
          </g>
        </g>
        <path id="Trazado_194919" data-name="Trazado 194919" d="M467.685,2469.029l.649-1.018a5.275,5.275,0,0,0,1.234-.673c.856-.6.743-1.5,1.171-1.408l0,1.981-.046.006c1.838.491,3.987-.042,4.03.415.118,1.259-.855,1.826-1.671,2.22a2.959,2.959,0,0,1-2.462.4c-.824-.257-2.122-.518-2.122-.518Z" fill="#f59763"/>
        <path id="Trazado_194920" data-name="Trazado 194920" d="M459.39,2451.654s-5.822.381-7.277,2.652-3.261,13.8-2.5,17.757,19.4-.757,19.4-.757l-.6-3.435s-10.76.063-11.373-1.339C456.227,2464.669,459.39,2451.654,459.39,2451.654Z" fill="#f17925"/>
        <path id="Trazado_194921" data-name="Trazado 194921" d="M487.493,2456.346a2.168,2.168,0,0,0,2.2,1.411c.824-.166,1.9-1.94.954-2.332A2.676,2.676,0,0,0,487.493,2456.346Z" fill="#f59763"/>
      </g>
      <g id="Grupo_136914" data-name="Grupo 136914">
        <g id="Grupo_136909" data-name="Grupo 136909">
          <rect id="Rectángulo_294864" data-name="Rectángulo 294864" width="45.915" height="0.222" transform="matrix(0.471, -0.882, 0.882, 0.471, 544.215, 2536.312)" fill="#003e8b"/>
        </g>
        <g id="Grupo_136910" data-name="Grupo 136910">
          <rect id="Rectángulo_294865" data-name="Rectángulo 294865" width="0.222" height="35.754" transform="matrix(0.733, -0.68, 0.68, 0.733, 620.712, 2495.932)" fill="#003e8b"/>
        </g>
        <g id="Grupo_136913" data-name="Grupo 136913">
          <path id="Trazado_194922" data-name="Trazado 194922" d="M660.205,2529.733a9.727,9.727,0,0,1-1.814,7.122,9.274,9.274,0,0,1-6.2,3.711L543.521,2555.5c-5.546.762-10.675-2.912-11.4-8.165a9.359,9.359,0,0,1,2.035-7.152,10.436,10.436,0,0,1,6.737-3.783l108.668-14.932A9.557,9.557,0,0,1,660.205,2529.733Z" fill="#e2f0fa"/>
          <path id="Trazado_194923" data-name="Trazado 194923" d="M660.205,2529.733a9.727,9.727,0,0,1-1.814,7.122,9.274,9.274,0,0,1-6.2,3.711l-19.665,2.7-2.624-19.1,19.664-2.7A9.557,9.557,0,0,1,660.205,2529.733Z" fill="#f17925"/>
          <g id="Grupo_136912" data-name="Grupo 136912">
            <g id="Grupo_136911" data-name="Grupo 136911">
              <path id="Trazado_194924" data-name="Trazado 194924" d="M648.236,2534.915a4.982,4.982,0,0,1-.736.046,4.913,4.913,0,0,1-3.377-8.427h0a4.913,4.913,0,1,1,4.113,8.381Zm-3.547-7.8a4.1,4.1,0,1,0,5.8.067,4.107,4.107,0,0,0-5.8-.067Z" fill="#fff"/>
            </g>
            <rect id="Rectángulo_294866" data-name="Rectángulo 294866" width="0.809" height="6.705" transform="matrix(0.699, 0.715, -0.715, 0.699, 644.049, 2532.909)" fill="#fff"/>
            <path id="Trazado_194925" data-name="Trazado 194925" d="M637.87,2539.513h0a.722.722,0,0,1,.012-1.022l2.824-2.759a.722.722,0,0,1,1.022.012h0a.722.722,0,0,1-.012,1.021l-2.824,2.76A.722.722,0,0,1,637.87,2539.513Z" fill="#fff"/>
          </g>
        </g>
      </g>
      <g id="Grupo_136917" data-name="Grupo 136917">
        <rect id="Rectángulo_294867" data-name="Rectángulo 294867" width="24.415" height="2.072" rx="1.036" transform="translate(454.16 2631.445)" fill="#f17925"/>
        <g id="Grupo_136916" data-name="Grupo 136916">
          <path id="Trazado_194926" data-name="Trazado 194926" d="M466.069,2640.639h-11.2a.707.707,0,0,1-.707-.707h0a.707.707,0,0,1,.707-.707h11.2a.707.707,0,0,1,.706.707h0A.707.707,0,0,1,466.069,2640.639Z" fill="#5682c2"/>
          <g id="Grupo_136915" data-name="Grupo 136915">
            <rect id="Rectángulo_294868" data-name="Rectángulo 294868" width="21.144" height="1.413" rx="0.707" transform="translate(454.16 2636.261)" fill="#5682c2"/>
            <rect id="Rectángulo_294869" data-name="Rectángulo 294869" width="19.744" height="1.413" rx="0.707" transform="translate(477.231 2636.261)" fill="#5682c2"/>
            <path id="Trazado_194927" data-name="Trazado 194927" d="M480.041,2640.639h-11.2a.707.707,0,0,1-.707-.707h0a.707.707,0,0,1,.707-.707h11.2a.707.707,0,0,1,.707.707h0A.708.708,0,0,1,480.041,2640.639Z" fill="#5682c2"/>
          </g>
        </g>
        <rect id="Rectángulo_294870" data-name="Rectángulo 294870" width="24.415" height="2.072" rx="1.036" transform="translate(481.806 2631.445)" fill="#f17925"/>
      </g>
      <g id="Grupo_136920" data-name="Grupo 136920">
        <path id="Rectángulo_294871" data-name="Rectángulo 294871" d="M1.035,0H23.379a1.036,1.036,0,0,1,1.036,1.036v0a1.036,1.036,0,0,1-1.036,1.036H1.036A1.036,1.036,0,0,1,0,1.036v0A1.035,1.035,0,0,1,1.035,0Z" transform="translate(454.16 2647.041)" fill="#f17925"/>
        <g id="Grupo_136919" data-name="Grupo 136919">
          <path id="Trazado_194928" data-name="Trazado 194928" d="M466.069,2656.235h-11.2a.707.707,0,0,1-.707-.707h0a.707.707,0,0,1,.707-.707h11.2a.707.707,0,0,1,.706.707h0A.707.707,0,0,1,466.069,2656.235Z" fill="#5682c2"/>
          <g id="Grupo_136918" data-name="Grupo 136918">
            <rect id="Rectángulo_294872" data-name="Rectángulo 294872" width="21.144" height="1.414" rx="0.707" transform="translate(454.16 2651.857)" fill="#5682c2"/>
            <rect id="Rectángulo_294873" data-name="Rectángulo 294873" width="19.744" height="1.414" rx="0.707" transform="translate(477.231 2651.857)" fill="#5682c2"/>
            <path id="Trazado_194929" data-name="Trazado 194929" d="M480.041,2656.235h-11.2a.707.707,0,0,1-.707-.707h0a.707.707,0,0,1,.707-.707h11.2a.708.708,0,0,1,.707.707h0A.708.708,0,0,1,480.041,2656.235Z" fill="#5682c2"/>
          </g>
        </g>
        <rect id="Rectángulo_294874" data-name="Rectángulo 294874" width="24.415" height="2.071" rx="1.036" transform="translate(481.806 2647.041)" fill="#f17925"/>
      </g>
      <g id="Grupo_136921" data-name="Grupo 136921">
        <path id="Trazado_194930" data-name="Trazado 194930" d="M595.726,2554.321l-12.966,3.017-6.412,11.667-4.9-26.589Z" fill="#0e2b53"/>
        <rect id="Rectángulo_294875" data-name="Rectángulo 294875" width="2.37" height="13.713" transform="translate(580.163 2556.208) rotate(-37.154)" fill="#0e2b53"/>
      </g>
      <g id="Grupo_136923" data-name="Grupo 136923">
        <path id="Rectángulo_294876" data-name="Rectángulo 294876" d="M11.56,0H25A11.559,11.559,0,0,1,36.557,11.559V25A11.56,11.56,0,0,1,25,36.557H11.56A11.56,11.56,0,0,1,0,25V11.56A11.56,11.56,0,0,1,11.56,0Z" transform="translate(553.018 2572.725)" fill="#c7d8f1"/>
        <g id="Grupo_136922" data-name="Grupo 136922">
          <path id="Trazado_194931" data-name="Trazado 194931" d="M557.688,2601.635l7.1-12.806a2.336,2.336,0,0,1,3.927-.249l4.1,5.589a2.336,2.336,0,0,0,3.608.2h0a2.337,2.337,0,0,1,3.685.307l4.421,6.827a2.337,2.337,0,0,1-1.961,3.607H559.732A2.337,2.337,0,0,1,557.688,2601.635Z" fill="#5682c2"/>
          <path id="Trazado_194932" data-name="Trazado 194932" d="M571.707,2582.843a2.795,2.795,0,1,1,2.794,2.794A2.794,2.794,0,0,1,571.707,2582.843Z" fill="#5682c2"/>
        </g>
      </g>
      <g id="Grupo_136925" data-name="Grupo 136925">
        <path id="Rectángulo_294877" data-name="Rectángulo 294877" d="M2.337,0H34.22a2.337,2.337,0,0,1,2.337,2.337V34.22a2.336,2.336,0,0,1-2.336,2.336H2.336A2.336,2.336,0,0,1,0,34.22V2.337A2.337,2.337,0,0,1,2.337,0Z" transform="translate(595.158 2578.67) rotate(-7.767)" fill="#c7d8f1"/>
        <g id="Grupo_136924" data-name="Grupo 136924">
          <path id="Trazado_194933" data-name="Trazado 194933" d="M603.693,2606.684l5.308-13.65a2.336,2.336,0,0,1,3.858-.776l4.814,4.983a2.337,2.337,0,0,0,3.6-.294h0a2.337,2.337,0,0,1,3.693-.193l5.3,6.166a2.337,2.337,0,0,1-1.455,3.839l-22.629,3.086A2.336,2.336,0,0,1,603.693,2606.684Z" fill="#5682c2"/>
          <path id="Trazado_194934" data-name="Trazado 194934" d="M615.043,2586.17a2.795,2.795,0,1,1,3.147,2.39A2.8,2.8,0,0,1,615.043,2586.17Z" fill="#5682c2"/>
        </g>
      </g>
      <g id="Grupo_136926" data-name="Grupo 136926">
        <rect id="Rectángulo_294878" data-name="Rectángulo 294878" width="18.423" height="15.796" transform="translate(522.693 2723.2)" fill="#f17925"/>
        <rect id="Rectángulo_294879" data-name="Rectángulo 294879" width="19.79" height="1.22" transform="translate(521.95 2722.524)" fill="#98b3df"/>
        <rect id="Rectángulo_294880" data-name="Rectángulo 294880" width="18.423" height="5.018" transform="translate(522.693 2727.474)" fill="#ffd2ab"/>
      </g>
      <path id="Trazado_194935" data-name="Trazado 194935" d="M563.531,2739.008h-17.4a1.154,1.154,0,0,1-1.153-1.154v-1.929a1.153,1.153,0,0,1,1.28-1.146l17.4,1.929a1.154,1.154,0,0,1,1.026,1.146h0A1.154,1.154,0,0,1,563.531,2739.008Z" fill="#f17925"/>
      <path id="Trazado_194936" data-name="Trazado 194936" d="M755.278,2740.552l-392.831-.136a.546.546,0,0,1-.479-.59v-.3a.546.546,0,0,1,.479-.59l392.831.136a.544.544,0,0,1,.479.59v.3A.546.546,0,0,1,755.278,2740.552Z" fill="#1e2844"/>
      <g id="Grupo_136927" data-name="Grupo 136927">
        <path id="Trazado_194937" data-name="Trazado 194937" d="M533.143,2610.718h-2.005a.33.33,0,0,1,0-.66h1.992a.335.335,0,0,1,.336.33A.324.324,0,0,1,533.143,2610.718Zm-4,0h-1.991a.33.33,0,1,1,0-.66h1.991a.33.33,0,1,1,0,.66Zm-3.982,0h-1.991a.33.33,0,1,1,0-.66h1.991a.33.33,0,1,1,0,.66Zm-3.982,0h-1.992a.33.33,0,0,1,0-.66h1.992a.33.33,0,0,1,0,.66Zm-3.983,0h-1.991a.33.33,0,0,1,0-.66H517.2a.33.33,0,1,1,0,.66Zm-3.982,0h-1.991a.33.33,0,1,1,0-.66h1.991a.33.33,0,1,1,0,.66Zm-3.982,0h-1.991a.33.33,0,1,1,0-.66h1.991a.33.33,0,0,1,0,.66Zm-3.983,0h-1.991a.33.33,0,0,1,0-.66h1.991a.33.33,0,1,1,0,.66Zm-3.982,0H499.28a.33.33,0,1,1,0-.66h1.991a.33.33,0,1,1,0,.66Zm-3.982,0H495.3a.33.33,0,1,1,0-.66h1.991a.33.33,0,0,1,0,.66Zm-3.982,0h-1.992a.33.33,0,0,1,0-.66h1.992a.33.33,0,0,1,0,.66Zm-3.983,0h-1.991a.33.33,0,1,1,0-.66h1.991a.33.33,0,1,1,0,.66Zm-3.982,0h-1.991a.33.33,0,1,1,0-.66h1.991a.33.33,0,1,1,0,.66Zm-3.982,0h-1.991a.33.33,0,1,1,0-.66h1.991a.33.33,0,0,1,0,.66Zm-3.983,0h-1.991a.33.33,0,0,1,0-.66h1.991a.33.33,0,1,1,0,.66Zm-3.982,0H471.4a.33.33,0,1,1,0-.66h1.991a.33.33,0,1,1,0,.66Zm-3.982,0h-1.991a.33.33,0,1,1,0-.66h1.991a.33.33,0,0,1,0,.66Zm-3.983,0h-1.774c-.08,0-.159,0-.237-.008a.33.33,0,0,1,.041-.658c.065,0,.13.006.2.006h1.774a.33.33,0,1,1,0,.66Zm69.587-.58a.329.329,0,0,1-.185-.6,3.034,3.034,0,0,0,1.112-1.377.329.329,0,1,1,.611.246,3.691,3.691,0,0,1-1.353,1.676A.322.322,0,0,1,535.017,2610.138Zm-73.413-.119a.329.329,0,0,1-.2-.068,3.683,3.683,0,0,1-1.25-1.755.33.33,0,1,1,.625-.209,3.021,3.021,0,0,0,1.027,1.442.329.329,0,0,1-.2.59Zm74.888-3.367a.33.33,0,0,1-.329-.33v-1.991a.329.329,0,1,1,.659,0v1.991A.33.33,0,0,1,536.492,2606.652Zm-76.2-.2a.329.329,0,0,1-.33-.329v-1.991a.329.329,0,1,1,.659,0v1.991A.329.329,0,0,1,460.293,2606.449Zm76.2-3.78a.329.329,0,0,1-.329-.329v-1.991a.329.329,0,1,1,.659,0v1.991A.329.329,0,0,1,536.492,2602.669Zm-76.2-.2a.33.33,0,0,1-.33-.33v-1.991a.329.329,0,0,1,.659,0v1.991A.329.329,0,0,1,460.293,2602.467Zm76.2-3.78a.329.329,0,0,1-.329-.329v-1.991a.329.329,0,1,1,.659,0v1.991A.329.329,0,0,1,536.492,2598.687Zm-76.2-.2a.33.33,0,0,1-.33-.33v-1.991a.329.329,0,1,1,.659,0v1.991A.33.33,0,0,1,460.293,2598.485Zm76.2-3.78a.33.33,0,0,1-.329-.33v-1.991a.329.329,0,0,1,.659,0v1.991A.33.33,0,0,1,536.492,2594.705Zm-76.2-.2a.329.329,0,0,1-.33-.329v-1.991a.329.329,0,1,1,.659,0v1.991A.329.329,0,0,1,460.293,2594.5Zm76.2-3.779a.329.329,0,0,1-.329-.33V2588.4a.329.329,0,1,1,.659,0v1.991A.33.33,0,0,1,536.492,2590.723Zm-76.2-.2a.33.33,0,0,1-.33-.33V2588.2a.329.329,0,0,1,.659,0v1.991A.329.329,0,0,1,460.293,2590.52Zm76.2-3.78a.329.329,0,0,1-.329-.329v-1.992a.329.329,0,0,1,.659,0v1.992A.329.329,0,0,1,536.492,2586.74Zm-76.2-.2a.33.33,0,0,1-.33-.33v-1.991a.329.329,0,1,1,.659,0v1.991A.33.33,0,0,1,460.293,2586.538Zm76.2-3.78a.329.329,0,0,1-.329-.33v-1.991a.329.329,0,0,1,.659,0v1.991A.33.33,0,0,1,536.492,2582.758Zm-76.2-.2a.33.33,0,0,1-.33-.33v-1.991a.329.329,0,1,1,.659,0v1.991A.329.329,0,0,1,460.293,2582.556Zm76.2-3.78a.329.329,0,0,1-.329-.33v-1.991a.329.329,0,1,1,.659,0v1.991A.33.33,0,0,1,536.492,2578.776Zm-76.2-.2a.329.329,0,0,1-.33-.329v-1.992a.329.329,0,0,1,.659,0v1.992A.329.329,0,0,1,460.293,2578.573Zm76.2-3.78a.329.329,0,0,1-.329-.329v-1.991a.329.329,0,1,1,.659,0v1.991A.329.329,0,0,1,536.492,2574.793Zm-76.2-.2a.33.33,0,0,1-.33-.33v-1.991a.329.329,0,0,1,.659,0v1.991A.329.329,0,0,1,460.293,2574.591Zm76.2-3.78a.329.329,0,0,1-.329-.329v-.9a3.022,3.022,0,0,0-.158-.968.33.33,0,1,1,.625-.21,3.7,3.7,0,0,1,.192,1.178v.9A.329.329,0,0,1,536.492,2570.811Zm-76.2-.2a.33.33,0,0,1-.33-.33v-.7a3.671,3.671,0,0,1,.27-1.387.33.33,0,1,1,.611.248,3.011,3.011,0,0,0-.222,1.139v.7A.329.329,0,0,1,460.293,2570.609Zm74.882-3.365a.328.328,0,0,1-.2-.069,3.017,3.017,0,0,0-1.656-.62.329.329,0,1,1,.04-.657,3.667,3.667,0,0,1,2.017.755.329.329,0,0,1-.2.591Zm-73.4-.119a.329.329,0,0,1-.185-.6,3.671,3.671,0,0,1,2.059-.632h0a.329.329,0,0,1,0,.659,3.01,3.01,0,0,0-1.691.519A.327.327,0,0,1,461.774,2567.125Zm69.574-.575h-1.991a.329.329,0,1,1,0-.659h1.991a.329.329,0,0,1,0,.659Zm-3.982,0h-1.992a.329.329,0,0,1,0-.659h1.992a.329.329,0,0,1,0,.659Zm-3.983,0h-1.991a.329.329,0,1,1,0-.659h1.991a.329.329,0,1,1,0,.659Zm-3.982,0H517.41a.329.329,0,1,1,0-.659H519.4a.329.329,0,0,1,0,.659Zm-3.982,0h-1.992a.329.329,0,0,1,0-.659h1.992a.329.329,0,0,1,0,.659Zm-3.983,0h-1.991a.329.329,0,0,1,0-.659h1.991a.329.329,0,1,1,0,.659Zm-3.982,0h-1.991a.329.329,0,1,1,0-.659h1.991a.329.329,0,1,1,0,.659Zm-3.982,0h-1.991a.329.329,0,1,1,0-.659h1.991a.329.329,0,0,1,0,.659Zm-3.983,0H497.5a.329.329,0,0,1,0-.659h1.991a.329.329,0,1,1,0,.659Zm-3.982,0h-1.991a.329.329,0,1,1,0-.659h1.991a.329.329,0,1,1,0,.659Zm-3.982,0h-1.991a.329.329,0,1,1,0-.659h1.991a.329.329,0,0,1,0,.659Zm-3.983,0h-1.991a.329.329,0,0,1,0-.659h1.991a.329.329,0,1,1,0,.659Zm-3.982,0h-1.991a.329.329,0,0,1,0-.659h1.991a.329.329,0,1,1,0,.659Zm-3.982,0h-1.991a.329.329,0,1,1,0-.659h1.991a.329.329,0,1,1,0,.659Zm-3.982,0H473.6a.329.329,0,0,1,0-.659H475.6a.329.329,0,0,1,0,.659Zm-3.983,0h-1.991a.329.329,0,0,1,0-.659h1.991a.329.329,0,1,1,0,.659Zm-3.982,0H465.64a.329.329,0,1,1,0-.659h1.991a.329.329,0,1,1,0,.659Z" fill="#5682c2"/>
      </g>
      <g id="Grupo_136928" data-name="Grupo 136928">
        <path id="Trazado_194938" data-name="Trazado 194938" d="M646.331,2665.978h-1.777a.292.292,0,0,1,0-.584h1.764a.3.3,0,0,1,.3.292A.287.287,0,0,1,646.331,2665.978Zm-3.541,0h-1.764a.292.292,0,0,1,0-.584h1.764a.292.292,0,0,1,0,.584Zm-3.528,0H637.5a.292.292,0,0,1,0-.584h1.764a.292.292,0,0,1,0,.584Zm-3.528,0h-1.763a.292.292,0,0,1,0-.584h1.763a.292.292,0,0,1,0,.584Zm-3.528,0h-1.763a.292.292,0,0,1,0-.584h1.763a.292.292,0,0,1,0,.584Zm-3.527,0h-1.764a.292.292,0,0,1,0-.584h1.764a.292.292,0,0,1,0,.584Zm-3.528,0h-1.764a.292.292,0,1,1,0-.584h1.764a.292.292,0,0,1,0,.584Zm-3.528,0h-1.764a.292.292,0,0,1,0-.584h1.764a.292.292,0,0,1,0,.584Zm-3.527,0h-1.764a.292.292,0,0,1,0-.584H618.1a.292.292,0,0,1,0,.584Zm-3.528,0h-1.7l-.074,0a.292.292,0,0,1,.028-.584l.046,0h1.7a.292.292,0,0,1,0,.584Zm32.9-1.118h-.01a.291.291,0,0,1-.282-.3V2662.8a.292.292,0,0,1,.584,0v1.774A.291.291,0,0,1,647.472,2664.86Zm-35.762-.047a.292.292,0,0,1-.292-.292v-1.764a.292.292,0,0,1,.584,0v1.764A.292.292,0,0,1,611.71,2664.813Zm35.762-3.481a.292.292,0,0,1-.292-.292v-1.763a.292.292,0,0,1,.584,0v1.763A.292.292,0,0,1,647.472,2661.332Zm-35.762-.047a.292.292,0,0,1-.292-.292v-1.764a.292.292,0,0,1,.584,0v1.764A.292.292,0,0,1,611.71,2661.285Zm35.762-3.481a.291.291,0,0,1-.292-.291v-1.764a.292.292,0,0,1,.584,0v1.764A.291.291,0,0,1,647.472,2657.8Zm-35.762-.047a.292.292,0,0,1-.292-.292v-1.72c0-.018,0-.037,0-.055a.287.287,0,0,1,.3-.28.291.291,0,0,1,.28.3v1.752A.292.292,0,0,1,611.71,2657.757Zm34.662-2.873h-1.764a.292.292,0,0,1,0-.584h1.776a.292.292,0,0,1-.012.584Zm-3.528,0H641.08a.292.292,0,0,1,0-.584h1.764a.292.292,0,0,1,0,.584Zm-3.528,0h-1.764a.292.292,0,0,1,0-.584h1.764a.292.292,0,0,1,0,.584Zm-3.528,0h-1.764a.292.292,0,0,1,0-.584h1.764a.292.292,0,0,1,0,.584Zm-3.528,0H630.5a.292.292,0,0,1,0-.584h1.763a.292.292,0,0,1,0,.584Zm-3.527,0h-1.764a.292.292,0,0,1,0-.584h1.764a.292.292,0,1,1,0,.584Zm-3.528,0h-1.764a.292.292,0,0,1,0-.584h1.764a.292.292,0,0,1,0,.584Zm-3.528,0h-1.764a.292.292,0,1,1,0-.584h1.764a.292.292,0,0,1,0,.584Zm-3.528,0h-1.763a.292.292,0,0,1,0-.584h1.763a.292.292,0,0,1,0,.584Zm-3.528,0h-1.757a.3.3,0,0,1-.3-.292.288.288,0,0,1,.289-.292h1.763a.292.292,0,1,1,0,.584Z" fill="#5682c2"/>
      </g>
      <g id="Grupo_136929" data-name="Grupo 136929">
        <path id="Trazado_194939" data-name="Trazado 194939" d="M520.34,2560.713h-1.964a.33.33,0,0,1,0-.66h1.952a.335.335,0,0,1,.336.33A.325.325,0,0,1,520.34,2560.713Zm-3.915,0h-1.952a.33.33,0,1,1,0-.66h1.952a.33.33,0,0,1,0,.66Zm-3.9,0h-1.952a.33.33,0,1,1,0-.66h1.952a.33.33,0,0,1,0,.66Zm-3.9,0h-1.952a.33.33,0,0,1,0-.66h1.952a.33.33,0,1,1,0,.66Zm-3.9,0h-1.952a.33.33,0,0,1,0-.66h1.952a.33.33,0,1,1,0,.66Zm-3.9,0h-1.952a.33.33,0,1,1,0-.66h1.952a.33.33,0,0,1,0,.66Zm-3.9,0h-1.952a.33.33,0,1,1,0-.66h1.952a.33.33,0,0,1,0,.66Zm-3.868-.21a.327.327,0,0,1-.162-.043,1.959,1.959,0,0,1-.99-1.7v-.239a.33.33,0,0,1,.66,0v.24a1.3,1.3,0,0,0,.655,1.124.33.33,0,0,1-.163.617Zm28.808-.841a.319.319,0,0,1-.116-.021.329.329,0,0,1-.192-.424,1.305,1.305,0,0,0,.082-.455v-1.369a.329.329,0,0,1,.659,0v1.369a1.961,1.961,0,0,1-.124.687A.331.331,0,0,1,521.846,2559.662Zm-29.63-2.762a.33.33,0,0,1-.33-.33v-1.951a.33.33,0,0,1,.66,0v1.951A.33.33,0,0,1,492.216,2556.9Zm29.734-1.129a.329.329,0,0,1-.33-.329v-1.952a.329.329,0,1,1,.659,0v1.952A.329.329,0,0,1,521.95,2555.771ZM492.216,2553a.329.329,0,0,1-.33-.329v-1.952a.33.33,0,1,1,.66,0v1.952A.329.329,0,0,1,492.216,2553Zm29.734-1.129a.329.329,0,0,1-.33-.329v-1.952a.329.329,0,1,1,.659,0v1.952A.329.329,0,0,1,521.95,2551.867Zm-29.734-2.774a.33.33,0,0,1-.33-.33v-1.952a.33.33,0,1,1,.66,0v1.952A.33.33,0,0,1,492.216,2549.093Zm29.734-1.129a.33.33,0,0,1-.33-.33v-1.952a.329.329,0,0,1,.659,0v1.952A.33.33,0,0,1,521.95,2547.964Zm-29.734-2.775a.33.33,0,0,1-.33-.33v-1.952a.33.33,0,0,1,.66,0v1.952A.33.33,0,0,1,492.216,2545.189Zm29.734-1.129a.33.33,0,0,1-.33-.33v-1.952a.329.329,0,0,1,.659,0v1.952A.329.329,0,0,1,521.95,2544.06Zm-29.734-2.775a.33.33,0,0,1-.33-.33V2539a.33.33,0,0,1,.66,0v1.951A.33.33,0,0,1,492.216,2541.285Zm29.734-1.129a.329.329,0,0,1-.33-.329v-1.952a.329.329,0,1,1,.659,0v1.952A.329.329,0,0,1,521.95,2540.156Zm-29.734-2.775a.33.33,0,0,1-.33-.329v-1.362a1.935,1.935,0,0,1,.128-.695.33.33,0,0,1,.616.235,1.284,1.284,0,0,0-.084.46v1.362A.33.33,0,0,1,492.216,2537.381Zm29.734-1.128a.33.33,0,0,1-.33-.33v-.233a1.3,1.3,0,0,0-.66-1.128.329.329,0,1,1,.323-.574,1.953,1.953,0,0,1,1,1.7v.233A.329.329,0,0,1,521.95,2536.253Zm-2.744-1.855h-1.952a.33.33,0,1,1,0-.66h1.952a.33.33,0,0,1,0,.66Zm-3.9,0H513.35a.33.33,0,1,1,0-.66H515.3a.33.33,0,0,1,0,.66Zm-3.9,0h-1.952a.33.33,0,0,1,0-.66H511.4a.33.33,0,1,1,0,.66Zm-3.9,0h-1.951a.33.33,0,1,1,0-.66h1.951a.33.33,0,1,1,0,.66Zm-3.9,0h-1.952a.33.33,0,1,1,0-.66h1.952a.33.33,0,0,1,0,.66Zm-3.9,0h-1.952a.33.33,0,1,1,0-.66h1.952a.33.33,0,1,1,0,.66Zm-3.9,0h-1.946a.332.332,0,0,1-.332-.33.327.327,0,0,1,.326-.33h1.952a.33.33,0,1,1,0,.66Z" fill="#5682c2"/>
      </g>
      <g id="Grupo_136930" data-name="Grupo 136930">
        <path id="Trazado_194940" data-name="Trazado 194940" d="M646.331,2682.257h-1.777a.292.292,0,0,1,0-.584h1.764a.3.3,0,0,1,.3.292A.287.287,0,0,1,646.331,2682.257Zm-3.541,0h-1.764a.292.292,0,0,1,0-.584h1.764a.292.292,0,0,1,0,.584Zm-3.528,0H637.5a.292.292,0,0,1,0-.584h1.764a.292.292,0,0,1,0,.584Zm-3.528,0h-1.763a.292.292,0,0,1,0-.584h1.763a.292.292,0,0,1,0,.584Zm-3.528,0h-1.763a.292.292,0,0,1,0-.584h1.763a.292.292,0,0,1,0,.584Zm-3.527,0h-1.764a.292.292,0,0,1,0-.584h1.764a.292.292,0,0,1,0,.584Zm-3.528,0h-1.764a.292.292,0,1,1,0-.584h1.764a.292.292,0,0,1,0,.584Zm-3.528,0h-1.764a.292.292,0,0,1,0-.584h1.764a.292.292,0,0,1,0,.584Zm-3.527,0h-1.764a.292.292,0,0,1,0-.584H618.1a.292.292,0,0,1,0,.584Zm-3.528,0h-1.7l-.074,0a.292.292,0,0,1-.278-.306.287.287,0,0,1,.306-.277h1.75a.292.292,0,0,1,0,.584Zm32.9-1.118h-.01a.291.291,0,0,1-.282-.3v-1.754a.292.292,0,0,1,.584,0v1.773A.291.291,0,0,1,647.472,2681.139Zm-35.762-.047a.292.292,0,0,1-.292-.292v-1.764a.292.292,0,0,1,.584,0v1.764A.292.292,0,0,1,611.71,2681.092Zm35.762-3.48a.292.292,0,0,1-.292-.292v-1.764a.292.292,0,0,1,.584,0v1.764A.292.292,0,0,1,647.472,2677.612Zm-35.762-.048a.291.291,0,0,1-.292-.291v-1.764a.292.292,0,0,1,.584,0v1.764A.291.291,0,0,1,611.71,2677.564Zm35.762-3.48a.292.292,0,0,1-.292-.292v-1.764a.292.292,0,0,1,.584,0v1.764A.292.292,0,0,1,647.472,2674.084Zm-35.762-.047a.292.292,0,0,1-.292-.292v-1.72c0-.019,0-.037,0-.056a.287.287,0,0,1,.3-.28.292.292,0,0,1,.28.3v1.752A.292.292,0,0,1,611.71,2674.037Zm34.662-2.874h-1.764a.292.292,0,0,1,0-.584h1.776a.292.292,0,0,1-.012.584Zm-3.528,0H641.08a.292.292,0,0,1,0-.584h1.764a.292.292,0,0,1,0,.584Zm-3.528,0h-1.764a.292.292,0,0,1,0-.584h1.764a.292.292,0,0,1,0,.584Zm-3.528,0h-1.764a.292.292,0,0,1,0-.584h1.764a.292.292,0,0,1,0,.584Zm-3.528,0H630.5a.292.292,0,0,1,0-.584h1.763a.292.292,0,0,1,0,.584Zm-3.527,0h-1.764a.292.292,0,0,1,0-.584h1.764a.292.292,0,0,1,0,.584Zm-3.528,0h-1.764a.292.292,0,0,1,0-.584h1.764a.292.292,0,0,1,0,.584Zm-3.528,0h-1.764a.292.292,0,0,1,0-.584h1.764a.292.292,0,0,1,0,.584Zm-3.528,0h-1.763a.292.292,0,0,1,0-.584h1.763a.292.292,0,0,1,0,.584Zm-3.528,0h-1.757a.3.3,0,0,1-.3-.292.289.289,0,0,1,.289-.292h1.763a.292.292,0,0,1,0,.584Z" fill="#5682c2"/>
      </g>
      <g id="Grupo_136931" data-name="Grupo 136931">
        <path id="Trazado_194941" data-name="Trazado 194941" d="M507.13,2669.993h-1.761a.292.292,0,0,1,0-.584h1.749a.3.3,0,0,1,.3.292A.287.287,0,0,1,507.13,2669.993Zm-3.509,0h-1.749a.292.292,0,1,1,0-.584h1.749a.292.292,0,0,1,0,.584Zm-3.5,0h-1.748a.292.292,0,0,1,0-.584h1.748a.292.292,0,1,1,0,.584Zm-3.5,0h-1.749a.292.292,0,1,1,0-.584h1.749a.292.292,0,0,1,0,.584Zm-3.5,0H491.38a.292.292,0,0,1,0-.584h1.749a.292.292,0,0,1,0,.584Zm-3.5,0h-1.748a.292.292,0,1,1,0-.584h1.748a.292.292,0,0,1,0,.584Zm-3.5,0h-1.749a.292.292,0,1,1,0-.584h1.749a.292.292,0,0,1,0,.584Zm-3.5,0h-1.749a.292.292,0,0,1,0-.584h1.749a.292.292,0,0,1,0,.584Zm-3.5,0h-1.748a.292.292,0,0,1,0-.584h1.748a.292.292,0,0,1,0,.584Zm-3.5,0h-1.749a.292.292,0,1,1,0-.584h1.749a.292.292,0,0,1,0,.584Zm-3.5,0H470.4a.292.292,0,0,1,0-.584h1.749a.292.292,0,1,1,0,.584Zm-3.5,0H466.9a.292.292,0,0,1,0-.584h1.748a.292.292,0,0,1,0,.584Zm-3.5,0H463.4a.292.292,0,1,1,0-.584h1.748a.292.292,0,0,1,0,.584Zm-3.5,0H459.9a.292.292,0,1,1,0-.584h1.749a.292.292,0,0,1,0,.584Zm-3.5,0h-1.748a.292.292,0,1,1,0-.584h1.748a.292.292,0,0,1,0,.584Zm-3.5,0h-1.4a3.275,3.275,0,0,1-.386-.023.292.292,0,0,1,.069-.58,2.734,2.734,0,0,0,.317.019h1.4a.292.292,0,1,1,0,.584Zm54.12-.5a.292.292,0,0,1-.164-.534,2.693,2.693,0,0,0,.987-1.2.292.292,0,0,1,.539.225,3.267,3.267,0,0,1-1.2,1.462A.286.286,0,0,1,508.778,2669.488Zm-57.447-.206a.293.293,0,0,1-.189-.069,3.267,3.267,0,0,1-1.025-1.591.292.292,0,1,1,.561-.16,2.678,2.678,0,0,0,.843,1.306.292.292,0,0,1-.19.514Zm58.766-2.845a.292.292,0,0,1-.292-.292V2664.4a.292.292,0,0,1,.584,0v1.749A.292.292,0,0,1,510.1,2666.437Zm-59.814-.341a.292.292,0,0,1-.292-.292v-1.748a.292.292,0,0,1,.584,0v1.748A.292.292,0,0,1,450.283,2666.1Zm59.814-3.156a.292.292,0,0,1-.292-.292V2660.9a.292.292,0,0,1,.584,0v1.749A.292.292,0,0,1,510.1,2662.94Zm-59.814-.341a.292.292,0,0,1-.292-.292v-1.749a.292.292,0,0,1,.584,0v1.749A.292.292,0,0,1,450.283,2662.6Zm59.814-3.157a.292.292,0,0,1-.292-.292V2657.4a.292.292,0,0,1,.584,0v1.748A.291.291,0,0,1,510.1,2659.442Zm-59.814-.34a.292.292,0,0,1-.292-.292v-1.749a.292.292,0,0,1,.584,0v1.749A.292.292,0,0,1,450.283,2659.1Zm59.814-3.157a.292.292,0,0,1-.292-.292V2653.9a.292.292,0,0,1,.584,0v1.749A.292.292,0,0,1,510.1,2655.945Zm-59.814-.341a.292.292,0,0,1-.292-.292v-1.748a.292.292,0,0,1,.584,0v1.748A.292.292,0,0,1,450.283,2655.6Zm59.814-3.156a.292.292,0,0,1-.292-.292v-1.749a.292.292,0,0,1,.584,0v1.749A.292.292,0,0,1,510.1,2652.448Zm-59.814-.341a.292.292,0,0,1-.292-.292v-1.749a.292.292,0,0,1,.584,0v1.749A.292.292,0,0,1,450.283,2652.107Zm59.814-3.157a.292.292,0,0,1-.292-.292v-1.748a.292.292,0,0,1,.584,0v1.748A.291.291,0,0,1,510.1,2648.95Zm-59.814-.34a.292.292,0,0,1-.292-.292v-1.749a.292.292,0,0,1,.584,0v1.749A.292.292,0,0,1,450.283,2648.61Zm59.814-3.157a.292.292,0,0,1-.292-.292v-1.749a.292.292,0,0,1,.584,0v1.749A.292.292,0,0,1,510.1,2645.453Zm-59.814-.341a.292.292,0,0,1-.292-.292v-1.748a.292.292,0,0,1,.584,0v1.748A.292.292,0,0,1,450.283,2645.112Zm59.814-3.156a.292.292,0,0,1-.292-.292v-1.749a.292.292,0,0,1,.584,0v1.749A.292.292,0,0,1,510.1,2641.956Zm-59.814-.341a.292.292,0,0,1-.292-.292v-1.749a.292.292,0,0,1,.584,0v1.749A.292.292,0,0,1,450.283,2641.615Zm59.814-3.157a.292.292,0,0,1-.292-.292v-1.748a.292.292,0,0,1,.584,0v1.748A.291.291,0,0,1,510.1,2638.458Zm-59.814-.34a.292.292,0,0,1-.292-.292v-1.749a.292.292,0,0,1,.584,0v1.749A.292.292,0,0,1,450.283,2638.118Zm59.814-3.157a.292.292,0,0,1-.292-.292v-1.748a.292.292,0,0,1,.584,0v1.748A.292.292,0,0,1,510.1,2634.961Zm-59.814-.341a.292.292,0,0,1-.292-.292v-1.748a.292.292,0,0,1,.584,0v1.748A.292.292,0,0,1,450.283,2634.62Zm59.814-3.156a.292.292,0,0,1-.292-.292v-1.749a.292.292,0,0,1,.584,0v1.749A.292.292,0,0,1,510.1,2631.464Zm-59.814-.341a.292.292,0,0,1-.292-.292v-1.749a.292.292,0,0,1,.584,0v1.749A.292.292,0,0,1,450.283,2631.123Zm59.7-3.145a.292.292,0,0,1-.28-.212,2.683,2.683,0,0,0-.846-1.3.292.292,0,0,1,.378-.445,3.257,3.257,0,0,1,1.029,1.588.292.292,0,0,1-.2.361A.282.282,0,0,1,509.981,2627.978Zm-59.469-.322a.291.291,0,0,1-.269-.4,3.269,3.269,0,0,1,1.2-1.461.292.292,0,0,1,.324.486,2.685,2.685,0,0,0-.988,1.2A.293.293,0,0,1,450.512,2627.656Zm56.952-1.811-.034,0a2.715,2.715,0,0,0-.312-.018h-1.4a.292.292,0,1,1,0-.584h1.4a3.222,3.222,0,0,1,.379.022.292.292,0,0,1-.033.582Zm-3.5-.02h-1.748a.292.292,0,0,1,0-.584h1.748a.292.292,0,0,1,0,.584Zm-3.5,0h-1.749a.292.292,0,1,1,0-.584h1.749a.292.292,0,0,1,0,.584Zm-3.5,0h-1.749a.292.292,0,0,1,0-.584h1.749a.292.292,0,1,1,0,.584Zm-3.5,0h-1.748a.292.292,0,1,1,0-.584h1.748a.292.292,0,0,1,0,.584Zm-3.5,0h-1.749a.292.292,0,0,1,0-.584h1.749a.292.292,0,0,1,0,.584Zm-3.5,0h-1.749a.292.292,0,0,1,0-.584h1.749a.292.292,0,1,1,0,.584Zm-3.5,0h-1.748a.292.292,0,0,1,0-.584h1.748a.292.292,0,0,1,0,.584Zm-3.5,0h-1.749a.292.292,0,1,1,0-.584h1.749a.292.292,0,1,1,0,.584Zm-3.5,0H474.24a.292.292,0,0,1,0-.584h1.749a.292.292,0,0,1,0,.584Zm-3.5,0h-1.749a.292.292,0,1,1,0-.584h1.749a.292.292,0,1,1,0,.584Zm-3.5,0h-1.749a.292.292,0,0,1,0-.584h1.749a.292.292,0,1,1,0,.584Zm-3.5,0h-1.749a.292.292,0,1,1,0-.584H465.5a.292.292,0,0,1,0,.584Zm-3.5,0h-1.749a.292.292,0,0,1,0-.584H462a.292.292,0,0,1,0,.584Zm-3.5,0h-1.748a.292.292,0,0,1,0-.584H458.5a.292.292,0,1,1,0,.584Zm-3.5,0h-1.743a.3.3,0,0,1-.295-.292.29.29,0,0,1,.289-.292h1.749a.292.292,0,0,1,0,.584Z" fill="#5682c2"/>
      </g>
      <g id="Grupo_136933" data-name="Grupo 136933">
        <path id="Rectángulo_294881" data-name="Rectángulo 294881" d="M13.663,0H62.536A13.664,13.664,0,0,1,76.2,13.664V30.5A13.664,13.664,0,0,1,62.536,44.168H13.663A13.663,13.663,0,0,1,0,30.5V13.663A13.663,13.663,0,0,1,13.663,0Z" transform="translate(450.689 2572.226)" fill="#c7d8f1"/>
        <path id="Trazado_194942" data-name="Trazado 194942" d="M480.19,2585.549v17.522a1.377,1.377,0,0,0,2.133,1.15l13.317-8.761a1.377,1.377,0,0,0,0-2.3l-13.317-8.761A1.377,1.377,0,0,0,480.19,2585.549Z" fill="#f17925"/>
        <g id="Grupo_136932" data-name="Grupo 136932">
          <path id="Trazado_194943" data-name="Trazado 194943" d="M454.65,2612.41a1.368,1.368,0,1,1,1.368,1.367A1.367,1.367,0,0,1,454.65,2612.41Z" fill="#98b3df"/>
          <path id="Trazado_194944" data-name="Trazado 194944" d="M518.24,2612.778H456.386a.368.368,0,0,1-.368-.368h0a.369.369,0,0,1,.368-.369H518.24a.369.369,0,0,1,.368.369h0A.368.368,0,0,1,518.24,2612.778Z" fill="#98b3df"/>
        </g>
      </g>
      <rect id="Rectángulo_294882" data-name="Rectángulo 294882" width="39.422" height="58.848" transform="translate(521.95 2625.533)" fill="#e2f0fa" opacity="0.5"/>
      <g id="Grupo_136939" data-name="Grupo 136939">
        <g id="Grupo_136935" data-name="Grupo 136935">
          <g id="Grupo_136934" data-name="Grupo 136934">
            <path id="Trazado_194945" data-name="Trazado 194945" d="M545.445,2644.44h-.539v-2.425a1.579,1.579,0,0,1,1.577-1.578h6.67a1.037,1.037,0,0,0,1-.774l1.055-4.01a1.037,1.037,0,0,0-1-1.3h-8.7v-.539h8.7a1.577,1.577,0,0,1,1.525,1.979l-1.055,4.01a1.578,1.578,0,0,1-1.525,1.176h-6.67a1.039,1.039,0,0,0-1.038,1.038Z" fill="#003880"/>
          </g>
          <rect id="Rectángulo_294883" data-name="Rectángulo 294883" width="14.964" height="4.55" rx="2.275" transform="translate(538.502 2631.806)" fill="#f17925"/>
          <path id="Trazado_194946" data-name="Trazado 194946" d="M545.175,2654.506h0a1.483,1.483,0,0,1-1.483-1.483v-8.988a1.483,1.483,0,0,1,1.483-1.483h0a1.483,1.483,0,0,1,1.483,1.483v8.988A1.483,1.483,0,0,1,545.175,2654.506Z" fill="#003880"/>
        </g>
        <g id="Grupo_136936" data-name="Grupo 136936">
          <path id="Trazado_194947" data-name="Trazado 194947" d="M601.926,2674a20.466,20.466,0,0,1,.933,3.86,13.979,13.979,0,0,1-1.186,3.8c-.457.629-.683-2.56-1.045-3.039s-.075,1.2-.33,1.356-.787-1.236-1.016-1.727.559-2.3.561-3.563S601.926,2674,601.926,2674Z" fill="#f59763"/>
          <path id="Trazado_194948" data-name="Trazado 194948" d="M577.931,2649.035a4.461,4.461,0,0,1,6.722-4.2c.063.038.126.077.188.117,4.627,2.978,14.611,16.875,15.3,18.267s2.715,12.467,2.715,12.467-2.506.916-3.677-.035c0,0-4.065-10.5-4.666-11.028s-16.256-9.309-16.39-12.6C578.085,2651.151,578.015,2650.1,577.931,2649.035Z" fill="#0e2b53"/>
        </g>
        <g id="Grupo_136937" data-name="Grupo 136937">
          <path id="Trazado_194949" data-name="Trazado 194949" d="M605.868,2730.373s1.866,1.7,1.5,2.912-2.048,2.016-2.275,3.494-1.138,2.285-1.957,2.285h-3.9s-.6-1.04.853-1.354,2.005-2.051,1.914-3.664a28.456,28.456,0,0,1,.136-3.763l3.094-.717Z" fill="#083b6f"/>
          <path id="Trazado_194950" data-name="Trazado 194950" d="M582.982,2734.776s.335,3.874-.484,4.277l-10.481-.021s0-1.21,1.683-1.478,4.641-1.255,5.142-3.45S582.982,2734.776,582.982,2734.776Z" fill="#083b6f"/>
          <path id="Trazado_194951" data-name="Trazado 194951" d="M574.133,2680.046s.553,6.792,1.2,14.955c.883,11.09,1.945,24.712,2.05,27.292.181,4.481.91,11.649.91,11.649s1.728,1.7,5.187.985a115.7,115.7,0,0,0,3.963-21.058c.013-.177.027-.356.041-.535.819-11.021,2.092-34.229,2.092-34.229Z" fill="#f17925"/>
          <path id="Trazado_194952" data-name="Trazado 194952" d="M574.133,2680.046s.553,6.792,1.2,14.955l12.11,18.868c.013-.177.027-.356.041-.535.819-11.021,2.092-34.229,2.092-34.229Z" fill="#eb5f00"/>
          <path id="Trazado_194953" data-name="Trazado 194953" d="M576.658,2680.853s9.964,24.6,16.516,36.154,8.6,14.785,8.6,14.785,3.754-1.479,4.095-2.487c0,0-2.505-22.314-6.893-27.754-2.479-3.074-5.392-12.3-5.528-15.524s-.887-9.61-.887-9.61Z" fill="#f17925"/>
        </g>
        <path id="Trazado_194954" data-name="Trazado 194954" d="M585.25,2643.958s-6.677,3.386-10.587,2.256a9.175,9.175,0,0,1,2.589-2.157c-.15-.777-.268-1.452-.339-2.025a18.744,18.744,0,0,1-.206-2.072l2.56-2.1,2.428-2.006A9.941,9.941,0,0,0,585.25,2643.958Z" fill="#f59763"/>
        <path id="Trazado_194955" data-name="Trazado 194955" d="M591.881,2678.364a27.521,27.521,0,0,1-8.234,3.547c-3.523.835-7.852.589-9.3.809a.6.6,0,0,1-.423-.107c-.114-.058-.753-4.355-1.393-9.778-.028-.218-.058-.439-.07-.659l-.01-.073c-.249-2.121-.467-4.348-.656-6.58-.155-1.737-.282-3.455-.37-5.069-.111-2.018-.157-3.873-.111-5.4.02-.7.061-1.323.123-1.868a13.294,13.294,0,0,1,3.316-7.117l1.18-1.343a6.465,6.465,0,0,0,4.084-1.042c1.442-.949,3-1.97,3.292-1.8,2.209,1.209,4.008,4.341,5.293,8.479a47.293,47.293,0,0,1,1.664,7.945c.116.888.215,1.8.291,2.706.015.168.027.336.04.5.174,2.48.457,4.8.771,6.88.422,2.8.9,5.145,1.243,6.8.17.841.3,1.491.377,1.956C593.057,2677.556,592.244,2678.138,591.881,2678.364Z" fill="#003880"/>
        <path id="Trazado_194956" data-name="Trazado 194956" d="M581.781,2637.961a8.931,8.931,0,0,1-4.868,4.071,18.744,18.744,0,0,1-.206-2.072l2.56-2.1Z" fill="#f17d41"/>
        <path id="Trazado_194957" data-name="Trazado 194957" d="M575.52,2639.894s6.451.925,6.976-3.041,1.712-6.516-2.385-7.274-5.1.653-5.6,1.935S573.855,2639.552,575.52,2639.894Z" fill="#f59763"/>
        <path id="Trazado_194958" data-name="Trazado 194958" d="M584.679,2629.015c.057-.068.19-.124.49-.147a1.214,1.214,0,0,0-.563-.146,1.507,1.507,0,0,0-1.028-1.314.9.9,0,0,1,.449.64c-.848-.837-2.64-1.422-7.56-.935-6.485.641-4.262,4.757-3.411,5.236s2.94-.922,4.509-.829,1.912,2.351,2.449,2.651.318-.245,1.031-.584.8.851.612,1.63.816,1.781.816,1.781l.977-1.095c.977-1.095,1.828-5.668,1.355-6.63Q584.742,2629.146,584.679,2629.015Z" fill="#172c55"/>
        <path id="Trazado_194959" data-name="Trazado 194959" d="M582.63,2655.409s-5.439,4.138-11.205,5.045c-.111-2.018-.157-3.873-.111-5.4Z" fill="#0e2b53"/>
        <g id="Grupo_136938" data-name="Grupo 136938">
          <path id="Trazado_194960" data-name="Trazado 194960" d="M549.226,2650.068c-.086-.092-1.2-3.8-3.113-3.529-1.251.176-3.3.9-2.754,2.549.214.649,4.027,2.882,4.027,2.882Z" fill="#f59763"/>
          <path id="Trazado_194961" data-name="Trazado 194961" d="M583.3,2647.412a4.461,4.461,0,0,1-.467,7.912c-.068.029-.136.058-.205.085-5.107,2.049-22.217,2.144-23.75,1.9s-11.737-5-11.737-5,.7-2.574,2.157-2.979c0,0,10.917,2.766,11.693,2.58s17-7.865,19.764-6.068C581.489,2646.313,582.383,2646.862,583.3,2647.412Z" fill="#003880"/>
        </g>
      </g>
      <g id="Grupo_136940" data-name="Grupo 136940">
        <path id="Trazado_194962" data-name="Trazado 194962" d="M698.408,2525.681h-13.62a1.044,1.044,0,0,1-1.041-1.041h0a1.044,1.044,0,0,1,1.041-1.041h13.62a1.044,1.044,0,0,1,1.041,1.041h0A1.044,1.044,0,0,1,698.408,2525.681Z" fill="#e2f0fa"/>
        <path id="Trazado_194963" data-name="Trazado 194963" d="M698.408,2529.748h-13.62a1.044,1.044,0,0,1-1.041-1.041h0a1.044,1.044,0,0,1,1.041-1.041h13.62a1.043,1.043,0,0,1,1.041,1.041h0A1.044,1.044,0,0,1,698.408,2529.748Z" fill="#e2f0fa"/>
        <path id="Trazado_194964" data-name="Trazado 194964" d="M698.408,2533.919h-13.62a1.043,1.043,0,0,1-1.041-1.04h0a1.044,1.044,0,0,1,1.041-1.041h13.62a1.043,1.043,0,0,1,1.041,1.041h0A1.043,1.043,0,0,1,698.408,2533.919Z" fill="#e2f0fa"/>
      </g>
      <path id="Trazado_194965" data-name="Trazado 194965" d="M645.071,2632.127H612.646a1.384,1.384,0,0,1-1.381-1.38h0a1.385,1.385,0,0,1,1.381-1.381h32.425a1.385,1.385,0,0,1,1.38,1.381h0A1.384,1.384,0,0,1,645.071,2632.127Z" fill="#e2f0fa"/>
      <path id="Trazado_194966" data-name="Trazado 194966" d="M486.568,2537.39H454.142a1.384,1.384,0,0,1-1.38-1.38h0a1.384,1.384,0,0,1,1.38-1.381h32.426a1.384,1.384,0,0,1,1.38,1.381h0A1.384,1.384,0,0,1,486.568,2537.39Z" fill="#e2f0fa"/>
      <path id="Trazado_194967" data-name="Trazado 194967" d="M645.071,2645.82H612.646a1.384,1.384,0,0,1-1.381-1.38h0a1.384,1.384,0,0,1,1.381-1.381h32.425a1.384,1.384,0,0,1,1.38,1.381h0A1.384,1.384,0,0,1,645.071,2645.82Z" fill="#e2f0fa"/>
      <path id="Trazado_194968" data-name="Trazado 194968" d="M645.071,2638.973H606.29a1.384,1.384,0,0,1-1.381-1.38h0a1.384,1.384,0,0,1,1.381-1.38h38.781a1.384,1.384,0,0,1,1.38,1.38h0A1.384,1.384,0,0,1,645.071,2638.973Z" fill="#e2f0fa"/>
      <g id="Grupo_136941" data-name="Grupo 136941">
        <rect id="Rectángulo_294884" data-name="Rectángulo 294884" width="20.398" height="2.761" rx="1.38" transform="translate(457.596 2543.308)" fill="#e2f0fa"/>
        <path id="Trazado_194969" data-name="Trazado 194969" d="M451.537,2544.689a1.381,1.381,0,1,1,1.38,1.38A1.38,1.38,0,0,1,451.537,2544.689Z" fill="#e2f0fa"/>
      </g>
      <g id="Grupo_136942" data-name="Grupo 136942">
        <rect id="Rectángulo_294885" data-name="Rectángulo 294885" width="23.959" height="2.76" rx="1.38" transform="translate(457.596 2548.802)" fill="#e2f0fa"/>
        <path id="Trazado_194970" data-name="Trazado 194970" d="M451.537,2550.182a1.381,1.381,0,1,1,1.38,1.38A1.38,1.38,0,0,1,451.537,2550.182Z" fill="#e2f0fa"/>
      </g>
      <g id="Grupo_136943" data-name="Grupo 136943">
        <rect id="Rectángulo_294886" data-name="Rectángulo 294886" width="20.398" height="2.761" rx="1.38" transform="translate(457.596 2554.764)" fill="#e2f0fa"/>
        <path id="Trazado_194971" data-name="Trazado 194971" d="M451.537,2556.145a1.381,1.381,0,1,1,1.38,1.38A1.381,1.381,0,0,1,451.537,2556.145Z" fill="#e2f0fa"/>
      </g>
      <g id="Grupo_136945" data-name="Grupo 136945">
        <g id="Grupo_136944" data-name="Grupo 136944">
          <path id="Trazado_194972" data-name="Trazado 194972" d="M510.225,2549.16a5.027,5.027,0,0,1-.73.046,4.87,4.87,0,0,1-3.346-8.353h0a4.869,4.869,0,1,1,4.076,8.307Zm-3.516-7.733a4.068,4.068,0,1,0,5.752.067,4.072,4.072,0,0,0-5.752-.067Z" fill="#5682c2"/>
        </g>
        <rect id="Rectángulo_294887" data-name="Rectángulo 294887" width="0.802" height="6.646" transform="translate(506.075 2547.172) rotate(45.664)" fill="#5682c2"/>
        <path id="Trazado_194973" data-name="Trazado 194973" d="M499.95,2553.718h0a.717.717,0,0,1,.012-1.013l2.8-2.735a.716.716,0,0,1,1.013.012h0a.715.715,0,0,1-.012,1.012l-2.8,2.736A.717.717,0,0,1,499.95,2553.718Z" fill="#5682c2"/>
      </g>
      <g id="Grupo_136946" data-name="Grupo 136946">
        <path id="Trazado_194974" data-name="Trazado 194974" d="M687.481,2739.155h0a1.6,1.6,0,0,1-1.456-1L648.61,2624.234a.75.75,0,0,1,.793-1.016h0a1.6,1.6,0,0,1,1.456,1l37.415,113.918A.75.75,0,0,1,687.481,2739.155Z" fill="#003e8b"/>
        <path id="Trazado_194975" data-name="Trazado 194975" d="M717.635,2738.981h0a1.6,1.6,0,0,1-1.456-1l-37.415-113.919a.751.751,0,0,1,.793-1.016h0a1.6,1.6,0,0,1,1.456,1l37.415,113.919A.751.751,0,0,1,717.635,2738.981Z" fill="#003e8b"/>
        <path id="Trazado_194976" data-name="Trazado 194976" d="M685.167,2639.933l-30.28.175a1.516,1.516,0,0,1-1.374-.947h0a.71.71,0,0,1,.748-.959l30.28-.175a1.516,1.516,0,0,1,1.375.947h0A.71.71,0,0,1,685.167,2639.933Z" fill="#003e8b"/>
        <path id="Trazado_194977" data-name="Trazado 194977" d="M691.7,2659.823l-30.28.175a1.518,1.518,0,0,1-1.375-.947h0a.71.71,0,0,1,.749-.959l30.28-.175a1.514,1.514,0,0,1,1.374.946h0A.71.71,0,0,1,691.7,2659.823Z" fill="#003e8b"/>
        <path id="Trazado_194978" data-name="Trazado 194978" d="M697.991,2678.979l-30.28.175a1.516,1.516,0,0,1-1.374-.947h0a.71.71,0,0,1,.748-.959l30.28-.175a1.517,1.517,0,0,1,1.375.947h0A.71.71,0,0,1,697.991,2678.979Z" fill="#003e8b"/>
        <path id="Trazado_194979" data-name="Trazado 194979" d="M705.074,2700.545l-30.28.175a1.516,1.516,0,0,1-1.374-.947h0a.71.71,0,0,1,.749-.959l30.279-.175a1.517,1.517,0,0,1,1.375.947h0A.71.71,0,0,1,705.074,2700.545Z" fill="#003e8b"/>
        <path id="Trazado_194980" data-name="Trazado 194980" d="M712.488,2723.117l-30.28.175a1.517,1.517,0,0,1-1.375-.947h0a.71.71,0,0,1,.749-.959l30.28-.175a1.515,1.515,0,0,1,1.374.947h0A.71.71,0,0,1,712.488,2723.117Z" fill="#003e8b"/>
      </g>
      <g id="Grupo_136947" data-name="Grupo 136947">
        <path id="Trazado_194981" data-name="Trazado 194981" d="M647.3,2572.058h0a.441.441,0,0,1-.515-.348l-.485-2.5a.442.442,0,0,1,.348-.515h0a.441.441,0,0,1,.515.348l.485,2.5A.441.441,0,0,1,647.3,2572.058Z" fill="#003e8b"/>
        <rect id="Rectángulo_294888" data-name="Rectángulo 294888" width="0.302" height="3.685" transform="translate(645.687 2564.499) rotate(-10.954)" fill="#003e8b"/>
        <path id="Trazado_194982" data-name="Trazado 194982" d="M645.985,2544.078a11.649,11.649,0,0,0-.89-3.444,4.692,4.692,0,0,0-3.031-1.424c-.447.433,1.32,1.963,1.389,2.527s-.9.174-.433,1.274a8.6,8.6,0,0,0,1.684,2.133Z" fill="#f59763"/>
        <path id="Trazado_194983" data-name="Trazado 194983" d="M644.884,2543.8c.833-.654,1.009-.641,1.009-.641s7.7,6.67,8.449,7.264,12.314,3.948,12.314,3.948l1.838,9.4s-15.648-7.558-17.518-9.1c-3.09-2.549-6.988-9.681-6.988-9.681A2.948,2.948,0,0,1,644.884,2543.8Z" fill="#ed6a0e"/>
        <path id="Trazado_194984" data-name="Trazado 194984" d="M666.9,2634.147s-.132,3.213-.749,3.994l-8.583.05a1.343,1.343,0,0,1,1.283-1.3,5.755,5.755,0,0,0,4.168-3.289C663.979,2631.512,666.9,2634.147,666.9,2634.147Z" fill="#0a2a4e"/>
        <path id="Trazado_194985" data-name="Trazado 194985" d="M683.747,2633.684s.6,4.268-.214,4.343c-.108.01-3.459.064-4.909.088-1.707.029-4.51-.032-4.51-.032a.446.446,0,0,1-.4-.671,1.8,1.8,0,0,1,1.289-.827c1.495-.288,3.985-1.385,4.859-3.383C680.776,2631.1,683.747,2633.684,683.747,2633.684Z" fill="#0a2a4e"/>
        <path id="Trazado_194986" data-name="Trazado 194986" d="M662.442,2589.944s2.386,8.351,9.226,22.852,7.135,21.49,7.135,21.49a6.015,6.015,0,0,0,2.409.22,6.487,6.487,0,0,0,2.535-.822s-.443-17.26-3.674-24.578-3.889-27.344-3.889-27.344Z" fill="#0e2b53"/>
        <path id="Trazado_194987" data-name="Trazado 194987" d="M658.61,2582.759a208.188,208.188,0,0,0,2.048,28.807c2.237,15.877,1.191,23.26,1.191,23.26a4.458,4.458,0,0,0,2.417.425,5.426,5.426,0,0,0,3.229-.891s3.2-15.882,2.284-23.829,4.385-27.268,4.385-27.268Z" fill="#003e8b"/>
        <path id="Trazado_194988" data-name="Trazado 194988" d="M669.183,2552.5l-2.527,1.872L663,2553.6c.05-.333.291-1.714.511-2.964.013-.074.026-.148.039-.22.188-1.064.35-1.978.35-1.978l3.412-1.7,1.272-.634c0,.023-.1,1.181-.112,1.35A10.922,10.922,0,0,0,669.183,2552.5Z" fill="#f59763"/>
        <path id="Trazado_194989" data-name="Trazado 194989" d="M676.422,2584.356c-.826,3.779-18.512,2.12-18.281-.187.009-.077.055-1.144.119-2.584.134-3.113.338-7.978.364-8.358l0-.02c.319-3.212.625-6.354.644-8.406a29.205,29.205,0,0,1,.589-5.252c.3-1.525.67-2.909.991-3.988a4.408,4.408,0,0,1,2.584-2.832,3.949,3.949,0,0,1,.429-.15c2.08-.6,4.961-1.351,5.741-1.122,2.114.621,3.685,4.344,4.8,9.087C676.481,2569.424,676.963,2581.893,676.422,2584.356Z" fill="#f17925"/>
        <path id="Trazado_194990" data-name="Trazado 194990" d="M668.22,2547.51c-.749,1.433-3.541,2.673-4.7,3.129.013-.074.026-.148.039-.22.188-1.064.35-1.978.35-1.978l3.412-1.7C668.07,2546.729,668.529,2546.92,668.22,2547.51Z" fill="#f38850"/>
        <path id="Trazado_194991" data-name="Trazado 194991" d="M662.247,2548.242s6.154,1.919,7.291-1.932,2.7-6.2-1.185-7.585-5.082-.146-5.774,1.048S660.675,2547.643,662.247,2548.242Z" fill="#f59763"/>
        <path id="Trazado_194992" data-name="Trazado 194992" d="M662.82,2539.4s.393,4.481,1.319,4.286,1.768-.338,1.632,1.012-1.421,2.911,1.435,3.15,6.963-7.127,6.178-8.521C671.12,2535.3,659.548,2534.493,662.82,2539.4Z" fill="#0a2a4e"/>
        <path id="Trazado_194993" data-name="Trazado 194993" d="M658.26,2581.585c.134-3.113.338-7.978.364-8.358l0-.02,10.449-6.247S669.479,2581.544,658.26,2581.585Z" fill="#ed6a0e"/>
        <path id="Trazado_194994" data-name="Trazado 194994" d="M649.955,2568.513a27.719,27.719,0,0,0-2.526-1.561,5.315,5.315,0,0,0-1.785-.157c-.061.1-.242.422-.011.53s.518.07.431.146-.954-.338-1.154.1-.376,1.96.642,2.419,3.533.045,3.714.1C650.8,2570.538,649.955,2568.513,649.955,2568.513Z" fill="#f59763"/>
        <path id="Trazado_194995" data-name="Trazado 194995" d="M649.935,2568.125s10.363,1.762,11.282,1.315c1.465-.714-.569-11.229-.569-11.229a3.023,3.023,0,0,1,2.7-2.945c2.419-.488,4.753,1.324,4.753,1.324s2.122,1.9,1.851,4c-.6,4.67-1.536,14.166-4.659,15.622-4.028,1.878-15.684-5.206-15.684-5.206a2.041,2.041,0,0,1-.333-1.358A3.159,3.159,0,0,1,649.935,2568.125Z" fill="#f17925"/>
        <path id="Trazado_194996" data-name="Trazado 194996" d="M642.972,2542.885s-.664-1.318-.77-1.566.152-.194.408-.056.6.9,1,.811C643.919,2542,642.972,2542.885,642.972,2542.885Z" fill="#f59763"/>
      </g>
    </g>
  </g>
</svg>
