<svg xmlns="http://www.w3.org/2000/svg" width="85" height="72.41" viewBox="0 0 85 72.41">
  <g id="Grupo_140246" data-name="Grupo 140246" transform="translate(-180 -803)">
    <path id="Trazado_193373" data-name="Trazado 193373" d="M68.874,45.594H12.524a4.873,4.873,0,0,0-4.873,4.873v60.17a4.873,4.873,0,0,0,4.873,4.873h56.35a4.868,4.868,0,0,0,4.041-2.149c1.231-1.822.708-3.457.832-5.271V50.467A4.873,4.873,0,0,0,68.874,45.594Z" transform="translate(173.619 758.681)" fill="#b9ddfc"/>
    <path id="Trazado_193374" data-name="Trazado 193374" d="M12.676,110.637V50.467a4.873,4.873,0,0,1,4.873-4.873H12.525a4.873,4.873,0,0,0-4.873,4.873v60.17a4.873,4.873,0,0,0,4.873,4.873h5.024A4.873,4.873,0,0,1,12.676,110.637Z" transform="translate(173.618 758.681)" fill="#90cafc"/>
    <path id="Trazado_193375" data-name="Trazado 193375" d="M73.747,50.2a4.873,4.873,0,0,0-4.873-4.873H42.967c-33.554,0-32.137-.508-34.05,1.6A4.856,4.856,0,0,0,7.651,50.2v8.3h66.1Z" transform="translate(173.619 758.951)" fill="#084a93"/>
    <path id="Trazado_193376" data-name="Trazado 193376" d="M12.585,50.222a4.873,4.873,0,0,1,4.873-4.873C13.1,45.37,9.41,44.6,7.9,48.433c-.438,1.111-.358,1.106-.339,10.087h5.024Z" transform="translate(173.71 758.926)" fill="#003d80"/>
    <path id="Trazado_193377" data-name="Trazado 193377" d="M192.9,187.371H135.25a2,2,0,0,1-1.993-1.993V171.925a2,2,0,0,1,1.993-1.993H192.9a2,2,0,0,1,1.993,1.993v13.453A2,2,0,0,1,192.9,187.371Z" transform="translate(68.866 654.984)" fill="#6cebfc"/>
    <path id="Trazado_193378" data-name="Trazado 193378" d="M192.9,334.438H135.25a2,2,0,0,1-1.993-1.993V318.992A2,2,0,0,1,135.25,317H192.9a2,2,0,0,1,1.993,1.993v13.453A2,2,0,0,1,192.9,334.438Z" transform="translate(68.866 532.332)" fill="#ffc545"/>
    <path id="Trazado_193379" data-name="Trazado 193379" d="M138.24,185.378V171.925a2,2,0,0,1,1.993-1.993H135.25a2,2,0,0,0-1.993,1.993v13.453a2,2,0,0,0,1.993,1.993h4.983A2,2,0,0,1,138.24,185.378Z" transform="translate(68.866 654.984)" fill="#00defc"/>
    <path id="Trazado_193380" data-name="Trazado 193380" d="M138.24,332.445V318.992A2,2,0,0,1,140.233,317H135.25a2,2,0,0,0-1.993,1.993v13.453a2,2,0,0,0,1.993,1.993h4.983A2,2,0,0,1,138.24,332.445Z" transform="translate(68.866 532.332)" fill="#ffb30b"/>
    <path id="Trazado_193381" data-name="Trazado 193381" d="M44.83,216.288h2.483a1.246,1.246,0,0,0,0-2.492H44.83a1.246,1.246,0,0,0,0,2.492Z" transform="translate(143.652 618.402)"/>
    <path id="Trazado_193382" data-name="Trazado 193382" d="M44.83,180.269h2.483a1.246,1.246,0,0,0,0-2.492H44.83a1.246,1.246,0,0,0,0,2.492Z" transform="translate(143.652 648.441)"/>
    <path id="Trazado_193383" data-name="Trazado 193383" d="M44.83,252.306h2.483a1.246,1.246,0,1,0,0-2.492H44.83a1.246,1.246,0,1,0,0,2.492Z" transform="translate(143.652 588.364)"/>
    <path id="Trazado_193384" data-name="Trazado 193384" d="M44.83,288.324h2.483a1.246,1.246,0,0,0,0-2.492H44.83a1.246,1.246,0,1,0,0,2.492Z" transform="translate(143.652 558.325)"/>
    <path id="Trazado_193385" data-name="Trazado 193385" d="M44.83,324.342h2.483a1.246,1.246,0,0,0,0-2.492H44.83a1.246,1.246,0,1,0,0,2.492Z" transform="translate(143.652 528.287)"/>
    <path id="Trazado_193386" data-name="Trazado 193386" d="M44.83,360.36h2.483a1.246,1.246,0,0,0,0-2.492H44.83a1.246,1.246,0,0,0,0,2.492Z" transform="translate(143.652 498.248)"/>
    <path id="Trazado_193387" data-name="Trazado 193387" d="M44.83,396.379h2.483a1.246,1.246,0,1,0,0-2.492H44.83a1.246,1.246,0,1,0,0,2.492Z" transform="translate(143.652 468.209)"/>
    <path id="Trazado_193388" data-name="Trazado 193388" d="M178.042,342.051a1.246,1.246,0,0,0-1.762,0l-3.074,3.074a1.246,1.246,0,0,0,0,1.762l3.074,3.074a1.246,1.246,0,1,0,1.762-1.762l-2.194-2.193,2.194-2.193A1.246,1.246,0,0,0,178.042,342.051Z" transform="translate(35.853 511.744)"/>
    <path id="Trazado_193389" data-name="Trazado 193389" d="M255.365,342.051a1.246,1.246,0,0,0-1.762,1.762l2.194,2.193L253.6,348.2a1.246,1.246,0,0,0,1.762,1.762l3.074-3.074a1.246,1.246,0,0,0,0-1.762Z" transform="translate(-31.197 511.744)"/>
    <path id="Trazado_193390" data-name="Trazado 193390" d="M216.211,333.359a1.246,1.246,0,0,0-1.6.744l-3.453,9.487a1.246,1.246,0,1,0,2.341.852l3.453-9.487A1.245,1.245,0,0,0,216.211,333.359Z" transform="translate(3.957 518.751)"/>
    <path id="Trazado_193391" data-name="Trazado 193391" d="M45.98,78.367a1.262,1.262,0,0,0-.115-.214,1.245,1.245,0,0,0-1.917-.19,1.205,1.205,0,0,0-.269.4,1.173,1.173,0,0,0-.071.232,1.221,1.221,0,0,0-.025.244,1.247,1.247,0,0,0,1.246,1.246,1.235,1.235,0,0,0,.244-.025,1.143,1.143,0,0,0,.232-.071,1.242,1.242,0,0,0,.216-.115,1.218,1.218,0,0,0,.189-.154,1.256,1.256,0,0,0,.364-.88,1.235,1.235,0,0,0-.025-.244A1.338,1.338,0,0,0,45.98,78.367Z" transform="translate(143.652 731.989)" fill="#fff"/>
    <path id="Trazado_193392" data-name="Trazado 193392" d="M70.26,77.6a1.247,1.247,0,1,0,.882.365A1.254,1.254,0,0,0,70.26,77.6Z" transform="translate(122.443 731.988)" fill="#fff"/>
    <path id="Trazado_193393" data-name="Trazado 193393" d="M96.852,78.366a1.263,1.263,0,0,0-.115-.214,1.075,1.075,0,0,0-.154-.19,1.3,1.3,0,0,0-.189-.156,1.309,1.309,0,0,0-.214-.115,1.463,1.463,0,0,0-.234-.071,1.263,1.263,0,0,0-.487,0,1.4,1.4,0,0,0-.233.071,1.285,1.285,0,0,0-.216.115,1.345,1.345,0,0,0-.19.156,1.157,1.157,0,0,0-.154.19,1.238,1.238,0,0,0-.114.214,1.308,1.308,0,0,0-.072.232,1.353,1.353,0,0,0-.023.244,1.257,1.257,0,0,0,.364.88,1.2,1.2,0,0,0,.19.154,1.287,1.287,0,0,0,.449.186,1.243,1.243,0,0,0,.721-.071,1.227,1.227,0,0,0,.214-.115,1.211,1.211,0,0,0,.189-.154,1.251,1.251,0,0,0,.365-.88,1.223,1.223,0,0,0-.025-.244A1.332,1.332,0,0,0,96.852,78.366Z" transform="translate(101.224 731.99)" fill="#fff"/>
    <path id="Trazado_193394" data-name="Trazado 193394" d="M156.649,77.6h-29.7a1.246,1.246,0,0,0,0,2.492h29.7a1.246,1.246,0,0,0,0-2.492Z" transform="translate(75.169 731.989)" fill="#fff"/>
    <path id="Trazado_193395" data-name="Trazado 193395" d="M337.348,77.6h-5.094a1.246,1.246,0,1,0,0,2.492h5.094a1.246,1.246,0,1,0,0-2.492Z" transform="translate(-96.056 731.989)" fill="#fff"/>
    <path id="Trazado_193396" data-name="Trazado 193396" d="M325.836,235.29h16.343a1.246,1.246,0,0,0,0-2.492H325.836a1.246,1.246,0,0,0,0,2.492Z" transform="translate(-90.703 602.555)"/>
    <path id="Trazado_193397" data-name="Trazado 193397" d="M358.53,199.272a1.246,1.246,0,1,0,0-2.492H353.8a1.246,1.246,0,1,0,0,2.492Z" transform="translate(-114.022 632.594)"/>
    <path id="Trazado_193398" data-name="Trazado 193398" d="M418.78,196.78h-7.7a1.246,1.246,0,1,0,0,2.492h7.7a1.246,1.246,0,0,0,0-2.492Z" transform="translate(-161.792 632.594)"/>
    <path id="Trazado_193399" data-name="Trazado 193399" d="M243.715,198.026a1.246,1.246,0,0,0-1.246-1.246H226.732a1.246,1.246,0,0,0,0,2.492H242.47A1.246,1.246,0,0,0,243.715,198.026Z" transform="translate(-8.052 632.594)"/>
    <path id="Trazado_193400" data-name="Trazado 193400" d="M269.494,232.8a1.246,1.246,0,0,0,0,2.492h4.734a1.246,1.246,0,0,0,0-2.492Z" transform="translate(-43.715 602.554)"/>
    <path id="Trazado_193401" data-name="Trazado 193401" d="M225.368,232.8a1.246,1.246,0,1,0,0,2.492h2.483a1.246,1.246,0,1,0,0-2.492Z" transform="translate(-6.914 602.554)"/>
    <path id="Trazado_193402" data-name="Trazado 193402" d="M175.569,232.8h-2.483a1.246,1.246,0,1,0,0,2.492h2.483a1.246,1.246,0,1,0,0-2.492Z" transform="translate(36.688 602.554)"/>
    <path id="Trazado_193403" data-name="Trazado 193403" d="M175.569,196.78h-2.483a1.246,1.246,0,0,0,0,2.492h2.483a1.246,1.246,0,0,0,0-2.492Z" transform="translate(36.688 632.594)"/>
    <path id="Trazado_193404" data-name="Trazado 193404" d="M458.519,233.353a1.148,1.148,0,0,0-.154-.19,1.213,1.213,0,0,0-.19-.156,1.212,1.212,0,0,0-.449-.184,1.2,1.2,0,0,0-.487,0,1.254,1.254,0,0,0-.233.07,1.358,1.358,0,0,0-.216.115,1.324,1.324,0,0,0-.189.156,1.242,1.242,0,0,0-.364.881,1.354,1.354,0,0,0,.023.244,1.24,1.24,0,0,0,.071.232,1.262,1.262,0,0,0,.115.214,1.239,1.239,0,0,0,.154.19,1.284,1.284,0,0,0,.189.156,1.331,1.331,0,0,0,.216.115,1.252,1.252,0,0,0,.233.07,1.218,1.218,0,0,0,.244.025,1.2,1.2,0,0,0,.243-.025,1.312,1.312,0,0,0,.234-.07,1.337,1.337,0,0,0,.214-.115,1.247,1.247,0,0,0,.19-.156,1.071,1.071,0,0,0,.154-.19,1.269,1.269,0,0,0,.186-.447,1.211,1.211,0,0,0,0-.487,1.257,1.257,0,0,0-.186-.448Z" transform="translate(-200.496 602.555)"/>
    <path id="Trazado_193405" data-name="Trazado 193405" d="M81.76,78.493A3.243,3.243,0,0,0,85,75.254V61.8a3.243,3.243,0,0,0-3.239-3.239H78.284a1.246,1.246,0,1,0,0,2.492H81.76a.757.757,0,0,1,.747.747V75.254A.757.757,0,0,1,81.76,76H24.106a.757.757,0,0,1-.747-.747V61.8a.757.757,0,0,1,.747-.747H72.471a1.246,1.246,0,0,0,0-2.492H68.6V44.039a6.126,6.126,0,0,0-6.119-6.119c-59.946.009-56.319-.018-56.812.019A6.123,6.123,0,0,0,.225,42.451C-.085,43.606.015,43.7.015,59.477a1.246,1.246,0,1,0,2.492,0V53.584h63.6v4.979h-42A3.243,3.243,0,0,0,20.867,61.8V75.254a3.243,3.243,0,0,0,3.239,3.239h42v4.484h-42a3.243,3.243,0,0,0-3.239,3.239V99.67a3.243,3.243,0,0,0,3.239,3.239h42v1.3a3.631,3.631,0,0,1-3.627,3.627H19.833a1.246,1.246,0,1,0,0,2.492H62.484A6.126,6.126,0,0,0,68.6,104.21v-1.3H81.76A3.243,3.243,0,0,0,85,99.67V86.217a3.243,3.243,0,0,0-3.239-3.239H68.6V78.493ZM2.506,51.092c.005-7.3-.381-8.3,1.181-9.728a3.623,3.623,0,0,1,2.447-.952h56.35a3.631,3.631,0,0,1,3.627,3.627v7.053ZM81.76,85.469a.757.757,0,0,1,.747.747V99.67a.757.757,0,0,1-.747.747H24.106a.757.757,0,0,1-.747-.747V86.217a.757.757,0,0,1,.747-.747Z" transform="translate(180.001 765.081)"/>
    <path id="Trazado_193406" data-name="Trazado 193406" d="M14.1,239.079H6.212a3.631,3.631,0,0,1-3.627-3.627v-38.92a1.246,1.246,0,1,0-2.492,0v38.92a6.126,6.126,0,0,0,6.119,6.119H14.1a1.246,1.246,0,1,0,0-2.492Z" transform="translate(179.922 633.84)"/>
  </g>
</svg>
