<svg xmlns="http://www.w3.org/2000/svg" width="274.909" height="274.08" viewBox="0 0 274.909 274.08">
  <g id="Grupo_140213" data-name="Grupo 140213" transform="translate(-1125 -1401.667)">
    <g id="Grupo_133168" data-name="Grupo 133168" transform="translate(1335 1404.807)" opacity="0.36">
      <g id="Grupo_132229" data-name="Grupo 132229" transform="translate(0)">
        <g id="Grupo_132228" data-name="Grupo 132228">
          <g id="Grupo_132227" data-name="Grupo 132227">
            <g id="Grupo_132226" data-name="Grupo 132226">
              <g id="Grupo_132225" data-name="Grupo 132225">
                <path id="Trazado_192217" data-name="Trazado 192217" d="M-884.146,1502.627a22.557,22.557,0,0,1,4.569-3.9l-.509-5.546,8.763-2.848,2.849,4.786a22.533,22.533,0,0,1,5.988.469l3.56-4.281,8.211,4.184-1.368,5.4a22.571,22.571,0,0,1,3.9,4.569l5.545-.509,2.848,8.762-4.785,2.85a22.6,22.6,0,0,1-.469,5.988l4.279,3.561-4.182,8.211-5.4-1.369a22.547,22.547,0,0,1-4.569,3.9l.509,5.546-8.763,2.849-2.849-4.786a22.566,22.566,0,0,1-5.989-.469l-3.561,4.28-8.21-4.182,1.368-5.4a22.527,22.527,0,0,1-3.9-4.57l-5.546.509-2.847-8.762,4.785-2.85a22.593,22.593,0,0,1,.469-5.988l-4.28-3.561,4.182-8.21,5.4,1.369Zm8.284,10.3a9.884,9.884,0,0,0,4.321,13.293,9.883,9.883,0,0,0,13.293-4.321,9.885,9.885,0,0,0-4.321-13.294A9.886,9.886,0,0,0-875.862,1512.928Z" transform="translate(894.699 -1490.333)" fill="#d8d8d8"/>
              </g>
            </g>
          </g>
        </g>
      </g>
    </g>
    <g id="Grupo_133169" data-name="Grupo 133169" transform="translate(1366.216 1465.776)" opacity="0.36">
      <g id="Grupo_132229-2" data-name="Grupo 132229" transform="translate(0)">
        <g id="Grupo_132228-2" data-name="Grupo 132228">
          <g id="Grupo_132227-2" data-name="Grupo 132227">
            <g id="Grupo_132226-2" data-name="Grupo 132226">
              <g id="Grupo_132225-2" data-name="Grupo 132225">
                <path id="Trazado_192217-2" data-name="Trazado 192217" d="M-888.224,1497.877a13.837,13.837,0,0,1,2.8-2.393l-.312-3.4,5.377-1.748,1.748,2.937a13.83,13.83,0,0,1,3.674.288l2.185-2.627,5.038,2.567-.84,3.311a13.848,13.848,0,0,1,2.393,2.8l3.4-.312,1.748,5.377-2.936,1.749a13.872,13.872,0,0,1-.288,3.674l2.626,2.185-2.566,5.038-3.311-.84a13.837,13.837,0,0,1-2.8,2.393l.312,3.4-5.377,1.748-1.748-2.937a13.842,13.842,0,0,1-3.675-.288l-2.185,2.626-5.038-2.566.839-3.311a13.819,13.819,0,0,1-2.393-2.8l-3.4.312-1.747-5.377,2.936-1.749a13.863,13.863,0,0,1,.288-3.674l-2.626-2.185,2.566-5.038,3.311.84Zm5.083,6.321a6.065,6.065,0,0,0,2.652,8.157,6.064,6.064,0,0,0,8.157-2.651,6.066,6.066,0,0,0-2.651-8.157A6.066,6.066,0,0,0-883.14,1504.2Z" transform="translate(894.699 -1490.333)" fill="#d8d8d8"/>
              </g>
            </g>
          </g>
        </g>
      </g>
    </g>
    <g id="Grupo_133170" data-name="Grupo 133170" transform="translate(1334.648 1536.237)" opacity="0.36">
      <g id="Grupo_132229-3" data-name="Grupo 132229" transform="translate(0)">
        <g id="Grupo_132228-3" data-name="Grupo 132228">
          <g id="Grupo_132227-3" data-name="Grupo 132227">
            <g id="Grupo_132226-3" data-name="Grupo 132226">
              <g id="Grupo_132225-3" data-name="Grupo 132225">
                <path id="Trazado_192217-3" data-name="Trazado 192217" d="M-882.157,1504.946a26.8,26.8,0,0,1,5.43-4.635l-.6-6.592,10.415-3.385,3.386,5.688a26.785,26.785,0,0,1,7.117.557l4.231-5.088,9.759,4.973-1.626,6.412a26.818,26.818,0,0,1,4.635,5.431l6.591-.6,3.385,10.415-5.687,3.387a26.869,26.869,0,0,1-.557,7.117l5.086,4.232-4.97,9.759-6.414-1.627a26.8,26.8,0,0,1-5.43,4.635l.6,6.592-10.415,3.386-3.386-5.688a26.81,26.81,0,0,1-7.118-.558l-4.232,5.086-9.758-4.97,1.626-6.413a26.771,26.771,0,0,1-4.635-5.431l-6.592.6-3.384-10.415,5.687-3.387a26.856,26.856,0,0,1,.557-7.116l-5.086-4.232,4.971-9.759,6.413,1.627Zm9.846,12.243a11.747,11.747,0,0,0,5.136,15.8,11.746,11.746,0,0,0,15.8-5.135,11.749,11.749,0,0,0-5.135-15.8A11.75,11.75,0,0,0-872.311,1517.188Z" transform="translate(894.699 -1490.333)" fill="#d8d8d8"/>
              </g>
            </g>
          </g>
        </g>
      </g>
    </g>
    <g id="Grupo_133002" data-name="Grupo 133002" transform="translate(1125 1414.002)">
      <path id="Trazado_192431" data-name="Trazado 192431" d="M-503.56,1850.154c-5.651-.364-10.54,1.058-15.263,3.1a18.07,18.07,0,0,1-6.925,1.573l-6.183-.131V1781.93c0-6.024,5.295-10.907,11.825-10.907h206.369c6.531,0,11.825,4.883,11.825,10.907v191.862c0,4.905-4.311,8.881-9.631,8.881H-522.3c-5.319,0-9.631-3.976-9.631-8.881v-69.337h8.531a16.467,16.467,0,0,1,5.747,1.043,33.968,33.968,0,0,0,11.89,2.139c18.068,0,32.632-13.841,31.9-30.654C-474.5,1862.168-487.523,1851.187-503.56,1850.154Z" transform="translate(532.174 -1770.732)" fill="#d8d8d8"/>
      <g id="Grupo_133001" data-name="Grupo 133001">
        <path id="Trazado_192432" data-name="Trazado 192432" d="M-503.525,1850.2s.692.091,2.049.242a22.848,22.848,0,0,1,2.513.4,30.989,30.989,0,0,1,3.427.827,34.376,34.376,0,0,1,8.972,4.124,24.181,24.181,0,0,1,2.471,1.8c.406.338.837.662,1.244,1.028l1.2,1.165.612.6.565.662,1.152,1.359a29.168,29.168,0,0,1,2.04,3.116,27.812,27.812,0,0,1,1.7,3.555,26.981,26.981,0,0,1,1.12,4,25.618,25.618,0,0,1,.229,8.911,27.294,27.294,0,0,1-3.028,9.258,30.233,30.233,0,0,1-6.629,8.21,33.108,33.108,0,0,1-21.645,8.036,34.248,34.248,0,0,1-12.652-2.349,16.8,16.8,0,0,0-3.32-.73,29.243,29.243,0,0,0-3.431-.109l-6.962,0h-.2v.2q-.01,16.294-.023,34.566-.005,9.123-.01,18.7,0,4.79,0,9.69l0,4.927a23.041,23.041,0,0,0,.071,2.51,9.138,9.138,0,0,0,.692,2.466,9.907,9.907,0,0,0,8.2,5.559c3.448.087,6.863.027,10.348.047l21.259.01,44.781.015,97.446.021,25.761,0c4.346-.02,8.661.049,13.088-.046a10.408,10.408,0,0,0,6.075-2.711,8.8,8.8,0,0,0,2.82-6.035q.012-26.469.023-53.75c0-26.292,0-52.092,0-77.237q0-18.859-.006-37.207,0-9.168,0-18.2,0-2.257,0-4.5a13.348,13.348,0,0,0-.5-4.525,11.435,11.435,0,0,0-5.876-6.692,12.616,12.616,0,0,0-4.331-1.254c-1.515-.135-2.967-.062-4.438-.081l-8.761,0-17.278,0-33.531.01-62.533.024-55.681.03-24.966.016A12.5,12.5,0,0,0-529.9,1775.6a10.723,10.723,0,0,0-2.125,5.276c-.119,1.9-.03,3.714-.056,5.539.035,29.073.063,52.281.082,68.329v.1l.1,0c2.437.033,4.71.124,6.846.1a18.3,18.3,0,0,0,5.761-1.352,41.416,41.416,0,0,1,8.585-2.858,28.07,28.07,0,0,1,5.38-.562c.6-.007,1.051.006,1.351.019s.45.007.45.007a17.427,17.427,0,0,0-1.8-.078,27.148,27.148,0,0,0-5.4.511,41.16,41.16,0,0,0-8.622,2.818,18.17,18.17,0,0,1-5.713,1.317c-2.114.016-4.4-.083-6.832-.124l.1.1c.02-16.048.047-39.257.082-68.329.028-1.808-.055-3.68.063-5.5a10.342,10.342,0,0,1,2.057-5.083,12.1,12.1,0,0,1,10.116-4.563l24.966.017,55.681.029,62.533.024,33.531.009q8.556,0,17.278,0l8.761,0c1.46.018,2.956-.049,4.376.08a12.023,12.023,0,0,1,4.135,1.2,10.854,10.854,0,0,1,5.58,6.352,12.772,12.772,0,0,1,.471,4.348q0,2.247,0,4.5,0,9.026,0,18.2,0,18.338,0,37.207c0,25.145,0,50.945,0,77.237q-.009,27.239-.019,53.722a8.2,8.2,0,0,1-2.631,5.625,9.8,9.8,0,0,1-5.716,2.549c-4.315.09-8.711.026-13.032.047l-25.761,0-97.446.021-44.781.015-21.259.01c-3.467-.017-6.941.043-10.306-.036a9.419,9.419,0,0,1-7.8-5.267,8.656,8.656,0,0,1-.656-2.325,22.916,22.916,0,0,1-.069-2.451l0-4.927q0-4.9-.006-9.69-.005-9.579-.01-18.7-.012-18.245-.022-34.566l-.2.2,6.962,0a28.943,28.943,0,0,1,3.386.1,16.4,16.4,0,0,1,3.246.709,34.577,34.577,0,0,0,12.771,2.347,33.434,33.434,0,0,0,21.851-8.157,30.536,30.536,0,0,0,6.677-8.308,27.541,27.541,0,0,0,3.037-9.359,25.855,25.855,0,0,0-.255-9,27.057,27.057,0,0,0-1.144-4.035,27.951,27.951,0,0,0-1.731-3.581,29.351,29.351,0,0,0-2.067-3.133q-.591-.693-1.166-1.365l-.571-.664-.617-.6-1.21-1.167c-.41-.367-.845-.691-1.256-1.029a24.177,24.177,0,0,0-2.491-1.8,34.218,34.218,0,0,0-9.032-4.093,30.228,30.228,0,0,0-3.444-.8,21.635,21.635,0,0,0-2.521-.377C-502.83,1850.25-503.525,1850.2-503.525,1850.2Z" transform="translate(532.138 -1770.774)" fill="#1c262b"/>
      </g>
    </g>
    <g id="Grupo_133157" data-name="Grupo 133157" transform="translate(1199.491 1401.667)">
      <g id="Grupo_133009" data-name="Grupo 133009" transform="translate(68.93 16.746)">
        <g id="Grupo_133008" data-name="Grupo 133008">
          <g id="Grupo_133007" data-name="Grupo 133007">
            <g id="Grupo_133006" data-name="Grupo 133006">
              <g id="Grupo_133005" data-name="Grupo 133005">
                <g id="Grupo_133004" data-name="Grupo 133004">
                  <g id="Grupo_133003" data-name="Grupo 133003">
                    <path id="Trazado_192433" data-name="Trazado 192433" d="M-404.279,1836.868c2.88-8.506,5.726-17.076,7.1-25.949s1.218-18.143-1.807-26.6c-.458-1.282-4.4-9.89-5.753-9.773-.969.084,1.424,8.1.924,8.933-4.771,7.967-6.159,17.6-5.526,26.864a121.617,121.617,0,0,0,5.062,26.524" transform="translate(409.485 -1774.546)" fill="#1c262b"/>
                  </g>
                </g>
              </g>
            </g>
          </g>
        </g>
      </g>
      <g id="Grupo_133017" data-name="Grupo 133017" transform="translate(0 2.602)">
        <g id="Grupo_133016" data-name="Grupo 133016">
          <g id="Grupo_133015" data-name="Grupo 133015">
            <g id="Grupo_133014" data-name="Grupo 133014">
              <g id="Grupo_133013" data-name="Grupo 133013">
                <g id="Grupo_133012" data-name="Grupo 133012">
                  <g id="Grupo_133011" data-name="Grupo 133011">
                    <g id="Grupo_133010" data-name="Grupo 133010">
                      <path id="Trazado_192434" data-name="Trazado 192434" d="M-395.231,1885.372l2.238-80.7c1.007-22.5-11.247-41.836-33.764-42.219l-2.083.085a40.259,40.259,0,0,0-38.573,38.641c-.765,19.5-1.36,41.065-.8,51.49,1.159,21.579,22.892,24.045,22.892,24.045.049,0,.193,22.419.181,28.762l15.339,16.289-.884-4.932Z" transform="translate(468.434 -1762.45)" fill="#f8ae8b"/>
                    </g>
                  </g>
                </g>
              </g>
            </g>
          </g>
        </g>
      </g>
      <g id="Grupo_133026" data-name="Grupo 133026" transform="translate(23.112 107.39)">
        <g id="Grupo_133025" data-name="Grupo 133025">
          <g id="Grupo_133024" data-name="Grupo 133024">
            <g id="Grupo_133023" data-name="Grupo 133023">
              <g id="Grupo_133022" data-name="Grupo 133022">
                <g id="Grupo_133021" data-name="Grupo 133021">
                  <g id="Grupo_133020" data-name="Grupo 133020">
                    <g id="Grupo_133019" data-name="Grupo 133019">
                      <g id="Grupo_133018" data-name="Grupo 133018">
                        <path id="Trazado_192435" data-name="Trazado 192435" d="M-448.668,1861.538s13.642.236,27.769-9.473c0,0-6.092,16.512-27.717,15.457Z" transform="translate(448.668 -1852.065)" fill="#f08259"/>
                      </g>
                    </g>
                  </g>
                </g>
              </g>
            </g>
          </g>
        </g>
      </g>
      <g id="Grupo_133041" data-name="Grupo 133041" transform="translate(8.178 56.444)">
        <g id="Grupo_133040" data-name="Grupo 133040">
          <g id="Grupo_133039" data-name="Grupo 133039">
            <g id="Grupo_133038" data-name="Grupo 133038">
              <g id="Grupo_133037" data-name="Grupo 133037">
                <g id="Grupo_133036" data-name="Grupo 133036">
                  <g id="Grupo_133035" data-name="Grupo 133035">
                    <g id="Grupo_133034" data-name="Grupo 133034">
                      <g id="Grupo_133033" data-name="Grupo 133033">
                        <g id="Grupo_133032" data-name="Grupo 133032">
                          <g id="Grupo_133031" data-name="Grupo 133031">
                            <g id="Grupo_133030" data-name="Grupo 133030">
                              <g id="Grupo_133029" data-name="Grupo 133029">
                                <g id="Grupo_133028" data-name="Grupo 133028">
                                  <g id="Grupo_133027" data-name="Grupo 133027">
                                    <path id="Trazado_192436" data-name="Trazado 192436" d="M-461.44,1811.41a3.084,3.084,0,0,0,3.1,2.987,2.95,2.95,0,0,0,3.062-2.911,3.086,3.086,0,0,0-3.1-2.99A2.954,2.954,0,0,0-461.44,1811.41Z" transform="translate(461.44 -1808.496)" fill="#1c262b"/>
                                  </g>
                                </g>
                              </g>
                            </g>
                          </g>
                        </g>
                      </g>
                    </g>
                  </g>
                </g>
              </g>
            </g>
          </g>
        </g>
      </g>
      <g id="Grupo_133057" data-name="Grupo 133057" transform="translate(5.95 47.176)">
        <g id="Grupo_133056" data-name="Grupo 133056">
          <g id="Grupo_133055" data-name="Grupo 133055">
            <g id="Grupo_133054" data-name="Grupo 133054">
              <g id="Grupo_133053" data-name="Grupo 133053">
                <g id="Grupo_133052" data-name="Grupo 133052">
                  <g id="Grupo_133051" data-name="Grupo 133051">
                    <g id="Grupo_133050" data-name="Grupo 133050">
                      <g id="Grupo_133049" data-name="Grupo 133049">
                        <g id="Grupo_133048" data-name="Grupo 133048">
                          <g id="Grupo_133047" data-name="Grupo 133047">
                            <g id="Grupo_133046" data-name="Grupo 133046">
                              <g id="Grupo_133045" data-name="Grupo 133045">
                                <g id="Grupo_133044" data-name="Grupo 133044">
                                  <g id="Grupo_133043" data-name="Grupo 133043">
                                    <g id="Grupo_133042" data-name="Grupo 133042">
                                      <path id="Trazado_192437" data-name="Trazado 192437" d="M-463.29,1804.067c.4.386,2.663-1.439,5.982-1.567,3.311-.177,5.817,1.43,6.16,1.009.17-.187-.249-.9-1.341-1.625a8.469,8.469,0,0,0-4.953-1.306,8.136,8.136,0,0,0-4.74,1.75C-463.171,1803.153-463.486,1803.894-463.29,1804.067Z" transform="translate(463.345 -1800.569)" fill="#1c262b"/>
                                    </g>
                                  </g>
                                </g>
                              </g>
                            </g>
                          </g>
                        </g>
                      </g>
                    </g>
                  </g>
                </g>
              </g>
            </g>
          </g>
        </g>
      </g>
      <g id="Grupo_133072" data-name="Grupo 133072" transform="translate(37.678 56.444)">
        <g id="Grupo_133071" data-name="Grupo 133071">
          <g id="Grupo_133070" data-name="Grupo 133070">
            <g id="Grupo_133069" data-name="Grupo 133069">
              <g id="Grupo_133068" data-name="Grupo 133068">
                <g id="Grupo_133067" data-name="Grupo 133067">
                  <g id="Grupo_133066" data-name="Grupo 133066">
                    <g id="Grupo_133065" data-name="Grupo 133065">
                      <g id="Grupo_133064" data-name="Grupo 133064">
                        <g id="Grupo_133063" data-name="Grupo 133063">
                          <g id="Grupo_133062" data-name="Grupo 133062">
                            <g id="Grupo_133061" data-name="Grupo 133061">
                              <g id="Grupo_133060" data-name="Grupo 133060">
                                <g id="Grupo_133059" data-name="Grupo 133059">
                                  <g id="Grupo_133058" data-name="Grupo 133058">
                                    <path id="Trazado_192438" data-name="Trazado 192438" d="M-436.211,1811.41a3.086,3.086,0,0,0,3.1,2.987,2.951,2.951,0,0,0,3.064-2.911,3.089,3.089,0,0,0-3.1-2.99A2.955,2.955,0,0,0-436.211,1811.41Z" transform="translate(436.211 -1808.496)" fill="#1c262b"/>
                                  </g>
                                </g>
                              </g>
                            </g>
                          </g>
                        </g>
                      </g>
                    </g>
                  </g>
                </g>
              </g>
            </g>
          </g>
        </g>
      </g>
      <g id="Grupo_133088" data-name="Grupo 133088" transform="translate(38.506 46.602)">
        <g id="Grupo_133087" data-name="Grupo 133087">
          <g id="Grupo_133086" data-name="Grupo 133086">
            <g id="Grupo_133085" data-name="Grupo 133085">
              <g id="Grupo_133084" data-name="Grupo 133084">
                <g id="Grupo_133083" data-name="Grupo 133083">
                  <g id="Grupo_133082" data-name="Grupo 133082">
                    <g id="Grupo_133081" data-name="Grupo 133081">
                      <g id="Grupo_133080" data-name="Grupo 133080">
                        <g id="Grupo_133079" data-name="Grupo 133079">
                          <g id="Grupo_133078" data-name="Grupo 133078">
                            <g id="Grupo_133077" data-name="Grupo 133077">
                              <g id="Grupo_133076" data-name="Grupo 133076">
                                <g id="Grupo_133075" data-name="Grupo 133075">
                                  <g id="Grupo_133074" data-name="Grupo 133074">
                                    <g id="Grupo_133073" data-name="Grupo 133073">
                                      <path id="Trazado_192439" data-name="Trazado 192439" d="M-435.449,1803.575c.4.387,2.667-1.438,5.983-1.567,3.312-.175,5.817,1.431,6.161,1.01.168-.188-.247-.9-1.344-1.625a8.462,8.462,0,0,0-4.952-1.306,8.152,8.152,0,0,0-4.74,1.749C-435.326,1802.662-435.643,1803.4-435.449,1803.575Z" transform="translate(435.503 -1800.078)" fill="#1c262b"/>
                                    </g>
                                  </g>
                                </g>
                              </g>
                            </g>
                          </g>
                        </g>
                      </g>
                    </g>
                  </g>
                </g>
              </g>
            </g>
          </g>
        </g>
      </g>
      <g id="Grupo_133103" data-name="Grupo 133103" transform="translate(19.156 48.377)">
        <g id="Grupo_133102" data-name="Grupo 133102">
          <g id="Grupo_133101" data-name="Grupo 133101">
            <g id="Grupo_133100" data-name="Grupo 133100">
              <g id="Grupo_133099" data-name="Grupo 133099">
                <g id="Grupo_133098" data-name="Grupo 133098">
                  <g id="Grupo_133097" data-name="Grupo 133097">
                    <g id="Grupo_133096" data-name="Grupo 133096">
                      <g id="Grupo_133095" data-name="Grupo 133095">
                        <g id="Grupo_133094" data-name="Grupo 133094">
                          <g id="Grupo_133093" data-name="Grupo 133093">
                            <g id="Grupo_133092" data-name="Grupo 133092">
                              <g id="Grupo_133091" data-name="Grupo 133091">
                                <g id="Grupo_133090" data-name="Grupo 133090">
                                  <g id="Grupo_133089" data-name="Grupo 133089">
                                    <path id="Trazado_192440" data-name="Trazado 192440" d="M-443.5,1829.305c.008-.189-2.07-.461-5.429-.749-.851-.053-1.659-.187-1.827-.76a4.326,4.326,0,0,1,.462-2.535q1.068-3.124,2.239-6.554c3.1-9.33,5.308-16.986,4.93-17.108s-3.195,7.342-6.294,16.671c-.744,2.3-1.456,4.491-2.133,6.589a4.914,4.914,0,0,0-.3,3.343,2.123,2.123,0,0,0,1.444,1.181,5.745,5.745,0,0,0,1.448.141C-445.588,1829.565-443.5,1829.495-443.5,1829.305Z" transform="translate(452.051 -1801.597)" fill="#1c262b"/>
                                  </g>
                                </g>
                              </g>
                            </g>
                          </g>
                        </g>
                      </g>
                    </g>
                  </g>
                </g>
              </g>
            </g>
          </g>
        </g>
      </g>
      <g id="Grupo_133114" data-name="Grupo 133114" transform="translate(37.013 35.925)">
        <g id="Grupo_133113" data-name="Grupo 133113">
          <g id="Grupo_133112" data-name="Grupo 133112">
            <g id="Grupo_133111" data-name="Grupo 133111">
              <g id="Grupo_133110" data-name="Grupo 133110">
                <g id="Grupo_133109" data-name="Grupo 133109">
                  <g id="Grupo_133108" data-name="Grupo 133108">
                    <g id="Grupo_133107" data-name="Grupo 133107">
                      <g id="Grupo_133106" data-name="Grupo 133106">
                        <g id="Grupo_133105" data-name="Grupo 133105">
                          <g id="Grupo_133104" data-name="Grupo 133104">
                            <path id="Trazado_192441" data-name="Trazado 192441" d="M-436.736,1794.788c.485.828,3.668-.2,7.584-.441,3.913-.326,7.209.225,7.57-.664.156-.423-.537-1.16-1.945-1.788a12.626,12.626,0,0,0-5.871-.911,12.626,12.626,0,0,0-5.675,1.753C-436.373,1793.564-436.953,1794.391-436.736,1794.788Z" transform="translate(436.78 -1790.948)" fill="#1c262b"/>
                          </g>
                        </g>
                      </g>
                    </g>
                  </g>
                </g>
              </g>
            </g>
          </g>
        </g>
      </g>
      <g id="Grupo_133125" data-name="Grupo 133125" transform="translate(5.341 37.302)">
        <g id="Grupo_133124" data-name="Grupo 133124">
          <g id="Grupo_133123" data-name="Grupo 133123">
            <g id="Grupo_133122" data-name="Grupo 133122">
              <g id="Grupo_133121" data-name="Grupo 133121">
                <g id="Grupo_133120" data-name="Grupo 133120">
                  <g id="Grupo_133119" data-name="Grupo 133119">
                    <g id="Grupo_133118" data-name="Grupo 133118">
                      <g id="Grupo_133117" data-name="Grupo 133117">
                        <g id="Grupo_133116" data-name="Grupo 133116">
                          <g id="Grupo_133115" data-name="Grupo 133115">
                            <path id="Trazado_192442" data-name="Trazado 192442" d="M-463.757,1795.749c.71.736,3.392-.119,6.642-.242,3.244-.217,6.015.349,6.628-.456.268-.391-.186-1.134-1.407-1.816a10.458,10.458,0,0,0-5.433-1.093,10.317,10.317,0,0,0-5.26,1.654C-463.714,1794.6-464.072,1795.389-463.757,1795.749Z" transform="translate(463.866 -1792.125)" fill="#1c262b"/>
                          </g>
                        </g>
                      </g>
                    </g>
                  </g>
                </g>
              </g>
            </g>
          </g>
        </g>
      </g>
      <g id="Grupo_133132" data-name="Grupo 133132" transform="translate(74.338 59.991)">
        <g id="Grupo_133131" data-name="Grupo 133131">
          <g id="Grupo_133130" data-name="Grupo 133130">
            <g id="Grupo_133129" data-name="Grupo 133129">
              <g id="Grupo_133128" data-name="Grupo 133128">
                <g id="Grupo_133127" data-name="Grupo 133127">
                  <g id="Grupo_133126" data-name="Grupo 133126">
                    <path id="Trazado_192443" data-name="Trazado 192443" d="M-404.86,1812.42c.361-.176,14.654-5,14.792,9.779s-14.729,11.87-14.759,11.446S-404.86,1812.42-404.86,1812.42Z" transform="translate(404.86 -1811.53)" fill="#f8ae8b"/>
                  </g>
                </g>
              </g>
            </g>
          </g>
        </g>
      </g>
      <g id="Grupo_133140" data-name="Grupo 133140" transform="translate(78.82 64.746)">
        <g id="Grupo_133139" data-name="Grupo 133139">
          <g id="Grupo_133138" data-name="Grupo 133138">
            <g id="Grupo_133137" data-name="Grupo 133137">
              <g id="Grupo_133136" data-name="Grupo 133136">
                <g id="Grupo_133135" data-name="Grupo 133135">
                  <g id="Grupo_133134" data-name="Grupo 133134">
                    <g id="Grupo_133133" data-name="Grupo 133133">
                      <path id="Trazado_192444" data-name="Trazado 192444" d="M-401.013,1827.316c.064-.048.258.177.7.373a2.578,2.578,0,0,0,1.925.021c1.556-.587,2.848-3.079,2.9-5.744a8.514,8.514,0,0,0-.755-3.68,2.979,2.979,0,0,0-1.955-1.958,1.311,1.311,0,0,0-1.513.72c-.194.415-.1.71-.177.735-.04.037-.319-.244-.206-.856a1.648,1.648,0,0,1,.573-.932,1.948,1.948,0,0,1,1.421-.389,3.617,3.617,0,0,1,2.711,2.266,8.747,8.747,0,0,1,.932,4.111c-.068,2.979-1.566,5.781-3.7,6.418a2.759,2.759,0,0,1-2.359-.37C-400.984,1827.671-401.064,1827.343-401.013,1827.316Z" transform="translate(401.027 -1815.596)" fill="#f08259"/>
                    </g>
                  </g>
                </g>
              </g>
            </g>
          </g>
        </g>
      </g>
      <g id="Grupo_133147" data-name="Grupo 133147" transform="translate(10.097)">
        <g id="Grupo_133146" data-name="Grupo 133146">
          <g id="Grupo_133145" data-name="Grupo 133145">
            <g id="Grupo_133144" data-name="Grupo 133144">
              <g id="Grupo_133143" data-name="Grupo 133143">
                <g id="Grupo_133142" data-name="Grupo 133142">
                  <g id="Grupo_133141" data-name="Grupo 133141">
                    <path id="Trazado_192445" data-name="Trazado 192445" d="M-459.326,1777.062c-2.394-1.318,4.781-9.069,10.658-11.74,8.883-4.035,22.449-6.525,30.642-4.206,9.864,2.791,18.061,7.694,23.017,16.669s6.824,19.432,6.542,29.68c-.086,3.127-.409,6.387-2.078,9.031-2.063,3.269-6.023,5.33-5.847,9.838a6.19,6.19,0,0,1-1.533,4.513c-2.7,2.879-6.013.178-7.535-2.533-3.252-5.787-3.618-12.7-3.907-19.331-.206-4.713-.4-9.529.927-14.057.721-2.464,1.881-4.793,2.466-7.293s.506-5.337-1.051-7.378a9.241,9.241,0,0,0-1.2-1.214,15.413,15.413,0,0,0-15.294-2.9c-8.322,2.95-22.534,7.355-26.248,4.532-5.344-4.061-6.622-6.71-6.622-6.71Z" transform="translate(459.798 -1760.225)" fill="#1c262b"/>
                  </g>
                </g>
              </g>
            </g>
          </g>
        </g>
      </g>
      <g id="Grupo_133156" data-name="Grupo 133156" transform="translate(28.129 78.139)">
        <g id="Grupo_133155" data-name="Grupo 133155">
          <g id="Grupo_133154" data-name="Grupo 133154">
            <g id="Grupo_133153" data-name="Grupo 133153">
              <g id="Grupo_133152" data-name="Grupo 133152">
                <g id="Grupo_133151" data-name="Grupo 133151">
                  <g id="Grupo_133150" data-name="Grupo 133150">
                    <g id="Grupo_133149" data-name="Grupo 133149">
                      <g id="Grupo_133148" data-name="Grupo 133148">
                        <path id="Trazado_192446" data-name="Trazado 192446" d="M-434.373,1827.05c-.509-.032-.531,3.362-3.446,5.758s-6.527,2.006-6.556,2.481c-.048.213.8.663,2.329.711a8.454,8.454,0,0,0,5.472-1.878,7.369,7.369,0,0,0,2.672-4.829C-433.766,1827.874-434.141,1827.031-434.373,1827.05Z" transform="translate(444.378 -1827.05)" fill="#1c262b"/>
                      </g>
                    </g>
                  </g>
                </g>
              </g>
            </g>
          </g>
        </g>
      </g>
    </g>
    <g id="Grupo_133158" data-name="Grupo 133158" transform="translate(1238.973 1522.473)" opacity="0.3">
      <path id="Trazado_192447" data-name="Trazado 192447" d="M-434.291,1886.375c1.823-3.052,3.9-5.286,5.723-8.34.145-.241,1.034-1.186.925-1.445a9.282,9.282,0,0,1,1.235,1.493c1.864,2.861,4.8,5.49,6.763,8.016l24.828-22.561a166.7,166.7,0,0,1-22.953,26.595,3.1,3.1,0,0,1-2.335.923,3.671,3.671,0,0,1-2.212-1.59q-1.889-2.287-3.78-4.573a2.145,2.145,0,0,0-1.055-.829,2.165,2.165,0,0,0-1.7.644l-3.821,2.944c-.536.413-1.36.809-1.809.3C-434.865,1887.527-434.584,1886.865-434.291,1886.375Z" transform="translate(434.669 -1863.538)" fill="#040405"/>
    </g>
    <g id="Grupo_133166" data-name="Grupo 133166" transform="translate(1150.518 1509.438)">
      <path id="Trazado_192448" data-name="Trazado 192448" d="M-393.268,1864.383s34.711-8.937,54.6,13.565a42.1,42.1,0,0,1,10.123,30.81c-.527,7.672-1.282,18.747-1.959,28.947-1.192,17.971-5.126,62.361-14.629,72.947s-35.059,5.437-44.026,1.914-22.881-2.527-29.76-9.035-17.183-10.52-27.964-14.826-6.47-10.018-6.47-10.018l16.12-34.106,58.423,11.667s2.405-22.486-.091-29.265-6.712-15.593-8.074-25.94S-393.268,1864.383-393.268,1864.383Z" transform="translate(519.816 -1850.656)" fill="#41b8df"/>
      <g id="Grupo_133159" data-name="Grupo 133159" transform="translate(140.316 105.284)">
        <path id="Trazado_192449" data-name="Trazado 192449" d="M-390.317,1942.436c-.04.109,1.588.675,4,2.012a33.125,33.125,0,0,1,4.033,2.657,36.1,36.1,0,0,1,4.335,4.01,36.1,36.1,0,0,1,3.544,4.724,33.034,33.034,0,0,1,2.229,4.284c1.083,2.535,1.479,4.213,1.591,4.184a4.6,4.6,0,0,0-.206-1.194,11.653,11.653,0,0,0-.372-1.372c-.172-.527-.339-1.139-.615-1.781a29.038,29.038,0,0,0-2.148-4.413,33.29,33.29,0,0,0-3.572-4.841,33.261,33.261,0,0,0-4.447-4.048,29,29,0,0,0-4.169-2.59c-.61-.34-1.2-.57-1.708-.8a11.686,11.686,0,0,0-1.326-.51A4.605,4.605,0,0,0-390.317,1942.436Z" transform="translate(390.318 -1942.428)" fill="#1c262b"/>
      </g>
      <g id="Grupo_133160" data-name="Grupo 133160" transform="translate(140.315 105.004)" opacity="0.3">
        <path id="Trazado_192450" data-name="Trazado 192450" d="M-388.315,1942.41a31.213,31.213,0,0,1,24.333,22.952c.385,1.617.429,3.722-1.041,4.5a2.821,2.821,0,0,1-3.292-.923,9.531,9.531,0,0,1-1.529-3.336,40.181,40.181,0,0,0-20.476-23.412Z" transform="translate(390.319 -1942.189)" fill="#040405"/>
      </g>
      <path id="Trazado_192451" data-name="Trazado 192451" d="M-381.929,1863.072h-6.393l-7.306-10.682-28,22.93-9.239,13.744-4.5-13.541-9.754-4.846-2.515,7.405-8.151,3.745,10.213,25.554,8.211,9.944s12.691,9.376,29.533-6.068l16.843-15.443Z" transform="translate(519.21 -1852.39)" fill="#fff"/>
      <path id="Trazado_192452" data-name="Trazado 192452" d="M-373.036,1861.525s-33.506,50.662-47.067,45.876-27.026-28.48-27.026-28.48-29.483,9.337-38.658,19.309-24.529,68.476-24.529,68.476l141-10.271s21.006-31.484,21.006-33.878S-354.5,1864.1-354.5,1864.1Z" transform="translate(510.316 -1850.843)" fill="#41b8df"/>
      <path id="Trazado_192453" data-name="Trazado 192453" d="M-430.457,1934.736s-18.991-7.072-27.413-6.208-41.311,26.845-41.311,26.845l42.8-.249,3.717-3.4,9.535,10.288Z" transform="translate(512.201 -1839.511)" fill="#f8ae8b"/>
      <g id="Grupo_133161" data-name="Grupo 133161" transform="translate(74.522 101.854)">
        <path id="Trazado_192454" data-name="Trazado 192454" d="M-446.584,1975.965a13.446,13.446,0,0,0,1.924,1.156l.13.073.058-.145c1.278-3.128,3.865-9.848,6.78-17.643,2.046-5.469,3.866-10.431,5.154-14.035l1.5-4.277a8.637,8.637,0,0,0,.47-1.6,8.787,8.787,0,0,0-.692,1.514c-.44,1.1-1,2.515-1.678,4.209-1.391,3.565-3.275,8.5-5.32,13.972-2.916,7.8-5.373,14.564-6.462,17.763l.188-.073A13.638,13.638,0,0,0-446.584,1975.965Z" transform="translate(446.584 -1939.496)" fill="#1c262b"/>
      </g>
      <g id="Grupo_133162" data-name="Grupo 133162" transform="translate(148.998 44.823)">
        <path id="Trazado_192455" data-name="Trazado 192455" d="M-356.932,1890.726a6.787,6.787,0,0,0-1.328.626c-.829.45-2.017,1.126-3.433,2.045a81.494,81.494,0,0,0-10.417,8.077c-1.913,1.726-3.667,3.444-5.221,5.044a35.291,35.291,0,0,0-3.914,4.477,9.122,9.122,0,0,0-1.577,3.7,5.354,5.354,0,0,0-.063,1.1c.018.251.037.38.058.38.056,0,.035-.527.237-1.431a9.673,9.673,0,0,1,1.7-3.5,39.273,39.273,0,0,1,3.96-4.33c1.569-1.573,3.327-3.27,5.229-4.986a100.07,100.07,0,0,1,10.248-8.17c1.377-.96,2.526-1.688,3.315-2.2A6.741,6.741,0,0,0-356.932,1890.726Z" transform="translate(382.893 -1890.723)" fill="#1c262b"/>
      </g>
      <g id="Grupo_133163" data-name="Grupo 133163" transform="translate(65.582 75.303)">
        <path id="Trazado_192456" data-name="Trazado 192456" d="M-454.229,1971.375a4.5,4.5,0,0,0,.364-.658c.239-.481.56-1.128.971-1.951.849-1.754,2.057-4.247,3.573-7.376l12.345-25.86-.309.155,24.869,4.992,33.558,6.655.253.05.051-.251c1.848-9.091,3.385-16.657,4.471-22l1.209-6.155c.124-.679.223-1.218.3-1.623a3.093,3.093,0,0,0,.076-.562,3.05,3.05,0,0,0-.155.546l-.374,1.608c-.32,1.457-.774,3.519-1.348,6.126-1.138,5.332-2.748,12.883-4.683,21.956l.3-.2-33.541-6.745-24.878-4.945-.216-.042-.092.2-12.145,25.955c-1.456,3.157-2.615,5.674-3.43,7.444-.376.838-.672,1.5-.891,1.988A4.631,4.631,0,0,0-454.229,1971.375Z" transform="translate(454.23 -1916.789)" fill="#1c262b"/>
      </g>
      <g id="Grupo_133164" data-name="Grupo 133164" transform="translate(87.444 10.68)">
        <path id="Trazado_192457" data-name="Trazado 192457" d="M-392.09,1861.525a2.483,2.483,0,0,0-.527.367l-1.435,1.146c-1.223,1.022-2.972,2.53-5.057,4.474s-4.526,4.3-7.225,6.925-5.667,5.509-9.021,8.237a39.8,39.8,0,0,1-4.435,3.1l.394.088c-2.679-3.572-5.833-6.217-7.893-9.076l-.212-.295-.2.295c-2.352,3.422-4.316,6.283-5.747,8.368l-1.569,2.355a4.891,4.891,0,0,0-.511.861,5.07,5.07,0,0,0,.636-.773q.651-.879,1.683-2.275c1.476-2.053,3.5-4.871,5.923-8.245h-.414c2.078,2.957,5.228,5.648,7.816,9.131l.166.222.229-.135a39.453,39.453,0,0,0,4.518-3.147c3.391-2.757,6.348-5.671,9.032-8.31s5.078-5.041,7.129-7.012,3.744-3.533,4.917-4.608l1.359-1.231A2.614,2.614,0,0,0-392.09,1861.525Z" transform="translate(435.534 -1861.524)" fill="#1c262b"/>
      </g>
      <g id="Grupo_133165" data-name="Grupo 133165" transform="translate(68.519 25.594)">
        <path id="Trazado_192458" data-name="Trazado 192458" d="M-451.718,1877.847a12.59,12.59,0,0,0,2.142,1.163c1.376.68,3.336,1.613,5.642,2.685l.267.124.113-.276a24.591,24.591,0,0,1,2.339-4.361,24.543,24.543,0,0,1,1.623-2.148l-.5-.078c1.228,2.88,2.326,5.393,3.135,7.179a18.22,18.22,0,0,0,1.4,2.817,18.367,18.367,0,0,0-1.038-2.968c-.712-1.826-1.741-4.37-2.942-7.26l-.186-.447-.316.368a23.191,23.191,0,0,0-1.676,2.2,23.148,23.148,0,0,0-2.358,4.489l.38-.152c-2.326-1.033-4.317-1.894-5.733-2.485A12.381,12.381,0,0,0-451.718,1877.847Z" transform="translate(451.719 -1874.278)" fill="#1c262b"/>
      </g>
    </g>
  </g>
</svg>
