<svg xmlns="http://www.w3.org/2000/svg" width="400" height="345" viewBox="0 0 400 345">
  <g id="Grupo_140231" data-name="Grupo 140231" transform="translate(5544 4235.784)">
    <rect id="Rectángulo_294795" data-name="Rectángulo 294795" width="400" height="345" rx="15" transform="translate(-5544 -4235.784)" fill="#41b8df" opacity="0.55"/>
    <g id="Grupo_136964" data-name="Grupo 136964" transform="translate(-5903.416 -7014.376)">
      <g id="Grupo_136952" data-name="Grupo 136952">
        <path id="Trazado_194997" data-name="Trazado 194997" d="M481.514,3102.9s.505,8.139,2.079,8.256c.21.016,7.987.016,7.987.016l9.929-.058a3.222,3.222,0,0,0-2.967-2.9c-2.9-.506-7.76-2.545-9.518-6.381C487.175,3097.795,481.514,3102.9,481.514,3102.9Z" fill="#09294d"/>
        <g id="Grupo_136949" data-name="Grupo 136949">
          <path id="Trazado_194998" data-name="Trazado 194998" d="M477.936,3007.906s4.325,1.111,7.074.283,7.482.532,8.244,1.535.483,1.4-.877,1.747-6.178,2.4-9.344,1.211a25.237,25.237,0,0,0-7.3-1.232Z" fill="#df854e"/>
          <path id="Trazado_194999" data-name="Trazado 194999" d="M440.554,2970.334s4.859,34.534,12.905,37.627c3.97,1.526,21.515,4.986,26.7,5.333,0,0,1.271-1.031.961-5.229,0,0-18.382-6.749-20.993-10.419-3.886-5.462,2.413-22.314-2.464-27.444S444.577,2962.867,440.554,2970.334Z" fill="#2d60aa"/>
        </g>
        <path id="Trazado_195000" data-name="Trazado 195000" d="M441.175,3103.4v-7.529H429.321a.584.584,0,0,1-.582-.582v-1.206a.583.583,0,0,1,.582-.581h11.854v-42.862a2.193,2.193,0,0,1,2.187-2.186h2.346a2.193,2.193,0,0,1,2.186,2.186V3093.5h11.854a.583.583,0,0,1,.582.581v1.206a.584.584,0,0,1-.582.582H447.894v7.529c8.577.649,15.449,3.736,17.376,7.726H423.8C425.726,3107.131,432.6,3104.044,441.175,3103.4Z" fill="#94bae4"/>
        <path id="Trazado_195001" data-name="Trazado 195001" d="M442.192,3043.09a60.554,60.554,0,0,0,4.746,6.791c5.222,6.592,10.907,12.028,11.9,17.166a23.262,23.262,0,0,0,.919,3.289c.413,1.177.924,2.415,1.514,3.694a113.7,113.7,0,0,0,8.839,15.11c5.72,8.476,11.1,15.548,11.1,15.548l9.864-.42c-.4-.989-4.7-12.691-10.453-26.993l-7.219-17.936-.955-2.373c-.733-1.823-1.455-3.616-2.159-5.363l-9.708-24.123s-21.6-8.181-23.842-2.88C434.885,3028.972,436.391,3033.254,442.192,3043.09Z" fill="#e07126"/>
        <path id="Trazado_195002" data-name="Trazado 195002" d="M458.673,3079.642s-6.86,4.408-6.2,5.84c.089.191,3.88,6.981,3.88,6.981l4.891,8.641a3.221,3.221,0,0,0,1.084-4c-.974-2.781-1.561-8.016.931-11.421C465.886,3082.1,458.673,3079.642,458.673,3079.642Z" fill="#09294d"/>
        <path id="Trazado_195003" data-name="Trazado 195003" d="M467.956,3023.6s27.111,16.887,30.137,28.235-36.063,35.559-36.063,35.559-4.288-3.783-5.044-6.557c0,0,17.669-21.168,21.5-25.913,2.353-2.915-34.8-10.089-39.344-17.15s-2.914-13-2.914-13Z" fill="#ed8537"/>
        <rect id="Rectángulo_294889" data-name="Rectángulo 294889" width="59.52" height="15.132" rx="2.018" transform="translate(414.775 3045.282)" fill="#003879"/>
        <path id="Trazado_195004" data-name="Trazado 195004" d="M455.42,2964.414a15.289,15.289,0,0,1,4.13,3.743c-6.495,1.68-17.261-4.339-17.261-4.339a15.934,15.934,0,0,0,5.729-8.981c.078-.311.15-.63.213-.957a19.44,19.44,0,0,0,.351-3.38l2.984,2.673,4.961,4.445a42.756,42.756,0,0,1-.733,5.016Q455.632,2963.465,455.42,2964.414Z" fill="#df854e"/>
        <path id="Trazado_195005" data-name="Trazado 195005" d="M435.442,2995.054c.93,12.512-.635,31.535.421,34.83.911,2.844,11.629,1.161,15.771.211,1.534-.351,3.391-.853,5.309-1.446,5.35-1.657,11.179-4.022,11.8-5.778a1.531,1.531,0,0,0,.058-.2,1.617,1.617,0,0,0-.012-.736c-.208-.894-1.012-1.863-1.106-4.079-.106-2.475-.09-5.389-.183-8.523-.005-.352-.01-.737-.048-1.088l0-.129,0-.2c-.09-3.5-.273-7.169-.485-10.813-.135-2.288-.29-4.554-.47-6.726a89.864,89.864,0,0,0-1.927-13.74,22.067,22.067,0,0,0-7.089-10.943L455.506,2964a11.419,11.419,0,0,1-7.164-.954c-2.55-1.211-3.43-2.079-3.874-1.752C438.579,2965.836,434.343,2979.758,435.442,2995.054Z" fill="#5b85c4"/>
        <path id="Trazado_195006" data-name="Trazado 195006" d="M456.912,3028.674c5.35-1.657,11.18-4.022,11.805-5.778a1.563,1.563,0,0,0,.058-.2c0-.246-.006-.491-.011-.736-.209-.9-1.012-1.864-1.107-4.08-.106-2.475-.09-5.389-.183-8.523,0-.352-.009-.737-.048-1.088v-.129l0-.2-20.209-9.166S446.047,3015.06,456.912,3028.674Z" fill="#2d60aa"/>
        <path id="Trazado_195007" data-name="Trazado 195007" d="M456.527,2957.618a42.756,42.756,0,0,1-.733,5.016c-4.845-1.565-7.042-5.941-7.776-7.8-.209-.524-.3-.848-.3-.848l.512-.109,3.335-.707Z" fill="#ce7848"/>
        <path id="Trazado_195008" data-name="Trazado 195008" d="M458.488,2957.569s-10.643,1.2-11.289-5.439-2.454-10.956,4.314-12,8.337,1.357,9.092,3.521S461.24,2957.086,458.488,2957.569Z" fill="#df854e"/>
        <path id="Trazado_195009" data-name="Trazado 195009" d="M447.245,2952.588a10.935,10.935,0,0,1,10.363-9.726c6.636-.625,2.936-6.337,2.229-7.248,0,0-5.084.7-10.3,1.559C438.6,2938.98,446.171,2951.216,447.245,2952.588Z" fill="#0d397b"/>
        <g id="Grupo_136950" data-name="Grupo 136950">
          <rect id="Rectángulo_294890" data-name="Rectángulo 294890" width="0.98" height="25.65" transform="translate(499.695 3016.863) rotate(-161.999)" fill="#2d60aa"/>
          <rect id="Rectángulo_294891" data-name="Rectángulo 294891" width="26.917" height="1.61" transform="translate(499.695 3016.864) rotate(-178.776)" fill="#2d60aa"/>
        </g>
        <g id="Grupo_136951" data-name="Grupo 136951">
          <path id="Trazado_195010" data-name="Trazado 195010" d="M475.71,3013.216s4.176,1.581,7,1.06,7.378,1.354,8.025,2.435.325,1.445-1.065,1.639-6.4,1.7-9.421.174a25.228,25.228,0,0,0-7.116-2.029Z" fill="#df854e"/>
          <path id="Trazado_195011" data-name="Trazado 195011" d="M442.7,2971.751s1.022,34.859,8.677,38.82c3.778,1.955,20.834,7.328,25.954,8.245,0,0,1.378-.885,1.532-5.091,0,0-17.525-8.734-19.716-12.67-3.261-5.857,4.858-21.912.576-27.548S447.52,2964.774,442.7,2971.751Z" fill="#5b85c4"/>
        </g>
      </g>
      <path id="Rectángulo_294892" data-name="Rectángulo 294892" d="M83.312,0h7.347a83.312,83.312,0,0,1,83.312,83.312v58.352a83.313,83.313,0,0,1-83.313,83.313H83.313A83.313,83.313,0,0,1,0,141.664V83.312A83.312,83.312,0,0,1,83.312,0Z" transform="translate(696.672 3055.008) rotate(180)" fill="#c7dcf3"/>
      <rect id="Rectángulo_294893" data-name="Rectángulo 294893" width="140.067" height="178.626" transform="translate(679.863 3032.235) rotate(180)" fill="#f0f9fe"/>
      <g id="Grupo_136953" data-name="Grupo 136953">
        <path id="Trazado_195012" data-name="Trazado 195012" d="M660,3024.394h0a7.391,7.391,0,0,1-7.39-7.39V2914.828a7.391,7.391,0,0,1,7.39-7.391h0a7.39,7.39,0,0,1,7.39,7.391V3017A7.39,7.39,0,0,1,660,3024.394Z" fill="#ed8537"/>
        <path id="Trazado_195013" data-name="Trazado 195013" d="M635.785,3024.394h0a7.391,7.391,0,0,1-7.39-7.39V2882.227a7.39,7.39,0,0,1,7.39-7.39h0a7.39,7.39,0,0,1,7.391,7.39V3017A7.391,7.391,0,0,1,635.785,3024.394Z" fill="#ed8537"/>
        <path id="Trazado_195014" data-name="Trazado 195014" d="M609.364,3024.394h0a7.39,7.39,0,0,1-7.39-7.39v-73.893a7.39,7.39,0,0,1,7.39-7.39h0a7.391,7.391,0,0,1,7.39,7.39V3017A7.391,7.391,0,0,1,609.364,3024.394Z" fill="#ed8537"/>
        <path id="Trazado_195015" data-name="Trazado 195015" d="M583.654,3024.394h0a7.39,7.39,0,0,1-7.39-7.39v-114.81a7.389,7.389,0,0,1,7.39-7.39h0a7.39,7.39,0,0,1,7.39,7.39V3017A7.391,7.391,0,0,1,583.654,3024.394Z" fill="#ed8537"/>
        <path id="Trazado_195016" data-name="Trazado 195016" d="M565.2,2960.467V3017a7.391,7.391,0,0,1-7.39,7.39h0a7.39,7.39,0,0,1-7.39-7.39v-56.537a7.389,7.389,0,0,1,7.39-7.39h0A7.39,7.39,0,0,1,565.2,2960.467Z" fill="#ed8537"/>
      </g>
      <g id="Grupo_136954" data-name="Grupo 136954">
        <path id="Trazado_195017" data-name="Trazado 195017" d="M576.965,2885.651h12.517a1.3,1.3,0,0,1,0,2.59H576.965a1.3,1.3,0,1,1,0-2.59Z" fill="#94bae4"/>
        <path id="Trazado_195018" data-name="Trazado 195018" d="M586.631,2890.363h2.851a1.295,1.295,0,1,1,0,2.59h-2.851a1.295,1.295,0,1,1,0-2.59Z" fill="#94bae4"/>
        <path id="Trazado_195019" data-name="Trazado 195019" d="M628.544,2865.776h12.517a1.3,1.3,0,1,1,0,2.59H628.544a1.3,1.3,0,0,1,0-2.59Z" fill="#94bae4"/>
        <path id="Trazado_195020" data-name="Trazado 195020" d="M638.21,2870.488h2.851a1.3,1.3,0,0,1,1.3,1.295h0a1.3,1.3,0,0,1-1.3,1.295H638.21a1.3,1.3,0,0,1-1.3-1.295h0A1.3,1.3,0,0,1,638.21,2870.488Z" fill="#94bae4"/>
        <path id="Trazado_195021" data-name="Trazado 195021" d="M653.578,2898.355h12.517a1.3,1.3,0,1,1,0,2.59H653.578a1.3,1.3,0,0,1,0-2.59Z" fill="#94bae4"/>
        <path id="Trazado_195022" data-name="Trazado 195022" d="M663.245,2903.067h2.85a1.3,1.3,0,0,1,1.3,1.3h0a1.3,1.3,0,0,1-1.3,1.295h-2.85a1.3,1.3,0,0,1-1.295-1.295h0A1.3,1.3,0,0,1,663.245,2903.067Z" fill="#94bae4"/>
        <path id="Trazado_195023" data-name="Trazado 195023" d="M603.1,2926.652h12.517a1.295,1.295,0,1,1,0,2.59H603.1a1.295,1.295,0,1,1,0-2.59Z" fill="#94bae4"/>
        <path id="Trazado_195024" data-name="Trazado 195024" d="M612.772,2931.364h2.85a1.3,1.3,0,0,1,1.295,1.295h0a1.3,1.3,0,0,1-1.295,1.3h-2.85a1.3,1.3,0,0,1-1.295-1.3h0A1.3,1.3,0,0,1,612.772,2931.364Z" fill="#94bae4"/>
        <path id="Trazado_195025" data-name="Trazado 195025" d="M551.551,2943.955h12.518a1.295,1.295,0,0,1,0,2.59H551.551a1.295,1.295,0,1,1,0-2.59Z" fill="#94bae4"/>
        <path id="Trazado_195026" data-name="Trazado 195026" d="M561.218,2948.667h2.851a1.3,1.3,0,0,1,0,2.59h-2.851a1.3,1.3,0,1,1,0-2.59Z" fill="#94bae4"/>
      </g>
      <g id="Grupo_136955" data-name="Grupo 136955">
        <path id="Trazado_195027" data-name="Trazado 195027" d="M557.81,2940.271a4.6,4.6,0,1,1,4.6-4.6A4.6,4.6,0,0,1,557.81,2940.271Zm0-7.418a2.819,2.819,0,1,0,2.819,2.819A2.822,2.822,0,0,0,557.81,2932.853Z" fill="#0d397b"/>
        <path id="Trazado_195028" data-name="Trazado 195028" d="M555.852,2932.853a.888.888,0,0,1-.63-.261L541.4,2918.769H429.1a.89.89,0,0,1,0-1.78H542.137l14.344,14.344a.891.891,0,0,1-.629,1.52Z" fill="#0d397b"/>
      </g>
      <g id="Grupo_136956" data-name="Grupo 136956">
        <path id="Trazado_195029" data-name="Trazado 195029" d="M584.261,3037.26a4.6,4.6,0,1,1,4.6-4.6A4.6,4.6,0,0,1,584.261,3037.26Zm0-7.419a2.819,2.819,0,1,0,2.819,2.82A2.823,2.823,0,0,0,584.261,3029.841Z" fill="#0d397b"/>
        <path id="Trazado_195030" data-name="Trazado 195030" d="M711.188,3051.344H599.934L585.59,3037a.89.89,0,0,1,1.259-1.259l13.823,13.823H711.188a.891.891,0,0,1,0,1.781Z" fill="#0d397b"/>
      </g>
      <g id="Grupo_136957" data-name="Grupo 136957">
        <path id="Trazado_195031" data-name="Trazado 195031" d="M635.141,2862.216a4.6,4.6,0,1,1,4.6-4.6A4.605,4.605,0,0,1,635.141,2862.216Zm0-7.419a2.819,2.819,0,1,0,2.819,2.819A2.823,2.823,0,0,0,635.141,2854.8Z" fill="#0d397b"/>
        <path id="Trazado_195032" data-name="Trazado 195032" d="M633.182,2854.8a.884.884,0,0,1-.629-.261l-13.823-13.822h-112.3a.891.891,0,0,1,0-1.781H619.467l14.345,14.344a.891.891,0,0,1-.63,1.52Z" fill="#0d397b"/>
      </g>
      <path id="Trazado_195033" data-name="Trazado 195033" d="M504.152,2914.929H430.378a2.256,2.256,0,0,1-2.255-2.255h0a2.256,2.256,0,0,1,2.255-2.256h73.774a2.256,2.256,0,0,1,2.256,2.256h0A2.256,2.256,0,0,1,504.152,2914.929Z" fill="#5b85c4"/>
      <path id="Trazado_195034" data-name="Trazado 195034" d="M504.152,2907.807H458.867a2.256,2.256,0,0,1-2.256-2.255h0a2.256,2.256,0,0,1,2.256-2.256h45.285a2.256,2.256,0,0,1,2.256,2.256h0A2.256,2.256,0,0,1,504.152,2907.807Z" fill="#5b85c4"/>
      <path id="Trazado_195035" data-name="Trazado 195035" d="M504.152,2900.685H458.867a2.256,2.256,0,0,1-2.256-2.255h0a2.256,2.256,0,0,1,2.256-2.256h45.285a2.256,2.256,0,0,1,2.256,2.256h0A2.256,2.256,0,0,1,504.152,2900.685Z" fill="#5b85c4"/>
      <path id="Trazado_195036" data-name="Trazado 195036" d="M580.968,2836.413H507.194a2.255,2.255,0,0,1-2.255-2.256h0a2.255,2.255,0,0,1,2.255-2.255h73.774a2.256,2.256,0,0,1,2.255,2.255h0A2.256,2.256,0,0,1,580.968,2836.413Z" fill="#5b85c4"/>
      <g id="Grupo_136960" data-name="Grupo 136960">
        <g id="Grupo_136959" data-name="Grupo 136959">
          <circle id="Elipse_5206" data-name="Elipse 5206" cx="16.054" cy="16.054" r="16.054" transform="translate(619.522 3057.574)" fill="#78a564"/>
          <path id="Trazado_195037" data-name="Trazado 195037" d="M635.576,3060.057a13.571,13.571,0,0,1,9.672,23.091l-9.672-9.519-12.681,4.84a13.579,13.579,0,0,1,12.681-18.412Z" fill="#fff"/>
          <g id="Grupo_136958" data-name="Grupo 136958">
            <path id="Trazado_195038" data-name="Trazado 195038" d="M637.56,3066.739h5.776a.414.414,0,0,1,.413.413h0a.414.414,0,0,1-.413.412H637.56a.414.414,0,0,1-.413-.412h0A.414.414,0,0,1,637.56,3066.739Z" fill="#78a564"/>
            <path id="Trazado_195039" data-name="Trazado 195039" d="M637.56,3068.046h5.776a.413.413,0,1,1,0,.825H637.56a.413.413,0,1,1,0-.825Z" fill="#78a564"/>
            <path id="Trazado_195040" data-name="Trazado 195040" d="M640.951,3069.352h2.385a.413.413,0,1,1,0,.826h-2.385a.413.413,0,1,1,0-.826Z" fill="#78a564"/>
          </g>
        </g>
        <path id="Trazado_195041" data-name="Trazado 195041" d="M621.517,3066.094l6.351-6.35h-6.351Z" fill="#78a564"/>
      </g>
      <g id="Grupo_136963" data-name="Grupo 136963">
        <g id="Grupo_136962" data-name="Grupo 136962">
          <circle id="Elipse_5207" data-name="Elipse 5207" cx="16.054" cy="16.054" r="16.054" transform="matrix(0.05, -0.999, 0.999, 0.05, 672.958, 3088.863)" fill="#78a564"/>
          <path id="Trazado_195042" data-name="Trazado 195042" d="M676.222,3073.629a13.569,13.569,0,1,1,5.339,10.79l8.231-10.79-12.682,4.84A13.565,13.565,0,0,1,676.222,3073.629Z" fill="#fff"/>
          <g id="Grupo_136961" data-name="Grupo 136961">
            <path id="Trazado_195043" data-name="Trazado 195043" d="M691.886,3066.739h5.777a.414.414,0,0,1,.413.413h0a.414.414,0,0,1-.413.412h-5.777a.413.413,0,0,1-.412-.412h0A.414.414,0,0,1,691.886,3066.739Z" fill="#78a564"/>
            <path id="Trazado_195044" data-name="Trazado 195044" d="M691.886,3068.046h5.777a.413.413,0,1,1,0,.825h-5.777a.413.413,0,0,1,0-.825Z" fill="#78a564"/>
            <path id="Trazado_195045" data-name="Trazado 195045" d="M695.278,3069.352h2.385a.413.413,0,1,1,0,.826h-2.385a.413.413,0,1,1,0-.826Z" fill="#78a564"/>
          </g>
        </g>
        <path id="Trazado_195046" data-name="Trazado 195046" d="M675.823,3066.094l6.351-6.35h-6.351Z" fill="#78a564"/>
      </g>
      <path id="Trazado_195047" data-name="Trazado 195047" d="M748.565,3111.7H377.4a.534.534,0,0,1-.532-.532h0a.535.535,0,0,1,.532-.533H748.565a.535.535,0,0,1,.533.533h0A.535.535,0,0,1,748.565,3111.7Z" fill="#14243e"/>
    </g>
  </g>
</svg>
