<svg xmlns="http://www.w3.org/2000/svg" width="400" height="345" viewBox="0 0 400 345">
  <g id="Grupo_140232" data-name="Grupo 140232" transform="translate(5544 3670.784)">
    <rect id="Rectángulo_294795" data-name="Rectángulo 294795" width="400" height="345" rx="15" transform="translate(-5544 -3670.784)" fill="#41b8df" opacity="0.55"/>
    <g id="Grupo_137088" data-name="Grupo 137088" transform="translate(-5903.416 -6838.267)">
      <g id="Grupo_137087" data-name="Grupo 137087">
        <g id="Grupo_136971" data-name="Grupo 136971">
          <g id="Grupo_136970" data-name="Grupo 136970">
            <g id="Grupo_136969" data-name="Grupo 136969">
              <g id="Grupo_136968" data-name="Grupo 136968">
                <g id="Grupo_136967" data-name="Grupo 136967">
                  <g id="Grupo_136966" data-name="Grupo 136966">
                    <g id="Grupo_136965" data-name="Grupo 136965">
                      <path id="Trazado_195048" data-name="Trazado 195048" d="M400.468,3402.541l.756,3.29.756,3.29,4.932-.216a18.572,18.572,0,0,0,3.493,4.906l-1.819,4.589,2.86,1.792,2.861,1.791,3.335-3.64a18.566,18.566,0,0,0,5.939,1l1.959,4.531,3.289-.756,3.29-.756-.216-4.932a18.537,18.537,0,0,0,4.906-3.493l4.59,1.819,1.791-2.861,1.792-2.86-3.641-3.335a18.538,18.538,0,0,0,1-5.939l4.531-1.959-.756-3.29-.756-3.289-4.931.216a18.586,18.586,0,0,0-3.493-4.906l1.818-4.59-2.86-1.792-2.861-1.791L429.7,3383a18.567,18.567,0,0,0-5.939-1l-1.959-4.531-3.289.756-3.29.756.216,4.932a18.559,18.559,0,0,0-4.906,3.493l-4.59-1.819-1.791,2.861-1.792,2.861,3.641,3.335a18.528,18.528,0,0,0-1,5.938Zm12.47-8.59a12.663,12.663,0,1,1,4.011,17.453A12.664,12.664,0,0,1,412.938,3393.951Z" fill="#003b82"/>
                    </g>
                  </g>
                </g>
              </g>
            </g>
          </g>
        </g>
        <g id="Grupo_136978" data-name="Grupo 136978">
          <g id="Grupo_136977" data-name="Grupo 136977">
            <g id="Grupo_136976" data-name="Grupo 136976">
              <g id="Grupo_136975" data-name="Grupo 136975">
                <g id="Grupo_136974" data-name="Grupo 136974">
                  <g id="Grupo_136973" data-name="Grupo 136973">
                    <g id="Grupo_136972" data-name="Grupo 136972">
                      <path id="Trazado_195049" data-name="Trazado 195049" d="M406.881,3299.192l-.975,5.168-.975,5.167,7.174,2.771a28.916,28.916,0,0,0,1.922,9.183l-5.462,5.415,2.965,4.344,2.964,4.343,7.033-3.114a28.916,28.916,0,0,0,7.852,5.136l-.033,7.69,5.167.975,5.167.975,2.771-7.174a28.9,28.9,0,0,0,9.184-1.922l5.415,5.462,4.343-2.964,4.343-2.965-3.113-7.033a28.936,28.936,0,0,0,5.136-7.851l7.69.033.975-5.167.975-5.168-7.174-2.771a28.917,28.917,0,0,0-1.922-9.183l5.462-5.415-2.965-4.344-2.964-4.343-7.033,3.114a28.922,28.922,0,0,0-7.852-5.136l.033-7.69-5.167-.975-5.167-.975-2.771,7.174a28.9,28.9,0,0,0-9.184,1.922l-5.415-5.462-4.343,2.964-4.343,2.965,3.113,7.033a28.934,28.934,0,0,0-5.136,7.851Zm23.162-4.474a19.727,19.727,0,1,1-5.172,27.415A19.728,19.728,0,0,1,430.043,3294.718Z" fill="#feb871"/>
                    </g>
                  </g>
                </g>
              </g>
            </g>
          </g>
        </g>
        <g id="Grupo_136987" data-name="Grupo 136987">
          <g id="Grupo_136979" data-name="Grupo 136979">
            <path id="Trazado_195050" data-name="Trazado 195050" d="M664.242,3471.6s.386-6.286-9.61-6.168-2.923,9.584-2.923,9.584Z" fill="#e75950"/>
          </g>
          <g id="Grupo_136980" data-name="Grupo 136980">
            <path id="Trazado_195051" data-name="Trazado 195051" d="M620.827,3457.114s-10.872,5.552-13.877,7.131-16.106,11.411-24.4,12.892a16.177,16.177,0,0,1-6.356.014,2.785,2.785,0,0,1-.905-5.076l53.381-33.67,10.234,2.957Z" fill="#f5a388"/>
          </g>
          <g id="Grupo_136981" data-name="Grupo 136981">
            <path id="Trazado_195052" data-name="Trazado 195052" d="M759.416,3438.172l-59.22-.256c-16.248,19.281-42.312,23.157-42.312,23.157l-4.177,10.656c7-3.29,10.54-1.2,12.27,1.108a2.682,2.682,0,0,1-1.389,4.169c-.986.294-2.183.68-3.529,1.17-3.087,1.127-8.126,3.168-9.991,3.924l-.725.3c-.2.076-.407.149-.606.214a17.2,17.2,0,0,1-13.793-1.509l-.01-.007a12.579,12.579,0,0,1-1.625.253c-8.258.745-14.687-6.833-16.176-9.082-1.588-2.393,6.264-29.18,9.346-32.9s62.978-32.633,68.209-34.25c4.127-1.276,39.637-11.3,54.438-15.474C756.05,3402.659,759.275,3420.364,759.416,3438.172Z" fill="#f5a388"/>
          </g>
          <g id="Grupo_136982" data-name="Grupo 136982">
            <path id="Trazado_195053" data-name="Trazado 195053" d="M635.949,3481.093l0,.01-.011-.006a12.744,12.744,0,0,1-1.625.252c-7.226-3.484-8.687-8.89-8.177-11.879.569-3.336,6.07-18.405,6.3-19.045l.848.31c-.057.156-5.706,15.631-6.261,18.888C626.492,3472.722,628.5,3478.029,635.949,3481.093Z" fill="#e75950"/>
          </g>
          <g id="Grupo_136983" data-name="Grupo 136983">
            <path id="Trazado_195054" data-name="Trazado 195054" d="M651.067,3482.1c-.457.188-.725.3-.725.3-.2.077-.4.15-.606.215-4.85-1.98-11.513-9.386-11.878-11.757-.39-2.531,4.954-15.552,5.565-17.028l.833.344c-2.358,5.706-5.772,14.819-5.506,16.547C639.1,3472.985,646.524,3481.077,651.067,3482.1Z" fill="#e75950"/>
          </g>
          <g id="Grupo_136984" data-name="Grupo 136984">
            <path id="Trazado_195055" data-name="Trazado 195055" d="M649.562,3474.3c3.146-.484,5.56-3.623,5.667-3.762l-.72-.546c-.024.032-2.537,3.287-5.5,3.46l.054.9C649.23,3474.345,649.4,3474.326,649.562,3474.3Z" fill="#e75950"/>
          </g>
          <g id="Grupo_136985" data-name="Grupo 136985">
            <path id="Trazado_195056" data-name="Trazado 195056" d="M618.721,3467.894c.883-6,6.158-21.873,6.211-22.033l-.857-.285c-.218.655-5.352,16.1-6.248,22.186Z" fill="#e75950"/>
          </g>
          <g id="Grupo_136986" data-name="Grupo 136986">
            <path id="Trazado_195057" data-name="Trazado 195057" d="M592.734,3461.6l36.173-22.816c5.957-3.757,58.7-29.665,59.229-29.926l-.4-.81c-2.174,1.067-53.315,26.19-59.312,29.973l-36.174,22.816Z" fill="#e75950"/>
          </g>
        </g>
        <g id="Grupo_136992" data-name="Grupo 136992">
          <path id="Trazado_195058" data-name="Trazado 195058" d="M462.265,3363.07l39.456,12.9,31.125,113.567H495.22l-35.459-125.682Z" fill="#082030"/>
          <path id="Trazado_195059" data-name="Trazado 195059" d="M511.2,3408.693l-44.943-20.568-3.861-13.449,45.062,20.622Z" fill="#fff" opacity="0.1"/>
          <path id="Trazado_195060" data-name="Trazado 195060" d="M529.349,3479.643l-41.594-17.716-3.629-13.227,41.706,17.763Z" fill="#fff" opacity="0.1"/>
          <path id="Trazado_195061" data-name="Trazado 195061" d="M518.178,3438.275l-42.519-19.424-1.837-6.681L516.4,3431.62Z" fill="#fff" opacity="0.1"/>
          <path id="Trazado_195062" data-name="Trazado 195062" d="M520.128,3445.559l-42.458-19.4-.627-2.277,42.478,19.406Z" fill="#fff" opacity="0.1"/>
          <path id="Trazado_195063" data-name="Trazado 195063" d="M664.711,3488.443H533.249l-30.571-112.268a2.059,2.059,0,0,0-1.357-1.42l-39.708-12.763H458.6a1.962,1.962,0,0,0-1.89,2.487l35.939,129.291a11.075,11.075,0,0,0,7.169,7.542H652.1a16.912,16.912,0,0,0,5.628-.937,5.43,5.43,0,0,0,1.444-.69c2.9-2.342,3.664-3.988,3.731-6.588h1.811a2.327,2.327,0,1,0,0-4.654Zm-163.9-112.21,30.69,112.21H496.551l-34.286-124.091Z" fill="#366690"/>
          <rect id="Rectángulo_294894" data-name="Rectángulo 294894" width="5.688" height="1.477" transform="translate(510.463 3494.096)" fill="#14213a"/>
          <rect id="Rectángulo_294895" data-name="Rectángulo 294895" width="5.688" height="1.477" transform="translate(520.583 3494.096)" fill="#14213a"/>
          <rect id="Rectángulo_294896" data-name="Rectángulo 294896" width="5.688" height="1.477" transform="translate(530.704 3494.096)" fill="#14213a"/>
          <rect id="Rectángulo_294897" data-name="Rectángulo 294897" width="5.688" height="1.477" transform="translate(621.346 3494.096)" fill="#14213a"/>
          <g id="Grupo_136988" data-name="Grupo 136988">
            <circle id="Elipse_5208" data-name="Elipse 5208" cx="1.76" cy="1.76" r="1.76" transform="translate(632.489 3493.296)" fill="#14213a"/>
            <circle id="Elipse_5209" data-name="Elipse 5209" cx="1.125" cy="1.125" r="1.125" transform="translate(633.124 3493.931)" fill="#171716"/>
          </g>
          <g id="Grupo_136989" data-name="Grupo 136989">
            <circle id="Elipse_5210" data-name="Elipse 5210" cx="1.76" cy="1.76" r="1.76" transform="translate(645.453 3493.296)" fill="#14213a"/>
            <circle id="Elipse_5211" data-name="Elipse 5211" cx="1.125" cy="1.125" r="1.125" transform="translate(646.088 3493.931)" fill="#171716"/>
          </g>
          <g id="Grupo_136990" data-name="Grupo 136990">
            <circle id="Elipse_5212" data-name="Elipse 5212" cx="2.216" cy="2.216" r="2.216" transform="translate(497.978 3492.84)" fill="#14213a"/>
            <circle id="Elipse_5213" data-name="Elipse 5213" cx="1.417" cy="1.417" r="1.417" transform="translate(498.778 3493.639)" fill="#171716"/>
          </g>
          <g id="Grupo_136991" data-name="Grupo 136991">
            <path id="Trazado_195064" data-name="Trazado 195064" d="M534.347,3486.292a2.2,2.2,0,0,0-1.931-1.148H528.18a2.2,2.2,0,0,0-1.931,1.148l-1.168,2.151h10.433Z" fill="#1f4460"/>
            <path id="Trazado_195065" data-name="Trazado 195065" d="M550.943,3486.292a2.2,2.2,0,0,0-1.931-1.148h-4.236a2.2,2.2,0,0,0-1.931,1.148l-1.167,2.151h10.433Z" fill="#1f4460"/>
            <path id="Trazado_195066" data-name="Trazado 195066" d="M563.994,3486.292a2.2,2.2,0,0,0-1.931-1.148h-4.236a2.2,2.2,0,0,0-1.931,1.148l-1.167,2.151h10.433Z" fill="#1f4460"/>
            <path id="Trazado_195067" data-name="Trazado 195067" d="M577.045,3486.292a2.2,2.2,0,0,0-1.931-1.148h-4.236a2.2,2.2,0,0,0-1.931,1.148l-1.167,2.151h10.433Z" fill="#1f4460"/>
            <path id="Trazado_195068" data-name="Trazado 195068" d="M590.1,3486.292a2.2,2.2,0,0,0-1.931-1.148h-4.236a2.2,2.2,0,0,0-1.931,1.148l-1.168,2.151h10.433Z" fill="#1f4460"/>
            <path id="Trazado_195069" data-name="Trazado 195069" d="M603.147,3486.292a2.2,2.2,0,0,0-1.931-1.148H596.98a2.2,2.2,0,0,0-1.931,1.148l-1.168,2.151h10.433Z" fill="#1f4460"/>
            <path id="Trazado_195070" data-name="Trazado 195070" d="M616.2,3486.292a2.2,2.2,0,0,0-1.931-1.148h-4.236a2.2,2.2,0,0,0-1.931,1.148l-1.168,2.151h10.433Z" fill="#1f4460"/>
          </g>
        </g>
        <g id="Grupo_137016" data-name="Grupo 137016">
          <g id="Grupo_136999" data-name="Grupo 136999">
            <g id="Grupo_136998" data-name="Grupo 136998">
              <g id="Grupo_136997" data-name="Grupo 136997">
                <g id="Grupo_136996" data-name="Grupo 136996">
                  <g id="Grupo_136995" data-name="Grupo 136995">
                    <g id="Grupo_136994" data-name="Grupo 136994">
                      <g id="Grupo_136993" data-name="Grupo 136993">
                        <path id="Trazado_195071" data-name="Trazado 195071" d="M530.936,3403.114l.321-.115-.232-.641-.32.116a31.063,31.063,0,0,0-3.484,1.507l-.3.153.307.608.3-.154A30.79,30.79,0,0,1,530.936,3403.114Z" fill="#4b94ba"/>
                        <path id="Trazado_195072" data-name="Trazado 195072" d="M524.3,3406.446l.286-.186-.371-.571-.286.186a37.18,37.18,0,0,0-3.068,2.227l-.265.213.428.53.265-.213A36.668,36.668,0,0,1,524.3,3406.446Z" fill="#4b94ba"/>
                        <path id="Trazado_195073" data-name="Trazado 195073" d="M540.107,3403.361l-.636-.246-.123.318a34.111,34.111,0,0,0-1.172,3.607l-.087.329.658.174.087-.329a33.23,33.23,0,0,1,1.15-3.535Z" fill="#4b94ba"/>
                        <path id="Trazado_195074" data-name="Trazado 195074" d="M538.147,3410.517l-.674-.093-.047.337a28.176,28.176,0,0,0-.27,3.791v.34l.681,0v-.341a27.461,27.461,0,0,1,.264-3.7Z" fill="#4b94ba"/>
                        <path id="Trazado_195075" data-name="Trazado 195075" d="M538.143,3400.965a22.459,22.459,0,0,0-3.782.466l-.333.07.138.666.334-.069a21.614,21.614,0,0,1,3.666-.452l.34-.012-.023-.681Z" fill="#4b94ba"/>
                        <path id="Trazado_195076" data-name="Trazado 195076" d="M538.451,3422.04l.128.316.631-.255-.128-.316a16.623,16.623,0,0,1-.963-3.545l-.054-.336-.672.109.054.336A17.3,17.3,0,0,0,538.451,3422.04Z" fill="#4b94ba"/>
                        <path id="Trazado_195077" data-name="Trazado 195077" d="M518.514,3411.108l.243-.238-.478-.486-.243.239c-.9.882-1.762,1.819-2.569,2.785l-.218.261.522.437.219-.262C516.783,3412.9,517.632,3411.975,518.514,3411.108Z" fill="#4b94ba"/>
                        <path id="Trazado_195078" data-name="Trazado 195078" d="M508.19,3438.1l-.006-.34-.681.012.006.34c.021,1.23.089,2.5.2,3.777l.03.339.678-.059-.03-.34C508.278,3440.567,508.211,3439.313,508.19,3438.1Z" fill="#4b94ba"/>
                        <path id="Trazado_195079" data-name="Trazado 195079" d="M508.837,3449.357l.07.334.666-.141-.07-.333c-.259-1.229-.484-2.467-.668-3.68l-.051-.336-.674.1.051.337C508.347,3446.865,508.575,3448.116,508.837,3449.357Z" fill="#4b94ba"/>
                        <path id="Trazado_195080" data-name="Trazado 195080" d="M511.919,3420.04a31.623,31.623,0,0,1,1.851-3.217l.187-.285-.568-.374-.187.285a32.049,32.049,0,0,0-1.892,3.287l-.152.3.609.3Z" fill="#4b94ba"/>
                        <path id="Trazado_195081" data-name="Trazado 195081" d="M509.928,3422.9l-.117.32a36.116,36.116,0,0,0-1.105,3.625l-.082.331.661.164.082-.331a35.424,35.424,0,0,1,1.084-3.556l.117-.32Z" fill="#4b94ba"/>
                        <path id="Trazado_195082" data-name="Trazado 195082" d="M507.973,3430.562c-.18,1.22-.311,2.487-.388,3.766l-.02.34.68.041.02-.34c.076-1.259.2-2.507.382-3.708l.05-.336-.674-.1Z" fill="#4b94ba"/>
                        <path id="Trazado_195083" data-name="Trazado 195083" d="M509.718,3453.032c.326,1.216.688,2.434,1.076,3.622l.1.324.647-.211-.1-.324c-.384-1.176-.742-2.384-1.065-3.588l-.089-.329-.658.177Z" fill="#4b94ba"/>
                        <path id="Trazado_195084" data-name="Trazado 195084" d="M547.414,3426.986l.329-.088a9.5,9.5,0,0,0,1.611-.592h0a8.387,8.387,0,0,0,1.83-1.181l.259-.221-.442-.519-.259.221a7.744,7.744,0,0,1-1.681,1.086h0a8.754,8.754,0,0,1-1.495.549l-.329.089Z" fill="#4b94ba"/>
                        <path id="Trazado_195085" data-name="Trazado 195085" d="M560.628,3383.441l.314-.132-.263-.628-.314.132c-1.179.5-2.317,1.02-3.433,1.587l-.3.154.309.607.3-.154C558.343,3384.448,559.465,3383.93,560.628,3383.441Z" fill="#4b94ba"/>
                        <path id="Trazado_195086" data-name="Trazado 195086" d="M541.621,3401.165l-.121.67.335.061a14.155,14.155,0,0,1,3.488,1.1l.309.145.288-.617-.308-.145a14.847,14.847,0,0,0-3.656-1.149Z" fill="#4b94ba"/>
                        <path id="Trazado_195087" data-name="Trazado 195087" d="M567.683,3380.987l.328-.093-.186-.655-.328.093c-1.225.348-2.437.729-3.6,1.133l-.322.111.223.644.322-.112C565.271,3381.708,566.471,3381.331,567.683,3380.987Z" fill="#4b94ba"/>
                        <path id="Trazado_195088" data-name="Trazado 195088" d="M574.974,3379.324l.335-.059-.117-.671-.336.059c-1.234.216-2.479.466-3.7.745l-.332.075.152.664.332-.075C572.517,3379.786,573.751,3379.537,574.974,3379.324Z" fill="#4b94ba"/>
                        <path id="Trazado_195089" data-name="Trazado 195089" d="M553.63,3386.249c-1.1.677-2.148,1.4-3.127,2.14l-.271.206.412.542.271-.206c.961-.729,1.995-1.437,3.073-2.1l.289-.179-.357-.579Z" fill="#4b94ba"/>
                        <path id="Trazado_195090" data-name="Trazado 195090" d="M548.567,3404.255l-.451.51.255.225a13.319,13.319,0,0,1,1.535,1.609c.3.369.585.759.856,1.161l.191.282.564-.381-.19-.282c-.282-.418-.582-.824-.891-1.207a13.852,13.852,0,0,0-1.614-1.692Z" fill="#4b94ba"/>
                        <path id="Trazado_195091" data-name="Trazado 195091" d="M548.079,3391.336l.247-.234-.469-.494-.246.235a30.444,30.444,0,0,0-2.587,2.779l-.216.264.527.431.216-.263A29.9,29.9,0,0,1,548.079,3391.336Z" fill="#4b94ba"/>
                        <path id="Trazado_195092" data-name="Trazado 195092" d="M540.733,3424.618l-.5.465.233.249a5.831,5.831,0,0,0,3.414,1.9l.336.051.1-.674-.337-.05a5.172,5.172,0,0,1-3.018-1.694Z" fill="#4b94ba"/>
                        <path id="Trazado_195093" data-name="Trazado 195093" d="M553.121,3410.754l-.128-.316-.631.256.127.315a17.351,17.351,0,0,1,1.019,3.535l.058.335.671-.117-.058-.335A18.051,18.051,0,0,0,553.121,3410.754Z" fill="#4b94ba"/>
                        <path id="Trazado_195094" data-name="Trazado 195094" d="M552.853,3421.725l-.137.312.623.274.137-.311a11.429,11.429,0,0,0,.9-3.746l.026-.339-.679-.053-.026.34A10.792,10.792,0,0,1,552.853,3421.725Z" fill="#4b94ba"/>
                        <path id="Trazado_195095" data-name="Trazado 195095" d="M542.8,3396.7c-.69,1.065-1.329,2.169-1.9,3.278l-.155.3.605.311.156-.3c.56-1.089,1.187-2.173,1.865-3.219l.185-.286-.572-.37Z" fill="#4b94ba"/>
                      </g>
                    </g>
                  </g>
                </g>
              </g>
            </g>
          </g>
          <g id="Grupo_137015" data-name="Grupo 137015">
            <g id="Grupo_137004" data-name="Grupo 137004">
              <g id="Grupo_137003" data-name="Grupo 137003">
                <g id="Grupo_137002" data-name="Grupo 137002">
                  <g id="Grupo_137001" data-name="Grupo 137001">
                    <g id="Grupo_137000" data-name="Grupo 137000">
                      <path id="Trazado_195096" data-name="Trazado 195096" d="M608.471,3372.777l7.121-7.026-10.6,2.77-16.216,7.962,1.926,8.222,2.042-4.772S608.283,3372.964,608.471,3372.777Z" fill="#0d243e"/>
                    </g>
                  </g>
                </g>
              </g>
            </g>
            <g id="Grupo_137009" data-name="Grupo 137009">
              <g id="Grupo_137008" data-name="Grupo 137008">
                <g id="Grupo_137007" data-name="Grupo 137007">
                  <g id="Grupo_137006" data-name="Grupo 137006">
                    <g id="Grupo_137005" data-name="Grupo 137005">
                      <path id="Trazado_195097" data-name="Trazado 195097" d="M582.222,3369.407l6.553,7.075,26.817-10.732Z" fill="#003b82"/>
                    </g>
                  </g>
                </g>
              </g>
            </g>
            <g id="Grupo_137014" data-name="Grupo 137014">
              <g id="Grupo_137013" data-name="Grupo 137013">
                <g id="Grupo_137012" data-name="Grupo 137012">
                  <g id="Grupo_137011" data-name="Grupo 137011">
                    <g id="Grupo_137010" data-name="Grupo 137010">
                      <path id="Trazado_195098" data-name="Trazado 195098" d="M592.742,3379.933l6.917,7.553,15.933-21.736Z" fill="#003b82"/>
                    </g>
                  </g>
                </g>
              </g>
            </g>
          </g>
        </g>
        <g id="Grupo_137023" data-name="Grupo 137023">
          <g id="Grupo_137022" data-name="Grupo 137022">
            <g id="Grupo_137021" data-name="Grupo 137021">
              <g id="Grupo_137020" data-name="Grupo 137020">
                <g id="Grupo_137019" data-name="Grupo 137019">
                  <g id="Grupo_137018" data-name="Grupo 137018">
                    <g id="Grupo_137017" data-name="Grupo 137017">
                      <path id="Trazado_195099" data-name="Trazado 195099" d="M368.688,3347.136l-.771,2.1-.77,2.1,2.817,1.665a12.3,12.3,0,0,0,.164,3.989l-2.671,1.891.941,2.03.94,2.03,3.17-.815a12.284,12.284,0,0,0,2.936,2.705l-.552,3.225,2.1.771,2.1.771,1.665-2.818a12.3,12.3,0,0,0,3.989-.164l1.89,2.671,2.03-.94,2.031-.941-.815-3.169a12.325,12.325,0,0,0,2.705-2.936l3.225.551.77-2.1.771-2.1-2.817-1.664a12.3,12.3,0,0,0-.164-3.989l2.671-1.891-.941-2.03-.94-2.03-3.17.815a12.284,12.284,0,0,0-2.936-2.705l.552-3.225-2.1-.771-2.1-.771-1.665,2.817a12.3,12.3,0,0,0-3.989.165l-1.89-2.671-2.031.94-2.03.94.815,3.17a12.325,12.325,0,0,0-2.705,2.936Zm10.034-.258a8.394,8.394,0,1,1-4.088,11.145A8.395,8.395,0,0,1,378.722,3346.878Z" fill="#75ba94"/>
                    </g>
                  </g>
                </g>
              </g>
            </g>
          </g>
        </g>
        <g id="Grupo_137069" data-name="Grupo 137069">
          <g id="Grupo_137028" data-name="Grupo 137028">
            <g id="Grupo_137027" data-name="Grupo 137027">
              <g id="Grupo_137026" data-name="Grupo 137026">
                <g id="Grupo_137025" data-name="Grupo 137025">
                  <g id="Grupo_137024" data-name="Grupo 137024">
                    <path id="Trazado_195100" data-name="Trazado 195100" d="M598.543,3305.848h-75.2a4.349,4.349,0,0,0-4.349,4.349v36.425a4.349,4.349,0,0,0,4.349,4.349h6.4l-2.918,7.969,11.525-7.969h60.19a4.35,4.35,0,0,0,4.35-4.349V3310.2A4.35,4.35,0,0,0,598.543,3305.848Z" fill="#fff"/>
                  </g>
                </g>
              </g>
            </g>
          </g>
          <g id="Grupo_137038" data-name="Grupo 137038">
            <g id="Grupo_137029" data-name="Grupo 137029">
              <path id="Trazado_195101" data-name="Trazado 195101" d="M529.565,3313.3v4.015h.826v.3h-2.346v-.3h.826V3313.6h-.9v-.3Z" fill="#2393bf"/>
            </g>
            <g id="Grupo_137030" data-name="Grupo 137030">
              <path id="Trazado_195102" data-name="Trazado 195102" d="M536.813,3317.721a1.824,1.824,0,0,1-.773-.155,1.562,1.562,0,0,1-.57-.445,2.036,2.036,0,0,1-.355-.7,3.557,3.557,0,0,1,.01-1.884,2.059,2.059,0,0,1,.379-.724,1.668,1.668,0,0,1,.6-.459,1.864,1.864,0,0,1,.79-.162,1.811,1.811,0,0,1,.766.156,1.547,1.547,0,0,1,.568.445,2.045,2.045,0,0,1,.353.7,3.248,3.248,0,0,1,.122.922,3.38,3.38,0,0,1-.12.925,2.154,2.154,0,0,1-.357.73,1.64,1.64,0,0,1-.589.48A1.849,1.849,0,0,1,536.813,3317.721Zm.019-.292a1.461,1.461,0,0,0,.31-.032.762.762,0,0,0,.266-.115.837.837,0,0,0,.219-.225,1.271,1.271,0,0,0,.164-.364,3.156,3.156,0,0,0,.1-.531,6.372,6.372,0,0,0,.036-.726,5.311,5.311,0,0,0-.075-.992,1.737,1.737,0,0,0-.212-.595.7.7,0,0,0-.334-.289,1.235,1.235,0,0,0-.441-.075,1.279,1.279,0,0,0-.452.077.721.721,0,0,0-.348.294,1.768,1.768,0,0,0-.221.608,5.336,5.336,0,0,0-.079,1.013,6.656,6.656,0,0,0,.034.71,3.028,3.028,0,0,0,.1.519,1.351,1.351,0,0,0,.155.357.8.8,0,0,0,.21.221.744.744,0,0,0,.261.113A1.428,1.428,0,0,0,536.832,3317.429Z" fill="#2393bf"/>
            </g>
            <g id="Grupo_137031" data-name="Grupo 137031">
              <path id="Trazado_195103" data-name="Trazado 195103" d="M545.311,3317.721a1.824,1.824,0,0,1-.773-.155,1.561,1.561,0,0,1-.57-.445,2.035,2.035,0,0,1-.355-.7,3.559,3.559,0,0,1,.01-1.884,2.076,2.076,0,0,1,.379-.724,1.668,1.668,0,0,1,.6-.459,1.864,1.864,0,0,1,.79-.162,1.811,1.811,0,0,1,.766.156,1.547,1.547,0,0,1,.568.445,2.046,2.046,0,0,1,.353.7,3.248,3.248,0,0,1,.122.922,3.38,3.38,0,0,1-.12.925,2.153,2.153,0,0,1-.357.73,1.64,1.64,0,0,1-.589.48A1.849,1.849,0,0,1,545.311,3317.721Zm.019-.292a1.46,1.46,0,0,0,.31-.032.761.761,0,0,0,.266-.115.855.855,0,0,0,.22-.225,1.3,1.3,0,0,0,.163-.364,3.15,3.15,0,0,0,.1-.531,6.371,6.371,0,0,0,.036-.726,5.31,5.31,0,0,0-.075-.992,1.736,1.736,0,0,0-.212-.595.7.7,0,0,0-.334-.289,1.235,1.235,0,0,0-.441-.075,1.279,1.279,0,0,0-.452.077.714.714,0,0,0-.347.294,1.745,1.745,0,0,0-.222.608,5.33,5.33,0,0,0-.079,1.013,6.656,6.656,0,0,0,.034.71,3.034,3.034,0,0,0,.1.519,1.349,1.349,0,0,0,.155.357.784.784,0,0,0,.211.221.731.731,0,0,0,.26.113A1.428,1.428,0,0,0,545.33,3317.429Z" fill="#2393bf"/>
            </g>
            <g id="Grupo_137032" data-name="Grupo 137032">
              <path id="Trazado_195104" data-name="Trazado 195104" d="M561.875,3313.3v4.015h.826v.3h-2.346v-.3h.826V3313.6h-.9v-.3Z" fill="#2393bf"/>
            </g>
            <g id="Grupo_137033" data-name="Grupo 137033">
              <path id="Trazado_195105" data-name="Trazado 195105" d="M554.227,3313.3v4.015h.826v.3h-2.345v-.3h.825V3313.6h-.9v-.3Z" fill="#2393bf"/>
            </g>
            <g id="Grupo_137034" data-name="Grupo 137034">
              <path id="Trazado_195106" data-name="Trazado 195106" d="M569.124,3317.721a1.821,1.821,0,0,1-.773-.155,1.564,1.564,0,0,1-.571-.445,2.016,2.016,0,0,1-.354-.7,3.22,3.22,0,0,1-.122-.925,3.271,3.271,0,0,1,.131-.959,2.093,2.093,0,0,1,.379-.724,1.672,1.672,0,0,1,.6-.459,1.859,1.859,0,0,1,.789-.162,1.8,1.8,0,0,1,.766.156,1.54,1.54,0,0,1,.568.445,2.028,2.028,0,0,1,.353.7,3.248,3.248,0,0,1,.122.922,3.38,3.38,0,0,1-.12.925,2.171,2.171,0,0,1-.356.73,1.643,1.643,0,0,1-.59.48A1.848,1.848,0,0,1,569.124,3317.721Zm.018-.292a1.453,1.453,0,0,0,.31-.032.762.762,0,0,0,.266-.115.826.826,0,0,0,.22-.225,1.3,1.3,0,0,0,.163-.364,3.055,3.055,0,0,0,.1-.531,6.372,6.372,0,0,0,.036-.726,5.311,5.311,0,0,0-.075-.992,1.737,1.737,0,0,0-.212-.595.69.69,0,0,0-.334-.289,1.228,1.228,0,0,0-.441-.075,1.279,1.279,0,0,0-.452.077.719.719,0,0,0-.347.294,1.746,1.746,0,0,0-.221.608,5.251,5.251,0,0,0-.079,1.013,6.681,6.681,0,0,0,.033.71,3.132,3.132,0,0,0,.1.519,1.381,1.381,0,0,0,.156.357.768.768,0,0,0,.21.221.744.744,0,0,0,.261.113A1.418,1.418,0,0,0,569.142,3317.429Z" fill="#2393bf"/>
            </g>
            <g id="Grupo_137035" data-name="Grupo 137035">
              <path id="Trazado_195107" data-name="Trazado 195107" d="M577.19,3313.3v4.015h.825v.3H575.67v-.3h.826V3313.6h-.9v-.3Z" fill="#2393bf"/>
            </g>
            <g id="Grupo_137036" data-name="Grupo 137036">
              <path id="Trazado_195108" data-name="Trazado 195108" d="M584.438,3317.721a1.824,1.824,0,0,1-.773-.155,1.562,1.562,0,0,1-.57-.445,2.036,2.036,0,0,1-.355-.7,3.557,3.557,0,0,1,.01-1.884,2.075,2.075,0,0,1,.379-.724,1.668,1.668,0,0,1,.6-.459,1.864,1.864,0,0,1,.79-.162,1.808,1.808,0,0,1,.766.156,1.547,1.547,0,0,1,.568.445,2.028,2.028,0,0,1,.353.7,3.248,3.248,0,0,1,.122.922,3.38,3.38,0,0,1-.12.925,2.154,2.154,0,0,1-.357.73,1.64,1.64,0,0,1-.589.48A1.849,1.849,0,0,1,584.438,3317.721Zm.019-.292a1.461,1.461,0,0,0,.31-.032.762.762,0,0,0,.266-.115.84.84,0,0,0,.22-.225,1.3,1.3,0,0,0,.163-.364,3.156,3.156,0,0,0,.1-.531,6.372,6.372,0,0,0,.036-.726,5.311,5.311,0,0,0-.075-.992,1.737,1.737,0,0,0-.212-.595.7.7,0,0,0-.334-.289,1.235,1.235,0,0,0-.441-.075,1.279,1.279,0,0,0-.452.077.714.714,0,0,0-.347.294,1.766,1.766,0,0,0-.222.608,5.336,5.336,0,0,0-.079,1.013,6.656,6.656,0,0,0,.034.71,3.028,3.028,0,0,0,.1.519,1.351,1.351,0,0,0,.155.357.785.785,0,0,0,.211.221.731.731,0,0,0,.26.113A1.428,1.428,0,0,0,584.457,3317.429Z" fill="#2393bf"/>
            </g>
            <g id="Grupo_137037" data-name="Grupo 137037">
              <path id="Trazado_195109" data-name="Trazado 195109" d="M592.505,3313.3v4.015h.825v.3h-2.345v-.3h.825V3313.6h-.9v-.3Z" fill="#2393bf"/>
            </g>
          </g>
          <g id="Grupo_137048" data-name="Grupo 137048">
            <g id="Grupo_137039" data-name="Grupo 137039">
              <path id="Trazado_195110" data-name="Trazado 195110" d="M529.565,3320.906v4.015h.826v.3h-2.346v-.3h.826v-3.714h-.9v-.3Z" fill="#2393bf"/>
            </g>
            <g id="Grupo_137040" data-name="Grupo 137040">
              <path id="Trazado_195111" data-name="Trazado 195111" d="M536.813,3325.327a1.824,1.824,0,0,1-.773-.156,1.562,1.562,0,0,1-.57-.445,2.032,2.032,0,0,1-.355-.7,3.264,3.264,0,0,1-.122-.925,3.231,3.231,0,0,1,.132-.959,2.042,2.042,0,0,1,.379-.724,1.671,1.671,0,0,1,.6-.46,1.864,1.864,0,0,1,.79-.161,1.814,1.814,0,0,1,.766.155,1.547,1.547,0,0,1,.568.445,2.05,2.05,0,0,1,.353.7,3.246,3.246,0,0,1,.122.921,3.373,3.373,0,0,1-.12.925,2.145,2.145,0,0,1-.357.73,1.64,1.64,0,0,1-.589.48A1.849,1.849,0,0,1,536.813,3325.327Zm.019-.293a1.461,1.461,0,0,0,.31-.032.755.755,0,0,0,.266-.114.84.84,0,0,0,.219-.225,1.285,1.285,0,0,0,.164-.364,3.19,3.19,0,0,0,.1-.531,6.4,6.4,0,0,0,.036-.726,5.322,5.322,0,0,0-.075-.993,1.745,1.745,0,0,0-.212-.595.7.7,0,0,0-.334-.289,1.235,1.235,0,0,0-.441-.075,1.279,1.279,0,0,0-.452.077.723.723,0,0,0-.348.295,1.76,1.76,0,0,0-.221.608,5.336,5.336,0,0,0-.079,1.013,6.646,6.646,0,0,0,.034.709,3.036,3.036,0,0,0,.1.52,1.344,1.344,0,0,0,.155.356.8.8,0,0,0,.21.222.755.755,0,0,0,.261.112A1.428,1.428,0,0,0,536.832,3325.034Z" fill="#2393bf"/>
            </g>
            <g id="Grupo_137041" data-name="Grupo 137041">
              <path id="Trazado_195112" data-name="Trazado 195112" d="M545.311,3325.327a1.824,1.824,0,0,1-.773-.156,1.561,1.561,0,0,1-.57-.445,2.031,2.031,0,0,1-.355-.7,3.264,3.264,0,0,1-.122-.925,3.231,3.231,0,0,1,.132-.959,2.059,2.059,0,0,1,.379-.724,1.671,1.671,0,0,1,.6-.46,1.864,1.864,0,0,1,.79-.161,1.814,1.814,0,0,1,.766.155,1.547,1.547,0,0,1,.568.445,2.051,2.051,0,0,1,.353.7,3.246,3.246,0,0,1,.122.921,3.373,3.373,0,0,1-.12.925,2.144,2.144,0,0,1-.357.73,1.64,1.64,0,0,1-.589.48A1.849,1.849,0,0,1,545.311,3325.327Zm.019-.293a1.46,1.46,0,0,0,.31-.032.755.755,0,0,0,.266-.114.857.857,0,0,0,.22-.225,1.313,1.313,0,0,0,.163-.364,3.184,3.184,0,0,0,.1-.531,6.4,6.4,0,0,0,.036-.726,5.322,5.322,0,0,0-.075-.993,1.744,1.744,0,0,0-.212-.595.7.7,0,0,0-.334-.289,1.235,1.235,0,0,0-.441-.075,1.279,1.279,0,0,0-.452.077.717.717,0,0,0-.347.295,1.737,1.737,0,0,0-.222.608,5.33,5.33,0,0,0-.079,1.013,6.646,6.646,0,0,0,.034.709,3.042,3.042,0,0,0,.1.52,1.342,1.342,0,0,0,.155.356.788.788,0,0,0,.211.222.742.742,0,0,0,.26.112A1.428,1.428,0,0,0,545.33,3325.034Z" fill="#2393bf"/>
            </g>
            <g id="Grupo_137042" data-name="Grupo 137042">
              <path id="Trazado_195113" data-name="Trazado 195113" d="M553.809,3325.327a1.824,1.824,0,0,1-.773-.156,1.561,1.561,0,0,1-.57-.445,2,2,0,0,1-.355-.7,3.572,3.572,0,0,1,.009-1.884,2.075,2.075,0,0,1,.379-.724,1.674,1.674,0,0,1,.6-.46,1.863,1.863,0,0,1,.79-.161,1.807,1.807,0,0,1,.765.155,1.551,1.551,0,0,1,.569.445,2.051,2.051,0,0,1,.353.7,3.247,3.247,0,0,1,.121.921,3.373,3.373,0,0,1-.12.925,2.144,2.144,0,0,1-.356.73,1.648,1.648,0,0,1-.589.48A1.849,1.849,0,0,1,553.809,3325.327Zm.019-.293a1.444,1.444,0,0,0,.309-.032.759.759,0,0,0,.267-.114.84.84,0,0,0,.219-.225,1.285,1.285,0,0,0,.163-.364,3.176,3.176,0,0,0,.1-.531,6.417,6.417,0,0,0,.035-.726,5.322,5.322,0,0,0-.075-.993,1.723,1.723,0,0,0-.212-.595.691.691,0,0,0-.334-.289,1.226,1.226,0,0,0-.44-.075,1.285,1.285,0,0,0-.453.077.721.721,0,0,0-.347.295,1.738,1.738,0,0,0-.221.608,5.251,5.251,0,0,0-.079,1.013,6.384,6.384,0,0,0,.034.709,3.045,3.045,0,0,0,.1.52,1.374,1.374,0,0,0,.156.356.773.773,0,0,0,.21.222.756.756,0,0,0,.261.112A1.427,1.427,0,0,0,553.828,3325.034Z" fill="#2393bf"/>
            </g>
            <g id="Grupo_137043" data-name="Grupo 137043">
              <path id="Trazado_195114" data-name="Trazado 195114" d="M561.875,3320.906v4.015h.826v.3h-2.346v-.3h.826v-3.714h-.9v-.3Z" fill="#2393bf"/>
            </g>
            <g id="Grupo_137044" data-name="Grupo 137044">
              <path id="Trazado_195115" data-name="Trazado 195115" d="M569.124,3325.327a1.821,1.821,0,0,1-.773-.156,1.564,1.564,0,0,1-.571-.445,2.012,2.012,0,0,1-.354-.7,3.228,3.228,0,0,1-.122-.925,3.267,3.267,0,0,1,.131-.959,2.075,2.075,0,0,1,.379-.724,1.674,1.674,0,0,1,.6-.46,1.859,1.859,0,0,1,.789-.161,1.808,1.808,0,0,1,.766.155,1.54,1.54,0,0,1,.568.445,2.033,2.033,0,0,1,.353.7,3.246,3.246,0,0,1,.122.921,3.373,3.373,0,0,1-.12.925,2.162,2.162,0,0,1-.356.73,1.643,1.643,0,0,1-.59.48A1.848,1.848,0,0,1,569.124,3325.327Zm.018-.293a1.453,1.453,0,0,0,.31-.032.755.755,0,0,0,.266-.114.828.828,0,0,0,.22-.225,1.313,1.313,0,0,0,.163-.364,3.087,3.087,0,0,0,.1-.531,6.4,6.4,0,0,0,.036-.726,5.322,5.322,0,0,0-.075-.993,1.745,1.745,0,0,0-.212-.595.7.7,0,0,0-.334-.289,1.228,1.228,0,0,0-.441-.075,1.279,1.279,0,0,0-.452.077.721.721,0,0,0-.347.295,1.738,1.738,0,0,0-.221.608,5.251,5.251,0,0,0-.079,1.013,6.671,6.671,0,0,0,.033.709,3.141,3.141,0,0,0,.1.52,1.374,1.374,0,0,0,.156.356.773.773,0,0,0,.21.222.756.756,0,0,0,.261.112A1.418,1.418,0,0,0,569.142,3325.034Z" fill="#2393bf"/>
            </g>
            <g id="Grupo_137045" data-name="Grupo 137045">
              <path id="Trazado_195116" data-name="Trazado 195116" d="M577.19,3320.906v4.015h.825v.3H575.67v-.3h.826v-3.714h-.9v-.3Z" fill="#2393bf"/>
            </g>
            <g id="Grupo_137046" data-name="Grupo 137046">
              <path id="Trazado_195117" data-name="Trazado 195117" d="M584.438,3325.327a1.824,1.824,0,0,1-.773-.156,1.562,1.562,0,0,1-.57-.445,2.032,2.032,0,0,1-.355-.7,3.264,3.264,0,0,1-.122-.925,3.231,3.231,0,0,1,.132-.959,2.058,2.058,0,0,1,.379-.724,1.671,1.671,0,0,1,.6-.46,1.864,1.864,0,0,1,.79-.161,1.811,1.811,0,0,1,.766.155,1.547,1.547,0,0,1,.568.445,2.033,2.033,0,0,1,.353.7,3.246,3.246,0,0,1,.122.921,3.373,3.373,0,0,1-.12.925,2.145,2.145,0,0,1-.357.73,1.64,1.64,0,0,1-.589.48A1.849,1.849,0,0,1,584.438,3325.327Zm.019-.293a1.461,1.461,0,0,0,.31-.032.755.755,0,0,0,.266-.114.842.842,0,0,0,.22-.225,1.313,1.313,0,0,0,.163-.364,3.19,3.19,0,0,0,.1-.531,6.4,6.4,0,0,0,.036-.726,5.322,5.322,0,0,0-.075-.993,1.745,1.745,0,0,0-.212-.595.7.7,0,0,0-.334-.289,1.235,1.235,0,0,0-.441-.075,1.279,1.279,0,0,0-.452.077.716.716,0,0,0-.347.295,1.758,1.758,0,0,0-.222.608,5.336,5.336,0,0,0-.079,1.013,6.646,6.646,0,0,0,.034.709,3.036,3.036,0,0,0,.1.52,1.344,1.344,0,0,0,.155.356.79.79,0,0,0,.211.222.743.743,0,0,0,.26.112A1.428,1.428,0,0,0,584.457,3325.034Z" fill="#2393bf"/>
            </g>
            <g id="Grupo_137047" data-name="Grupo 137047">
              <path id="Trazado_195118" data-name="Trazado 195118" d="M592.505,3320.906v4.015h.825v.3h-2.345v-.3h.825v-3.714h-.9v-.3Z" fill="#2393bf"/>
            </g>
          </g>
          <g id="Grupo_137058" data-name="Grupo 137058">
            <g id="Grupo_137049" data-name="Grupo 137049">
              <path id="Trazado_195119" data-name="Trazado 195119" d="M529.565,3328.512v4.015h.826v.3h-2.346v-.3h.826v-3.715h-.9v-.3Z" fill="#2393bf"/>
            </g>
            <g id="Grupo_137050" data-name="Grupo 137050">
              <path id="Trazado_195120" data-name="Trazado 195120" d="M536.813,3332.932a1.824,1.824,0,0,1-.773-.156,1.557,1.557,0,0,1-.57-.444,2.037,2.037,0,0,1-.355-.7,3.558,3.558,0,0,1,.01-1.884,2.053,2.053,0,0,1,.379-.724,1.684,1.684,0,0,1,.6-.46,1.879,1.879,0,0,1,.79-.161,1.811,1.811,0,0,1,.766.156,1.544,1.544,0,0,1,.568.444,2.05,2.05,0,0,1,.353.7,3.246,3.246,0,0,1,.122.921,3.368,3.368,0,0,1-.12.925,2.137,2.137,0,0,1-.357.73,1.653,1.653,0,0,1-.589.481A1.849,1.849,0,0,1,536.813,3332.932Zm.019-.293a1.462,1.462,0,0,0,.31-.031.776.776,0,0,0,.266-.115.84.84,0,0,0,.219-.225,1.272,1.272,0,0,0,.164-.364,3.185,3.185,0,0,0,.1-.531,6.372,6.372,0,0,0,.036-.726,5.322,5.322,0,0,0-.075-.993,1.731,1.731,0,0,0-.212-.594.7.7,0,0,0-.334-.289,1.235,1.235,0,0,0-.441-.075,1.258,1.258,0,0,0-.452.077.722.722,0,0,0-.348.294,1.768,1.768,0,0,0-.221.608,5.336,5.336,0,0,0-.079,1.013,6.633,6.633,0,0,0,.034.709,3.036,3.036,0,0,0,.1.52,1.351,1.351,0,0,0,.155.357.815.815,0,0,0,.21.221.761.761,0,0,0,.261.113A1.429,1.429,0,0,0,536.832,3332.639Z" fill="#2393bf"/>
            </g>
            <g id="Grupo_137051" data-name="Grupo 137051">
              <path id="Trazado_195121" data-name="Trazado 195121" d="M553.809,3332.932a1.824,1.824,0,0,1-.773-.156,1.556,1.556,0,0,1-.57-.444,2,2,0,0,1-.355-.7,3.572,3.572,0,0,1,.009-1.884,2.086,2.086,0,0,1,.379-.724,1.688,1.688,0,0,1,.6-.46,1.878,1.878,0,0,1,.79-.161,1.8,1.8,0,0,1,.765.156,1.548,1.548,0,0,1,.569.444,2.051,2.051,0,0,1,.353.7,3.247,3.247,0,0,1,.121.921,3.368,3.368,0,0,1-.12.925,2.135,2.135,0,0,1-.356.73,1.661,1.661,0,0,1-.589.481A1.849,1.849,0,0,1,553.809,3332.932Zm.019-.293a1.446,1.446,0,0,0,.309-.031.78.78,0,0,0,.267-.115.84.84,0,0,0,.219-.225,1.272,1.272,0,0,0,.163-.364,3.171,3.171,0,0,0,.1-.531,6.394,6.394,0,0,0,.035-.726,5.322,5.322,0,0,0-.075-.993,1.71,1.71,0,0,0-.212-.594.686.686,0,0,0-.334-.289,1.226,1.226,0,0,0-.44-.075,1.263,1.263,0,0,0-.453.077.72.72,0,0,0-.347.294,1.746,1.746,0,0,0-.221.608,5.251,5.251,0,0,0-.079,1.013,6.372,6.372,0,0,0,.034.709,3.045,3.045,0,0,0,.1.52,1.381,1.381,0,0,0,.156.357.786.786,0,0,0,.21.221.762.762,0,0,0,.261.113A1.429,1.429,0,0,0,553.828,3332.639Z" fill="#2393bf"/>
            </g>
            <g id="Grupo_137052" data-name="Grupo 137052">
              <path id="Trazado_195122" data-name="Trazado 195122" d="M561.875,3328.512v4.015h.826v.3h-2.346v-.3h.826v-3.715h-.9v-.3Z" fill="#2393bf"/>
            </g>
            <g id="Grupo_137053" data-name="Grupo 137053">
              <path id="Trazado_195123" data-name="Trazado 195123" d="M545.859,3328.512v4.015h.826v.3h-2.346v-.3h.826v-3.715h-.9v-.3Z" fill="#2393bf"/>
            </g>
            <g id="Grupo_137054" data-name="Grupo 137054">
              <path id="Trazado_195124" data-name="Trazado 195124" d="M569.124,3332.932a1.821,1.821,0,0,1-.773-.156,1.559,1.559,0,0,1-.571-.444,2.017,2.017,0,0,1-.354-.7,3.223,3.223,0,0,1-.122-.925,3.271,3.271,0,0,1,.131-.959,2.086,2.086,0,0,1,.379-.724,1.688,1.688,0,0,1,.6-.46,1.874,1.874,0,0,1,.789-.161,1.8,1.8,0,0,1,.766.156,1.536,1.536,0,0,1,.568.444,2.033,2.033,0,0,1,.353.7,3.246,3.246,0,0,1,.122.921,3.368,3.368,0,0,1-.12.925,2.153,2.153,0,0,1-.356.73,1.656,1.656,0,0,1-.59.481A1.848,1.848,0,0,1,569.124,3332.932Zm.018-.293a1.455,1.455,0,0,0,.31-.031.776.776,0,0,0,.266-.115.828.828,0,0,0,.22-.225,1.3,1.3,0,0,0,.163-.364,3.082,3.082,0,0,0,.1-.531,6.372,6.372,0,0,0,.036-.726,5.322,5.322,0,0,0-.075-.993,1.731,1.731,0,0,0-.212-.594.69.69,0,0,0-.334-.289,1.228,1.228,0,0,0-.441-.075,1.258,1.258,0,0,0-.452.077.72.72,0,0,0-.347.294,1.746,1.746,0,0,0-.221.608,5.251,5.251,0,0,0-.079,1.013,6.658,6.658,0,0,0,.033.709,3.141,3.141,0,0,0,.1.52,1.381,1.381,0,0,0,.156.357.786.786,0,0,0,.21.221.762.762,0,0,0,.261.113A1.419,1.419,0,0,0,569.142,3332.639Z" fill="#2393bf"/>
            </g>
            <g id="Grupo_137055" data-name="Grupo 137055">
              <path id="Trazado_195125" data-name="Trazado 195125" d="M577.19,3328.512v4.015h.825v.3H575.67v-.3h.826v-3.715h-.9v-.3Z" fill="#2393bf"/>
            </g>
            <g id="Grupo_137056" data-name="Grupo 137056">
              <path id="Trazado_195126" data-name="Trazado 195126" d="M584.438,3332.932a1.824,1.824,0,0,1-.773-.156,1.557,1.557,0,0,1-.57-.444,2.037,2.037,0,0,1-.355-.7,3.558,3.558,0,0,1,.01-1.884,2.069,2.069,0,0,1,.379-.724,1.684,1.684,0,0,1,.6-.46,1.879,1.879,0,0,1,.79-.161,1.808,1.808,0,0,1,.766.156,1.544,1.544,0,0,1,.568.444,2.033,2.033,0,0,1,.353.7,3.246,3.246,0,0,1,.122.921,3.368,3.368,0,0,1-.12.925,2.137,2.137,0,0,1-.357.73,1.653,1.653,0,0,1-.589.481A1.849,1.849,0,0,1,584.438,3332.932Zm.019-.293a1.462,1.462,0,0,0,.31-.031.776.776,0,0,0,.266-.115.842.842,0,0,0,.22-.225,1.3,1.3,0,0,0,.163-.364,3.185,3.185,0,0,0,.1-.531,6.372,6.372,0,0,0,.036-.726,5.322,5.322,0,0,0-.075-.993,1.731,1.731,0,0,0-.212-.594.7.7,0,0,0-.334-.289,1.235,1.235,0,0,0-.441-.075,1.258,1.258,0,0,0-.452.077.715.715,0,0,0-.347.294,1.766,1.766,0,0,0-.222.608,5.336,5.336,0,0,0-.079,1.013,6.633,6.633,0,0,0,.034.709,3.036,3.036,0,0,0,.1.52,1.351,1.351,0,0,0,.155.357.8.8,0,0,0,.211.221.749.749,0,0,0,.26.113A1.429,1.429,0,0,0,584.457,3332.639Z" fill="#2393bf"/>
            </g>
            <g id="Grupo_137057" data-name="Grupo 137057">
              <path id="Trazado_195127" data-name="Trazado 195127" d="M592.505,3328.512v4.015h.825v.3h-2.345v-.3h.825v-3.715h-.9v-.3Z" fill="#2393bf"/>
            </g>
          </g>
          <g id="Grupo_137068" data-name="Grupo 137068">
            <g id="Grupo_137059" data-name="Grupo 137059">
              <path id="Trazado_195128" data-name="Trazado 195128" d="M529.565,3336.117v4.015h.826v.3h-2.346v-.3h.826v-3.715h-.9v-.3Z" fill="#2393bf"/>
            </g>
            <g id="Grupo_137060" data-name="Grupo 137060">
              <path id="Trazado_195129" data-name="Trazado 195129" d="M545.73,3336.117v4.015h.825v.3H544.21v-.3h.825v-3.715h-.9v-.3Z" fill="#2393bf"/>
            </g>
            <g id="Grupo_137061" data-name="Grupo 137061">
              <path id="Trazado_195130" data-name="Trazado 195130" d="M554.227,3336.117v4.015h.826v.3h-2.345v-.3h.825v-3.715h-.9v-.3Z" fill="#2393bf"/>
            </g>
            <g id="Grupo_137062" data-name="Grupo 137062">
              <path id="Trazado_195131" data-name="Trazado 195131" d="M536.813,3340.537a1.824,1.824,0,0,1-.773-.155,1.563,1.563,0,0,1-.57-.445,2.037,2.037,0,0,1-.355-.7,3.558,3.558,0,0,1,.01-1.884,2.061,2.061,0,0,1,.379-.724,1.671,1.671,0,0,1,.6-.459,1.864,1.864,0,0,1,.79-.162,1.811,1.811,0,0,1,.766.156,1.547,1.547,0,0,1,.568.445,2.044,2.044,0,0,1,.353.7,3.245,3.245,0,0,1,.122.922,3.378,3.378,0,0,1-.12.925,2.154,2.154,0,0,1-.357.73,1.638,1.638,0,0,1-.589.48A1.849,1.849,0,0,1,536.813,3340.537Zm.019-.292a1.46,1.46,0,0,0,.31-.032.757.757,0,0,0,.266-.115.84.84,0,0,0,.219-.225,1.272,1.272,0,0,0,.164-.364,3.146,3.146,0,0,0,.1-.531,6.372,6.372,0,0,0,.036-.726,5.311,5.311,0,0,0-.075-.992,1.749,1.749,0,0,0-.212-.595.7.7,0,0,0-.334-.289,1.235,1.235,0,0,0-.441-.075,1.279,1.279,0,0,0-.452.077.721.721,0,0,0-.348.294,1.774,1.774,0,0,0-.221.608,5.343,5.343,0,0,0-.079,1.013,6.652,6.652,0,0,0,.034.71,3.024,3.024,0,0,0,.1.519,1.351,1.351,0,0,0,.155.357.8.8,0,0,0,.21.221.743.743,0,0,0,.261.113A1.427,1.427,0,0,0,536.832,3340.245Z" fill="#2393bf"/>
            </g>
            <g id="Grupo_137063" data-name="Grupo 137063">
              <path id="Trazado_195132" data-name="Trazado 195132" d="M569.124,3340.537a1.821,1.821,0,0,1-.773-.155,1.565,1.565,0,0,1-.571-.445,2.017,2.017,0,0,1-.354-.7,3.223,3.223,0,0,1-.122-.925,3.271,3.271,0,0,1,.131-.959,2.1,2.1,0,0,1,.379-.724,1.674,1.674,0,0,1,.6-.459,1.859,1.859,0,0,1,.789-.162,1.8,1.8,0,0,1,.766.156,1.539,1.539,0,0,1,.568.445,2.027,2.027,0,0,1,.353.7,3.245,3.245,0,0,1,.122.922,3.378,3.378,0,0,1-.12.925,2.171,2.171,0,0,1-.356.73,1.641,1.641,0,0,1-.59.48A1.848,1.848,0,0,1,569.124,3340.537Zm.018-.292a1.453,1.453,0,0,0,.31-.032.757.757,0,0,0,.266-.115.828.828,0,0,0,.22-.225,1.3,1.3,0,0,0,.163-.364,3.046,3.046,0,0,0,.1-.531,6.372,6.372,0,0,0,.036-.726,5.311,5.311,0,0,0-.075-.992,1.749,1.749,0,0,0-.212-.595.69.69,0,0,0-.334-.289,1.228,1.228,0,0,0-.441-.075,1.279,1.279,0,0,0-.452.077.719.719,0,0,0-.347.294,1.752,1.752,0,0,0-.221.608,5.258,5.258,0,0,0-.079,1.013,6.677,6.677,0,0,0,.033.71,3.127,3.127,0,0,0,.1.519,1.381,1.381,0,0,0,.156.357.773.773,0,0,0,.21.221.743.743,0,0,0,.261.113A1.417,1.417,0,0,0,569.142,3340.245Z" fill="#2393bf"/>
            </g>
            <g id="Grupo_137064" data-name="Grupo 137064">
              <path id="Trazado_195133" data-name="Trazado 195133" d="M561.457,3340.537a1.824,1.824,0,0,1-.773-.155,1.574,1.574,0,0,1-.571-.445,2.019,2.019,0,0,1-.354-.7,3.573,3.573,0,0,1,.009-1.884,2.1,2.1,0,0,1,.379-.724,1.675,1.675,0,0,1,.6-.459,1.864,1.864,0,0,1,.79-.162,1.8,1.8,0,0,1,.765.156,1.55,1.55,0,0,1,.569.445,2.043,2.043,0,0,1,.352.7,3.209,3.209,0,0,1,.122.922,3.378,3.378,0,0,1-.12.925,2.171,2.171,0,0,1-.356.73,1.646,1.646,0,0,1-.589.48A1.855,1.855,0,0,1,561.457,3340.537Zm.019-.292a1.443,1.443,0,0,0,.309-.032.77.77,0,0,0,.267-.115.84.84,0,0,0,.219-.225,1.272,1.272,0,0,0,.163-.364,3.132,3.132,0,0,0,.1-.531,6.629,6.629,0,0,0,.035-.726,5.3,5.3,0,0,0-.075-.992,1.727,1.727,0,0,0-.212-.595.686.686,0,0,0-.334-.289,1.228,1.228,0,0,0-.441-.075,1.279,1.279,0,0,0-.452.077.719.719,0,0,0-.347.294,1.752,1.752,0,0,0-.221.608,5.253,5.253,0,0,0-.079,1.013,6.405,6.405,0,0,0,.034.71,3.037,3.037,0,0,0,.1.519,1.381,1.381,0,0,0,.156.357.773.773,0,0,0,.21.221.743.743,0,0,0,.261.113A1.42,1.42,0,0,0,561.476,3340.245Z" fill="#2393bf"/>
            </g>
            <g id="Grupo_137065" data-name="Grupo 137065">
              <path id="Trazado_195134" data-name="Trazado 195134" d="M577.19,3336.117v4.015h.825v.3H575.67v-.3h.826v-3.715h-.9v-.3Z" fill="#2393bf"/>
            </g>
            <g id="Grupo_137066" data-name="Grupo 137066">
              <path id="Trazado_195135" data-name="Trazado 195135" d="M584.438,3340.537a1.824,1.824,0,0,1-.773-.155,1.563,1.563,0,0,1-.57-.445,2.037,2.037,0,0,1-.355-.7,3.558,3.558,0,0,1,.01-1.884,2.077,2.077,0,0,1,.379-.724,1.671,1.671,0,0,1,.6-.459,1.864,1.864,0,0,1,.79-.162,1.808,1.808,0,0,1,.766.156,1.547,1.547,0,0,1,.568.445,2.027,2.027,0,0,1,.353.7,3.245,3.245,0,0,1,.122.922,3.378,3.378,0,0,1-.12.925,2.154,2.154,0,0,1-.357.73,1.638,1.638,0,0,1-.589.48A1.849,1.849,0,0,1,584.438,3340.537Zm.019-.292a1.46,1.46,0,0,0,.31-.032.757.757,0,0,0,.266-.115.842.842,0,0,0,.22-.225,1.3,1.3,0,0,0,.163-.364,3.146,3.146,0,0,0,.1-.531,6.372,6.372,0,0,0,.036-.726,5.311,5.311,0,0,0-.075-.992,1.749,1.749,0,0,0-.212-.595.7.7,0,0,0-.334-.289,1.235,1.235,0,0,0-.441-.075,1.279,1.279,0,0,0-.452.077.715.715,0,0,0-.347.294,1.772,1.772,0,0,0-.222.608,5.343,5.343,0,0,0-.079,1.013,6.652,6.652,0,0,0,.034.71,3.024,3.024,0,0,0,.1.519,1.351,1.351,0,0,0,.155.357.79.79,0,0,0,.211.221.731.731,0,0,0,.26.113A1.427,1.427,0,0,0,584.457,3340.245Z" fill="#2393bf"/>
            </g>
            <g id="Grupo_137067" data-name="Grupo 137067">
              <path id="Trazado_195136" data-name="Trazado 195136" d="M592.505,3336.117v4.015h.825v.3h-2.345v-.3h.825v-3.715h-.9v-.3Z" fill="#2393bf"/>
            </g>
          </g>
        </g>
        <g id="Grupo_137071" data-name="Grupo 137071">
          <circle id="Elipse_5214" data-name="Elipse 5214" cx="25.621" cy="25.621" r="25.621" transform="translate(566.945 3240.04)" fill="#003b82"/>
          <g id="Grupo_137070" data-name="Grupo 137070">
            <path id="Trazado_195137" data-name="Trazado 195137" d="M580.017,3257.986v3.508l-11.842,4.867,11.842,4.826v3.522l-16.335-6.739v-3.231Z" fill="#fff"/>
            <path id="Trazado_195138" data-name="Trazado 195138" d="M594.327,3277.455h-2.246l7.072-23.587h2.274Z" fill="#fff"/>
            <path id="Trazado_195139" data-name="Trazado 195139" d="M605.115,3257.986l16.335,6.753v3.231l-16.335,6.739v-3.522l11.842-4.826-11.842-4.867Z" fill="#fff"/>
          </g>
        </g>
        <g id="Grupo_137076" data-name="Grupo 137076">
          <circle id="Elipse_5215" data-name="Elipse 5215" cx="10.851" cy="10.851" r="10.851" transform="translate(580.059 3414.834)" fill="#feb871"/>
          <g id="Grupo_137075" data-name="Grupo 137075">
            <g id="Grupo_137072" data-name="Grupo 137072">
              <path id="Trazado_195140" data-name="Trazado 195140" d="M586.6,3423.429h-.84a.557.557,0,0,0-.557.557v3.481a.557.557,0,0,0,.557.557h.843a.553.553,0,0,1,.372.142l3.638,3.269a.557.557,0,0,0,.929-.414V3420.35a.556.556,0,0,0-.933-.41l-3.632,3.342A.561.561,0,0,1,586.6,3423.429Z" fill="#fff"/>
            </g>
            <g id="Grupo_137073" data-name="Grupo 137073">
              <path id="Trazado_195141" data-name="Trazado 195141" d="M592.968,3428.749a.235.235,0,0,1-.16-.408,3.572,3.572,0,0,0,1.356-2.684,3.477,3.477,0,0,0-.679-1.874,4.341,4.341,0,0,0-.668-.751.235.235,0,0,1,.3-.361,4.755,4.755,0,0,1,.741.828,3.906,3.906,0,0,1,.775,2.142,4.016,4.016,0,0,1-1.507,3.045A.232.232,0,0,1,592.968,3428.749Z" fill="#fff"/>
            </g>
            <g id="Grupo_137074" data-name="Grupo 137074">
              <path id="Trazado_195142" data-name="Trazado 195142" d="M594.017,3430.583a.235.235,0,0,1-.16-.408,6.029,6.029,0,0,0,2.283-4.541,5.874,5.874,0,0,0-1.153-3.177,7.293,7.293,0,0,0-1.121-1.259.235.235,0,0,1,.3-.361,7.651,7.651,0,0,1,1.194,1.335,7.272,7.272,0,0,1,.835,1.506,5.59,5.59,0,0,1,.414,1.94,6.469,6.469,0,0,1-2.434,4.9A.233.233,0,0,1,594.017,3430.583Z" fill="#fff"/>
            </g>
          </g>
        </g>
        <g id="Grupo_137086" data-name="Grupo 137086">
          <circle id="Elipse_5216" data-name="Elipse 5216" cx="16.539" cy="16.539" r="16.539" transform="translate(647.141 3374.936) rotate(-76.717)" fill="#75ba94"/>
          <g id="Grupo_137085" data-name="Grupo 137085">
            <g id="Grupo_137078" data-name="Grupo 137078">
              <g id="Grupo_137077" data-name="Grupo 137077">
                <path id="Trazado_195143" data-name="Trazado 195143" d="M675.457,3371.512a1.376,1.376,0,0,1-.854-.3l-16.84-13.288a1.381,1.381,0,0,1,1.711-2.167l16.839,13.288a1.38,1.38,0,0,1-.856,2.463Z" fill="#fff"/>
              </g>
            </g>
            <g id="Grupo_137080" data-name="Grupo 137080">
              <g id="Grupo_137079" data-name="Grupo 137079">
                <path id="Trazado_195144" data-name="Trazado 195144" d="M671.226,3363.489a4.39,4.39,0,0,0,.549-2.129v-7.172a4.409,4.409,0,0,0-8.817,0v2.776Z" fill="#fff"/>
              </g>
            </g>
            <g id="Grupo_137082" data-name="Grupo 137082">
              <g id="Grupo_137081" data-name="Grupo 137081">
                <path id="Trazado_195145" data-name="Trazado 195145" d="M662.963,3364.223a4.4,4.4,0,0,0,5.332,4.208Z" fill="#fff"/>
              </g>
            </g>
            <g id="Grupo_137084" data-name="Grupo 137084">
              <g id="Grupo_137083" data-name="Grupo 137083">
                <path id="Trazado_195146" data-name="Trazado 195146" d="M670.313,3370.024a6.175,6.175,0,0,1-8.958-3.992h-1.421a7.586,7.586,0,0,0,6.845,6.108v2.445h1.176v-2.445a7.524,7.524,0,0,0,3.524-1.2Z" fill="#fff"/>
              </g>
            </g>
          </g>
        </g>
      </g>
      <rect id="Rectángulo_294898" data-name="Rectángulo 294898" width="380.592" height="1.009" transform="translate(369.183 3500.647)" fill="#082030"/>
    </g>
  </g>
</svg>
