<?xml version="1.0" encoding="utf-8"?>
<!-- Generator: Adobe Illustrator 26.1.0, SVG Export Plug-In . SVG Version: 6.00 Build 0)  -->
<svg version="1.1" id="Capa_1" xmlns="http://www.w3.org/2000/svg" xmlns:xlink="http://www.w3.org/1999/xlink" x="0px" y="0px"
	 viewBox="0 0 610 363" style="enable-background:new 0 0 610 363;" xml:space="preserve">
<style type="text/css">
	.st0{fill:#084A93;}
	.st1{opacity:0.24;fill:#00DEFC;enable-background:new    ;}
	.st2{enable-background:new    ;}
	.st3{fill:#FFFFFF;}
	.st4{fill:#D6E6FE;}
	.st5{fill:#9DB8FD;}
	.st6{fill:#6178E3;}
	.st7{fill:#4268F5;}
	.st8{fill:#2727A9;}
	.st9{fill:#2E4EA4;}
	.st10{fill:#8CB6F4;}
	.st11{fill:#F4AD2E;}
	.st12{fill:#E8E3B3;}
	.st13{fill:#FFFCD5;}
	.st14{fill:#F66B00;}
	.st15{fill:#F68B00;}
	.st16{fill:#CA3230;}
	.st17{fill:#C53529;}
	.st18{fill:#76C3FF;}
	.st19{fill:#489BFF;}
	.st20{opacity:0.2;}
	.st21{fill:#FAFAFA;}
</style>
<g id="Grupo_140237" transform="translate(-180 -6296)">
	<rect id="Rectángulo_294958" x="180" y="6616" class="st0" width="610" height="43"/>
	<rect id="Rectángulo_294963" x="180" y="6296" class="st1" width="610" height="320"/>
	<g class="st2">
		<path class="st3" d="M428.4,6640.3c-0.1,1.5-0.7,2.7-1.7,3.6s-2.4,1.3-4,1.3c-1.8,0-3.3-0.6-4.3-1.8s-1.6-2.9-1.6-5.1v-0.9
			c0-1.4,0.2-2.6,0.7-3.6s1.2-1.8,2.1-2.4s1.9-0.8,3.1-0.8c1.6,0,3,0.4,4,1.3s1.6,2.1,1.7,3.7h-2.9c-0.1-0.9-0.3-1.6-0.8-2
			s-1.1-0.6-2-0.6c-1,0-1.7,0.3-2.2,1s-0.7,1.8-0.7,3.3v1.1c0,1.5,0.2,2.7,0.7,3.4s1.2,1.1,2.2,1.1c0.9,0,1.6-0.2,2-0.6
			s0.7-1.1,0.8-1.9H428.4z"/>
		<path class="st3" d="M430.2,6631.7c0-0.4,0.1-0.8,0.4-1s0.7-0.4,1.2-0.4c0.5,0,0.9,0.1,1.2,0.4s0.4,0.6,0.4,1
			c0,0.4-0.1,0.8-0.4,1.1s-0.7,0.4-1.1,0.4s-0.9-0.1-1.1-0.4S430.2,6632.1,430.2,6631.7z M433.1,6645h-2.8v-10.6h2.8V6645z"/>
		<path class="st3" d="M439.9,6642.9c0.5,0,0.9-0.1,1.3-0.4s0.5-0.7,0.5-1.1h2.6c0,0.7-0.2,1.4-0.6,2s-0.9,1.1-1.6,1.4
			s-1.4,0.5-2.2,0.5c-1.5,0-2.7-0.5-3.6-1.4s-1.3-2.3-1.3-4v-0.2c0-1.6,0.4-2.9,1.3-3.9s2.1-1.5,3.6-1.5c1.3,0,2.4,0.4,3.2,1.1
			s1.2,1.8,1.2,3h-2.6c0-0.5-0.2-1-0.5-1.3s-0.8-0.5-1.3-0.5c-0.7,0-1.2,0.2-1.5,0.7s-0.5,1.3-0.5,2.3v0.3c0,1.1,0.2,1.9,0.5,2.3
			S439.2,6642.9,439.9,6642.9z"/>
		<path class="st3" d="M448.9,6645H446v-15h2.8V6645z"/>
		<path class="st3" d="M450.8,6639.6c0-1,0.2-2,0.6-2.8s1-1.5,1.7-1.9s1.6-0.7,2.6-0.7c1.4,0,2.6,0.4,3.5,1.3s1.4,2.1,1.5,3.6l0,0.7
			c0,1.6-0.5,2.9-1.4,3.9s-2.1,1.5-3.6,1.5s-2.7-0.5-3.6-1.5s-1.4-2.3-1.4-4V6639.6z M453.6,6639.8c0,1,0.2,1.8,0.6,2.3
			s0.9,0.8,1.6,0.8c0.7,0,1.2-0.3,1.6-0.8c0.4-0.5,0.6-1.4,0.6-2.5c0-1-0.2-1.7-0.6-2.3s-0.9-0.8-1.6-0.8c-0.7,0-1.2,0.3-1.6,0.8
			S453.6,6638.7,453.6,6639.8z"/>
	</g>
	<g class="st2">
		<path class="st3" d="M468.6,6645v-9.2H467v-1.4h1.7v-1.1c0-1.1,0.3-2,0.9-2.6s1.5-0.9,2.6-0.9c0.4,0,0.8,0.1,1.2,0.2l-0.1,1.5
			c-0.3-0.1-0.6-0.1-1-0.1c-0.6,0-1,0.2-1.4,0.5s-0.5,0.8-0.5,1.5v1.1h2.3v1.4h-2.3v9.2H468.6z"/>
		<path class="st3" d="M474.2,6639.6c0-1,0.2-2,0.6-2.8s1-1.5,1.7-1.9s1.6-0.7,2.5-0.7c1.4,0,2.6,0.5,3.5,1.5s1.3,2.3,1.3,4v0.1
			c0,1-0.2,2-0.6,2.8s-1,1.5-1.7,1.9s-1.6,0.7-2.5,0.7c-1.4,0-2.6-0.5-3.5-1.5s-1.3-2.3-1.3-4V6639.6z M476,6639.8
			c0,1.2,0.3,2.1,0.8,2.8s1.3,1.1,2.2,1.1c0.9,0,1.6-0.4,2.2-1.1s0.8-1.7,0.8-3c0-1.2-0.3-2.1-0.8-2.8s-1.3-1.1-2.2-1.1
			c-0.9,0-1.6,0.4-2.2,1.1S476,6638.5,476,6639.8z"/>
		<path class="st3" d="M491.2,6636.1c-0.3,0-0.6-0.1-0.9-0.1c-1.2,0-2,0.5-2.4,1.5v7.5h-1.8v-10.6h1.8l0,1.2
			c0.6-0.9,1.4-1.4,2.5-1.4c0.4,0,0.6,0,0.8,0.1V6636.1z"/>
	</g>
	<g class="st2">
		<path class="st3" d="M497.7,6639.2c0-1.5,0.2-2.9,0.6-4.3s1-2.5,1.8-3.6s1.6-1.8,2.5-2.2l0.5,1.5c-1,0.7-1.7,1.8-2.2,3.3
			s-0.8,3.2-0.8,5.2v0.3c0,2,0.3,3.7,0.8,5.2s1.3,2.6,2.2,3.3l-0.5,1.5c-0.9-0.4-1.7-1.1-2.5-2.1s-1.3-2.2-1.8-3.5s-0.6-2.7-0.6-4.1
			V6639.2z"/>
		<path class="st3" d="M514.1,6639.8c0,1.6-0.4,2.9-1.1,3.9s-1.7,1.5-3,1.5c-1.1,0-1.9-0.4-2.6-1.1v5h-2.8v-14.6h2.6l0.1,1
			c0.7-0.8,1.6-1.2,2.7-1.2c1.3,0,2.3,0.5,3,1.4s1.1,2.3,1.1,4V6639.8z M511.3,6639.6c0-1-0.2-1.7-0.5-2.3c-0.3-0.5-0.9-0.8-1.5-0.8
			c-0.9,0-1.5,0.3-1.8,1v4.3c0.3,0.7,1,1,1.8,1C510.6,6642.9,511.3,6641.8,511.3,6639.6z"/>
		<path class="st3" d="M522,6645c-0.1-0.3-0.2-0.6-0.3-0.9c-0.7,0.8-1.6,1.1-2.7,1.1c-1,0-1.9-0.3-2.6-0.9s-1-1.4-1-2.3
			c0-1.1,0.4-2,1.2-2.6s2-0.9,3.6-0.9h1.3v-0.6c0-0.5-0.1-0.9-0.4-1.2s-0.6-0.4-1.2-0.4c-0.5,0-0.8,0.1-1.1,0.3s-0.4,0.5-0.4,0.9
			h-2.8c0-0.6,0.2-1.2,0.6-1.7s0.9-0.9,1.6-1.2s1.5-0.4,2.3-0.4c1.3,0,2.3,0.3,3.1,1s1.1,1.6,1.1,2.8v4.6c0,1,0.1,1.8,0.4,2.3v0.2
			H522z M519.6,6643c0.4,0,0.8-0.1,1.2-0.3s0.6-0.4,0.8-0.7v-1.8h-1.1c-1.4,0-2.2,0.5-2.3,1.5l0,0.2c0,0.4,0.1,0.6,0.4,0.9
			S519.2,6643,519.6,6643z"/>
		<path class="st3" d="M532.5,6637.1c-0.4-0.1-0.7-0.1-1-0.1c-1.1,0-1.8,0.4-2.1,1.1v6.9h-2.8v-10.6h2.7l0.1,1.3
			c0.6-1,1.4-1.5,2.4-1.5c0.3,0,0.6,0,0.9,0.1L532.5,6637.1z"/>
		<path class="st3" d="M539.7,6645c-0.1-0.3-0.2-0.6-0.3-0.9c-0.7,0.8-1.6,1.1-2.7,1.1c-1,0-1.9-0.3-2.6-0.9s-1-1.4-1-2.3
			c0-1.1,0.4-2,1.2-2.6s2-0.9,3.6-0.9h1.3v-0.6c0-0.5-0.1-0.9-0.4-1.2s-0.6-0.4-1.2-0.4c-0.5,0-0.8,0.1-1.1,0.3s-0.4,0.5-0.4,0.9
			h-2.8c0-0.6,0.2-1.2,0.6-1.7s0.9-0.9,1.6-1.2s1.5-0.4,2.3-0.4c1.3,0,2.3,0.3,3.1,1s1.1,1.6,1.1,2.8v4.6c0,1,0.1,1.8,0.4,2.3v0.2
			H539.7z M537.4,6643c0.4,0,0.8-0.1,1.2-0.3s0.6-0.4,0.8-0.7v-1.8h-1.1c-1.4,0-2.2,0.5-2.3,1.5l0,0.2c0,0.4,0.1,0.6,0.4,0.9
			S536.9,6643,537.4,6643z"/>
		<path class="st3" d="M549.2,6639.4c0,1.5-0.2,2.9-0.6,4.2s-1,2.6-1.8,3.6s-1.6,1.8-2.5,2.1l-0.5-1.5c0.9-0.7,1.7-1.8,2.2-3.2
			s0.8-3.1,0.8-5v-0.5c0-1.9-0.3-3.7-0.8-5.1s-1.3-2.6-2.2-3.3l0.5-1.5c0.9,0.4,1.7,1.1,2.5,2.1s1.4,2.2,1.8,3.5s0.7,2.7,0.7,4.2
			V6639.4z"/>
	</g>
	<g id="Grupo_137533" transform="translate(-270.661 5946)">
		<g id="Grupo_137273" transform="translate(517.291 360)">
			<path id="Trazado_195343" class="st4" d="M410.9,164.5c-36.7-12.6,36.6-15.5,13.3-97.8c-2.1-6.3-4.6-12.5-7.4-18.6
				C387.8-7.3,262.8-16.4,247.7,29c-8,24.1,5.1-0.6-104-3.7C96.1,24,65.4,41.6,52,73.1c-1,2.4-2,4.9-2.9,7.4
				c-8.4,24.5-8.6,52.9,1.5,75.4c24.6,54.7-31.9,5.4-45.2,42.7C-18.7,266.9,45.2,306,45.2,306l357.6,0.6
				C459.1,279.7,463.3,182.5,410.9,164.5z"/>
		</g>
		<g id="Grupo_137305" transform="translate(892.409 547.164)">
			<g id="Grupo_137277" transform="translate(36.548 0)">
				<g id="Grupo_137274" transform="translate(0.45 0.45)">
					<path id="Trazado_195344" class="st5" d="M1.8,17.2c-2.4,18.6-1.8,40-1.8,40C33.8,31.4,27.6,9.8,23.9,4.3
						C18.6-3.6,4.2-1.3,1.8,17.2z"/>
				</g>
				<g id="Grupo_137276">
					<g id="Grupo_137275">
						<path id="Trazado_195345" d="M0.1,58.5l0-0.9c0-0.2-0.6-21.6,1.8-40c0.4-4.4,1.9-8.6,4.5-12.2c1.8-2.6,4.5-4.4,7.5-5.2
							c4.1-1,8.5,0.6,10.9,4.2C27,7.9,29,15,26.9,23.7c-1.5,5.7-4,11.1-7.6,15.8C14.1,46.6,7.9,52.8,0.8,58L0.1,58.5z M2.3,17.7
							l0.4,0.1C0.7,33.9,0.9,52.5,1,56.7c6.7-5,12.7-11,17.7-17.7c3.5-4.6,6-9.9,7.4-15.5c1-3.8,1.1-7.8,0.5-11.7
							C26.1,9.4,25.3,7,24,5c-2.2-3.2-6.1-4.7-9.9-3.8C11.2,1.9,8.7,3.6,7,6c-2.4,3.5-3.9,7.5-4.3,11.7L2.3,17.7z"/>
					</g>
				</g>
			</g>
			<g id="Grupo_137281" transform="translate(37.539 44.755)">
				<g id="Grupo_137278" transform="translate(0.848 0.454)">
					<path id="Trazado_195346" class="st6" d="M0,22.6c24.9,5.6,43.1-8,35.6-19.9S0,22.6,0,22.6z"/>
				</g>
				<g id="Grupo_137280">
					<g id="Grupo_137279">
						<path id="Trazado_195347" d="M12.2,24.8c-3.9,0-7.7-0.5-11.5-1.3L0,23.3l0.5-0.6c3.7-4.1,7.6-8,11.7-11.6
							C21,3.4,27.7-0.4,32.2,0c1.9,0.1,3.7,1.2,4.6,2.9c2.5,3.8,2.3,8.7-0.4,12.3c-2.7,3.8-7.5,6.7-13.5,8.3
							C19.4,24.4,15.8,24.8,12.2,24.8z M1.7,22.7c6.9,1.6,14.1,1.5,20.9-0.2c5.9-1.5,10.5-4.4,13-8c2.5-3.3,2.7-7.8,0.4-11.3
							c-0.8-1.4-2.3-2.3-3.9-2.4C22.8,0.1,5,19.2,1.7,22.7L1.7,22.7z"/>
					</g>
				</g>
			</g>
			<g id="Grupo_137285" transform="translate(28.696 71.684)">
				<g id="Grupo_137282" transform="translate(0.963 0.456)">
					<path id="Trazado_195348" class="st5" d="M0,15.8c23.7,9.5,48,0.9,42.5-12.1S0,15.8,0,15.8z"/>
				</g>
				<g id="Grupo_137284">
					<g id="Grupo_137283">
						<path id="Trazado_195349" d="M21.4,20.7c-7.1,0-14-1.4-20.6-4L0,16.4l0.7-0.5c4.9-3.3,10-6.2,15.3-9C27.1,1.2,35.1-1,39.8,0.4
							c1.9,0.5,3.4,1.8,4.1,3.6c1.6,3.5,0.8,7.6-2,10.3c-3.3,3.4-9.4,5.7-16.7,6.3C23.9,20.7,22.7,20.7,21.4,20.7z M1.9,16.1
							c7.4,2.9,15.3,4.1,23.2,3.5c7-0.6,12.9-2.8,16.1-6c2.6-2.4,3.3-6.1,1.8-9.3c-0.6-1.5-1.9-2.7-3.5-3.1
							C29.8-1.6,6.4,13.3,1.9,16.1L1.9,16.1z"/>
					</g>
				</g>
			</g>
			<g id="Grupo_137289" transform="translate(12.257 23.331)">
				<g id="Grupo_137286" transform="translate(0.451 0.453)">
					<path id="Trazado_195350" class="st6" d="M9.2,0c-18.3,0.7-5.4,34.3,5.3,45.3C14.5,45.3,27.6-0.7,9.2,0z"/>
				</g>
				<g id="Grupo_137288">
					<g id="Grupo_137287">
						<path id="Trazado_195351" d="M15.2,46.6l-0.5-0.6c-4.2-4.3-8.5-11.7-11.4-19.5C-1.3,14.7-0.1,8.4,1,5.7C2.4,2.1,5.3,0.2,9.6,0
							c2.7-0.2,5.3,0.9,7,3.1C20,7.4,20.8,15.9,19,28.4c-0.9,5.9-2.1,11.7-3.6,17.5L15.2,46.6z M9.7,0.5l0,0.5
							C5.8,1.1,3.1,2.8,1.8,6c-1.8,4.4-1,11.8,2.2,20.3c2.7,7.3,6.8,14.3,10.7,18.6c1.3-5,8.2-32.3,1.2-41.2c-1.5-1.9-3.8-3-6.2-2.7
							L9.7,0.5z"/>
					</g>
				</g>
			</g>
			<g id="Grupo_137293" transform="translate(0 50.859)">
				<g id="Grupo_137290" transform="translate(0.444 0.455)">
					<path id="Trazado_195352" class="st5" d="M7.8,0.2C-8.1-3,3.4,27.5,15.1,33C15.1,33,23.7,3.5,7.8,0.2z"/>
				</g>
				<g id="Grupo_137292">
					<g id="Grupo_137291">
						<path id="Trazado_195353" d="M15.8,34.1l-0.5-0.2c-4.1-1.9-8.5-7-11.7-13.6C0.5,13.9-0.8,7.6,0.5,3.9c0.7-2.2,2.7-4.7,7.9-3.6
							c3.1,0.6,5.8,2.5,7.4,5.2c2.4,4,3.2,9.9,2.3,17.7c-0.4,3.5-1.1,7.1-2,10.5L15.8,34.1z M6.1,0.9C3.9,0.7,1.9,2.1,1.3,4.2
							c-1.2,3.5,0,9.5,3.1,15.7c3,6,7.1,10.9,10.8,12.9c0.8-3.1,4.6-18.8-0.3-27C13.5,3.4,11,1.7,8.2,1.1C7.5,1,6.8,0.9,6.1,0.9
							L6.1,0.9z"/>
					</g>
				</g>
			</g>
			<g id="Grupo_137295" transform="translate(4.466 19.492)">
				<g id="Grupo_137294">
					<path id="Trazado_195354" d="M46.2,0.3C46,0.9,45.9,1.4,45.7,2c-0.5,1.5-1,3.1-1.5,4.6c-0.8,2.4-1.6,4.7-2.5,7.1
						c-1.1,3.1-2.2,6.1-3.4,9.2c-1.4,3.6-2.8,7.2-4.2,10.8c-1.6,4-3.3,8-5,11.9c-1.9,4.3-3.8,8.5-5.8,12.7
						c-2.1,4.3-4.2,8.6-6.4,12.9c-2.3,4.3-4.6,8.5-7.1,12.7c-2.4,4.1-5,8.1-7.6,12c-0.6,0.9-1.3,1.9-1.9,2.8c-0.3,0.4,0.3,1,0.6,0.6
						c2.7-3.8,5.3-7.8,7.8-11.8c2.5-4.1,4.9-8.3,7.2-12.6c2.3-4.3,4.5-8.6,6.7-13c2.1-4.2,4-8.5,6-12.8c1.8-4,3.5-8.1,5.2-12.2
						c1.5-3.7,3-7.4,4.5-11.1c1.2-3.2,2.4-6.4,3.6-9.6c0.9-2.6,1.8-5.1,2.7-7.7C45,6.5,45.6,4.8,46.2,3c0.3-0.8,0.6-1.6,0.8-2.4
						c0,0,0-0.1,0-0.1C47.2,0,46.4-0.2,46.2,0.3z"/>
				</g>
			</g>
			<g id="Grupo_137297" transform="translate(31.844 53.879)">
				<g id="Grupo_137296">
					<path id="Trazado_195355" d="M37.2,0.1c-0.5,0.4-1.1,0.8-1.7,1.2c-1.5,1.1-3.1,2.1-4.7,3c-5.4,3.2-11.2,5.6-17.2,7.4
						c-3.8,1.1-7.7,1.9-11.7,2.4c-0.5,0.1-1,0.1-1.5,0.2c-0.5,0.1-0.5,0.9,0,0.8C4.5,14.8,8.6,14,12.5,13c3.4-0.9,6.8-2.1,10.1-3.5
						c2.7-1.2,5.3-2.5,7.9-3.9c1.8-1,3.5-2.1,5.1-3.2c0.7-0.5,1.4-1,2.1-1.5l0,0c0.2-0.1,0.2-0.4,0.1-0.6C37.7,0,37.4-0.1,37.2,0.1z
						"/>
				</g>
			</g>
			<g id="Grupo_137299" transform="translate(22.373 79.862)">
				<g id="Grupo_137298">
					<path id="Trazado_195356" d="M41.9,0c-0.6,0.2-1.3,0.5-1.9,0.7c-1.8,0.6-3.6,1.2-5.4,1.7c-2.8,0.8-5.6,1.5-8.5,2.2
						c-3.6,0.8-7.3,1.5-10.9,2.1c-4.3,0.7-8.6,1.2-13,1.5C1.5,8.1,1,8.2,0.4,8.2C0.1,8.2,0,8.4,0,8.7s0.2,0.4,0.4,0.4
						c4.4-0.3,8.9-0.7,13.3-1.4c3.8-0.6,7.6-1.2,11.3-2.1c3-0.6,5.9-1.4,8.8-2.2c2-0.5,3.9-1.1,5.8-1.8c0.8-0.3,1.6-0.5,2.4-0.8l0,0
						C42.7,0.6,42.4-0.2,41.9,0z"/>
				</g>
			</g>
			<g id="Grupo_137301" transform="translate(21.071 33.083)">
				<g id="Grupo_137300">
					<path id="Trazado_195357" d="M5.2,30.7c-0.9-3.6-1.6-7.3-2.2-11c-0.5-3.2-1-6.4-1.3-9.6C1.4,7.9,1.2,5.6,1,3.4
						c-0.1-1-0.1-2-0.2-3c0,0,0,0,0,0C0.8,0.1,0.6,0,0.4,0S0,0.2,0,0.4C0,1.2,0.1,2,0.1,2.8C0.3,5,0.5,7.1,0.7,9.3
						c0.3,3.1,0.7,6.2,1.2,9.3c0.6,3.7,1.3,7.4,2.1,11c0.9,3.9,1.9,7.7,3.2,11.5c0.2,0.5,0.3,0.9,0.5,1.4c0.1,0.2,0.3,0.3,0.5,0.3
						c0.2-0.1,0.3-0.3,0.3-0.5C7.2,38.5,6.1,34.6,5.2,30.7z"/>
				</g>
			</g>
			<g id="Grupo_137304" transform="translate(7.257 55.637)">
				<g id="Grupo_137302" transform="translate(12.415 37.917)">
					<path id="Trazado_195358" d="M0,0L0,0C0,0,0,0,0,0C0,0,0.1,0.1,0,0z"/>
				</g>
				<g id="Grupo_137303">
					<path id="Trazado_195359" d="M12.6,38.3L12.5,38l-0.1-0.1l0,0c0.1,0.1,0,0,0,0l0,0l0-0.1c-0.1-0.2-0.2-0.5-0.3-0.7
						c-0.7-1.5-1.4-3.1-2.1-4.7c-1-2.5-2-5-2.8-7.5C6,21.6,5,18.2,4.1,14.8C2.9,10.6,2,6.4,1.2,2.1C1.1,1.6,1,1,0.9,0.4
						C0.8,0.2,0.6,0,0.4,0C0.2,0,0,0.2,0,0.4c0.8,4.4,1.7,8.7,2.8,13.1c0.9,3.6,2,7.1,3.1,10.6c0.9,2.7,1.9,5.3,2.9,7.9
						c0.7,1.7,1.4,3.4,2.2,5c0.2,0.5,0.5,1,0.7,1.5c0.1,0.2,0.2,0.4,0.3,0.6c0,0,0,0,0,0c0.1,0.2,0.4,0.2,0.6,0.1
						c0.2-0.1,0.2-0.4,0.1-0.6C12.7,38.5,12.7,38.4,12.6,38.3z"/>
				</g>
			</g>
		</g>
		<g id="Grupo_137349" transform="translate(498.625 482.919)">
			<g id="Grupo_137309" transform="translate(30.05 0)">
				<g id="Grupo_137306" transform="translate(0.454 0.454)">
					<path id="Trazado_195360" class="st5" d="M8.4,3.9c-6.8,6.6-21.5,34.7,17.7,80c0,0,7-29.3,9.1-55.7S17.9-5.4,8.4,3.9z"/>
				</g>
				<g id="Grupo_137308">
					<g id="Grupo_137307">
						<path id="Trazado_195361" d="M26.8,85.3l-0.6-0.7C17.1,74.1,10.2,63.7,5.9,53.8c-3.5-7.5-5.5-15.7-5.9-24
							c-0.2-5.7,0.7-11.4,2.8-16.8C4.1,9.7,6.1,6.6,8.6,4l0.3,0.3L8.6,4c2.1-2,4.7-3.4,7.6-3.8c2.9-0.4,5.8,0,8.4,1.2
							c3.9,2,7.1,5.2,8.8,9.2c2.3,4.9,3.2,11,2.7,18C34,54.7,27,84.1,27,84.4L26.8,85.3z M18.3,0.9c-3.4,0-6.7,1.3-9.1,3.7
							c-6.4,6.3-8.5,17.5-8.3,25.1C1.3,38,3.3,46,6.7,53.4c4.2,9.6,10.8,19.7,19.6,29.9c1.2-5.1,7-31.3,8.9-54.7
							c0.5-6.9-0.3-12.8-2.6-17.5c-1.7-3.8-4.6-6.9-8.4-8.8C22.3,1.4,20.3,0.9,18.3,0.9L18.3,0.9z"/>
					</g>
				</g>
			</g>
			<g id="Grupo_137313" transform="translate(3.675 57.221)">
				<g id="Grupo_137310" transform="translate(0.46 0.453)">
					<path id="Trazado_195362" class="st6" d="M4.2,2.5c-13.7,14.3,7.4,38.3,43.5,37.7C47.7,40.2,17.9-11.8,4.2,2.5z"/>
				</g>
				<g id="Grupo_137312">
					<g id="Grupo_137311">
						<path id="Trazado_195363" d="M46.8,41.1c-10.8,0-20.8-2.2-29.2-6.4C9.8,30.8,4,25.4,1.5,19.5C-1.2,13.3-0.2,7.4,4.3,2.6
							l0.3,0.3L4.3,2.6c1.8-2,4.4-2.9,7.1-2.6c3.5,0.4,7.6,2.8,12.3,7.2c4.4,4.2,8.4,8.8,12,13.8c4.6,6.2,8.9,12.7,12.9,19.4
							l0.4,0.7l-0.8,0C47.7,41.1,47.3,41.1,46.8,41.1z M5,3.3C0.7,7.7-0.2,13.3,2.3,19.1c2.5,5.7,8.1,11,15.8,14.8
							c8.4,4.2,18.5,6.3,29.3,6.3c-3.8-6.4-8-12.7-12.4-18.7C28.3,12.7,18.8,1.9,11.3,1C9,0.6,6.6,1.5,5,3.3L5,3.3z"/>
					</g>
				</g>
			</g>
			<g id="Grupo_137317" transform="translate(0 95.329)">
				<g id="Grupo_137314" transform="translate(0.453 0.453)">
					<path id="Trazado_195364" class="st5" d="M2.4,3.5C-8.9,19.8,22.1,38.7,57.6,32.5C57.6,32.5,13.7-12.8,2.4,3.5z"/>
				</g>
				<g id="Grupo_137316">
					<g id="Grupo_137315">
						<path id="Trazado_195365" d="M44.1,34.6c-7,0-14-0.9-20.7-2.9c-9.8-2.9-17.5-7.8-21.1-13.5c-1.4-2.1-2.2-4.6-2.3-7.2
							c0-2.6,0.9-5.2,2.4-7.4L2.8,4L2.4,3.7C3.9,1.5,6.3,0.2,9,0c3.8-0.3,8.8,1.2,14.8,4.6c5.7,3.3,11.1,7.1,16.2,11.3
							c6.5,5.3,12.6,10.9,18.5,16.8l0.6,0.6l-0.8,0.1C53.5,34.2,48.8,34.6,44.1,34.6z M10,0.9c-0.3,0-0.6,0-0.9,0
							C6.7,1.1,4.5,2.3,3.2,4.2l0,0c-3,4.3-3,9-0.1,13.5c3.5,5.5,11,10.2,20.6,13.1c6.7,1.9,13.5,2.9,20.5,2.8c4.4,0,8.7-0.4,13-1.1
							c-5.7-5.7-11.6-11-17.8-16.1C30.4,9.3,18.2,0.9,10,0.9z"/>
					</g>
				</g>
			</g>
			<g id="Grupo_137321" transform="translate(66.084 41.047)">
				<g id="Grupo_137318" transform="translate(0.451 0.452)">
					<path id="Trazado_195366" class="st6" d="M20.7,0.4C-4.4-5.8,0.4,61.5,0.4,61.5C18.3,49.4,45.8,6.6,20.7,0.4z"/>
				</g>
				<g id="Grupo_137320">
					<g id="Grupo_137319">
						<path id="Trazado_195367" d="M0.4,62.7l-0.1-0.8c-0.5-8.4-0.5-16.8,0-25.2C0.7,30.1,1.7,23.4,3.3,17
							c1.8-6.8,4.4-11.6,7.6-14.3c2.9-2.4,6.8-3.3,10.4-2.2c5.8,1.4,9.2,4.9,10.2,10.2c0.6,3.7,0.1,8.1-1.7,13.3
							c-1.9,5.2-4.3,10.2-7.4,14.9C16.2,48.6,8,57.6,1.1,62.3L0.4,62.7z M18,0.9c-2.4,0-4.7,0.8-6.5,2.4C8.4,5.9,6,10.6,4.2,17.2
							c-1.6,6.4-2.6,13-2.9,19.6C0.8,44.9,0.8,53,1.2,61.1c6.7-4.7,14.5-13.4,20.4-22.8c3-4.6,5.4-9.5,7.3-14.7
							c1.7-5,2.3-9.4,1.7-12.9c-0.9-4.9-4.1-8.1-9.5-9.4C20.1,1,19,0.9,18,0.9L18,0.9z"/>
					</g>
				</g>
			</g>
			<g id="Grupo_137325" transform="translate(77.99 83.73)">
				<g id="Grupo_137322" transform="translate(0.451 0.453)">
					<path id="Trazado_195368" class="st5" d="M19.7,0C-3.2-0.1,0.2,43.2,0.2,43.2C17.9,39,42.6,0.1,19.7,0z"/>
				</g>
				<g id="Grupo_137324">
					<g id="Grupo_137323">
						<path id="Trazado_195369" d="M0.2,44.2l0-0.5c-0.3-5-0.2-10,0.2-15.1c0.4-4.3,1.2-8.6,2.4-12.8c1.1-4,3.1-7.8,5.8-10.9
							c2.9-3.2,7.1-5,11.4-5h0.1c7.3,0,9.3,3.9,9.6,7.1c0.6,5.4-2.8,13.7-9,21.7c-6.3,8.1-13.8,13.8-20,15.3L0.2,44.2z M20,0.9
							c-4.1-0.1-8,1.6-10.7,4.7C4,11.3,2,21.3,1.3,28.7C0.9,33.5,0.8,38.3,1,43.1c3.5-1.1,6.7-2.9,9.5-5.2c3.5-2.8,6.7-6.1,9.5-9.7
							c6.1-7.8,9.4-15.8,8.9-21C28.4,3.1,25.5,0.9,20,0.9L20,0.9z"/>
					</g>
				</g>
			</g>
			<g id="Grupo_137329" transform="translate(20.522 136.301)">
				<g id="Grupo_137326" transform="translate(0.457 0.454)">
					<path id="Trazado_195370" class="st5" d="M2.6,5.9C-9.9,22.3,25.8,26.8,42.8,16.4C42.8,16.4,16.3-12,2.6,5.9z"/>
				</g>
				<g id="Grupo_137328">
					<g id="Grupo_137327">
						<path id="Trazado_195371" d="M20.6,22.9L20.6,22.9c-8.6,0-15.6-2.1-18.7-5.5c-1.9-2.1-3.3-5.8,0.8-11.2
							C5.3,2.5,9.4,0.2,13.8,0c5.7-0.3,12.5,2.4,20.1,8c3.5,2.6,6.7,5.4,9.7,8.5l0.4,0.4l-0.5,0.3C37.7,20.8,29.2,22.9,20.6,22.9z
							 M3.1,6.4l0.4,0.3c-3,4-3.3,7.4-0.9,10.1c2.9,3.3,9.7,5.2,18,5.2h0.1c8.2,0,16.3-2,22-5.3c-2.9-2.9-5.9-5.6-9.2-8
							c-9.3-6.8-15.7-8-19.5-7.8c-4.2,0.2-8,2.3-10.4,5.7L3.1,6.4z"/>
					</g>
				</g>
			</g>
			<g id="Grupo_137331" transform="translate(47.618 27.672)">
				<g id="Grupo_137330">
					<path id="Trazado_195372" d="M22.6,111.5c-3.8-12.8-7.1-25.8-9.9-38.9C10.2,61,7.9,49.3,6,37.5c-1.4-8.5-2.7-17-3.8-25.6
						C1.8,8.1,1.5,4.3,0.9,0.6c0,0,0-0.1,0-0.1C0.9-0.2-0.1-0.1,0,0.5c0.3,3.1,0.7,6.2,1.1,9.2c1,8.1,2.2,16.2,3.5,24.3
						c1.8,11.4,3.9,22.8,6.3,34.1c2.7,13.1,5.9,26.1,9.5,38.9c3.7,13.1,8.1,25.9,13.3,38.5c0.6,1.5,1.2,3,1.9,4.4
						c0.2,0.5,1.1,0.3,0.9-0.3C31,137.2,26.4,124.5,22.6,111.5z"/>
				</g>
			</g>
			<g id="Grupo_137334" transform="translate(12.562 69.937)">
				<g id="Grupo_137332" transform="translate(0.891 0.26)">
					<path id="Trazado_195373" d="M0,0L0,0L0,0C0,0,0.1,0.1,0,0z"/>
				</g>
				<g id="Grupo_137333">
					<path id="Trazado_195374" d="M47.6,30.5c-5.5-1.7-10.8-3.8-15.8-6.5c-4.4-2.3-8.7-4.9-12.8-7.7c-3.3-2.3-6.5-4.9-9.6-7.6
						C7.3,6.9,5.2,4.9,3.2,2.9C2.7,2.3,2.1,1.6,1.5,1C1.4,0.8,1.2,0.6,1.1,0.4L0.9,0.3l0,0c0.1,0.1-0.1-0.1,0,0l0,0l0,0l0,0
						C0.7,0,0.4-0.1,0.2,0.1C0,0.2-0.1,0.5,0.1,0.7c0.6,0.8,1.3,1.5,2,2.3c1.8,2,3.8,3.8,5.7,5.6c2.9,2.6,6,5.1,9.2,7.5
						c4,2.9,8.2,5.6,12.6,7.9c5,2.7,10.2,4.9,15.6,6.7c0.7,0.2,1.4,0.5,2.1,0.7C48,31.5,48.2,30.6,47.6,30.5z"/>
				</g>
			</g>
			<g id="Grupo_137336" transform="translate(11.889 107.221)">
				<g id="Grupo_137335">
					<path id="Trazado_195375" d="M55.6,23.4c-6-1.6-12-3.5-17.9-5.7c-5.1-1.8-10-3.9-15-6.1C18.9,9.9,15.1,8,11.3,6.1
						C8.7,4.7,6.2,3.4,3.7,1.9C3,1.5,2.3,1.1,1.6,0.7C1.3,0.5,1,0.3,0.7,0.1c0,0,0,0,0,0C0.1-0.2-0.3,0.6,0.2,0.9
						c0.8,0.5,1.7,1,2.5,1.5C5,3.8,7.4,5.1,9.8,6.3c3.6,1.9,7.3,3.7,11.1,5.4c4.8,2.2,9.7,4.2,14.6,6.1c5.8,2.2,11.7,4.1,17.6,5.8
						c0.8,0.2,1.6,0.4,2.3,0.6C56,24.4,56.2,23.5,55.6,23.4z"/>
				</g>
			</g>
			<g id="Grupo_137338" transform="translate(61.833 54.983)">
				<g id="Grupo_137337">
					<path id="Trazado_195376" d="M22.8,0.3c-0.3,1.1-0.6,2.2-0.9,3.3c-0.8,2.9-1.7,5.8-2.6,8.7c-1.3,4.2-2.8,8.3-4.3,12.4
						C13,29.6,11,34.5,8.8,39.3c-2.3,5.1-4.9,10.1-7.7,14.9c-0.3,0.6-0.7,1.2-1,1.8c-0.3,0.5,0.5,0.9,0.8,0.4c2.9-4.8,5.6-9.8,8-15
						c2.3-4.8,4.3-9.7,6.2-14.7c1.6-4.2,3.2-8.5,4.6-12.8c1-3.1,2-6.2,2.9-9.3c0.3-0.9,0.5-1.9,0.8-2.8c0.1-0.4,0.2-0.8,0.3-1.3
						c0,0,0,0,0-0.1C23.8,0,22.9-0.2,22.8,0.3z"/>
				</g>
			</g>
			<g id="Grupo_137340" transform="translate(69.463 90.115)">
				<g id="Grupo_137339">
					<path id="Trazado_195377" d="M28.4,0c-0.2-0.1-0.5,0-0.6,0.2c-2.3,5.8-4.9,11.5-7.7,17.2c-2.3,4.6-4.7,9.2-7.3,13.6
						c-2,3.4-4.1,6.8-6.3,10.1c-1.4,2.2-2.8,4.1-4.4,6.2c-0.6,0.8-1.3,1.6-1.9,2.5l0,0c-0.4,0.5,0.3,1.1,0.7,0.6
						c0.5-0.6,1.1-1.3,1.6-2c1.5-1.9,2.9-3.9,4.3-5.9c2.1-3.1,4.2-6.3,6.1-9.6c2.6-4.3,5-8.8,7.3-13.3c2.8-5.5,5.3-11,7.6-16.7
						c0.3-0.8,0.6-1.5,0.9-2.3C28.7,0.4,28.6,0.2,28.4,0z"/>
				</g>
			</g>
			<g id="Grupo_137342" transform="translate(28.532 146.569)">
				<g id="Grupo_137341">
					<path id="Trazado_195378" d="M46.2,7.5c-1-0.1-1.9-0.2-2.9-0.3c-2.5-0.3-5.1-0.6-7.6-0.9c-3.5-0.4-7.1-0.9-10.6-1.4
						c-4-0.6-7.9-1.2-11.9-2C9.4,2.1,5.6,1.3,1.8,0.4C1.4,0.2,1,0.1,0.5,0C0-0.1-0.2,0.8,0.3,0.9c3.7,1,7.5,1.8,11.3,2.5
						c4,0.8,7.9,1.4,11.9,2c3.6,0.6,7.2,1.1,10.8,1.5c2.7,0.3,5.4,0.7,8.1,1c1.2,0.1,2.4,0.3,3.6,0.4h0c0.2,0,0.5-0.1,0.5-0.4
						C46.6,7.8,46.5,7.5,46.2,7.5z"/>
				</g>
			</g>
			<g id="Grupo_137346" transform="translate(83.71 128.854)">
				<g id="Grupo_137343" transform="translate(0.559 0.452)">
					<path id="Trazado_195379" class="st5" d="M23.8,1C6.6-5.8,0,25.2,0,25.2C16.3,25.4,39.4,7.1,23.8,1z"/>
				</g>
				<g id="Grupo_137345">
					<g id="Grupo_137344">
						<path id="Trazado_195380" d="M0.7,26.1H0.6H0l0.1-0.5c0.8-3.4,1.9-6.8,3.2-10c3-7.1,6.6-11.9,10.7-14.1
							c3.2-1.7,7.1-1.9,10.4-0.4c5.3,2.1,5.8,5.3,5.4,7.6c-0.7,3.8-4.7,8.2-10.7,11.8C13.2,24,6.3,26.1,0.7,26.1z M19.6,0.9
							c-1.8,0-3.5,0.4-5.1,1.3C6,6.8,1.9,22.1,1.1,25.2C6.5,25.1,13,23,18.7,19.6c5.8-3.5,9.6-7.7,10.3-11.2
							c0.6-2.9-1.1-5.1-4.8-6.6C22.7,1.2,21.1,0.9,19.6,0.9L19.6,0.9z"/>
					</g>
				</g>
			</g>
			<g id="Grupo_137348" transform="translate(76.881 135.191)">
				<g id="Grupo_137347">
					<path id="Trazado_195381" d="M28.9,0.1c-0.3,0.3-0.5,0.5-0.8,0.8c-2.2,2.3-4.6,4.4-7,6.6c-2.4,2.2-4.9,4.3-7.5,6.4
						c-2.2,1.9-4.5,3.7-6.8,5.5c-1.6,1.3-3.3,2.6-4.9,3.8c-0.6,0.5-1.3,1-1.9,1.4C0,24.7,0,25,0.1,25.1c0.1,0.1,0.4,0.2,0.5,0l0,0
						c0.8-0.6,1.6-1.2,2.3-1.8c1.8-1.3,3.5-2.7,5.2-4.1c2.3-1.8,4.6-3.7,6.9-5.6c2.5-2.1,5-4.2,7.5-6.4c2.3-2.1,4.6-4.3,6.8-6.5
						C29.8,0.3,29.3-0.2,28.9,0.1z"/>
				</g>
			</g>
		</g>
		<g id="Grupo_137397" transform="translate(728.942 390.372)">
			<g id="Grupo_137396">
				<g id="Grupo_137395">
					<g id="Grupo_137372">
						<g id="Grupo_137353">
							<g id="Grupo_137352">
								<g id="Grupo_137350" transform="translate(0.453 0.453)">
									<path id="Rectángulo_294911" class="st5" d="M65,0h71c35.9,0,65,29.1,65,65l0,0c0,35.9-29.1,65-65,65l0,0H65
										c-35.9,0-65-29.1-65-65l0,0C0,29.1,29.1,0,65,0C65,0,65,0,65,0z"/>
								</g>
								<g id="Grupo_137351">
									<path id="Trazado_195382" d="M192.9,131H9.1c-5,0-9.1-4.1-9.1-9.1V9.1C0,4.1,4.1,0,9.1,0h183.7c5,0,9.1,4.1,9.1,9.1v112.7
										C202,126.9,197.9,131,192.9,131z M9.1,0.9c-4.5,0-8.2,3.7-8.2,8.2v112.7c0,4.5,3.7,8.2,8.2,8.2h183.7
										c4.5,0,8.2-3.7,8.2-8.2V9.1c0-4.5-3.7-8.2-8.2-8.2H9.1z"/>
								</g>
							</g>
						</g>
						<g id="Grupo_137371">
							<g id="Grupo_137357">
								<g id="Grupo_137354" transform="translate(0.453 0.453)">
									<path id="Trazado_195383" class="st6" d="M192.4,0H8.7C3.9,0,0,3.9,0,8.7c0,0,0,0,0,0v9h201.1v-9
										C201.1,3.9,197.2,0,192.4,0C192.4,0,192.4,0,192.4,0z"/>
								</g>
								<g id="Grupo_137356">
									<g id="Grupo_137355">
										<path id="Trazado_195384" d="M202,18.6H0V9.1C0,4.1,4.1,0,9.1,0h183.7c5,0,9.1,4.1,9.1,9.1L202,18.6z M0.9,17.7h200.2V9.1
											c0-4.5-3.7-8.2-8.2-8.2H9.1c-4.5,0-8.2,3.7-8.2,8.2V17.7z"/>
									</g>
								</g>
							</g>
							<g id="Grupo_137370" transform="translate(8.532 7.302)">
								<g id="Grupo_137361" transform="translate(21.311)">
									<g id="Grupo_137358" transform="translate(0.453 0.453)">
										<path id="Trazado_195385" class="st3" d="M3.2,0C1.5,0,0,1.5,0,3.2s1.5,3.2,3.2,3.2C5,6.5,6.5,5,6.5,3.2
											C6.5,1.5,5,0,3.2,0C3.2,0,3.2,0,3.2,0z"/>
									</g>
									<g id="Grupo_137360">
										<g id="Grupo_137359">
											<path id="Trazado_195386" d="M3.7,7.4C1.7,7.4,0,5.7,0,3.7S1.7,0,3.7,0s3.7,1.7,3.7,3.7C7.4,5.7,5.7,7.4,3.7,7.4z
												 M3.7,0.9c-1.5,0-2.8,1.2-2.8,2.8s1.2,2.8,2.8,2.8s2.8-1.2,2.8-2.8c0,0,0,0,0,0C6.5,2.2,5.2,0.9,3.7,0.9L3.7,0.9z"/>
										</g>
									</g>
								</g>
								<g id="Grupo_137365" transform="translate(10.764)">
									<g id="Grupo_137362" transform="translate(0.453 0.453)">
										<path id="Trazado_195387" class="st3" d="M3.2,0C1.5,0,0,1.5,0,3.2s1.5,3.2,3.2,3.2C5,6.5,6.5,5,6.5,3.2
											C6.5,1.5,5,0,3.2,0L3.2,0z"/>
									</g>
									<g id="Grupo_137364">
										<g id="Grupo_137363">
											<path id="Trazado_195388" d="M3.7,7.4C1.7,7.4,0,5.7,0,3.7C0,1.7,1.7,0,3.7,0s3.7,1.7,3.7,3.7c0,0,0,0,0,0
												C7.4,5.7,5.7,7.4,3.7,7.4z M3.7,0.9c-1.5,0-2.8,1.2-2.8,2.8s1.2,2.8,2.8,2.8s2.8-1.2,2.8-2.8c0,0,0,0,0,0
												C6.5,2.2,5.2,0.9,3.7,0.9L3.7,0.9z"/>
										</g>
									</g>
								</g>
								<g id="Grupo_137369">
									<g id="Grupo_137366" transform="translate(0.453 0.453)">
										<path id="Trazado_195389" class="st3" d="M3.2,0C1.5,0,0,1.5,0,3.2s1.5,3.2,3.2,3.2C5,6.5,6.5,5,6.5,3.2
											C6.5,1.5,5,0,3.2,0L3.2,0z"/>
									</g>
									<g id="Grupo_137368">
										<g id="Grupo_137367">
											<path id="Trazado_195390" d="M3.7,7.4C1.7,7.4,0,5.7,0,3.7S1.7,0,3.7,0s3.7,1.7,3.7,3.7C7.4,5.7,5.7,7.4,3.7,7.4z
												 M3.7,0.9c-1.5,0-2.8,1.2-2.8,2.8s1.2,2.8,2.8,2.8s2.8-1.2,2.8-2.8c0,0,0,0,0,0C6.5,2.2,5.2,0.9,3.7,0.9L3.7,0.9z"/>
										</g>
									</g>
								</g>
							</g>
						</g>
					</g>
					<g id="Grupo_137390" transform="translate(21.072 29.041)">
						<g id="Grupo_137373" transform="translate(27.69 13.566)">
							<rect id="Rectángulo_294912" x="0" y="0" class="st3" width="55.2" height="6.5"/>
						</g>
						<g id="Grupo_137374" transform="translate(0.084 13.566)">
							<rect id="Rectángulo_294913" x="0" y="0" class="st3" width="21.2" height="6.5"/>
						</g>
						<g id="Grupo_137375" transform="translate(0.053 26.817)">
							<rect id="Rectángulo_294914" x="0" y="0" class="st7" width="83.4" height="6.5"/>
						</g>
						<g id="Grupo_137376" transform="translate(27.384)">
							<rect id="Rectángulo_294915" x="0" y="0" class="st8" width="55.4" height="6.5"/>
						</g>
						<g id="Grupo_137377">
							<rect id="Rectángulo_294916" x="0" y="0" class="st7" width="14" height="6.5"/>
						</g>
						<g id="Grupo_137378" transform="translate(0.053 38.245)">
							<rect id="Rectángulo_294917" x="0" y="0" class="st7" width="53" height="6.5"/>
						</g>
						<g id="Grupo_137379" transform="translate(20.523 49.673)">
							<rect id="Rectángulo_294918" x="0" y="0" class="st8" width="32.5" height="6.5"/>
						</g>
						<g id="Grupo_137380" transform="translate(60.732 49.673)">
							<rect id="Rectángulo_294919" x="0" y="0" class="st3" width="103.4" height="6.5"/>
						</g>
						<g id="Grupo_137381" transform="translate(0.053 61.1)">
							<rect id="Rectángulo_294920" x="0" y="0" class="st7" width="45.1" height="6.5"/>
						</g>
						<g id="Grupo_137382" transform="translate(53.067 61.1)">
							<rect id="Rectángulo_294921" x="0" y="0" class="st8" width="79.8" height="6.5"/>
						</g>
						<g id="Grupo_137383" transform="translate(140.494 61.1)">
							<rect id="Rectángulo_294922" x="0" y="0" class="st3" width="23.6" height="6.5"/>
						</g>
						<g id="Grupo_137384" transform="translate(0.053 72.528)">
							<rect id="Rectángulo_294923" x="0" y="0" class="st7" width="75.6" height="6.5"/>
						</g>
						<g id="Grupo_137385" transform="translate(83.513 72.528)">
							<rect id="Rectángulo_294924" x="0" y="0" class="st8" width="28.2" height="6.5"/>
						</g>
						<g id="Grupo_137386" transform="translate(119.333 72.528)">
							<rect id="Rectángulo_294925" x="0" y="0" class="st3" width="44.8" height="6.5"/>
						</g>
						<g id="Grupo_137387" transform="translate(33.115 83.956)">
							<rect id="Rectángulo_294926" x="0" y="0" class="st7" width="99.7" height="6.5"/>
						</g>
						<g id="Grupo_137388" transform="translate(0.084 83.956)">
							<rect id="Rectángulo_294927" x="0" y="0" class="st8" width="13.9" height="6.5"/>
						</g>
						<g id="Grupo_137389" transform="translate(140.494 83.956)">
							<rect id="Rectángulo_294928" x="0" y="0" class="st3" width="23.6" height="6.5"/>
						</g>
					</g>
					<g id="Grupo_137394" transform="translate(115.686 29.041)">
						<g id="Grupo_137391" transform="translate(0 9.926)">
							<path id="Trazado_195391" class="st8" d="M0,14.3l21,7.8v-6.2L7.4,11L21,6.2V0L0,7.8V14.3z"/>
						</g>
						<g id="Grupo_137392" transform="translate(21.897)">
							<path id="Trazado_195392" class="st8" d="M0,40.1h7.2L21.3,0h-7.2L0,40.1z"/>
						</g>
						<g id="Grupo_137393" transform="translate(43.623 9.926)">
							<path id="Trazado_195393" class="st8" d="M0,6.2L13.6,11L0,15.8v6.2l21-7.8V7.8L0,0V6.2z"/>
						</g>
					</g>
				</g>
			</g>
		</g>
		<g id="Grupo_137398" transform="translate(547.176 615.252)">
			<rect id="Rectángulo_294929" x="0" y="0" class="st9" width="382.3" height="9.8"/>
		</g>
		<g id="Grupo_137399" transform="translate(559.951 625.004)">
			<rect id="Rectángulo_294930" x="0" y="0" class="st10" width="356.7" height="45.9"/>
		</g>
		<g id="Grupo_137440" transform="translate(593.798 416.144)">
			<g id="Grupo_137408" transform="translate(0 58.491)">
				<g id="Grupo_137400" transform="translate(139.088 93.114)">
					<path id="Trazado_195394" d="M20.9,0.5C18.1-0.8,4.3-0.3,0.6,12.1c-2,6.6,1.4,13.8,7,15.4C28.5,33.6,43.9,21.3,20.9,0.5z"/>
				</g>
				<g id="Grupo_137401" transform="translate(0.461 0.453)">
					<path id="Trazado_195395" class="st3" d="M139.5,33.4c-1.9-9-7.6-16.3-15.2-19.7L93.2,0L46.8,7c-8.9,1.3-16.5,8.2-19.7,17.8
						L1,103.2c-1.5,4.5-1.3,9.3,0.4,13.6c1.2,3.1,3.2,5.8,5.8,7.8c2.5,1.9,5.5,2.9,8.6,2.9H27l2.1-1.6l-3.6,14.3h99l-0.1-44.2
						l1.5,6.8c1.7,7.7,6.7,14.1,13.4,16.3c2.5,0.9,5.2,1,7.8,0.3l15.9-2.4l-9.9-20.7L139.5,33.4z"/>
				</g>
				<g id="Grupo_137402" transform="translate(4.182 0.454)">
					<path id="Trazado_195396" class="st8" d="M133.8,37.1c-1.9-9-6.3-16.9-13.9-20.2L89.5,0l-2.6,0.5l3.5,1.1
						c0,0,4.5,18.4-11.4,15.2c-8.4-1.7-11.6-9.2-12.6-12.2L45.7,8.8c-8.9,1.3-19.1,6.3-22.3,15.9L0.5,102.1
						C-2.5,118,9,127.5,12.1,127.5h11.1l2.1-1.6l-3.6,14.2l94.2-4.9l4.7-39.3l1.5,6.8c1.7,7.7,6.7,14.1,13.4,16.3
						c2.5,0.9,5.2,1,7.8,0.2l15.9-2.4l-10.6-23.9L133.8,37.1z"/>
				</g>
				<g id="Grupo_137404">
					<g id="Grupo_137403">
						<path id="Trazado_195397" d="M124.9,141.1h-99c-0.3,0-0.5-0.2-0.5-0.5c0,0,0-0.1,0-0.1l3.3-13l-1.1,0.8
							c-0.1,0.1-0.2,0.1-0.3,0.1H16.3c-3.2,0-6.3-1.1-8.9-3c-2.7-2-4.8-4.8-6-8c-1.7-4.5-1.9-9.4-0.4-14L27.1,25
							C30.3,15.3,38,8.3,47.2,7l46.4-7c0.1,0,0.2,0,0.2,0L125,13.7c7.7,3.4,13.5,10.9,15.4,20L154,96.5l9.9,20.6
							c0.1,0.2,0,0.5-0.2,0.6c0,0-0.1,0-0.1,0l-15.8,2.4c-2.6,0.8-5.5,0.7-8-0.3c-6.7-2.2-12-8.6-13.7-16.6l-0.6-2.6l0.1,39.9
							C125.4,140.9,125.2,141.1,124.9,141.1L124.9,141.1z M26.5,140.2h98l-0.1-43.8c0-0.2,0.2-0.5,0.4-0.5c0.2,0,0.5,0.2,0.5,0.4
							l1.5,6.8c1.7,7.7,6.7,13.8,13.1,15.9c2.4,0.9,5,1,7.5,0.3c0,0,0.1,0,0.1,0l15.2-2.3l-9.6-20.1c0,0,0-0.1,0-0.1l-13.6-62.8l0,0
							c-1.9-8.8-7.5-16.1-14.9-19.4l-31-13.7L47.3,7.9c-8.8,1.3-16.2,8-19.3,17.5L1.9,103.8c-1.4,4.3-1.3,9.1,0.3,13.3
							c1.1,3,3.1,5.6,5.7,7.6c2.4,1.8,5.3,2.8,8.3,2.8h11l2-1.5c0.2-0.1,0.5-0.1,0.6,0.1c0.1,0.1,0.1,0.2,0.1,0.4L26.5,140.2z"/>
					</g>
				</g>
				<g id="Grupo_137405" transform="translate(34.933 56.38)">
					<path id="Trazado_195398" d="M0,40.7L0.7,41L12.9,0.3L12.2,0L0,40.7z"/>
				</g>
				<g id="Grupo_137406" transform="translate(124.037 74.81)">
					<path id="Trazado_195399" d="M0,0l0.6,38.5l0.8,0L0.8,0L0,0z"/>
				</g>
				<g id="Grupo_137407" transform="translate(71.622 22.02)">
					<path id="Trazado_195400" d="M13.2,7.7C8.2,7.6,3.6,4.8,0.6,0L0,0.5c3.1,5,7.9,7.9,13.2,8c0.1,0,0.2,0,0.3,0
						c5.3,0,10.4-2.9,13.9-8L26.8,0C23.3,5,18.4,7.8,13.2,7.7z"/>
				</g>
			</g>
			<g id="Grupo_137413" transform="translate(142.379 150.924)">
				<g id="Grupo_137411">
					<g id="Grupo_137409" transform="translate(0.454 0.456)">
						<path id="Trazado_195401" class="st3" d="M3.3,3.6c-3.9,2.8-4.4,9-1,12.6c0,0,2.3,2.4,6.1,10c1.4,2.7,5.3,2.8,4.7-0.4
							c-1.2-5.7-0.9-10.1,1.5-9.7c2.3,0.4,8.9,10.8,11.6,11.4s1.9-3.8,1.9-3.8s1.8,4,4.1,4.4s4.6-2.9-3.5-16.6
							C19.8-3.5,10-1.1,3.3,3.6z"/>
					</g>
					<g id="Grupo_137410">
						<path id="Trazado_195402" d="M33,29.1c-0.2,0-0.3,0-0.5,0c-1.5-0.3-2.7-1.7-3.5-3c0,0.7-0.3,1.4-0.8,1.9
							c-0.5,0.4-1.2,0.6-1.8,0.4c-1.5-0.4-3.9-3.2-6.4-6.2c-2-2.4-4.2-5.1-5.2-5.3c-0.3-0.1-0.6,0-0.8,0.2c-1,1-1,4.5-0.1,8.9
							c0.3,1.4-0.2,2.5-1.3,2.9c-1.7,0.4-3.5-0.5-4.2-2.1c-3.7-7.3-6-9.8-6.1-9.9C0.6,15-0.2,12.4,0.1,9.8c0.2-2.5,1.5-4.7,3.4-6.2
							l0,0C8,0.5,12.3-0.6,16.4,0.3c4.8,1,9.2,4.9,13.1,11.4c4.9,8.4,6.8,14.2,5.2,16.5C34.3,28.8,33.7,29.1,33,29.1z M28.5,23.7
							c0.2,0,0.3,0.1,0.4,0.3c0.5,1,2,3.8,3.8,4.2c0.5,0.1,1-0.1,1.3-0.5c0.5-0.7,1.6-3.9-5.2-15.5c-3.7-6.3-7.9-10-12.5-11
							C12.4,0.3,8.3,1.4,4,4.4l0,0C2.2,5.7,1.1,7.7,0.9,9.9c-0.3,2.3,0.5,4.7,2.1,6.4c0.1,0.1,2.4,2.6,6.2,10.1
							c0.6,1.1,2,2.1,3.1,1.7c0.6-0.2,0.9-0.9,0.7-1.8c-0.5-2.3-1.4-7.9,0.3-9.7c0.4-0.4,1.1-0.6,1.6-0.5c1.2,0.2,3,2.3,5.7,5.6
							c2.2,2.6,4.6,5.5,5.9,5.9c0.7,0.2,0.9-0.1,1-0.2c0.7-0.6,0.5-2.5,0.4-3.1C28.1,24,28.2,23.7,28.5,23.7
							C28.5,23.7,28.5,23.7,28.5,23.7L28.5,23.7z"/>
					</g>
				</g>
				<g id="Grupo_137412" transform="translate(18.979 10.127)">
					<path id="Trazado_195403" d="M0.4,0L0,0.7c3.5,2.6,6.4,7.9,9.2,13.5l0.7-0.4C7,8.1,4.1,2.7,0.4,0z"/>
				</g>
			</g>
			<g id="Buku" transform="translate(2.757 96.289)">
				<g id="Grupo_137416">
					<g id="Grupo_137414" transform="translate(0.453 0.453)">
						<path id="Trazado_195404" class="st11" d="M0,0c11,11.7,8.9,32.8,2.8,53.7C21,63.5,36.9,80.9,36.9,80.9
							c4.9-8.7,7.9-18.3,8.9-28.3C42.6,46.3,22.3,14.5,0,0z"/>
					</g>
					<g id="Grupo_137415">
						<path id="Trazado_195405" d="M37.4,81.8c-0.1,0-0.2-0.1-0.3-0.1c-0.2-0.2-16-17.5-34-27.1c-0.2-0.1-0.3-0.3-0.2-0.5
							c7.5-25.5,6.6-43.4-2.7-53.3C0,0.6,0,0.3,0.1,0.1C0.3,0,0.5,0,0.7,0.1c11.9,7.8,23,20.3,30.2,29.5
							c5.9,7.4,11.2,15.2,15.8,23.3c0,0.1,0.1,0.2,0,0.2c-1,10-4.1,19.7-9,28.5C37.7,81.7,37.5,81.8,37.4,81.8L37.4,81.8z M3.8,54
							c16.3,8.8,30.8,23.9,33.5,26.7c4.6-8.5,7.5-17.8,8.5-27.4c-4.6-8.1-9.8-15.8-15.6-23.1C23.6,21.7,13.7,10.4,2.8,2.6
							C10.4,13,10.7,30.3,3.8,54z"/>
					</g>
				</g>
				<g id="Grupo_137417" transform="translate(7.132 4.717)">
					<path id="Trazado_195406" class="st12" d="M0,0c5.6,13.9,8.4,28.3,1.9,45.2C16.3,54,37.3,76.7,37.8,75.9S46,55.7,46,55.7
						S27.6,11,0,0z"/>
				</g>
				<g id="Grupo_137418" transform="translate(10.738 2.896)">
					<path id="Trazado_195407" class="st13" d="M0,0c5,12.2,8.7,29,1.2,44.9c12.6,10.9,29.9,32.4,30.5,31.8s15.5-16.9,15.5-16.9
						S34.7,18.4,0,0z"/>
				</g>
				<g id="Grupo_137419" transform="translate(10.696 23.443)">
					<path id="Trazado_195408" class="st12" d="M0,25.9c0.3,0.7,9.9,1.2,10.1,2l21.3,11.9l43.6,12c1.8-0.2-15.7-36.9-28.8-51.3
						C25.6-4.2-0.3,25.2,0,25.9z"/>
				</g>
				<g id="Grupo_137420" transform="translate(9.008 34.34)">
					<path id="Trazado_195409" class="st13" d="M0,15.5c0.4,4.1,34.7,35.1,34.7,35.1s29.7-13,41.3-4.5c2.1-10.6-14.6-33.9-22.1-45.1
						C31-3.8,9.1,9.5,0,15.5z"/>
				</g>
				<g id="Grupo_137423" transform="translate(4.203 41.668)">
					<g id="Grupo_137421" transform="translate(0.453 0.451)">
						<path id="Trazado_195410" class="st11" d="M64.8,6.8C59,2,50.7,1.3,43.2,0.4c-4.1-0.6-8.3-0.6-12.5-0.1
							c-4.6,0.8-9.2,2.2-13.5,3.9C11.3,6.6,5.6,9.2,0,12.1c14.5,10.2,27.7,22.1,39.4,35.4C54.2,41,71.8,40.1,86.9,46
							C81.3,32.1,70.5,11.7,64.8,6.8z"/>
					</g>
					<g id="Grupo_137422">
						<path id="Trazado_195411" d="M39.8,48.4c-0.1,0-0.3-0.1-0.3-0.2C27.8,35,14.6,23.1,0.2,12.9c-0.2-0.1-0.3-0.4-0.1-0.6
							c0-0.1,0.1-0.1,0.2-0.1c5.6-2.9,11.4-5.5,17.3-7.8c4.4-1.8,8.9-3.1,13.6-4c4.2-0.5,8.4-0.5,12.6,0.1c0.6,0.1,1.2,0.1,1.8,0.2
							c7.2,0.8,14.6,1.7,20,6.3c3.6,3,8.6,11.5,11.2,16.3c4.1,7.5,7.8,15.2,11,23.1c0.1,0.2,0,0.5-0.2,0.6c-0.1,0-0.2,0-0.3,0
							C79.6,44,71.6,42.6,63.5,43c-8.1,0.3-16.1,2.2-23.5,5.4C39.9,48.4,39.9,48.4,39.8,48.4z M1.3,12.6
							c14.2,10.1,27.1,21.8,38.6,34.8c7.5-3.2,15.4-5,23.5-5.3c7.8-0.3,15.7,0.9,23,3.6C80.6,31.1,70.3,12.1,64.9,7.6
							c-5.2-4.4-12.5-5.2-19.5-6c-0.6-0.1-1.2-0.1-1.8-0.2c-4.1-0.6-8.3-0.6-12.4-0.1c-4.6,0.8-9.1,2.1-13.4,3.9
							C12.2,7.4,6.7,9.8,1.3,12.6L1.3,12.6z"/>
					</g>
				</g>
			</g>
			<g id="Grupo_137429" transform="translate(13.954 159.905)">
				<g id="Grupo_137426">
					<g id="Grupo_137424" transform="translate(0.453 0.45)">
						<path id="Trazado_195412" class="st3" d="M26.3,10.1c0.9-1.9,2.9-5.5,1-7.4c-1.4-1.4-4.2,1.9-4.2,1.9s1.4-3.7-0.5-4.2
							c-2.8-0.6-11.2,7.2-11.2,7.2c5-4.6,4-7.2,1.7-7.6S3.4,2.3,0.7,7.2C0.1,8.6-0.1,10.2,0,11.7c0.8,11.4,12.1,18,20.8,12.2
							c4.3-2.9,7.2-7.5,7.9-12.6C29.2,8.7,26.3,10.1,26.3,10.1z"/>
					</g>
					<g id="Grupo_137425">
						<path id="Trazado_195413" d="M14.4,27c-2,0-4-0.5-5.8-1.4C3.6,23,0.3,17.8,0,12.2c-0.2-1.6,0.1-3.3,0.8-4.7
							C3.6,2.3,11.2-0.4,13.6,0c1,0.1,1.8,0.8,2.1,1.8c0.2,0.9,0.1,1.8-0.4,2.7c2.7-2.1,6-4.4,7.8-4c0.5,0.1,0.9,0.4,1.1,0.8
							c0.3,0.7,0.4,1.5,0.2,2.3c0.7-0.6,1.5-1.1,2.4-1.2c0.5,0,0.9,0.1,1.2,0.5c1.8,1.8,0.6,4.8-0.5,6.9c0.5-0.2,1.1-0.1,1.6,0.2
							c0.5,0.4,0.7,1.2,0.5,1.8c-0.8,5.3-3.7,10-8.1,12.9C19.5,26.2,17,26.9,14.4,27z M13,0.9c-1.8,0.2-3.6,0.7-5.3,1.6
							C6.1,3.3,3.1,5.1,1.6,7.9C1,9.2,0.8,10.7,0.9,12.1C1.2,17.5,4.3,22.3,9,24.8c3.9,2,8.5,1.7,12.1-0.8c4.2-2.8,7-7.3,7.7-12.3
							c0-0.3,0.1-0.8-0.2-0.9c-0.3-0.2-1.2,0-1.7,0.2c-0.2,0.1-0.5,0-0.6-0.2c-0.1-0.1-0.1-0.3,0-0.4c0.1-0.1,0.1-0.2,0.2-0.4
							c0.9-1.9,2.5-5,0.9-6.5c-0.1-0.2-0.4-0.2-0.6-0.2c-1,0-2.5,1.5-3,2.1c-0.2,0.2-0.4,0.2-0.6,0.1c-0.1-0.1-0.2-0.3-0.1-0.5
							c0.2-0.6,0.8-2.4,0.3-3.2c-0.1-0.2-0.3-0.3-0.5-0.4c-1.9-0.4-7.5,4-10.7,6.9l-0.1,0.1c-0.2,0.2-0.5,0.2-0.6,0s-0.2-0.5,0-0.6
							l0,0l0.1-0.1c3.4-3.2,3.4-5,3.2-5.6c-0.2-0.6-0.8-1.1-1.4-1.1C13.3,0.9,13.1,0.9,13,0.9L13,0.9z"/>
					</g>
				</g>
				<g id="Grupo_137427" transform="translate(11.574 4.826)">
					<path id="Trazado_195414" d="M0,11.1l0.4,0.8C5.1,9,9.1,5.1,12.3,0.5L11.6,0C8.6,4.5,4.6,8.3,0,11.1z"/>
				</g>
				<g id="Grupo_137428" transform="translate(17.514 10.279)">
					<path id="Trazado_195415" d="M0,10.7l0.5,0.7C3.9,8.2,7,4.5,9.5,0.5L8.9,0C6.4,3.9,3.4,7.5,0,10.7z"/>
				</g>
			</g>
			<g id="Grupo_137439" transform="translate(72.557 0)">
				<g id="Grupo_137432">
					<g id="Grupo_137430" transform="translate(0.455 0.451)">
						<path id="Trazado_195416" class="st3" d="M35.2,29.7c-2.8-0.8-3.4-1.9-3.2-6.5s0.1-7.7-1.3-9.7c0,0,8.6-1.3,6.6-8.7
							S25.8,0.7,23.8,1.7S22.4,1,19.2,0.1S9.5,3.8,6.9,4.9S0.6,3.2,1.4,5.8c0.3,1.3,1.1,2.5,2.1,3.4c0,0-3.8-0.5-3.2,1.6
							c0.2,1.2,1.3,2,2.5,2c0,0-2.1,8.8-2.1,15.4s2.2,14.7,2.2,14.7L0,62.6c0,0-1.1,7.9,10.8,9.5C22,73.6,21.1,68,21.1,68l1-13.2
							c0,0,7.7,0.4,8.3-4.7s0.1-14.1,1.1-15s4.2-0.8,6-1.4S38,30.5,35.2,29.7z"/>
					</g>
					<g id="Grupo_137431">
						<path id="Trazado_195417" d="M14.8,73.2c-1.2,0-2.4-0.1-3.6-0.3c-4.5-0.6-7.7-2.1-9.5-4.6C0.4,66.8-0.1,64.9,0,63l2.9-19.6
							c-1.3-4.8-2-9.7-2.2-14.7c0.2-5,0.9-10.1,2-15c-1.2-0.2-2.1-1.1-2.3-2.3c-0.2-0.5-0.1-1.1,0.3-1.5C1.2,9.4,2,9.1,2.8,9.1
							C2.2,8.3,1.7,7.4,1.4,6.4C1.2,5.9,1.2,5.4,1.5,5c0.4-0.5,1.2-0.3,2.2-0.1C4.8,5.3,6,5.3,7.2,5c0.6-0.3,1.5-0.8,2.5-1.3
							c3.2-1.8,7.6-4.3,10.2-3.5c1,0.3,1.9,0.7,2.7,1.4c0.6,0.5,0.7,0.6,1.5,0.2c1.4-0.6,2.9-1.1,4.4-1.3c2.1-0.5,4.3-0.3,6.2,0.5
							c1.8,0.8,3,2.4,3.5,4.3c0.6,1.9,0.4,3.9-0.7,5.6c-1.5,2.3-4.3,3.2-5.6,3.5c1.1,2.1,1.2,5.1,1,9.5c-0.2,4.6,0.4,5.3,2.8,6
							c2.2,0.7,3.5,2.2,3.5,3.3c0,0.7-0.4,1.3-1.1,1.5c-0.9,0.2-1.8,0.4-2.7,0.5c-1.3,0.2-2.7,0.3-3.1,0.8c-0.4,0.5-0.5,4.3-0.6,7.2
							c-0.1,2.7-0.1,5.5-0.4,7.6c-0.3,2.3-1.9,3.9-4.7,4.6c-1.2,0.3-2.4,0.5-3.6,0.5l-1,12.8c0.1,1.1-0.3,2.2-1.1,2.9
							C19.7,72.6,17.7,73.2,14.8,73.2z M3.8,12.8l-0.1,0.6c0,0.1-2.1,8.8-2.1,15.3s2.2,14.5,2.2,14.6l0,0.1L0.9,63.1
							c-0.1,1.7,0.4,3.4,1.4,4.7c1.7,2.2,4.7,3.7,8.9,4.2c5.6,0.8,8-0.3,9-1.3c0.6-0.6,0.9-1.4,0.9-2.2l0,0v-0.1l1.1-13.7l0.4,0
							c0.1,0,7.3,0.3,7.9-4.3c0.2-2.1,0.3-4.8,0.4-7.5c0.1-5,0.2-7.2,0.8-7.8c0.7-0.7,2.1-0.9,3.7-1.1c0.8-0.1,1.7-0.2,2.5-0.5
							c0.4-0.1,0.5-0.4,0.5-0.6c0-0.8-1.2-1.9-2.8-2.4c-3.1-0.9-3.7-2.2-3.5-6.9c0.2-4.6,0.1-7.6-1.2-9.5l-0.4-0.6l0.7-0.1
							c0,0,3.9-0.6,5.7-3.3c0.9-1.5,1.1-3.2,0.5-4.8c-0.4-1.6-1.5-3-3-3.7c-1.8-0.7-3.8-0.8-5.7-0.4c-1.4,0.3-2.9,0.7-4.2,1.3
							c-0.8,0.5-1.8,0.4-2.5-0.3c-0.7-0.6-1.5-1-2.4-1.2c-2.2-0.6-6.6,1.8-9.5,3.5C9.1,5,8.2,5.5,7.5,5.8c-1.3,0.4-2.7,0.4-4.1,0
							C3.1,5.7,2.6,5.6,2.2,5.6c0,0.2,0,0.3,0.1,0.5c0.3,1.2,1,2.3,1.9,3.2l1.6,1.1l-1.9-0.2C3.1,10,1.7,10,1.3,10.5
							c-0.1,0.2-0.2,0.4-0.1,0.7c0.2,1,1,1.7,2,1.7L3.8,12.8z"/>
					</g>
				</g>
				<g id="Grupo_137433" transform="translate(0.721 0.451)">
					<path id="Trazado_195418" d="M23.5,1.7c-2,0.9-1.4-0.6-4.6-1.5S9.2,3.8,6.6,5S0.3,3.2,1.1,5.8c0.3,1.3,1.1,2.5,2.1,3.4
						c0,0-3.8-0.5-3.2,1.6c0.2,1.2,1.3,2,2.5,2c0,0-2.1,8.8-2.1,15.4s2.2,14.7,2.2,14.7c4.5,0.3,8.9-1.3,12.1-4.5
						c1.7-1.9,3.2-4.5-0.1-5.5c-3-0.8-4.8-3.8-4.1-6.8c0-0.1,0-0.1,0-0.2c0.9-2.7,4.7-3.2,6-1.7s2.7,2.2,3.7,0.4s-1-5.5-1.5-6.7
						s-1.1-3.2-0.4-4.4s12,0,12,0S39,12.2,37,4.8S25.5,0.7,23.5,1.7z"/>
				</g>
				<g id="Grupo_137434" transform="translate(28.381 24.046)">
					<path id="Trazado_195419" d="M1.1,0C0.5,0,0,0.7,0,1.6s0.5,1.6,1.1,1.6s1.1-0.7,1.1-1.6S1.7,0,1.1,0z"/>
				</g>
				<g id="Grupo_137436" transform="translate(25.677 32.937)">
					<g id="Grupo_137435">
						<path id="Trazado_195420" d="M3.8,7.4c0,0-0.1,0-0.1,0c-4.4-1.4-3.6-7-3.6-7C0.1,0.1,0.3,0,0.6,0S1,0.3,1,0.5l0,0l0,0
							C0.9,1.4,0.9,2.3,1.1,3.2c0.2,1.6,1.3,2.9,2.9,3.4c0.2,0.1,0.4,0.3,0.3,0.6C4.2,7.3,4,7.4,3.8,7.4L3.8,7.4z"/>
					</g>
				</g>
				<g id="Grupo_137438" transform="translate(15.044 53.877)">
					<g id="Grupo_137437">
						<path id="Trazado_195421" d="M3,4.2c-0.1,0-0.2,0-0.3-0.1C2.4,3.9,0.2,2.4,0,1.2C0,1,0,0.7,0.2,0.5c0.3-0.4,1-0.7,4.2-0.2
							C6,0.5,7.7,0.9,7.7,0.9C7.9,0.9,8.1,1.2,8,1.4S7.7,1.8,7.5,1.8l0,0c0,0-1.5-0.3-3.1-0.6C1.6,0.7,1,1,0.9,1
							c-0.1,0.3,1,1.4,2.4,2.4C3.5,3.5,3.6,3.8,3.4,4C3.3,4.1,3.2,4.2,3,4.2L3,4.2z"/>
					</g>
				</g>
			</g>
		</g>
		<g id="Grupo_137451" transform="translate(718.811 526.213)">
			<g id="Grupo_137448" transform="translate(0.453 0)">
				<g id="Grupo_137441" transform="translate(0 0.453)">
					<path id="Trazado_195422" class="st14" d="M164.7,0H73c-2.2,0-4.2,1.5-4.8,3.7L47.3,82c0,0-37.6,2.3-42,2.5
						c-2.5,0-4.6,1.7-5.3,4.1h147.7c3.5,0,6.6-2.5,7.2-6l1.3-6.8l13-70.1c0.5-2.5-1.1-5-3.7-5.5C165.3,0,165,0,164.7,0z"/>
				</g>
				<g id="Grupo_137442" transform="translate(112.602 0.453)">
					<path id="Trazado_195423" class="st15" d="M52.1,0H1.1c-8.7,53.3,34.8,74.6,42.5,75.7l13-70.1c0.5-2.5-1.1-5-3.7-5.5
						C52.7,0,52.4,0,52.1,0z"/>
				</g>
				<g id="Grupo_137445" transform="translate(46.712)">
					<g id="Grupo_137443" transform="translate(0.59 0.453)">
						<path id="Trazado_195424" class="st16" d="M20.9,3.7L0,82h5.5c0,0,17.6-66.8,20.3-75.2c0.7-2.4,1.7-4.7,3-6.8h-3.1
							C23.4,0,21.5,1.5,20.9,3.7z"/>
					</g>
					<g id="Grupo_137444">
						<path id="Trazado_195425" d="M6.5,82.9H0L21.1,4c0.6-2.4,2.8-4,5.2-4h4l-0.5,0.7c-1.3,2.1-2.2,4.4-2.9,6.7
							C24.2,15.7,6.7,81.9,6.6,82.6L6.5,82.9z M1.2,82h4.6C7.1,76.8,23.5,15.2,26,7.2c0.6-2.2,1.5-4.3,2.6-6.3h-2.3
							c-2,0-3.8,1.4-4.3,3.3L1.2,82z"/>
					</g>
				</g>
				<g id="Grupo_137447" transform="translate(103.926 38.047)">
					<g id="Grupo_137446">
						<path id="Trazado_195426" class="st17" d="M8.7,22.8c-0.4,0-0.8,0-1.2-0.1c-5-0.8-8.3-6.5-7.3-12.7S6.1-0.7,11.1,0.1
							c2.6,0.5,4.8,2.1,5.9,4.4c1.4,2.5,1.9,5.5,1.4,8.3C17.5,18.6,13.2,22.8,8.7,22.8z M9.9,1.3c-4,0-7.6,3.7-8.5,8.8
							c-0.9,5.5,1.9,10.6,6.2,11.3c0.3,0.1,0.7,0.1,1,0.1c4,0,7.6-3.7,8.4-8.8c0.5-2.6,0-5.2-1.2-7.5c-1-2-2.9-3.4-5-3.8
							C10.6,1.3,10.2,1.3,9.9,1.3z"/>
					</g>
				</g>
			</g>
			<g id="Grupo_137450" transform="translate(0 0)">
				<g id="Grupo_137449">
					<path id="Trazado_195427" d="M148.2,89.4H0.5C0.2,89.4,0,89.2,0,89c0,0,0-0.1,0-0.1c0.7-2.6,3-4.4,5.7-4.4
						c4.1-0.2,38-2.2,41.7-2.4L68.2,4c0.6-2.4,2.8-4,5.2-4h91.7c2.8,0,5.1,2.3,5.1,5.1c0,0.3,0,0.7-0.1,1l-13,70.1l-1.3,6.8
						C155.2,86.7,152,89.4,148.2,89.4z M1.1,88.5h147.1c3.3,0,6.2-2.4,6.8-5.6l1.3-6.8l13-70.1c0.5-2.3-1-4.5-3.3-4.9
						c-0.3-0.1-0.5-0.1-0.8-0.1H73.4c-2,0-3.8,1.4-4.3,3.3L48.2,82.6c-0.1,0.2-0.2,0.3-0.4,0.3c-0.4,0-37.7,2.3-42,2.5
						C3.7,85.4,1.9,86.6,1.1,88.5L1.1,88.5z"/>
				</g>
			</g>
		</g>
		<g id="Grupo_137483" transform="translate(584.287 402.205)">
			<g id="Grupo_137470" transform="translate(0 0)">
				<g id="Grupo_137456">
					<g id="Grupo_137455">
						<g id="Grupo_137454">
							<g id="Grupo_137452" transform="translate(0.453 0.453)">
								<path id="Trazado_195428" class="st18" d="M5.4,0C2.4,0,0,2.4,0,5.4v60.1c0,3,2.4,5.4,5.4,5.4h43.4c3,0,5.4-2.4,5.4-5.4V22
									L32.9,0H5.4z"/>
							</g>
							<g id="Grupo_137453">
								<path id="Trazado_195429" d="M49.3,71.8H5.9c-3.2,0-5.9-2.6-5.9-5.9V5.9C0,2.6,2.6,0,5.9,0h27.5c0.1,0,0.2,0.1,0.3,0.1
									l21.3,22c0.1,0.1,0.1,0.2,0.1,0.3v43.5C55.1,69.2,52.5,71.8,49.3,71.8z M5.9,0.9c-2.7,0-5,2.2-5,5v60.1c0,2.7,2.2,5,5,5
									h43.4c2.7,0,5-2.2,5-5V22.6l-21-21.7H5.9z"/>
							</g>
						</g>
					</g>
				</g>
				<g id="Grupo_137461" transform="translate(0 49.395)">
					<g id="Grupo_137460">
						<g id="Grupo_137459">
							<g id="Grupo_137457" transform="translate(0.453 0.453)">
								<path id="Trazado_195430" class="st19" d="M53.2,0H1.1C0.5,0,0,0.5,0,1.1v14.9c0,3.1,2.5,5.6,5.6,5.6l0,0h43.1
									c3.1,0,5.6-2.5,5.6-5.6l0,0V1.1C54.2,0.5,53.8,0,53.2,0z"/>
							</g>
							<g id="Grupo_137458">
								<path id="Trazado_195431" d="M49.1,22.4H6c-3.3,0-6-2.7-6-6V1.5C0,0.7,0.7,0,1.5,0h52.1c0.8,0,1.5,0.7,1.5,1.5v14.9
									C55.1,19.7,52.4,22.4,49.1,22.4z M1.5,0.9c-0.3,0-0.6,0.3-0.6,0.6v14.9c0,2.8,2.3,5.1,5.1,5.1h43.1c2.8,0,5.1-2.3,5.1-5.1
									V1.5c0-0.3-0.3-0.6-0.6-0.6H1.5z"/>
							</g>
						</g>
					</g>
				</g>
				<g id="Grupo_137466" transform="translate(32.945 0)">
					<g id="Grupo_137465">
						<g id="Grupo_137464">
							<g id="Grupo_137462" transform="translate(0.453 0.453)">
								<path id="Trazado_195432" class="st18" d="M0,16.9c0,2.8,2.3,5,5,5h16.3L0,0L0,16.9z"/>
							</g>
							<g id="Grupo_137463">
								<path id="Trazado_195433" d="M21.8,22.9L21.8,22.9H5.5c-3,0-5.5-2.5-5.5-5.5V0.5C0,0.2,0.2,0,0.5,0c0.1,0,0.2,0,0.3,0.1
									l21.3,22c0.2,0.2,0.2,0.5,0,0.6C22,22.8,21.9,22.9,21.8,22.9L21.8,22.9z M0.9,1.6v15.8C0.9,19.9,3,22,5.5,22h15.2L0.9,1.6z"
									/>
							</g>
						</g>
					</g>
				</g>
				<g id="Grupo_137469" transform="translate(33.619 18.838)" class="st20">
					<g id="Grupo_137468">
						<g id="Grupo_137467">
							<path id="Trazado_195434" d="M0,0c0,2.6,1.9,4.9,4.5,5.4c0.2,0,0.4,0.1,0.5,0.1c2.1,0.4,16.1,2.9,16.1,2.5V3.6H4.8
								C4.8,3.6,0.8,3.4,0,0z"/>
						</g>
					</g>
				</g>
			</g>
			<g id="Grupo_137477" transform="translate(15.981 54.861)">
				<g id="Grupo_137472">
					<g id="Grupo_137471">
						<path id="Trazado_195435" class="st21" d="M4.7,1.7c0.8,0,1.6,0.4,2.1,1l1.3-1.2c-1.6-1.8-4.3-2-6.2-0.4
							c-1.8,1.6-2,4.3-0.4,6.2s4.3,2,6.2,0.4c0.2-0.1,0.3-0.3,0.4-0.4L6.8,6.1c-0.5,0.6-1.3,1-2.1,1C3.2,7.1,2,5.9,2,4.4
							C2,2.9,3.2,1.7,4.7,1.7L4.7,1.7z"/>
					</g>
				</g>
				<g id="Grupo_137474" transform="translate(8.625)">
					<g id="Grupo_137473">
						<path id="Trazado_195436" class="st21" d="M2.1,2.5c0-0.5,0.4-1,1.6-1c0.8,0,1.6,0.2,2.3,0.7l0.6-1.5C5.8,0.2,4.7,0,3.7,0
							C1.3,0,0.2,1.2,0.2,2.6c0,3.1,4.9,2,4.9,3.6c0,0.5-0.5,0.9-1.6,0.9c-1,0-2-0.3-2.8-0.9L0,7.7c1,0.7,2.2,1,3.4,1
							C5.8,8.7,7,7.5,7,6.1C7,3,2.1,4.1,2.1,2.5z"/>
					</g>
				</g>
				<g id="Grupo_137476" transform="translate(16.311)">
					<g id="Grupo_137475">
						<path id="Trazado_195437" class="st21" d="M2.1,2.5c0-0.5,0.4-1,1.6-1c0.8,0,1.6,0.2,2.3,0.7l0.6-1.5C5.8,0.2,4.7,0,3.7,0
							C1.3,0,0.2,1.2,0.2,2.6c0,3.1,4.9,2,4.9,3.6c0,0.5-0.5,0.9-1.6,0.9c-1,0-2-0.3-2.8-0.9L0,7.7c1,0.7,2.2,1,3.4,1
							C5.8,8.7,7,7.5,7,6.1C7,3,2.1,4.1,2.1,2.5z"/>
					</g>
				</g>
			</g>
			<g id="Grupo_137482" transform="translate(15.52 22.85)">
				<g id="Grupo_137479">
					<g id="Grupo_137478">
						<path id="Trazado_195438" class="st21" d="M1.5,3.5V7c0.1,0.4-0.2,0.8-0.7,0.9c-0.1,0-0.1,0-0.2,0H0v2.4h0.6
							c0.4,0,0.8,0.3,0.9,0.7c0,0.1,0,0.1,0,0.2v3.5c0,2.2,1.2,3.5,3.7,3.5h1.1v-2.4H5.9c-0.7,0.1-1.3-0.4-1.4-1.1
							c0-0.1,0-0.2,0-0.3v-3.1c0-1.3-0.4-1.9-1.3-2.2c0.9-0.3,1.3-0.8,1.3-2.2V3.8C4.4,3.1,4.9,2.5,5.6,2.4c0.1,0,0.2,0,0.3,0h0.3V0
							H5.2C2.7,0,1.5,1.2,1.5,3.5z"/>
					</g>
				</g>
				<g id="Grupo_137481" transform="translate(17.832)">
					<g id="Grupo_137480">
						<path id="Trazado_195439" class="st21" d="M4.8,7V3.5C4.8,1.2,3.5,0,1.1,0H0v2.4h0.3C1,2.3,1.7,2.8,1.8,3.5c0,0.1,0,0.2,0,0.3
							v3.1c0,1.3,0.4,1.9,1.3,2.2c-0.9,0.3-1.3,0.8-1.3,2.2v3.1c0.1,0.7-0.4,1.3-1.1,1.4c-0.1,0-0.2,0-0.3,0H0v2.4h1.1
							c2.4,0,3.7-1.2,3.7-3.5v-3.5c-0.1-0.4,0.2-0.8,0.7-0.9c0.1,0,0.1,0,0.2,0h0.6V7.9H5.6c-0.4,0-0.8-0.3-0.9-0.7
							C4.8,7.1,4.8,7,4.8,7z"/>
					</g>
				</g>
			</g>
		</g>
		<g id="Grupo_137519" transform="translate(936.958 488.115)">
			<g id="Grupo_137502" transform="translate(0)">
				<g id="Grupo_137488">
					<g id="Grupo_137487">
						<g id="Grupo_137486">
							<g id="Grupo_137484" transform="translate(0.453 0.453)">
								<path id="Trazado_195440" class="st18" d="M3.8,0C1.7,0,0,1.7,0,3.8c0,0,0,0,0,0v41.8c0,2.1,1.7,3.8,3.8,3.8H34
									c2.1,0,3.8-1.7,3.8-3.8V15.3L23,0L3.8,0z"/>
							</g>
							<g id="Grupo_137485">
								<path id="Trazado_195441" d="M34.5,50.3H4.2c-2.3,0-4.2-1.9-4.2-4.2V4.2C0,1.9,1.9,0,4.2,0h19.2c0.1,0,0.2,0,0.3,0.1
									l14.8,15.3c0.1,0.1,0.1,0.2,0.1,0.3v30.3C38.7,48.4,36.8,50.3,34.5,50.3z M4.2,0.9c-1.8,0-3.3,1.5-3.3,3.3v41.8
									c0,1.8,1.5,3.3,3.3,3.3h30.2c1.8,0,3.3-1.5,3.3-3.3V15.9l-14.6-15L4.2,0.9z"/>
							</g>
						</g>
					</g>
				</g>
				<g id="Grupo_137493" transform="translate(0 34.417)">
					<g id="Grupo_137492">
						<g id="Grupo_137491">
							<g id="Grupo_137489" transform="translate(0.453 0.453)">
								<path id="Trazado_195442" class="st19" d="M0,10.9C0,13.2,1.8,15,4.1,15h29.6c2.3,0,4.1-1.8,4.1-4.1V0H0V10.9z"/>
							</g>
							<g id="Grupo_137490">
								<path id="Trazado_195443" d="M34.2,15.9H4.5c-2.5,0-4.5-2-4.5-4.5V0.5C0,0.2,0.2,0,0.5,0h37.8c0.3,0,0.5,0.2,0.5,0.5v10.9
									C38.7,13.9,36.7,15.9,34.2,15.9z M0.9,0.9v10.5c0,2,1.6,3.6,3.6,3.6h29.6c2,0,3.6-1.6,3.6-3.6V0.9H0.9z"/>
							</g>
						</g>
					</g>
				</g>
				<g id="Grupo_137498" transform="translate(22.955 0)">
					<g id="Grupo_137497">
						<g id="Grupo_137496">
							<g id="Grupo_137494" transform="translate(0.453 0.453)">
								<path id="Trazado_195444" class="st18" d="M0,11.8c0,1.9,1.6,3.5,3.5,3.5l0,0h11.3L0,0L0,11.8z"/>
							</g>
							<g id="Grupo_137495">
								<path id="Trazado_195445" d="M15.3,16.2L15.3,16.2H4c-2.2,0-4-1.8-4-4V0.5C0,0.2,0.2,0,0.5,0c0.1,0,0.2,0,0.3,0.1l14.8,15.3
									c0.2,0.2,0.2,0.5,0,0.6C15.5,16.2,15.4,16.2,15.3,16.2L15.3,16.2z M0.9,1.6v10.7c0,1.7,1.4,3.1,3.1,3.1h10.3L0.9,1.6z"/>
							</g>
						</g>
					</g>
				</g>
				<g id="Grupo_137501" transform="translate(23.562 13.263)" class="st20">
					<g id="Grupo_137500">
						<g id="Grupo_137499">
							<path id="Trazado_195446" d="M0,0c0,1.8,1.3,3.4,3.1,3.8c0.1,0,0.2,0.1,0.4,0.1c1.5,0.3,11.2,2,11.2,1.8V2.5H3.4
								C3.4,2.5,0.5,2.4,0,0z"/>
						</g>
					</g>
				</g>
			</g>
			<g id="Grupo_137509" transform="translate(9.49 17.45)">
				<g id="Grupo_137504" transform="translate(0 3.352)">
					<g id="Grupo_137503">
						<path id="Trazado_195447" class="st21" d="M0,4.2l6.5,2.5V5L1.9,3.4l4.5-1.7V0L0,2.5V4.2z"/>
					</g>
				</g>
				<g id="Grupo_137506" transform="translate(6.865)">
					<g id="Grupo_137505">
						<path id="Trazado_195448" class="st21" d="M0,12.8h1.9L6.4,0H4.5L0,12.8z"/>
					</g>
				</g>
				<g id="Grupo_137508" transform="translate(13.499 3.352)">
					<g id="Grupo_137507">
						<path id="Trazado_195449" class="st21" d="M0,1.7l4.5,1.7L0,5v1.7l6.5-2.5V2.5L0,0V1.7z"/>
					</g>
				</g>
			</g>
			<g id="Grupo_137518" transform="translate(9.773 40.449)">
				<g id="Grupo_137511">
					<g id="Grupo_137510">
						<path id="Trazado_195450" class="st21" d="M3.5,2H1.2V0H0v5.1h1.2V3h2.3v2.1h1.2V0H3.5V2z"/>
					</g>
				</g>
				<g id="Grupo_137513" transform="translate(5.289)">
					<g id="Grupo_137512">
						<path id="Trazado_195451" class="st21" d="M0,1h1.6v4.1h1.2V1h1.6V0H0L0,1z"/>
					</g>
				</g>
				<g id="Grupo_137515" transform="translate(10.346)">
					<g id="Grupo_137514">
						<path id="Trazado_195452" class="st21" d="M4.7,0L2.9,3.2L1,0H0v5.1h1.1v-3l1.5,2.4h0.5L4.6,2l0,3h1.1l0-5.1H4.7z"/>
					</g>
				</g>
				<g id="Grupo_137517" transform="translate(17.275)">
					<g id="Grupo_137516">
						<path id="Trazado_195453" class="st21" d="M1.2,0H0v5.1h3.7v-1H1.2L1.2,0z"/>
					</g>
				</g>
			</g>
		</g>
		<g id="Grupo_137532" transform="translate(675.077 628.472)">
			<g id="Grupo_137531" transform="translate(0)">
				<g id="Grupo_137530">
					<g id="Grupo_137522">
						<g id="Grupo_137520" transform="translate(0.453 1.349)">
							<path id="Trazado_195454" class="st3" d="M5.8,9.4C2.6,9.4,0,12,0,15.3l0,0v12.7c0,3.2,2.6,5.8,5.8,5.8l0,0h55.3
								c3.2,0,5.8-2.6,5.8-5.8l0,0V15.3c0,0,0,0,0,0l0,0V0l-7.1,9.4L5.8,9.4z"/>
						</g>
						<g id="Grupo_137521">
							<path id="Trazado_195455" d="M61.6,35.6H6.3c-3.5,0-6.3-2.8-6.3-6.3V16.6c0-3.5,2.8-6.3,6.3-6.3h53.8L67.9,0v29.3
								C67.9,32.7,65.1,35.6,61.6,35.6z M6.3,11.2c-3,0-5.4,2.4-5.4,5.4v12.7c0,3,2.4,5.4,5.4,5.4h55.3c3,0,5.4-2.4,5.4-5.4V16.6
								c0,0,0,0,0,0v-0.8l0,0v-13l-6.5,8.5L6.3,11.2z"/>
						</g>
					</g>
					<g id="Grupo_137529" transform="translate(9.237 17.366)">
						<g id="Grupo_137523" transform="translate(0 1.839)">
							<path id="Trazado_195456" class="st8" d="M0,4.6l6.8,2.5v-2L2.4,3.6L6.8,2V0L0,2.5V4.6z"/>
						</g>
						<g id="Grupo_137524" transform="translate(7.992 2.641)">
							<path id="Trazado_195457" class="st8" d="M4.3,2.1c0.7,0,1.2,0.4,1.5,1l2-1C7.6,1.4,7.1,0.9,6.5,0.5C5.8,0.2,5.1,0,4.3,0
								C3.5,0,2.8,0.2,2.1,0.5c-1.9,0.9-2.6,3.2-1.7,5c0.4,0.7,1,1.3,1.7,1.7c0.7,0.3,1.5,0.5,2.2,0.5c0.8,0,1.5-0.2,2.2-0.5
								c0.6-0.3,1.1-0.9,1.3-1.5l-2-1c-0.2,0.6-0.8,1-1.5,1c-0.4,0-0.9-0.2-1.2-0.5C2.8,4.8,2.6,4.3,2.7,3.9c0-0.5,0.1-0.9,0.5-1.3
								C3.4,2.2,3.8,2.1,4.3,2.1z"/>
						</g>
						<g id="Grupo_137525" transform="translate(16.246 2.641)">
							<path id="Trazado_195458" class="st8" d="M6.4,0.5c-1.4-0.7-3-0.7-4.4,0c-1.9,1-2.6,3.3-1.6,5.2c0,0.1,0.1,0.1,0.1,0.2
								c0.4,0.6,0.9,1.1,1.5,1.4c1.4,0.7,3,0.7,4.4,0C7,6.9,7.6,6.5,7.9,5.9c0.7-1.2,0.7-2.8,0-4C7.6,1.3,7,0.8,6.4,0.5z M5.4,5.2
								c-0.6,0.6-1.6,0.6-2.2,0c0,0,0,0,0,0C2.8,4.8,2.6,4.3,2.7,3.9c0-0.5,0.1-0.9,0.4-1.3c0.6-0.6,1.6-0.6,2.3,0c0,0,0,0,0,0
								c0.3,0.4,0.5,0.8,0.4,1.3C5.8,4.3,5.7,4.8,5.4,5.2L5.4,5.2z"/>
						</g>
						<g id="Grupo_137526" transform="translate(25.495)">
							<path id="Trazado_195459" class="st8" d="M5.8,3.4C5.2,2.9,4.5,2.6,3.7,2.6C3,2.6,2.4,2.8,1.8,3.1c-0.6,0.3-1,0.8-1.3,1.3
								c-0.7,1.3-0.7,2.8,0,4.1c0.3,0.6,0.8,1,1.3,1.4c0.6,0.3,1.2,0.5,1.9,0.5c0.8,0.1,1.6-0.3,2.2-0.9v0.7h2.5V0H5.8V3.4z
								 M5.4,7.8C5.1,8.1,4.7,8.3,4.2,8.3c-0.4,0-0.8-0.2-1.1-0.5C2.8,7.4,2.6,7,2.7,6.5c0-0.5,0.1-0.9,0.4-1.3
								c0.3-0.3,0.7-0.5,1.1-0.5c0.4,0,0.8,0.2,1.1,0.5C5.7,5.6,5.8,6,5.8,6.5C5.8,7,5.7,7.5,5.4,7.8L5.4,7.8z"/>
						</g>
						<g id="Grupo_137527" transform="translate(35.104 2.641)">
							<path id="Trazado_195460" class="st8" d="M6.2,0.5C4.8-0.2,3.3-0.2,2,0.5c-1.9,1-2.6,3.2-1.6,5.1c0.4,0.7,1,1.3,1.7,1.7
								c0.7,0.3,1.5,0.5,2.3,0.5c1.2,0.1,2.4-0.4,3.2-1.2L6.2,5.1C6,5.3,5.7,5.5,5.4,5.6C5.1,5.7,4.8,5.7,4.5,5.7
								c-0.4,0-0.8-0.1-1.2-0.3C3,5.2,2.7,4.9,2.6,4.5h5.4c0-0.4,0-0.6,0-0.6c0-0.7-0.2-1.4-0.5-2.1C7.3,1.2,6.8,0.8,6.2,0.5z
								 M2.6,3.2c0.1-0.4,0.2-0.7,0.5-0.9c0.6-0.5,1.4-0.5,2,0c0.3,0.2,0.5,0.6,0.5,0.9H2.6z"/>
						</g>
						<g id="Grupo_137528" transform="translate(44.409 1.839)">
							<path id="Trazado_195461" class="st8" d="M0,2l4.4,1.6L0,5.1v2l6.8-2.5V2.5L0,0V2z"/>
						</g>
					</g>
				</g>
			</g>
		</g>
	</g>
</g>
</svg>
