<svg xmlns="http://www.w3.org/2000/svg" width="85" height="70.557" viewBox="0 0 85 70.557">
  <g id="Grupo_140239" data-name="Grupo 140239" transform="translate(-180 -7672)">
    <path id="Trazado_195813" data-name="Trazado 195813" d="M-4874-3993v59h-81.5v-52h26.5l6.5-7Z" transform="translate(5137 11674.807)" fill="#fff1d1" stroke="#707070" stroke-width="1"/>
    <path id="Trazado_195814" data-name="Trazado 195814" d="M-4955.5-4000.5h80.5v7h-48l-7.5,8h-25Z" transform="translate(5137 11674.807)" fill="#ffb30b" stroke="#707070" stroke-width="1"/>
    <g id="Grupo_139247" data-name="Grupo 139247" transform="translate(66 7435)">
      <path id="Trazado_195800" data-name="Trazado 195800" d="M197.34,237H115.66a1.66,1.66,0,0,0-1.66,1.66V305.9a1.66,1.66,0,0,0,1.66,1.66h81.68A1.66,1.66,0,0,0,199,305.9V238.66a1.66,1.66,0,0,0-1.66-1.66Zm-1.66,3.32v4.15H147.2a1.662,1.662,0,0,0-1.311.641l-5.312,6.83H117.32V240.32ZM117.32,304.236V255.262h24.072a1.662,1.662,0,0,0,1.311-.641l5.312-6.83H195.68v56.445Zm0,0" transform="translate(0 0)"/>
      <path id="Trazado_195801" data-name="Trazado 195801" d="M149.415,274.07a1.66,1.66,0,0,0,0-3.32h0a1.66,1.66,0,0,0,0,3.32Zm0,0" transform="translate(-26.282 -26.279)"/>
      <path id="Trazado_195802" data-name="Trazado 195802" d="M183.164,274.07a1.66,1.66,0,0,0,0-3.32h0a1.66,1.66,0,0,0,0,3.32Zm0,0" transform="translate(-52.562 -26.279)"/>
      <path id="Trazado_195803" data-name="Trazado 195803" d="M216.914,274.07a1.66,1.66,0,0,0,0-3.32h0a1.66,1.66,0,0,0,0,3.32Zm0,0" transform="translate(-78.841 -26.279)"/>
      <path id="Trazado_195804" data-name="Trazado 195804" d="M200.031,341.57h18.18a1.66,1.66,0,0,0,0-3.32h-18.18a1.66,1.66,0,1,0,0,3.32Zm0,0" transform="translate(-65.695 -78.838)"/>
      <path id="Trazado_195805" data-name="Trazado 195805" d="M200.031,375.32h18.18a1.66,1.66,0,0,0,0-3.32h-18.18a1.66,1.66,0,1,0,0,3.32Zm0,0" transform="translate(-65.695 -105.117)"/>
      <path id="Trazado_195806" data-name="Trazado 195806" d="M180.455,407.41a1.66,1.66,0,0,0-1.66-1.66H149.41a1.66,1.66,0,0,0,0,3.32h29.385a1.66,1.66,0,0,0,1.66-1.66Zm0,0" transform="translate(-26.279 -131.396)"/>
      <path id="Trazado_195807" data-name="Trazado 195807" d="M149.41,439.5a1.66,1.66,0,0,0,0,3.32H164.1a1.66,1.66,0,1,0,0-3.32Zm0,0" transform="translate(-26.279 -157.676)"/>
      <path id="Trazado_195808" data-name="Trazado 195808" d="M204.943,473.25H149.41a1.66,1.66,0,0,0,0,3.32h55.533a1.66,1.66,0,0,0,0-3.32Zm0,0" transform="translate(-26.279 -183.955)"/>
      <path id="Trazado_195809" data-name="Trazado 195809" d="M204.943,507H149.41a1.66,1.66,0,0,0,0,3.32h55.533a1.66,1.66,0,0,0,0-3.32Zm0,0" transform="translate(-26.279 -210.234)"/>
      <path id="Trazado_195810" data-name="Trazado 195810" d="M151.972,348.554a1.661,1.661,0,1,0,2.349-2.349l-2.562-2.561,2.562-2.561a1.661,1.661,0,0,0-2.349-2.349l-3.735,3.735a1.663,1.663,0,0,0,0,2.349Zm0,0" transform="translate(-26.28 -78.837)"/>
      <path id="Trazado_195811" data-name="Trazado 195811" d="M435.207,473.734a1.66,1.66,0,0,0-2.348,2.349l2.561,2.561-2.561,2.561a1.66,1.66,0,0,0,2.348,2.349l3.735-3.735a1.661,1.661,0,0,0,0-2.349Zm0,0" transform="translate(-247.9 -183.954)"/>
      <path id="Trazado_195812" data-name="Trazado 195812" d="M341.838,314.3l3.846-1.685,4.063,7.038-3.381,2.487a12.523,12.523,0,0,1,0,3.759l3.381,2.488-4.063,7.038-3.846-1.685a12.425,12.425,0,0,1-3.255,1.882l-.464,4.169h-8.126l-.463-4.169a12.415,12.415,0,0,1-3.255-1.882l-3.845,1.685-4.063-7.038,3.381-2.487a12.521,12.521,0,0,1,0-3.759l-3.381-2.487,4.063-7.038,3.846,1.685a12.436,12.436,0,0,1,3.255-1.882l.463-4.169h8.126l.464,4.169a12.411,12.411,0,0,1,3.255,1.882Zm-7.781,6.4a3.32,3.32,0,1,0,3.32,3.32,3.32,3.32,0,0,0-3.32-3.32Zm0,0" transform="translate(-159.129 -55.479)" fill="#00defc" fill-rule="evenodd"/>
    </g>
  </g>
</svg>
