<svg xmlns="http://www.w3.org/2000/svg" width="278" height="216.937" viewBox="0 0 278 216.937">
  <g id="Grupo_140247" data-name="Grupo 140247" transform="translate(-1125 -1608.063)">
    <g id="Grupo_139936" data-name="Grupo 139936" transform="translate(1125 1608.063)">
      <path id="Trazado_196495" data-name="Trazado 196495" d="M-66.643,1729.824H-246.681a10.235,10.235,0,0,0-10.235,10.235v66.371h-4.495a13.832,13.832,0,0,1-6.015-1.442,27.513,27.513,0,0,0-16.717-2.337,27.659,27.659,0,0,0-22.7,24.113,27.643,27.643,0,0,0,27.465,30.753,27.426,27.426,0,0,0,11.121-2.347,13.8,13.8,0,0,1,5.574-1.229h5.768v64.725a10.234,10.234,0,0,0,10.235,10.235H-66.643a8.335,8.335,0,0,0,8.335-8.335v-182.4A8.335,8.335,0,0,0-66.643,1729.824Z" transform="translate(307.267 -1729.61)" fill="#d8d8d8"/>
      <g id="Grupo_139935" data-name="Grupo 139935">
        <path id="Trazado_196496" data-name="Trazado 196496" d="M-66.64,1729.827s.19,0,.563.015a4.257,4.257,0,0,1,.7.069,6.038,6.038,0,0,1,.954.194,8.3,8.3,0,0,1,5.078,3.917,8.693,8.693,0,0,1,1.11,4.664q.006,2.667.013,5.827c.007,4.212.015,9.071.024,14.541.019,21.886.049,53.545.084,92.665.009,19.562.02,40.989.031,63.99q0,2.157,0,4.331a11.224,11.224,0,0,1-.167,2.213,8.718,8.718,0,0,1-.731,2.117,8.541,8.541,0,0,1-7.244,4.735l-18.117.027-37.794.011-81.156.015-42.927,0a10.87,10.87,0,0,1-5.388-1.231,10.56,10.56,0,0,1-4.031-3.817,10.489,10.489,0,0,1-1.533-5.355l-.005-5.52v-22.247q0-18.741,0-37.052l.263.263H-261.3c-.73.007-1.465-.018-2.172.026a12.945,12.945,0,0,0-2.116.318,14.108,14.108,0,0,0-2.041.645c-.652.269-1.339.578-2.022.828a27.437,27.437,0,0,1-4.216,1.206,27.3,27.3,0,0,1-4.339.525,16.651,16.651,0,0,1-2.18-.027c-.726-.046-1.453-.063-2.174-.133a30.714,30.714,0,0,1-8.338-2.3,31.324,31.324,0,0,1-7.18-4.715,31.362,31.362,0,0,1-5.382-6.618,30.378,30.378,0,0,1-3.1-7.878c-.164-.685-.241-1.388-.364-2.082l-.168-1.042c-.033-.35-.041-.7-.063-1.052l-.1-2.1.116-2.1a27.634,27.634,0,0,1,6.011-15.269,28.058,28.058,0,0,1,13.322-9.13,27.805,27.805,0,0,1,15.866-.288,27.919,27.919,0,0,1,3.742,1.338,19.289,19.289,0,0,0,3.607,1.416,13.461,13.461,0,0,0,3.8.417h3.883l-.243.243c.006-19.3.012-37.874.017-55.606q0-3.323,0-6.609,0-1.642,0-3.275a13.038,13.038,0,0,1,.289-3.282,10.437,10.437,0,0,1,3.369-5.529,11.053,11.053,0,0,1,2.759-1.71,11.081,11.081,0,0,1,3.133-.764c8.463-.087,16.64-.017,24.61-.033l82.991.056,54.041.069,14.356.039,3.694.019c.829.007,1.251.02,1.251.02s-.422.014-1.251.02l-3.694.02-14.356.037-54.041.069-82.991.057c-7.952.023-16.184-.036-24.572.055a10.64,10.64,0,0,0-3,.735,10.63,10.63,0,0,0-2.643,1.642,10,10,0,0,0-3.223,5.3,12.587,12.587,0,0,0-.275,3.182q0,1.632,0,3.275,0,3.283,0,6.609c.005,17.732.011,36.308.017,55.606v.244H-260.8a13.974,13.974,0,0,1-3.927-.431,19.742,19.742,0,0,1-3.683-1.439,27.355,27.355,0,0,0-3.675-1.312,27.308,27.308,0,0,0-15.583.29,27.548,27.548,0,0,0-13.077,8.97,27.116,27.116,0,0,0-5.9,14.99l-.114,2.061.1,2.065c.02.344.029.689.061,1.033l.166,1.023c.122.679.195,1.37.357,2.043a29.892,29.892,0,0,0,3.049,7.73,30.867,30.867,0,0,0,5.283,6.494,30.829,30.829,0,0,0,7.048,4.627,30.186,30.186,0,0,0,8.181,2.252c.707.069,1.422.084,2.133.13a16.39,16.39,0,0,0,2.14.027,26.763,26.763,0,0,0,4.257-.516,27,27,0,0,0,4.135-1.184c.68-.25,1.319-.538,2.01-.824a14.773,14.773,0,0,1,2.116-.669,13.409,13.409,0,0,1,2.2-.331c.75-.047,1.476-.02,2.205-.028h4.651v.264q0,18.283,0,37.052v22.247q0,2.761,0,5.515a9.958,9.958,0,0,0,1.455,5.086,10.024,10.024,0,0,0,3.829,3.626,10.338,10.338,0,0,0,5.14,1.17l42.927,0,81.156.015,37.794.011,18.1-.013a8.092,8.092,0,0,0,6.866-4.484,8.23,8.23,0,0,0,.7-2.005,10.783,10.783,0,0,0,.16-2.126q0-2.174,0-4.331c.012-23,.023-44.428.032-63.99.036-39.12.064-70.779.084-92.665.009-5.47.017-10.329.024-14.541q.006-3.159.012-5.827a8.585,8.585,0,0,0-1.072-4.611,8.269,8.269,0,0,0-5-3.917,5.981,5.981,0,0,0-.946-.206,4.421,4.421,0,0,0-.691-.082C-66.45,1729.846-66.64,1729.827-66.64,1729.827Z" transform="translate(307.263 -1729.613)" fill="#1c262b"/>
      </g>
    </g>
    <g id="Grupo_140160" data-name="Grupo 140160" transform="translate(1194.302 1632.05)">
      <g id="Grupo_140159" data-name="Grupo 140159">
        <path id="Trazado_196497" data-name="Trazado 196497" d="M-112.021,1840.035c-.441-12.255-.889-24.568-3.247-36.605s-5.314-23.767-12.9-33.44l-70.925,3.769c-2.737,10.864-5.5,22-4.359,33.138,1.1,10.813,5.853,21.264,5.086,32.107-.541,7.66-3.8,14.824-6.2,22.123s-3.946,15.4-1.09,22.538a9.521,9.521,0,0,0,3.4,4.606c2,1.295,4.537,1.346,6.924,1.349q42.531.059,85.03-1.938Q-111.163,1863.857-112.021,1840.035Z" transform="translate(239.447 -1753.001)" fill="#1c262b"/>
        <g id="Grupo_140092" data-name="Grupo 140092" transform="translate(35.291)">
          <path id="Trazado_196498" data-name="Trazado 196498" d="M-123.7,1799.992a53.413,53.413,0,0,1-17.2,40.446l-7.687-22.138" transform="translate(205.026 -1752.556)" fill="#1c262b"/>
          <g id="Grupo_139937" data-name="Grupo 139937" transform="translate(10.975)">
            <path id="Trazado_196499" data-name="Trazado 196499" d="M-180.993,1756.649c6.6-3.584,14.572-4.1,21.947-2.632s14.246,4.786,20.757,8.53c3.652,2.1,7.295,4.409,9.92,7.693,4.792,5.994,9.528,15.836,9.991,23.477.373,6.178-2.007,21.648-4.635,27.26-2.411,5.151-13.7,9.071-19.266,10.342l-51.107-59.081A25.744,25.744,0,0,1-180.993,1756.649Z" transform="translate(193.386 -1753.25)" fill="#1c262b"/>
          </g>
          <g id="Grupo_139938" data-name="Grupo 139938" transform="translate(0 9.191)">
            <path id="Trazado_196500" data-name="Trazado 196500" d="M-189.643,1764.484l12.251-2.178c-6.7,15.854-8.512,52.109-12.345,68.877-4.516-6.513-15-26.353-14.442-34.244S-204.2,1763.139-189.643,1764.484Z" transform="translate(204.2 -1762.306)" fill="#1c262b"/>
          </g>
          <path id="Trazado_196501" data-name="Trazado 196501" d="M-131.658,1790.79a20.837,20.837,0,0,0-15.619-19.072l-28.335-7.186c-12.193-1.309-20.335,13.6-21.134,25.766-.887,13.516-1.433,27.777.155,37.866,3.195,20.288,18.826,22.9,18.826,22.9,0-.03,0,4.683.014,10.607l.318.746c7.251,17,31.2,17.78,39.553,1.293h0l6.3-72.625C-131.574,1790.729-131.624,1791.343-131.658,1790.79Z" transform="translate(204.298 -1753.083)" fill="#f8ae8b"/>
          <g id="Grupo_139953" data-name="Grupo 139953" transform="translate(11.461 50.079)">
            <g id="Grupo_139952" data-name="Grupo 139952">
              <g id="Grupo_139951" data-name="Grupo 139951">
                <g id="Grupo_139950" data-name="Grupo 139950">
                  <g id="Grupo_139949" data-name="Grupo 139949">
                    <g id="Grupo_139948" data-name="Grupo 139948">
                      <g id="Grupo_139947" data-name="Grupo 139947">
                        <g id="Grupo_139946" data-name="Grupo 139946">
                          <g id="Grupo_139945" data-name="Grupo 139945">
                            <g id="Grupo_139944" data-name="Grupo 139944">
                              <g id="Grupo_139943" data-name="Grupo 139943">
                                <g id="Grupo_139942" data-name="Grupo 139942">
                                  <g id="Grupo_139941" data-name="Grupo 139941">
                                    <g id="Grupo_139940" data-name="Grupo 139940">
                                      <g id="Grupo_139939" data-name="Grupo 139939">
                                        <path id="Trazado_196502" data-name="Trazado 196502" d="M-192.9,1804.94a2.609,2.609,0,0,0,2.518,2.63,2.5,2.5,0,0,0,2.7-2.339,2.607,2.607,0,0,0-2.514-2.63A2.5,2.5,0,0,0-192.9,1804.94Z" transform="translate(192.907 -1802.597)" fill="#1c262b"/>
                                      </g>
                                    </g>
                                  </g>
                                </g>
                              </g>
                            </g>
                          </g>
                        </g>
                      </g>
                    </g>
                  </g>
                </g>
              </g>
            </g>
          </g>
          <g id="Grupo_139969" data-name="Grupo 139969" transform="translate(10.573 42.438)">
            <g id="Grupo_139968" data-name="Grupo 139968">
              <g id="Grupo_139967" data-name="Grupo 139967">
                <g id="Grupo_139966" data-name="Grupo 139966">
                  <g id="Grupo_139965" data-name="Grupo 139965">
                    <g id="Grupo_139964" data-name="Grupo 139964">
                      <g id="Grupo_139963" data-name="Grupo 139963">
                        <g id="Grupo_139962" data-name="Grupo 139962">
                          <g id="Grupo_139961" data-name="Grupo 139961">
                            <g id="Grupo_139960" data-name="Grupo 139960">
                              <g id="Grupo_139959" data-name="Grupo 139959">
                                <g id="Grupo_139958" data-name="Grupo 139958">
                                  <g id="Grupo_139957" data-name="Grupo 139957">
                                    <g id="Grupo_139956" data-name="Grupo 139956">
                                      <g id="Grupo_139955" data-name="Grupo 139955">
                                        <g id="Grupo_139954" data-name="Grupo 139954">
                                          <path id="Trazado_196503" data-name="Trazado 196503" d="M-193.74,1797.789c.324.34,2.31-1.113,5.125-1.1,2.813-.026,4.876,1.418,5.183,1.076.15-.151-.18-.764-1.078-1.417a7.2,7.2,0,0,0-4.147-1.281,6.914,6.914,0,0,0-4.081,1.3C-193.6,1797.024-193.9,1797.637-193.74,1797.789Z" transform="translate(193.782 -1795.067)" fill="#1c262b"/>
                                        </g>
                                      </g>
                                    </g>
                                  </g>
                                </g>
                              </g>
                            </g>
                          </g>
                        </g>
                      </g>
                    </g>
                  </g>
                </g>
              </g>
            </g>
          </g>
          <g id="Grupo_139984" data-name="Grupo 139984" transform="translate(37.094 49.725)">
            <g id="Grupo_139983" data-name="Grupo 139983">
              <g id="Grupo_139982" data-name="Grupo 139982">
                <g id="Grupo_139981" data-name="Grupo 139981">
                  <g id="Grupo_139980" data-name="Grupo 139980">
                    <g id="Grupo_139979" data-name="Grupo 139979">
                      <g id="Grupo_139978" data-name="Grupo 139978">
                        <g id="Grupo_139977" data-name="Grupo 139977">
                          <g id="Grupo_139976" data-name="Grupo 139976">
                            <g id="Grupo_139975" data-name="Grupo 139975">
                              <g id="Grupo_139974" data-name="Grupo 139974">
                                <g id="Grupo_139973" data-name="Grupo 139973">
                                  <g id="Grupo_139972" data-name="Grupo 139972">
                                    <g id="Grupo_139971" data-name="Grupo 139971">
                                      <g id="Grupo_139970" data-name="Grupo 139970">
                                        <path id="Trazado_196504" data-name="Trazado 196504" d="M-167.647,1804.592a2.608,2.608,0,0,0,2.518,2.63,2.5,2.5,0,0,0,2.7-2.339,2.608,2.608,0,0,0-2.515-2.63A2.5,2.5,0,0,0-167.647,1804.592Z" transform="translate(167.649 -1802.247)" fill="#1c262b"/>
                                      </g>
                                    </g>
                                  </g>
                                </g>
                              </g>
                            </g>
                          </g>
                        </g>
                      </g>
                    </g>
                  </g>
                </g>
              </g>
            </g>
          </g>
          <g id="Grupo_140000" data-name="Grupo 140000" transform="translate(37.315 42.437)">
            <g id="Grupo_139999" data-name="Grupo 139999">
              <g id="Grupo_139998" data-name="Grupo 139998">
                <g id="Grupo_139997" data-name="Grupo 139997">
                  <g id="Grupo_139996" data-name="Grupo 139996">
                    <g id="Grupo_139995" data-name="Grupo 139995">
                      <g id="Grupo_139994" data-name="Grupo 139994">
                        <g id="Grupo_139993" data-name="Grupo 139993">
                          <g id="Grupo_139992" data-name="Grupo 139992">
                            <g id="Grupo_139991" data-name="Grupo 139991">
                              <g id="Grupo_139990" data-name="Grupo 139990">
                                <g id="Grupo_139989" data-name="Grupo 139989">
                                  <g id="Grupo_139988" data-name="Grupo 139988">
                                    <g id="Grupo_139987" data-name="Grupo 139987">
                                      <g id="Grupo_139986" data-name="Grupo 139986">
                                        <g id="Grupo_139985" data-name="Grupo 139985">
                                          <path id="Trazado_196505" data-name="Trazado 196505" d="M-167.39,1797.79c.325.34,2.312-1.114,5.126-1.1,2.812-.026,4.876,1.418,5.182,1.076.15-.151-.176-.763-1.078-1.417a7.207,7.207,0,0,0-4.147-1.282,6.933,6.933,0,0,0-4.081,1.3C-167.252,1797.024-167.549,1797.637-167.39,1797.79Z" transform="translate(167.431 -1795.066)" fill="#1c262b"/>
                                        </g>
                                      </g>
                                    </g>
                                  </g>
                                </g>
                              </g>
                            </g>
                          </g>
                        </g>
                      </g>
                    </g>
                  </g>
                </g>
              </g>
            </g>
          </g>
          <g id="Grupo_140016" data-name="Grupo 140016" transform="translate(21.383 43.825)">
            <g id="Grupo_140015" data-name="Grupo 140015">
              <g id="Grupo_140014" data-name="Grupo 140014">
                <g id="Grupo_140013" data-name="Grupo 140013">
                  <g id="Grupo_140012" data-name="Grupo 140012">
                    <g id="Grupo_140011" data-name="Grupo 140011">
                      <g id="Grupo_140010" data-name="Grupo 140010">
                        <g id="Grupo_140009" data-name="Grupo 140009">
                          <g id="Grupo_140008" data-name="Grupo 140008">
                            <g id="Grupo_140007" data-name="Grupo 140007">
                              <g id="Grupo_140006" data-name="Grupo 140006">
                                <g id="Grupo_140005" data-name="Grupo 140005">
                                  <g id="Grupo_140004" data-name="Grupo 140004">
                                    <g id="Grupo_140003" data-name="Grupo 140003">
                                      <g id="Grupo_140002" data-name="Grupo 140002">
                                        <g id="Grupo_140001" data-name="Grupo 140001">
                                          <path id="Trazado_196506" data-name="Trazado 196506" d="M-175.96,1819.75c.012-.158-1.736-.463-4.572-.83-.719-.075-1.4-.218-1.519-.706a3.611,3.611,0,0,1,.485-2.117q1.02-2.592,2.138-5.437c2.969-7.742,5.122-14.108,4.807-14.224s-2.979,6.065-5.948,13.806q-1.072,2.864-2.049,5.47a4.116,4.116,0,0,0-.38,2.8,1.8,1.8,0,0,0,1.18,1.048,4.9,4.9,0,0,0,1.221.17C-177.742,1819.893-175.971,1819.909-175.96,1819.75Z" transform="translate(183.13 -1796.433)" fill="#1c262b"/>
                                        </g>
                                      </g>
                                    </g>
                                  </g>
                                </g>
                              </g>
                            </g>
                          </g>
                        </g>
                      </g>
                    </g>
                  </g>
                </g>
              </g>
            </g>
          </g>
          <g id="Grupo_140020" data-name="Grupo 140020" transform="translate(26.533 90.767)">
            <g id="Grupo_140019" data-name="Grupo 140019">
              <g id="Grupo_140018" data-name="Grupo 140018">
                <g id="Grupo_140017" data-name="Grupo 140017">
                  <path id="Trazado_196507" data-name="Trazado 196507" d="M-150.993,1842.689s-6.639,13.931-27.056,11.987l-.006-4.771A51.645,51.645,0,0,0-150.993,1842.689Z" transform="translate(178.055 -1842.689)" fill="#f08259"/>
                </g>
              </g>
            </g>
          </g>
          <g id="Grupo_140032" data-name="Grupo 140032" transform="translate(38.225 32.96)">
            <g id="Grupo_140031" data-name="Grupo 140031">
              <g id="Grupo_140030" data-name="Grupo 140030">
                <g id="Grupo_140029" data-name="Grupo 140029">
                  <g id="Grupo_140028" data-name="Grupo 140028">
                    <g id="Grupo_140027" data-name="Grupo 140027">
                      <g id="Grupo_140026" data-name="Grupo 140026">
                        <g id="Grupo_140025" data-name="Grupo 140025">
                          <g id="Grupo_140024" data-name="Grupo 140024">
                            <g id="Grupo_140023" data-name="Grupo 140023">
                              <g id="Grupo_140022" data-name="Grupo 140022">
                                <g id="Grupo_140021" data-name="Grupo 140021">
                                  <path id="Trazado_196508" data-name="Trazado 196508" d="M-166.52,1787.814c.275.761,3.087.407,6.389.81,3.311.337,5.972,1.3,6.413.623.2-.327-.266-1.043-1.342-1.782a10.766,10.766,0,0,0-4.75-1.665,10.778,10.778,0,0,0-5,.573C-166.028,1786.856-166.639,1787.452-166.52,1787.814Z" transform="translate(166.534 -1785.728)" fill="#1c262b"/>
                                </g>
                              </g>
                            </g>
                          </g>
                        </g>
                      </g>
                    </g>
                  </g>
                </g>
              </g>
            </g>
          </g>
          <g id="Grupo_140044" data-name="Grupo 140044" transform="translate(11.461 33.71)">
            <g id="Grupo_140043" data-name="Grupo 140043">
              <g id="Grupo_140042" data-name="Grupo 140042">
                <g id="Grupo_140041" data-name="Grupo 140041">
                  <g id="Grupo_140040" data-name="Grupo 140040">
                    <g id="Grupo_140039" data-name="Grupo 140039">
                      <g id="Grupo_140038" data-name="Grupo 140038">
                        <g id="Grupo_140037" data-name="Grupo 140037">
                          <g id="Grupo_140036" data-name="Grupo 140036">
                            <g id="Grupo_140035" data-name="Grupo 140035">
                              <g id="Grupo_140034" data-name="Grupo 140034">
                                <g id="Grupo_140033" data-name="Grupo 140033">
                                  <path id="Trazado_196509" data-name="Trazado 196509" d="M-192.835,1789.356c.494.636,2.436-.019,4.768-.046,2.332-.107,4.307.437,4.763-.226.2-.324-.11-.96-.971-1.564a6.625,6.625,0,0,0-3.874-1.05,6.618,6.618,0,0,0-3.8,1.27C-192.78,1788.391-193.052,1789.045-192.835,1789.356Z" transform="translate(192.907 -1786.467)" fill="#1c262b"/>
                                </g>
                              </g>
                            </g>
                          </g>
                        </g>
                      </g>
                    </g>
                  </g>
                </g>
              </g>
            </g>
          </g>
          <g id="Grupo_140048" data-name="Grupo 140048" transform="translate(12.726 3.513)">
            <g id="Grupo_140047" data-name="Grupo 140047">
              <g id="Grupo_140046" data-name="Grupo 140046">
                <g id="Grupo_140045" data-name="Grupo 140045">
                  <path id="Trazado_196510" data-name="Trazado 196510" d="M-191.293,1771.89c1.248-3.052,4.618-4.884,7.927-5.051a17.507,17.507,0,0,1,9.412,2.728c12.151,6.981,18.4,23.844,30.4,31.067,2.953,1.776,6.8.149,9.308,2.5s4.141,6.114,2.752,9.254a28.372,28.372,0,0,0,4.165-7,9.528,9.528,0,0,0-.337-7.9c-1.038-1.789-2.873-3.154-3.377-5.158-.442-1.764.257-3.608.181-5.423a11.777,11.777,0,0,0-1.869-5.174c-4.7-8.268-11.172-15.745-19.5-20.4a34.691,34.691,0,0,0-17.907-4.6,26.5,26.5,0,0,0-17.037,6.721c-2.685,2.488-5.509,5.064-4.116,8.441" transform="translate(191.66 -1756.711)" fill="#1c262b"/>
                </g>
              </g>
            </g>
          </g>
          <g id="Grupo_140066" data-name="Grupo 140066" transform="translate(69.85 51.361)">
            <g id="Grupo_140065" data-name="Grupo 140065">
              <g id="Grupo_140064" data-name="Grupo 140064">
                <g id="Grupo_140063" data-name="Grupo 140063">
                  <g id="Grupo_140062" data-name="Grupo 140062">
                    <g id="Grupo_140061" data-name="Grupo 140061">
                      <g id="Grupo_140060" data-name="Grupo 140060">
                        <g id="Grupo_140059" data-name="Grupo 140059">
                          <g id="Grupo_140058" data-name="Grupo 140058">
                            <g id="Grupo_140057" data-name="Grupo 140057">
                              <g id="Grupo_140056" data-name="Grupo 140056">
                                <g id="Grupo_140055" data-name="Grupo 140055">
                                  <g id="Grupo_140054" data-name="Grupo 140054">
                                    <g id="Grupo_140053" data-name="Grupo 140053">
                                      <g id="Grupo_140052" data-name="Grupo 140052">
                                        <g id="Grupo_140051" data-name="Grupo 140051">
                                          <g id="Grupo_140050" data-name="Grupo 140050">
                                            <g id="Grupo_140049" data-name="Grupo 140049">
                                              <path id="Trazado_196511" data-name="Trazado 196511" d="M-135.372,1804.951c.214-.583,10.858-4.4,11,6.844.136,10.924-10.952,8.773-10.975,8.461S-135.372,1804.951-135.372,1804.951Z" transform="translate(135.372 -1803.859)" fill="#f8ae8b"/>
                                            </g>
                                          </g>
                                        </g>
                                      </g>
                                    </g>
                                  </g>
                                </g>
                              </g>
                            </g>
                          </g>
                        </g>
                      </g>
                    </g>
                  </g>
                </g>
              </g>
            </g>
          </g>
          <g id="Grupo_140085" data-name="Grupo 140085" transform="translate(73.216 54.926)">
            <g id="Grupo_140084" data-name="Grupo 140084">
              <g id="Grupo_140083" data-name="Grupo 140083">
                <g id="Grupo_140082" data-name="Grupo 140082">
                  <g id="Grupo_140081" data-name="Grupo 140081">
                    <g id="Grupo_140080" data-name="Grupo 140080">
                      <g id="Grupo_140079" data-name="Grupo 140079">
                        <g id="Grupo_140078" data-name="Grupo 140078">
                          <g id="Grupo_140077" data-name="Grupo 140077">
                            <g id="Grupo_140076" data-name="Grupo 140076">
                              <g id="Grupo_140075" data-name="Grupo 140075">
                                <g id="Grupo_140074" data-name="Grupo 140074">
                                  <g id="Grupo_140073" data-name="Grupo 140073">
                                    <g id="Grupo_140072" data-name="Grupo 140072">
                                      <g id="Grupo_140071" data-name="Grupo 140071">
                                        <g id="Grupo_140070" data-name="Grupo 140070">
                                          <g id="Grupo_140069" data-name="Grupo 140069">
                                            <g id="Grupo_140068" data-name="Grupo 140068">
                                              <g id="Grupo_140067" data-name="Grupo 140067">
                                                <path id="Trazado_196512" data-name="Trazado 196512" d="M-132.046,1816.034c.049-.036.193.131.519.275a1.922,1.922,0,0,0,1.431.017c1.157-.435,2.117-2.276,2.152-4.246a6.243,6.243,0,0,0-.562-2.719,2.206,2.206,0,0,0-1.453-1.448.976.976,0,0,0-1.125.533c-.144.307-.072.524-.131.543-.03.028-.237-.181-.152-.632a1.208,1.208,0,0,1,.425-.689,1.451,1.451,0,0,1,1.056-.287,2.684,2.684,0,0,1,2.015,1.674,6.42,6.42,0,0,1,.692,3.038c-.05,2.2-1.164,4.272-2.748,4.743a2.061,2.061,0,0,1-1.754-.272C-132.024,1816.3-132.083,1816.054-132.046,1816.034Z" transform="translate(132.056 -1807.372)" fill="#f08259"/>
                                              </g>
                                            </g>
                                          </g>
                                        </g>
                                      </g>
                                    </g>
                                  </g>
                                </g>
                              </g>
                            </g>
                          </g>
                        </g>
                      </g>
                    </g>
                  </g>
                </g>
              </g>
            </g>
          </g>
          <g id="Grupo_140090" data-name="Grupo 140090" transform="translate(15.089 10.023)">
            <g id="Grupo_140089" data-name="Grupo 140089">
              <g id="Grupo_140088" data-name="Grupo 140088">
                <g id="Grupo_140087" data-name="Grupo 140087">
                  <g id="Grupo_140086" data-name="Grupo 140086">
                    <path id="Trazado_196513" data-name="Trazado 196513" d="M-130.2,1799.941a4.472,4.472,0,0,1-.664-.368c-.42-.266-1.069-.62-1.843-1.164a37.659,37.659,0,0,1-5.933-5.368,105.134,105.134,0,0,1-7.256-9.369,86.1,86.1,0,0,0-9.07-11.225,34.477,34.477,0,0,0-5.852-4.6,28.6,28.6,0,0,0-6.322-2.852,31.445,31.445,0,0,0-11.642-1.421,30.124,30.124,0,0,0-7.8,1.519c-.9.272-1.571.574-2.036.75a4.405,4.405,0,0,1-.717.253,4.152,4.152,0,0,1,.677-.345,18.777,18.777,0,0,1,2.011-.841,28.612,28.612,0,0,1,7.838-1.688A31.249,31.249,0,0,1-167,1764.56a28.724,28.724,0,0,1,6.436,2.872,34.486,34.486,0,0,1,5.95,4.659,83.613,83.613,0,0,1,9.1,11.315,112.676,112.676,0,0,0,7.143,9.4,40.612,40.612,0,0,0,5.784,5.445c.751.565,1.379.944,1.78,1.236A4.209,4.209,0,0,1-130.2,1799.941Z" transform="translate(189.332 -1763.126)" fill="#354952"/>
                  </g>
                </g>
              </g>
            </g>
          </g>
          <path id="Trazado_196514" data-name="Trazado 196514" d="M-133.579,1802.675c.173,2.984.312,6.135-1.076,8.786s-4.884,4.455-7.495,2.973c-2.129-1.21-2.766-3.92-3.127-6.331-1.042-6.958-1.519-13.992-2.622-20.94Z" transform="translate(205.036 -1752.746)" fill="#1c262b"/>
          <g id="Grupo_140091" data-name="Grupo 140091" transform="translate(15.8 12.985)">
            <path id="Trazado_196515" data-name="Trazado 196515" d="M-188.631,1766.555c.011.063.97-.183,2.732-.237a18.912,18.912,0,0,1,7.273,1.32,24.068,24.068,0,0,1,4.556,2.332,49.345,49.345,0,0,1,4.7,3.568,56.249,56.249,0,0,1,9.2,9.861c1.4,1.949,2.632,3.952,3.972,5.807a27.843,27.843,0,0,0,4.406,4.924,48.993,48.993,0,0,0,9.287,6.175c2.812,1.478,5.162,2.513,6.784,3.228l1.879.8a3.134,3.134,0,0,0,.673.238,3.067,3.067,0,0,0-.621-.351l-1.831-.9c-1.588-.78-3.907-1.874-6.677-3.393a50.626,50.626,0,0,1-9.119-6.218,27.744,27.744,0,0,1-4.29-4.85c-1.316-1.835-2.549-3.842-3.961-5.813a55.228,55.228,0,0,0-9.338-9.936,48.149,48.149,0,0,0-4.791-3.564,23.832,23.832,0,0,0-4.681-2.311,18.262,18.262,0,0,0-7.437-1.154,12.945,12.945,0,0,0-2.033.282A3.039,3.039,0,0,0-188.631,1766.555Z" transform="translate(188.631 -1766.045)" fill="#354952"/>
          </g>
        </g>
        <g id="Grupo_140096" data-name="Grupo 140096" transform="translate(0 100.89)">
          <path id="Trazado_196516" data-name="Trazado 196516" d="M-102.169,1895.865l32.619,34.743c5.383,5.734,9.288,10.97,16.917,12.971,5.343,1.4,13.731.67,16.5-2.852,3.8-4.83,5.6-14.739,1.447-21.122s-33.361-34.8-33.361-34.8l-34.121,11.059" transform="translate(241.006 -1852.187)" fill="#f8ae8b"/>
          <g id="Grupo_140093" data-name="Grupo 140093">
            <path id="Trazado_196517" data-name="Trazado 196517" d="M-56.841,1893.312s-33.9-40.2-46.783-40.2c0,0-8.147,14.258-8.417,22.031s26.076,44.173,26.076,44.173Z" transform="translate(240.859 -1852.657)" fill="#00defc"/>
            <path id="Trazado_196518" data-name="Trazado 196518" d="M-91.422,1906.4l-10.768-53.373-34.854-.36c-12.84,14.519-25.957,24.921-40.9,8.218l-36.7,14.432,9.539,51.831,110.7-.07C-90.1,1912.869-91.422,1906.4-91.422,1906.4Z" transform="translate(239.336 -1852.664)" fill="#00defc"/>
            <path id="Trazado_196519" data-name="Trazado 196519" d="M-238.975,1926.744c0-2.144,12.283-46.669,24.687-51.761l9.58,14.7,2.7,37.1Z" transform="translate(238.975 -1852.333)" fill="#00defc"/>
          </g>
          <g id="Grupo_140094" data-name="Grupo 140094" transform="translate(133.786 39.645)">
            <path id="Trazado_196520" data-name="Trazado 196520" d="M-86.037,1918.738a6.6,6.6,0,0,1-.906-1c-.558-.666-1.341-1.648-2.294-2.874-1.907-2.45-4.46-5.9-7.293-9.685s-5.464-7.17-7.435-9.561c-.983-1.2-1.787-2.161-2.35-2.819a6.533,6.533,0,0,1-.829-1.067,6.686,6.686,0,0,1,.982.929c.611.618,1.46,1.547,2.482,2.716,2.05,2.336,4.734,5.69,7.573,9.485s5.339,7.272,7.169,9.777c.863,1.19,1.586,2.187,2.158,2.974A6.6,6.6,0,0,1-86.037,1918.738Z" transform="translate(107.146 -1891.729)" fill="#1c262b"/>
          </g>
          <g id="Grupo_140095" data-name="Grupo 140095" transform="translate(27.266 41.139)">
            <path id="Trazado_196521" data-name="Trazado 196521" d="M-209.606,1927a6.528,6.528,0,0,1-.4-1.283c-.228-.833-.506-2.052-.8-3.569a74.188,74.188,0,0,1-1.282-12,74.17,74.17,0,0,1,.686-12.048c.219-1.53.435-2.761.622-3.6a6.583,6.583,0,0,1,.334-1.3,6.539,6.539,0,0,1-.131,1.335c-.124.851-.284,2.088-.455,3.616a90.214,90.214,0,0,0-.529,11.988,89.964,89.964,0,0,0,1.122,11.946c.246,1.518.467,2.744.633,3.59A6.543,6.543,0,0,1-209.606,1927Z" transform="translate(212.108 -1893.201)" fill="#1c262b"/>
          </g>
        </g>
        <g id="Grupo_140097" data-name="Grupo 140097" transform="translate(28.723 17.768)">
          <path id="Trazado_196522" data-name="Trazado 196522" d="M-210.671,1863.94c.015.134.383.243,1.09.223a8.046,8.046,0,0,0,2.992-.766,12.606,12.606,0,0,0,3.947-2.935,15.953,15.953,0,0,0,3.293-5.622,27.709,27.709,0,0,0,1.385-7.591c.153-2.731.1-5.56-.008-8.559-.235-5.987-.945-12.5-1.735-19.274s-1.522-13.178-1.816-19a109.573,109.573,0,0,1,.187-15.431c.77-8.755,2.613-13.995,2-14.222-.134-.051-.383.225-.735.8-.176.29-.379.656-.6,1.093s-.438.961-.689,1.549a49.4,49.4,0,0,0-2.889,10.4,84.92,84.92,0,0,0-1.1,15.94c.088,6.007.721,12.555,1.512,19.343s1.605,13.195,2.043,19.021c.21,2.908.387,5.7.388,8.228a27.428,27.428,0,0,1-.75,6.844A13.992,13.992,0,0,1-207.4,1862C-209.313,1863.353-210.722,1863.609-210.671,1863.94Z" transform="translate(210.672 -1770.758)" fill="#1c262b"/>
        </g>
        <g id="Grupo_140131" data-name="Grupo 140131" transform="translate(63.723 67.445)">
          <g id="Grupo_140113" data-name="Grupo 140113" transform="translate(1.508 3.005)">
            <g id="Grupo_140112" data-name="Grupo 140112">
              <g id="Grupo_140111" data-name="Grupo 140111">
                <g id="Grupo_140110" data-name="Grupo 140110">
                  <g id="Grupo_140109" data-name="Grupo 140109">
                    <g id="Grupo_140108" data-name="Grupo 140108">
                      <g id="Grupo_140107" data-name="Grupo 140107">
                        <g id="Grupo_140106" data-name="Grupo 140106">
                          <g id="Grupo_140105" data-name="Grupo 140105">
                            <g id="Grupo_140104" data-name="Grupo 140104">
                              <g id="Grupo_140103" data-name="Grupo 140103">
                                <g id="Grupo_140102" data-name="Grupo 140102">
                                  <g id="Grupo_140101" data-name="Grupo 140101">
                                    <g id="Grupo_140100" data-name="Grupo 140100">
                                      <g id="Grupo_140099" data-name="Grupo 140099">
                                        <g id="Grupo_140098" data-name="Grupo 140098">
                                          <path id="Trazado_196523" data-name="Trazado 196523" d="M-174.44,1824.718a5.061,5.061,0,0,1,4.448-2.037,4.619,4.619,0,0,1,3.246,1.573,2.89,2.89,0,0,1,.351,3.308,3.4,3.4,0,0,1-3.633,1.064,10.636,10.636,0,0,1-3.661-1.984,3.067,3.067,0,0,1-.831-.793.925.925,0,0,1-.037-1.035" transform="translate(174.699 -1822.669)" fill="#f08259"/>
                                        </g>
                                      </g>
                                    </g>
                                  </g>
                                </g>
                              </g>
                            </g>
                          </g>
                        </g>
                      </g>
                    </g>
                  </g>
                </g>
              </g>
            </g>
          </g>
          <g id="Grupo_140130" data-name="Grupo 140130">
            <g id="Grupo_140129" data-name="Grupo 140129">
              <g id="Grupo_140128" data-name="Grupo 140128">
                <g id="Grupo_140127" data-name="Grupo 140127">
                  <g id="Grupo_140126" data-name="Grupo 140126">
                    <g id="Grupo_140125" data-name="Grupo 140125">
                      <g id="Grupo_140124" data-name="Grupo 140124">
                        <g id="Grupo_140123" data-name="Grupo 140123">
                          <g id="Grupo_140122" data-name="Grupo 140122">
                            <g id="Grupo_140121" data-name="Grupo 140121">
                              <g id="Grupo_140120" data-name="Grupo 140120">
                                <g id="Grupo_140119" data-name="Grupo 140119">
                                  <g id="Grupo_140118" data-name="Grupo 140118">
                                    <g id="Grupo_140117" data-name="Grupo 140117">
                                      <g id="Grupo_140116" data-name="Grupo 140116">
                                        <g id="Grupo_140115" data-name="Grupo 140115">
                                          <g id="Grupo_140114" data-name="Grupo 140114">
                                            <path id="Trazado_196524" data-name="Trazado 196524" d="M-167.552,1819.709c-.456-.009-.343,3.012-2.861,5.256s-5.763,2.037-5.77,2.459c-.036.192.744.559,2.112.543a7.593,7.593,0,0,0,4.824-1.882,6.539,6.539,0,0,0,2.205-4.4C-166.976,1820.419-167.345,1819.683-167.552,1819.709Z" transform="translate(176.184 -1819.708)" fill="#1c262b"/>
                                          </g>
                                        </g>
                                      </g>
                                    </g>
                                  </g>
                                </g>
                              </g>
                            </g>
                          </g>
                        </g>
                      </g>
                    </g>
                  </g>
                </g>
              </g>
            </g>
          </g>
        </g>
        <g id="Grupo_140144" data-name="Grupo 140144" transform="translate(35.115 37.556)">
          <path id="Trazado_196525" data-name="Trazado 196525" d="M-115.411,1807.372c3.843,13.958.582,32.612,4.382,43.82s6.568,23.644,2.269,34.672l-5.919-13.031a16.714,16.714,0,0,1-1.278,16.134c-3.165,4.68-19.12,8.67-24.787,8.4-5.738-30.258-4.153-53.4,5.753-76.787l7.648,8.454,6.89-2.947Z" transform="translate(205.269 -1790.002)" fill="#1c262b"/>
          <g id="Grupo_140141" data-name="Grupo 140141">
            <g id="Grupo_140136" data-name="Grupo 140136">
              <g id="Grupo_140132" data-name="Grupo 140132" transform="translate(29.517 0.566)">
                <path id="Trazado_196526" data-name="Trazado 196526" d="M-175.278,1804.054a21.014,21.014,0,0,1,.49-3.173,12.449,12.449,0,0,1,1.469-3.445,12.978,12.978,0,0,1,3.326-3.659,12.967,12.967,0,0,1,5.474-2.4,13.116,13.116,0,0,1,6.812.573,12.213,12.213,0,0,1,3.277,1.757,14.465,14.465,0,0,1,1.468,1.243,14.485,14.485,0,0,1,1.268,1.493,12.881,12.881,0,0,1,2.518,7.607,12.879,12.879,0,0,1-2.517,7.609,14.471,14.471,0,0,1-1.268,1.494,14.586,14.586,0,0,1-1.469,1.243,12.217,12.217,0,0,1-3.277,1.757,13.121,13.121,0,0,1-6.813.574,12.97,12.97,0,0,1-5.474-2.4,13,13,0,0,1-3.326-3.659,12.46,12.46,0,0,1-1.468-3.444,21.032,21.032,0,0,1-.49-3.172.786.786,0,0,0-.011.212c0,.164.007.369.011.623a6.121,6.121,0,0,0,.083,1.012,9.189,9.189,0,0,0,.25,1.365,12.3,12.3,0,0,0,1.426,3.523,13.087,13.087,0,0,0,3.347,3.774,13.21,13.21,0,0,0,5.589,2.5,13.422,13.422,0,0,0,7.007-.552,12.546,12.546,0,0,0,3.383-1.8,15.074,15.074,0,0,0,1.517-1.277,15.054,15.054,0,0,0,1.311-1.537,13.247,13.247,0,0,0,2.6-7.85,13.25,13.25,0,0,0-2.605-7.848,14.916,14.916,0,0,0-1.311-1.536,14.883,14.883,0,0,0-1.517-1.277,12.54,12.54,0,0,0-3.382-1.8,13.418,13.418,0,0,0-7.006-.553,13.208,13.208,0,0,0-5.589,2.5,13.088,13.088,0,0,0-3.347,3.774,12.291,12.291,0,0,0-1.427,3.523,9.188,9.188,0,0,0-.25,1.365,6.123,6.123,0,0,0-.083,1.012c0,.254-.008.46-.011.624A.794.794,0,0,0-175.278,1804.054Z" transform="translate(175.289 -1790.814)" fill="#354952"/>
              </g>
              <g id="Grupo_140133" data-name="Grupo 140133">
                <path id="Trazado_196527" data-name="Trazado 196527" d="M-204.364,1803.5a21.009,21.009,0,0,1,.49-3.173,12.481,12.481,0,0,1,1.469-3.445,13.007,13.007,0,0,1,3.326-3.658,12.973,12.973,0,0,1,5.474-2.4,13.116,13.116,0,0,1,6.812.574,12.217,12.217,0,0,1,3.277,1.757,14.6,14.6,0,0,1,1.468,1.242,14.623,14.623,0,0,1,1.269,1.494,12.878,12.878,0,0,1,2.517,7.607,12.879,12.879,0,0,1-2.516,7.609,14.619,14.619,0,0,1-1.269,1.494,14.72,14.72,0,0,1-1.468,1.243,12.223,12.223,0,0,1-3.278,1.757,13.11,13.11,0,0,1-6.813.573,12.969,12.969,0,0,1-5.474-2.4,12.975,12.975,0,0,1-3.325-3.659,12.459,12.459,0,0,1-1.469-3.444,21.027,21.027,0,0,1-.49-3.172.823.823,0,0,0-.01.212c0,.164.006.37.011.623a5.9,5.9,0,0,0,.083,1.012,9.144,9.144,0,0,0,.249,1.364,12.325,12.325,0,0,0,1.427,3.524,13.067,13.067,0,0,0,3.346,3.773,13.2,13.2,0,0,0,5.59,2.5,13.42,13.42,0,0,0,7.006-.552,12.58,12.58,0,0,0,3.383-1.8,14.863,14.863,0,0,0,1.517-1.278,14.949,14.949,0,0,0,1.312-1.536,13.256,13.256,0,0,0,2.6-7.85,13.256,13.256,0,0,0-2.605-7.848,15.053,15.053,0,0,0-1.312-1.537,14.865,14.865,0,0,0-1.517-1.276,12.571,12.571,0,0,0-3.382-1.8,13.418,13.418,0,0,0-7.006-.552,13.21,13.21,0,0,0-5.589,2.5,13.1,13.1,0,0,0-3.347,3.773,12.327,12.327,0,0,0-1.427,3.525,9.154,9.154,0,0,0-.249,1.365,5.9,5.9,0,0,0-.083,1.012c-.005.254-.008.459-.011.623A.834.834,0,0,0-204.364,1803.5Z" transform="translate(204.374 -1790.256)" fill="#354952"/>
              </g>
              <g id="Grupo_140134" data-name="Grupo 140134" transform="translate(26.056 10.258)">
                <path id="Trazado_196528" data-name="Trazado 196528" d="M-178.687,1801.721c.055.032.21-.168.517-.4a2.593,2.593,0,0,1,1.348-.536,2.6,2.6,0,0,1,1.417.32c.339.183.524.356.572.317s-.068-.284-.409-.56a2.333,2.333,0,0,0-1.613-.489,2.334,2.334,0,0,0-1.516.734C-178.663,1801.431-178.731,1801.7-178.687,1801.721Z" transform="translate(178.699 -1800.365)" fill="#354952"/>
              </g>
              <g id="Grupo_140135" data-name="Grupo 140135" transform="translate(55.403 10.452)">
                <path id="Trazado_196529" data-name="Trazado 196529" d="M-149.781,1800.568a81.279,81.279,0,0,0,7.972,1.883,80.894,80.894,0,0,0,8.058,1.479,81.166,81.166,0,0,0-7.973-1.883A81.148,81.148,0,0,0-149.781,1800.568Z" transform="translate(149.781 -1800.556)" fill="#354952"/>
              </g>
            </g>
            <g id="Grupo_140137" data-name="Grupo 140137" transform="translate(49.351 4.448)">
              <path id="Trazado_196530" data-name="Trazado 196530" d="M-155.744,1813.162a2.062,2.062,0,0,0,.788-.333,6.9,6.9,0,0,0,1.728-1.558,11.321,11.321,0,0,0,1.741-2.973,11.909,11.909,0,0,0,.758-4.148,12.743,12.743,0,0,0-2.238-7.228,10.692,10.692,0,0,0-1.51-1.759,3.3,3.3,0,0,0-.672-.523,22.838,22.838,0,0,1,1.936,2.444,13.174,13.174,0,0,1,2.067,7.064,12.056,12.056,0,0,1-.7,4.013,11.8,11.8,0,0,1-1.614,2.928,7.843,7.843,0,0,1-1.586,1.605C-155.481,1813.007-155.759,1813.127-155.744,1813.162Z" transform="translate(155.745 -1794.639)" fill="#fff"/>
            </g>
            <g id="Grupo_140138" data-name="Grupo 140138" transform="translate(43.567 23.561)">
              <path id="Trazado_196531" data-name="Trazado 196531" d="M-161.444,1814.931a4.84,4.84,0,0,0,2.366-.344,4.814,4.814,0,0,0,2.121-1.1,12.665,12.665,0,0,0-2.249.7A12.571,12.571,0,0,0-161.444,1814.931Z" transform="translate(161.444 -1813.473)" fill="#fff"/>
            </g>
            <g id="Grupo_140139" data-name="Grupo 140139" transform="translate(12.836 1.761)">
              <path id="Trazado_196532" data-name="Trazado 196532" d="M-191.726,1792.051c0,.071.892.074,2.28.376a13.355,13.355,0,0,1,5,2.238,13.268,13.268,0,0,1,3.627,4.091c.7,1.23.966,2.078,1.034,2.055a1.694,1.694,0,0,0-.129-.614,9.943,9.943,0,0,0-.645-1.579,12.2,12.2,0,0,0-3.639-4.286,12.313,12.313,0,0,0-5.193-2.193,10.085,10.085,0,0,0-1.709-.147A1.716,1.716,0,0,0-191.726,1792.051Z" transform="translate(191.726 -1791.991)" fill="#fff"/>
            </g>
            <g id="Grupo_140140" data-name="Grupo 140140" transform="translate(24.096 12.523)">
              <path id="Trazado_196533" data-name="Trazado 196533" d="M-180.611,1806.863a3.611,3.611,0,0,0,.867-2.047,3.6,3.6,0,0,0-.1-2.219,18.686,18.686,0,0,0-.307,2.146A18.571,18.571,0,0,0-180.611,1806.863Z" transform="translate(180.631 -1802.597)" fill="#fff"/>
            </g>
          </g>
          <g id="Grupo_140142" data-name="Grupo 140142" transform="translate(53.609 33.373)">
            <path id="Trazado_196534" data-name="Trazado 196534" d="M-151.459,1900.624c.228.142,1.075-.662,2.258-2.378a35.077,35.077,0,0,0,3.871-7.9,62.4,62.4,0,0,0,2.949-12.66,151.929,151.929,0,0,0,1.133-15.68c.172-5.514.326-10.716.727-15.4a86.063,86.063,0,0,1,1.836-12.282c1.578-6.886,3.7-10.839,3.133-11.17-.231-.138-1.063.681-2.214,2.415a35.607,35.607,0,0,0-3.751,7.95,64.107,64.107,0,0,0-2.82,12.681c-.629,4.833-.9,10.152-1.074,15.674-.17,5.505-.348,10.7-.782,15.379a82.87,82.87,0,0,1-1.957,12.251C-149.818,1896.369-152.026,1900.282-151.459,1900.624Z" transform="translate(151.55 -1823.141)" fill="#1c262b"/>
          </g>
          <g id="Grupo_140143" data-name="Grupo 140143" transform="translate(70.783 28.517)">
            <path id="Trazado_196535" data-name="Trazado 196535" d="M-127.149,1819.5c-.023.029.249.219.614.668a4.291,4.291,0,0,1,.9,2.217,3.86,3.86,0,0,1-1.177,3.21,4.223,4.223,0,0,1-3.993,1.116,4.543,4.543,0,0,1-3.151-2.743,4.984,4.984,0,0,1,0-3.491,3.3,3.3,0,0,1,1.477-1.837,2.805,2.805,0,0,1,.86-.227c0-.011-.078-.041-.238-.049a1.562,1.562,0,0,0-.688.13,3.333,3.333,0,0,0-1.684,1.875,5.184,5.184,0,0,0-.085,3.733,4.881,4.881,0,0,0,3.411,3.011,4.5,4.5,0,0,0,2.436-.065,4.788,4.788,0,0,0,1.93-1.183,4.35,4.35,0,0,0,1.064-1.745,4.126,4.126,0,0,0,.134-1.769,4.2,4.2,0,0,0-1.067-2.287A2.027,2.027,0,0,0-127.149,1819.5Z" transform="translate(134.626 -1818.357)" fill="#d8d8d8"/>
          </g>
        </g>
        <g id="Grupo_140158" data-name="Grupo 140158" transform="translate(143.162 46.061)">
          <g id="Grupo_140156" data-name="Grupo 140156">
            <g id="Grupo_140151" data-name="Grupo 140151">
              <g id="Grupo_140150" data-name="Grupo 140150">
                <g id="Grupo_140149" data-name="Grupo 140149">
                  <g id="Grupo_140148" data-name="Grupo 140148">
                    <g id="Grupo_140147" data-name="Grupo 140147">
                      <g id="Grupo_140146" data-name="Grupo 140146">
                        <g id="Grupo_140145" data-name="Grupo 140145">
                          <path id="Trazado_196536" data-name="Trazado 196536" d="M-58.15,1849.856l-1.045-13.236-2.707-16.712-4.2-13.689s-.853-1.3-2.517-.069.7,8.689.7,8.689l.9,5.705s-.56,4.538-.935,4.2-2.327-7.959-2.327-7.959l-5.024-16.28a2.243,2.243,0,0,0-2.947-.846c-1.1.48-1.668,2.21-1.258,4.66s1.941,6.491,2.207,7.879,2.07,9.372,2.07,9.372L-82.9,1803.58s-1.7-5.939-4.145-4.8-.277,5.3.041,7.167,5.362,14.131,5.438,17.693-.681,1.859-.681,1.859-2.1-5.668-3.758-10.137-3.694-6.943-5.732-7.063,1.8,10.236,1.8,10.236l5,14.509-.329,4.826-3.8-3.9s-.7-5.573-4.465-7.523c-3.822-1.983-4.383.761-4.383.761l8.885,20.906c1.93,3.366,12.7,9.161,12.7,9.161l4.14,21.473,22.5-3.745Z" transform="translate(97.907 -1798.637)" fill="#f8ae8b"/>
                        </g>
                      </g>
                    </g>
                  </g>
                </g>
              </g>
            </g>
            <g id="Grupo_140155" data-name="Grupo 140155" transform="translate(8.837 35.327)">
              <g id="Grupo_140154" data-name="Grupo 140154">
                <g id="Grupo_140153" data-name="Grupo 140153">
                  <g id="Grupo_140152" data-name="Grupo 140152">
                    <path id="Trazado_196537" data-name="Trazado 196537" d="M-66.937,1842.379c-.1.119-1.268-.831-3.241-2.163-1.941-1.271-4.981-3.012-8.51-2.473a6.594,6.594,0,0,0-3.868,1.886l-.337.361-.37-.39c-1.631-1.719-3.34-3.187-4.379-4.266-1.085-1.07-1.642-1.809-1.545-1.883a12.482,12.482,0,0,1,1.927,1.465,61.741,61.741,0,0,1,4.727,4.12l-.705-.029a7.283,7.283,0,0,1,4.4-2.238,10.135,10.135,0,0,1,5.335.688,16.034,16.034,0,0,1,3.731,2.194A11.5,11.5,0,0,1-66.937,1842.379Z" transform="translate(89.199 -1833.448)" fill="#f08259"/>
                  </g>
                </g>
              </g>
            </g>
          </g>
          <path id="Trazado_196538" data-name="Trazado 196538" d="M-63.88,1925.967l-12.032-66.91,18.217-7.9,24.583,73.749Z" transform="translate(98.233 -1797.858)" fill="#f8ae8b"/>
          <g id="Grupo_140157" data-name="Grupo 140157" transform="translate(21.569 58.635)">
            <path id="Trazado_196539" data-name="Trazado 196539" d="M-62.171,1926.505a17.538,17.538,0,0,1-.806-2.7c-.463-1.753-1.1-4.3-1.836-7.451-1.489-6.306-3.395-15.051-5.357-24.737s-3.627-18.481-4.783-24.854c-.538-3.08-.983-5.627-1.32-7.556a17.4,17.4,0,0,1-.366-2.793,17.394,17.394,0,0,1,.7,2.729c.406,1.915.943,4.444,1.592,7.5,1.315,6.483,3.08,15.182,5.032,24.8,1.98,9.606,3.77,18.3,5.106,24.776.637,3.06,1.165,5.591,1.564,7.507A17.345,17.345,0,0,1-62.171,1926.505Z" transform="translate(76.653 -1856.415)" fill="#f08259"/>
          </g>
        </g>
      </g>
    </g>
  </g>
</svg>
