<?xml version="1.0" encoding="utf-8"?>
<!-- Generator: Adobe Illustrator 26.1.0, SVG Export Plug-In . SVG Version: 6.00 Build 0)  -->
<svg version="1.1" id="Capa_1" xmlns="http://www.w3.org/2000/svg" xmlns:xlink="http://www.w3.org/1999/xlink" x="0px" y="0px"
	 viewBox="0 0 1030 491.2" style="enable-background:new 0 0 1030 491.2;" xml:space="preserve">
<style type="text/css">
	.st0{fill-rule:evenodd;clip-rule:evenodd;fill:#AAD5F4;}
	.st1{fill-rule:evenodd;clip-rule:evenodd;fill:#062C51;}
	.st2{fill-rule:evenodd;clip-rule:evenodd;fill:#91D1E6;}
	.st3{fill-rule:evenodd;clip-rule:evenodd;fill:#003B82;}
	.st4{fill-rule:evenodd;clip-rule:evenodd;fill:#41B8DF;}
	.st5{fill:#D8D8D8;}
	.st6{fill-rule:evenodd;clip-rule:evenodd;fill:#0063AE;}
	.st7{fill:#91D1E6;}
	.st8{fill:#AAD5F4;}
	.st9{fill:#41B8DF;}
	.st10{fill:#0063AE;}
	.st11{fill:#062C51;}
	.st12{fill:#003B82;}
</style>
<g id="Grupo_140214" transform="translate(-285 -1877.966)">
	<path id="Trazado_192459" class="st0" d="M540.8,2298.7c-17.9,0-32.4,14.5-32.4,32.4l0,0c0,17.9,14.5,32.4,32.4,32.4c0,0,0,0,0,0
		c17.9,0,32.4-14.5,32.4-32.4c0,0,0,0,0,0C573.2,2313.2,558.7,2298.7,540.8,2298.7z"/>
	<path id="Trazado_192460" class="st1" d="M1060.2,2298.7c-17.9,0-32.4,14.5-32.4,32.4l0,0c0,17.9,14.5,32.4,32.4,32.4c0,0,0,0,0,0
		c17.9,0,32.4-14.5,32.4-32.4c0,0,0,0,0,0C1092.6,2313.2,1078.1,2298.7,1060.2,2298.7z"/>
	<path id="Trazado_192461" class="st2" d="M623.7,2208.8c-17.9,0-32.4,14.5-32.4,32.4c0,0,0,0,0,0c0,17.9,14.5,32.4,32.4,32.4
		c0,0,0,0,0,0c17.9,0,32.4-14.5,32.4-32.4l0,0C656.1,2223.3,641.6,2208.8,623.7,2208.8C623.7,2208.8,623.7,2208.8,623.7,2208.8z"/>
	<path id="Trazado_192462" class="st3" d="M972.9,2208.8c-17.9,0-32.4,14.5-32.4,32.4l0,0c0,17.9,14.5,32.4,32.4,32.4c0,0,0,0,0,0
		c17.9,0,32.4-14.5,32.4-32.4l0,0C1005.3,2223.3,990.8,2208.8,972.9,2208.8C972.9,2208.8,972.9,2208.8,972.9,2208.8z"/>
	<path id="Trazado_192463" class="st4" d="M733.9,2157.3c-17.9,0-32.4,14.5-32.4,32.4c0,17.9,14.5,32.4,32.4,32.4c0,0,0,0,0,0
		c17.9,0,32.4-14.5,32.4-32.4C766.3,2171.8,751.8,2157.3,733.9,2157.3z"/>
	<path id="Trazado_192464" class="st5" d="M1221.1,2107.2c51.9,0,93.9,42.1,93.9,93.9c0,51.9-42,93.9-93.9,93.9
		c-27.5,0-53.7-12-71.5-33l-59.6,45.3c5.4,6.7,8.3,15.1,8.3,23.8c0,21-17,38.1-38.1,38.1c0,0,0,0,0,0c-21,0-38.1-17-38.1-38.1
		c0-11.2,5-21.9,13.6-29.1c-9.9-13.3-21-25.6-33-37c-7.2,9.1-18.2,14.4-29.8,14.4c-21,0-38.1-17-38.1-38.1c0-7.5,2.2-14.8,6.3-21
		c-13.7-7.4-28-13.8-42.7-18.9c-5.1,15.8-19.7,26.4-36.3,26.4c-21,0-38.1-17-38.1-38.1c0,0,0,0,0,0c0-1.3,0.1-2.7,0.2-4
		c-7.6-0.6-15.2-0.9-22.9-0.9c-9.9,0-19.8,0.5-29.6,1.5c0.1,1.1,0.2,2.3,0.2,3.4c0,21-17,38.1-38.1,38.1c-15.7,0-29.8-9.6-35.5-24.3
		c-14.3,5.4-28.1,11.8-41.3,19.3c3.1,5.6,4.8,12,4.8,18.4c0,21-17,38.1-38.1,38.1c-10.1,0-19.8-4-27-11.2
		c-11,10.8-21.2,22.4-30.4,34.8c8,7.2,12.5,17.5,12.5,28.2c0,21-17,38.1-38.1,38.1c-21,0-38.1-17-38.1-38.1c0,0,0,0,0,0
		c0-8.1,2.6-16,7.4-22.5l-60.3-45.8c-17.8,20.5-43.7,32.3-70.9,32.3c-51.9,0-93.9-42.1-93.9-93.9c0-51.9,42.1-93.9,93.9-93.9
		c51.9,0,93.9,42.1,93.9,93.9c0,20.7-6.8,40.9-19.5,57.3l60.4,45.9c7.1-7.2,16.9-11.3,27-11.3c7.5,0,14.8,2.2,21.1,6.4
		c9.4-12.7,19.8-24.6,31.2-35.6c-4.8-6.5-7.4-14.4-7.4-22.6c0-12.3,5.9-23.8,15.9-31l-43.9-72c-13.6,7.3-28.8,11.1-44.3,11.1
		c-51.9,0-93.9-42.1-93.9-93.9l0,0c0-51.9,42.1-93.9,93.9-93.9c51.9,0,93.9,42.1,93.9,93.9l0,0c0,32.6-16.9,62.9-44.7,80l43.8,71.8
		c5.4-2.8,11.3-4.2,17.3-4.2c11.8,0,23,5.5,30.2,14.9c13.7-7.8,28-14.5,42.8-20c-0.6-2.7-0.9-5.6-0.9-8.4
		c0-16.9,11.1-31.7,27.3-36.5l-18.9-88.1c-4.1,0.5-8.2,0.8-12.3,0.8c-51.9,0-93.9-42.1-93.9-93.9l0,0c0-51.9,42.1-93.9,93.9-93.9
		c51.9,0,93.9,42.1,93.9,93.9c0,45-31.9,83.7-76.1,92.2l18.9,87.9c1.7-0.2,3.5-0.4,5.2-0.4c17.6,0,32.8,12,37,29.1
		c10.1-1,20.3-1.6,30.5-1.6c8,0,16,0.3,24,1c4.4-16.8,19.5-28.5,36.8-28.5c1.6,0,3.1,0.1,4.7,0.3l18.7-87.2
		c-45.8-7.1-79.5-46.5-79.5-92.8c0-51.9,42.1-93.9,93.9-93.9c51.9,0,93.9,42.1,93.9,93.9s-42.1,93.9-93.9,93.9c-3,0-5.9-0.1-8.8-0.4
		l-18.8,87.6c16.5,4.6,27.8,19.6,27.8,36.7c0,2-0.2,4.1-0.5,6.1c15.5,5.4,30.5,12.1,44.9,19.9c7.2-8,17.5-12.6,28.3-12.6
		c6.6,0,13,1.7,18.7,4.9l42.8-70.2c-30.1-16.5-48.9-48.1-48.9-82.4c0-51.9,42.1-93.9,93.9-93.9c51.9,0,93.9,42.1,93.9,93.9
		c0,51.9-42.1,93.9-93.9,93.9c0,0,0,0,0,0c-13.8,0-27.5-3-40-8.9l-43.2,70.7c9.3,7.2,14.7,18.3,14.7,30c0,6.7-1.7,13.2-5,19
		c12.5,11.8,24.1,24.7,34.4,38.4c6-3.7,12.9-5.6,19.9-5.6c9.6,0,18.9,3.6,25.9,10.2l60-45.5c-12.3-16.3-18.9-36.1-18.9-56.5
		C1127.2,2149.3,1169.2,2107.2,1221.1,2107.2L1221.1,2107.2z M1060.2,2298.7c-17.9,0-32.4,14.5-32.4,32.4l0,0
		c0,17.9,14.5,32.4,32.4,32.4c0,0,0,0,0,0c17.9,0,32.4-14.5,32.4-32.4C1092.6,2313.2,1078.1,2298.7,1060.2,2298.7z M972.9,2208.8
		c-17.9,0-32.4,14.5-32.4,32.4c0,17.9,14.5,32.4,32.4,32.4c0,0,0,0,0,0c17.9,0,32.4-14.5,32.4-32.4l0,0
		C1005.3,2223.3,990.8,2208.8,972.9,2208.8C972.9,2208.8,972.9,2208.8,972.9,2208.8L972.9,2208.8z M862.2,2157.3
		c-17.9,0-32.4,14.5-32.4,32.4l0,0c0,17.9,14.5,32.4,32.4,32.4c0,0,0,0,0,0c17.9,0,32.4-14.5,32.4-32.4
		C894.6,2171.8,880.1,2157.3,862.2,2157.3z M540.8,2298.7c-17.9,0-32.4,14.5-32.4,32.4l0,0c0,17.9,14.5,32.4,32.4,32.4c0,0,0,0,0,0
		c17.9,0,32.4-14.5,32.4-32.4c0,0,0,0,0,0C573.2,2313.2,558.7,2298.7,540.8,2298.7z M378.9,2112.9c-48.8,0-88.3,39.5-88.3,88.3
		c0,48.8,39.5,88.3,88.3,88.3c0,0,0,0,0,0c48.8,0,88.3-39.5,88.3-88.3C467.2,2152.4,427.7,2112.9,378.9,2112.9z M623.7,2208.8
		c-17.9,0-32.4,14.5-32.4,32.4c0,0,0,0,0,0c0,17.9,14.5,32.4,32.4,32.4c0,0,0,0,0,0c17.9,0,32.4-14.5,32.4-32.4l0,0
		C656.1,2223.3,641.6,2208.8,623.7,2208.8C623.7,2208.8,623.7,2208.8,623.7,2208.8L623.7,2208.8z M513.3,1967.2
		c-48.8,0-88.3,39.5-88.3,88.3c0,48.8,39.5,88.3,88.3,88.3c0,0,0,0,0,0c48.8,0,88.3-39.5,88.3-88.3
		C601.6,2006.7,562.1,1967.2,513.3,1967.2z M733.9,2157.3c-17.9,0-32.4,14.5-32.4,32.4c0,17.9,14.5,32.4,32.4,32.4c0,0,0,0,0,0
		c17.9,0,32.4-14.5,32.4-32.4C766.3,2171.8,751.8,2157.3,733.9,2157.3z M691.9,1883.6c-48.8,0-88.3,39.5-88.3,88.3
		c0,48.8,39.5,88.3,88.3,88.3c0,0,0,0,0,0c48.8,0,88.3-39.5,88.3-88.3c0,0,0,0,0,0C780.2,1923.1,740.7,1883.6,691.9,1883.6z
		 M900,1883.6c-48.7,0-88.3,39.5-88.3,88.3s39.5,88.3,88.3,88.3c48.8,0,88.3-39.5,88.3-88.3S948.8,1883.6,900,1883.6z
		 M1037.4,2133.1L1037.4,2133.1l0.2,0.1c12.9,7,27.3,10.6,41.9,10.6c48.8,0,88.3-39.5,88.3-88.3c0-48.8-39.5-88.3-88.3-88.3
		c-48.7,0-88.3,39.5-88.3,88.3C991.2,2087.9,1009,2117.6,1037.4,2133.1L1037.4,2133.1z M1309.4,2201.1c0-48.7-39.5-88.3-88.3-88.3
		c-48.8,0-88.3,39.5-88.3,88.3c0,48.8,39.5,88.3,88.3,88.3C1269.8,2289.4,1309.4,2249.9,1309.4,2201.1z"/>
	<path id="Trazado_192465" class="st6" d="M862.2,2157.3c-17.9,0-32.4,14.5-32.4,32.4l0,0c0,17.9,14.5,32.4,32.4,32.4c0,0,0,0,0,0
		c17.9,0,32.4-14.5,32.4-32.4C894.6,2171.8,880.1,2157.3,862.2,2157.3C862.2,2157.3,862.2,2157.3,862.2,2157.3z"/>
	<path id="Trazado_192472" class="st7" d="M591.3,2056.6c0,43.1-34.9,78-78,78l0,0c-43.1,0-78-34.9-78-78l0,0c0-43.1,34.9-78,78-78
		S591.3,2013.6,591.3,2056.6z"/>
	<path id="Trazado_192473" class="st8" d="M456.5,2202.8c0,43-34.8,77.8-77.8,77.8h0c-43,0-77.8-34.8-77.8-77.8l0,0
		c0-43,34.8-77.8,77.8-77.8h0C421.7,2125,456.5,2159.9,456.5,2202.8L456.5,2202.8z"/>
	<path id="Trazado_192474" class="st9" d="M770.2,1971.3c0,43-34.8,77.8-77.8,77.8c0,0,0,0,0,0c-43,0-77.8-34.8-77.8-77.8l0,0
		c0-43,34.8-77.8,77.8-77.8c0,0,0,0,0,0C735.4,1893.5,770.2,1928.3,770.2,1971.3L770.2,1971.3z"/>
	<path id="Trazado_192475" class="st10" d="M977.3,1970.9c0,43.1-34.9,78-78,78l0,0c-43.1,0-78-34.9-78-78l0,0c0-43.1,34.9-78,78-78
		S977.3,1927.8,977.3,1970.9z"/>
	<path id="Trazado_192476" class="st11" d="M1298.1,2202.3c0,42.4-34.4,76.8-76.8,76.8c0,0,0,0,0,0c-42.4,0-76.8-34.4-76.8-76.8
		c0-42.4,34.4-76.8,76.8-76.8C1263.7,2125.5,1298.1,2159.9,1298.1,2202.3z"/>
	<path id="Trazado_192477" class="st12" d="M1003.8,2050.2c-2.7,42.3,29.4,78.8,71.8,81.5c42.3,2.7,78.8-29.4,81.5-71.8
		c2.7-42.3-29.4-78.8-71.8-81.5c0,0,0,0,0,0C1043,1975.8,1006.5,2007.9,1003.8,2050.2z"/>
	<g id="Grupo_133172" transform="translate(1168.954 2155.841)">
		<path id="Trazado_192478" class="st8" d="M48.5,30.5l-0.6-6.2c-0.1-0.9-0.9-1.6-1.9-1.5c0,0,0,0,0,0c-0.9,0.1-1.6,0.9-1.5,1.9
			l0.6,6.2c0.2,2.5,2.2,4.6,4.7,4.9l14,2c0.6,0.1,1,0.6,1,1.2c0,0.6-0.5,1.2-1.2,1.2h-16c-2.6,0-4.9-1.6-5.8-4.1l-2.4-6.9
			c-0.3-0.9-1.3-1.4-2.2-1.1c0,0,0,0,0,0c-0.9,0.3-1.4,1.3-1.1,2.2c0,0,0,0,0,0l2.4,6.9c1.3,3.8,5,6.4,9,6.4h16
			c2.5,0,4.6-2.1,4.6-4.6c0-2.3-1.7-4.2-4-4.6l-14-2C49.3,32.2,48.6,31.4,48.5,30.5z"/>
		<path id="Trazado_192479" class="st8" d="M99.5,87.2h-6.4v-39H97c1,0,1.7-0.8,1.7-1.7c0-1-0.8-1.7-1.7-1.7H82.3V29.2
			c0-0.3-0.1-0.5-0.2-0.8l-3.3-6.6L81.9,4c0.2-0.9-0.5-1.8-1.4-2c0,0,0,0,0,0c-0.9-0.2-1.8,0.5-2,1.4l-6.3,35.8
			c-0.2,0.9,0.5,1.8,1.4,2c0,0,0,0,0,0c0.1,0,0.2,0,0.3,0c0.8,0,1.5-0.6,1.7-1.4l2.2-12.3l1.1,2.1v15.1H52.2c-1,0-1.7,0.8-1.7,1.7
			c0,1,0.8,1.7,1.7,1.7h16.1v39h-11c0.2-0.5,0.4-1,0.5-1.5l4.7-22.8c0.9-4.3-1.3-8.7-5.3-10.5l-17.5-8.3c-0.9-0.4-1.9,0-2.3,0.8
			c-0.4,0.9,0,1.9,0.8,2.3l17.5,8.3c2.5,1.2,3.9,4,3.4,6.7L54.4,85c-0.2,1.1-1.2,2-2.4,2c-0.7,0-1.4-0.3-1.9-0.9
			c-0.5-0.5-0.7-1.3-0.6-2l3.1-19.4c0.2-1.3-0.1-2.6-0.9-3.6c-0.8-1-2-1.7-3.2-1.8l-13-1.4c-2.6-0.3-5-1.6-6.5-3.7
			c-1.6-2.1-2.2-4.7-1.8-7.3l3-17.2c0.7-4.3,2.6-8.3,5.5-11.7c1.9,1.7,4.3,2.6,6.9,2.6c5.7,0,10.3-4.6,10.3-10.3
			C52.9,4.6,48.2,0,42.5,0c-5.7,0-10.3,4.6-10.3,10.3c0,1.8,0.4,3.5,1.3,5c-0.1,0-0.1,0.1-0.2,0.2c-3.4,3.8-5.7,8.6-6.5,13.6
			l-3,17.2c-0.6,3.5,0.3,7.1,2.4,9.9c2.1,2.8,5.4,4.7,8.9,5l13,1.4c0.3,0,0.7,0.2,0.9,0.5c0.2,0.3,0.3,0.6,0.2,1l-3.1,19.4
			c0,0,0,0,0,0.1l-10.9-4.3V67.9c0.3,0,0.7,0,1,0h8.4c1,0,1.7-0.8,1.7-1.7c0-1-0.8-1.7-1.7-1.7c0,0,0,0,0,0h-8.4
			c-9.4,0-17-7.6-17-17V30c0-5.9-1.9-11.6-5.5-16.2L11.6,11c-0.6-0.8-1.7-0.9-2.4-0.3c0,0,0,0,0,0c-0.8,0.6-0.9,1.7-0.3,2.4l2.1,2.7
			c3.1,4.1,4.8,9,4.8,14.2v17.4c0,9.6,6.7,17.9,16.1,20v11.9l-14.3,5.3c-0.9,0.3-1.3,1.3-1,2.2c0,0.1,0.1,0.2,0.2,0.3H1.7
			c-0.9,0-1.7,0.8-1.7,1.7c0,0,0,0,0,0c0,1,0.8,1.7,1.7,1.7h97.8c1,0,1.7-0.8,1.7-1.7C101.2,87.9,100.4,87.2,99.5,87.2z M42.5,3.4
			c3.8,0,6.9,3.1,6.9,6.9c0,3.8-3.1,6.9-6.9,6.9c-3.8,0-6.9-3.1-6.9-6.9C35.6,6.5,38.7,3.4,42.5,3.4z M33.5,82.3l12.3,4.8H20.5
			L33.5,82.3z M71.7,87.2v-39h17.9v39H71.7z"/>
	</g>
	<g id="Grupo_133173" transform="translate(1029.97 1993.059)">
		<path id="Trazado_192480" class="st7" d="M22.5,64.3c1,0,1.7-0.8,1.7-1.7c0-1-0.8-1.7-1.7-1.7c0,0,0,0,0,0
			c-10.3,0-18.7-8.4-18.7-18.7c0-10.3,8.4-18.7,18.7-18.7c2.6,0,5.2,0.5,7.6,1.6c1.2,0.6,2.3,1.5,3.1,2.6c0.3,0.5,0.9,0.8,1.5,0.8
			c0.3,0,0.6-0.1,0.9-0.2c0.8-0.5,1.1-1.5,0.6-2.4c-1-1.4-2.2-2.6-3.7-3.5c-0.1-0.6-0.1-1.2-0.1-1.8c0-9.5,7.7-17.2,17.2-17.2
			c9.5,0,17.2,7.7,17.2,17.2c0,0.9-0.1,1.9-0.2,2.8c-0.9,0.7-1.7,1.5-2.3,2.4c-0.5,0.8-0.2,1.9,0.6,2.4c0.3,0.2,0.6,0.2,0.9,0.2
			c0.6,0,1.2-0.3,1.5-0.8c0.8-1.1,1.9-2,3.1-2.6c2.4-1.1,5-1.6,7.6-1.6c10.3,0,18.6,8.4,18.7,18.7c0,10.3-8.4,18.7-18.7,18.7
			c-1,0-1.7,0.8-1.7,1.7c0,1,0.8,1.7,1.7,1.7c12.2,0,22.1-9.9,22.1-22.1C100,29.9,90.1,20,77.9,20c-2.6,0-5.3,0.5-7.7,1.4
			c0-0.3,0-0.5,0-0.8C70.2,9.3,61,0,49.6,0C38.2,0,28.9,9.3,28.9,20.7c0,0.1,0,0.2,0,0.3c-2.1-0.6-4.2-0.9-6.4-0.9
			C10.3,20,0.4,29.9,0.4,42.1C0.4,54.3,10.3,64.2,22.5,64.3z"/>
		<path id="Trazado_192481" class="st7" d="M75,76.3c-0.5-1.4-0.9-2.8-1.2-4.3c-0.2-0.9-1.1-1.5-2.1-1.3c0,0,0,0,0,0
			c-0.9,0.2-1.5,1.1-1.3,2.1c0.4,1.6,0.8,3.1,1.3,4.6c0.2,0.7,0.9,1.2,1.6,1.2c0.2,0,0.4,0,0.6-0.1C74.8,78.2,75.3,77.2,75,76.3z"/>
		<path id="Trazado_192482" class="st7" d="M71,62L71,62c-1,0-1.7,0.8-1.8,1.7c0,0,0,0.8,0.1,2c0.1,0.9,0.8,1.6,1.7,1.6
			c0,0,0.1,0,0.1,0c0.9-0.1,1.7-0.9,1.6-1.8c-0.1-1-0.1-1.7-0.1-1.7C72.7,62.8,72,62.1,71,62z"/>
		<path id="Trazado_192483" class="st7" d="M49.7,77.2c1,0,1.7-0.8,1.7-1.7v-0.2c0-1-0.8-1.7-1.7-1.7c0,0,0,0,0,0
			c-1,0-1.7,0.8-1.7,1.7v0.2C48,76.4,48.7,77.2,49.7,77.2z"/>
		<path id="Trazado_192484" class="st7" d="M51.4,99.5V81.2c0-1-0.8-1.7-1.7-1.7S48,80.2,48,81.2v18.3c-2.1,0.7-3.4,2.7-3.4,4.9
			c0,2.8,2.3,5.2,5.2,5.2c2.9,0,5.2-2.3,5.2-5.2C54.8,102.2,53.5,100.2,51.4,99.5z M49.7,106.1c-0.9,0-1.7-0.8-1.7-1.7
			c0-0.9,0.8-1.7,1.7-1.7c0.9,0,1.7,0.8,1.7,1.7C51.4,105.3,50.6,106.1,49.7,106.1L49.7,106.1z"/>
		<path id="Trazado_192485" class="st7" d="M94.1,93.9c-1.5,0-2.8,0.6-3.8,1.7c-5.6-3.4-10.2-8.3-13.1-14.2
			c-0.4-0.8-1.5-1.2-2.3-0.8c-0.8,0.4-1.2,1.5-0.8,2.3c0,0,0,0,0,0c3.3,6.6,8.5,12.1,14.9,15.8c0,0.1,0,0.2,0,0.3
			c0,2.9,2.3,5.2,5.2,5.2c2.9,0,5.2-2.3,5.2-5.2C99.3,96.3,97,93.9,94.1,93.9z M94.1,100.8c-0.9,0-1.7-0.8-1.7-1.7
			c0-0.9,0.8-1.7,1.7-1.7c0.9,0,1.7,0.8,1.7,1.7C95.8,100.1,95.1,100.8,94.1,100.8C94.1,100.8,94.1,100.8,94.1,100.8L94.1,100.8z"/>
		<path id="Trazado_192486" class="st7" d="M65.9,91.5c-2-7-3.3-14.2-3.7-21.5c0-0.9-0.8-1.7-1.8-1.6c0,0,0,0,0,0
			c-1,0-1.7,0.8-1.6,1.8c0.4,7.6,1.7,15.2,3.9,22.5c-1,0.9-1.6,2.2-1.6,3.5c0,2.6,2.1,4.7,4.7,4.7c2.6,0,4.7-2.1,4.7-4.7
			C70.4,93.7,68.4,91.6,65.9,91.5z M65.7,97.4c-0.7,0-1.2-0.5-1.2-1.2c0-0.7,0.5-1.2,1.2-1.2c0.7,0,1.2,0.5,1.2,1.2
			C67,96.8,66.4,97.4,65.7,97.4C65.7,97.4,65.7,97.4,65.7,97.4L65.7,97.4z"/>
		<path id="Trazado_192487" class="st7" d="M24.4,80.7c-0.8-0.4-1.9-0.1-2.3,0.8C19.2,87.4,14.6,92.3,9,95.6c-1-1.1-2.4-1.7-3.8-1.7
			c-2.9,0-5.2,2.3-5.2,5.2c0,2.9,2.3,5.2,5.2,5.2c2.8,0,5.2-2.3,5.2-5.2c0-0.1,0-0.2,0-0.3c6.4-3.7,11.6-9.2,14.9-15.8
			C25.6,82.2,25.3,81.1,24.4,80.7z M5.2,100.8c-0.9,0-1.7-0.8-1.7-1.7c0-0.9,0.8-1.7,1.7-1.7c0.9,0,1.7,0.8,1.7,1.7
			C6.9,100.1,6.1,100.8,5.2,100.8L5.2,100.8z"/>
		<path id="Trazado_192488" class="st7" d="M27.6,70.7c-0.9-0.2-1.9,0.4-2.1,1.3c-0.3,1.4-0.7,2.9-1.2,4.3c-0.3,0.9,0.2,1.9,1.1,2.2
			c0,0,0,0,0,0c0.2,0.1,0.4,0.1,0.6,0.1c0.7,0,1.4-0.5,1.6-1.2c0.5-1.5,1-3.1,1.3-4.6C29.1,71.8,28.5,70.9,27.6,70.7z"/>
		<path id="Trazado_192489" class="st7" d="M28.1,67.3c0,0,0.1,0,0.1,0c0.9,0,1.7-0.7,1.7-1.6c0.1-1.2,0.1-1.9,0.1-2
			c0-0.9-0.8-1.7-1.7-1.7h0c-1,0-1.7,0.8-1.7,1.7c0,0,0,0,0,0c0,0,0,0.6-0.1,1.7C26.4,66.4,27.1,67.2,28.1,67.3
			C28.1,67.3,28.1,67.3,28.1,67.3z"/>
		<path id="Trazado_192490" class="st7" d="M38.8,68.3c-0.9,0-1.8,0.7-1.8,1.6c-0.4,7.3-1.7,14.5-3.7,21.5c-2.5,0.1-4.5,2.2-4.5,4.7
			c0,2.6,2.1,4.7,4.7,4.7c2.6,0,4.7-2.1,4.7-4.7c0-1.4-0.6-2.6-1.6-3.5c2.1-7.3,3.4-14.9,3.9-22.5C40.5,69.2,39.8,68.4,38.8,68.3z
			 M33.5,97.4c-0.7,0-1.2-0.5-1.2-1.2c0-0.7,0.5-1.2,1.2-1.2c0.7,0,1.2,0.5,1.2,1.2C34.7,96.8,34.2,97.4,33.5,97.4z"/>
	</g>
	<path id="Trazado_192491" class="st12" d="M565.2,2011.8h-26.2c-0.9,0-1.7,0.8-1.7,1.7v12.9c0,0.9,0.8,1.7,1.7,1.7h11.2v7.6h-33.8
		v-7.6h11.6c0.9,0,1.7-0.8,1.7-1.7c0,0,0,0,0,0v-12.9c0-0.9-0.8-1.7-1.7-1.7c0,0,0,0,0,0h-26.2c-0.9,0-1.7,0.8-1.7,1.7v12.9
		c0,0.9,0.8,1.7,1.7,1.7h11.3v7.6h-34.7v-7.6h12.4c0.9,0,1.7-0.8,1.7-1.7c0,0,0,0,0,0v-12.9c0-0.9-0.8-1.7-1.7-1.7c0,0,0,0,0,0
		h-26.2c-0.9,0-1.7,0.8-1.7,1.7v12.9c0,0.9,0.8,1.7,1.7,1.7h10.5v9.2c0,0.9,0.8,1.7,1.7,1.7h17v5.6H482c-0.9,0-1.7,0.8-1.7,1.7
		c0,0,0,0,0,0v12.9c0,0.9,0.8,1.7,1.7,1.7c0,0,0,0,0,0h11.5v7.6c0,0.9,0.8,1.7,1.7,1.7h17.5v6.7h-11.5c-0.9,0-1.7,0.8-1.7,1.7
		c0,0,0,0,0,0v12.9c0,0.9,0.8,1.7,1.7,1.7h11.5v6.3h-11.1c-0.9,0-1.7,0.8-1.7,1.7v12.9c0,0.9,0.8,1.7,1.7,1.7h26.2
		c0.9,0,1.7-0.8,1.7-1.7c0,0,0,0,0,0V2101c0-0.9-0.8-1.7-1.7-1.7c0,0,0,0,0,0h-11.8v-6.3h11.4c0.9,0,1.7-0.8,1.7-1.7v-12.9
		c0-0.9-0.8-1.7-1.7-1.7h-11.4v-6.7h16.4c0.9,0,1.7-0.8,1.7-1.7v-7.6h11.4c0.9,0,1.7-0.8,1.7-1.7v-12.9c0-0.9-0.8-1.7-1.7-1.7h-11.4
		v-5.6h17.7c0.9,0,1.7-0.8,1.7-1.7c0,0,0,0,0,0v-9.2h11.7c0.9,0,1.7-0.8,1.7-1.7c0,0,0,0,0,0v-12.9
		C566.9,2012.6,566.1,2011.8,565.2,2011.8z M503.3,2015.2h22.8v9.5h-22.8V2015.2z M466,2015.2h22.8v9.5H466V2015.2z M526.2,2112.2
		h-22.9v-9.5h22.9V2112.2z M525.8,2089.7h-22.8v-9.5h22.8V2089.7z M483.7,2048h22.8v9.5h-22.8V2048z M543.8,2057.5H521v-9.5h22.8
		V2057.5z M530.7,2044.7h-11.4c-0.9,0-1.7,0.8-1.7,1.7c0,0,0,0,0,0v12.9c0,0.9,0.8,1.7,1.7,1.7c0,0,0,0,0,0h11.4v5.9h-33.8v-5.9
		h11.3c0.9,0,1.7-0.8,1.7-1.7v-12.9c0-0.9-0.8-1.7-1.7-1.7h-11.3v-5.6h33.8V2044.7z M563.5,2024.7h-22.8v-9.5h22.8V2024.7z"/>
	<g id="Grupo_133174" transform="translate(646.717 1923.345)">
		<path id="Trazado_192492" class="st10" d="M87.3,21.8c-2.3,0-4.1,1.8-4.1,4.1c0,0.2,0,0.4,0,0.6l-10,6.4V9.3C73.1,4.2,69,0,63.8,0
			H26.3C21.2,0,17,4.2,17,9.3v1.1c0,0.1-0.1,0.3-0.1,0.4c0,0.1,0,0.3,0.1,0.4v39.2L6.5,56.5C5.8,56,5,55.7,4.1,55.7
			c-2.3,0-4.1,1.8-4.1,4.1C0,62.1,1.8,64,4.1,64c2.3,0,4.1-1.8,4.1-4.1c0-0.1,0-0.3,0-0.4l8.8-5.2v24.9c0,0.1-0.1,0.3-0.1,0.4
			c0,0.1,0,0.3,0.1,0.4v7.8c0,5.1,4.2,9.3,9.3,9.3h37.6c5.1,0,9.3-4.2,9.3-9.3V44.5c0-0.9-0.8-1.7-1.7-1.7c0,0,0,0,0,0
			c-0.9,0-1.7,0.8-1.7,1.7c0,0,0,0,0,0v33.3H20.4V12.5h49.4v22.3c0,0.1,0,0.2,0,0.3l-4.2,2.7c-0.7-0.4-1.5-0.7-2.3-0.7
			c-2.3,0-4.1,1.8-4.1,4.1c0,0.4,0.1,0.8,0.2,1.1L45.8,53.8c-0.6-0.3-1.2-0.5-1.9-0.5c-0.9,0-1.8,0.3-2.5,0.9L27.2,47
			c-0.8-0.4-1.9-0.1-2.3,0.8c-0.4,0.8-0.1,1.9,0.8,2.3c0,0,0,0,0,0l14.2,7.1c0,0.1,0,0.2,0,0.3c0,2.3,1.8,4.1,4.1,4.1
			c2.3,0,4.1-1.8,4.1-4.1c0-0.3,0-0.7-0.1-1l13.6-11.5c0.6,0.3,1.2,0.4,1.8,0.4c2.3,0,4.1-1.8,4.1-4.1c0-0.2,0-0.4,0-0.6L85,29.4
			c0.7,0.4,1.5,0.7,2.3,0.7c2.3,0,4.1-1.8,4.1-4.1C91.4,23.7,89.5,21.8,87.3,21.8z M26.3,3.4h37.6c3.2,0,5.8,2.5,5.9,5.7H20.4
			C20.5,5.9,23.1,3.4,26.3,3.4L26.3,3.4z M69.7,81.3v6.6c0,3.3-2.6,5.9-5.9,5.9H26.3c-3.3,0-5.9-2.6-5.9-5.9v-6.6H69.7z"/>
		<path id="Trazado_192493" class="st10" d="M41.6,88.7h6.8c0.9,0,1.7-0.8,1.7-1.7c0-0.9-0.8-1.7-1.7-1.7h-6.8
			c-0.9,0-1.7,0.8-1.7,1.7C40,87.9,40.7,88.7,41.6,88.7z"/>
	</g>
	<g id="Grupo_133175" transform="translate(832.633 1926.105)">
		<path id="Trazado_192494" class="st9" d="M74,68c0-6.4-5.2-11.7-11.7-11.7H27c-6.4,0-11.7,5.2-11.7,11.7v8.9
			c0,6.4,5.2,11.7,11.7,11.7h35.3c6.4,0,11.7-5.2,11.7-11.7L74,68z M70.5,76.9c0,4.5-3.7,8.2-8.2,8.2H27c-4.5,0-8.2-3.7-8.2-8.2V68
			c0-4.5,3.7-8.2,8.2-8.2h35.3c4.5,0,8.2,3.7,8.2,8.2L70.5,76.9z"/>
		<path id="Trazado_192495" class="st9" d="M58.2,62.5c-5.5,0-9.9,4.5-10,10c0,5.5,4.5,9.9,10,10c5.5,0,9.9-4.5,10-10
			C68.1,66.9,63.7,62.5,58.2,62.5z M58.2,78.9c-3.6,0-6.4-2.9-6.4-6.4c0-3.6,2.9-6.4,6.4-6.4c3.6,0,6.4,2.9,6.4,6.4
			C64.6,76,61.7,78.9,58.2,78.9L58.2,78.9z"/>
		<path id="Trazado_192496" class="st9" d="M26.3,66.7c-1,0-1.8,0.8-1.8,1.8v5.4c0,1,0.8,1.8,1.8,1.8c0,0,0,0,0,0
			c1,0,1.8-0.8,1.8-1.8c0,0,0,0,0,0v-5.4C28,67.5,27.2,66.7,26.3,66.7C26.3,66.7,26.3,66.7,26.3,66.7z"/>
		<path id="Trazado_192497" class="st9" d="M31.9,66.7c-1,0-1.8,0.8-1.8,1.8v5.4c0,1,0.8,1.8,1.8,1.8c0,0,0,0,0,0
			c1,0,1.8-0.8,1.8-1.8c0,0,0,0,0,0v-5.4C33.6,67.5,32.8,66.7,31.9,66.7C31.9,66.7,31.9,66.7,31.9,66.7z"/>
		<path id="Trazado_192498" class="st9" d="M11.6,56.4L3,52.8c-0.9-0.4-1.9,0-2.3,0.9c-0.4,0.9,0,1.9,0.9,2.3l8.6,3.6
			c0.2,0.1,0.4,0.1,0.7,0.1c0.7,0,1.3-0.4,1.6-1.1C13,57.8,12.5,56.8,11.6,56.4z"/>
		<path id="Trazado_192499" class="st9" d="M18.4,51.1c0.2,0,0.4,0,0.7-0.1c0.9-0.4,1.3-1.4,1-2.3c0,0,0,0,0,0l-3.5-8.6
			c-0.4-0.9-1.4-1.3-2.3-1c-0.9,0.4-1.3,1.4-1,2.3c0,0,0,0,0,0l3.5,8.6C17,50.7,17.6,51.1,18.4,51.1z"/>
		<path id="Trazado_192500" class="st9" d="M9.3,69.1l-8,2.1c-0.9,0.2-1.5,1.2-1.2,2.1c0.2,0.8,0.9,1.3,1.7,1.3c0.2,0,0.3,0,0.4-0.1
			l8-2.1c0.9-0.2,1.5-1.2,1.2-2.1C11.2,69.4,10.2,68.8,9.3,69.1z"/>
		<path id="Trazado_192501" class="st9" d="M112,54.1V11.9c0.1-0.2,0.1-0.3,0.1-0.5c0-0.2,0-0.4-0.1-0.5v-0.6
			C112,4.6,107.4,0,101.8,0h-64c-5.7,0-10.2,4.6-10.3,10.3v42.3c0,1,0.8,1.8,1.8,1.8c1,0,1.8-0.8,1.8-1.8V13.1h77.5v39.8h-37
			c-1,0-1.8,0.8-1.8,1.8c0,0,0,0,0,0c0,1,0.8,1.8,1.8,1.8c0,0,0,0,0,0h36.9c-0.6,3.2-3.4,5.6-6.6,5.6H77.6c-1,0-1.8,0.8-1.8,1.8
			c0,0,0,0,0,0c0,1,0.8,1.8,1.8,1.8c0,0,0,0,0,0h3.3v10.2c0,3.5,1.5,6.9,4.1,9.4H73.9c-1,0-1.8,0.8-1.8,1.8c0,0,0,0,0,0
			c0,1,0.8,1.8,1.8,1.8h30.2c1,0,1.8-0.8,1.8-1.8c0-1-0.8-1.8-1.8-1.8H93.8c-5.2,0-9.4-4.2-9.4-9.4V65.5h17.4
			c5.7,0,10.2-4.6,10.3-10.3v-0.1c0.1-0.2,0.1-0.3,0.1-0.5C112.1,54.5,112.1,54.3,112,54.1z M37.8,3.5h64c3.5,0,6.4,2.6,6.7,6.1
			H31.1C31.4,6.2,34.3,3.5,37.8,3.5L37.8,3.5z"/>
	</g>
	<g id="Grupo_133176" transform="translate(327.438 2152.013)">
		<path id="Trazado_192502" class="st11" d="M34.2,30.3c3.1,0,6,1.2,8.3,3.3L47,38c0.3,0.3,0.7,0.4,1.1,0.4c0.2,0,0.4,0,0.6-0.1
			c0.6-0.3,1-0.8,1-1.5V15.2C49.7,6.8,42.9,0,34.6,0H15.2C6.8,0,0,6.8,0,15.2c0,8.4,6.8,15.1,15.2,15.2H34.2z M3.2,15.2
			c0-6.6,5.4-12,12-12h19.4c6.6,0,12,5.4,12,12v17.9l-1.9-1.8c-2.8-2.7-6.6-4.2-10.5-4.2h-19C8.5,27.1,3.2,21.8,3.2,15.2z"/>
		<path id="Trazado_192503" class="st11" d="M89.1,0H69.7c-8.4,0-15.1,6.8-15.2,15.2v21.7c0,0.6,0.4,1.2,1,1.5
			c0.2,0.1,0.4,0.1,0.6,0.1c0.4,0,0.8-0.2,1.1-0.4l4.6-4.4c2.2-2.1,5.2-3.3,8.3-3.3h19.1c8.4,0,15.1-6.8,15.2-15.2
			C104.3,6.8,97.5,0,89.1,0z M89.1,27.1H70.1c-3.9,0-7.6,1.5-10.5,4.2l-1.9,1.8V15.2c0-6.6,5.4-12,12-12h19.4c6.6,0,12,5.4,12,12
			C101.1,21.8,95.7,27.1,89.1,27.1z"/>
		<path id="Trazado_192504" class="st11" d="M34.2,74.5h12.1c2.5,0,4.5-2,4.5-4.5v-5.3c0-2.5-2-4.5-4.5-4.5H34.2
			c-2.5,0-4.5,2-4.5,4.5V70C29.7,72.5,31.8,74.5,34.2,74.5z M32.9,64.7c0-0.7,0.6-1.3,1.3-1.3h1.4v3.3c0,0.9,0.7,1.6,1.6,1.6
			s1.6-0.7,1.6-1.6v-3.3h2.9v3.3c0,0.9,0.7,1.6,1.6,1.6c0,0,0,0,0,0c0.9,0,1.6-0.7,1.6-1.6c0,0,0,0,0,0v-3.3h1.4
			c0.7,0,1.3,0.6,1.3,1.3V70c0,0.7-0.6,1.3-1.3,1.3H45v-0.5c0-0.9-0.7-1.6-1.6-1.6l0,0c-0.9,0-1.6,0.7-1.6,1.6l0,0v0.5h-2.9v-0.5
			c0-0.9-0.7-1.6-1.6-1.6l0,0c-0.9,0-1.6,0.7-1.6,1.6l0,0v0.5h-1.4c-0.7,0-1.3-0.6-1.3-1.3V64.7z"/>
		<path id="Trazado_192505" class="st11" d="M58.6,74.5h12.1c2.5,0,4.5-2,4.5-4.5v-5.3c0-2.5-2-4.5-4.5-4.5H58.6
			c-2.5,0-4.5,2-4.5,4.5V70C54.1,72.5,56.1,74.5,58.6,74.5z M57.2,64.7c0-0.7,0.6-1.3,1.3-1.3H60V64c0,0.9,0.7,1.6,1.6,1.6l0,0
			c0.9,0,1.6-0.7,1.6-1.6c0,0,0,0,0,0v-0.6h2.9V64c0,0.9,0.7,1.6,1.6,1.6c0.9,0,1.6-0.7,1.6-1.6l0,0v-0.6h1.4c0.7,0,1.3,0.6,1.3,1.3
			V70c0,0.7-0.6,1.3-1.3,1.3h-1.4v-3.1c0-0.9-0.7-1.6-1.6-1.6l0,0c-0.9,0-1.6,0.7-1.6,1.6c0,0,0,0,0,0v3.1h-2.9v-3.1
			c0-0.9-0.7-1.6-1.6-1.6c0,0,0,0,0,0c-0.9,0-1.6,0.7-1.6,1.6l0,0v3.1h-1.4c-0.7,0-1.3-0.6-1.3-1.3V64.7z"/>
		<path id="Trazado_192506" class="st11" d="M89,86.9h-6.1V54.1c0-0.9-0.7-1.6-1.6-1.6c0,0,0,0,0,0H55.2L61,41.8
			c0.4-0.8,0.1-1.7-0.7-2.2c-0.8-0.4-1.7-0.1-2.2,0.6l-5.6,10.4l-5.9-10.4c-0.4-0.8-1.4-1-2.2-0.6c0,0,0,0,0,0
			c-0.8,0.4-1,1.4-0.6,2.2c0,0,0,0,0,0l6,10.7H23.6c-0.9,0-1.6,0.7-1.6,1.6c0,0,0,0,0,0v32.8h-5.8C10.6,86.9,6,91.5,6,97.1v5.2
			c0,0.9,0.7,1.6,1.6,1.6l0,0c0.9,0,1.6-0.7,1.6-1.6c0,0,0,0,0,0v-5.2c0-3.9,3.1-7,7-7H22v6.4c0,0.9,0.7,1.6,1.6,1.6l0,0h57.7
			c0.9,0,1.6-0.7,1.6-1.6l0,0v-6.4H89c3.9,0,7,3.1,7,7v5.2c0,0.9,0.7,1.6,1.6,1.6l0,0c0.9,0,1.6-0.7,1.6-1.6l0,0v-5.2
			C99.2,91.5,94.6,86.9,89,86.9z M60.1,94.9H44.8V80.8h15.3V94.9z M79.7,94.9H63.3V79.3c0-0.9-0.7-1.6-1.6-1.6c0,0,0,0,0,0H43.2
			c-0.9,0-1.6,0.7-1.6,1.6c0,0,0,0,0,0v15.7H25.2V55.7h54.5L79.7,94.9z"/>
		<path id="Trazado_192507" class="st11" d="M70.7,12.8c-1.6,0-3,1.3-3,3c0,1.6,1.3,3,3,3c1.6,0,3-1.3,3-3
			C73.6,14.1,72.3,12.8,70.7,12.8z"/>
		<path id="Trazado_192508" class="st11" d="M79.6,12.8c-1.6,0-3,1.3-3,3c0,1.6,1.3,3,3,3c1.6,0,3-1.3,3-3
			C82.5,14.1,81.2,12.8,79.6,12.8z"/>
		<path id="Trazado_192509" class="st11" d="M88,12.8c-1.6,0-3,1.3-3,3c0,1.6,1.3,3,3,3c1.6,0,3-1.3,3-3
			C90.9,14.1,89.6,12.8,88,12.8z"/>
		<path id="Trazado_192510" class="st11" d="M19.4,15.8c0-1.6-1.3-3-3-3c-1.6,0-3,1.3-3,3c0,1.6,1.3,3,3,3
			C18.1,18.8,19.4,17.5,19.4,15.8z"/>
		<path id="Trazado_192511" class="st11" d="M25.3,18.8c1.6,0,3-1.3,3-3c0-1.6-1.3-3-3-3c-1.6,0-3,1.3-3,3
			C22.4,17.5,23.7,18.8,25.3,18.8z"/>
		<path id="Trazado_192512" class="st11" d="M33.7,18.8c1.6,0,3-1.3,3-3c0-1.6-1.3-3-3-3c-1.6,0-3,1.3-3,3
			C30.8,17.5,32.1,18.8,33.7,18.8z"/>
	</g>
</g>
</svg>
