<svg xmlns="http://www.w3.org/2000/svg" xmlns:xlink="http://www.w3.org/1999/xlink" width="209.357" height="209.357" viewBox="0 0 209.357 209.357">
  <defs>
    <clipPath id="clip-path">
      <circle id="Elipse_5122" data-name="Elipse 5122" cx="104.679" cy="104.679" r="104.679" transform="translate(341.521 2830.855)" fill="none"/>
    </clipPath>
  </defs>
  <g id="Grupo_140218" data-name="Grupo 140218" transform="translate(3228.934 8139.679)">
    <g id="Grupo_133201" data-name="Grupo 133201" transform="translate(-3570.455 -10970.534)" clip-path="url(#clip-path)">
      <g id="Grupo_133200" data-name="Grupo 133200">
        <path id="Trazado_192621" data-name="Trazado 192621" d="M63.093,3284.709a34.635,34.635,0,1,0,34.635,34.637,34.637,34.637,0,0,0-34.635-34.637Z" fill="#aad5f4" fill-rule="evenodd"/>
        <path id="Trazado_192622" data-name="Trazado 192622" d="M618.1,3284.709a34.635,34.635,0,1,0,34.636,34.637,34.636,34.636,0,0,0-34.636-34.637Z" fill="#062c51" fill-rule="evenodd"/>
        <path id="Trazado_192623" data-name="Trazado 192623" d="M151.679,3188.713a34.635,34.635,0,1,0,34.636,34.635,34.634,34.634,0,0,0-34.636-34.635Z" fill="#91d1e6" fill-rule="evenodd"/>
        <path id="Trazado_192624" data-name="Trazado 192624" d="M524.808,3188.713a34.635,34.635,0,1,0,34.636,34.635,34.634,34.634,0,0,0-34.636-34.635Z" fill="#003b82" fill-rule="evenodd"/>
        <path id="Trazado_192625" data-name="Trazado 192625" d="M269.38,3133.624a34.635,34.635,0,1,0,34.636,34.636,34.635,34.635,0,0,0-34.636-34.636Z" fill="#41b8df" fill-rule="evenodd"/>
        <path id="Trazado_192626" data-name="Trazado 192626" d="M790,3080.14a100.366,100.366,0,1,1-76.4,165.446l-63.723,48.359a40.677,40.677,0,1,1-57.93-5.744,312.6,312.6,0,0,0-35.283-39.558,40.677,40.677,0,0,1-65.791-47.721,313.045,313.045,0,0,0-45.624-20.244,40.68,40.68,0,0,1-79.417-12.418,41.111,41.111,0,0,1,.224-4.292q-12.171-.954-24.523-.961a313.454,313.454,0,0,0-31.639,1.6c.106,1.2.165,2.421.165,3.652a40.683,40.683,0,0,1-78.6,14.738,313.41,313.41,0,0,0-44.18,20.658,40.678,40.678,0,0,1-64.416,48.4,312.537,312.537,0,0,0-32.467,37.14,40.678,40.678,0,1,1-60.087,6.077l-64.466-48.924a100.129,100.129,0,0,1-75.751,34.525,100.365,100.365,0,0,1-100.364-100.365A100.367,100.367,0,0,1-109.91,3080.14,100.367,100.367,0,0,1-9.545,3180.506a99.927,99.927,0,0,1-20.805,61.181l64.573,49.006a40.676,40.676,0,0,1,51.407-5.213,318.62,318.62,0,0,1,33.291-38.017A40.678,40.678,0,0,1,128,3190.271l-46.936-76.9a100.542,100.542,0,1,1,5.225-3.007l46.855,76.766a40.7,40.7,0,0,1,50.813,11.469,319.128,319.128,0,0,1,45.735-21.389,40.721,40.721,0,0,1,28.186-47.975l-20.219-94.186a100.34,100.34,0,1,1,5.96-.966l20.156,93.884a40.7,40.7,0,0,1,45.132,30.669,319.333,319.333,0,0,1,32.622-1.672q12.889,0,25.607,1.029a40.7,40.7,0,0,1,44.377-30.1l20-93.164a100.445,100.445,0,1,1,15.391,1.174c-3.163,0-6.291-.154-9.38-.441l-20.1,93.61a40.712,40.712,0,0,1,29.229,45.714A319.109,319.109,0,0,1,494.61,3196.1a40.684,40.684,0,0,1,50.2-8.176l45.768-74.988a100.195,100.195,0,1,1,5.389,2.739l-46.141,75.6a40.692,40.692,0,0,1,10.269,52.327,318.382,318.382,0,0,1,36.736,41.074,40.673,40.673,0,0,1,48.931,4.846l64.071-48.625A100.368,100.368,0,0,1,790,3080.14ZM618.1,3284.709a34.635,34.635,0,1,0,34.636,34.637,34.636,34.636,0,0,0-34.636-34.637Zm-93.3-96a34.635,34.635,0,1,0,34.636,34.635,34.634,34.634,0,0,0-34.636-34.635Zm-118.3-55.089a34.635,34.635,0,1,0,34.636,34.636,34.634,34.634,0,0,0-34.636-34.636ZM63.093,3284.709a34.635,34.635,0,1,0,34.635,34.637,34.637,34.637,0,0,0-34.635-34.637Zm-173-198.528a94.324,94.324,0,0,0-94.323,94.325,94.323,94.323,0,0,0,94.323,94.324,94.324,94.324,0,0,0,94.324-94.324,94.325,94.325,0,0,0-94.324-94.325Zm261.589,102.532a34.635,34.635,0,1,0,34.636,34.635,34.634,34.634,0,0,0-34.636-34.635ZM33.727,2930.531a94.324,94.324,0,1,0,94.324,94.324,94.324,94.324,0,0,0-94.324-94.324ZM269.38,3133.624a34.635,34.635,0,1,0,34.636,34.636,34.635,34.635,0,0,0-34.636-34.636Zm-44.811-292.415a94.324,94.324,0,1,0,94.323,94.325,94.324,94.324,0,0,0-94.323-94.325Zm222.337,0a94.324,94.324,0,1,0,94.324,94.325,94.325,94.325,0,0,0-94.324-94.325Zm146.821,266.566.007-.012.2.123a92.846,92.846,0,1,0-.21-.111Zm290.6,72.731A94.324,94.324,0,1,0,790,3274.83a94.326,94.326,0,0,0,94.323-94.324Z" fill="#d8d8d8"/>
        <path id="Trazado_192627" data-name="Trazado 192627" d="M406.505,3133.624a34.635,34.635,0,1,0,34.636,34.636,34.634,34.634,0,0,0-34.636-34.636Z" fill="#0063ae" fill-rule="evenodd"/>
        <path id="Trazado_192628" data-name="Trazado 192628" d="M60.419,3304.715h7.335l10.138,29.26h-8.16l-1.772-5.729H60.172l-1.731,5.729h-8.2l10.179-29.26Zm6.263,18.174-2.6-9.067-2.719,9.067Z" fill="#003b82"/>
        <path id="Trazado_192629" data-name="Trazado 192629" d="M165.34,3230.477a6.392,6.392,0,0,1-3.09,5.728,10.617,10.617,0,0,1-3.359,1.34,18.473,18.473,0,0,1-4.06.432H140.45v-29.258h16.977a5.776,5.776,0,0,1,2.763.66,6.862,6.862,0,0,1,2.1,1.711,7.8,7.8,0,0,1,1.34,2.388,8.144,8.144,0,0,1,.474,2.741,7.936,7.936,0,0,1-1.051,3.935,6.607,6.607,0,0,1-3.153,2.824,7.13,7.13,0,0,1,5.44,7.5Zm-8.159-1.647a2.776,2.776,0,0,0-.577-1.793,1.82,1.82,0,0,0-1.483-.723h-6.635v4.907h6.345a2.389,2.389,0,0,0,1.669-.619,2.271,2.271,0,0,0,.681-1.772Zm-8.7-13.269v4.49h5.48a2.653,2.653,0,0,0,1.5-.453,2.037,2.037,0,0,0,.681-1.813,2.2,2.2,0,0,0-.577-1.711,1.972,1.972,0,0,0-1.36-.513Z" fill="#003b82"/>
        <path id="Trazado_192630" data-name="Trazado 192630" d="M256.543,3168.013a14.449,14.449,0,0,1,1.009-5.275,14.3,14.3,0,0,1,2.947-4.656,14.708,14.708,0,0,1,11-4.616,14.763,14.763,0,0,1,7.356,1.751,11.4,11.4,0,0,1,4.636,4.636l-6.14,4.369a5.164,5.164,0,0,0-1.093-1.773,5.592,5.592,0,0,0-1.5-1.112,6.535,6.535,0,0,0-1.711-.577,9.334,9.334,0,0,0-1.71-.165,6,6,0,0,0-5.048,2.452,7.643,7.643,0,0,0-1.2,2.473,10.005,10.005,0,0,0-.391,2.74,9.454,9.454,0,0,0,.453,2.926,7.612,7.612,0,0,0,1.318,2.473,6.452,6.452,0,0,0,2.123,1.71,6.148,6.148,0,0,0,2.822.639,8.037,8.037,0,0,0,1.691-.186,6.311,6.311,0,0,0,1.668-.617,5.663,5.663,0,0,0,1.442-1.114,4.92,4.92,0,0,0,1.011-1.669l6.552,3.915a8.35,8.35,0,0,1-2,2.885,12.6,12.6,0,0,1-3.05,2.141,16.173,16.173,0,0,1-3.667,1.321,16.884,16.884,0,0,1-3.812.453,13.532,13.532,0,0,1-5.955-1.3,15.122,15.122,0,0,1-4.657-3.44,15.686,15.686,0,0,1-3.028-4.862,14.971,14.971,0,0,1-1.072-5.523Z" fill="#003b82"/>
        <path id="Trazado_192631" data-name="Trazado 192631" d="M395.276,3182.889v-29.258h11.25a16.443,16.443,0,0,1,6.387,1.154,12.837,12.837,0,0,1,7.417,7.768,16.712,16.712,0,0,1,.95,5.665,16.523,16.523,0,0,1-1.052,6.037,13.083,13.083,0,0,1-2.987,4.618,13.4,13.4,0,0,1-4.658,2.965,16.67,16.67,0,0,1-6.057,1.051Zm17.844-14.671a9.977,9.977,0,0,0-.455-3.09,6.929,6.929,0,0,0-1.3-2.39,5.872,5.872,0,0,0-2.082-1.545,6.655,6.655,0,0,0-2.761-.556h-3.215v15.247h3.215a6.558,6.558,0,0,0,2.8-.577,5.841,5.841,0,0,0,2.08-1.608,7.08,7.08,0,0,0,1.278-2.431,10.3,10.3,0,0,0,.433-3.05Z" fill="#fff"/>
        <path id="Trazado_192632" data-name="Trazado 192632" d="M534.431,3230.971v7.006H513.579v-29.258H534.06v7.006H521.616v4.121h10.631v6.512H521.616v4.613Z" fill="#fff"/>
        <path id="Trazado_192633" data-name="Trazado 192633" d="M606.875,3333.975v-29.26h20.069v7.006H614.913v4.863h9.807v6.51h-9.807v10.881Z" fill="#fff"/>
        <path id="Trazado_192634" data-name="Trazado 192634" d="M117.083,3026.106a83.353,83.353,0,1,1-83.353-83.353A83.352,83.352,0,0,1,117.083,3026.106Z" fill="#91d1e6"/>
        <path id="Trazado_192635" data-name="Trazado 192635" d="M-26.986,3182.328a83.138,83.138,0,0,1-83.139,83.139,83.137,83.137,0,0,1-83.137-83.139,83.137,83.137,0,0,1,83.137-83.136A83.138,83.138,0,0,1-26.986,3182.328Z" fill="#aad5f4"/>
        <path id="Trazado_192636" data-name="Trazado 192636" d="M308.21,2934.857a83.137,83.137,0,1,1-83.137-83.139A83.136,83.136,0,0,1,308.21,2934.857Z" fill="#41b8df"/>
        <path id="Trazado_192637" data-name="Trazado 192637" d="M529.553,2934.462a83.353,83.353,0,1,1-83.354-83.353A83.353,83.353,0,0,1,529.553,2934.462Z" fill="#0063ae"/>
        <path id="Trazado_192638" data-name="Trazado 192638" d="M872.328,3181.764a82.057,82.057,0,1,1-82.057-82.055A82.057,82.057,0,0,1,872.328,3181.764Z" fill="#062c51"/>
        <path id="Trazado_192639" data-name="Trazado 192639" d="M557.785,3019.231a82.057,82.057,0,1,0,87.106-76.678A82.058,82.058,0,0,0,557.785,3019.231Z" fill="#003b82"/>
        <g id="Grupo_133195" data-name="Grupo 133195">
          <path id="Trazado_192640" data-name="Trazado 192640" d="M786.109,3164.65l-.664-6.67a1.839,1.839,0,1,0-3.66.364l.664,6.67a5.928,5.928,0,0,0,5.058,5.289l15,2.174a1.25,1.25,0,0,1-.18,2.487H785.271a6.53,6.53,0,0,1-6.162-4.38l-2.578-7.4a1.839,1.839,0,0,0-3.474,1.21l2.578,7.4a10.212,10.212,0,0,0,9.636,6.848h17.053a4.928,4.928,0,0,0,.707-9.805l-15-2.174A2.257,2.257,0,0,1,786.109,3164.65Z" fill="#aad5f4"/>
          <path id="Trazado_192641" data-name="Trazado 192641" d="M840.6,3225.233h-6.866v-41.687H837.9a1.839,1.839,0,1,0,0-3.678H822.211v-16.552a1.835,1.835,0,0,0-.2-.825l-3.565-7.1,3.325-19.015a1.839,1.839,0,0,0-3.623-.633l-6.694,38.284a1.838,1.838,0,0,0,1.494,2.129,1.919,1.919,0,0,0,.319.027,1.84,1.84,0,0,0,1.81-1.522l2.306-13.19,1.145,2.281v16.116H790.087a1.839,1.839,0,1,0,0,3.678h17.165v41.687H795.49a6.266,6.266,0,0,0,.569-1.6l5.028-24.323a10.151,10.151,0,0,0-5.629-11.27l-18.723-8.827a1.839,1.839,0,1,0-1.568,3.327l18.722,8.827a6.484,6.484,0,0,1,3.6,7.2l-5.028,24.323a2.635,2.635,0,0,1-5.184-.944l3.267-20.73a5.025,5.025,0,0,0-4.431-5.781l-13.871-1.485a10.071,10.071,0,0,1-8.853-11.716l3.154-18.378a25.791,25.791,0,0,1,5.88-12.46,11,11,0,1,0-2.33-2.9,1.939,1.939,0,0,0-.188.173,29.468,29.468,0,0,0-6.987,14.563l-3.154,18.377a13.747,13.747,0,0,0,12.087,16l13.871,1.485a1.349,1.349,0,0,1,1.189,1.551l-3.268,20.73c0,.024,0,.047-.007.07l-11.691-4.573v-12.258c.348.017.7.027,1.049.027h9.005a1.839,1.839,0,0,0,0-3.679H772.99a18.234,18.234,0,0,1-18.214-18.213v-18.6a28.85,28.85,0,0,0-5.846-17.356l-2.2-2.9a1.839,1.839,0,0,0-2.929,2.226l2.2,2.9a25.148,25.148,0,0,1,5.1,15.13v18.6a21.925,21.925,0,0,0,17.165,21.372v12.727l-15.3,5.679a1.839,1.839,0,0,0-1.084,2.364,1.806,1.806,0,0,0,.178.348H736.14a1.839,1.839,0,1,0,0,3.678H840.6a1.839,1.839,0,1,0,0-3.678Zm-60.849-89.455a7.371,7.371,0,1,1-7.371,7.372A7.38,7.38,0,0,1,779.753,3135.778Zm-9.668,84.312,13.149,5.143H756.225Zm40.846,5.143v-41.687h19.127v41.687Z" fill="#aad5f4"/>
        </g>
        <g id="Grupo_133196" data-name="Grupo 133196">
          <path id="Trazado_192642" data-name="Trazado 192642" d="M609.856,3026.815a1.84,1.84,0,1,0,0-3.681,19.947,19.947,0,1,1,8.083-38.186,9.474,9.474,0,0,1,3.362,2.81,1.84,1.84,0,0,0,3.158-1.891,12.008,12.008,0,0,0-3.989-3.706,18.4,18.4,0,1,1,36.429,1.1,10.611,10.611,0,0,0-2.427,2.611,1.844,1.844,0,0,0,1.583,2.79,1.821,1.821,0,0,0,1.574-.9,9.4,9.4,0,0,1,3.294-2.773,19.945,19.945,0,1,1,8.152,38.147,1.84,1.84,0,1,0,0,3.681,23.628,23.628,0,1,0-8.253-45.771q.015-.405.015-.81a22.08,22.08,0,0,0-44.161,0c0,.108,0,.216,0,.324a23.631,23.631,0,1,0-6.822,46.257Z" fill="#91d1e6"/>
          <path id="Trazado_192643" data-name="Trazado 192643" d="M665.927,3039.667a46.685,46.685,0,0,1-1.3-4.578,1.841,1.841,0,1,0-3.588.824,50.245,50.245,0,0,0,1.4,4.94,1.841,1.841,0,0,0,3.486-1.186Z" fill="#91d1e6"/>
          <path id="Trazado_192644" data-name="Trazado 192644" d="M661.7,3024.454h-.031a1.84,1.84,0,0,0-1.84,1.809c0,.033-.013.805.077,2.107a1.84,1.84,0,0,0,1.834,1.715c.042,0,.085,0,.128,0a1.841,1.841,0,0,0,1.711-1.963c-.077-1.116-.069-1.774-.069-1.794A1.841,1.841,0,0,0,661.7,3024.454Z" fill="#91d1e6"/>
          <path id="Trazado_192645" data-name="Trazado 192645" d="M638.879,3040.612a1.841,1.841,0,0,0,1.841-1.841v-.245a1.841,1.841,0,0,0-3.682,0v.245A1.841,1.841,0,0,0,638.879,3040.612Z" fill="#91d1e6"/>
          <path id="Trazado_192646" data-name="Trazado 192646" d="M640.72,3064.471v-19.563a1.841,1.841,0,1,0-3.682,0v19.563a5.517,5.517,0,1,0,3.682,0Zm-1.841,7.029a1.835,1.835,0,1,1,1.835-1.835A1.837,1.837,0,0,1,638.879,3071.5Z" fill="#91d1e6"/>
          <path id="Trazado_192647" data-name="Trazado 192647" d="M686.347,3058.536a5.5,5.5,0,0,0-4.076,1.812,36.435,36.435,0,0,1-14.021-15.137,1.841,1.841,0,0,0-3.286,1.661,40.064,40.064,0,0,0,15.88,16.91c-.005.09-.014.179-.014.271a5.517,5.517,0,1,0,5.517-5.517Zm0,7.352a1.835,1.835,0,1,1,1.835-1.835A1.837,1.837,0,0,1,686.347,3065.888Z" fill="#91d1e6"/>
          <path id="Trazado_192648" data-name="Trazado 192648" d="M656.252,3055.94c-3.332-10.564-3.944-22.883-3.95-23.009a1.841,1.841,0,0,0-3.678.171,107.409,107.409,0,0,0,4.15,24.049,4.98,4.98,0,1,0,3.478-1.211Zm-.22,6.272a1.3,1.3,0,1,1,1.3-1.3A1.3,1.3,0,0,1,656.032,3062.212Z" fill="#91d1e6"/>
          <path id="Trazado_192649" data-name="Trazado 192649" d="M611.873,3044.4a1.84,1.84,0,0,0-2.473.812,36.449,36.449,0,0,1-14.021,15.137,5.509,5.509,0,1,0,1.44,3.705c0-.092-.009-.181-.013-.271a40.07,40.07,0,0,0,15.88-16.91A1.841,1.841,0,0,0,611.873,3044.4Zm-20.57,21.489a1.835,1.835,0,1,1,1.834-1.835A1.837,1.837,0,0,1,591.3,3065.888Z" fill="#91d1e6"/>
          <path id="Trazado_192650" data-name="Trazado 192650" d="M615.228,3033.706a1.841,1.841,0,0,0-2.206,1.383,46.975,46.975,0,0,1-1.3,4.578,1.841,1.841,0,0,0,3.486,1.186,50.79,50.79,0,0,0,1.4-4.94A1.842,1.842,0,0,0,615.228,3033.706Z" fill="#91d1e6"/>
          <path id="Trazado_192651" data-name="Trazado 192651" d="M615.784,3030.081c.043,0,.086,0,.128,0a1.841,1.841,0,0,0,1.835-1.715c.089-1.3.077-2.074.077-2.106a1.84,1.84,0,0,0-1.84-1.809h-.029a1.842,1.842,0,0,0-1.813,1.868c0,.006.009.667-.069,1.8A1.841,1.841,0,0,0,615.784,3030.081Z" fill="#91d1e6"/>
          <path id="Trazado_192652" data-name="Trazado 192652" d="M627.272,3031.178a1.84,1.84,0,0,0-1.925,1.753c-.006.126-.618,12.445-3.95,23.009a4.988,4.988,0,1,0,3.478,1.211,107.414,107.414,0,0,0,4.15-24.049A1.841,1.841,0,0,0,627.272,3031.178Zm-5.655,31.034a1.3,1.3,0,1,1,1.3-1.3A1.3,1.3,0,0,1,621.617,3062.212Z" fill="#91d1e6"/>
        </g>
        <path id="Trazado_192653" data-name="Trazado 192653" d="M89.121,2978.227H61.088a1.808,1.808,0,0,0-1.808,1.808v13.74a1.808,1.808,0,0,0,1.808,1.808H73.056v8.076H36.9v-8.076H49.248a1.807,1.807,0,0,0,1.808-1.808v-13.74a1.807,1.807,0,0,0-1.808-1.808H21.215a1.808,1.808,0,0,0-1.808,1.808v13.74a1.808,1.808,0,0,0,1.808,1.808H33.28v8.076H-3.844v-8.076H9.375a1.807,1.807,0,0,0,1.808-1.808v-13.74a1.807,1.807,0,0,0-1.808-1.808H-18.658a1.807,1.807,0,0,0-1.808,1.808v13.74a1.807,1.807,0,0,0,1.808,1.808h11.2v9.884a1.808,1.808,0,0,0,1.808,1.808h18.2v6.019H.222a1.807,1.807,0,0,0-1.808,1.808v13.74a1.807,1.807,0,0,0,1.808,1.808H12.549v8.084a1.807,1.807,0,0,0,1.808,1.808H33.039v7.112H20.77a1.808,1.808,0,0,0-1.808,1.808V3063.2a1.809,1.809,0,0,0,1.808,1.808H33.039v6.725H21.192a1.808,1.808,0,0,0-1.808,1.808v13.74a1.808,1.808,0,0,0,1.808,1.808H49.225a1.807,1.807,0,0,0,1.808-1.808v-13.74a1.807,1.807,0,0,0-1.808-1.808H36.655v-6.725H48.8a1.808,1.808,0,0,0,1.808-1.808v-13.741a1.807,1.807,0,0,0-1.808-1.808H36.655v-7.112H54.133a1.808,1.808,0,0,0,1.808-1.808v-8.084H68.128a1.808,1.808,0,0,0,1.808-1.808V3015.1a1.808,1.808,0,0,0-1.808-1.808H55.941v-6.019H74.864a1.807,1.807,0,0,0,1.808-1.808v-9.884H89.121a1.807,1.807,0,0,0,1.808-1.808v-13.74A1.807,1.807,0,0,0,89.121,2978.227Zm-66.1,3.616H47.44v10.124H23.023Zm-39.873,0H7.567v10.124H-16.85Zm64.267,103.633H23v-10.124H47.417Zm-.422-24.081H22.578V3051.27H46.995ZM2.03,3016.91H26.447v10.124H2.03Zm64.29,10.124H41.9V3016.91H66.32Zm-13.995-13.74H40.1a1.807,1.807,0,0,0-1.808,1.808v13.74a1.807,1.807,0,0,0,1.808,1.808h12.23v6.276H16.165v-6.276h12.09a1.808,1.808,0,0,0,1.808-1.808V3015.1a1.808,1.808,0,0,0-1.808-1.808H16.165v-6.019h36.16Zm34.988-21.327H62.9v-10.124H87.313Z" fill="#003b82"/>
        <g id="Grupo_133197" data-name="Grupo 133197">
          <path id="Trazado_192654" data-name="Trazado 192654" d="M269.486,2907a4.382,4.382,0,0,0-4.361,5.036l-10.736,6.814v-25.275a9.931,9.931,0,0,0-9.92-9.92H204.334a9.931,9.931,0,0,0-9.919,9.92v1.125a1.624,1.624,0,0,0,0,.9v41.836l-11.208,6.582a4.405,4.405,0,1,0,1.863,3.593,4.437,4.437,0,0,0-.027-.478l9.372-5.5v26.593a1.625,1.625,0,0,0,0,.9v8.357a9.931,9.931,0,0,0,9.919,9.92h40.135a9.931,9.931,0,0,0,9.92-9.92v-46.247a1.808,1.808,0,0,0-3.616,0v35.63H198.031v-69.909h52.742v23.858a1.834,1.834,0,0,0,.031.308L246.286,2924a4.4,4.4,0,0,0-6.659,4.9l-14.4,12.207a4.38,4.38,0,0,0-4.726.436l-15.209-7.621a1.808,1.808,0,0,0-1.619,3.233l15.133,7.583c-.006.094-.014.187-.014.283a4.411,4.411,0,1,0,8.682-1.078l14.492-12.286a4.4,4.4,0,0,0,6.305-3.977,4.448,4.448,0,0,0-.05-.625l18.839-11.955a4.409,4.409,0,1,0,2.425-8.091Zm-65.152-19.729h40.135a6.306,6.306,0,0,1,6.292,6.072H198.042A6.307,6.307,0,0,1,204.334,2887.275Zm46.439,83.214v7a6.311,6.311,0,0,1-6.3,6.3H204.334a6.31,6.31,0,0,1-6.3-6.3v-7Z" fill="#0063ae"/>
          <path id="Trazado_192655" data-name="Trazado 192655" d="M220.748,2978.444h7.232a1.808,1.808,0,0,0,0-3.616h-7.232a1.808,1.808,0,0,0,0,3.616Z" fill="#0063ae"/>
        </g>
        <g id="Grupo_133198" data-name="Grupo 133198">
          <path id="Trazado_192656" data-name="Trazado 192656" d="M454.012,2959.228a12.5,12.5,0,0,0-12.481-12.481H403.8a12.5,12.5,0,0,0-12.481,12.481v9.537a12.5,12.5,0,0,0,12.481,12.481h37.727a12.5,12.5,0,0,0,12.481-12.481Zm-3.749,9.537a8.741,8.741,0,0,1-8.732,8.731H403.8a8.741,8.741,0,0,1-8.732-8.731v-9.537a8.741,8.741,0,0,1,8.732-8.731h37.727a8.741,8.741,0,0,1,8.732,8.731Z" fill="#41b8df"/>
          <path id="Trazado_192657" data-name="Trazado 192657" d="M437.081,2953.358A10.639,10.639,0,1,0,447.719,2964,10.651,10.651,0,0,0,437.081,2953.358Zm0,17.527A6.889,6.889,0,1,1,443.97,2964,6.9,6.9,0,0,1,437.081,2970.885Z" fill="#41b8df"/>
          <path id="Trazado_192658" data-name="Trazado 192658" d="M402.982,2957.871a1.875,1.875,0,0,0-1.875,1.875v5.749a1.874,1.874,0,1,0,3.749,0v-5.749A1.875,1.875,0,0,0,402.982,2957.871Z" fill="#41b8df"/>
          <path id="Trazado_192659" data-name="Trazado 192659" d="M408.981,2957.871a1.875,1.875,0,0,0-1.875,1.875v5.749a1.875,1.875,0,1,0,3.749,0v-5.749A1.875,1.875,0,0,0,408.981,2957.871Z" fill="#41b8df"/>
          <path id="Trazado_192660" data-name="Trazado 192660" d="M387.36,2946.917l-9.208-3.9a1.875,1.875,0,0,0-1.461,3.453l9.208,3.9a1.875,1.875,0,0,0,1.461-3.453Z" fill="#41b8df"/>
          <path id="Trazado_192661" data-name="Trazado 192661" d="M394.531,2941.2a1.877,1.877,0,0,0,1.737-2.58l-3.706-9.142a1.874,1.874,0,1,0-3.474,1.409l3.7,9.142A1.878,1.878,0,0,0,394.531,2941.2Z" fill="#41b8df"/>
          <path id="Trazado_192662" data-name="Trazado 192662" d="M384.825,2960.439l-8.513,2.245a1.874,1.874,0,1,0,.956,3.625l8.513-2.244a1.875,1.875,0,0,0-.956-3.626Z" fill="#41b8df"/>
          <path id="Trazado_192663" data-name="Trazado 192663" d="M494.624,2944.445v-45.136a1.691,1.691,0,0,0,0-1.106v-.637a10.969,10.969,0,0,0-10.957-10.957H415.314a10.969,10.969,0,0,0-10.957,10.957v45.2a1.874,1.874,0,1,0,3.749,0v-42.133h82.769v42.493H451.349a1.875,1.875,0,1,0,0,3.749h39.416a7.213,7.213,0,0,1-7.1,6H457.83a1.875,1.875,0,0,0,0,3.749h3.517v10.869a13.71,13.71,0,0,0,4.33,10H453.848a1.875,1.875,0,0,0,0,3.75h32.3a1.875,1.875,0,0,0,0-3.75H475.1a10.015,10.015,0,0,1-10-10v-10.869h18.571a10.969,10.969,0,0,0,10.957-10.957v-.112a1.693,1.693,0,0,0,0-1.107Zm-79.31-54.087h68.353a7.216,7.216,0,0,1,7.173,6.523h-82.7A7.216,7.216,0,0,1,415.314,2890.358Z" fill="#41b8df"/>
        </g>
        <g id="Grupo_133199" data-name="Grupo 133199">
          <path id="Trazado_192664" data-name="Trazado 192664" d="M-128.38,3160.391a12.733,12.733,0,0,1,8.827,3.535l4.881,4.657a1.7,1.7,0,0,0,1.175.471,1.692,1.692,0,0,0,.67-.138,1.7,1.7,0,0,0,1.032-1.565V3144.2a16.209,16.209,0,0,0-16.191-16.191h-20.75a16.209,16.209,0,0,0-16.19,16.191,16.21,16.21,0,0,0,16.19,16.191Zm-33.142-16.191a12.8,12.8,0,0,1,12.786-12.787h20.75A12.8,12.8,0,0,1-115.2,3144.2v19.175l-2.005-1.912a16.118,16.118,0,0,0-11.176-4.477h-20.356A12.8,12.8,0,0,1-161.522,3144.2Z" fill="#062c51"/>
          <path id="Trazado_192665" data-name="Trazado 192665" d="M-69.691,3128.009H-90.44a16.209,16.209,0,0,0-16.191,16.191v23.151a1.7,1.7,0,0,0,1.032,1.565,1.687,1.687,0,0,0,.669.138,1.7,1.7,0,0,0,1.176-.471l4.881-4.657a12.731,12.731,0,0,1,8.827-3.535h20.355A16.21,16.21,0,0,0-53.5,3144.2,16.209,16.209,0,0,0-69.691,3128.009Zm0,28.977H-90.046a16.122,16.122,0,0,0-11.177,4.477l-2,1.912V3144.2a12.8,12.8,0,0,1,12.787-12.787h20.749A12.8,12.8,0,0,1-56.9,3144.2,12.8,12.8,0,0,1-69.691,3156.986Z" fill="#062c51"/>
          <path id="Trazado_192666" data-name="Trazado 192666" d="M-128.342,3207.653h12.949a4.807,4.807,0,0,0,4.8-4.8v-5.661a4.807,4.807,0,0,0-4.8-4.8h-12.949a4.807,4.807,0,0,0-4.8,4.8v5.661A4.807,4.807,0,0,0-128.342,3207.653Zm-1.4-10.462a1.4,1.4,0,0,1,1.4-1.4h1.495v3.486a1.7,1.7,0,0,0,1.7,1.7,1.7,1.7,0,0,0,1.7-1.7v-3.486h3.151v3.486a1.7,1.7,0,0,0,1.7,1.7,1.7,1.7,0,0,0,1.7-1.7v-3.486h1.5a1.4,1.4,0,0,1,1.4,1.4v5.661a1.4,1.4,0,0,1-1.4,1.4h-1.5v-.565a1.7,1.7,0,0,0-1.7-1.7,1.7,1.7,0,0,0-1.7,1.7v.565h-3.151v-.565a1.7,1.7,0,0,0-1.7-1.7,1.7,1.7,0,0,0-1.7,1.7v.565h-1.495a1.4,1.4,0,0,1-1.4-1.4Z" fill="#062c51"/>
          <path id="Trazado_192667" data-name="Trazado 192667" d="M-102.361,3207.653h12.948a4.807,4.807,0,0,0,4.8-4.8v-5.661a4.807,4.807,0,0,0-4.8-4.8h-12.948a4.807,4.807,0,0,0-4.8,4.8v5.661A4.807,4.807,0,0,0-102.361,3207.653Zm-1.4-10.462a1.4,1.4,0,0,1,1.4-1.4h1.494v.642a1.7,1.7,0,0,0,1.7,1.7,1.7,1.7,0,0,0,1.7-1.7v-.642h3.15v.642a1.7,1.7,0,0,0,1.7,1.7,1.7,1.7,0,0,0,1.7-1.7v-.642h1.494a1.4,1.4,0,0,1,1.4,1.4v5.661a1.4,1.4,0,0,1-1.4,1.4h-1.494v-3.274a1.7,1.7,0,0,0-1.7-1.7,1.7,1.7,0,0,0-1.7,1.7v3.274h-3.15v-3.274a1.7,1.7,0,0,0-1.7-1.7,1.7,1.7,0,0,0-1.7,1.7v3.274h-1.494a1.4,1.4,0,0,1-1.4-1.4Z" fill="#062c51"/>
          <path id="Trazado_192668" data-name="Trazado 192668" d="M-69.875,3220.886h-6.492v-35.037a1.7,1.7,0,0,0-1.7-1.7h-27.877l6.179-11.5a1.7,1.7,0,0,0-.694-2.3,1.7,1.7,0,0,0-2.305.694l-5.978,11.127L-115,3171.007a1.7,1.7,0,0,0-2.318-.651,1.7,1.7,0,0,0-.651,2.317l6.439,11.473h-28.152a1.7,1.7,0,0,0-1.7,1.7v35.037h-6.236a10.919,10.919,0,0,0-10.906,10.906v5.59a1.7,1.7,0,0,0,1.7,1.7,1.7,1.7,0,0,0,1.7-1.7v-5.59a7.51,7.51,0,0,1,7.5-7.5h6.236v6.845a1.7,1.7,0,0,0,1.7,1.7h61.616a1.7,1.7,0,0,0,1.7-1.7v-6.845h6.492a7.51,7.51,0,0,1,7.5,7.5v5.59a1.7,1.7,0,0,0,1.7,1.7,1.7,1.7,0,0,0,1.7-1.7v-5.59A10.918,10.918,0,0,0-69.875,3220.886Zm-30.837,8.548h-16.331V3214.4h16.331Zm20.941,0H-97.307V3212.7a1.7,1.7,0,0,0-1.7-1.7h-19.736a1.7,1.7,0,0,0-1.7,1.7v16.734h-17.536v-41.883h58.212Z" fill="#062c51"/>
          <path id="Trazado_192669" data-name="Trazado 192669" d="M-89.419,3141.649a3.176,3.176,0,0,0-3.172,3.171,3.176,3.176,0,0,0,3.172,3.172,3.175,3.175,0,0,0,3.171-3.172A3.175,3.175,0,0,0-89.419,3141.649Z" fill="#062c51"/>
          <path id="Trazado_192670" data-name="Trazado 192670" d="M-79.893,3141.649a3.175,3.175,0,0,0-3.171,3.171,3.175,3.175,0,0,0,3.171,3.172,3.175,3.175,0,0,0,3.171-3.172A3.175,3.175,0,0,0-79.893,3141.649Z" fill="#062c51"/>
          <path id="Trazado_192671" data-name="Trazado 192671" d="M-70.931,3141.649a3.175,3.175,0,0,0-3.171,3.171,3.175,3.175,0,0,0,3.171,3.172,3.175,3.175,0,0,0,3.171-3.172A3.175,3.175,0,0,0-70.931,3141.649Z" fill="#062c51"/>
          <path id="Trazado_192672" data-name="Trazado 192672" d="M-144.212,3144.923a3.176,3.176,0,0,0-3.172-3.172,3.176,3.176,0,0,0-3.171,3.172,3.174,3.174,0,0,0,3.171,3.171A3.175,3.175,0,0,0-144.212,3144.923Z" fill="#062c51"/>
          <path id="Trazado_192673" data-name="Trazado 192673" d="M-137.857,3148.094a3.174,3.174,0,0,0,3.171-3.171,3.176,3.176,0,0,0-3.171-3.172,3.176,3.176,0,0,0-3.172,3.172A3.175,3.175,0,0,0-137.857,3148.094Z" fill="#062c51"/>
          <path id="Trazado_192674" data-name="Trazado 192674" d="M-128.9,3148.094a3.174,3.174,0,0,0,3.171-3.171,3.175,3.175,0,0,0-3.171-3.172,3.176,3.176,0,0,0-3.172,3.172A3.175,3.175,0,0,0-128.9,3148.094Z" fill="#062c51"/>
        </g>
      </g>
    </g>
  </g>
</svg>
