<svg xmlns="http://www.w3.org/2000/svg" width="380.5" height="288" viewBox="0 0 380.5 288">
  <g id="Grupo_140200" data-name="Grupo 140200" transform="translate(-219.5 -417)">
    <path id="Trazado_189321" data-name="Trazado 189321" d="M430.109,295.453s27.48-44.135-2.448-96.06-70.125-25.812-68.179-86.25-83.073-66.3-113.118-48.774-56.571,7.485-92.457,8.707c-58.2,1.983-74.492,62.945-58.356,92.613,22.894,42.094-71.723,47.043-17.259,129.763Z" transform="translate(158.372 385.591)" fill="#fff4da"/>
    <g id="Grupo_131849" data-name="Grupo 131849" transform="translate(0 -10.14)">
      <g id="Grupo_131848" data-name="Grupo 131848" transform="translate(265 427.14)">
        <g id="Grupo_131818" data-name="Grupo 131818" transform="translate(0 102.923)">
          <g id="Grupo_131798" data-name="Grupo 131798" transform="translate(0 112.609)">
            <path id="Trazado_191745" data-name="Trazado 191745" d="M301.1,389.313c-33.857-5.7-88.265-9.4-149.623-9.4s-115.766,3.7-149.623,9.4V438.12H301.332V389.313Z" transform="translate(-1.854 -379.914)" fill="#fff"/>
            <path id="Trazado_191746" data-name="Trazado 191746" d="M301.1,394.253c-4.013-.676-8.323-1.323-12.891-1.939a7.649,7.649,0,0,1,.163,1.548c0,17.6-61.239,31.874-136.78,31.874s-136.78-14.271-136.78-31.874a7.669,7.669,0,0,1,.168-1.58c-4.656.626-9.044,1.283-13.127,1.971V443.06H301.332V394.253Z" transform="translate(-1.854 -384.854)" fill="#001627" opacity="0.1"/>
            <path id="Trazado_191747" data-name="Trazado 191747" d="M301.807,474.44c-33.858-2.631-88.265-4.337-149.623-4.337S36.417,471.809,2.56,474.44v13.618H302.038V474.44Z" transform="translate(-2.136 -415.936)" fill="#b3c1c6"/>
          </g>
          <g id="Grupo_131804" data-name="Grupo 131804" transform="translate(69.054 12.867)">
            <g id="Grupo_131799" data-name="Grupo 131799" transform="translate(0 102.225)">
              <path id="Trazado_191748" data-name="Trazado 191748" d="M126.916,384.374,116.83,403.983l.374,2.941L267,408.232V404.31l-10.459-20.263Z" transform="translate(-116.83 -384.047)" fill="#636363"/>
              <path id="Trazado_191749" data-name="Trazado 191749" d="M116.83,417.241l.374,2.941L267,421.49v-3.922Z" transform="translate(-116.83 -397.305)" fill="#2d2d51"/>
            </g>
            <g id="Grupo_131803" data-name="Grupo 131803" transform="translate(3.5)">
              <path id="Trazado_191750" data-name="Trazado 191750" d="M124.988,216.6l143.084-1.382-7.923,93.092L127.785,305.7l-5.127-91.788" transform="translate(-122.658 -213.871)" fill="#2d2d51"/>
              <path id="Trazado_191751" data-name="Trazado 191751" d="M122.9,213.841l-.245.045,5.127,88.668,132.365,2.608,7.923-89.971Z" transform="translate(-122.658 -213.841)" fill="#084a93"/>
              <path id="Trazado_191752" data-name="Trazado 191752" d="M131.97,219.733l134.229,1.2-7.314,83.051L136.7,301.58l-4.732-81.847" transform="translate(-126.377 -216.194)" fill="#fff"/>
              <g id="Grupo_131802" data-name="Grupo 131802" transform="translate(13.334 10.128)">
                <g id="Grupo_131800" data-name="Grupo 131800" transform="translate(19.82 7.808)" opacity="0.5">
                  <rect id="Rectángulo_293926" data-name="Rectángulo 293926" width="95.554" height="64.774" fill="#fff" stroke="#888cf0" stroke-miterlimit="10" stroke-width="0.879"/>
                  <rect id="Rectángulo_293927" data-name="Rectángulo 293927" width="4.949" height="2.141" transform="translate(2.797 5.117)" fill="#888cf0"/>
                  <rect id="Rectángulo_293928" data-name="Rectángulo 293928" width="4.949" height="2.141" transform="translate(2.797 9.223)" fill="#888cf0"/>
                  <rect id="Rectángulo_293929" data-name="Rectángulo 293929" width="4.949" height="2.141" transform="translate(2.797 13.33)" fill="#888cf0"/>
                  <rect id="Rectángulo_293930" data-name="Rectángulo 293930" width="4.949" height="2.141" transform="translate(2.797 17.436)" fill="#888cf0"/>
                  <rect id="Rectángulo_293931" data-name="Rectángulo 293931" width="4.949" height="2.141" transform="translate(2.797 21.543)" fill="#888cf0"/>
                  <rect id="Rectángulo_293932" data-name="Rectángulo 293932" width="4.949" height="2.141" transform="translate(2.797 25.649)" fill="#888cf0"/>
                  <rect id="Rectángulo_293933" data-name="Rectángulo 293933" width="4.949" height="2.141" transform="translate(2.797 29.756)" fill="#888cf0"/>
                  <rect id="Rectángulo_293934" data-name="Rectángulo 293934" width="4.949" height="2.141" transform="translate(2.797 33.862)" fill="#888cf0"/>
                  <rect id="Rectángulo_293935" data-name="Rectángulo 293935" width="4.949" height="2.141" transform="translate(2.797 37.968)" fill="#888cf0"/>
                  <rect id="Rectángulo_293936" data-name="Rectángulo 293936" width="4.949" height="2.141" transform="translate(2.797 42.075)" fill="#888cf0"/>
                  <rect id="Rectángulo_293937" data-name="Rectángulo 293937" width="4.949" height="2.141" transform="translate(2.797 46.181)" fill="#888cf0"/>
                  <rect id="Rectángulo_293938" data-name="Rectángulo 293938" width="4.949" height="2.141" transform="translate(2.797 50.288)" fill="#888cf0"/>
                  <rect id="Rectángulo_293939" data-name="Rectángulo 293939" width="4.949" height="2.141" transform="translate(2.797 54.394)" fill="#888cf0"/>
                  <rect id="Rectángulo_293940" data-name="Rectángulo 293940" width="4.949" height="2.141" transform="translate(2.797 58.5)" fill="#888cf0"/>
                  <rect id="Rectángulo_293941" data-name="Rectángulo 293941" width="8.66" height="2.141" transform="translate(19.322 5.117)" fill="#ffc979"/>
                  <rect id="Rectángulo_293942" data-name="Rectángulo 293942" width="40.737" height="2.141" transform="translate(30.279 5.117)" fill="#888cf0"/>
                  <rect id="Rectángulo_293943" data-name="Rectángulo 293943" width="10.516" height="2.141" transform="translate(16.273 9.223)" fill="#ffc979"/>
                  <rect id="Rectángulo_293944" data-name="Rectángulo 293944" width="45.509" height="2.141" transform="translate(29.351 9.223)" fill="#888cf0"/>
                  <rect id="Rectángulo_293945" data-name="Rectángulo 293945" width="14.846" height="2.141" transform="translate(26.833 13.33)" fill="#ffc979"/>
                  <rect id="Rectángulo_293946" data-name="Rectángulo 293946" width="36.054" height="2.141" transform="translate(43.799 13.33)" fill="#888cf0"/>
                  <rect id="Rectángulo_293947" data-name="Rectángulo 293947" width="14.227" height="2.141" transform="translate(34.565 17.436)" fill="#ffc979"/>
                  <rect id="Rectángulo_293948" data-name="Rectángulo 293948" width="36.098" height="2.141" transform="translate(51.531 17.436)" fill="#888cf0"/>
                  <rect id="Rectángulo_293949" data-name="Rectángulo 293949" width="10.206" height="2.141" transform="translate(20.492 21.543)" fill="#ffc979"/>
                  <rect id="Rectángulo_293950" data-name="Rectángulo 293950" width="41.334" height="2.141" transform="translate(33.217 21.543)" fill="#888cf0"/>
                  <rect id="Rectángulo_293951" data-name="Rectángulo 293951" width="8.66" height="2.141" transform="translate(16.14 25.649)" fill="#ffc979"/>
                  <rect id="Rectángulo_293952" data-name="Rectángulo 293952" width="43.919" height="2.141" transform="translate(27.098 25.649)" fill="#888cf0"/>
                  <rect id="Rectángulo_293953" data-name="Rectángulo 293953" width="12.681" height="2.141" transform="translate(36.222 29.756)" fill="#ffc979"/>
                  <rect id="Rectángulo_293954" data-name="Rectángulo 293954" width="33.734" height="2.141" transform="translate(51.774 29.756)" fill="#888cf0"/>
                  <rect id="Rectángulo_293955" data-name="Rectángulo 293955" width="14.846" height="2.141" transform="translate(21.177 33.862)" fill="#ffc979"/>
                  <rect id="Rectángulo_293956" data-name="Rectángulo 293956" width="39.589" height="2.141" transform="translate(38.497 33.862)" fill="#888cf0"/>
                  <rect id="Rectángulo_293957" data-name="Rectángulo 293957" width="27.217" height="2.141" transform="translate(28.07 37.968)" fill="#ffc979"/>
                  <rect id="Rectángulo_293958" data-name="Rectángulo 293958" width="33.226" height="2.141" transform="translate(57.761 37.968)" fill="#888cf0"/>
                  <rect id="Rectángulo_293959" data-name="Rectángulo 293959" width="20.104" height="2.141" transform="translate(26.501 42.075)" fill="#ffc979"/>
                  <rect id="Rectángulo_293960" data-name="Rectángulo 293960" width="33.027" height="2.141" transform="translate(50.007 42.075)" fill="#888cf0"/>
                  <rect id="Rectángulo_293961" data-name="Rectángulo 293961" width="19.794" height="2.141" transform="translate(21.177 46.181)" fill="#ffc979"/>
                  <rect id="Rectángulo_293962" data-name="Rectángulo 293962" width="36.054" height="2.141" transform="translate(43.446 46.181)" fill="#888cf0"/>
                  <rect id="Rectángulo_293963" data-name="Rectángulo 293963" width="13.609" height="2.141" transform="translate(20.382 50.288)" fill="#ffc979"/>
                  <rect id="Rectángulo_293964" data-name="Rectángulo 293964" width="37.203" height="2.141" transform="translate(36.995 50.288)" fill="#888cf0"/>
                  <rect id="Rectángulo_293965" data-name="Rectángulo 293965" width="12.99" height="2.141" transform="translate(16.45 54.394)" fill="#ffc979"/>
                  <rect id="Rectángulo_293966" data-name="Rectángulo 293966" width="50.325" height="2.141" transform="translate(31.649 54.394)" fill="#888cf0"/>
                  <rect id="Rectángulo_293967" data-name="Rectángulo 293967" width="14.846" height="2.141" transform="translate(38.144 58.5)" fill="#ffc979"/>
                  <rect id="Rectángulo_293968" data-name="Rectángulo 293968" width="35.347" height="2.141" transform="translate(55.817 58.5)" fill="#888cf0"/>
                  <rect id="Rectángulo_293969" data-name="Rectángulo 293969" width="95.554" height="2.583" transform="translate(0 0.21)" fill="#888cf0" stroke="#888cf0" stroke-miterlimit="10" stroke-width="0.176"/>
                </g>
                <rect id="Rectángulo_293970" data-name="Rectángulo 293970" width="95.554" height="64.774" fill="#fff"/>
                <g id="Grupo_131801" data-name="Grupo 131801" opacity="0.5">
                  <rect id="Rectángulo_293971" data-name="Rectángulo 293971" width="95.554" height="64.774" fill="#fff" stroke="#888cf0" stroke-miterlimit="10" stroke-width="0.879"/>
                  <rect id="Rectángulo_293972" data-name="Rectángulo 293972" width="4.949" height="2.141" transform="translate(2.797 5.117)" fill="#888cf0"/>
                  <rect id="Rectángulo_293973" data-name="Rectángulo 293973" width="4.949" height="2.141" transform="translate(2.797 9.223)" fill="#888cf0"/>
                  <rect id="Rectángulo_293974" data-name="Rectángulo 293974" width="4.949" height="2.141" transform="translate(2.797 13.33)" fill="#888cf0"/>
                  <rect id="Rectángulo_293975" data-name="Rectángulo 293975" width="4.949" height="2.141" transform="translate(2.797 17.436)" fill="#888cf0"/>
                  <rect id="Rectángulo_293976" data-name="Rectángulo 293976" width="4.949" height="2.141" transform="translate(2.797 21.543)" fill="#888cf0"/>
                  <rect id="Rectángulo_293977" data-name="Rectángulo 293977" width="4.949" height="2.141" transform="translate(2.797 25.649)" fill="#888cf0"/>
                  <rect id="Rectángulo_293978" data-name="Rectángulo 293978" width="4.949" height="2.141" transform="translate(2.797 29.756)" fill="#888cf0"/>
                  <rect id="Rectángulo_293979" data-name="Rectángulo 293979" width="4.949" height="2.141" transform="translate(2.797 33.862)" fill="#888cf0"/>
                  <rect id="Rectángulo_293980" data-name="Rectángulo 293980" width="4.949" height="2.141" transform="translate(2.797 37.968)" fill="#888cf0"/>
                  <rect id="Rectángulo_293981" data-name="Rectángulo 293981" width="4.949" height="2.141" transform="translate(2.797 42.075)" fill="#888cf0"/>
                  <rect id="Rectángulo_293982" data-name="Rectángulo 293982" width="4.949" height="2.141" transform="translate(2.797 46.181)" fill="#888cf0"/>
                  <rect id="Rectángulo_293983" data-name="Rectángulo 293983" width="4.949" height="2.141" transform="translate(2.797 50.288)" fill="#888cf0"/>
                  <rect id="Rectángulo_293984" data-name="Rectángulo 293984" width="4.949" height="2.141" transform="translate(2.797 54.394)" fill="#888cf0"/>
                  <rect id="Rectángulo_293985" data-name="Rectángulo 293985" width="4.949" height="2.141" transform="translate(2.797 58.5)" fill="#888cf0"/>
                  <rect id="Rectángulo_293986" data-name="Rectángulo 293986" width="8.66" height="2.141" transform="translate(19.322 5.117)" fill="#ffc979"/>
                  <rect id="Rectángulo_293987" data-name="Rectángulo 293987" width="40.737" height="2.141" transform="translate(30.279 5.117)" fill="#888cf0"/>
                  <rect id="Rectángulo_293988" data-name="Rectángulo 293988" width="10.516" height="2.141" transform="translate(16.273 9.223)" fill="#ffc979"/>
                  <rect id="Rectángulo_293989" data-name="Rectángulo 293989" width="45.509" height="2.141" transform="translate(29.351 9.223)" fill="#888cf0"/>
                  <rect id="Rectángulo_293990" data-name="Rectángulo 293990" width="14.846" height="2.141" transform="translate(26.833 13.33)" fill="#ffc979"/>
                  <rect id="Rectángulo_293991" data-name="Rectángulo 293991" width="36.054" height="2.141" transform="translate(43.799 13.33)" fill="#888cf0"/>
                  <rect id="Rectángulo_293992" data-name="Rectángulo 293992" width="14.227" height="2.141" transform="translate(34.565 17.436)" fill="#ffc979"/>
                  <rect id="Rectángulo_293993" data-name="Rectángulo 293993" width="36.098" height="2.141" transform="translate(51.531 17.436)" fill="#888cf0"/>
                  <rect id="Rectángulo_293994" data-name="Rectángulo 293994" width="10.206" height="2.141" transform="translate(20.492 21.543)" fill="#ffc979"/>
                  <rect id="Rectángulo_293995" data-name="Rectángulo 293995" width="41.334" height="2.141" transform="translate(33.217 21.543)" fill="#888cf0"/>
                  <rect id="Rectángulo_293996" data-name="Rectángulo 293996" width="8.66" height="2.141" transform="translate(16.14 25.649)" fill="#ffc979"/>
                  <rect id="Rectángulo_293997" data-name="Rectángulo 293997" width="43.919" height="2.141" transform="translate(27.098 25.649)" fill="#888cf0"/>
                  <rect id="Rectángulo_293998" data-name="Rectángulo 293998" width="12.681" height="2.141" transform="translate(36.222 29.756)" fill="#ffc979"/>
                  <rect id="Rectángulo_293999" data-name="Rectángulo 293999" width="33.734" height="2.141" transform="translate(51.774 29.756)" fill="#888cf0"/>
                  <rect id="Rectángulo_294000" data-name="Rectángulo 294000" width="14.846" height="2.141" transform="translate(21.177 33.862)" fill="#ffc979"/>
                  <rect id="Rectángulo_294001" data-name="Rectángulo 294001" width="39.589" height="2.141" transform="translate(38.497 33.862)" fill="#888cf0"/>
                  <rect id="Rectángulo_294002" data-name="Rectángulo 294002" width="27.217" height="2.141" transform="translate(28.07 37.968)" fill="#ffc979"/>
                  <rect id="Rectángulo_294003" data-name="Rectángulo 294003" width="33.226" height="2.141" transform="translate(57.761 37.968)" fill="#888cf0"/>
                  <rect id="Rectángulo_294004" data-name="Rectángulo 294004" width="20.104" height="2.141" transform="translate(26.501 42.075)" fill="#ffc979"/>
                  <rect id="Rectángulo_294005" data-name="Rectángulo 294005" width="33.027" height="2.141" transform="translate(50.007 42.075)" fill="#888cf0"/>
                  <rect id="Rectángulo_294006" data-name="Rectángulo 294006" width="19.794" height="2.141" transform="translate(21.177 46.181)" fill="#ffc979"/>
                  <rect id="Rectángulo_294007" data-name="Rectángulo 294007" width="36.054" height="2.141" transform="translate(43.446 46.181)" fill="#888cf0"/>
                  <rect id="Rectángulo_294008" data-name="Rectángulo 294008" width="13.609" height="2.141" transform="translate(20.382 50.288)" fill="#ffc979"/>
                  <rect id="Rectángulo_294009" data-name="Rectángulo 294009" width="37.203" height="2.141" transform="translate(36.995 50.288)" fill="#888cf0"/>
                  <rect id="Rectángulo_294010" data-name="Rectángulo 294010" width="12.99" height="2.141" transform="translate(16.45 54.394)" fill="#ffc979"/>
                  <rect id="Rectángulo_294011" data-name="Rectángulo 294011" width="50.325" height="2.141" transform="translate(31.649 54.394)" fill="#888cf0"/>
                  <rect id="Rectángulo_294012" data-name="Rectángulo 294012" width="14.846" height="2.141" transform="translate(38.144 58.5)" fill="#ffc979"/>
                  <rect id="Rectángulo_294013" data-name="Rectángulo 294013" width="35.347" height="2.141" transform="translate(55.817 58.5)" fill="#888cf0"/>
                  <rect id="Rectángulo_294014" data-name="Rectángulo 294014" width="95.554" height="2.583" transform="translate(0 0.21)" fill="#888cf0" stroke="#888cf0" stroke-miterlimit="10" stroke-width="0.176"/>
                </g>
              </g>
            </g>
          </g>
          <g id="Grupo_131809" data-name="Grupo 131809" transform="translate(230.973 61.005)">
            <ellipse id="Elipse_5079" data-name="Elipse 5079" cx="16.696" cy="4.602" rx="16.696" ry="4.602" transform="translate(18.532 60.363)" fill="#001627" opacity="0.2"/>
            <g id="Grupo_131808" data-name="Grupo 131808">
              <path id="Trazado_191758" data-name="Trazado 191758" d="M412.927,312.746a3.5,3.5,0,0,1-4.92.584h0a3.5,3.5,0,0,1-.584-4.92l7.358-9.34a3.5,3.5,0,0,1,4.92-.584h0a3.5,3.5,0,0,1,.584,4.919Z" transform="translate(-394.513 -295.487)" fill="#afafaf"/>
              <path id="Trazado_191760" data-name="Trazado 191760" d="M417.676,394.548c-.107,3.188,6.325,4.706,14.472,4.979s14.922-.8,15.029-3.991-6.957-8.836-15.1-9.109S417.783,391.361,417.676,394.548Z" transform="translate(-398.908 -330.908)" fill="#e8e8e8"/>
              <path id="Trazado_191761" data-name="Trazado 191761" d="M446.718,387.017c4.4,2.331,7.422,6.053,7.339,8.533-.072,2.156-2.33,3.507-5.773,4.217,5.982-.223,10.408-1.42,10.494-3.992C458.87,392.994,453.5,388.339,446.718,387.017Z" transform="translate(-410.508 -331.147)" fill="#001627" opacity="0.1"/>
              <line id="Línea_409" data-name="Línea 409" x1="17.338" y2="57.152" transform="translate(34.586)" fill="none" stroke="#e8e8e8" stroke-linecap="round" stroke-miterlimit="10" stroke-width="2.138"/>
              <line id="Línea_410" data-name="Línea 410" x1="17.338" y2="57.152" transform="translate(38.118)" fill="none" stroke="#e8e8e8" stroke-linecap="round" stroke-miterlimit="10" stroke-width="2.138"/>
              <line id="Línea_411" data-name="Línea 411" y1="14.587" x2="43.82" transform="translate(15.792 3.825)" fill="none" stroke="#e8e8e8" stroke-linecap="round" stroke-miterlimit="10" stroke-width="2.138"/>
              <line id="Línea_412" data-name="Línea 412" y1="14.587" x2="43.82" transform="translate(13.912 0.835)" fill="none" stroke="#e8e8e8" stroke-linecap="round" stroke-miterlimit="10" stroke-width="2.138"/>
              <path id="Trazado_191762" data-name="Trazado 191762" d="M406.962,330.012a15.507,15.507,0,0,0,1.106-1.362c4.467-6.212,3.533-14.524-2.086-18.565s-13.8-2.28-18.263,3.931a15.406,15.406,0,0,0-.939,1.482Z" transform="translate(-386.569 -299.553)" fill="#e8e8e8"/>
              <path id="Trazado_191763" data-name="Trazado 191763" d="M405.982,311.377c-.117-.083-.241-.15-.359-.229,2.912,4.392,2.784,10.647-.765,15.583a15.506,15.506,0,0,1-1.106,1.362l-16.6-11.934c-.13.209-.256.419-.375.632L406.962,331.3a15.511,15.511,0,0,0,1.106-1.362C412.536,323.73,411.6,315.418,405.982,311.377Z" transform="translate(-386.569 -300.845)" fill="#001627" opacity="0.1"/>
              <path id="Trazado_191764" data-name="Trazado 191764" d="M395.241,329.4c5.689,4.037,11.025,6.289,11.918,5.031s-3-5.551-8.685-9.588-11.025-6.289-11.918-5.03S389.552,325.364,395.241,329.4Z" transform="translate(-386.428 -304.166)" fill="#fff"/>
            </g>
          </g>
          <g id="Grupo_131813" data-name="Grupo 131813" transform="translate(77.404)">
            <g id="Grupo_131810" data-name="Grupo 131810" transform="translate(37.772)">
              <path id="Trazado_191765" data-name="Trazado 191765" d="M202.165,249.442l-5.137,10.7,4.5,3.425Z" transform="translate(-194.983 -215.194)" fill="#edaa98"/>
              <path id="Trazado_191766" data-name="Trazado 191766" d="M205.388,227.2s-11.559,40.028,10.916,34.676l1.285,13.057,17.338,1.713.643-18.623s5.993-38.53,3-42.169S210.739,205.577,205.388,227.2Z" transform="translate(-197.135 -200.226)" fill="#ffc1ac"/>
              <path id="Trazado_191767" data-name="Trazado 191767" d="M209.8,227.2s-12.16,40.028,8,34.676l.524,14.047,17.975.723.576-18.623s5.377-38.53,2.689-42.169S214.6,205.577,209.8,227.2Z" transform="translate(-198.631 -200.226)" fill="#edaa98"/>
              <path id="Trazado_191768" data-name="Trazado 191768" d="M241.048,208.686a10.854,10.854,0,0,0-8.249-4.426c-.373-6.485-9.943-6.848-17.438-5.42-9.991,1.9-18.623-6.422-18.623-6.422-2.569,8.99,2.569,13.271,2.569,13.271-2.355-.428-5.566-4.923-5.566-4.923-1.284,9.632,8.348,15.839,8.348,15.839a10.507,10.507,0,0,0,3,8.348l.428,11.131h1.926a17.554,17.554,0,0,1,1.07-7.492c1.5-4.067,5.351-.428,4.709,6.208s-4.281,3.853-4.281,3.853c.642,5.137,7.278,12.629,7.278,12.629h15.626C247.47,225.81,245.115,214.038,241.048,208.686Z" transform="translate(-193.624 -192.418)" fill="#001627"/>
              <path id="Trazado_191769" data-name="Trazado 191769" d="M203.835,223.409a30.244,30.244,0,0,1,9.531-15.853c5.013-4.137,11.545-7.249,18.083-6.608-2.954-3.243-10.166-3.236-16.087-2.108-9.991,1.9-18.623-6.422-18.623-6.422-2.569,8.99,2.569,13.271,2.569,13.271-2.355-.428-5.566-4.923-5.566-4.923-1.284,9.632,8.348,15.839,8.348,15.839A9.9,9.9,0,0,0,203.835,223.409Z" transform="translate(-193.624 -192.418)" fill="#03243a"/>
              <path id="Trazado_191770" data-name="Trazado 191770" d="M222.414,254.5s-1.585-2.754-2.42-.333l-.584,5.09s3.088.835.584,2.42" transform="translate(-203.923 -216.681)" fill="none" stroke="#edaa98" stroke-miterlimit="10" stroke-width="1.948"/>
            </g>
            <g id="Grupo_131812" data-name="Grupo 131812" transform="translate(0 68.778)">
              <g id="Grupo_131811" data-name="Grupo 131811">
                <path id="Trazado_191771" data-name="Trazado 191771" d="M368.638,389.795s-1.288,3.393.468,4.447,12.288.936,12.638-2.223-2.223-6.553-5.383-7.372S368.638,389.795,368.638,389.795Z" transform="translate(-225.572 -337.943)" fill="#636363"/>
                <path id="Trazado_191772" data-name="Trazado 191772" d="M379.985,388.572a5.658,5.658,0,0,1,.122,1.885c-.315,2.842-8.863,3.222-11.858,2.5-.15,1.037-.1,2.306.858,2.88,1.756,1.053,12.288.936,12.638-2.223A6.77,6.77,0,0,0,379.985,388.572Z" transform="translate(-225.573 -339.542)" fill="#2d2d51"/>
                <path id="Trazado_191773" data-name="Trazado 191773" d="M357.834,381.962s8.309-5.032,9.479-4.681,2.341.819,2.341.819,1.638-.936,2.691-.468,5.851,2.341,5.032,3.511-3.51.234-3.51.234,3.394.819,3.979,1.521a1.257,1.257,0,0,1-1.287,1.521,22.856,22.856,0,0,1-5.032-1.287s-4.564,5.968-8.074,5.968S357.834,381.962,357.834,381.962Z" transform="translate(-221.439 -335.025)" fill="#ffc1ac"/>
                <path id="Trazado_191774" data-name="Trazado 191774" d="M148.156,380.663s-7.229-5.032-8.248-4.681-2.037.819-2.037.819-1.425-.936-2.342-.469-5.091,2.341-4.378,3.511,3.055.234,3.055.234-2.953.819-3.462,1.521c0,0-.2,1.521,1.12,1.521a17.861,17.861,0,0,0,4.378-1.287s3.971,5.968,7.026,5.968S148.156,380.663,148.156,380.663Z" transform="translate(-130.733 -334.506)" fill="#ffc1ac"/>
                <path id="Trazado_191775" data-name="Trazado 191775" d="M271.985,350.965c-3.211,0-18.733,5.67-18.733,5.67s-11.559-33.392-21.191-43.025-40.777-6.743-55.546-4.174c-9.368,1.629-15.582,14.068-18.508,43.909-6.155-3.207-9.079-4.459-11.7-3.8-7.022,1.756-5.266,10.24-5.266,10.24s11.6,8.662,16.09,9.947c2.748.785,9.849,10.044,14.921-23.112-.3,7.9-3.9,23.794-.673,41.164l62.932,5.779s-2.182-23.041-2.968-40.7c5.044,5.4,10.713,19.935,16.383,20.284,4.666.287,23.3-5.48,27.793-8.049S275.2,350.965,271.985,350.965Z" transform="translate(-134.771 -306.935)" fill="#ffb30b"/>
              </g>
              <path id="Trazado_191777" data-name="Trazado 191777" d="M268.372,473.922h29.189c3.783-7.724,7.161-15.937,6.822-17.77-3.211-17.338-49.432-21.444-49.432-21.444-6.4,1.98-10.822,3.5-17.573,4.288-14.388,1.673-28.863,1.142-43.281.074.749,6.907,1.844,13.065,3.439,17.082h51.977C256.583,460.261,262.813,467.35,268.372,473.922Z" transform="translate(-156.041 -357.968)" fill="#001627"/>
            </g>
          </g>
          <g id="Grupo_131817" data-name="Grupo 131817" transform="translate(102.902 84.765)">
            <g id="Grupo_131814" data-name="Grupo 131814" transform="translate(0 77.059)">
              <rect id="Rectángulo_294015" data-name="Rectángulo 294015" width="99.083" height="23.253" rx="10.692" transform="translate(0)" fill="#084a93"/>
              <path id="Trazado_191778" data-name="Trazado 191778" d="M243.374,479.142a6.1,6.1,0,0,1-5.791,6.363h-58.6a6.1,6.1,0,0,1-5.791-6.363v-9.936a6.1,6.1,0,0,1,5.791-6.363h58.6a6.1,6.1,0,0,1,5.791,6.363Z" transform="translate(-173.188 -462.251)" fill="#001627" opacity="0.4"/>
            </g>
            <g id="Grupo_131815" data-name="Grupo 131815" transform="translate(4.455)">
              <rect id="Rectángulo_294016" data-name="Rectángulo 294016" width="66.143" height="54.922" rx="9.833" fill="#084a93"/>
              <rect id="Rectángulo_294017" data-name="Rectángulo 294017" width="59.646" height="49.064" rx="8.867" transform="translate(0 5.858)" fill="#001627" opacity="0.4"/>
            </g>
            <g id="Grupo_131816" data-name="Grupo 131816" transform="translate(29.931 30.118)">
              <path id="Trazado_191779" data-name="Trazado 191779" d="M234.245,453.549V389.312a5.61,5.61,0,1,0-11.221,0v64.238Z" transform="translate(-223.024 -383.701)" fill="#6e7989"/>
              <path id="Trazado_191780" data-name="Trazado 191780" d="M236.992,453.924H239.6V389.687a5.606,5.606,0,0,0-3.171-5.047,5.578,5.578,0,0,1,.565,2.44Z" transform="translate(-228.377 -384.076)" fill="#001627" opacity="0.2"/>
            </g>
          </g>
        </g>
        <g id="Grupo_131847" data-name="Grupo 131847" transform="translate(27.483 0)">
          <g id="Grupo_131823" data-name="Grupo 131823" transform="translate(70.991 7.307)">
            <g id="Grupo_131820" data-name="Grupo 131820" transform="translate(105.014)">
              <path id="Trazado_191781" data-name="Trazado 191781" d="M399.357,33.216H352.388a6.119,6.119,0,0,0-6.119,6.119V68.16a6.119,6.119,0,0,0,6.119,6.119h21.1L370.12,86.694h3.365l13.421-12.415h12.451a6.119,6.119,0,0,0,6.119-6.119V39.335A6.119,6.119,0,0,0,399.357,33.216Z" transform="translate(-342.903 -33.216)" fill="#b9ddfc"/>
              <path id="Trazado_191782" data-name="Trazado 191782" d="M393.754,33.216h-46.97a6.119,6.119,0,0,0-6.119,6.119V68.16a6.119,6.119,0,0,0,6.119,6.119h21.1V86.694L381.3,74.279h12.452a6.119,6.119,0,0,0,6.119-6.119V39.335A6.119,6.119,0,0,0,393.754,33.216Z" transform="translate(-340.665 -33.216)" fill="#fff"/>
              <g id="Grupo_131819" data-name="Grupo 131819" transform="translate(9.784 13.722)">
                <path id="Trazado_191783" data-name="Trazado 191783" d="M363.4,59.024a2.3,2.3,0,0,0-2.01,1.055,5.1,5.1,0,0,0-.722,2.91q0,3.855,2.933,3.855a6,6,0,0,0,1.717-.247A17.107,17.107,0,0,0,366.987,66v3.052a9.257,9.257,0,0,1-3.782.74,5.983,5.983,0,0,1-4.637-1.754,7.234,7.234,0,0,1-1.612-5.07,8.092,8.092,0,0,1,.781-3.645,5.587,5.587,0,0,1,2.247-2.416,6.785,6.785,0,0,1,3.449-.845,9.5,9.5,0,0,1,4.139.941l-1.106,2.841a12.388,12.388,0,0,0-1.48-.584A5.169,5.169,0,0,0,363.4,59.024Z" transform="translate(-356.956 -56.064)" fill="#b9ddfc"/>
                <path id="Trazado_191784" data-name="Trazado 191784" d="M383.811,69.74l-2.731-9.62H381q.192,2.458.192,3.819v5.8h-3.2V56.383H382.8l2.786,9.483h.073l2.732-9.483H393.2V69.74h-3.316V63.884q0-.457.013-1.014t.124-2.732h-.082l-2.695,9.6Z" transform="translate(-365.358 -56.191)" fill="#b9ddfc"/>
                <path id="Trazado_191785" data-name="Trazado 191785" d="M416.43,65.556a3.945,3.945,0,0,1-.63,2.207,4.131,4.131,0,0,1-1.818,1.5,6.744,6.744,0,0,1-2.787.535,11.264,11.264,0,0,1-2.238-.187,8.29,8.29,0,0,1-1.882-.653V65.738a10.775,10.775,0,0,0,2.147.827,8.013,8.013,0,0,0,2.046.3,1.984,1.984,0,0,0,1.178-.279.856.856,0,0,0,.375-.717.79.79,0,0,0-.151-.479,1.752,1.752,0,0,0-.484-.416q-.333-.211-1.777-.859a8.508,8.508,0,0,1-1.959-1.151,3.526,3.526,0,0,1-.969-1.279,4.245,4.245,0,0,1-.315-1.709,3.425,3.425,0,0,1,1.343-2.877,5.92,5.92,0,0,1,3.691-1.032,10.354,10.354,0,0,1,4.229.959l-1.105,2.786a8.012,8.012,0,0,0-3.234-.858,1.689,1.689,0,0,0-1.023.246.748.748,0,0,0-.32.612.885.885,0,0,0,.407.7,15.581,15.581,0,0,0,2.206,1.133,6.1,6.1,0,0,1,2.4,1.667A3.618,3.618,0,0,1,416.43,65.556Z" transform="translate(-376.974 -56.064)" fill="#b9ddfc"/>
              </g>
            </g>
            <g id="Grupo_131822" data-name="Grupo 131822" transform="translate(0 53.237)">
              <path id="Trazado_191786" data-name="Trazado 191786" d="M217.73,121.857H176.184a5.413,5.413,0,0,0-5.413,5.413v25.5a5.409,5.409,0,0,0,5.068,5.4l-2.977,10.154h2.977L186.8,158.179H217.73a5.412,5.412,0,0,0,5.413-5.412v-25.5A5.412,5.412,0,0,0,217.73,121.857Z" transform="translate(-167.794 -121.857)" fill="#b9ddfc"/>
              <path id="Trazado_191787" data-name="Trazado 191787" d="M212.774,121.857H171.228a5.413,5.413,0,0,0-5.413,5.413v25.5a5.409,5.409,0,0,0,5.068,5.4v10.154l10.958-10.137h30.933a5.412,5.412,0,0,0,5.413-5.412v-25.5A5.413,5.413,0,0,0,212.774,121.857Z" transform="translate(-165.815 -121.857)" fill="#fff"/>
              <g id="Grupo_131821" data-name="Grupo 131821" transform="translate(7.95 8.524)">
                <path id="Trazado_191788" data-name="Trazado 191788" d="M187.009,139.707a2.843,2.843,0,0,0-2.483,1.3,6.293,6.293,0,0,0-.892,3.595q0,4.763,3.623,4.763a7.406,7.406,0,0,0,2.122-.305,21.22,21.22,0,0,0,2.065-.733v3.77a11.439,11.439,0,0,1-4.673.914,7.392,7.392,0,0,1-5.728-2.167,8.938,8.938,0,0,1-1.992-6.264,10,10,0,0,1,.965-4.5,6.91,6.91,0,0,1,2.777-2.985,8.386,8.386,0,0,1,4.261-1.044,11.741,11.741,0,0,1,5.113,1.163l-1.366,3.51a15.39,15.39,0,0,0-1.829-.722A6.381,6.381,0,0,0,187.009,139.707Z" transform="translate(-179.052 -136.05)" fill="#b9ddfc"/>
                <path id="Trazado_191789" data-name="Trazado 191789" d="M207.625,148.1h-4.2v-3.025h4.2v-4.142h3.036v4.142h4.2V148.1h-4.2v4.074h-3.036Z" transform="translate(-188.787 -138.002)" fill="#b9ddfc"/>
                <path id="Trazado_191790" data-name="Trazado 191790" d="M229.4,148.1h-4.2v-3.025h4.2v-4.142h3.037v4.142h4.2V148.1h-4.2v4.074H229.4Z" transform="translate(-197.486 -138.002)" fill="#b9ddfc"/>
              </g>
            </g>
          </g>
          <g id="Grupo_131829" data-name="Grupo 131829" transform="translate(0 30.125)">
            <g id="Grupo_131825" data-name="Grupo 131825" transform="translate(131.588)">
              <circle id="Elipse_5080" data-name="Elipse 5080" cx="16.653" cy="16.653" r="16.653" transform="translate(3.557 0)" fill="#83c3fb"/>
              <circle id="Elipse_5081" data-name="Elipse 5081" cx="16.653" cy="16.653" r="16.653" fill="#b9ddfc"/>
              <g id="Grupo_131824" data-name="Grupo 131824" transform="translate(3.344 11.061)">
                <path id="Trazado_191791" data-name="Trazado 191791" d="M277.564,92.054a1.888,1.888,0,0,0-1.649.866,4.179,4.179,0,0,0-.593,2.388q0,3.164,2.407,3.164a4.926,4.926,0,0,0,1.41-.2,14.217,14.217,0,0,0,1.372-.487v2.5a7.6,7.6,0,0,1-3.1.607,4.908,4.908,0,0,1-3.8-1.44,5.937,5.937,0,0,1-1.324-4.161,6.637,6.637,0,0,1,.641-2.992,4.588,4.588,0,0,1,1.844-1.983,5.576,5.576,0,0,1,2.831-.693,7.8,7.8,0,0,1,3.4.772l-.908,2.332a10.085,10.085,0,0,0-1.214-.48A4.233,4.233,0,0,0,277.564,92.054Z" transform="translate(-272.278 -89.625)" fill="#fff"/>
                <path id="Trazado_191792" data-name="Trazado 191792" d="M296.371,97.415a3.232,3.232,0,0,1-.518,1.811,3.386,3.386,0,0,1-1.492,1.229,5.529,5.529,0,0,1-2.286.438,9.237,9.237,0,0,1-1.837-.154,6.813,6.813,0,0,1-1.544-.536V97.565a8.821,8.821,0,0,0,1.762.678,6.557,6.557,0,0,0,1.68.244,1.63,1.63,0,0,0,.967-.229.7.7,0,0,0,.308-.589.649.649,0,0,0-.124-.393,1.435,1.435,0,0,0-.4-.341q-.273-.173-1.458-.705a6.987,6.987,0,0,1-1.608-.944,2.906,2.906,0,0,1-.8-1.05,3.487,3.487,0,0,1-.258-1.4,2.809,2.809,0,0,1,1.1-2.362,4.859,4.859,0,0,1,3.029-.847,8.508,8.508,0,0,1,3.471.787l-.908,2.287a6.577,6.577,0,0,0-2.654-.705,1.385,1.385,0,0,0-.84.2.614.614,0,0,0-.262.5.724.724,0,0,0,.334.577,12.708,12.708,0,0,0,1.81.93,5.005,5.005,0,0,1,1.968,1.368A2.972,2.972,0,0,1,296.371,97.415Z" transform="translate(-278.835 -89.625)" fill="#fff"/>
                <path id="Trazado_191793" data-name="Trazado 191793" d="M311.126,97.415a3.236,3.236,0,0,1-.517,1.811,3.39,3.39,0,0,1-1.492,1.229,5.53,5.53,0,0,1-2.287.438,9.231,9.231,0,0,1-1.837-.154,6.817,6.817,0,0,1-1.545-.536V97.565a8.826,8.826,0,0,0,1.762.678,6.549,6.549,0,0,0,1.679.244,1.63,1.63,0,0,0,.967-.229.7.7,0,0,0,.308-.589.645.645,0,0,0-.124-.393,1.441,1.441,0,0,0-.4-.341q-.274-.173-1.458-.705a7,7,0,0,1-1.608-.944,2.9,2.9,0,0,1-.795-1.05,3.486,3.486,0,0,1-.259-1.4,2.811,2.811,0,0,1,1.1-2.362,4.86,4.86,0,0,1,3.029-.847,8.508,8.508,0,0,1,3.471.787l-.907,2.287a6.578,6.578,0,0,0-2.654-.705,1.389,1.389,0,0,0-.84.2.614.614,0,0,0-.262.5.726.726,0,0,0,.334.577,12.693,12.693,0,0,0,1.811.93,5.01,5.01,0,0,1,1.968,1.368A2.975,2.975,0,0,1,311.126,97.415Z" transform="translate(-284.728 -89.625)" fill="#fff"/>
              </g>
            </g>
            <g id="Grupo_131828" data-name="Grupo 131828" transform="translate(0 27.628)">
              <g id="Grupo_131826" data-name="Grupo 131826">
                <path id="Trazado_191794" data-name="Trazado 191794" d="M98.673,139.643A22.424,22.424,0,1,0,84.827,160.37l2.736,6.456h3.72V156.283A22.376,22.376,0,0,0,98.673,139.643Z" transform="translate(-50.087 -117.21)" fill="#83c3fb"/>
                <path id="Trazado_191795" data-name="Trazado 191795" d="M92.479,139.643A22.424,22.424,0,1,0,78.633,160.37l6.456,6.456V156.283A22.375,22.375,0,0,0,92.479,139.643Z" transform="translate(-47.613 -117.21)" fill="#b9ddfc"/>
              </g>
              <g id="Grupo_131827" data-name="Grupo 131827" transform="translate(12.008 9.925)">
                <path id="Trazado_191796" data-name="Trazado 191796" d="M70.1,157.085a11.73,11.73,0,0,1-2.492-.255V153.1q.389.073.826.164a4.658,4.658,0,0,0,.948.091,1.944,1.944,0,0,0,1.7-.717,4.394,4.394,0,0,0,.511-2.455V133.735h4.826v16.033a8.223,8.223,0,0,1-1.58,5.464A5.885,5.885,0,0,1,70.1,157.085Z" transform="translate(-67.606 -133.735)" fill="#fff"/>
                <path id="Trazado_191797" data-name="Trazado 191797" d="M98.715,149.774a3.915,3.915,0,0,1-1.507,3.342,7.113,7.113,0,0,1-4.327,1.13,18.8,18.8,0,0,1-2.662-.164,11.3,11.3,0,0,1-2.31-.6v-3.8a14.3,14.3,0,0,0,2.425.8,10.216,10.216,0,0,0,2.352.317q1.544,0,1.544-.705a.8.8,0,0,0-.431-.65,19.747,19.747,0,0,0-2.51-1.112,6.251,6.251,0,0,1-2.65-1.768,4.027,4.027,0,0,1-.754-2.51,3.476,3.476,0,0,1,1.483-2.99,7.078,7.078,0,0,1,4.193-1.07,10.564,10.564,0,0,1,2.559.3,15.125,15.125,0,0,1,2.485.869l-1.288,3.063a14.462,14.462,0,0,0-2.005-.724,6.685,6.685,0,0,0-1.726-.3q-1.167,0-1.167.571a.712.712,0,0,0,.407.6,22.1,22.1,0,0,0,2.352,1.015,9.027,9.027,0,0,1,2.157,1.166,3.5,3.5,0,0,1,1.046,1.344A4.719,4.719,0,0,1,98.715,149.774Z" transform="translate(-75.706 -136.233)" fill="#fff"/>
              </g>
            </g>
          </g>
          <g id="Grupo_131836" data-name="Grupo 131836" transform="translate(28.398)">
            <g id="Grupo_131832" data-name="Grupo 131832">
              <g id="Grupo_131830" data-name="Grupo 131830">
                <path id="Trazado_191798" data-name="Trazado 191798" d="M137.766,21.05H104.683a4.691,4.691,0,0,0-4.691,4.691V58.824a4.691,4.691,0,0,0,4.691,4.691h19.453l7.61,9.182h3.061V63.516h2.96a4.691,4.691,0,0,0,4.691-4.691V25.741A4.691,4.691,0,0,0,137.766,21.05Z" transform="translate(-96.931 -21.05)" fill="#2e2e59"/>
                <path id="Trazado_191799" data-name="Trazado 191799" d="M132.67,21.05H99.587A4.691,4.691,0,0,0,94.9,25.741V58.824a4.691,4.691,0,0,0,4.691,4.691H119.04L129.711,72.7V63.516h2.96a4.691,4.691,0,0,0,4.691-4.691V25.741A4.691,4.691,0,0,0,132.67,21.05Z" transform="translate(-94.896 -21.05)" fill="#084a93"/>
              </g>
              <g id="Grupo_131831" data-name="Grupo 131831" transform="translate(5.819 12.439)">
                <path id="Trazado_191800" data-name="Trazado 191800" d="M115.563,57.219l-10.979-4.876V50.475l10.979-5.495v3.225l-6.733,3.073,6.733,2.737Z" transform="translate(-104.584 -43.047)" fill="#fff"/>
                <path id="Trazado_191801" data-name="Trazado 191801" d="M134.095,41.762l-5.918,16.322h-3.757l5.918-16.322Z" transform="translate(-112.506 -41.762)" fill="#fff"/>
                <path id="Trazado_191802" data-name="Trazado 191802" d="M141.9,54.015l6.733-2.737L141.9,48.205V44.98l10.979,5.495v1.868L141.9,57.219Z" transform="translate(-119.489 -43.047)" fill="#fff"/>
              </g>
            </g>
            <g id="Grupo_131835" data-name="Grupo 131835" transform="translate(172.226 96.184)">
              <g id="Grupo_131833" data-name="Grupo 131833">
                <path id="Trazado_191803" data-name="Trazado 191803" d="M420.155,181.2H390.987a4.136,4.136,0,0,0-4.136,4.136V202.8a4.136,4.136,0,0,0,4.136,4.136l-1.778,8.219h3.121l8.885-8.219h18.94a4.136,4.136,0,0,0,4.136-4.136V185.334A4.136,4.136,0,0,0,420.155,181.2Z" transform="translate(-383.731 -181.198)" fill="#2e2e59"/>
                <path id="Trazado_191804" data-name="Trazado 191804" d="M414.96,181.2H385.792a4.136,4.136,0,0,0-4.136,4.136V202.8a4.136,4.136,0,0,0,4.136,4.136h1.343v8.219l8.885-8.219h18.94A4.136,4.136,0,0,0,419.1,202.8V185.334A4.136,4.136,0,0,0,414.96,181.2Z" transform="translate(-381.656 -181.198)" fill="#084a93"/>
              </g>
              <g id="Grupo_131834" data-name="Grupo 131834" transform="translate(5.932 9.553)">
                <path id="Trazado_191805" data-name="Trazado 191805" d="M397.789,205.036h-1.3v-3.575H392.83v3.575h-1.3V197.1h1.3v3.244h3.657V197.1h1.3Z" transform="translate(-391.533 -197.104)" fill="#fff"/>
                <path id="Trazado_191806" data-name="Trazado 191806" d="M407.576,205.036h-1.3v-6.82h-2.333V197.1h5.963v1.112h-2.333Z" transform="translate(-396.491 -197.104)" fill="#fff"/>
                <path id="Trazado_191807" data-name="Trazado 191807" d="M419.327,205.036l-2.3-6.625h-.043q.092,1.476.092,2.767v3.858H415.9V197.1h1.828l2.2,6.31h.032l2.268-6.31h1.834v7.932h-1.248v-3.923q0-.592.03-1.541t.052-1.15h-.043l-2.382,6.614Z" transform="translate(-401.265 -197.104)" fill="#fff"/>
                <path id="Trazado_191808" data-name="Trazado 191808" d="M432.972,205.036V197.1h1.3v6.82h3.359v1.112Z" transform="translate(-408.084 -197.104)" fill="#fff"/>
              </g>
            </g>
          </g>
          <g id="Grupo_131846" data-name="Grupo 131846" transform="translate(8.634 16.041)">
            <g id="Grupo_131840" data-name="Grupo 131840" transform="translate(143.484 52.323)">
              <path id="Trazado_191811" data-name="Trazado 191811" d="M341.232,152.728a17.851,17.851,0,1,0-20.128,17.7l2.4,7.622h2.785l2.4-8.275A17.86,17.86,0,0,0,341.232,152.728Z" transform="translate(-302.745 -134.877)" fill="#d8a159"/>
              <path id="Trazado_191812" data-name="Trazado 191812" d="M336.6,152.728a17.851,17.851,0,1,0-20.127,17.7l5.182,7.622,2.4-8.275A17.859,17.859,0,0,0,336.6,152.728Z" transform="translate(-300.893 -134.877)" fill="#ffc979"/>
              <g id="Grupo_131839" data-name="Grupo 131839" transform="translate(6.528 12.533)">
                <path id="Trazado_191813" data-name="Trazado 191813" d="M318.56,158.725a3.138,3.138,0,0,1-.925,2.425A3.735,3.735,0,0,1,315,162h-.711v3.108h-2.531v-9.368H315a3.964,3.964,0,0,1,2.665.775A2.765,2.765,0,0,1,318.56,158.725Zm-4.267,1.217h.461a1.263,1.263,0,0,0,.907-.32,1.165,1.165,0,0,0,.336-.885q0-.948-1.051-.948h-.653Z" transform="translate(-311.762 -155.745)" fill="#084a93"/>
                <path id="Trazado_191814" data-name="Trazado 191814" d="M333.6,165.113h-2.544v-3.819h-2.941v3.819h-2.544v-9.368h2.544v3.473h2.941v-3.473H333.6Z" transform="translate(-317.276 -155.745)" fill="#084a93"/>
                <path id="Trazado_191815" data-name="Trazado 191815" d="M349.1,158.725a3.138,3.138,0,0,1-.925,2.425,3.735,3.735,0,0,1-2.631.855h-.711v3.108h-2.531v-9.368h3.242a3.964,3.964,0,0,1,2.665.775A2.765,2.765,0,0,1,349.1,158.725Zm-4.267,1.217h.461a1.263,1.263,0,0,0,.907-.32,1.165,1.165,0,0,0,.336-.885q0-.948-1.051-.948h-.653Z" transform="translate(-323.961 -155.745)" fill="#084a93"/>
              </g>
            </g>
            <g id="Grupo_131845" data-name="Grupo 131845" transform="translate(75.154)">
              <path id="Trazado_191816" data-name="Trazado 191816" d="M215.144,47.758H194.869a2.875,2.875,0,0,0-2.875,2.875V70.908a2.875,2.875,0,0,0,2.875,2.875h10.124l5.534,7.351h2.925V73.784h1.691a2.875,2.875,0,0,0,2.875-2.875V50.633A2.875,2.875,0,0,0,215.144,47.758Z" transform="translate(-189.068 -47.758)" fill="#d8a159"/>
              <path id="Trazado_191817" data-name="Trazado 191817" d="M210.272,47.758H190a2.875,2.875,0,0,0-2.876,2.875V70.908A2.875,2.875,0,0,0,190,73.784h10.124l8.46,7.351V73.784h1.691a2.875,2.875,0,0,0,2.875-2.875V50.633A2.875,2.875,0,0,0,210.272,47.758Z" transform="translate(-187.122 -47.758)" fill="#ffc979"/>
              <g id="Grupo_131844" data-name="Grupo 131844" transform="translate(3.906 3.92)">
                <g id="Grupo_131841" data-name="Grupo 131841" transform="translate(11.339 11.339)">
                  <path id="Trazado_191818" data-name="Trazado 191818" d="M219.463,77.932a1.55,1.55,0,0,1,0,2.191h0a1.55,1.55,0,0,1-2.191,0l-4.313-4.313a1.55,1.55,0,0,1,0-2.191h0a1.549,1.549,0,0,1,2.191,0Z" transform="translate(-212.505 -73.165)" fill="#084a93"/>
                </g>
                <g id="Grupo_131842" data-name="Grupo 131842">
                  <path id="Trazado_191819" data-name="Trazado 191819" d="M203.968,64.628a6.06,6.06,0,1,1,0-8.57A6.067,6.067,0,0,1,203.968,64.628Zm-7.6-7.6a4.693,4.693,0,1,0,6.637,0A4.7,4.7,0,0,0,196.365,57.025Z" transform="translate(-193.626 -54.285)" fill="#084a93"/>
                </g>
                <g id="Grupo_131843" data-name="Grupo 131843" transform="translate(9.376 9.376)">
                  <rect id="Rectángulo_294018" data-name="Rectángulo 294018" width="1.367" height="6.646" transform="translate(0 0.967) rotate(-45)" fill="#084a93"/>
                </g>
              </g>
            </g>
          </g>
        </g>
      </g>
    </g>
  </g>
</svg>
