<?xml version="1.0" encoding="utf-8"?>
<!-- Generator: Adobe Illustrator 26.1.0, SVG Export Plug-In . SVG Version: 6.00 Build 0)  -->
<svg version="1.1" id="Capa_1" xmlns="http://www.w3.org/2000/svg" xmlns:xlink="http://www.w3.org/1999/xlink" x="0px" y="0px"
	 viewBox="0 0 517.7 284.9" style="enable-background:new 0 0 517.7 284.9;" xml:space="preserve">
<style type="text/css">
	.st0{fill:#FFFFFF;}
	.st1{fill:#ECF2F9;}
	.st2{fill:none;}
	.st3{fill:none;stroke:#D9D9D9;}
	.st4{enable-background:new    ;}
	.st5{fill:#0C1D30;}
	.st6{fill:#FFB30B;}
</style>
<g id="Grupo_140179" transform="translate(-834.911 -4338.123)">
	<g id="Grupo_134716">
		<g id="Grupo_109589" transform="translate(21.899 1109)">
			<g id="Grupo_135007" transform="translate(0 13)">
				<g id="Grupo_135010">
					<rect id="Rectángulo_294330" x="813.1" y="3220" class="st0" width="517" height="281"/>
					<g id="Grupo_135006" transform="translate(2735.393 1155.951)">
						<rect id="Rectángulo_293424" x="-1922.3" y="2061.3" class="st1" width="517.4" height="40.2"/>
						<g id="Rectángulo_293414">
							<rect id="Rectángulo_294312" x="-1922.3" y="2061" class="st2" width="130.5" height="283.4"/>
							<rect id="Rectángulo_294313" x="-1921.9" y="2061.5" class="st3" width="129.7" height="282.5"/>
						</g>
						<g id="Operador" transform="translate(-5)">
							<g class="st4">
								<path class="st5" d="M-1905.2,2083.2c0,1-0.2,1.8-0.5,2.5c-0.3,0.7-0.8,1.3-1.5,1.7c-0.6,0.4-1.4,0.6-2.2,0.6
									c-0.8,0-1.5-0.2-2.2-0.6c-0.6-0.4-1.1-0.9-1.5-1.7c-0.3-0.7-0.5-1.5-0.5-2.5v-0.5c0-1,0.2-1.8,0.5-2.5
									c0.3-0.7,0.8-1.3,1.5-1.7c0.6-0.4,1.3-0.6,2.2-0.6s1.5,0.2,2.2,0.6c0.6,0.4,1.1,0.9,1.5,1.7c0.3,0.7,0.5,1.6,0.5,2.5V2083.2
									z M-1907.3,2082.8c0-1-0.2-1.8-0.5-2.3c-0.4-0.5-0.9-0.8-1.6-0.8c-0.7,0-1.2,0.3-1.6,0.8c-0.4,0.5-0.5,1.3-0.6,2.3v0.5
									c0,1,0.2,1.8,0.5,2.3s0.9,0.8,1.6,0.8c0.7,0,1.2-0.3,1.5-0.8c0.4-0.5,0.5-1.3,0.5-2.3V2082.8z"/>
								<path class="st5" d="M-1897.4,2084.3c0,1.1-0.3,2-0.8,2.7c-0.5,0.7-1.2,1-2,1c-0.7,0-1.3-0.3-1.8-0.8v3.4h-1.9v-10h1.8
									l0.1,0.7c0.5-0.6,1.1-0.8,1.8-0.8c0.9,0,1.6,0.3,2.1,1C-1897.7,2082.2-1897.4,2083.1-1897.4,2084.3L-1897.4,2084.3z
									 M-1899.3,2084.2c0-0.7-0.1-1.2-0.4-1.6c-0.2-0.4-0.6-0.5-1-0.5c-0.6,0-1,0.2-1.2,0.7v3c0.2,0.5,0.7,0.7,1.3,0.7
									C-1899.8,2086.4-1899.3,2085.7-1899.3,2084.2z"/>
								<path class="st5" d="M-1892.9,2088c-1.1,0-1.9-0.3-2.6-1c-0.7-0.6-1-1.5-1-2.6v-0.2c0-0.7,0.1-1.4,0.4-1.9
									c0.3-0.6,0.7-1,1.2-1.3c0.5-0.3,1.1-0.5,1.8-0.5c1,0,1.8,0.3,2.3,0.9s0.9,1.5,0.9,2.6v0.8h-4.6c0.1,0.5,0.2,0.8,0.6,1.1
									c0.3,0.3,0.7,0.4,1.2,0.4c0.7,0,1.3-0.3,1.7-0.8l0.9,1.1c-0.3,0.4-0.7,0.7-1.2,1C-1891.8,2087.9-1892.3,2088-1892.9,2088z
									 M-1893.1,2082.1c-0.4,0-0.7,0.1-0.9,0.4s-0.4,0.6-0.5,1.1h2.7v-0.2c0-0.4-0.1-0.8-0.3-1
									C-1892.4,2082.2-1892.7,2082.1-1893.1,2082.1z"/>
								<path class="st5" d="M-1884.8,2082.5c-0.3,0-0.5-0.1-0.7-0.1c-0.7,0-1.2,0.2-1.4,0.7v4.7h-1.9v-7.2h1.8l0.1,0.9
									c0.4-0.7,0.9-1,1.6-1c0.2,0,0.4,0,0.6,0.1L-1884.8,2082.5z"/>
								<path class="st5" d="M-1879.9,2087.9c-0.1-0.2-0.2-0.4-0.2-0.6c-0.5,0.5-1.1,0.8-1.8,0.8c-0.7,0-1.3-0.2-1.8-0.6
									c-0.5-0.4-0.7-0.9-0.7-1.5c0-0.8,0.3-1.4,0.9-1.8c0.6-0.4,1.4-0.6,2.5-0.6h0.9v-0.4c0-0.3-0.1-0.6-0.3-0.8
									c-0.2-0.2-0.4-0.3-0.8-0.3c-0.3,0-0.6,0.1-0.8,0.2c-0.2,0.2-0.3,0.4-0.3,0.6h-1.9c0-0.4,0.1-0.8,0.4-1.2
									c0.3-0.4,0.6-0.6,1.1-0.8s1-0.3,1.6-0.3c0.9,0,1.6,0.2,2.1,0.7c0.5,0.4,0.8,1.1,0.8,1.9v3.1c0,0.7,0.1,1.2,0.3,1.6v0.1
									H-1879.9z M-1881.5,2086.5c0.3,0,0.5-0.1,0.8-0.2c0.2-0.1,0.4-0.3,0.5-0.5v-1.2h-0.7c-1,0-1.5,0.3-1.5,1l0,0.1
									c0,0.2,0.1,0.4,0.3,0.6C-1882,2086.4-1881.8,2086.5-1881.5,2086.5z"/>
								<path class="st5" d="M-1877,2084.2c0-1.1,0.3-2,0.8-2.7c0.5-0.7,1.2-1,2.1-1c0.7,0,1.3,0.3,1.7,0.8v-3.7h1.9v10.2h-1.7
									l-0.1-0.8c-0.5,0.6-1.1,0.9-1.9,0.9c-0.8,0-1.5-0.3-2-1C-1876.8,2086.3-1877,2085.4-1877,2084.2z M-1875.1,2084.3
									c0,0.7,0.1,1.2,0.4,1.6c0.2,0.4,0.6,0.5,1,0.5c0.6,0,1-0.3,1.3-0.8v-2.9c-0.2-0.5-0.7-0.8-1.2-0.8
									C-1874.6,2082.1-1875.1,2082.8-1875.1,2084.3z"/>
								<path class="st5" d="M-1869.3,2084.2c0-0.7,0.1-1.4,0.4-1.9c0.3-0.6,0.7-1,1.2-1.3c0.5-0.3,1.1-0.5,1.8-0.5
									c1,0,1.8,0.3,2.4,0.9s1,1.4,1,2.4l0,0.5c0,1.1-0.3,2-0.9,2.7c-0.6,0.7-1.4,1-2.5,1c-1,0-1.9-0.3-2.5-1
									C-1869,2086.3-1869.3,2085.4-1869.3,2084.2L-1869.3,2084.2z M-1867.4,2084.3c0,0.7,0.1,1.2,0.4,1.6c0.3,0.4,0.6,0.5,1.1,0.5
									c0.5,0,0.8-0.2,1.1-0.5s0.4-0.9,0.4-1.7c0-0.7-0.1-1.2-0.4-1.6c-0.3-0.4-0.6-0.6-1.1-0.6c-0.5,0-0.8,0.2-1.1,0.6
									S-1867.4,2083.6-1867.4,2084.3z"/>
								<path class="st5" d="M-1857.3,2082.5c-0.3,0-0.5-0.1-0.7-0.1c-0.7,0-1.2,0.2-1.4,0.7v4.7h-1.9v-7.2h1.8l0.1,0.9
									c0.4-0.7,0.9-1,1.6-1c0.2,0,0.4,0,0.6,0.1L-1857.3,2082.5z"/>
								<path class="st5" d="M-1848.8,2087.9c-0.1-0.2-0.2-0.4-0.2-0.6c-0.5,0.5-1.1,0.8-1.8,0.8c-0.7,0-1.3-0.2-1.8-0.6
									c-0.5-0.4-0.7-0.9-0.7-1.5c0-0.8,0.3-1.4,0.9-1.8c0.6-0.4,1.4-0.6,2.5-0.6h0.9v-0.4c0-0.3-0.1-0.6-0.3-0.8
									c-0.2-0.2-0.4-0.3-0.8-0.3c-0.3,0-0.6,0.1-0.8,0.2c-0.2,0.2-0.3,0.4-0.3,0.6h-1.9c0-0.4,0.1-0.8,0.4-1.2
									c0.3-0.4,0.6-0.6,1.1-0.8s1-0.3,1.6-0.3c0.9,0,1.6,0.2,2.1,0.7c0.5,0.4,0.8,1.1,0.8,1.9v3.1c0,0.7,0.1,1.2,0.3,1.6v0.1
									H-1848.8z M-1850.4,2086.5c0.3,0,0.5-0.1,0.8-0.2c0.2-0.1,0.4-0.3,0.5-0.5v-1.2h-0.7c-1,0-1.5,0.3-1.5,1l0,0.1
									c0,0.2,0.1,0.4,0.3,0.6C-1850.9,2086.4-1850.6,2086.5-1850.4,2086.5z"/>
								<path class="st5" d="M-1841.6,2082.5c-0.3,0-0.5-0.1-0.7-0.1c-0.7,0-1.2,0.2-1.4,0.7v4.7h-1.9v-7.2h1.8l0.1,0.9
									c0.4-0.7,0.9-1,1.6-1c0.2,0,0.4,0,0.6,0.1L-1841.6,2082.5z"/>
								<path class="st5" d="M-1840.7,2078.8c0-0.3,0.1-0.5,0.3-0.7s0.5-0.3,0.8-0.3c0.3,0,0.6,0.1,0.8,0.3c0.2,0.2,0.3,0.4,0.3,0.7
									c0,0.3-0.1,0.5-0.3,0.7s-0.5,0.3-0.8,0.3s-0.6-0.1-0.8-0.3S-1840.7,2079.1-1840.7,2078.8z M-1838.6,2087.9h-1.9v-7.2h1.9
									V2087.9z"/>
								<path class="st5" d="M-1834.7,2078.9v1.8h1.2v1.4h-1.2v3.6c0,0.3,0.1,0.5,0.2,0.6c0.1,0.1,0.3,0.2,0.6,0.2
									c0.2,0,0.4,0,0.6,0v1.5c-0.4,0.1-0.8,0.2-1.2,0.2c-1.4,0-2-0.7-2.1-2v-3.9h-1.1v-1.4h1.1v-1.8H-1834.7z"/>
								<path class="st5" d="M-1830.6,2080.6l0.1,0.8c0.5-0.6,1.2-0.9,2.1-0.9c0.9,0,1.6,0.4,1.9,1.1c0.5-0.7,1.2-1.1,2.2-1.1
									c0.8,0,1.4,0.2,1.7,0.7s0.6,1.1,0.6,2.1v4.6h-1.9v-4.6c0-0.4-0.1-0.7-0.2-0.9s-0.4-0.3-0.8-0.3c-0.6,0-1,0.3-1.2,0.8l0,5
									h-1.9v-4.6c0-0.4-0.1-0.7-0.2-0.9c-0.2-0.2-0.4-0.3-0.8-0.3c-0.5,0-0.9,0.2-1.2,0.7v5.1h-1.9v-7.2H-1830.6z"/>
								<path class="st5" d="M-1817.3,2088c-1.1,0-1.9-0.3-2.6-1c-0.7-0.6-1-1.5-1-2.6v-0.2c0-0.7,0.1-1.4,0.4-1.9
									c0.3-0.6,0.7-1,1.2-1.3c0.5-0.3,1.1-0.5,1.8-0.5c1,0,1.8,0.3,2.3,0.9s0.9,1.5,0.9,2.6v0.8h-4.6c0.1,0.5,0.2,0.8,0.6,1.1
									c0.3,0.3,0.7,0.4,1.2,0.4c0.7,0,1.3-0.3,1.7-0.8l0.9,1.1c-0.3,0.4-0.7,0.7-1.2,1C-1816.1,2087.9-1816.7,2088-1817.3,2088z
									 M-1817.5,2082.1c-0.4,0-0.7,0.1-0.9,0.4s-0.4,0.6-0.5,1.1h2.7v-0.2c0-0.4-0.1-0.8-0.3-1
									C-1816.8,2082.2-1817.1,2082.1-1817.5,2082.1z M-1817.3,2077.6h2.1l-1.8,2.1h-1.6L-1817.3,2077.6z"/>
								<path class="st5" d="M-1810.9,2078.9v1.8h1.2v1.4h-1.2v3.6c0,0.3,0.1,0.5,0.2,0.6c0.1,0.1,0.3,0.2,0.6,0.2
									c0.2,0,0.4,0,0.6,0v1.5c-0.4,0.1-0.8,0.2-1.2,0.2c-1.4,0-2-0.7-2.1-2v-3.9h-1.1v-1.4h1.1v-1.8H-1810.9z"/>
								<path class="st5" d="M-1808.6,2078.8c0-0.3,0.1-0.5,0.3-0.7s0.5-0.3,0.8-0.3c0.3,0,0.6,0.1,0.8,0.3c0.2,0.2,0.3,0.4,0.3,0.7
									c0,0.3-0.1,0.5-0.3,0.7s-0.5,0.3-0.8,0.3s-0.6-0.1-0.8-0.3S-1808.6,2079.1-1808.6,2078.8z M-1806.5,2087.9h-1.9v-7.2h1.9
									V2087.9z"/>
								<path class="st5" d="M-1802,2086.4c0.4,0,0.6-0.1,0.9-0.3s0.3-0.5,0.3-0.8h1.8c0,0.5-0.1,0.9-0.4,1.3
									c-0.3,0.4-0.6,0.7-1.1,0.9s-1,0.3-1.5,0.3c-1,0-1.8-0.3-2.4-1c-0.6-0.7-0.9-1.6-0.9-2.7v-0.1c0-1.1,0.3-2,0.9-2.7
									c0.6-0.7,1.4-1,2.4-1c0.9,0,1.6,0.3,2.2,0.8c0.5,0.5,0.8,1.2,0.8,2h-1.8c0-0.4-0.1-0.7-0.3-0.9c-0.2-0.2-0.5-0.4-0.9-0.4
									c-0.4,0-0.8,0.2-1,0.5c-0.2,0.3-0.3,0.9-0.3,1.6v0.2c0,0.7,0.1,1.3,0.3,1.6C-1802.8,2086.3-1802.4,2086.4-1802,2086.4z"/>
								<path class="st5" d="M-1798.1,2084.2c0-0.7,0.1-1.4,0.4-1.9c0.3-0.6,0.7-1,1.2-1.3c0.5-0.3,1.1-0.5,1.8-0.5
									c1,0,1.8,0.3,2.4,0.9s1,1.4,1,2.4l0,0.5c0,1.1-0.3,2-0.9,2.7c-0.6,0.7-1.4,1-2.5,1c-1,0-1.9-0.3-2.5-1
									C-1797.8,2086.3-1798.1,2085.4-1798.1,2084.2L-1798.1,2084.2z M-1796.2,2084.3c0,0.7,0.1,1.2,0.4,1.6
									c0.3,0.4,0.6,0.5,1.1,0.5c0.5,0,0.8-0.2,1.1-0.5s0.4-0.9,0.4-1.7c0-0.7-0.1-1.2-0.4-1.6c-0.3-0.4-0.6-0.6-1.1-0.6
									c-0.5,0-0.8,0.2-1.1,0.6S-1796.2,2083.6-1796.2,2084.3z"/>
							</g>
						</g>
						<g id="Rectángulo_293417">
							<rect id="Rectángulo_294314" x="-1517.3" y="2061" class="st2" width="112.5" height="283.8"/>
							<rect id="Rectángulo_294315" x="-1517" y="2061.5" class="st3" width="111.8" height="282.9"/>
						</g>
						<g id="Rectángulo_293418">
							<rect id="Rectángulo_294316" x="-1922.3" y="2101.5" class="st2" width="517.4" height="34.9"/>
							<rect id="Rectángulo_294317" x="-1921.9" y="2101.9" class="st3" width="516.7" height="34.1"/>
						</g>
						<g id="Rectángulo_293419">
							<rect id="Rectángulo_294318" x="-1922.3" y="2136.4" class="st2" width="517.4" height="34.9"/>
							<rect id="Rectángulo_294319" x="-1921.9" y="2136.8" class="st3" width="516.7" height="34.1"/>
						</g>
						<g id="Rectángulo_293420">
							<rect id="Rectángulo_294320" x="-1922.3" y="2171.3" class="st2" width="517.4" height="34.9"/>
							<rect id="Rectángulo_294321" x="-1921.9" y="2171.7" class="st3" width="516.7" height="34.1"/>
						</g>
						<g id="Rectángulo_293421">
							<rect id="Rectángulo_294322" x="-1922.3" y="2206.2" class="st2" width="517.4" height="34.9"/>
							<rect id="Rectángulo_294323" x="-1921.9" y="2206.6" class="st3" width="516.7" height="34.1"/>
						</g>
						<g id="Rectángulo_293422">
							<rect id="Rectángulo_294324" x="-1922.3" y="2241.1" class="st2" width="517.4" height="34.9"/>
							<rect id="Rectángulo_294325" x="-1921.9" y="2241.5" class="st3" width="516.7" height="34.1"/>
						</g>
						<g id="Rectángulo_293423">
							<rect id="Rectángulo_294326" x="-1922.3" y="2276" class="st2" width="517.4" height="34.9"/>
							<rect id="Rectángulo_294327" x="-1921.9" y="2276.4" class="st3" width="516.7" height="34.1"/>
						</g>
						<g id="Rectángulo_293423-2">
							<rect id="Rectángulo_294328" x="-1922.3" y="2309.9" class="st2" width="517.4" height="34.9"/>
							<rect id="Rectángulo_294329" x="-1921.9" y="2310.3" class="st3" width="516.7" height="34.1"/>
						</g>
						<g id="Exponenciación">
							<g class="st4">
								<path class="st5" d="M-1778.4,2118.8c-1-0.3-1.7-0.6-2.1-1c-0.4-0.4-0.7-0.9-0.7-1.5c0-0.7,0.3-1.2,0.8-1.7
									c0.5-0.4,1.2-0.7,2.1-0.7c0.6,0,1.1,0.1,1.6,0.3c0.5,0.2,0.8,0.5,1.1,0.9c0.3,0.4,0.4,0.8,0.4,1.3h-1.1
									c0-0.5-0.2-0.9-0.5-1.2c-0.3-0.3-0.8-0.4-1.4-0.4c-0.6,0-1,0.1-1.3,0.4c-0.3,0.2-0.5,0.6-0.5,1c0,0.4,0.1,0.7,0.4,0.9
									c0.3,0.2,0.8,0.5,1.5,0.7c0.7,0.2,1.3,0.4,1.7,0.7c0.4,0.2,0.7,0.5,0.9,0.9c0.2,0.3,0.3,0.7,0.3,1.1c0,0.7-0.3,1.3-0.8,1.7
									s-1.3,0.6-2.2,0.6c-0.6,0-1.1-0.1-1.7-0.3c-0.5-0.2-0.9-0.5-1.2-0.9c-0.3-0.4-0.4-0.8-0.4-1.3h1.1c0,0.5,0.2,0.9,0.6,1.2
									c0.4,0.3,0.9,0.5,1.5,0.5c0.6,0,1.1-0.1,1.4-0.4c0.3-0.2,0.5-0.6,0.5-1s-0.1-0.7-0.4-1S-1777.6,2119-1778.4,2118.8z"/>
								<path class="st5" d="M-1769.9,2122c-0.4,0.5-1.1,0.8-1.9,0.8c-0.7,0-1.2-0.2-1.6-0.6c-0.4-0.4-0.5-1-0.5-1.8v-4.2h1.1v4.1
									c0,1,0.4,1.5,1.2,1.5c0.8,0,1.4-0.3,1.7-0.9v-4.7h1.1v6.4h-1L-1769.9,2122z"/>
								<path class="st5" d="M-1766.1,2116.2l0,0.7c0.5-0.6,1.1-0.8,1.9-0.8c0.9,0,1.5,0.3,1.8,1c0.2-0.3,0.5-0.6,0.8-0.7
									s0.7-0.3,1.2-0.3c1.4,0,2.1,0.7,2.1,2.2v4.3h-1.1v-4.2c0-0.5-0.1-0.8-0.3-1c-0.2-0.2-0.6-0.3-1.1-0.3c-0.4,0-0.7,0.1-1,0.4
									c-0.3,0.2-0.4,0.6-0.5,1v4.3h-1.1v-4.2c0-0.9-0.5-1.4-1.4-1.4c-0.7,0-1.2,0.3-1.5,0.9v4.7h-1.1v-6.4H-1766.1z"/>
								<path class="st5" d="M-1752.6,2122.7c-0.1-0.1-0.1-0.4-0.2-0.7c-0.5,0.5-1.1,0.8-1.8,0.8c-0.6,0-1.2-0.2-1.6-0.5
									c-0.4-0.4-0.6-0.8-0.6-1.4c0-0.7,0.3-1.2,0.8-1.6s1.2-0.6,2.1-0.6h1.1v-0.5c0-0.4-0.1-0.7-0.3-0.9c-0.2-0.2-0.6-0.3-1-0.3
									c-0.4,0-0.7,0.1-1,0.3c-0.3,0.2-0.4,0.4-0.4,0.7h-1.1c0-0.3,0.1-0.6,0.3-0.9c0.2-0.3,0.5-0.5,0.9-0.7
									c0.4-0.2,0.8-0.3,1.3-0.3c0.7,0,1.3,0.2,1.7,0.6c0.4,0.4,0.6,0.9,0.7,1.5v3c0,0.6,0.1,1.1,0.2,1.4v0.1H-1752.6z
									 M-1754.4,2121.8c0.3,0,0.7-0.1,1-0.3c0.3-0.2,0.5-0.4,0.7-0.7v-1.3h-0.9c-1.3,0-2,0.4-2,1.2c0,0.3,0.1,0.6,0.3,0.8
									C-1755.1,2121.7-1754.8,2121.8-1754.4,2121.8z"/>
							</g>
						</g>
						<g id="_2">
							<g class="st4">
								<path class="st5" d="M-1856,2190.2l-2.3-0.7l0.4-1.3l2.3,0.9l-0.1-2.6h1.5l-0.1,2.6l2.2-0.9l0.4,1.4l-2.4,0.7l1.6,2
									l-1.2,0.8l-1.3-2.2l-1.3,2.1l-1.2-0.8L-1856,2190.2z"/>
							</g>
						</g>
						<g id="Grupo_135004">
							<g id="_2-2">
								<g class="st4">
									<path class="st5" d="M-1863,2293.1l-2.3-0.7l0.4-1.3l2.3,0.9l-0.1-2.6h1.5l-0.1,2.6l2.2-0.9l0.4,1.4l-2.4,0.7l1.6,2
										l-1.2,0.8l-1.3-2.2l-1.3,2.1l-1.2-0.8L-1863,2293.1z"/>
								</g>
							</g>
							<g id="_2-4">
								<g class="st4">
									<path class="st5" d="M-1852.2,2293.1l-2.3-0.7l0.4-1.3l2.3,0.9l-0.1-2.6h1.5l-0.1,2.6l2.2-0.9l0.4,1.4l-2.4,0.7l1.6,2
										l-1.2,0.8l-1.3-2.2l-1.3,2.1l-1.2-0.8L-1852.2,2293.1z"/>
								</g>
							</g>
						</g>
						<g id="_3-2">
							<g class="st4">
								<path class="st5" d="M-1856.2,2231.6h-1.6l4-11.7h1.6L-1856.2,2231.6z"/>
							</g>
						</g>
						<g id="Grupo_135005">
							<g id="_3-3">
								<g class="st4">
									<path class="st5" d="M-1856.2,2334.4h-1.6l4-11.7h1.6L-1856.2,2334.4z"/>
								</g>
							</g>
							<g id="_3-4">
								<g class="st4">
									<path class="st5" d="M-1861.9,2334.4h-1.6l4-11.7h1.6L-1861.9,2334.4z"/>
								</g>
							</g>
						</g>
						<g id="_4-2">
							<g class="st4">
								<path class="st5" d="M-1860,2254.4c0-0.7,0.2-1.2,0.6-1.6c0.4-0.4,1-0.6,1.7-0.6c0.7,0,1.3,0.2,1.7,0.6s0.6,1,0.6,1.7v0.5
									c0,0.7-0.2,1.2-0.6,1.6c-0.4,0.4-1,0.6-1.7,0.6c-0.7,0-1.3-0.2-1.7-0.6c-0.4-0.4-0.6-1-0.6-1.6V2254.4z M-1858.6,2255
									c0,0.3,0.1,0.5,0.3,0.7c0.2,0.2,0.4,0.3,0.7,0.3c0.3,0,0.5-0.1,0.7-0.3s0.2-0.4,0.2-0.7v-0.6c0-0.3-0.1-0.5-0.2-0.7
									c-0.2-0.2-0.4-0.3-0.7-0.3c-0.3,0-0.5,0.1-0.7,0.3c-0.2,0.2-0.3,0.4-0.3,0.8V2255z M-1857.2,2262.3l-1-0.6l5.3-8.4l1,0.6
									L-1857.2,2262.3z M-1854.8,2260.5c0-0.7,0.2-1.2,0.7-1.6c0.4-0.4,1-0.6,1.7-0.6c0.7,0,1.3,0.2,1.7,0.6
									c0.4,0.4,0.6,1,0.6,1.7v0.5c0,0.7-0.2,1.2-0.6,1.6s-1,0.6-1.7,0.6c-0.7,0-1.3-0.2-1.7-0.6s-0.6-1-0.6-1.6V2260.5z
									 M-1853.4,2261.1c0,0.3,0.1,0.5,0.3,0.7c0.2,0.2,0.4,0.3,0.7,0.3c0.6,0,0.9-0.3,0.9-1v-0.6c0-0.3-0.1-0.5-0.3-0.7
									s-0.4-0.3-0.7-0.3c-0.3,0-0.5,0.1-0.7,0.3s-0.3,0.4-0.3,0.7V2261.1z"/>
							</g>
						</g>
						<g id="_5-2">
							<g class="st4">
								<path class="st5" d="M-1854,2116.6h2.7v1.9h-2.7v3h-2v-3h-2.7v-1.9h2.7v-2.9h2V2116.6z"/>
							</g>
						</g>
						<g id="_6-2">
							<g class="st4">
								<path class="st5" d="M-1850.9,2155.4h-7.7v-1.7h7.7V2155.4z"/>
							</g>
						</g>
						<g id="Nombre">
							<g class="st4">
								<path class="st5" d="M-1691.7,2087.9v-9.7h3c0.9,0,1.6,0.2,2.3,0.6c0.7,0.4,1.2,0.9,1.6,1.6s0.6,1.5,0.6,2.4v0.4
									c0,0.9-0.2,1.7-0.6,2.4s-0.9,1.2-1.6,1.6s-1.4,0.6-2.3,0.6H-1691.7z M-1689.7,2079.8v6.5h1c0.8,0,1.4-0.3,1.8-0.8
									c0.4-0.5,0.6-1.2,0.6-2.2v-0.5c0-1-0.2-1.7-0.6-2.2c-0.4-0.5-1-0.8-1.8-0.8H-1689.7z"/>
								<path class="st5" d="M-1679.6,2088c-1.1,0-1.9-0.3-2.6-1c-0.7-0.6-1-1.5-1-2.6v-0.2c0-0.7,0.1-1.4,0.4-1.9
									c0.3-0.6,0.7-1,1.2-1.3c0.5-0.3,1.1-0.5,1.8-0.5c1,0,1.8,0.3,2.3,0.9s0.9,1.5,0.9,2.6v0.8h-4.6c0.1,0.5,0.2,0.8,0.6,1.1
									c0.3,0.3,0.7,0.4,1.2,0.4c0.7,0,1.3-0.3,1.7-0.8l0.9,1.1c-0.3,0.4-0.7,0.7-1.2,1C-1678.5,2087.9-1679,2088-1679.6,2088z
									 M-1679.9,2082.1c-0.4,0-0.7,0.1-0.9,0.4s-0.4,0.6-0.5,1.1h2.7v-0.2c0-0.4-0.1-0.8-0.3-1
									C-1679.1,2082.2-1679.5,2082.1-1679.9,2082.1z"/>
								<path class="st5" d="M-1671.7,2085.9c0-0.2-0.1-0.4-0.4-0.6s-0.6-0.3-1.1-0.4c-1.7-0.4-2.6-1.1-2.6-2.2
									c0-0.6,0.3-1.2,0.8-1.6s1.2-0.6,2.1-0.6c0.9,0,1.6,0.2,2.2,0.6c0.5,0.4,0.8,1,0.8,1.7h-1.9c0-0.3-0.1-0.5-0.3-0.7
									c-0.2-0.2-0.5-0.3-0.8-0.3c-0.3,0-0.6,0.1-0.8,0.2s-0.3,0.3-0.3,0.6c0,0.2,0.1,0.4,0.3,0.5s0.5,0.2,1,0.3
									c0.5,0.1,0.9,0.2,1.2,0.3c1,0.4,1.5,1,1.5,1.9c0,0.7-0.3,1.2-0.8,1.6c-0.6,0.4-1.3,0.6-2.2,0.6c-0.6,0-1.1-0.1-1.6-0.3
									c-0.5-0.2-0.8-0.5-1.1-0.9c-0.3-0.4-0.4-0.8-0.4-1.2h1.8c0,0.3,0.1,0.6,0.4,0.8c0.2,0.2,0.6,0.3,0.9,0.3
									c0.4,0,0.6-0.1,0.8-0.2C-1671.8,2086.3-1671.7,2086.1-1671.7,2085.9z"/>
								<path class="st5" d="M-1665.6,2086.4c0.4,0,0.6-0.1,0.9-0.3s0.3-0.5,0.3-0.8h1.8c0,0.5-0.1,0.9-0.4,1.3
									c-0.3,0.4-0.6,0.7-1.1,0.9s-1,0.3-1.5,0.3c-1,0-1.8-0.3-2.4-1c-0.6-0.7-0.9-1.6-0.9-2.7v-0.1c0-1.1,0.3-2,0.9-2.7
									c0.6-0.7,1.4-1,2.4-1c0.9,0,1.6,0.3,2.2,0.8c0.5,0.5,0.8,1.2,0.8,2h-1.8c0-0.4-0.1-0.7-0.3-0.9c-0.2-0.2-0.5-0.4-0.9-0.4
									c-0.4,0-0.8,0.2-1,0.5c-0.2,0.3-0.3,0.9-0.3,1.6v0.2c0,0.7,0.1,1.3,0.3,1.6C-1666.4,2086.3-1666,2086.4-1665.6,2086.4z"/>
								<path class="st5" d="M-1657.4,2082.5c-0.3,0-0.5-0.1-0.7-0.1c-0.7,0-1.2,0.2-1.4,0.7v4.7h-1.9v-7.2h1.8l0.1,0.9
									c0.4-0.7,0.9-1,1.6-1c0.2,0,0.4,0,0.6,0.1L-1657.4,2082.5z"/>
								<path class="st5" d="M-1656.5,2078.8c0-0.3,0.1-0.5,0.3-0.7s0.5-0.3,0.8-0.3c0.3,0,0.6,0.1,0.8,0.3c0.2,0.2,0.3,0.4,0.3,0.7
									c0,0.3-0.1,0.5-0.3,0.7c-0.2,0.2-0.5,0.3-0.8,0.3c-0.3,0-0.6-0.1-0.8-0.3C-1656.4,2079.3-1656.5,2079.1-1656.5,2078.8z
									 M-1654.4,2087.9h-1.9v-7.2h1.9V2087.9z"/>
								<path class="st5" d="M-1646.3,2084.3c0,1.1-0.3,2-0.8,2.7s-1.2,1-2,1c-0.7,0-1.3-0.3-1.8-0.8v3.4h-1.9v-10h1.8l0.1,0.7
									c0.5-0.6,1.1-0.8,1.8-0.8c0.9,0,1.6,0.3,2.1,1C-1646.6,2082.2-1646.3,2083.1-1646.3,2084.3L-1646.3,2084.3z M-1648.3,2084.2
									c0-0.7-0.1-1.2-0.4-1.6c-0.2-0.4-0.6-0.5-1-0.5c-0.6,0-1,0.2-1.2,0.7v3c0.2,0.5,0.7,0.7,1.3,0.7
									C-1648.7,2086.4-1648.3,2085.7-1648.3,2084.2z"/>
								<path class="st5" d="M-1642.1,2086.4c0.4,0,0.6-0.1,0.9-0.3c0.2-0.2,0.3-0.5,0.3-0.8h1.8c0,0.5-0.1,0.9-0.4,1.3
									c-0.3,0.4-0.6,0.7-1.1,0.9c-0.5,0.2-1,0.3-1.5,0.3c-1,0-1.8-0.3-2.4-1c-0.6-0.7-0.9-1.6-0.9-2.7v-0.1c0-1.1,0.3-2,0.9-2.7
									c0.6-0.7,1.4-1,2.4-1c0.9,0,1.6,0.3,2.2,0.8c0.5,0.5,0.8,1.2,0.8,2h-1.8c0-0.4-0.1-0.7-0.3-0.9c-0.2-0.2-0.5-0.4-0.9-0.4
									c-0.4,0-0.8,0.2-1,0.5s-0.3,0.9-0.3,1.6v0.2c0,0.7,0.1,1.3,0.3,1.6C-1643,2086.3-1642.6,2086.4-1642.1,2086.4z"/>
								<path class="st5" d="M-1638,2078.8c0-0.3,0.1-0.5,0.3-0.7s0.5-0.3,0.8-0.3c0.3,0,0.6,0.1,0.8,0.3c0.2,0.2,0.3,0.4,0.3,0.7
									c0,0.3-0.1,0.5-0.3,0.7c-0.2,0.2-0.5,0.3-0.8,0.3c-0.3,0-0.6-0.1-0.8-0.3C-1637.9,2079.3-1638,2079.1-1638,2078.8z
									 M-1636,2087.9h-1.9v-7.2h1.9V2087.9z"/>
								<path class="st5" d="M-1634.7,2084.2c0-0.7,0.1-1.4,0.4-1.9c0.3-0.6,0.7-1,1.2-1.3s1.1-0.5,1.8-0.5c1,0,1.8,0.3,2.4,0.9
									c0.6,0.6,1,1.4,1,2.4l0,0.5c0,1.1-0.3,2-0.9,2.7s-1.4,1-2.5,1s-1.9-0.3-2.5-1C-1634.4,2086.3-1634.7,2085.4-1634.7,2084.2
									L-1634.7,2084.2z M-1632.8,2084.3c0,0.7,0.1,1.2,0.4,1.6c0.3,0.4,0.6,0.5,1.1,0.5c0.5,0,0.8-0.2,1.1-0.5
									c0.3-0.4,0.4-0.9,0.4-1.7c0-0.7-0.1-1.2-0.4-1.6c-0.3-0.4-0.6-0.6-1.1-0.6c-0.5,0-0.8,0.2-1.1,0.6
									S-1632.8,2083.6-1632.8,2084.3z M-1630.9,2077.6h2.1l-1.8,2.1h-1.6L-1630.9,2077.6z"/>
								<path class="st5" d="M-1624.9,2080.6l0.1,0.8c0.5-0.6,1.2-1,2.1-1c0.8,0,1.3,0.2,1.7,0.7c0.4,0.4,0.6,1.1,0.6,2v4.7h-1.9
									v-4.6c0-0.4-0.1-0.7-0.3-0.9c-0.2-0.2-0.5-0.3-0.9-0.3c-0.5,0-0.9,0.2-1.2,0.7v5.1h-1.9v-7.2H-1624.9z"/>
							</g>
						</g>
						<g id="Multiplicación">
							<g class="st4">
								<path class="st5" d="M-1777.7,2156.3h-2v3.5h-1.1v-8.6h2.9c1,0,1.7,0.2,2.2,0.7c0.5,0.4,0.8,1.1,0.8,1.9
									c0,0.5-0.1,1-0.4,1.4c-0.3,0.4-0.7,0.7-1.2,0.9l2,3.7v0.1h-1.2L-1777.7,2156.3z M-1779.8,2155.4h1.7c0.6,0,1-0.1,1.3-0.4
									s0.5-0.7,0.5-1.2c0-0.5-0.2-0.9-0.5-1.2c-0.3-0.3-0.8-0.4-1.4-0.4h-1.7V2155.4z"/>
								<path class="st5" d="M-1770.9,2160c-0.9,0-1.6-0.3-2.1-0.9c-0.5-0.6-0.8-1.3-0.8-2.3v-0.2c0-0.6,0.1-1.2,0.4-1.7
									c0.2-0.5,0.6-0.9,1-1.2c0.4-0.3,0.9-0.4,1.4-0.4c0.8,0,1.5,0.3,1.9,0.8c0.5,0.5,0.7,1.3,0.7,2.4v0.5h-4.3
									c0,0.6,0.2,1.1,0.6,1.5c0.4,0.4,0.8,0.6,1.3,0.6c0.4,0,0.7-0.1,1-0.2c0.3-0.2,0.5-0.4,0.7-0.6l0.7,0.5
									C-1769.1,2159.5-1769.9,2160-1770.9,2160z M-1771.1,2154.2c-0.4,0-0.8,0.2-1.1,0.5c-0.3,0.3-0.5,0.8-0.6,1.4h3.2v-0.1
									c0-0.6-0.2-1-0.5-1.3C-1770.2,2154.4-1770.6,2154.2-1771.1,2154.2z"/>
								<path class="st5" d="M-1763.4,2158.1c0-0.3-0.1-0.5-0.3-0.7s-0.6-0.3-1.2-0.4s-1-0.3-1.3-0.4c-0.3-0.2-0.6-0.4-0.7-0.6
									c-0.2-0.2-0.2-0.5-0.2-0.8c0-0.5,0.2-1,0.7-1.3s1-0.5,1.7-0.5c0.7,0,1.3,0.2,1.8,0.6c0.5,0.4,0.7,0.9,0.7,1.4h-1.1
									c0-0.3-0.1-0.6-0.4-0.8c-0.3-0.2-0.6-0.3-1-0.3c-0.4,0-0.7,0.1-0.9,0.3s-0.3,0.4-0.3,0.7c0,0.3,0.1,0.5,0.3,0.6
									c0.2,0.1,0.6,0.3,1.1,0.4c0.5,0.1,1,0.3,1.3,0.4s0.6,0.4,0.8,0.6s0.2,0.5,0.2,0.9c0,0.6-0.2,1-0.7,1.4
									c-0.5,0.3-1.1,0.5-1.8,0.5c-0.5,0-1-0.1-1.4-0.3c-0.4-0.2-0.7-0.4-0.9-0.8s-0.3-0.7-0.3-1.1h1.1c0,0.4,0.2,0.7,0.4,0.9
									c0.3,0.2,0.6,0.3,1.1,0.3c0.4,0,0.7-0.1,1-0.3S-1763.4,2158.4-1763.4,2158.1z"/>
								<path class="st5" d="M-1759.4,2151.9v1.6h1.2v0.8h-1.2v4c0,0.3,0.1,0.5,0.2,0.6c0.1,0.1,0.3,0.2,0.5,0.2
									c0.1,0,0.3,0,0.5-0.1v0.9c-0.3,0.1-0.6,0.1-0.8,0.1c-0.5,0-0.9-0.1-1.1-0.4c-0.2-0.3-0.4-0.7-0.4-1.3v-4h-1.2v-0.8h1.2v-1.6
									H-1759.4z"/>
								<path class="st5" d="M-1753,2159.8c-0.1-0.1-0.1-0.4-0.2-0.7c-0.5,0.5-1.1,0.8-1.8,0.8c-0.6,0-1.2-0.2-1.6-0.5
									c-0.4-0.4-0.6-0.8-0.6-1.4c0-0.7,0.3-1.2,0.8-1.6s1.2-0.6,2.1-0.6h1.1v-0.5c0-0.4-0.1-0.7-0.3-0.9c-0.2-0.2-0.6-0.3-1-0.3
									c-0.4,0-0.7,0.1-1,0.3c-0.3,0.2-0.4,0.4-0.4,0.7h-1.1c0-0.3,0.1-0.6,0.3-0.9c0.2-0.3,0.5-0.5,0.9-0.7
									c0.4-0.2,0.8-0.3,1.3-0.3c0.7,0,1.3,0.2,1.7,0.6c0.4,0.4,0.6,0.9,0.7,1.5v3c0,0.6,0.1,1.1,0.2,1.4v0.1H-1753z M-1754.8,2159
									c0.3,0,0.7-0.1,1-0.3c0.3-0.2,0.5-0.4,0.7-0.7v-1.3h-0.9c-1.3,0-2,0.4-2,1.2c0,0.3,0.1,0.6,0.3,0.8
									C-1755.5,2158.9-1755.2,2159-1754.8,2159z"/>
							</g>
						</g>
						<g id="División">
							<g class="st4">
								<path class="st5" d="M-1779.4,2182.3l2.8,7l2.8-7h1.5v8.6h-1.1v-3.4l0.1-3.6l-2.8,7h-0.9l-2.8-7l0.1,3.6v3.4h-1.1v-8.6
									H-1779.4z"/>
								<path class="st5" d="M-1766.5,2190.3c-0.4,0.5-1.1,0.8-1.9,0.8c-0.7,0-1.2-0.2-1.6-0.6c-0.4-0.4-0.5-1-0.5-1.8v-4.2h1.1v4.1
									c0,1,0.4,1.5,1.2,1.5c0.8,0,1.4-0.3,1.7-0.9v-4.7h1.1v6.4h-1L-1766.5,2190.3z"/>
								<path class="st5" d="M-1762.6,2190.9h-1.1v-9.1h1.1V2190.9z"/>
								<path class="st5" d="M-1759.3,2183v1.6h1.2v0.8h-1.2v4c0,0.3,0.1,0.5,0.2,0.6c0.1,0.1,0.3,0.2,0.5,0.2c0.1,0,0.3,0,0.5-0.1
									v0.9c-0.3,0.1-0.6,0.1-0.8,0.1c-0.5,0-0.9-0.1-1.1-0.4c-0.2-0.3-0.4-0.7-0.4-1.3v-4h-1.2v-0.8h1.2v-1.6H-1759.3z"/>
								<path class="st5" d="M-1756.9,2182.8c0-0.2,0.1-0.3,0.2-0.5c0.1-0.1,0.3-0.2,0.5-0.2s0.4,0.1,0.5,0.2
									c0.1,0.1,0.2,0.3,0.2,0.5s-0.1,0.3-0.2,0.4s-0.3,0.2-0.5,0.2s-0.4-0.1-0.5-0.2C-1756.8,2183.2-1756.9,2183-1756.9,2182.8z
									 M-1755.7,2190.9h-1.1v-6.4h1.1V2190.9z"/>
								<path class="st5" d="M-1748.5,2187.8c0,1-0.2,1.8-0.7,2.4c-0.4,0.6-1.1,0.9-1.8,0.9c-0.8,0-1.4-0.2-1.8-0.7v3.1h-1.1v-8.9h1
									l0.1,0.7c0.4-0.6,1.1-0.8,1.9-0.8c0.8,0,1.4,0.3,1.8,0.9c0.4,0.6,0.7,1.4,0.7,2.4V2187.8z M-1749.6,2187.7
									c0-0.7-0.2-1.3-0.5-1.7s-0.7-0.6-1.3-0.6c-0.7,0-1.2,0.3-1.5,0.9v3.1c0.3,0.6,0.8,0.9,1.5,0.9c0.5,0,0.9-0.2,1.3-0.6
									C-1749.8,2189.1-1749.6,2188.5-1749.6,2187.7z"/>
								<path class="st5" d="M-1745.9,2190.9h-1.1v-9.1h1.1V2190.9z"/>
								<path class="st5" d="M-1744.2,2182.8c0-0.2,0.1-0.3,0.2-0.5c0.1-0.1,0.3-0.2,0.5-0.2s0.4,0.1,0.5,0.2
									c0.1,0.1,0.2,0.3,0.2,0.5s-0.1,0.3-0.2,0.4s-0.3,0.2-0.5,0.2s-0.4-0.1-0.5-0.2C-1744.1,2183.2-1744.2,2183-1744.2,2182.8z
									 M-1743,2190.9h-1.1v-6.4h1.1V2190.9z"/>
								<path class="st5" d="M-1738.6,2190.2c0.4,0,0.7-0.1,1-0.4s0.5-0.5,0.5-0.9h1c0,0.4-0.1,0.7-0.4,1c-0.2,0.3-0.5,0.6-0.9,0.8
									s-0.8,0.3-1.2,0.3c-0.9,0-1.6-0.3-2.1-0.9s-0.8-1.4-0.8-2.4v-0.2c0-0.6,0.1-1.2,0.3-1.7c0.2-0.5,0.6-0.9,1-1.1
									s0.9-0.4,1.5-0.4c0.7,0,1.3,0.2,1.8,0.6c0.5,0.4,0.7,1,0.8,1.7h-1c0-0.4-0.2-0.8-0.5-1s-0.6-0.4-1-0.4c-0.6,0-1,0.2-1.3,0.6
									s-0.5,1-0.5,1.7v0.2c0,0.7,0.2,1.3,0.5,1.7S-1739.2,2190.2-1738.6,2190.2z"/>
								<path class="st5" d="M-1730.9,2190.9c-0.1-0.1-0.1-0.4-0.2-0.7c-0.5,0.5-1.1,0.8-1.8,0.8c-0.6,0-1.2-0.2-1.6-0.5
									c-0.4-0.4-0.6-0.8-0.6-1.4c0-0.7,0.3-1.2,0.8-1.6s1.2-0.6,2.1-0.6h1.1v-0.5c0-0.4-0.1-0.7-0.3-0.9c-0.2-0.2-0.6-0.3-1-0.3
									c-0.4,0-0.7,0.1-1,0.3c-0.3,0.2-0.4,0.4-0.4,0.7h-1.1c0-0.3,0.1-0.6,0.3-0.9c0.2-0.3,0.5-0.5,0.9-0.7
									c0.4-0.2,0.8-0.3,1.3-0.3c0.7,0,1.3,0.2,1.7,0.6c0.4,0.4,0.6,0.9,0.7,1.5v3c0,0.6,0.1,1.1,0.2,1.4v0.1H-1730.9z
									 M-1732.7,2190.1c0.3,0,0.7-0.1,1-0.3c0.3-0.2,0.5-0.4,0.7-0.7v-1.3h-0.9c-1.3,0-2,0.4-2,1.2c0,0.3,0.1,0.6,0.3,0.8
									C-1733.4,2190-1733.1,2190.1-1732.7,2190.1z"/>
								<path class="st5" d="M-1725.7,2190.2c0.4,0,0.7-0.1,1-0.4s0.5-0.5,0.5-0.9h1c0,0.4-0.1,0.7-0.4,1c-0.2,0.3-0.5,0.6-0.9,0.8
									s-0.8,0.3-1.2,0.3c-0.9,0-1.6-0.3-2.1-0.9s-0.8-1.4-0.8-2.4v-0.2c0-0.6,0.1-1.2,0.3-1.7c0.2-0.5,0.6-0.9,1-1.1
									s0.9-0.4,1.5-0.4c0.7,0,1.3,0.2,1.8,0.6c0.5,0.4,0.7,1,0.8,1.7h-1c0-0.4-0.2-0.8-0.5-1s-0.6-0.4-1-0.4c-0.6,0-1,0.2-1.3,0.6
									s-0.5,1-0.5,1.7v0.2c0,0.7,0.2,1.3,0.5,1.7S-1726.3,2190.2-1725.7,2190.2z"/>
								<path class="st5" d="M-1721.9,2182.8c0-0.2,0.1-0.3,0.2-0.5c0.1-0.1,0.3-0.2,0.5-0.2s0.4,0.1,0.5,0.2
									c0.1,0.1,0.2,0.3,0.2,0.5s-0.1,0.3-0.2,0.4s-0.3,0.2-0.5,0.2s-0.4-0.1-0.5-0.2C-1721.9,2183.2-1721.9,2183-1721.9,2182.8z
									 M-1720.7,2190.9h-1.1v-6.4h1.1V2190.9z"/>
								<path class="st5" d="M-1719.3,2187.7c0-0.6,0.1-1.2,0.4-1.7s0.6-0.9,1-1.2c0.4-0.3,0.9-0.4,1.5-0.4c0.9,0,1.6,0.3,2.1,0.9
									c0.5,0.6,0.8,1.4,0.8,2.4v0.1c0,0.6-0.1,1.2-0.4,1.7s-0.6,0.9-1,1.2c-0.4,0.3-1,0.4-1.5,0.4c-0.9,0-1.6-0.3-2.1-0.9
									C-1719,2189.5-1719.3,2188.7-1719.3,2187.7L-1719.3,2187.7z M-1718.2,2187.8c0,0.7,0.2,1.3,0.5,1.7s0.8,0.6,1.3,0.6
									c0.6,0,1-0.2,1.3-0.7s0.5-1,0.5-1.8c0-0.7-0.2-1.3-0.5-1.7s-0.8-0.7-1.3-0.7c-0.5,0-1,0.2-1.3,0.6
									S-1718.2,2187-1718.2,2187.8z M-1715.8,2181.8h1.3l-1.6,1.7l-0.9,0L-1715.8,2181.8z"/>
								<path class="st5" d="M-1711,2184.5l0,0.8c0.5-0.6,1.1-0.9,1.9-0.9c1.4,0,2,0.8,2.1,2.3v4.2h-1.1v-4.2c0-0.5-0.1-0.8-0.3-1
									c-0.2-0.2-0.5-0.3-1-0.3c-0.4,0-0.7,0.1-0.9,0.3c-0.3,0.2-0.5,0.4-0.6,0.7v4.6h-1.1v-6.4H-1711z"/>
								<path class="st5" d="M-1702.6,2187.7c0-0.6,0.1-1.2,0.4-1.7s0.6-0.9,1-1.2c0.4-0.3,0.9-0.4,1.5-0.4c0.9,0,1.6,0.3,2.1,0.9
									c0.5,0.6,0.8,1.4,0.8,2.4v0.1c0,0.6-0.1,1.2-0.4,1.7s-0.6,0.9-1,1.2c-0.4,0.3-1,0.4-1.5,0.4c-0.9,0-1.6-0.3-2.1-0.9
									C-1702.4,2189.5-1702.6,2188.7-1702.6,2187.7L-1702.6,2187.7z M-1701.5,2187.8c0,0.7,0.2,1.3,0.5,1.7s0.8,0.6,1.3,0.6
									c0.6,0,1-0.2,1.3-0.7s0.5-1,0.5-1.8c0-0.7-0.2-1.3-0.5-1.7s-0.8-0.7-1.3-0.7c-0.5,0-1,0.2-1.3,0.6
									S-1701.5,2187-1701.5,2187.8z"/>
								<path class="st5" d="M-1687,2187.8c0,1-0.2,1.8-0.7,2.4c-0.4,0.6-1.1,0.9-1.8,0.9c-0.8,0-1.4-0.2-1.8-0.7v3.1h-1.1v-8.9h1
									l0.1,0.7c0.4-0.6,1.1-0.8,1.9-0.8c0.8,0,1.4,0.3,1.8,0.9c0.4,0.6,0.7,1.4,0.7,2.4V2187.8z M-1688.1,2187.7
									c0-0.7-0.2-1.3-0.5-1.7s-0.7-0.6-1.3-0.6c-0.7,0-1.2,0.3-1.5,0.9v3.1c0.3,0.6,0.8,0.9,1.5,0.9c0.5,0,0.9-0.2,1.3-0.6
									C-1688.2,2189.1-1688.1,2188.5-1688.1,2187.7z"/>
								<path class="st5" d="M-1682.5,2185.5c-0.2,0-0.3,0-0.5,0c-0.7,0-1.2,0.3-1.5,0.9v4.6h-1.1v-6.4h1.1l0,0.7
									c0.4-0.6,0.9-0.9,1.5-0.9c0.2,0,0.4,0,0.5,0.1V2185.5z"/>
								<path class="st5" d="M-1681.9,2187.7c0-0.6,0.1-1.2,0.4-1.7s0.6-0.9,1-1.2c0.4-0.3,0.9-0.4,1.5-0.4c0.9,0,1.6,0.3,2.1,0.9
									c0.5,0.6,0.8,1.4,0.8,2.4v0.1c0,0.6-0.1,1.2-0.4,1.7s-0.6,0.9-1,1.2c-0.4,0.3-1,0.4-1.5,0.4c-0.9,0-1.6-0.3-2.1-0.9
									C-1681.6,2189.5-1681.9,2188.7-1681.9,2187.7L-1681.9,2187.7z M-1680.8,2187.8c0,0.7,0.2,1.3,0.5,1.7s0.8,0.6,1.3,0.6
									c0.6,0,1-0.2,1.3-0.7s0.5-1,0.5-1.8c0-0.7-0.2-1.3-0.5-1.7s-0.8-0.7-1.3-0.7c-0.5,0-1,0.2-1.3,0.6
									S-1680.8,2187-1680.8,2187.8z"/>
								<path class="st5" d="M-1675,2187.7c0-1,0.2-1.8,0.7-2.4c0.5-0.6,1.1-0.9,1.8-0.9c0.8,0,1.3,0.3,1.8,0.8v-3.3h1.1v9.1h-1
									l-0.1-0.7c-0.4,0.5-1,0.8-1.8,0.8c-0.7,0-1.3-0.3-1.8-0.9S-1675,2188.7-1675,2187.7L-1675,2187.7z M-1673.9,2187.8
									c0,0.7,0.1,1.3,0.5,1.7s0.7,0.6,1.2,0.6c0.7,0,1.2-0.3,1.5-0.9v-2.9c-0.3-0.6-0.8-0.9-1.5-0.9c-0.5,0-1,0.2-1.3,0.6
									C-1673.7,2186.4-1673.9,2187-1673.9,2187.8z"/>
								<path class="st5" d="M-1663.9,2190.3c-0.4,0.5-1.1,0.8-1.9,0.8c-0.7,0-1.2-0.2-1.6-0.6c-0.4-0.4-0.5-1-0.5-1.8v-4.2h1.1v4.1
									c0,1,0.4,1.5,1.2,1.5c0.8,0,1.4-0.3,1.7-0.9v-4.7h1.1v6.4h-1L-1663.9,2190.3z"/>
								<path class="st5" d="M-1658.6,2190.2c0.4,0,0.7-0.1,1-0.4c0.3-0.2,0.5-0.5,0.5-0.9h1c0,0.4-0.1,0.7-0.4,1
									c-0.2,0.3-0.5,0.6-0.9,0.8c-0.4,0.2-0.8,0.3-1.2,0.3c-0.9,0-1.6-0.3-2.1-0.9s-0.8-1.4-0.8-2.4v-0.2c0-0.6,0.1-1.2,0.3-1.7
									c0.2-0.5,0.6-0.9,1-1.1s0.9-0.4,1.5-0.4c0.7,0,1.3,0.2,1.8,0.6c0.5,0.4,0.7,1,0.8,1.7h-1c0-0.4-0.2-0.8-0.5-1
									c-0.3-0.3-0.6-0.4-1-0.4c-0.6,0-1,0.2-1.3,0.6c-0.3,0.4-0.5,1-0.5,1.7v0.2c0,0.7,0.2,1.3,0.5,1.7
									C-1659.6,2190-1659.1,2190.2-1658.6,2190.2z"/>
								<path class="st5" d="M-1653.3,2183v1.6h1.2v0.8h-1.2v4c0,0.3,0.1,0.5,0.2,0.6c0.1,0.1,0.3,0.2,0.5,0.2c0.1,0,0.3,0,0.5-0.1
									v0.9c-0.3,0.1-0.6,0.1-0.8,0.1c-0.5,0-0.9-0.1-1.1-0.4c-0.2-0.3-0.4-0.7-0.4-1.3v-4h-1.2v-0.8h1.2v-1.6H-1653.3z"/>
								<path class="st5" d="M-1651.2,2187.7c0-0.6,0.1-1.2,0.4-1.7s0.6-0.9,1-1.2s0.9-0.4,1.5-0.4c0.9,0,1.6,0.3,2.1,0.9
									c0.5,0.6,0.8,1.4,0.8,2.4v0.1c0,0.6-0.1,1.2-0.4,1.7s-0.6,0.9-1,1.2c-0.4,0.3-1,0.4-1.5,0.4c-0.9,0-1.6-0.3-2.1-0.9
									S-1651.2,2188.7-1651.2,2187.7L-1651.2,2187.7z M-1650.1,2187.8c0,0.7,0.2,1.3,0.5,1.7s0.8,0.6,1.3,0.6c0.6,0,1-0.2,1.3-0.7
									s0.5-1,0.5-1.8c0-0.7-0.2-1.3-0.5-1.7s-0.8-0.7-1.3-0.7c-0.5,0-1,0.2-1.3,0.6S-1650.1,2187-1650.1,2187.8z"/>
							</g>
						</g>
						<g id="Módulo_o_resto">
							<g class="st4">
								<path class="st5" d="M-1780.9,2228.1v-8.6h2.4c0.8,0,1.4,0.2,2,0.5c0.6,0.3,1,0.8,1.3,1.4c0.3,0.6,0.5,1.3,0.5,2.1v0.6
									c0,0.8-0.2,1.5-0.5,2.1c-0.3,0.6-0.8,1.1-1.3,1.4s-1.3,0.5-2,0.5H-1780.9z M-1779.8,2220.4v6.8h1.2c0.9,0,1.6-0.3,2-0.8
									c0.5-0.5,0.7-1.3,0.7-2.3v-0.5c0-1-0.2-1.7-0.7-2.3s-1.1-0.8-2-0.8H-1779.8z"/>
								<path class="st5" d="M-1773.1,2220c0-0.2,0.1-0.3,0.2-0.5c0.1-0.1,0.3-0.2,0.5-0.2s0.4,0.1,0.5,0.2c0.1,0.1,0.2,0.3,0.2,0.5
									s-0.1,0.3-0.2,0.4s-0.3,0.2-0.5,0.2s-0.4-0.1-0.5-0.2C-1773,2220.3-1773.1,2220.2-1773.1,2220z M-1771.9,2228.1h-1.1v-6.4
									h1.1V2228.1z"/>
								<path class="st5" d="M-1768,2226.6l1.6-4.9h1.1l-2.3,6.4h-0.8l-2.3-6.4h1.1L-1768,2226.6z"/>
								<path class="st5" d="M-1764.3,2220c0-0.2,0.1-0.3,0.2-0.5c0.1-0.1,0.3-0.2,0.5-0.2s0.4,0.1,0.5,0.2c0.1,0.1,0.2,0.3,0.2,0.5
									s-0.1,0.3-0.2,0.4s-0.3,0.2-0.5,0.2s-0.4-0.1-0.5-0.2C-1764.2,2220.3-1764.3,2220.2-1764.3,2220z M-1763.1,2228.1h-1.1v-6.4
									h1.1V2228.1z"/>
								<path class="st5" d="M-1757.6,2226.4c0-0.3-0.1-0.5-0.3-0.7s-0.6-0.3-1.2-0.4s-1-0.3-1.3-0.4c-0.3-0.2-0.6-0.4-0.7-0.6
									c-0.2-0.2-0.2-0.5-0.2-0.8c0-0.5,0.2-1,0.7-1.3s1-0.5,1.7-0.5c0.7,0,1.3,0.2,1.8,0.6c0.5,0.4,0.7,0.9,0.7,1.4h-1.1
									c0-0.3-0.1-0.6-0.4-0.8c-0.3-0.2-0.6-0.3-1-0.3c-0.4,0-0.7,0.1-0.9,0.3s-0.3,0.4-0.3,0.7c0,0.3,0.1,0.5,0.3,0.6
									c0.2,0.1,0.6,0.3,1.1,0.4c0.5,0.1,1,0.3,1.3,0.4s0.6,0.4,0.8,0.6s0.2,0.5,0.2,0.9c0,0.6-0.2,1-0.7,1.4
									c-0.5,0.3-1.1,0.5-1.8,0.5c-0.5,0-1-0.1-1.4-0.3c-0.4-0.2-0.7-0.4-0.9-0.8s-0.3-0.7-0.3-1.1h1.1c0,0.4,0.2,0.7,0.4,0.9
									c0.3,0.2,0.6,0.3,1.1,0.3c0.4,0,0.7-0.1,1-0.3S-1757.6,2226.7-1757.6,2226.4z"/>
								<path class="st5" d="M-1755.1,2220c0-0.2,0.1-0.3,0.2-0.5c0.1-0.1,0.3-0.2,0.5-0.2s0.4,0.1,0.5,0.2c0.1,0.1,0.2,0.3,0.2,0.5
									s-0.1,0.3-0.2,0.4s-0.3,0.2-0.5,0.2s-0.4-0.1-0.5-0.2C-1755,2220.3-1755.1,2220.2-1755.1,2220z M-1753.9,2228.1h-1.1v-6.4
									h1.1V2228.1z"/>
								<path class="st5" d="M-1752.4,2224.9c0-0.6,0.1-1.2,0.4-1.7s0.6-0.9,1-1.2c0.4-0.3,0.9-0.4,1.5-0.4c0.9,0,1.6,0.3,2.1,0.9
									c0.5,0.6,0.8,1.4,0.8,2.4v0.1c0,0.6-0.1,1.2-0.4,1.7s-0.6,0.9-1,1.2c-0.4,0.3-1,0.4-1.5,0.4c-0.9,0-1.6-0.3-2.1-0.9
									C-1752.2,2226.7-1752.4,2225.9-1752.4,2224.9L-1752.4,2224.9z M-1751.3,2225c0,0.7,0.2,1.3,0.5,1.7s0.8,0.6,1.3,0.6
									c0.6,0,1-0.2,1.3-0.7s0.5-1,0.5-1.8c0-0.7-0.2-1.3-0.5-1.7s-0.8-0.7-1.3-0.7c-0.5,0-1,0.2-1.3,0.6
									S-1751.3,2224.2-1751.3,2225z M-1749,2219h1.3l-1.6,1.7l-0.9,0L-1749,2219z"/>
								<path class="st5" d="M-1744.2,2221.7l0,0.8c0.5-0.6,1.1-0.9,1.9-0.9c1.4,0,2,0.8,2.1,2.3v4.2h-1.1v-4.2c0-0.5-0.1-0.8-0.3-1
									c-0.2-0.2-0.5-0.3-1-0.3c-0.4,0-0.7,0.1-0.9,0.3c-0.3,0.2-0.5,0.4-0.6,0.7v4.6h-1.1v-6.4H-1744.2z"/>
							</g>
						</g>
						<g id="Suma-2">
							<g class="st4">
								<path class="st5" d="M-1779.4,2254.4l2.8,7l2.8-7h1.5v8.6h-1.1v-3.4l0.1-3.6l-2.8,7h-0.9l-2.8-7l0.1,3.6v3.4h-1.1v-8.6
									H-1779.4z"/>
								<path class="st5" d="M-1770.8,2259.8c0-0.6,0.1-1.2,0.4-1.7s0.6-0.9,1-1.2c0.4-0.3,0.9-0.4,1.5-0.4c0.9,0,1.6,0.3,2.1,0.9
									c0.5,0.6,0.8,1.4,0.8,2.4v0.1c0,0.6-0.1,1.2-0.4,1.7s-0.6,0.9-1,1.2c-0.4,0.3-1,0.4-1.5,0.4c-0.9,0-1.6-0.3-2.1-0.9
									C-1770.5,2261.6-1770.8,2260.8-1770.8,2259.8L-1770.8,2259.8z M-1769.7,2259.9c0,0.7,0.2,1.3,0.5,1.7s0.8,0.6,1.3,0.6
									c0.6,0,1-0.2,1.3-0.7s0.5-1,0.5-1.8c0-0.7-0.2-1.3-0.5-1.7s-0.8-0.7-1.3-0.7c-0.5,0-1,0.2-1.3,0.6
									S-1769.7,2259.1-1769.7,2259.9z M-1767.4,2253.9h1.3l-1.6,1.7l-0.9,0L-1767.4,2253.9z"/>
								<path class="st5" d="M-1763.8,2259.8c0-1,0.2-1.8,0.7-2.4c0.5-0.6,1.1-0.9,1.8-0.9c0.8,0,1.3,0.3,1.8,0.8v-3.3h1.1v9.1h-1
									l-0.1-0.7c-0.4,0.5-1,0.8-1.8,0.8c-0.7,0-1.3-0.3-1.8-0.9S-1763.8,2260.8-1763.8,2259.8L-1763.8,2259.8z M-1762.7,2259.9
									c0,0.7,0.1,1.3,0.5,1.7s0.7,0.6,1.2,0.6c0.7,0,1.2-0.3,1.5-0.9v-2.9c-0.3-0.6-0.8-0.9-1.5-0.9c-0.5,0-1,0.2-1.3,0.6
									C-1762.6,2258.5-1762.7,2259.1-1762.7,2259.9z"/>
								<path class="st5" d="M-1752.7,2262.4c-0.4,0.5-1.1,0.8-1.9,0.8c-0.7,0-1.2-0.2-1.6-0.6c-0.4-0.4-0.5-1-0.5-1.8v-4.2h1.1v4.1
									c0,1,0.4,1.5,1.2,1.5c0.8,0,1.4-0.3,1.7-0.9v-4.7h1.1v6.4h-1L-1752.7,2262.4z"/>
								<path class="st5" d="M-1748.8,2263h-1.1v-9.1h1.1V2263z"/>
								<path class="st5" d="M-1747.4,2259.8c0-0.6,0.1-1.2,0.4-1.7s0.6-0.9,1-1.2c0.4-0.3,0.9-0.4,1.5-0.4c0.9,0,1.6,0.3,2.1,0.9
									c0.5,0.6,0.8,1.4,0.8,2.4v0.1c0,0.6-0.1,1.2-0.4,1.7s-0.6,0.9-1,1.2c-0.4,0.3-1,0.4-1.5,0.4c-0.9,0-1.6-0.3-2.1-0.9
									C-1747.1,2261.6-1747.4,2260.8-1747.4,2259.8L-1747.4,2259.8z M-1746.3,2259.9c0,0.7,0.2,1.3,0.5,1.7s0.8,0.6,1.3,0.6
									c0.6,0,1-0.2,1.3-0.7s0.5-1,0.5-1.8c0-0.7-0.2-1.3-0.5-1.7s-0.8-0.7-1.3-0.7c-0.5,0-1,0.2-1.3,0.6
									S-1746.3,2259.1-1746.3,2259.9z"/>
								<path class="st5" d="M-1734.9,2259.8h-2.9v-0.9h2.9V2259.8z"/>
								<path class="st5" d="M-1730.6,2263v-8.6h2.4c0.8,0,1.4,0.2,2,0.5c0.6,0.3,1,0.8,1.3,1.4c0.3,0.6,0.5,1.3,0.5,2.1v0.6
									c0,0.8-0.2,1.5-0.5,2.1c-0.3,0.6-0.8,1.1-1.3,1.4s-1.3,0.5-2,0.5H-1730.6z M-1729.5,2255.3v6.8h1.2c0.9,0,1.6-0.3,2-0.8
									c0.5-0.5,0.7-1.3,0.7-2.3v-0.5c0-1-0.2-1.7-0.7-2.3s-1.1-0.8-2-0.8H-1729.5z"/>
								<path class="st5" d="M-1720.2,2263.1c-0.9,0-1.6-0.3-2.1-0.9c-0.5-0.6-0.8-1.3-0.8-2.3v-0.2c0-0.6,0.1-1.2,0.4-1.7
									c0.2-0.5,0.6-0.9,1-1.2c0.4-0.3,0.9-0.4,1.4-0.4c0.8,0,1.5,0.3,1.9,0.8c0.5,0.5,0.7,1.3,0.7,2.4v0.5h-4.3
									c0,0.6,0.2,1.1,0.6,1.5c0.4,0.4,0.8,0.6,1.3,0.6c0.4,0,0.7-0.1,1-0.2c0.3-0.2,0.5-0.4,0.7-0.6l0.7,0.5
									C-1718.3,2262.7-1719.1,2263.1-1720.2,2263.1z M-1720.3,2257.4c-0.4,0-0.8,0.2-1.1,0.5c-0.3,0.3-0.5,0.8-0.6,1.4h3.2v-0.1
									c0-0.6-0.2-1-0.5-1.3C-1719.5,2257.5-1719.8,2257.4-1720.3,2257.4z"/>
								<path class="st5" d="M-1714.4,2261.5l1.6-4.9h1.1l-2.3,6.4h-0.8l-2.3-6.4h1.1L-1714.4,2261.5z"/>
								<path class="st5" d="M-1706.6,2262.4c-0.4,0.5-1.1,0.8-1.9,0.8c-0.7,0-1.2-0.2-1.6-0.6c-0.4-0.4-0.5-1-0.5-1.8v-4.2h1.1v4.1
									c0,1,0.4,1.5,1.2,1.5c0.8,0,1.4-0.3,1.7-0.9v-4.7h1.1v6.4h-1L-1706.6,2262.4z"/>
								<path class="st5" d="M-1702.7,2263h-1.1v-9.1h1.1V2263z"/>
								<path class="st5" d="M-1698.3,2263.1c-0.9,0-1.6-0.3-2.1-0.9c-0.5-0.6-0.8-1.3-0.8-2.3v-0.2c0-0.6,0.1-1.2,0.4-1.7
									c0.2-0.5,0.6-0.9,1-1.2c0.4-0.3,0.9-0.4,1.4-0.4c0.8,0,1.5,0.3,1.9,0.8c0.5,0.5,0.7,1.3,0.7,2.4v0.5h-4.3
									c0,0.6,0.2,1.1,0.6,1.5c0.4,0.4,0.8,0.6,1.3,0.6c0.4,0,0.7-0.1,1-0.2c0.3-0.2,0.5-0.4,0.7-0.6l0.7,0.5
									C-1696.4,2262.7-1697.2,2263.1-1698.3,2263.1z M-1698.4,2257.4c-0.4,0-0.8,0.2-1.1,0.5c-0.3,0.3-0.5,0.8-0.6,1.4h3.2v-0.1
									c0-0.6-0.2-1-0.5-1.3C-1697.6,2257.5-1698,2257.4-1698.4,2257.4z"/>
								<path class="st5" d="M-1692.5,2261.5l1.6-4.9h1.1l-2.3,6.4h-0.8l-2.3-6.4h1.1L-1692.5,2261.5z"/>
								<path class="st5" d="M-1686.1,2263.1c-0.9,0-1.6-0.3-2.1-0.9c-0.5-0.6-0.8-1.3-0.8-2.3v-0.2c0-0.6,0.1-1.2,0.4-1.7
									c0.2-0.5,0.6-0.9,1-1.2c0.4-0.3,0.9-0.4,1.4-0.4c0.8,0,1.5,0.3,1.9,0.8c0.5,0.5,0.7,1.3,0.7,2.4v0.5h-4.3
									c0,0.6,0.2,1.1,0.6,1.5c0.4,0.4,0.8,0.6,1.3,0.6c0.4,0,0.7-0.1,1-0.2c0.3-0.2,0.5-0.4,0.7-0.6l0.7,0.5
									C-1684.3,2262.7-1685.1,2263.1-1686.1,2263.1z M-1686.3,2257.4c-0.4,0-0.8,0.2-1.1,0.5c-0.3,0.3-0.5,0.8-0.6,1.4h3.2v-0.1
									c0-0.6-0.2-1-0.5-1.3C-1685.4,2257.5-1685.8,2257.4-1686.3,2257.4z"/>
								<path class="st5" d="M-1676.7,2263.1c-0.9,0-1.6-0.3-2.1-0.9c-0.5-0.6-0.8-1.3-0.8-2.3v-0.2c0-0.6,0.1-1.2,0.4-1.7
									c0.2-0.5,0.6-0.9,1-1.2c0.4-0.3,0.9-0.4,1.4-0.4c0.8,0,1.5,0.3,1.9,0.8c0.5,0.5,0.7,1.3,0.7,2.4v0.5h-4.3
									c0,0.6,0.2,1.1,0.6,1.5c0.4,0.4,0.8,0.6,1.3,0.6c0.4,0,0.7-0.1,1-0.2c0.3-0.2,0.5-0.4,0.7-0.6l0.7,0.5
									C-1674.8,2262.7-1675.6,2263.1-1676.7,2263.1z M-1676.8,2257.4c-0.4,0-0.8,0.2-1.1,0.5c-0.3,0.3-0.5,0.8-0.6,1.4h3.2v-0.1
									c0-0.6-0.2-1-0.5-1.3C-1676,2257.5-1676.4,2257.4-1676.8,2257.4z"/>
								<path class="st5" d="M-1671.7,2263h-1.1v-9.1h1.1V2263z"/>
								<path class="st5" d="M-1663.9,2257.6c-0.2,0-0.3,0-0.5,0c-0.7,0-1.2,0.3-1.5,0.9v4.6h-1.1v-6.4h1.1l0,0.7
									c0.4-0.6,0.9-0.9,1.5-0.9c0.2,0,0.4,0,0.5,0.1V2257.6z"/>
								<path class="st5" d="M-1660.3,2263.1c-0.9,0-1.6-0.3-2.1-0.9c-0.5-0.6-0.8-1.3-0.8-2.3v-0.2c0-0.6,0.1-1.2,0.4-1.7
									c0.2-0.5,0.6-0.9,1-1.2c0.4-0.3,0.9-0.4,1.4-0.4c0.8,0,1.5,0.3,1.9,0.8c0.5,0.5,0.7,1.3,0.7,2.4v0.5h-4.3
									c0,0.6,0.2,1.1,0.6,1.5c0.4,0.4,0.8,0.6,1.3,0.6c0.4,0,0.7-0.1,1-0.2c0.3-0.2,0.5-0.4,0.7-0.6l0.7,0.5
									C-1658.4,2262.7-1659.2,2263.1-1660.3,2263.1z M-1660.5,2257.4c-0.4,0-0.8,0.2-1.1,0.5c-0.3,0.3-0.5,0.8-0.6,1.4h3.2v-0.1
									c0-0.6-0.2-1-0.5-1.3C-1659.6,2257.5-1660,2257.4-1660.5,2257.4z"/>
								<path class="st5" d="M-1652.8,2261.3c0-0.3-0.1-0.5-0.3-0.7c-0.2-0.2-0.6-0.3-1.2-0.4c-0.6-0.1-1-0.3-1.3-0.4
									s-0.6-0.4-0.7-0.6c-0.2-0.2-0.2-0.5-0.2-0.8c0-0.5,0.2-1,0.7-1.3s1-0.5,1.7-0.5c0.7,0,1.3,0.2,1.8,0.6
									c0.5,0.4,0.7,0.9,0.7,1.4h-1.1c0-0.3-0.1-0.6-0.4-0.8c-0.3-0.2-0.6-0.3-1-0.3c-0.4,0-0.7,0.1-0.9,0.3
									c-0.2,0.2-0.3,0.4-0.3,0.7c0,0.3,0.1,0.5,0.3,0.6c0.2,0.1,0.6,0.3,1.1,0.4c0.5,0.1,1,0.3,1.3,0.4s0.6,0.4,0.8,0.6
									s0.2,0.5,0.2,0.9c0,0.6-0.2,1-0.7,1.4s-1.1,0.5-1.8,0.5c-0.5,0-1-0.1-1.4-0.3s-0.7-0.4-0.9-0.8c-0.2-0.3-0.3-0.7-0.3-1.1
									h1.1c0,0.4,0.2,0.7,0.4,0.9c0.3,0.2,0.6,0.3,1.1,0.3c0.4,0,0.7-0.1,1-0.3S-1652.8,2261.6-1652.8,2261.3z"/>
								<path class="st5" d="M-1648.8,2255.1v1.6h1.2v0.8h-1.2v4c0,0.3,0.1,0.5,0.2,0.6c0.1,0.1,0.3,0.2,0.5,0.2
									c0.1,0,0.3,0,0.5-0.1v0.9c-0.3,0.1-0.6,0.1-0.8,0.1c-0.5,0-0.9-0.1-1.1-0.4c-0.2-0.3-0.4-0.7-0.4-1.3v-4h-1.2v-0.8h1.2v-1.6
									H-1648.8z"/>
								<path class="st5" d="M-1646.7,2259.8c0-0.6,0.1-1.2,0.4-1.7s0.6-0.9,1-1.2s0.9-0.4,1.5-0.4c0.9,0,1.6,0.3,2.1,0.9
									c0.5,0.6,0.8,1.4,0.8,2.4v0.1c0,0.6-0.1,1.2-0.4,1.7s-0.6,0.9-1,1.2c-0.4,0.3-1,0.4-1.5,0.4c-0.9,0-1.6-0.3-2.1-0.9
									S-1646.7,2260.8-1646.7,2259.8L-1646.7,2259.8z M-1645.6,2259.9c0,0.7,0.2,1.3,0.5,1.7s0.8,0.6,1.3,0.6c0.6,0,1-0.2,1.3-0.7
									s0.5-1,0.5-1.8c0-0.7-0.2-1.3-0.5-1.7s-0.8-0.7-1.3-0.7c-0.5,0-1,0.2-1.3,0.6S-1645.6,2259.1-1645.6,2259.9z"/>
								<path class="st5" d="M-1636.8,2259.8c0-1,0.2-1.8,0.7-2.4c0.5-0.6,1.1-0.9,1.8-0.9c0.8,0,1.3,0.3,1.8,0.8v-3.3h1.1v9.1h-1
									l-0.1-0.7c-0.4,0.5-1,0.8-1.8,0.8c-0.7,0-1.3-0.3-1.8-0.9C-1636.5,2261.6-1636.8,2260.8-1636.8,2259.8L-1636.8,2259.8z
									 M-1635.7,2259.9c0,0.7,0.2,1.3,0.5,1.7c0.3,0.4,0.7,0.6,1.2,0.6c0.7,0,1.2-0.3,1.5-0.9v-2.9c-0.3-0.6-0.8-0.9-1.5-0.9
									c-0.5,0-1,0.2-1.3,0.6C-1635.5,2258.5-1635.7,2259.1-1635.7,2259.9z"/>
								<path class="st5" d="M-1627,2263.1c-0.9,0-1.6-0.3-2.1-0.9c-0.5-0.6-0.8-1.3-0.8-2.3v-0.2c0-0.6,0.1-1.2,0.4-1.7
									c0.2-0.5,0.6-0.9,1-1.2c0.4-0.3,0.9-0.4,1.4-0.4c0.8,0,1.5,0.3,1.9,0.8c0.5,0.5,0.7,1.3,0.7,2.4v0.5h-4.3
									c0,0.6,0.2,1.1,0.6,1.5c0.4,0.4,0.8,0.6,1.3,0.6c0.4,0,0.7-0.1,1-0.2s0.5-0.4,0.7-0.6l0.7,0.5
									C-1625.1,2262.7-1625.9,2263.1-1627,2263.1z M-1627.1,2257.4c-0.4,0-0.8,0.2-1.1,0.5c-0.3,0.3-0.5,0.8-0.6,1.4h3.2v-0.1
									c0-0.6-0.2-1-0.5-1.3C-1626.3,2257.5-1626.7,2257.4-1627.1,2257.4z"/>
								<path class="st5" d="M-1619,2263h-1.1v-9.1h1.1V2263z"/>
								<path class="st5" d="M-1613.3,2263c-0.1-0.1-0.1-0.4-0.2-0.7c-0.5,0.5-1.1,0.8-1.8,0.8c-0.6,0-1.2-0.2-1.6-0.5
									s-0.6-0.8-0.6-1.4c0-0.7,0.3-1.2,0.8-1.6s1.2-0.6,2.1-0.6h1.1v-0.5c0-0.4-0.1-0.7-0.3-0.9c-0.2-0.2-0.6-0.3-1-0.3
									c-0.4,0-0.7,0.1-1,0.3c-0.3,0.2-0.4,0.4-0.4,0.7h-1.1c0-0.3,0.1-0.6,0.3-0.9c0.2-0.3,0.5-0.5,0.9-0.7
									c0.4-0.2,0.8-0.3,1.3-0.3c0.7,0,1.3,0.2,1.7,0.6c0.4,0.4,0.6,0.9,0.7,1.5v3c0,0.6,0.1,1.1,0.2,1.4v0.1H-1613.3z
									 M-1615.1,2262.2c0.3,0,0.7-0.1,1-0.3c0.3-0.2,0.5-0.4,0.7-0.7v-1.3h-0.9c-1.3,0-2,0.4-2,1.2c0,0.3,0.1,0.6,0.3,0.8
									C-1615.8,2262.1-1615.5,2262.2-1615.1,2262.2z"/>
								<path class="st5" d="M-1607.9,2259.8c0-1,0.2-1.8,0.7-2.4c0.5-0.6,1.1-0.9,1.8-0.9c0.8,0,1.3,0.3,1.8,0.8v-3.3h1.1v9.1h-1
									l-0.1-0.7c-0.4,0.5-1,0.8-1.8,0.8c-0.7,0-1.3-0.3-1.8-0.9C-1607.7,2261.6-1607.9,2260.8-1607.9,2259.8L-1607.9,2259.8z
									 M-1606.9,2259.9c0,0.7,0.2,1.3,0.5,1.7c0.3,0.4,0.7,0.6,1.2,0.6c0.7,0,1.2-0.3,1.5-0.9v-2.9c-0.3-0.6-0.8-0.9-1.5-0.9
									c-0.5,0-1,0.2-1.3,0.6C-1606.7,2258.5-1606.9,2259.1-1606.9,2259.9z"/>
								<path class="st5" d="M-1600.8,2254.9c0-0.2,0.1-0.3,0.2-0.5c0.1-0.1,0.3-0.2,0.5-0.2c0.2,0,0.4,0.1,0.5,0.2
									c0.1,0.1,0.2,0.3,0.2,0.5s-0.1,0.3-0.2,0.4c-0.1,0.1-0.3,0.2-0.5,0.2c-0.2,0-0.4-0.1-0.5-0.2S-1600.8,2255.1-1600.8,2254.9z
									 M-1599.6,2263h-1.1v-6.4h1.1V2263z"/>
								<path class="st5" d="M-1595.8,2261.5l1.6-4.9h1.1l-2.3,6.4h-0.8l-2.3-6.4h1.1L-1595.8,2261.5z"/>
								<path class="st5" d="M-1592,2254.9c0-0.2,0.1-0.3,0.2-0.5c0.1-0.1,0.3-0.2,0.5-0.2c0.2,0,0.4,0.1,0.5,0.2
									c0.1,0.1,0.2,0.3,0.2,0.5s-0.1,0.3-0.2,0.4c-0.1,0.1-0.3,0.2-0.5,0.2c-0.2,0-0.4-0.1-0.5-0.2
									C-1591.9,2255.2-1592,2255.1-1592,2254.9z M-1590.8,2263h-1.1v-6.4h1.1V2263z"/>
								<path class="st5" d="M-1585.3,2261.3c0-0.3-0.1-0.5-0.3-0.7c-0.2-0.2-0.6-0.3-1.2-0.4c-0.6-0.1-1-0.3-1.3-0.4
									c-0.3-0.2-0.6-0.4-0.7-0.6s-0.2-0.5-0.2-0.8c0-0.5,0.2-1,0.7-1.3s1-0.5,1.7-0.5c0.7,0,1.3,0.2,1.8,0.6s0.7,0.9,0.7,1.4h-1.1
									c0-0.3-0.1-0.6-0.4-0.8c-0.3-0.2-0.6-0.3-1-0.3c-0.4,0-0.7,0.1-0.9,0.3c-0.2,0.2-0.3,0.4-0.3,0.7c0,0.3,0.1,0.5,0.3,0.6
									c0.2,0.1,0.6,0.3,1.1,0.4c0.5,0.1,1,0.3,1.3,0.4s0.6,0.4,0.8,0.6s0.2,0.5,0.2,0.9c0,0.6-0.2,1-0.7,1.4
									c-0.5,0.3-1.1,0.5-1.8,0.5c-0.5,0-1-0.1-1.4-0.3c-0.4-0.2-0.7-0.4-0.9-0.8c-0.2-0.3-0.3-0.7-0.3-1.1h1.1
									c0,0.4,0.2,0.7,0.4,0.9c0.3,0.2,0.6,0.3,1.1,0.3c0.4,0,0.7-0.1,1-0.3S-1585.3,2261.6-1585.3,2261.3z"/>
								<path class="st5" d="M-1582.8,2254.9c0-0.2,0.1-0.3,0.2-0.5c0.1-0.1,0.3-0.2,0.5-0.2c0.2,0,0.4,0.1,0.5,0.2
									c0.1,0.1,0.2,0.3,0.2,0.5s-0.1,0.3-0.2,0.4c-0.1,0.1-0.3,0.2-0.5,0.2c-0.2,0-0.4-0.1-0.5-0.2S-1582.8,2255.1-1582.8,2254.9z
									 M-1581.6,2263h-1.1v-6.4h1.1V2263z"/>
								<path class="st5" d="M-1580.1,2259.8c0-0.6,0.1-1.2,0.4-1.7s0.6-0.9,1-1.2c0.4-0.3,0.9-0.4,1.5-0.4c0.9,0,1.6,0.3,2.1,0.9
									s0.8,1.4,0.8,2.4v0.1c0,0.6-0.1,1.2-0.4,1.7s-0.6,0.9-1,1.2c-0.4,0.3-1,0.4-1.5,0.4c-0.9,0-1.6-0.3-2.1-0.9
									C-1579.9,2261.6-1580.1,2260.8-1580.1,2259.8L-1580.1,2259.8z M-1579,2259.9c0,0.7,0.2,1.3,0.5,1.7s0.8,0.6,1.3,0.6
									c0.6,0,1-0.2,1.3-0.7s0.5-1,0.5-1.8c0-0.7-0.2-1.3-0.5-1.7s-0.8-0.7-1.3-0.7c-0.5,0-1,0.2-1.3,0.6S-1579,2259.1-1579,2259.9
									z M-1576.7,2253.9h1.3l-1.6,1.7l-0.9,0L-1576.7,2253.9z"/>
								<path class="st5" d="M-1571.9,2256.6l0,0.8c0.5-0.6,1.1-0.9,1.9-0.9c1.4,0,2,0.8,2.1,2.3v4.2h-1.1v-4.2c0-0.5-0.1-0.8-0.3-1
									c-0.2-0.2-0.5-0.3-1-0.3c-0.4,0-0.7,0.1-0.9,0.3c-0.3,0.2-0.5,0.4-0.6,0.7v4.6h-1.1v-6.4H-1571.9z"/>
							</g>
						</g>
						<g id="Resta-2">
							<g class="st4">
								<path class="st5" d="M-1776,2296.2h-3.7v3.1h4.3v0.9h-5.5v-8.6h5.4v0.9h-4.3v2.8h3.7V2296.2z"/>
								<path class="st5" d="M-1772,2296.1l1.4-2.3h1.3l-2.1,3.2l2.2,3.2h-1.3l-1.5-2.4l-1.5,2.4h-1.3l2.2-3.2l-2.1-3.2h1.3
									L-1772,2296.1z"/>
								<path class="st5" d="M-1762.7,2297.1c0,1-0.2,1.8-0.7,2.4c-0.4,0.6-1.1,0.9-1.8,0.9c-0.8,0-1.4-0.2-1.8-0.7v3.1h-1.1v-8.9h1
									l0.1,0.7c0.4-0.6,1.1-0.8,1.9-0.8c0.8,0,1.4,0.3,1.8,0.9c0.4,0.6,0.7,1.4,0.7,2.4V2297.1z M-1763.8,2296.9
									c0-0.7-0.2-1.3-0.5-1.7s-0.7-0.6-1.3-0.6c-0.7,0-1.2,0.3-1.5,0.9v3.1c0.3,0.6,0.8,0.9,1.5,0.9c0.5,0,0.9-0.2,1.3-0.6
									C-1764,2298.4-1763.8,2297.8-1763.8,2296.9z"/>
								<path class="st5" d="M-1761.6,2296.9c0-0.6,0.1-1.2,0.4-1.7s0.6-0.9,1-1.2c0.4-0.3,0.9-0.4,1.5-0.4c0.9,0,1.6,0.3,2.1,0.9
									c0.5,0.6,0.8,1.4,0.8,2.4v0.1c0,0.6-0.1,1.2-0.4,1.7s-0.6,0.9-1,1.2c-0.4,0.3-1,0.4-1.5,0.4c-0.9,0-1.6-0.3-2.1-0.9
									C-1761.4,2298.8-1761.6,2298-1761.6,2296.9L-1761.6,2296.9z M-1760.5,2297.1c0,0.7,0.2,1.3,0.5,1.7s0.8,0.6,1.3,0.6
									c0.6,0,1-0.2,1.3-0.7s0.5-1,0.5-1.8c0-0.7-0.2-1.3-0.5-1.7s-0.8-0.7-1.3-0.7c-0.5,0-1,0.2-1.3,0.6
									S-1760.5,2296.3-1760.5,2297.1z"/>
								<path class="st5" d="M-1753.4,2293.8l0,0.8c0.5-0.6,1.1-0.9,1.9-0.9c1.4,0,2,0.8,2.1,2.3v4.2h-1.1v-4.2c0-0.5-0.1-0.8-0.3-1
									c-0.2-0.2-0.5-0.3-1-0.3c-0.4,0-0.7,0.1-0.9,0.3c-0.3,0.2-0.5,0.4-0.6,0.7v4.6h-1.1v-6.4H-1753.4z"/>
								<path class="st5" d="M-1745.1,2300.3c-0.9,0-1.6-0.3-2.1-0.9c-0.5-0.6-0.8-1.3-0.8-2.3v-0.2c0-0.6,0.1-1.2,0.4-1.7
									c0.2-0.5,0.6-0.9,1-1.2c0.4-0.3,0.9-0.4,1.4-0.4c0.8,0,1.5,0.3,1.9,0.8c0.5,0.5,0.7,1.3,0.7,2.4v0.5h-4.3
									c0,0.6,0.2,1.1,0.6,1.5c0.4,0.4,0.8,0.6,1.3,0.6c0.4,0,0.7-0.1,1-0.2c0.3-0.2,0.5-0.4,0.7-0.6l0.7,0.5
									C-1743.2,2299.9-1744,2300.3-1745.1,2300.3z M-1745.2,2294.6c-0.4,0-0.8,0.2-1.1,0.5c-0.3,0.3-0.5,0.8-0.6,1.4h3.2v-0.1
									c0-0.6-0.2-1-0.5-1.3C-1744.4,2294.7-1744.7,2294.6-1745.2,2294.6z"/>
								<path class="st5" d="M-1740.3,2293.8l0,0.8c0.5-0.6,1.1-0.9,1.9-0.9c1.4,0,2,0.8,2.1,2.3v4.2h-1.1v-4.2c0-0.5-0.1-0.8-0.3-1
									c-0.2-0.2-0.5-0.3-1-0.3c-0.4,0-0.7,0.1-0.9,0.3c-0.3,0.2-0.5,0.4-0.6,0.7v4.6h-1.1v-6.4H-1740.3z"/>
								<path class="st5" d="M-1733.1,2292.2v1.6h1.2v0.8h-1.2v4c0,0.3,0.1,0.5,0.2,0.6c0.1,0.1,0.3,0.2,0.5,0.2
									c0.1,0,0.3,0,0.5-0.1v0.9c-0.3,0.1-0.6,0.1-0.8,0.1c-0.5,0-0.9-0.1-1.1-0.4c-0.2-0.3-0.4-0.7-0.4-1.3v-4h-1.2v-0.8h1.2v-1.6
									H-1733.1z"/>
								<path class="st5" d="M-1728,2300.3c-0.9,0-1.6-0.3-2.1-0.9c-0.5-0.6-0.8-1.3-0.8-2.3v-0.2c0-0.6,0.1-1.2,0.4-1.7
									c0.2-0.5,0.6-0.9,1-1.2c0.4-0.3,0.9-0.4,1.4-0.4c0.8,0,1.5,0.3,1.9,0.8c0.5,0.5,0.7,1.3,0.7,2.4v0.5h-4.3
									c0,0.6,0.2,1.1,0.6,1.5c0.4,0.4,0.8,0.6,1.3,0.6c0.4,0,0.7-0.1,1-0.2c0.3-0.2,0.5-0.4,0.7-0.6l0.7,0.5
									C-1726.1,2299.9-1726.9,2300.3-1728,2300.3z M-1728.1,2294.6c-0.4,0-0.8,0.2-1.1,0.5c-0.3,0.3-0.5,0.8-0.6,1.4h3.2v-0.1
									c0-0.6-0.2-1-0.5-1.3C-1727.3,2294.7-1727.6,2294.6-1728.1,2294.6z"/>
								<path class="st5" d="M-1718.9,2297h-2.9v-0.9h2.9V2297z"/>
								<path class="st5" d="M-1711.5,2296.7h-2v3.5h-1.1v-8.6h2.9c1,0,1.7,0.2,2.2,0.7c0.5,0.4,0.8,1.1,0.8,1.9
									c0,0.5-0.1,1-0.4,1.4c-0.3,0.4-0.7,0.7-1.2,0.9l2,3.7v0.1h-1.2L-1711.5,2296.7z M-1713.5,2295.8h1.7c0.6,0,1-0.1,1.3-0.4
									s0.5-0.7,0.5-1.2c0-0.5-0.2-0.9-0.5-1.2c-0.3-0.3-0.8-0.4-1.4-0.4h-1.7V2295.8z"/>
								<path class="st5" d="M-1704.7,2300.3c-0.9,0-1.6-0.3-2.1-0.9c-0.5-0.6-0.8-1.3-0.8-2.3v-0.2c0-0.6,0.1-1.2,0.4-1.7
									c0.2-0.5,0.6-0.9,1-1.2c0.4-0.3,0.9-0.4,1.4-0.4c0.8,0,1.5,0.3,1.9,0.8c0.5,0.5,0.7,1.3,0.7,2.4v0.5h-4.3
									c0,0.6,0.2,1.1,0.6,1.5c0.4,0.4,0.8,0.6,1.3,0.6c0.4,0,0.7-0.1,1-0.2c0.3-0.2,0.5-0.4,0.7-0.6l0.7,0.5
									C-1702.8,2299.9-1703.6,2300.3-1704.7,2300.3z M-1704.8,2294.6c-0.4,0-0.8,0.2-1.1,0.5c-0.3,0.3-0.5,0.8-0.6,1.4h3.2v-0.1
									c0-0.6-0.2-1-0.5-1.3C-1704,2294.7-1704.4,2294.6-1704.8,2294.6z"/>
								<path class="st5" d="M-1697,2300.2c-0.1-0.1-0.1-0.4-0.2-0.7c-0.5,0.5-1.1,0.8-1.8,0.8c-0.6,0-1.2-0.2-1.6-0.5
									c-0.4-0.4-0.6-0.8-0.6-1.4c0-0.7,0.3-1.2,0.8-1.6s1.2-0.6,2.1-0.6h1.1v-0.5c0-0.4-0.1-0.7-0.3-0.9c-0.2-0.2-0.6-0.3-1-0.3
									c-0.4,0-0.7,0.1-1,0.3c-0.3,0.2-0.4,0.4-0.4,0.7h-1.1c0-0.3,0.1-0.6,0.3-0.9c0.2-0.3,0.5-0.5,0.9-0.7
									c0.4-0.2,0.8-0.3,1.3-0.3c0.7,0,1.3,0.2,1.7,0.6c0.4,0.4,0.6,0.9,0.7,1.5v3c0,0.6,0.1,1.1,0.2,1.4v0.1H-1697z
									 M-1698.8,2299.4c0.3,0,0.7-0.1,1-0.3c0.3-0.2,0.5-0.4,0.7-0.7v-1.3h-0.9c-1.3,0-2,0.4-2,1.2c0,0.3,0.1,0.6,0.3,0.8
									C-1699.4,2299.3-1699.2,2299.4-1698.8,2299.4z"/>
								<path class="st5" d="M-1693.1,2300.2h-1.1v-9.1h1.1V2300.2z"/>
								<path class="st5" d="M-1691.4,2292.1c0-0.2,0.1-0.3,0.2-0.5c0.1-0.1,0.3-0.2,0.5-0.2s0.4,0.1,0.5,0.2
									c0.1,0.1,0.2,0.3,0.2,0.5s-0.1,0.3-0.2,0.4s-0.3,0.2-0.5,0.2s-0.4-0.1-0.5-0.2C-1691.3,2292.4-1691.4,2292.3-1691.4,2292.1z
									 M-1690.2,2300.2h-1.1v-6.4h1.1V2300.2z"/>
								<path class="st5" d="M-1687.4,2299.3h3.8v0.9h-5.1v-0.8l3.5-4.7h-3.5v-0.9h4.9v0.8L-1687.4,2299.3z"/>
								<path class="st5" d="M-1678.5,2300.2c-0.1-0.1-0.1-0.4-0.2-0.7c-0.5,0.5-1.1,0.8-1.8,0.8c-0.6,0-1.2-0.2-1.6-0.5
									c-0.4-0.4-0.6-0.8-0.6-1.4c0-0.7,0.3-1.2,0.8-1.6s1.2-0.6,2.1-0.6h1.1v-0.5c0-0.4-0.1-0.7-0.3-0.9c-0.2-0.2-0.6-0.3-1-0.3
									c-0.4,0-0.7,0.1-1,0.3c-0.3,0.2-0.4,0.4-0.4,0.7h-1.1c0-0.3,0.1-0.6,0.3-0.9c0.2-0.3,0.5-0.5,0.9-0.7
									c0.4-0.2,0.8-0.3,1.3-0.3c0.7,0,1.3,0.2,1.7,0.6c0.4,0.4,0.6,0.9,0.7,1.5v3c0,0.6,0.1,1.1,0.2,1.4v0.1H-1678.5z
									 M-1680.3,2299.4c0.3,0,0.7-0.1,1-0.3c0.3-0.2,0.5-0.4,0.7-0.7v-1.3h-0.9c-1.3,0-2,0.4-2,1.2c0,0.3,0.1,0.6,0.3,0.8
									C-1680.9,2299.3-1680.6,2299.4-1680.3,2299.4z"/>
								<path class="st5" d="M-1670.2,2300.3c-0.9,0-1.6-0.3-2.1-0.9c-0.5-0.6-0.8-1.3-0.8-2.3v-0.2c0-0.6,0.1-1.2,0.4-1.7
									c0.2-0.5,0.6-0.9,1-1.2c0.4-0.3,0.9-0.4,1.4-0.4c0.8,0,1.5,0.3,1.9,0.8c0.5,0.5,0.7,1.3,0.7,2.4v0.5h-4.3
									c0,0.6,0.2,1.1,0.6,1.5c0.4,0.4,0.8,0.6,1.3,0.6c0.4,0,0.7-0.1,1-0.2c0.3-0.2,0.5-0.4,0.7-0.6l0.7,0.5
									C-1668.3,2299.9-1669.1,2300.3-1670.2,2300.3z M-1670.3,2294.6c-0.4,0-0.8,0.2-1.1,0.5c-0.3,0.3-0.5,0.8-0.6,1.4h3.2v-0.1
									c0-0.6-0.2-1-0.5-1.3C-1669.5,2294.7-1669.8,2294.6-1670.3,2294.6z"/>
								<path class="st5" d="M-1664.2,2296.1l1.4-2.3h1.3l-2.1,3.2l2.2,3.2h-1.3l-1.5-2.4l-1.5,2.4h-1.3l2.2-3.2l-2.1-3.2h1.3
									L-1664.2,2296.1z"/>
								<path class="st5" d="M-1655,2297.1c0,1-0.2,1.8-0.7,2.4s-1.1,0.9-1.8,0.9c-0.8,0-1.4-0.2-1.8-0.7v3.1h-1.1v-8.9h1l0.1,0.7
									c0.4-0.6,1.1-0.8,1.9-0.8c0.8,0,1.4,0.3,1.8,0.9c0.4,0.6,0.7,1.4,0.7,2.4V2297.1z M-1656,2296.9c0-0.7-0.2-1.3-0.5-1.7
									c-0.3-0.4-0.7-0.6-1.3-0.6c-0.7,0-1.2,0.3-1.5,0.9v3.1c0.3,0.6,0.8,0.9,1.5,0.9c0.5,0,0.9-0.2,1.3-0.6
									C-1656.2,2298.4-1656,2297.8-1656,2296.9z"/>
								<path class="st5" d="M-1653.8,2296.9c0-0.6,0.1-1.2,0.4-1.7s0.6-0.9,1-1.2c0.4-0.3,0.9-0.4,1.5-0.4c0.9,0,1.6,0.3,2.1,0.9
									s0.8,1.4,0.8,2.4v0.1c0,0.6-0.1,1.2-0.4,1.7s-0.6,0.9-1,1.2c-0.4,0.3-1,0.4-1.5,0.4c-0.9,0-1.6-0.3-2.1-0.9
									C-1653.6,2298.8-1653.8,2298-1653.8,2296.9L-1653.8,2296.9z M-1652.7,2297.1c0,0.7,0.2,1.3,0.5,1.7s0.8,0.6,1.3,0.6
									c0.6,0,1-0.2,1.3-0.7s0.5-1,0.5-1.8c0-0.7-0.2-1.3-0.5-1.7s-0.8-0.7-1.3-0.7c-0.5,0-1,0.2-1.3,0.6
									S-1652.7,2296.3-1652.7,2297.1z"/>
								<path class="st5" d="M-1645.6,2293.8l0,0.8c0.5-0.6,1.1-0.9,1.9-0.9c1.4,0,2,0.8,2.1,2.3v4.2h-1.1v-4.2c0-0.5-0.1-0.8-0.3-1
									c-0.2-0.2-0.5-0.3-1-0.3c-0.4,0-0.7,0.1-0.9,0.3c-0.3,0.2-0.5,0.4-0.6,0.7v4.6h-1.1v-6.4H-1645.6z"/>
								<path class="st5" d="M-1637.3,2300.3c-0.9,0-1.6-0.3-2.1-0.9c-0.5-0.6-0.8-1.3-0.8-2.3v-0.2c0-0.6,0.1-1.2,0.4-1.7
									c0.2-0.5,0.6-0.9,1-1.2c0.4-0.3,0.9-0.4,1.4-0.4c0.8,0,1.5,0.3,1.9,0.8c0.5,0.5,0.7,1.3,0.7,2.4v0.5h-4.3
									c0,0.6,0.2,1.1,0.6,1.5c0.4,0.4,0.8,0.6,1.3,0.6c0.4,0,0.7-0.1,1-0.2s0.5-0.4,0.7-0.6l0.7,0.5
									C-1635.4,2299.9-1636.2,2300.3-1637.3,2300.3z M-1637.4,2294.6c-0.4,0-0.8,0.2-1.1,0.5c-0.3,0.3-0.5,0.8-0.6,1.4h3.2v-0.1
									c0-0.6-0.2-1-0.5-1.3C-1636.6,2294.7-1637,2294.6-1637.4,2294.6z"/>
								<path class="st5" d="M-1632.5,2293.8l0,0.8c0.5-0.6,1.1-0.9,1.9-0.9c1.4,0,2,0.8,2.1,2.3v4.2h-1.1v-4.2c0-0.5-0.1-0.8-0.3-1
									c-0.2-0.2-0.5-0.3-1-0.3c-0.4,0-0.7,0.1-0.9,0.3c-0.3,0.2-0.5,0.4-0.6,0.7v4.6h-1.1v-6.4H-1632.5z"/>
								<path class="st5" d="M-1624.2,2299.4c0.4,0,0.7-0.1,1-0.4c0.3-0.2,0.5-0.5,0.5-0.9h1c0,0.4-0.1,0.7-0.4,1
									c-0.2,0.3-0.5,0.6-0.9,0.8c-0.4,0.2-0.8,0.3-1.2,0.3c-0.9,0-1.6-0.3-2.1-0.9s-0.8-1.4-0.8-2.4v-0.2c0-0.6,0.1-1.2,0.3-1.7
									c0.2-0.5,0.6-0.9,1-1.1s0.9-0.4,1.5-0.4c0.7,0,1.3,0.2,1.8,0.6s0.7,1,0.8,1.7h-1c0-0.4-0.2-0.8-0.5-1
									c-0.3-0.3-0.6-0.4-1-0.4c-0.6,0-1,0.2-1.3,0.6c-0.3,0.4-0.5,1-0.5,1.7v0.2c0,0.7,0.2,1.3,0.5,1.7
									C-1625.2,2299.2-1624.8,2299.4-1624.2,2299.4z"/>
								<path class="st5" d="M-1620.4,2292.1c0-0.2,0.1-0.3,0.2-0.5c0.1-0.1,0.3-0.2,0.5-0.2c0.2,0,0.4,0.1,0.5,0.2
									c0.1,0.1,0.2,0.3,0.2,0.5s-0.1,0.3-0.2,0.4c-0.1,0.1-0.3,0.2-0.5,0.2c-0.2,0-0.4-0.1-0.5-0.2
									C-1620.4,2292.4-1620.4,2292.3-1620.4,2292.1z M-1619.3,2300.2h-1.1v-6.4h1.1V2300.2z"/>
								<path class="st5" d="M-1613.5,2300.2c-0.1-0.1-0.1-0.4-0.2-0.7c-0.5,0.5-1.1,0.8-1.8,0.8c-0.6,0-1.2-0.2-1.6-0.5
									s-0.6-0.8-0.6-1.4c0-0.7,0.3-1.2,0.8-1.6s1.2-0.6,2.1-0.6h1.1v-0.5c0-0.4-0.1-0.7-0.3-0.9c-0.2-0.2-0.6-0.3-1-0.3
									c-0.4,0-0.7,0.1-1,0.3c-0.3,0.2-0.4,0.4-0.4,0.7h-1.1c0-0.3,0.1-0.6,0.3-0.9c0.2-0.3,0.5-0.5,0.9-0.7
									c0.4-0.2,0.8-0.3,1.3-0.3c0.7,0,1.3,0.2,1.7,0.6c0.4,0.4,0.6,0.9,0.7,1.5v3c0,0.6,0.1,1.1,0.2,1.4v0.1H-1613.5z
									 M-1615.4,2299.4c0.3,0,0.7-0.1,1-0.3c0.3-0.2,0.5-0.4,0.7-0.7v-1.3h-0.9c-1.3,0-2,0.4-2,1.2c0,0.3,0.1,0.6,0.3,0.8
									C-1616,2299.3-1615.7,2299.4-1615.4,2299.4z"/>
								<path class="st5" d="M-1609.7,2300.2h-1.1v-9.1h1.1V2300.2z"/>
							</g>
						</g>
						<g id="Resta-3">
							<g class="st4">
								<path class="st5" d="M-1780.9,2331.4v-8.6h2.4c0.8,0,1.4,0.2,2,0.5c0.6,0.3,1,0.8,1.3,1.4c0.3,0.6,0.5,1.3,0.5,2.1v0.6
									c0,0.8-0.2,1.5-0.5,2.1c-0.3,0.6-0.8,1.1-1.3,1.4s-1.3,0.5-2,0.5H-1780.9z M-1779.8,2323.7v6.8h1.2c0.9,0,1.6-0.3,2-0.8
									c0.5-0.5,0.7-1.3,0.7-2.3v-0.5c0-1-0.2-1.7-0.7-2.3s-1.1-0.8-2-0.8H-1779.8z"/>
								<path class="st5" d="M-1773.1,2323.2c0-0.2,0.1-0.3,0.2-0.5c0.1-0.1,0.3-0.2,0.5-0.2s0.4,0.1,0.5,0.2
									c0.1,0.1,0.2,0.3,0.2,0.5s-0.1,0.3-0.2,0.4s-0.3,0.2-0.5,0.2s-0.4-0.1-0.5-0.2C-1773,2323.6-1773.1,2323.4-1773.1,2323.2z
									 M-1771.9,2331.4h-1.1v-6.4h1.1V2331.4z"/>
								<path class="st5" d="M-1768,2329.9l1.6-4.9h1.1l-2.3,6.4h-0.8l-2.3-6.4h1.1L-1768,2329.9z"/>
								<path class="st5" d="M-1764.3,2323.2c0-0.2,0.1-0.3,0.2-0.5c0.1-0.1,0.3-0.2,0.5-0.2s0.4,0.1,0.5,0.2
									c0.1,0.1,0.2,0.3,0.2,0.5s-0.1,0.3-0.2,0.4s-0.3,0.2-0.5,0.2s-0.4-0.1-0.5-0.2C-1764.2,2323.6-1764.3,2323.4-1764.3,2323.2z
									 M-1763.1,2331.4h-1.1v-6.4h1.1V2331.4z"/>
								<path class="st5" d="M-1757.6,2329.7c0-0.3-0.1-0.5-0.3-0.7s-0.6-0.3-1.2-0.4s-1-0.3-1.3-0.4c-0.3-0.2-0.6-0.4-0.7-0.6
									c-0.2-0.2-0.2-0.5-0.2-0.8c0-0.5,0.2-1,0.7-1.3s1-0.5,1.7-0.5c0.7,0,1.3,0.2,1.8,0.6c0.5,0.4,0.7,0.9,0.7,1.4h-1.1
									c0-0.3-0.1-0.6-0.4-0.8c-0.3-0.2-0.6-0.3-1-0.3c-0.4,0-0.7,0.1-0.9,0.3s-0.3,0.4-0.3,0.7c0,0.3,0.1,0.5,0.3,0.6
									c0.2,0.1,0.6,0.3,1.1,0.4c0.5,0.1,1,0.3,1.3,0.4s0.6,0.4,0.8,0.6s0.2,0.5,0.2,0.9c0,0.6-0.2,1-0.7,1.4
									c-0.5,0.3-1.1,0.5-1.8,0.5c-0.5,0-1-0.1-1.4-0.3c-0.4-0.2-0.7-0.4-0.9-0.8s-0.3-0.7-0.3-1.1h1.1c0,0.4,0.2,0.7,0.4,0.9
									c0.3,0.2,0.6,0.3,1.1,0.3c0.4,0,0.7-0.1,1-0.3S-1757.6,2329.9-1757.6,2329.7z"/>
								<path class="st5" d="M-1755.1,2323.2c0-0.2,0.1-0.3,0.2-0.5c0.1-0.1,0.3-0.2,0.5-0.2s0.4,0.1,0.5,0.2
									c0.1,0.1,0.2,0.3,0.2,0.5s-0.1,0.3-0.2,0.4s-0.3,0.2-0.5,0.2s-0.4-0.1-0.5-0.2C-1755,2323.6-1755.1,2323.4-1755.1,2323.2z
									 M-1753.9,2331.4h-1.1v-6.4h1.1V2331.4z"/>
								<path class="st5" d="M-1752.4,2328.1c0-0.6,0.1-1.2,0.4-1.7s0.6-0.9,1-1.2c0.4-0.3,0.9-0.4,1.5-0.4c0.9,0,1.6,0.3,2.1,0.9
									c0.5,0.6,0.8,1.4,0.8,2.4v0.1c0,0.6-0.1,1.2-0.4,1.7s-0.6,0.9-1,1.2c-0.4,0.3-1,0.4-1.5,0.4c-0.9,0-1.6-0.3-2.1-0.9
									C-1752.2,2330-1752.4,2329.2-1752.4,2328.1L-1752.4,2328.1z M-1751.3,2328.2c0,0.7,0.2,1.3,0.5,1.7s0.8,0.6,1.3,0.6
									c0.6,0,1-0.2,1.3-0.7s0.5-1,0.5-1.8c0-0.7-0.2-1.3-0.5-1.7s-0.8-0.7-1.3-0.7c-0.5,0-1,0.2-1.3,0.6
									S-1751.3,2327.4-1751.3,2328.2z M-1749,2322.3h1.3l-1.6,1.7l-0.9,0L-1749,2322.3z"/>
								<path class="st5" d="M-1744.2,2324.9l0,0.8c0.5-0.6,1.1-0.9,1.9-0.9c1.4,0,2,0.8,2.1,2.3v4.2h-1.1v-4.2c0-0.5-0.1-0.8-0.3-1
									c-0.2-0.2-0.5-0.3-1-0.3c-0.4,0-0.7,0.1-0.9,0.3c-0.3,0.2-0.5,0.4-0.6,0.7v4.6h-1.1v-6.4H-1744.2z"/>
								<path class="st5" d="M-1730.1,2328.2c0,1-0.2,1.8-0.7,2.4s-1.1,0.9-1.8,0.9c-0.8,0-1.4-0.3-1.9-0.9l-0.1,0.7h-1v-9.1h1.1
									v3.4c0.4-0.5,1.1-0.8,1.8-0.8s1.4,0.3,1.8,0.9C-1730.3,2326.3-1730.1,2327.1-1730.1,2328.2L-1730.1,2328.2z M-1731.2,2328.1
									c0-0.7-0.1-1.3-0.4-1.7c-0.3-0.4-0.7-0.6-1.2-0.6c-0.7,0-1.2,0.3-1.6,1v2.8c0.3,0.7,0.9,1,1.6,1c0.5,0,0.9-0.2,1.2-0.6
									C-1731.3,2329.5-1731.2,2328.9-1731.2,2328.1z"/>
								<path class="st5" d="M-1724.7,2331.4c-0.1-0.1-0.1-0.4-0.2-0.7c-0.5,0.5-1.1,0.8-1.8,0.8c-0.6,0-1.2-0.2-1.6-0.5
									c-0.4-0.4-0.6-0.8-0.6-1.4c0-0.7,0.3-1.2,0.8-1.6s1.2-0.6,2.1-0.6h1.1v-0.5c0-0.4-0.1-0.7-0.3-0.9c-0.2-0.2-0.6-0.3-1-0.3
									c-0.4,0-0.7,0.1-1,0.3c-0.3,0.2-0.4,0.4-0.4,0.7h-1.1c0-0.3,0.1-0.6,0.3-0.9c0.2-0.3,0.5-0.5,0.9-0.7
									c0.4-0.2,0.8-0.3,1.3-0.3c0.7,0,1.3,0.2,1.7,0.6c0.4,0.4,0.6,0.9,0.7,1.5v3c0,0.6,0.1,1.1,0.2,1.4v0.1H-1724.7z
									 M-1726.6,2330.5c0.3,0,0.7-0.1,1-0.3c0.3-0.2,0.5-0.4,0.7-0.7v-1.3h-0.9c-1.3,0-2,0.4-2,1.2c0,0.3,0.1,0.6,0.3,0.8
									C-1727.2,2330.4-1726.9,2330.5-1726.6,2330.5z"/>
								<path class="st5" d="M-1721,2324.9v7.2c0,1.2-0.6,1.8-1.7,1.8c-0.2,0-0.5,0-0.7-0.1v-0.9c0.1,0,0.3,0,0.5,0
									c0.2,0,0.4-0.1,0.6-0.2s0.2-0.4,0.2-0.7v-7.2H-1721z M-1722.2,2323.2c0-0.2,0.1-0.3,0.2-0.4c0.1-0.1,0.3-0.2,0.5-0.2
									c0.2,0,0.4,0.1,0.5,0.2c0.1,0.1,0.2,0.3,0.2,0.5s-0.1,0.3-0.2,0.4s-0.3,0.2-0.5,0.2s-0.4-0.1-0.5-0.2
									C-1722.1,2323.6-1722.2,2323.4-1722.2,2323.2z"/>
								<path class="st5" d="M-1715.2,2331.4c-0.1-0.1-0.1-0.4-0.2-0.7c-0.5,0.5-1.1,0.8-1.8,0.8c-0.6,0-1.2-0.2-1.6-0.5
									c-0.4-0.4-0.6-0.8-0.6-1.4c0-0.7,0.3-1.2,0.8-1.6s1.2-0.6,2.1-0.6h1.1v-0.5c0-0.4-0.1-0.7-0.3-0.9c-0.2-0.2-0.6-0.3-1-0.3
									c-0.4,0-0.7,0.1-1,0.3c-0.3,0.2-0.4,0.4-0.4,0.7h-1.1c0-0.3,0.1-0.6,0.3-0.9c0.2-0.3,0.5-0.5,0.9-0.7
									c0.4-0.2,0.8-0.3,1.3-0.3c0.7,0,1.3,0.2,1.7,0.6c0.4,0.4,0.6,0.9,0.7,1.5v3c0,0.6,0.1,1.1,0.2,1.4v0.1H-1715.2z
									 M-1717.1,2330.5c0.3,0,0.7-0.1,1-0.3c0.3-0.2,0.5-0.4,0.7-0.7v-1.3h-0.9c-1.3,0-2,0.4-2,1.2c0,0.3,0.1,0.6,0.3,0.8
									C-1717.7,2330.4-1717.4,2330.5-1717.1,2330.5z"/>
								<path class="st5" d="M-1707.3,2328.1h-2.9v-0.9h2.9V2328.1z"/>
								<path class="st5" d="M-1703.1,2331.4v-8.6h2.4c0.8,0,1.4,0.2,2,0.5c0.6,0.3,1,0.8,1.3,1.4c0.3,0.6,0.5,1.3,0.5,2.1v0.6
									c0,0.8-0.2,1.5-0.5,2.1c-0.3,0.6-0.8,1.1-1.3,1.4s-1.3,0.5-2,0.5H-1703.1z M-1701.9,2323.7v6.8h1.2c0.9,0,1.6-0.3,2-0.8
									c0.5-0.5,0.7-1.3,0.7-2.3v-0.5c0-1-0.2-1.7-0.7-2.3s-1.1-0.8-2-0.8H-1701.9z"/>
								<path class="st5" d="M-1692.6,2331.5c-0.9,0-1.6-0.3-2.1-0.9c-0.5-0.6-0.8-1.3-0.8-2.3v-0.2c0-0.6,0.1-1.2,0.4-1.7
									c0.2-0.5,0.6-0.9,1-1.2c0.4-0.3,0.9-0.4,1.4-0.4c0.8,0,1.5,0.3,1.9,0.8c0.5,0.5,0.7,1.3,0.7,2.4v0.5h-4.3
									c0,0.6,0.2,1.1,0.6,1.5c0.4,0.4,0.8,0.6,1.3,0.6c0.4,0,0.7-0.1,1-0.2c0.3-0.2,0.5-0.4,0.7-0.6l0.7,0.5
									C-1690.7,2331.1-1691.5,2331.5-1692.6,2331.5z M-1692.7,2325.7c-0.4,0-0.8,0.2-1.1,0.5c-0.3,0.3-0.5,0.8-0.6,1.4h3.2v-0.1
									c0-0.6-0.2-1-0.5-1.3C-1691.9,2325.9-1692.3,2325.7-1692.7,2325.7z"/>
								<path class="st5" d="M-1686.8,2329.9l1.6-4.9h1.1l-2.3,6.4h-0.8l-2.3-6.4h1.1L-1686.8,2329.9z"/>
								<path class="st5" d="M-1679.1,2330.7c-0.4,0.5-1.1,0.8-1.9,0.8c-0.7,0-1.2-0.2-1.6-0.6c-0.4-0.4-0.5-1-0.5-1.8v-4.2h1.1v4.1
									c0,1,0.4,1.5,1.2,1.5c0.8,0,1.4-0.3,1.7-0.9v-4.7h1.1v6.4h-1L-1679.1,2330.7z"/>
								<path class="st5" d="M-1673.7,2331.5c-0.9,0-1.6-0.3-2.1-0.9c-0.5-0.6-0.8-1.3-0.8-2.3v-0.2c0-0.6,0.1-1.2,0.4-1.7
									c0.2-0.5,0.6-0.9,1-1.2c0.4-0.3,0.9-0.4,1.4-0.4c0.8,0,1.5,0.3,1.9,0.8c0.5,0.5,0.7,1.3,0.7,2.4v0.5h-4.3
									c0,0.6,0.2,1.1,0.6,1.5c0.4,0.4,0.8,0.6,1.3,0.6c0.4,0,0.7-0.1,1-0.2c0.3-0.2,0.5-0.4,0.7-0.6l0.7,0.5
									C-1671.8,2331.1-1672.6,2331.5-1673.7,2331.5z M-1673.8,2325.7c-0.4,0-0.8,0.2-1.1,0.5c-0.3,0.3-0.5,0.8-0.6,1.4h3.2v-0.1
									c0-0.6-0.2-1-0.5-1.3C-1673,2325.9-1673.4,2325.7-1673.8,2325.7z"/>
								<path class="st5" d="M-1668.7,2331.4h-1.1v-9.1h1.1V2331.4z"/>
								<path class="st5" d="M-1664.9,2329.9l1.6-4.9h1.1l-2.3,6.4h-0.8l-2.3-6.4h1.1L-1664.9,2329.9z"/>
								<path class="st5" d="M-1658.5,2331.5c-0.9,0-1.6-0.3-2.1-0.9c-0.5-0.6-0.8-1.3-0.8-2.3v-0.2c0-0.6,0.1-1.2,0.4-1.7
									c0.2-0.5,0.6-0.9,1-1.2c0.4-0.3,0.9-0.4,1.4-0.4c0.8,0,1.5,0.3,1.9,0.8c0.5,0.5,0.7,1.3,0.7,2.4v0.5h-4.3
									c0,0.6,0.2,1.1,0.6,1.5c0.4,0.4,0.8,0.6,1.3,0.6c0.4,0,0.7-0.1,1-0.2s0.5-0.4,0.7-0.6l0.7,0.5
									C-1656.6,2331.1-1657.4,2331.5-1658.5,2331.5z M-1658.6,2325.7c-0.4,0-0.8,0.2-1.1,0.5c-0.3,0.3-0.5,0.8-0.6,1.4h3.2v-0.1
									c0-0.6-0.2-1-0.5-1.3C-1657.8,2325.9-1658.2,2325.7-1658.6,2325.7z"/>
								<path class="st5" d="M-1649.1,2331.5c-0.9,0-1.6-0.3-2.1-0.9c-0.5-0.6-0.8-1.3-0.8-2.3v-0.2c0-0.6,0.1-1.2,0.4-1.7
									s0.6-0.9,1-1.2c0.4-0.3,0.9-0.4,1.4-0.4c0.8,0,1.5,0.3,1.9,0.8c0.5,0.5,0.7,1.3,0.7,2.4v0.5h-4.3c0,0.6,0.2,1.1,0.6,1.5
									c0.4,0.4,0.8,0.6,1.3,0.6c0.4,0,0.7-0.1,1-0.2c0.3-0.2,0.5-0.4,0.7-0.6l0.7,0.5C-1647.2,2331.1-1648,2331.5-1649.1,2331.5z
									 M-1649.2,2325.7c-0.4,0-0.8,0.2-1.1,0.5c-0.3,0.3-0.5,0.8-0.6,1.4h3.2v-0.1c0-0.6-0.2-1-0.5-1.3
									C-1648.4,2325.9-1648.7,2325.7-1649.2,2325.7z"/>
								<path class="st5" d="M-1644.1,2331.4h-1.1v-9.1h1.1V2331.4z"/>
								<path class="st5" d="M-1636.7,2331.5c-0.9,0-1.6-0.3-2.1-0.9c-0.5-0.6-0.8-1.3-0.8-2.3v-0.2c0-0.6,0.1-1.2,0.4-1.7
									s0.6-0.9,1-1.2c0.4-0.3,0.9-0.4,1.4-0.4c0.8,0,1.5,0.3,1.9,0.8c0.5,0.5,0.7,1.3,0.7,2.4v0.5h-4.3c0,0.6,0.2,1.1,0.6,1.5
									c0.4,0.4,0.8,0.6,1.3,0.6c0.4,0,0.7-0.1,1-0.2c0.3-0.2,0.5-0.4,0.7-0.6l0.7,0.5C-1634.8,2331.1-1635.6,2331.5-1636.7,2331.5
									z M-1636.8,2325.7c-0.4,0-0.8,0.2-1.1,0.5c-0.3,0.3-0.5,0.8-0.6,1.4h3.2v-0.1c0-0.6-0.2-1-0.5-1.3
									C-1636,2325.9-1636.4,2325.7-1636.8,2325.7z"/>
								<path class="st5" d="M-1631.9,2324.9l0,0.8c0.5-0.6,1.1-0.9,1.9-0.9c1.4,0,2,0.8,2.1,2.3v4.2h-1.1v-4.2c0-0.5-0.1-0.8-0.3-1
									c-0.2-0.2-0.5-0.3-1-0.3c-0.4,0-0.7,0.1-0.9,0.3c-0.3,0.2-0.5,0.4-0.6,0.7v4.6h-1.1v-6.4H-1631.9z"/>
								<path class="st5" d="M-1624.7,2323.4v1.6h1.2v0.8h-1.2v4c0,0.3,0.1,0.5,0.2,0.6c0.1,0.1,0.3,0.2,0.5,0.2
									c0.1,0,0.3,0,0.5-0.1v0.9c-0.3,0.1-0.6,0.1-0.8,0.1c-0.5,0-0.9-0.1-1.1-0.4c-0.2-0.3-0.4-0.7-0.4-1.3v-4h-1.2v-0.8h1.2v-1.6
									H-1624.7z"/>
								<path class="st5" d="M-1619.6,2331.5c-0.9,0-1.6-0.3-2.1-0.9c-0.5-0.6-0.8-1.3-0.8-2.3v-0.2c0-0.6,0.1-1.2,0.4-1.7
									c0.2-0.5,0.6-0.9,1-1.2c0.4-0.3,0.9-0.4,1.4-0.4c0.8,0,1.5,0.3,1.9,0.8c0.5,0.5,0.7,1.3,0.7,2.4v0.5h-4.3
									c0,0.6,0.2,1.1,0.6,1.5c0.4,0.4,0.8,0.6,1.3,0.6c0.4,0,0.7-0.1,1-0.2s0.5-0.4,0.7-0.6l0.7,0.5
									C-1617.7,2331.1-1618.5,2331.5-1619.6,2331.5z M-1619.7,2325.7c-0.4,0-0.8,0.2-1.1,0.5c-0.3,0.3-0.5,0.8-0.6,1.4h3.2v-0.1
									c0-0.6-0.2-1-0.5-1.3C-1618.9,2325.9-1619.3,2325.7-1619.7,2325.7z"/>
								<path class="st5" d="M-1612.7,2325.9c-0.2,0-0.3,0-0.5,0c-0.7,0-1.2,0.3-1.5,0.9v4.6h-1.1v-6.4h1.1l0,0.7
									c0.4-0.6,0.9-0.9,1.5-0.9c0.2,0,0.4,0,0.5,0.1V2325.9z"/>
								<path class="st5" d="M-1612.1,2328.1c0-0.6,0.1-1.2,0.4-1.7s0.6-0.9,1-1.2s0.9-0.4,1.5-0.4c0.9,0,1.6,0.3,2.1,0.9
									c0.5,0.6,0.8,1.4,0.8,2.4v0.1c0,0.6-0.1,1.2-0.4,1.7s-0.6,0.9-1,1.2c-0.4,0.3-1,0.4-1.5,0.4c-0.9,0-1.6-0.3-2.1-0.9
									S-1612.1,2329.2-1612.1,2328.1L-1612.1,2328.1z M-1611,2328.2c0,0.7,0.2,1.3,0.5,1.7s0.8,0.6,1.3,0.6c0.6,0,1-0.2,1.3-0.7
									s0.5-1,0.5-1.8c0-0.7-0.2-1.3-0.5-1.7s-0.8-0.7-1.3-0.7c-0.5,0-1,0.2-1.3,0.6S-1611,2327.4-1611,2328.2z"/>
								<path class="st5" d="M-1605.2,2328.1c0-0.6,0.1-1.2,0.4-1.7s0.6-0.9,1-1.2s0.9-0.4,1.5-0.4c0.9,0,1.6,0.3,2.1,0.9
									c0.5,0.6,0.8,1.4,0.8,2.4v0.1c0,0.6-0.1,1.2-0.4,1.7s-0.6,0.9-1,1.2c-0.4,0.3-1,0.4-1.5,0.4c-0.9,0-1.6-0.3-2.1-0.9
									S-1605.2,2329.2-1605.2,2328.1L-1605.2,2328.1z M-1604.1,2328.2c0,0.7,0.2,1.3,0.5,1.7s0.8,0.6,1.3,0.6c0.6,0,1-0.2,1.3-0.7
									s0.5-1,0.5-1.8c0-0.7-0.2-1.3-0.5-1.7s-0.8-0.7-1.3-0.7c-0.5,0-1,0.2-1.3,0.6S-1604.1,2327.4-1604.1,2328.2z"/>
								<path class="st5" d="M-1595.3,2328.1c0-1,0.2-1.8,0.7-2.4c0.5-0.6,1.1-0.9,1.8-0.9c0.8,0,1.3,0.3,1.8,0.8v-3.3h1.1v9.1h-1
									l-0.1-0.7c-0.4,0.5-1,0.8-1.8,0.8c-0.7,0-1.3-0.3-1.8-0.9C-1595,2330-1595.3,2329.2-1595.3,2328.1L-1595.3,2328.1z
									 M-1594.2,2328.2c0,0.7,0.2,1.3,0.5,1.7c0.3,0.4,0.7,0.6,1.2,0.6c0.7,0,1.2-0.3,1.5-0.9v-2.9c-0.3-0.6-0.8-0.9-1.5-0.9
									c-0.5,0-1,0.2-1.3,0.6C-1594,2326.8-1594.2,2327.4-1594.2,2328.2z"/>
								<path class="st5" d="M-1585.5,2331.5c-0.9,0-1.6-0.3-2.1-0.9c-0.5-0.6-0.8-1.3-0.8-2.3v-0.2c0-0.6,0.1-1.2,0.4-1.7
									c0.2-0.5,0.6-0.9,1-1.2c0.4-0.3,0.9-0.4,1.4-0.4c0.8,0,1.5,0.3,1.9,0.8c0.5,0.5,0.7,1.3,0.7,2.4v0.5h-4.3
									c0,0.6,0.2,1.1,0.6,1.5c0.4,0.4,0.8,0.6,1.3,0.6c0.4,0,0.7-0.1,1-0.2s0.5-0.4,0.7-0.6l0.7,0.5
									C-1583.6,2331.1-1584.4,2331.5-1585.5,2331.5z M-1585.6,2325.7c-0.4,0-0.8,0.2-1.1,0.5c-0.3,0.3-0.5,0.8-0.6,1.4h3.2v-0.1
									c0-0.6-0.2-1-0.5-1.3C-1584.8,2325.9-1585.2,2325.7-1585.6,2325.7z"/>
								<path class="st5" d="M-1577.5,2331.4h-1.1v-9.1h1.1V2331.4z"/>
								<path class="st5" d="M-1571.8,2331.4c-0.1-0.1-0.1-0.4-0.2-0.7c-0.5,0.5-1.1,0.8-1.8,0.8c-0.6,0-1.2-0.2-1.6-0.5
									s-0.6-0.8-0.6-1.4c0-0.7,0.3-1.2,0.8-1.6s1.2-0.6,2.1-0.6h1.1v-0.5c0-0.4-0.1-0.7-0.3-0.9c-0.2-0.2-0.6-0.3-1-0.3
									c-0.4,0-0.7,0.1-1,0.3c-0.3,0.2-0.4,0.4-0.4,0.7h-1.1c0-0.3,0.1-0.6,0.3-0.9c0.2-0.3,0.5-0.5,0.9-0.7
									c0.4-0.2,0.8-0.3,1.3-0.3c0.7,0,1.3,0.2,1.7,0.6c0.4,0.4,0.6,0.9,0.7,1.5v3c0,0.6,0.1,1.1,0.2,1.4v0.1H-1571.8z
									 M-1573.6,2330.5c0.3,0,0.7-0.1,1-0.3c0.3-0.2,0.5-0.4,0.7-0.7v-1.3h-0.9c-1.3,0-2,0.4-2,1.2c0,0.3,0.1,0.6,0.3,0.8
									C-1574.3,2330.4-1574,2330.5-1573.6,2330.5z"/>
								<path class="st5" d="M-1566.4,2328.1c0-1,0.2-1.8,0.7-2.4c0.5-0.6,1.1-0.9,1.8-0.9c0.8,0,1.3,0.3,1.8,0.8v-3.3h1.1v9.1h-1
									l-0.1-0.7c-0.4,0.5-1,0.8-1.8,0.8c-0.7,0-1.3-0.3-1.8-0.9C-1566.2,2330-1566.4,2329.2-1566.4,2328.1L-1566.4,2328.1z
									 M-1565.3,2328.2c0,0.7,0.2,1.3,0.5,1.7c0.3,0.4,0.7,0.6,1.2,0.6c0.7,0,1.2-0.3,1.5-0.9v-2.9c-0.3-0.6-0.8-0.9-1.5-0.9
									c-0.5,0-1,0.2-1.3,0.6C-1565.2,2326.8-1565.3,2327.4-1565.3,2328.2z"/>
								<path class="st5" d="M-1559.3,2323.2c0-0.2,0.1-0.3,0.2-0.5c0.1-0.1,0.3-0.2,0.5-0.2c0.2,0,0.4,0.1,0.5,0.2
									c0.1,0.1,0.2,0.3,0.2,0.5s-0.1,0.3-0.2,0.4c-0.1,0.1-0.3,0.2-0.5,0.2c-0.2,0-0.4-0.1-0.5-0.2
									C-1559.2,2323.6-1559.3,2323.4-1559.3,2323.2z M-1558.1,2331.4h-1.1v-6.4h1.1V2331.4z"/>
								<path class="st5" d="M-1554.2,2329.9l1.6-4.9h1.1l-2.3,6.4h-0.8l-2.3-6.4h1.1L-1554.2,2329.9z"/>
								<path class="st5" d="M-1550.5,2323.2c0-0.2,0.1-0.3,0.2-0.5c0.1-0.1,0.3-0.2,0.5-0.2c0.2,0,0.4,0.1,0.5,0.2
									c0.1,0.1,0.2,0.3,0.2,0.5s-0.1,0.3-0.2,0.4c-0.1,0.1-0.3,0.2-0.5,0.2c-0.2,0-0.4-0.1-0.5-0.2S-1550.5,2323.4-1550.5,2323.2z
									 M-1549.3,2331.4h-1.1v-6.4h1.1V2331.4z"/>
								<path class="st5" d="M-1543.8,2329.7c0-0.3-0.1-0.5-0.3-0.7c-0.2-0.2-0.6-0.3-1.2-0.4c-0.6-0.1-1-0.3-1.3-0.4
									s-0.6-0.4-0.7-0.6c-0.2-0.2-0.2-0.5-0.2-0.8c0-0.5,0.2-1,0.7-1.3s1-0.5,1.7-0.5c0.7,0,1.3,0.2,1.8,0.6
									c0.5,0.4,0.7,0.9,0.7,1.4h-1.1c0-0.3-0.1-0.6-0.4-0.8c-0.3-0.2-0.6-0.3-1-0.3c-0.4,0-0.7,0.1-0.9,0.3
									c-0.2,0.2-0.3,0.4-0.3,0.7c0,0.3,0.1,0.5,0.3,0.6c0.2,0.1,0.6,0.3,1.1,0.4c0.5,0.1,1,0.3,1.3,0.4s0.6,0.4,0.8,0.6
									s0.2,0.5,0.2,0.9c0,0.6-0.2,1-0.7,1.4s-1.1,0.5-1.8,0.5c-0.5,0-1-0.1-1.4-0.3s-0.7-0.4-0.9-0.8c-0.2-0.3-0.3-0.7-0.3-1.1
									h1.1c0,0.4,0.2,0.7,0.4,0.9c0.3,0.2,0.6,0.3,1.1,0.3c0.4,0,0.7-0.1,1-0.3S-1543.8,2329.9-1543.8,2329.7z"/>
								<path class="st5" d="M-1541.3,2323.2c0-0.2,0.1-0.3,0.2-0.5c0.1-0.1,0.3-0.2,0.5-0.2c0.2,0,0.4,0.1,0.5,0.2
									c0.1,0.1,0.2,0.3,0.2,0.5s-0.1,0.3-0.2,0.4c-0.1,0.1-0.3,0.2-0.5,0.2c-0.2,0-0.4-0.1-0.5-0.2S-1541.3,2323.4-1541.3,2323.2z
									 M-1540.1,2331.4h-1.1v-6.4h1.1V2331.4z"/>
								<path class="st5" d="M-1538.6,2328.1c0-0.6,0.1-1.2,0.4-1.7s0.6-0.9,1-1.2c0.4-0.3,0.9-0.4,1.5-0.4c0.9,0,1.6,0.3,2.1,0.9
									s0.8,1.4,0.8,2.4v0.1c0,0.6-0.1,1.2-0.4,1.7s-0.6,0.9-1,1.2c-0.4,0.3-1,0.4-1.5,0.4c-0.9,0-1.6-0.3-2.1-0.9
									C-1538.3,2330-1538.6,2329.2-1538.6,2328.1L-1538.6,2328.1z M-1537.5,2328.2c0,0.7,0.2,1.3,0.5,1.7s0.8,0.6,1.3,0.6
									c0.6,0,1-0.2,1.3-0.7s0.5-1,0.5-1.8c0-0.7-0.2-1.3-0.5-1.7s-0.8-0.7-1.3-0.7c-0.5,0-1,0.2-1.3,0.6
									S-1537.5,2327.4-1537.5,2328.2z M-1535.2,2322.3h1.3l-1.6,1.7l-0.9,0L-1535.2,2322.3z"/>
								<path class="st5" d="M-1530.4,2324.9l0,0.8c0.5-0.6,1.1-0.9,1.9-0.9c1.4,0,2,0.8,2.1,2.3v4.2h-1.1v-4.2c0-0.5-0.1-0.8-0.3-1
									c-0.2-0.2-0.5-0.3-1-0.3c-0.4,0-0.7,0.1-0.9,0.3c-0.3,0.2-0.5,0.4-0.6,0.7v4.6h-1.1v-6.4H-1530.4z"/>
							</g>
						</g>
						<g id="x_elevado_a_y">
							<g class="st4">
								<path class="st5" d="M-1482.6,2122.7c-0.1-0.1-0.1-0.4-0.2-0.7c-0.5,0.5-1.1,0.8-1.8,0.8c-0.6,0-1.2-0.2-1.6-0.5
									c-0.4-0.4-0.6-0.8-0.6-1.4c0-0.7,0.3-1.2,0.8-1.6s1.2-0.6,2.1-0.6h1.1v-0.5c0-0.4-0.1-0.7-0.3-0.9c-0.2-0.2-0.6-0.3-1-0.3
									c-0.4,0-0.7,0.1-1,0.3c-0.3,0.2-0.4,0.4-0.4,0.7h-1.1c0-0.3,0.1-0.6,0.3-0.9c0.2-0.3,0.5-0.5,0.9-0.7
									c0.4-0.2,0.8-0.3,1.3-0.3c0.7,0,1.3,0.2,1.7,0.6s0.6,0.9,0.7,1.5v3c0,0.6,0.1,1.1,0.2,1.4v0.1H-1482.6z M-1484.4,2121.8
									c0.3,0,0.7-0.1,1-0.3s0.5-0.4,0.7-0.7v-1.3h-0.9c-1.3,0-2,0.4-2,1.2c0,0.3,0.1,0.6,0.3,0.8S-1484.8,2121.8-1484.4,2121.8z"
									/>
								<path class="st5" d="M-1473.8,2118h2.4v1h-2.4v2.7h-1.1v-2.7h-2.4v-1h2.4v-2.5h1.1V2118z"/>
								<path class="st5" d="M-1461.6,2119.5c0,1-0.2,1.8-0.7,2.4c-0.5,0.6-1.1,0.9-1.8,0.9c-0.8,0-1.4-0.3-1.9-0.9l-0.1,0.7h-1
									v-9.1h1.1v3.4c0.4-0.5,1.1-0.8,1.8-0.8s1.4,0.3,1.8,0.9S-1461.6,2118.4-1461.6,2119.5L-1461.6,2119.5z M-1462.7,2119.4
									c0-0.7-0.1-1.3-0.4-1.7c-0.3-0.4-0.7-0.6-1.2-0.6c-0.7,0-1.2,0.3-1.6,1v2.8c0.3,0.7,0.9,1,1.6,1c0.5,0,0.9-0.2,1.2-0.6
									C-1462.8,2120.8-1462.7,2120.2-1462.7,2119.4z"/>
								<path class="st5" d="M-1452.2,2117.8h-4.9v-1h4.9V2117.8z M-1452.2,2120.3h-4.9v-0.9h4.9V2120.3z"/>
								<path class="st5" d="M-1444.1,2122.7h-1.1v-7.3l-2.2,0.8v-1l3.1-1.2h0.2V2122.7z"/>
								<path class="st5" d="M-1440.3,2118.3l0.4-4.3h4.4v1h-3.5l-0.3,2.4c0.4-0.2,0.9-0.4,1.4-0.4c0.8,0,1.4,0.3,1.9,0.8
									c0.5,0.5,0.7,1.2,0.7,2.1c0,0.9-0.2,1.6-0.7,2.1c-0.5,0.5-1.2,0.8-2,0.8c-0.8,0-1.4-0.2-1.9-0.6s-0.8-1-0.8-1.8h1
									c0.1,0.5,0.2,0.9,0.5,1.1c0.3,0.3,0.7,0.4,1.1,0.4c0.5,0,0.9-0.2,1.2-0.5s0.4-0.8,0.4-1.4c0-0.6-0.2-1-0.5-1.4
									c-0.3-0.4-0.7-0.5-1.3-0.5c-0.5,0-0.9,0.1-1.1,0.3l-0.3,0.2L-1440.3,2118.3z"/>
							</g>
						</g>
						<g id="x_multiplicado_por_y">
							<g class="st4">
								<path class="st5" d="M-1475.9,2156.7c0,1-0.2,1.8-0.7,2.4c-0.5,0.6-1.1,0.9-1.8,0.9c-0.8,0-1.4-0.3-1.9-0.9l-0.1,0.7h-1
									v-9.1h1.1v3.4c0.4-0.5,1.1-0.8,1.8-0.8s1.4,0.3,1.8,0.9C-1476.1,2154.8-1475.9,2155.6-1475.9,2156.7L-1475.9,2156.7z
									 M-1477,2156.6c0-0.7-0.1-1.3-0.4-1.7c-0.3-0.4-0.7-0.6-1.2-0.6c-0.7,0-1.2,0.3-1.6,1v2.8c0.3,0.7,0.9,1,1.6,1
									c0.5,0,0.9-0.2,1.2-0.6C-1477.2,2158-1477,2157.4-1477,2156.6z"/>
								<path class="st5" d="M-1469.3,2156.6h-2.9v-0.9h2.9V2156.6z"/>
								<path class="st5" d="M-1461.2,2159.8c-0.1-0.1-0.1-0.4-0.2-0.7c-0.5,0.5-1.1,0.8-1.8,0.8c-0.6,0-1.2-0.2-1.6-0.5
									s-0.6-0.8-0.6-1.4c0-0.7,0.3-1.2,0.8-1.6s1.2-0.6,2.1-0.6h1.1v-0.5c0-0.4-0.1-0.7-0.3-0.9c-0.2-0.2-0.6-0.3-1-0.3
									c-0.4,0-0.7,0.1-1,0.3c-0.3,0.2-0.4,0.4-0.4,0.7h-1.1c0-0.3,0.1-0.6,0.3-0.9c0.2-0.3,0.5-0.5,0.9-0.7
									c0.4-0.2,0.8-0.3,1.3-0.3c0.7,0,1.3,0.2,1.7,0.6c0.4,0.4,0.6,0.9,0.7,1.5v3c0,0.6,0.1,1.1,0.2,1.4v0.1H-1461.2z M-1463,2159
									c0.3,0,0.7-0.1,1-0.3c0.3-0.2,0.5-0.4,0.7-0.7v-1.3h-0.9c-1.3,0-2,0.4-2,1.2c0,0.3,0.1,0.6,0.3,0.8
									C-1463.7,2158.9-1463.4,2159-1463,2159z"/>
								<path class="st5" d="M-1450.6,2155h-4.9v-1h4.9V2155z M-1450.6,2157.5h-4.9v-0.9h4.9V2157.5z"/>
								<path class="st5" d="M-1445.5,2155.5l0.4-4.3h4.4v1h-3.5l-0.3,2.4c0.4-0.2,0.9-0.4,1.4-0.4c0.8,0,1.4,0.3,1.9,0.8
									c0.5,0.5,0.7,1.2,0.7,2.1c0,0.9-0.2,1.6-0.7,2.1s-1.2,0.8-2,0.8c-0.8,0-1.4-0.2-1.9-0.6c-0.5-0.4-0.8-1-0.8-1.8h1
									c0.1,0.5,0.2,0.9,0.5,1.1c0.3,0.3,0.7,0.4,1.1,0.4c0.5,0,0.9-0.2,1.2-0.5c0.3-0.3,0.4-0.8,0.4-1.4c0-0.6-0.2-1-0.5-1.4
									c-0.3-0.4-0.7-0.5-1.3-0.5c-0.5,0-0.9,0.1-1.1,0.3l-0.3,0.2L-1445.5,2155.5z"/>
							</g>
						</g>
						<g id="x_dividido_entre_y">
							<g class="st4">
								<path class="st5" d="M-1481.7,2190.9c-0.1-0.1-0.1-0.4-0.2-0.7c-0.5,0.5-1.1,0.8-1.8,0.8c-0.6,0-1.2-0.2-1.6-0.5
									s-0.6-0.8-0.6-1.4c0-0.7,0.3-1.2,0.8-1.6s1.2-0.6,2.1-0.6h1.1v-0.5c0-0.4-0.1-0.7-0.3-0.9c-0.2-0.2-0.6-0.3-1-0.3
									c-0.4,0-0.7,0.1-1,0.3c-0.3,0.2-0.4,0.4-0.4,0.7h-1.1c0-0.3,0.1-0.6,0.3-0.9c0.2-0.3,0.5-0.5,0.9-0.7
									c0.4-0.2,0.8-0.3,1.3-0.3c0.7,0,1.3,0.2,1.7,0.6c0.4,0.4,0.6,0.9,0.7,1.5v3c0,0.6,0.1,1.1,0.2,1.4v0.1H-1481.7z
									 M-1483.6,2190.1c0.3,0,0.7-0.1,1-0.3c0.3-0.2,0.5-0.4,0.7-0.7v-1.3h-0.9c-1.3,0-2,0.4-2,1.2c0,0.3,0.1,0.6,0.3,0.8
									C-1484.2,2190-1483.9,2190.1-1483.6,2190.1z"/>
								<path class="st5" d="M-1475,2185.1l-1.8-0.5l0.3-0.9l1.8,0.7l-0.1-2h0.9l-0.1,2.1l1.8-0.7l0.3,0.9l-1.8,0.5l1.2,1.6
									l-0.7,0.6l-1.1-1.7l-1.1,1.7l-0.7-0.5L-1475,2185.1z"/>
								<path class="st5" d="M-1462.4,2187.8c0,1-0.2,1.8-0.7,2.4c-0.5,0.6-1.1,0.9-1.8,0.9c-0.8,0-1.4-0.3-1.9-0.9l-0.1,0.7h-1
									v-9.1h1.1v3.4c0.4-0.5,1.1-0.8,1.8-0.8s1.4,0.3,1.8,0.9S-1462.4,2186.7-1462.4,2187.8L-1462.4,2187.8z M-1463.5,2187.7
									c0-0.7-0.1-1.3-0.4-1.7c-0.3-0.4-0.7-0.6-1.2-0.6c-0.7,0-1.2,0.3-1.6,1v2.8c0.3,0.7,0.9,1,1.6,1c0.5,0,0.9-0.2,1.2-0.6
									C-1463.7,2189.1-1463.5,2188.5-1463.5,2187.7z"/>
								<path class="st5" d="M-1453,2186.1h-4.9v-1h4.9V2186.1z M-1453,2188.6h-4.9v-0.9h4.9V2188.6z"/>
								<path class="st5" d="M-1448,2186.6l0.4-4.3h4.4v1h-3.5l-0.3,2.4c0.4-0.2,0.9-0.4,1.4-0.4c0.8,0,1.4,0.3,1.9,0.8
									c0.5,0.5,0.7,1.2,0.7,2.1c0,0.9-0.2,1.6-0.7,2.1c-0.5,0.5-1.2,0.8-2,0.8c-0.8,0-1.4-0.2-1.9-0.6s-0.8-1-0.8-1.8h1
									c0.1,0.5,0.2,0.9,0.5,1.1c0.3,0.3,0.7,0.4,1.1,0.4c0.5,0,0.9-0.2,1.2-0.5s0.4-0.8,0.4-1.4c0-0.6-0.2-1-0.5-1.4
									c-0.3-0.4-0.7-0.5-1.3-0.5c-0.5,0-0.9,0.1-1.1,0.3l-0.3,0.2L-1448,2186.6z"/>
								<path class="st5" d="M-1436.3,2187.3c0,1.3-0.2,2.2-0.7,2.9c-0.4,0.6-1.1,0.9-2.1,0.9c-0.9,0-1.6-0.3-2-0.9
									c-0.4-0.6-0.7-1.5-0.7-2.7v-1.5c0-1.3,0.2-2.2,0.7-2.8c0.4-0.6,1.1-0.9,2.1-0.9c0.9,0,1.6,0.3,2.1,0.9s0.7,1.5,0.7,2.8
									V2187.3z M-1437.4,2185.8c0-0.9-0.1-1.6-0.4-2c-0.3-0.4-0.7-0.6-1.2-0.6c-0.6,0-1,0.2-1.2,0.6s-0.4,1.1-0.4,2v1.8
									c0,0.9,0.1,1.6,0.4,2.1s0.7,0.7,1.2,0.7c0.5,0,0.9-0.2,1.2-0.6c0.3-0.4,0.4-1.1,0.4-2V2185.8z"/>
							</g>
						</g>
						<g id="resto_de_la_divisióny">
							<g class="st4">
								<path class="st5" d="M-1476.8,2225c0,1-0.2,1.8-0.7,2.4c-0.5,0.6-1.1,0.9-1.8,0.9c-0.8,0-1.4-0.3-1.9-0.9l-0.1,0.7h-1v-9.1
									h1.1v3.4c0.4-0.5,1.1-0.8,1.8-0.8s1.4,0.3,1.8,0.9C-1477,2223.1-1476.8,2223.9-1476.8,2225L-1476.8,2225z M-1477.8,2224.9
									c0-0.7-0.1-1.3-0.4-1.7c-0.3-0.4-0.7-0.6-1.2-0.6c-0.7,0-1.2,0.3-1.6,1v2.8c0.3,0.7,0.9,1,1.6,1c0.5,0,0.9-0.2,1.2-0.6
									C-1478,2226.3-1477.8,2225.7-1477.8,2224.9z"/>
								<path class="st5" d="M-1472.1,2228.9h-0.9l3.6-9.4h0.9L-1472.1,2228.9z"/>
								<path class="st5" d="M-1460.4,2228.1c-0.1-0.1-0.1-0.4-0.2-0.7c-0.5,0.5-1.1,0.8-1.8,0.8c-0.6,0-1.2-0.2-1.6-0.5
									c-0.4-0.4-0.6-0.8-0.6-1.4c0-0.7,0.3-1.2,0.8-1.6s1.2-0.6,2.1-0.6h1.1v-0.5c0-0.4-0.1-0.7-0.3-0.9c-0.2-0.2-0.6-0.3-1-0.3
									c-0.4,0-0.7,0.1-1,0.3c-0.3,0.2-0.4,0.4-0.4,0.7h-1.1c0-0.3,0.1-0.6,0.3-0.9c0.2-0.3,0.5-0.5,0.9-0.7
									c0.4-0.2,0.8-0.3,1.3-0.3c0.7,0,1.3,0.2,1.7,0.6s0.6,0.9,0.7,1.5v3c0,0.6,0.1,1.1,0.2,1.4v0.1H-1460.4z M-1462.2,2227.3
									c0.3,0,0.7-0.1,1-0.3s0.5-0.4,0.7-0.7v-1.3h-0.9c-1.3,0-2,0.4-2,1.2c0,0.3,0.1,0.6,0.3,0.8S-1462.6,2227.3-1462.2,2227.3z"
									/>
								<path class="st5" d="M-1449.7,2223.3h-4.9v-1h4.9V2223.3z M-1449.7,2225.8h-4.9v-0.9h4.9V2225.8z"/>
								<path class="st5" d="M-1439.5,2228.1h-5.7v-0.8l3-3.3c0.4-0.5,0.7-0.9,0.9-1.2c0.2-0.3,0.3-0.6,0.3-1c0-0.5-0.1-0.8-0.4-1.1
									s-0.6-0.4-1.1-0.4c-0.5,0-1,0.2-1.3,0.5c-0.3,0.3-0.5,0.7-0.5,1.3h-1.1c0-0.8,0.3-1.4,0.8-1.9s1.2-0.7,2.1-0.7
									c0.8,0,1.4,0.2,1.9,0.6c0.5,0.4,0.7,1,0.7,1.7c0,0.8-0.5,1.9-1.6,3l-2.3,2.5h4.3V2228.1z"/>
							</g>
						</g>
						<g id="x_más_y">
							<g class="st4">
								<path class="st5" d="M-1478.7,2259.9c0,1-0.2,1.8-0.7,2.4c-0.5,0.6-1.1,0.9-1.8,0.9c-0.8,0-1.4-0.3-1.9-0.9l-0.1,0.7h-1
									v-9.1h1.1v3.4c0.4-0.5,1.1-0.8,1.8-0.8s1.4,0.3,1.8,0.9S-1478.7,2258.8-1478.7,2259.9L-1478.7,2259.9z M-1479.8,2259.8
									c0-0.7-0.1-1.3-0.4-1.7c-0.3-0.4-0.7-0.6-1.2-0.6c-0.7,0-1.2,0.3-1.6,1v2.8c0.3,0.7,0.9,1,1.6,1c0.5,0,0.9-0.2,1.2-0.6
									C-1479.9,2261.2-1479.8,2260.6-1479.8,2259.8z"/>
								<path class="st5" d="M-1474.5,2256c0-0.5,0.2-0.9,0.5-1.3s0.8-0.5,1.3-0.5c0.5,0,1,0.2,1.3,0.5s0.5,0.8,0.5,1.3v0.4
									c0,0.5-0.2,0.9-0.5,1.3c-0.3,0.3-0.8,0.5-1.3,0.5c-0.5,0-0.9-0.2-1.3-0.5c-0.3-0.3-0.5-0.8-0.5-1.3V2256z M-1473.7,2256.5
									c0,0.3,0.1,0.6,0.3,0.8s0.4,0.3,0.7,0.3c0.3,0,0.5-0.1,0.7-0.3s0.3-0.5,0.3-0.8v-0.4c0-0.3-0.1-0.6-0.3-0.8
									s-0.4-0.3-0.7-0.3c-0.3,0-0.5,0.1-0.7,0.3s-0.3,0.5-0.3,0.8V2256.5z M-1472.5,2262.4l-0.6-0.4l4.2-6.7l0.6,0.4
									L-1472.5,2262.4z M-1470.3,2260.9c0-0.5,0.2-0.9,0.5-1.3c0.3-0.3,0.8-0.5,1.3-0.5c0.5,0,0.9,0.2,1.3,0.5
									c0.3,0.3,0.5,0.8,0.5,1.3v0.4c0,0.5-0.2,0.9-0.5,1.3c-0.3,0.3-0.8,0.5-1.3,0.5s-0.9-0.2-1.3-0.5s-0.5-0.8-0.5-1.3V2260.9z
									 M-1469.5,2261.4c0,0.3,0.1,0.6,0.3,0.8s0.4,0.3,0.7,0.3c0.3,0,0.5-0.1,0.7-0.3s0.3-0.5,0.3-0.8v-0.4c0-0.3-0.1-0.6-0.3-0.8
									s-0.4-0.3-0.7-0.3c-0.3,0-0.5,0.1-0.7,0.3c-0.2,0.2-0.3,0.5-0.3,0.8V2261.4z"/>
								<path class="st5" d="M-1458.5,2263c-0.1-0.1-0.1-0.4-0.2-0.7c-0.5,0.5-1.1,0.8-1.8,0.8c-0.6,0-1.2-0.2-1.6-0.5
									c-0.4-0.4-0.6-0.8-0.6-1.4c0-0.7,0.3-1.2,0.8-1.6s1.2-0.6,2.1-0.6h1.1v-0.5c0-0.4-0.1-0.7-0.3-0.9c-0.2-0.2-0.6-0.3-1-0.3
									c-0.4,0-0.7,0.1-1,0.3c-0.3,0.2-0.4,0.4-0.4,0.7h-1.1c0-0.3,0.1-0.6,0.3-0.9c0.2-0.3,0.5-0.5,0.9-0.7
									c0.4-0.2,0.8-0.3,1.3-0.3c0.7,0,1.3,0.2,1.7,0.6s0.6,0.9,0.7,1.5v3c0,0.6,0.1,1.1,0.2,1.4v0.1H-1458.5z M-1460.3,2262.2
									c0.3,0,0.7-0.1,1-0.3s0.5-0.4,0.7-0.7v-1.3h-0.9c-1.3,0-2,0.4-2,1.2c0,0.3,0.1,0.6,0.3,0.8S-1460.6,2262.2-1460.3,2262.2z"
									/>
								<path class="st5" d="M-1447.8,2258.2h-4.9v-1h4.9V2258.2z M-1447.8,2260.7h-4.9v-0.9h4.9V2260.7z"/>
								<path class="st5" d="M-1437.8,2259.3c0,1.3-0.2,2.2-0.7,2.9c-0.4,0.6-1.1,0.9-2.1,0.9c-0.9,0-1.6-0.3-2-0.9
									c-0.4-0.6-0.7-1.5-0.7-2.7v-1.5c0-1.3,0.2-2.2,0.7-2.8c0.4-0.6,1.1-0.9,2.1-0.9c0.9,0,1.6,0.3,2.1,0.9s0.7,1.5,0.7,2.8
									V2259.3z M-1438.9,2257.8c0-0.9-0.1-1.6-0.4-2c-0.3-0.4-0.7-0.6-1.2-0.6c-0.6,0-1,0.2-1.2,0.6s-0.4,1.1-0.4,2v1.8
									c0,0.9,0.1,1.6,0.4,2.1s0.7,0.7,1.2,0.7c0.5,0,0.9-0.2,1.2-0.6c0.3-0.4,0.4-1.1,0.4-2V2257.8z"/>
							</g>
						</g>
						<g id="x_menos_y">
							<g class="st4">
								<path class="st5" d="M-1496.5,2297.1c0,1-0.2,1.8-0.7,2.4c-0.5,0.6-1.1,0.9-1.8,0.9c-0.8,0-1.4-0.3-1.9-0.9l-0.1,0.7h-1
									v-9.1h1.1v3.4c0.4-0.5,1.1-0.8,1.8-0.8s1.4,0.3,1.8,0.9C-1496.7,2295.1-1496.5,2295.9-1496.5,2297.1L-1496.5,2297.1z
									 M-1497.6,2296.9c0-0.7-0.1-1.3-0.4-1.7c-0.3-0.4-0.7-0.6-1.2-0.6c-0.7,0-1.2,0.3-1.6,1v2.8c0.3,0.7,0.9,1,1.6,1
									c0.5,0,0.9-0.2,1.2-0.6C-1497.8,2298.4-1497.6,2297.8-1497.6,2296.9z"/>
								<path class="st5" d="M-1491,2294.4l-1.8-0.5l0.3-0.9l1.8,0.7l-0.1-2h0.9l-0.1,2.1l1.8-0.7l0.3,0.9l-1.8,0.5l1.2,1.6
									l-0.7,0.6l-1.1-1.7l-1.1,1.7l-0.7-0.5L-1491,2294.4z"/>
								<path class="st5" d="M-1485.8,2294.4l-1.8-0.5l0.3-0.9l1.8,0.7l-0.1-2h0.9l-0.1,2.1l1.8-0.7l0.3,0.9l-1.8,0.5l1.2,1.6
									l-0.7,0.6l-1.1-1.7l-1.1,1.7l-0.7-0.5L-1485.8,2294.4z"/>
								<path class="st5" d="M-1474.7,2300.2c-0.1-0.1-0.1-0.4-0.2-0.7c-0.5,0.5-1.1,0.8-1.8,0.8c-0.6,0-1.2-0.2-1.6-0.5
									c-0.4-0.4-0.6-0.8-0.6-1.4c0-0.7,0.3-1.2,0.8-1.6s1.2-0.6,2.1-0.6h1.1v-0.5c0-0.4-0.1-0.7-0.3-0.9c-0.2-0.2-0.6-0.3-1-0.3
									c-0.4,0-0.7,0.1-1,0.3c-0.3,0.2-0.4,0.4-0.4,0.7h-1.1c0-0.3,0.1-0.6,0.3-0.9c0.2-0.3,0.5-0.5,0.9-0.7
									c0.4-0.2,0.8-0.3,1.3-0.3c0.7,0,1.3,0.2,1.7,0.6s0.6,0.9,0.7,1.5v3c0,0.6,0.1,1.1,0.2,1.4v0.1H-1474.7z M-1476.5,2299.4
									c0.3,0,0.7-0.1,1-0.3s0.5-0.4,0.7-0.7v-1.3h-0.9c-1.3,0-2,0.4-2,1.2c0,0.3,0.1,0.6,0.3,0.8S-1476.9,2299.4-1476.5,2299.4z"
									/>
								<path class="st5" d="M-1464.1,2295.4h-4.9v-1h4.9V2295.4z M-1464.1,2297.8h-4.9v-0.9h4.9V2297.8z"/>
								<path class="st5" d="M-1455.9,2300.2h-1.1v-7.3l-2.2,0.8v-1l3.1-1.2h0.2V2300.2z"/>
								<path class="st5" d="M-1447.3,2296.5c0,1.3-0.2,2.2-0.7,2.9c-0.4,0.6-1.1,0.9-2.1,0.9c-0.9,0-1.6-0.3-2-0.9
									c-0.4-0.6-0.7-1.5-0.7-2.7v-1.5c0-1.3,0.2-2.2,0.7-2.8c0.4-0.6,1.1-0.9,2.1-0.9c0.9,0,1.6,0.3,2.1,0.9s0.7,1.5,0.7,2.8
									V2296.5z M-1448.4,2295c0-0.9-0.1-1.6-0.4-2c-0.3-0.4-0.7-0.6-1.2-0.6c-0.6,0-1,0.2-1.2,0.6s-0.4,1.1-0.4,2v1.8
									c0,0.9,0.1,1.6,0.4,2.1s0.7,0.7,1.2,0.7c0.5,0,0.9-0.2,1.2-0.6c0.3-0.4,0.4-1.1,0.4-2V2295z"/>
								<path class="st5" d="M-1440.5,2296.5c0,1.3-0.2,2.2-0.7,2.9c-0.4,0.6-1.1,0.9-2.1,0.9c-0.9,0-1.6-0.3-2-0.9
									c-0.4-0.6-0.7-1.5-0.7-2.7v-1.5c0-1.3,0.2-2.2,0.7-2.8c0.4-0.6,1.1-0.9,2.1-0.9c0.9,0,1.6,0.3,2.1,0.9s0.7,1.5,0.7,2.8
									V2296.5z M-1441.6,2295c0-0.9-0.1-1.6-0.4-2c-0.3-0.4-0.7-0.6-1.2-0.6c-0.6,0-1,0.2-1.2,0.6s-0.4,1.1-0.4,2v1.8
									c0,0.9,0.1,1.6,0.4,2.1s0.7,0.7,1.2,0.7c0.5,0,0.9-0.2,1.2-0.6c0.3-0.4,0.4-1.1,0.4-2V2295z"/>
								<path class="st5" d="M-1433.7,2296.5c0,1.3-0.2,2.2-0.7,2.9c-0.4,0.6-1.1,0.9-2.1,0.9c-0.9,0-1.6-0.3-2-0.9
									c-0.4-0.6-0.7-1.5-0.7-2.7v-1.5c0-1.3,0.2-2.2,0.7-2.8s1.1-0.9,2.1-0.9c0.9,0,1.6,0.3,2.1,0.9s0.7,1.5,0.7,2.8V2296.5z
									 M-1434.7,2295c0-0.9-0.1-1.6-0.4-2c-0.3-0.4-0.7-0.6-1.2-0.6c-0.6,0-1,0.2-1.2,0.6s-0.4,1.1-0.4,2v1.8
									c0,0.9,0.1,1.6,0.4,2.1s0.7,0.7,1.2,0.7c0.5,0,0.9-0.2,1.2-0.6c0.3-0.4,0.4-1.1,0.4-2V2295z"/>
								<path class="st5" d="M-1426.8,2296.5c0,1.3-0.2,2.2-0.7,2.9c-0.4,0.6-1.1,0.9-2.1,0.9c-0.9,0-1.6-0.3-2-0.9
									c-0.4-0.6-0.7-1.5-0.7-2.7v-1.5c0-1.3,0.2-2.2,0.7-2.8s1.1-0.9,2.1-0.9c0.9,0,1.6,0.3,2.1,0.9s0.7,1.5,0.7,2.8V2296.5z
									 M-1427.9,2295c0-0.9-0.1-1.6-0.4-2c-0.3-0.4-0.7-0.6-1.2-0.6c-0.6,0-1,0.2-1.2,0.6s-0.4,1.1-0.4,2v1.8
									c0,0.9,0.1,1.6,0.4,2.1s0.7,0.7,1.2,0.7c0.5,0,0.9-0.2,1.2-0.6c0.3-0.4,0.4-1.1,0.4-2V2295z"/>
								<path class="st5" d="M-1420,2296.5c0,1.3-0.2,2.2-0.7,2.9c-0.4,0.6-1.1,0.9-2.1,0.9c-0.9,0-1.6-0.3-2-0.9
									c-0.4-0.6-0.7-1.5-0.7-2.7v-1.5c0-1.3,0.2-2.2,0.7-2.8s1.1-0.9,2.1-0.9c0.9,0,1.6,0.3,2.1,0.9s0.7,1.5,0.7,2.8V2296.5z
									 M-1421.1,2295c0-0.9-0.1-1.6-0.4-2c-0.3-0.4-0.7-0.6-1.2-0.6c-0.6,0-1,0.2-1.2,0.6s-0.4,1.1-0.4,2v1.8
									c0,0.9,0.1,1.6,0.4,2.1s0.7,0.7,1.2,0.7c0.5,0,0.9-0.2,1.2-0.6c0.3-0.4,0.4-1.1,0.4-2V2295z"/>
							</g>
						</g>
						<g id="x_menos_y-2">
							<g class="st4">
								<path class="st5" d="M-1478.6,2331.3c0,1-0.2,1.8-0.7,2.4c-0.5,0.6-1.1,0.9-1.8,0.9c-0.8,0-1.4-0.3-1.9-0.9l-0.1,0.7h-1
									v-9.1h1.1v3.4c0.4-0.5,1.1-0.8,1.8-0.8s1.4,0.3,1.8,0.9C-1478.8,2329.3-1478.6,2330.1-1478.6,2331.3L-1478.6,2331.3z
									 M-1479.7,2331.1c0-0.7-0.1-1.3-0.4-1.7c-0.3-0.4-0.7-0.6-1.2-0.6c-0.7,0-1.2,0.3-1.6,1v2.8c0.3,0.7,0.9,1,1.6,1
									c0.5,0,0.9-0.2,1.2-0.6C-1479.8,2332.6-1479.7,2332-1479.7,2331.1z"/>
								<path class="st5" d="M-1474,2335.1h-0.9l3.6-9.4h0.9L-1474,2335.1z"/>
								<path class="st5" d="M-1470.3,2335.1h-0.9l3.6-9.4h0.9L-1470.3,2335.1z"/>
								<path class="st5" d="M-1458.6,2334.4c-0.1-0.1-0.1-0.4-0.2-0.7c-0.5,0.5-1.1,0.8-1.8,0.8c-0.6,0-1.2-0.2-1.6-0.5
									c-0.4-0.4-0.6-0.8-0.6-1.4c0-0.7,0.3-1.2,0.8-1.6s1.2-0.6,2.1-0.6h1.1v-0.5c0-0.4-0.1-0.7-0.3-0.9c-0.2-0.2-0.6-0.3-1-0.3
									c-0.4,0-0.7,0.1-1,0.3c-0.3,0.2-0.4,0.4-0.4,0.7h-1.1c0-0.3,0.1-0.6,0.3-0.9c0.2-0.3,0.5-0.5,0.9-0.7
									c0.4-0.2,0.8-0.3,1.3-0.3c0.7,0,1.3,0.2,1.7,0.6s0.6,0.9,0.7,1.5v3c0,0.6,0.1,1.1,0.2,1.4v0.1H-1458.6z M-1460.4,2333.6
									c0.3,0,0.7-0.1,1-0.3s0.5-0.4,0.7-0.7v-1.3h-0.9c-1.3,0-2,0.4-2,1.2c0,0.3,0.1,0.6,0.3,0.8S-1460.7,2333.6-1460.4,2333.6z"
									/>
								<path class="st5" d="M-1447.9,2329.6h-4.9v-1h4.9V2329.6z M-1447.9,2332h-4.9v-0.9h4.9V2332z"/>
								<path class="st5" d="M-1437.7,2334.4h-5.7v-0.8l3-3.3c0.4-0.5,0.7-0.9,0.9-1.2c0.2-0.3,0.3-0.6,0.3-1c0-0.5-0.1-0.8-0.4-1.1
									s-0.6-0.4-1.1-0.4c-0.5,0-1,0.2-1.3,0.5c-0.3,0.3-0.5,0.7-0.5,1.3h-1.1c0-0.8,0.3-1.4,0.8-1.9s1.2-0.7,2.1-0.7
									c0.8,0,1.4,0.2,1.9,0.6c0.5,0.4,0.7,1,0.7,1.7c0,0.8-0.5,1.9-1.6,3l-2.3,2.5h4.3V2334.4z"/>
							</g>
						</g>
						<g id="Ejemplo">
							<g class="st4">
								<path class="st5" d="M-1476.9,2083.6h-3.8v2.6h4.5v1.6h-6.5v-9.7h6.5v1.6h-4.5v2.3h3.8V2083.6z"/>
								<path class="st5" d="M-1473.1,2080.6v7.6c0,0.8-0.2,1.4-0.6,1.9c-0.4,0.4-1,0.7-1.8,0.7c-0.3,0-0.7,0-1-0.1v-1.5
									c0.2,0,0.4,0.1,0.6,0.1c0.6,0,0.9-0.3,0.9-0.9v-7.6H-1473.1z M-1475.2,2078.8c0-0.3,0.1-0.5,0.3-0.7s0.5-0.3,0.8-0.3
									c0.3,0,0.6,0.1,0.8,0.3s0.3,0.4,0.3,0.7c0,0.3-0.1,0.5-0.3,0.7c-0.2,0.2-0.5,0.3-0.8,0.3s-0.6-0.1-0.8-0.3
									C-1475.1,2079.3-1475.2,2079.1-1475.2,2078.8z"/>
								<path class="st5" d="M-1468.3,2088c-1.1,0-1.9-0.3-2.6-1c-0.7-0.6-1-1.5-1-2.6v-0.2c0-0.7,0.1-1.4,0.4-1.9s0.7-1,1.2-1.3
									c0.5-0.3,1.1-0.5,1.8-0.5c1,0,1.8,0.3,2.3,0.9c0.6,0.6,0.8,1.5,0.8,2.6v0.8h-4.6c0.1,0.5,0.2,0.8,0.6,1.1
									c0.3,0.3,0.7,0.4,1.2,0.4c0.7,0,1.3-0.3,1.7-0.8l0.9,1.1c-0.3,0.4-0.7,0.7-1.2,1C-1467.2,2087.9-1467.7,2088-1468.3,2088z
									 M-1468.5,2082.1c-0.4,0-0.7,0.1-0.9,0.4c-0.2,0.3-0.4,0.6-0.5,1.1h2.7v-0.2c0-0.4-0.1-0.8-0.3-1
									S-1468.1,2082.1-1468.5,2082.1z"/>
								<path class="st5" d="M-1462.4,2080.6l0.1,0.8c0.5-0.6,1.2-0.9,2.1-0.9c0.9,0,1.6,0.4,1.9,1.1c0.5-0.7,1.2-1.1,2.2-1.1
									c0.8,0,1.4,0.2,1.7,0.7c0.4,0.5,0.6,1.1,0.6,2.1v4.6h-1.9v-4.6c0-0.4-0.1-0.7-0.2-0.9s-0.4-0.3-0.8-0.3
									c-0.6,0-1,0.3-1.2,0.8l0,5h-1.9v-4.6c0-0.4-0.1-0.7-0.2-0.9c-0.2-0.2-0.4-0.3-0.8-0.3c-0.5,0-0.9,0.2-1.2,0.7v5.1h-1.9v-7.2
									H-1462.4z"/>
								<path class="st5" d="M-1445.9,2084.3c0,1.1-0.3,2-0.8,2.7s-1.2,1-2,1c-0.7,0-1.3-0.3-1.8-0.8v3.4h-1.9v-10h1.8l0.1,0.7
									c0.5-0.6,1.1-0.8,1.8-0.8c0.9,0,1.6,0.3,2.1,1C-1446.2,2082.2-1445.9,2083.1-1445.9,2084.3L-1445.9,2084.3z M-1447.8,2084.2
									c0-0.7-0.1-1.2-0.4-1.6c-0.2-0.4-0.6-0.5-1-0.5c-0.6,0-1,0.2-1.2,0.7v3c0.2,0.5,0.7,0.7,1.3,0.7
									C-1448.3,2086.4-1447.8,2085.7-1447.8,2084.2z"/>
								<path class="st5" d="M-1442.7,2087.9h-1.9v-10.2h1.9V2087.9z"/>
								<path class="st5" d="M-1441.4,2084.2c0-0.7,0.1-1.4,0.4-1.9c0.3-0.6,0.7-1,1.2-1.3c0.5-0.3,1.1-0.5,1.8-0.5
									c1,0,1.8,0.3,2.4,0.9c0.6,0.6,1,1.4,1,2.4l0,0.5c0,1.1-0.3,2-0.9,2.7c-0.6,0.7-1.4,1-2.5,1c-1,0-1.9-0.3-2.5-1
									S-1441.4,2085.4-1441.4,2084.2L-1441.4,2084.2z M-1439.5,2084.3c0,0.7,0.1,1.2,0.4,1.6c0.3,0.4,0.6,0.5,1.1,0.5
									c0.5,0,0.8-0.2,1.1-0.5c0.3-0.4,0.4-0.9,0.4-1.7c0-0.7-0.1-1.2-0.4-1.6c-0.3-0.4-0.6-0.6-1.1-0.6c-0.5,0-0.8,0.2-1.1,0.6
									S-1439.5,2083.6-1439.5,2084.3z"/>
							</g>
						</g>
					</g>
				</g>
			</g>
		</g>
	</g>
	<rect id="Rectángulo_295252" x="835" y="4338.1" class="st6" width="517.5" height="3.4"/>
</g>
</svg>
